<svg height="200" viewBox="0 0 52.917 52.917" width="200" xmlns="http://www.w3.org/2000/svg"><marker id="b" orient="auto" overflow="visible" refX="0" refY="0"><path d="M-4 0l-2 2 7-2-7-2z" fill="#2c3e50" fill-rule="evenodd" stroke="#2c3e50" stroke-width=".4pt"/></marker><marker id="a" orient="auto" overflow="visible" refX="0" refY="0"><path d="M-4 0l-2 2 7-2-7-2z" fill="#2c3e50" fill-rule="evenodd" stroke="#2c3e50" stroke-width=".4pt"/></marker><path d="M0 0h52.917v52.917H0z" fill="#ecf0f1" fill-rule="evenodd"/><g stroke-width=".529" transform="translate(0 -244.083)"><path d="M11.746 282.361h6.112v4.631h-6.112zM11.746 277.73h6.112v4.631h-6.112zM11.746 273.1h6.112v4.63h-6.112z" fill="#2ecc71" fill-rule="evenodd" stroke="#2c3e50"/><path d="M17.858 282.361h6.112v4.631h-6.112zM17.858 277.73h6.112v4.631h-6.112zM17.858 273.1h6.112v4.63h-6.112zM17.858 268.468h6.112v4.631h-6.112zM17.858 263.837h6.112v4.631h-6.112zM17.858 259.206h6.112v4.631h-6.112z" fill="#f1c40f" fill-rule="evenodd" stroke="#2c3e50"/><path d="M23.97 282.361h6.112v4.631H23.97zM23.97 277.73h6.112v4.631H23.97zM23.97 273.1h6.112v4.63H23.97zM23.97 268.468h6.112v4.631H23.97z" fill="#1abc9c" fill-rule="evenodd" stroke="#2c3e50"/><path d="M30.082 282.361h6.111v4.631h-6.111zM30.082 277.73h6.111v4.631h-6.111zM30.082 273.1h6.111v4.63h-6.111zM30.082 268.468h6.111v4.631h-6.111zM30.082 263.837h6.111v4.631h-6.111zM30.082 259.206h6.111v4.631h-6.111z" fill="#3498db" fill-rule="evenodd" stroke="#2c3e50"/><path d="M36.193 282.361h6.112v4.631h-6.112z" fill="#e74c3c" fill-rule="evenodd" stroke="#2c3e50"/><path d="M11.746 286.992v-32.46" fill="none" marker-end="url(#a)" stroke="#2c3e50"/><path d="M11.746 286.992h30.56" fill="none" marker-end="url(#b)" stroke="#2c3e50"/><rect fill="#2ecc71" fill-rule="evenodd" height="13.893" opacity=".99" ry=".033" stroke="#34495e" width="6.112" x="11.746" y="273.099"/><rect fill="#f1c40f" fill-rule="evenodd" height="27.786" opacity=".99" ry=".033" stroke="#34495e" width="6.112" x="17.858" y="259.206"/><rect fill="#1abc9c" fill-rule="evenodd" height="18.524" opacity=".99" ry=".033" stroke="#34495e" width="6.112" x="23.97" y="268.468"/><rect fill="#3498db" fill-rule="evenodd" height="27.786" opacity=".99" ry=".033" stroke="#34495e" width="6.112" x="30.082" y="259.206"/><rect fill="#e74c3c" fill-rule="evenodd" height="4.631" opacity=".99" ry=".033" stroke="#34495e" width="6.112" x="36.193" y="282.361"/></g></svg>