<svg xmlns="http://www.w3.org/2000/svg" width="218.076" height="133"><defs><marker id="d" refX="0" refY="0" orient="auto" overflow="visible"><path d="M2.308 0l-3.46 2v-4z" fill-rule="evenodd" stroke="#000" stroke-width=".4pt"/></marker><marker orient="auto" refY="0" refX="0" id="c" overflow="visible"><path d="M2.308 0l-3.46 2v-4z" fill-rule="evenodd" stroke="#000" stroke-width=".4pt"/></marker><marker orient="auto" refY="0" refX="0" id="b" overflow="visible"><path d="M2.308 0l-3.46 2v-4z" fill-rule="evenodd" stroke="#000" stroke-width=".4pt"/></marker><marker id="a" refX="0" refY="0" orient="auto" overflow="visible"><path d="M2.308 0l-3.46 2v-4z" fill-rule="evenodd" stroke="#000" stroke-width=".4pt"/></marker></defs><path d="M14.514 108.396h144.873l44.386-94.2H58.901l-44.387 94.2" fill="teal" stroke="#000"/><g font-weight="400" font-size="19" font-family="TEMPO" letter-spacing="0" word-spacing="0"><path style="line-height:1.25;-inkscape-font-specification:TEMPO" d="M47.498 9.173q-1.652.39-2.616 1.79h-1.16q.427-.908.724-1.335h-6.958V8.264h6.958q-.297-.417-.724-1.326h1.16q.964 1.391 2.616 1.78zM42.075 19.161q1.234-1.68 2.737-1.688 1.215 0 1.744 1.15.288.63.288 1.429 0 1.91-1.17 3.636-1.094 1.615-2.727 2.348-1.03.464-2.096.464-1.049 0-1.874-.316-.826-.325-.835-.844.009-.232.38-1.54l1.79-6.216q.743-2.56.743-2.96 0-.491-.724-.556-.13-.01-.51-.019v-.51l3.99-.575zm2.394.91q0-1.309-.78-1.309-1.28 0-2.263 2.904-.149.445-.436 1.41-.51 1.716-.51 2.134.018.65.593.659 1.076 0 2.05-1.485.882-1.336 1.216-3.08.13-.668.13-1.234z"/></g><path d="M14.514 108.396h139.243" fill="none" stroke="#000" stroke-width="2" stroke-linecap="round" marker-end="url(#a)"/><path d="M14.514 108.396l42.503-90.2" fill="none" stroke="#000" stroke-width="2" stroke-linecap="round" marker-end="url(#b)"/><path d="M14.514 108.396L198.962 16.87" fill="none" stroke="#000" stroke-width="2" stroke-linecap="round" marker-end="url(#c)"/><path d="M59.25 14.767l96.265 90.183" fill="none" stroke="#000" stroke-width="2" stroke-linecap="round" marker-end="url(#d)"/><g font-weight="400" font-size="19" font-family="TEMPO" letter-spacing="0" word-spacing="0"><path style="line-height:1.25;-inkscape-font-specification:TEMPO" d="M140.161 117.258l2.106-.13-1.428 4.769q-.566 1.911-.566 2.533.018.269.232.278.408 0 1.28-1.188.019-.027.056-.074.037-.046.046-.065l.399.288q-1.484 2.384-2.969 2.393-.807 0-1.094-.612-.103-.241-.103-.51 0-.501.27-1.41-.817 1.373-1.513 1.93-.751.584-1.632.584-1.197 0-1.726-1.058-.297-.593-.297-1.363 0-1.457.918-3.22.928-1.762 2.218-2.69.965-.696 1.902-.696 1.057 0 1.4.78.103.24.168.584zm-1.187 3.674q.408-1.364.408-1.985-.01-1.123-.705-1.132-.724 0-1.605 1.373-.872 1.364-1.308 3.024-.204.808-.204 1.392.018 1.076.816 1.085 1.049 0 2.004-2.152.334-.742.594-1.605zM142.76 113.227q-1.652.39-2.617 1.79h-1.16q.427-.91.724-1.336h-6.958v-1.364h6.958q-.297-.417-.724-1.326h1.16q.965 1.391 2.616 1.78z"/></g><g font-weight="400" font-size="19" font-family="TEMPO" letter-spacing="0" word-spacing="0"><path style="line-height:1.25;-inkscape-font-specification:TEMPO" d="M149.458 22.929h5.363q4.147.009 4.156 2.94 0 2.209-2.078 3.155-1.299.594-3.108.594-.751 0-1.54-.093l-1.02 3.776q-.214.825-.214 1.113 0 .64.983.724.01.009.39.027v.474h-5.585v-.474q.863-.102 1.206-.584.204-.297.39-.974l2.217-8.1q.25-.927.25-1.28 0-.491-.324-.63-.195-.093-.881-.167l-.205-.028zm4.147 1.614l-1.16 4.35q.325.057 1.003.057 1.725 0 2.412-1.754.343-.909.343-2.06 0-.871-.594-1.326-.37-.278-.872-.278-.658 0-.881.315-.111.186-.25.696zM159.896 19.138q-1.651.39-2.616 1.79h-1.16q.427-.909.724-1.335h-6.958v-1.364h6.958q-.297-.418-.724-1.327h1.16q.965 1.392 2.616 1.781z"/></g><g font-weight="400" font-size="19" font-family="TEMPO" letter-spacing="0" word-spacing="0"><path style="line-height:1.25;-inkscape-font-specification:TEMPO" d="M155.123 75.73q1.688 0 2.94.992 1.392 1.113 1.568 2.969.028.25.028.5 0 2.469-1.336 4.695-1.27 2.125-3.321 3.247-1.735.947-3.692.947l-.826.909q1.02.009 2.774.5 1.512.428 2.06.483.204.019.38.019 1.234 0 2.17-.798.233-.204.706-.687l.399.362q-1.373 2.041-3.09 2.598-.733.232-1.558.232-1.243 0-2.626-.427-1.132-.343-1.586-.408-.334-.056-.668-.056-.752 0-2.115.529l-.27-.455 3.387-2.894q-1.902-.362-2.783-1.856-.622-1.048-.622-2.505 0-2.412 1.336-4.666 1.234-2.088 3.173-3.22 1.707-1.01 3.572-1.01zm-.01.649q-2.004 0-3.516 2.839-1.085 2.05-1.605 4.796-.213 1.141-.213 1.837 0 1.614.853 2.273.418.315.956.315 2.013 0 3.516-2.773 1.104-2.032 1.605-4.788.213-1.15.213-1.91 0-2.06-1.196-2.487-.279-.102-.613-.102zM159.66 71.939q-1.652.39-2.617 1.79h-1.16q.427-.909.724-1.336h-6.958V71.03h6.958q-.297-.418-.724-1.327h1.16q.965 1.392 2.616 1.781z"/></g></svg>