<svg height="142" viewBox="0 0 77.258332 37.570834" width="292" xmlns="http://www.w3.org/2000/svg" xmlns:xlink="http://www.w3.org/1999/xlink"><marker id="a" orient="auto" overflow="visible" refX="0" refY="0"><path d="m8.7185878 4.0337352-10.9258773-4.01772194 10.9258779-4.01772106c-1.7454984 2.3720609-1.7354408 5.6174519-.0000006 8.035443z" fill-rule="evenodd" stroke="#000" stroke-linejoin="round" stroke-width=".625" transform="scale(-.6)"/></marker><marker id="b" orient="auto" overflow="visible" refX="0" refY="0"><path d="m8.7185878 4.0337352-10.9258773-4.01772194 10.9258779-4.01772106c-1.7454984 2.3720609-1.7354408 5.6174519-.0000006 8.035443z" fill-rule="evenodd" stroke="#000" stroke-linejoin="round" stroke-width=".625" transform="matrix(-.3 0 0 -.3 .69 0)"/></marker><g transform="translate(-53.974999 -2.533413)"><use height="100%" transform="translate(0 25.929167)" width="100%" xlink:href="#c"/><path id="c" d="m77.859344 7.609906h55.403576v8.191295h-55.403576z" fill="#b3b3b3" stroke="#000" stroke-width=".932211" transform="matrix(1 0 -.68874747 .72500133 0 0)"/><path id="d" d="m75.094878 34.823062v-20.770878" fill="none" marker-end="url(#a)" stroke="#000" stroke-width=".79375"/><use id="e" fill="none" height="100%" stroke="#000" transform="translate(5.291667)" width="100%" xlink:href="#d"/><use id="f" fill="none" height="100%" stroke="#000" transform="translate(5.291667)" width="100%" xlink:href="#e"/><use id="g" fill="none" height="100%" stroke="#000" transform="translate(5.291667)" width="100%" xlink:href="#f"/><use id="h" fill="none" height="100%" stroke="#000" transform="translate(5.291667)" width="100%" xlink:href="#g"/><use id="i" fill="none" height="100%" stroke="#000" transform="translate(5.291667)" width="100%" xlink:href="#h"/><use id="j" fill="none" height="100%" stroke="#000" transform="translate(5.291667)" width="100%" xlink:href="#i"/><use id="k" fill="none" height="100%" stroke="#000" transform="translate(5.291667)" width="100%" xlink:href="#j"/><use id="l" fill="none" height="100%" stroke="#000" transform="translate(5.291667)" width="100%" xlink:href="#k"/><use fill="none" height="100%" stroke="#000" transform="translate(5.291667)" width="100%" xlink:href="#l"/><path d="m58.472916 21.058011h6.78984" fill="none" marker-end="url(#b)" stroke="#000" stroke-width=".79375"/><circle cx="57.943748" cy="21.054247" fill="#f00" r="1.322917"/><path d="m57.52491 24.719139q-.02093.151154-.02093.248822 0 .174408.09999.279053.102319.104645.272076.104645.162781 0 .325562-.07906.165106-.07906.381372-.276728l.06976.06279q-.267425.323236-.520898.460437-.253473.137201-.560431.137201-.388349 0-.537177-.186035-.148828-.186035-.148828-.430206 0-.381372.220917-.762744.223242-.381372.604614-.611591.383698-.230218.769721-.230218.195336 0 .29533.09302.09999.09302.09999.23487 0 .169757-.09767.330212-.134876.218591-.339514.353467-.204639.13255-.458112.202313-.169757.04651-.455786.06976zm.02093-.120923q.204639-.03023.31626-.08139.113946-.05348.220916-.167432.109296-.116272.188361-.29068.07906-.176733.07906-.330212 0-.06511-.03721-.102319-.03488-.03721-.09069-.03721-.111621 0-.251148.155804-.255798.283704-.425555.853436z" stroke-width=".264583"/></g></svg>