<svg xmlns="http://www.w3.org/2000/svg" width="350" height="173"><defs><marker orient="auto" refY="0" refX="0" id="c" overflow="visible"><path d="M-2.308 0l3.46-2v4l-3.46-2z" fill-rule="evenodd" stroke="#000" stroke-width=".4pt"/></marker><marker id="a" refX="0" refY="0" orient="auto" overflow="visible"><path d="M-2.308 0l3.46-2v4l-3.46-2z" fill-rule="evenodd" stroke="#000" stroke-width=".4pt"/></marker><marker orient="auto" refY="0" refX="0" id="d" overflow="visible"><path d="M2.308 0l-3.46 2v-4z" fill-rule="evenodd" stroke="#000" stroke-width=".4pt"/></marker><marker id="b" refX="0" refY="0" orient="auto" overflow="visible"><path d="M2.308 0l-3.46 2v-4z" fill-rule="evenodd" stroke="#000" stroke-width=".4pt"/></marker></defs><path fill="maroon" d="M29 75.072h124v31H29z"/><path d="M149 93.072h184" fill="none" stroke="#000" stroke-width="2" stroke-dasharray="4,2"/><path d="M219.457 9.004l-.816 3.608-.52-.092q0-1.448-.417-1.949-.715-.844-2.078-.946-.25-.018-.548-.018-.909 0-1.196.269-.186.194-.316.649l-1.16 4.156q1.782 0 2.459-.334.547-.26.946-.974.149-.269.353-.723l.538.074-1.41 5.204-.53-.092q.075-.52.075-.835 0-.993-.612-1.355-.548-.315-1.995-.352l-1.039 3.915q-.287 1.076-.287 1.298 0 .64 1.206.724.046 0 .139.01v.473h-5.585v-.474q.853-.074 1.16-.482.194-.26.398-1.02l2.301-8.397q.195-.76.195-1.104 0-.445-.362-.584-.195-.065-1.03-.176v-.473z" style="line-height:1.25;-inkscape-font-specification:TEMPO" font-weight="400" font-size="19" font-family="TEMPO" letter-spacing="0" word-spacing="0"/><path d="M12.693 159.072h324.614" fill="none" stroke="#000" stroke-width="2" marker-start="url(#a)" marker-end="url(#b)"/><rect ry="5" rx="5" y="135.072" x="7" height="18" width="336" fill="gray"/><circle cx="42.5" cy="120.572" r="9.5" fill="maroon"/><path d="M42.5 107.072c-7.456 0-13.5 6.044-13.5 13.5s6.044 13.5 13.5 13.5 13.5-6.044 13.5-13.5-6.044-13.5-13.5-13.5zm10.226 13.5c0 5.523-4.703 10.226-10.226 10.226-5.523 0-10.225-4.707-10.226-10.226 0-5.519 4.687-10.22 10.216-10.225 5.529-.005 10.236 4.702 10.236 10.225z"/><circle r="9.5" cy="120.572" cx="141.5" fill="maroon"/><path d="M141.5 107.072c-7.456 0-13.5 6.044-13.5 13.5s6.044 13.5 13.5 13.5 13.5-6.044 13.5-13.5-6.044-13.5-13.5-13.5zm10.226 13.5c0 5.523-4.703 10.226-10.226 10.226-5.523 0-10.226-4.707-10.226-10.226 0-5.519 4.687-10.22 10.216-10.225 5.529-.005 10.235 4.702 10.235 10.225z"/><path d="M149 93.072l50-69" fill="none" stroke="#000" stroke-width="2"/><path d="M173.511 69.528a33.987 33.987 0 018.942 17.543" fill="none" stroke="#000" stroke-width="2" stroke-linejoin="round" marker-start="url(#c)" marker-end="url(#d)"/><circle r="5.666" cy="24.072" cx="199" fill="gray"/><path d="M193.514 65.93q1.244 0 1.995.872.752.872.752 2.329 0 1.781-.937 4.295-.937 2.514-2.496 4.073-1.55 1.559-3.145 1.559-1.28 0-2.013-.891-.733-.9-.733-2.3 0-1.54.723-3.693.724-2.153 1.698-3.544.984-1.401 2.069-2.05 1.095-.65 2.087-.65zm-.157 6.105l.612-2.283q.325-1.196.325-1.939 0-1.354-1.012-1.354-.807 0-1.512 1.169-.696 1.16-1.67 4.407zm-3.414.52q-1.086 3.552-1.086 4.721 0 .557.306.9.307.343.752.343.89 0 1.651-1.465.76-1.466 1.652-4.5z" style="line-height:1.25;-inkscape-font-specification:'Times New Roman, Bold Italic'" font-style="italic" font-weight="700" font-size="19" font-family="Times New Roman" letter-spacing="0" word-spacing="0"/><path d="M177.19 149.448q.306 0 1.001-.992.13-.195.232-.353l.418.297q-1.522 2.394-2.746 2.403-1.234-.019-1.243-1.16 0-.427.204-1.299-1.002 1.81-2.162 2.292-.473.204-.993.204-1.642 0-1.948-1.716-.065-.362-.065-.77 0-1.28.798-2.932.91-1.865 2.227-2.848 1.03-.76 2.087-.76.89.008 1.429.62l.334-1.215q.556-1.957.556-2.319 0-.529-.779-.529h-.399v-.51l3.97-.557-2.226 8.007q-.965 3.479-.965 3.803.019.325.27.334zm-1.54-3.776q.491-1.53.491-2.06 0-.611-.352-.88-.167-.121-.362-.121-.78 0-1.689 1.354-.89 1.318-1.299 2.932-.194.77-.194 1.345 0 .761.38 1.076.176.149.408.149 1.383-.019 2.616-3.795z" style="line-height:1.25;-inkscape-font-specification:TEMPO" font-weight="400" font-size="19" font-family="TEMPO" letter-spacing="0" word-spacing="0"/></svg>