<svg xmlns="http://www.w3.org/2000/svg" width="115" height="115"><defs><marker id="d" refX="0" refY="0" orient="auto" overflow="visible"><path d="M2.308 0l-3.46 2v-4z" fill="#fffc02" fill-rule="evenodd" stroke="#fffc02" stroke-width=".4pt"/></marker><marker id="c" refX="0" refY="0" orient="auto" overflow="visible"><path d="M2.308 0l-3.46 2v-4z" fill="#13eb13" fill-rule="evenodd" stroke="#13eb13" stroke-width=".4pt"/></marker><marker id="b" refX="0" refY="0" orient="auto" overflow="visible"><path d="M2.308 0l-3.46 2v-4z" fill="#ff0028" fill-rule="evenodd" stroke="#ff0028" stroke-width=".4pt"/></marker><marker orient="auto" refY="0" refX="0" id="a" overflow="visible"><path d="M2.308 0l-3.46 2v-4z" fill="#20f" fill-rule="evenodd" stroke="#20f" stroke-width=".4pt"/></marker></defs><path fill="#bdc3c7" d="M0 0h115v115H0z"/><text y="-55.89" x="107.677" style="line-height:1.25;-inkscape-font-specification:'Times New Roman, '" font-size="40" font-family="Times New Roman" letter-spacing="0" word-spacing="0"><tspan style="-inkscape-font-specification:TEMPO" y="-55.89" x="107.677" font-weight="400" font-size="10" font-family="TEMPO">⃗v<tspan font-size="65%" baseline-shift="sub">1</tspan></tspan></text><path d="M13.908 104.352L74 86.606" fill="none" stroke="#ff00a6"/><path d="M74 86.606L97.16 43.69" fill="none" stroke="#a0f"/><path d="M36.483 61.746L57.68 22.848" fill="none" stroke="#20f" stroke-width="2" marker-end="url(#a)"/><path d="M36.483 61.746l58.509-17.053" fill="none" stroke="#ff0028" stroke-width="2" marker-end="url(#b)"/><g letter-spacing="0" word-spacing="0"><path d="M100.21 31.229q-.869.205-1.377.942h-.61q.224-.479.38-.703h-3.661v-.718h3.662q-.157-.22-.381-.698h.61q.508.732 1.377.937zM99.19 32.571q.327 0 .498.274.102.156.102.347-.005.649-.361 1.362-.63 1.26-1.611 2.192-.362.342-.718.581h-.484l-.483-3.92q-.044-.294-.483-.298-.118 0-.288.029v-.254l1.772-.278.469 3.76q.923-.88 1.328-1.749.17-.366.17-.586 0-.16-.17-.312-.176-.156-.225-.235-.093-.141-.093-.336 0-.367.303-.513.122-.064.274-.064z" style="line-height:1.25;-inkscape-font-specification:TEMPO" font-weight="400" font-size="10" font-family="TEMPO"/><path d="M102.68 39.21h-2.424v-.155q.482 0 .635-.146.123-.121.133-.454v-2.539q0-.375-.156-.438-.044-.016-.098-.016-.15.003-.533.152v-.168l1.631-.708h.118v3.704q0 .384.14.501.1.083.402.102l.153.01z" style="line-height:1.25;-inkscape-font-specification:'Times New Roman, '" font-size="26" font-family="Times New Roman" baseline-shift="sub"/></g><g letter-spacing="0" word-spacing="0"><path d="M54.601 10.542q-.87.205-1.377.943h-.61q.224-.479.38-.703h-3.662v-.718h3.663q-.157-.22-.381-.698h.61q.508.732 1.377.937zM53.58 11.885q.328 0 .499.273.102.157.102.347-.005.65-.361 1.362-.63 1.26-1.612 2.193-.36.342-.717.58h-.484l-.483-3.92q-.044-.293-.484-.298-.117 0-.288.03v-.254l1.773-.279.469 3.76q.922-.879 1.328-1.748.17-.366.17-.586 0-.161-.17-.312-.176-.157-.225-.235-.093-.141-.093-.337 0-.366.303-.512.122-.064.274-.064z" style="line-height:1.25;-inkscape-font-specification:TEMPO" font-weight="400" font-size="10" font-family="TEMPO"/><path d="M57.313 17.153l-.299 1.37h-2.697v-.148l.987-1.086q.288-.317.533-.727.317-.53.317-.888 0-.553-.352-.772-.18-.11-.419-.11-.501.003-.793.586h-.185q.445-1.323 1.45-1.326.61 0 .934.41.25.317.25.78-.002.705-.64 1.317l-1.152 1.101h.907q.495 0 .66-.066.165-.067.264-.267.035-.073.073-.174z" style="line-height:1.25;-inkscape-font-specification:'Times New Roman, '" font-size="26" font-family="Times New Roman" baseline-shift="sub"/></g><path d="M36.483 61.746L70.758 83.9" fill="none" stroke="#13eb13" stroke-width="2" marker-end="url(#c)"/><path d="M36.483 61.746l-21.197 38.9" fill="none" stroke="#fffc02" stroke-width="2" marker-end="url(#d)"/><g letter-spacing="0" word-spacing="0"><path d="M60.717 64.088q-.85-.276-1.666.092l-.522-.317q.44-.293.69-.404l-3.131-1.898.372-.614 3.131 1.899q-.02-.27.037-.795l.522.316q.054.89.691 1.516zM59.148 64.707q.28.17.284.492.007.186-.092.35-.34.552-1.015.977-1.192.75-2.515 1.04-.486.104-.915.124l-.413-.25 1.62-3.604q.114-.273-.26-.505-.1-.061-.26-.125l.13-.217 1.66.681-1.548 3.458q1.245-.273 2.042-.806.336-.225.45-.412.084-.138.016-.356-.07-.225-.07-.317-.007-.17.095-.336.19-.313.524-.282.138.01.267.088zM65.62 70.418l-4.308-2.612.456-.752 4.308 2.613zm-1.057 1.746l-4.31-2.613.456-.751 4.31 2.612zM72.092 72.555q.28.17.284.492.006.186-.092.35-.341.552-1.016.977-1.191.75-2.514 1.039-.486.105-.915.125l-.414-.25 1.62-3.604q.114-.274-.259-.506-.1-.06-.262-.124l.132-.217 1.66.681-1.548 3.458q1.244-.273 2.042-.806.336-.225.45-.413.083-.137.015-.355-.069-.225-.07-.317-.006-.17.095-.337.19-.313.525-.281.137.009.267.088z" style="line-height:1.25;-inkscape-font-specification:TEMPO" font-weight="400" font-size="10" font-family="TEMPO"/><path d="M71.635 80.041l-2.074-1.257.081-.133q.412.25.618.204.169-.039.35-.319l.043-.07 1.273-2.1q.194-.321.094-.456-.03-.037-.076-.065-.129-.074-.535-.146l.088-.144 1.762.241.1.06-1.92 3.168q-.2.328-.14.501.043.123.291.296l.125.087z" style="line-height:1.25;-inkscape-font-specification:'Times New Roman, '" font-size="26" font-family="Times New Roman" baseline-shift="sub"/><path d="M80.814 80.824l-4.309-2.613.456-.751 4.309 2.612zM87.814 82.087q.28.17.284.492.007.187-.092.35-.34.553-1.015.978-1.192.75-2.515 1.039-.486.105-.915.125l-.413-.251 1.62-3.603q.114-.274-.26-.506-.1-.06-.261-.124l.132-.217 1.66.68-1.549 3.459q1.245-.273 2.042-.806.336-.225.45-.413.084-.138.016-.356-.07-.224-.07-.316-.007-.17.095-.337.19-.313.524-.281.138.009.267.087z" style="line-height:1.25;-inkscape-font-specification:TEMPO" font-weight="400" font-size="10" font-family="TEMPO"/><path d="M88.274 88.527l-.966 1.017-2.306-1.398.077-.128 1.407-.416q.411-.122.832-.345.547-.289.733-.596.286-.472.098-.842-.097-.189-.3-.312-.43-.257-.983.09l-.158-.095q1.066-.901 1.928-.382.521.316.586.834.05.401-.19.797-.368.601-1.232.794l-1.556.345.777.47q.423.257.599.286.175.028.363-.092.068-.044.153-.111z" style="line-height:1.25;-inkscape-font-specification:'Times New Roman, '" font-size="26" font-family="Times New Roman" baseline-shift="sub"/><path style="line-height:1.25;-inkscape-font-specification:TEMPO" d="M73.66 71.935q-.85-.275-1.666.092l-.522-.316q.44-.293.69-.404l-3.13-1.899.371-.613 3.132 1.898q-.02-.269.036-.794l.522.316q.055.89.691 1.516zM89.383 81.468q-.85-.275-1.666.092l-.522-.316q.44-.293.69-.404l-3.131-1.899.372-.613 3.131 1.898q-.02-.269.037-.794l.522.316q.054.89.69 1.516z" font-weight="400" font-size="10" font-family="TEMPO"/></g></svg>