<svg xmlns="http://www.w3.org/2000/svg" width="115" height="115"><defs><marker id="a" refX="0" refY="0" orient="auto" overflow="visible"><path d="M2.308 0l-3.46 2v-4z" fill="#20f" fill-rule="evenodd" stroke="#20f" stroke-width=".4pt"/></marker><marker orient="auto" refY="0" refX="0" id="b" overflow="visible"><path d="M2.308 0l-3.46 2v-4z" fill="#ff0028" fill-rule="evenodd" stroke="#ff0028" stroke-width=".4pt"/></marker><marker id="c" refX="0" refY="0" orient="auto" overflow="visible"><path d="M2.308 0l-3.46 2v-4z" fill="#fffd01" fill-rule="evenodd" stroke="#fffd01" stroke-width=".4pt"/></marker></defs><path fill="#bdc3c7" d="M0 0h115v115H0z"/><path d="M71.633 72.605l21.198-38.9" fill="none" stroke="#20f" stroke-width="2" marker-end="url(#a)"/><path d="M10.072 89.743L68.58 72.689" fill="none" stroke="#ff0028" stroke-width="2" marker-end="url(#b)"/><path d="M10.072 89.743l79.931-57.419" fill="none" stroke="#fffd01" stroke-width="2" marker-end="url(#c)"/><g letter-spacing="0" word-spacing="0"><path style="line-height:1.25;-inkscape-font-specification:TEMPO" d="M79.88 73.916q-.869.205-1.377.942h-.61q.225-.478.38-.703h-3.661v-.718h3.662q-.156-.22-.381-.698h.61q.508.732 1.377.938zM78.86 75.259q.327 0 .498.273.102.156.102.347-.005.65-.361 1.362-.63 1.26-1.611 2.192-.362.342-.718.581h-.484l-.483-3.92q-.044-.293-.483-.298-.117 0-.288.029v-.254l1.772-.278.469 3.76q.923-.88 1.328-1.749.17-.366.17-.586 0-.16-.17-.312-.176-.156-.225-.234-.092-.142-.092-.337 0-.367.302-.513.122-.063.274-.063z" font-weight="400" font-size="10" font-family="TEMPO"/><path style="line-height:1.25;-inkscape-font-specification:'Times New Roman, '" d="M82.35 81.897h-2.424v-.155q.482 0 .635-.146.123-.12.133-.454v-2.539q0-.375-.156-.438-.044-.016-.098-.016-.15.003-.533.152v-.168l1.631-.708h.118v3.704q0 .384.14.502.1.082.402.101l.153.01z" font-size="26" font-family="Times New Roman" baseline-shift="sub"/></g><g letter-spacing="0" word-spacing="0"><path style="line-height:1.25;-inkscape-font-specification:TEMPO" d="M102.8 25.474q-.87.205-1.377.942h-.61q.224-.478.38-.703h-3.662v-.718h3.663q-.157-.22-.381-.698h.61q.508.733 1.377.938zM101.78 26.817q.327 0 .498.273.102.156.102.347-.005.65-.361 1.362-.63 1.26-1.612 2.192-.36.342-.717.581h-.484l-.483-3.92q-.044-.293-.483-.298-.118 0-.289.029v-.254l1.773-.278.469 3.76q.922-.88 1.328-1.748.17-.367.17-.586 0-.162-.17-.313-.176-.156-.225-.234-.093-.142-.093-.337 0-.366.303-.513.122-.063.274-.063z" font-weight="400" font-size="10" font-family="TEMPO"/><path style="line-height:1.25;-inkscape-font-specification:'Times New Roman, '" d="M105.512 32.084l-.299 1.371h-2.697v-.149l.987-1.085q.289-.318.533-.727.317-.53.317-.889 0-.552-.352-.771-.18-.111-.419-.111-.501.003-.793.587h-.185q.445-1.323 1.45-1.327.61 0 .934.41.25.317.25.78-.002.705-.64 1.318l-1.152 1.101h.907q.495 0 .66-.067.165-.066.264-.266.035-.073.073-.175z" font-size="26" font-family="Times New Roman" baseline-shift="sub"/></g><g letter-spacing="0" word-spacing="0"><path style="line-height:1.25;-inkscape-font-specification:TEMPO" d="M33.291 61.844q-.6.662-.6 1.557l-.504.346q-.086-.522-.084-.795l-3.018 2.074-.407-.592 3.018-2.074q-.253-.093-.71-.36l.504-.345q.833.316 1.666-.008zM33.21 63.53q.27-.186.566-.058.173.071.281.228.364.538.474 1.327.194 1.395-.086 2.72-.104.486-.263.885l-.398.274-2.62-2.957q-.201-.217-.566.028-.097.066-.221.187l-.144-.209 1.303-1.233 2.516 2.833q.263-1.247.104-2.193-.066-.399-.19-.58-.092-.133-.319-.16-.233-.03-.317-.067-.157-.064-.268-.225-.207-.301-.04-.594.064-.121.189-.207zM41.078 59.976l-4.153 2.854-.497-.724 4.152-2.854zm1.156 1.682l-4.152 2.854-.498-.724 4.152-2.854zM45.685 54.955q.27-.185.565-.057.173.071.281.228.364.538.474 1.327.195 1.395-.086 2.72-.104.486-.262.885l-.399.274-2.619-2.957q-.202-.217-.567.028-.097.066-.22.187l-.145-.209 1.303-1.233 2.516 2.833q.263-1.247.105-2.193-.067-.399-.191-.58-.092-.133-.318-.16-.234-.03-.318-.067-.157-.064-.267-.225-.208-.301-.041-.594.064-.121.19-.207z" font-weight="400" font-size="10" font-family="TEMPO"/><path style="line-height:1.25;-inkscape-font-specification:'Times New Roman, '" d="M52.322 58.449l-1.998 1.373-.088-.128q.398-.273.44-.48.034-.17-.147-.45l-.047-.067-1.391-2.025q-.212-.308-.376-.273-.046.012-.09.043-.121.087-.353.428l-.096-.139.944-1.507.097-.067 2.098 3.053q.217.316.399.334.13.01.39-.145l.13-.078z" font-size="26" font-family="Times New Roman" baseline-shift="sub"/><path style="line-height:1.25;-inkscape-font-specification:TEMPO" d="M56.809 50.402l-1.714 1.179 1.183 1.722-.724.498-1.184-1.723-1.714 1.179-.498-.725 1.715-1.178-1.184-1.722.724-.498 1.184 1.722 1.714-1.178zM60.838 44.54q.27-.185.565-.056.173.07.281.227.364.538.474 1.328.194 1.395-.086 2.72-.104.485-.263.884l-.398.274-2.62-2.957q-.202-.217-.566.028-.097.067-.221.188l-.144-.21 1.303-1.233 2.516 2.833q.263-1.247.104-2.193-.066-.399-.19-.58-.092-.132-.319-.16-.233-.03-.317-.066-.157-.064-.268-.225-.207-.302-.04-.594.064-.122.189-.208z" font-weight="400" font-size="10" font-family="TEMPO"/><path style="line-height:1.25;-inkscape-font-specification:'Times New Roman, '" d="M66.897 46.767l.531 1.3-2.223 1.527-.085-.123.199-1.453q.058-.425.028-.901-.04-.617-.242-.912-.313-.455-.727-.436-.212.01-.409.145-.411.287-.32.934l-.153.104q-.383-1.342.444-1.915.502-.345 1.001-.191.387.12.649.501.397.583.218 1.45l-.326 1.56.748-.515q.408-.28.506-.429.099-.148.067-.369-.013-.08-.04-.185z" font-size="26" font-family="Times New Roman" baseline-shift="sub"/><path d="M45.766 53.27q-.6.662-.601 1.557l-.503.346q-.086-.522-.085-.795l-3.018 2.074-.406-.592 3.018-2.074q-.254-.092-.71-.36l.503-.345q.834.316 1.666-.008zM60.918 42.856q-.6.661-.6 1.556l-.504.346q-.086-.522-.084-.795l-3.018 2.074-.407-.591 3.018-2.075q-.253-.092-.71-.36l.504-.345q.833.316 1.666-.007z" style="line-height:1.25;-inkscape-font-specification:TEMPO" font-weight="400" font-size="10" font-family="TEMPO"/></g></svg>