<svg xmlns="http://www.w3.org/2000/svg" width="350" height="269"><defs><marker id="d" refX="0" refY="0" orient="auto" overflow="visible"><path d="M-2.308 0l3.46-2v4l-3.46-2z" fill-rule="evenodd" stroke="#000" stroke-width=".4pt"/></marker><marker orient="auto" refY="0" refX="0" id="c" overflow="visible"><path d="M2.308 0l-3.46 2v-4z" fill-rule="evenodd" stroke="#000" stroke-width=".4pt"/></marker><marker id="b" refX="0" refY="0" orient="auto" overflow="visible"><path d="M2.308 0l-3.46 2v-4z" fill-rule="evenodd" stroke="#000" stroke-width=".4pt"/></marker><marker orient="auto" refY="0" refX="0" id="a" overflow="visible"><path d="M2.308 0l-3.46 2v-4z" fill-rule="evenodd" stroke="#000" stroke-width=".4pt"/></marker></defs><path d="M73.426 149.333l101.235 105.025 125.153-38.164L198.58 111.169 73.426 149.333" fill="#0ff" fill-opacity=".98" stroke="#000" stroke-width="2" stroke-dasharray="2,6"/><path d="M73.426 149.333v-133.1" fill="none" stroke="#000" stroke-width="2" marker-end="url(#a)"/><path d="M73.426 149.333L198.58 111.17" fill="none" stroke="#000" stroke-width="2" marker-end="url(#b)"/><path d="M73.426 149.333l101.235 105.025" fill="none" stroke="#000" stroke-width="2" marker-end="url(#c)"/><path d="M129.504 138.542a57.107 57.107 0 01-16.32 51.786" fill="none" stroke="#000" stroke-width="2" stroke-linejoin="round" marker-start="url(#d)"/><g letter-spacing="0" word-spacing="0"><path style="line-height:1.25;-inkscape-font-specification:TEMPO" d="M181.76 90.009q-1.738.41-2.754 1.885h-1.22q.448-.957.761-1.407h-7.324v-1.435h7.324q-.313-.44-.762-1.397h1.221q1.016 1.465 2.754 1.875zM179.719 92.694q.654 0 .996.547.205.313.205.694-.01 1.299-.723 2.724-1.26 2.52-3.222 4.385-.723.684-1.436 1.162h-.967l-.966-7.842q-.088-.586-.967-.595-.235 0-.576.058v-.508l3.545-.556.937 7.52q1.846-1.758 2.656-3.497.342-.732.342-1.172 0-.322-.342-.625-.351-.312-.449-.468-.186-.284-.186-.674 0-.733.606-1.026.244-.127.547-.127z" font-weight="400" font-size="20" font-family="TEMPO"/><path style="line-height:1.25;-inkscape-font-specification:'Times New Roman, '" d="M187.183 103.23l-.596 2.742h-5.396v-.299l1.974-2.17q.578-.635 1.067-1.454.634-1.06.634-1.777 0-1.105-.704-1.543-.362-.222-.838-.222-1.003.006-1.587 1.174h-.368q.888-2.647 2.9-2.653 1.22 0 1.867.819.501.635.501 1.561-.006 1.41-1.282 2.635l-2.304 2.202h1.815q.99 0 1.32-.133.33-.133.527-.533.07-.146.146-.35z" font-size="26" font-family="Times New Roman" baseline-shift="sub"/></g><text style="line-height:1.25;-inkscape-font-specification:'Times New Roman, Bold Italic'" x="132.783" y="171.426" font-style="italic" font-weight="700" font-size="40" font-family="Times New Roman" letter-spacing="0" word-spacing="0"><tspan x="132.783" y="171.426" style="-inkscape-font-specification:'Times New Roman, Bold Italic'" font-size="20">θ</tspan></text><g letter-spacing="0" word-spacing="0"><path style="line-height:1.25;-inkscape-font-specification:TEMPO" d="M184.466 223.957q-1.738.41-2.754 1.884h-1.22q.448-.957.761-1.406h-7.324V223h7.324q-.313-.44-.762-1.397h1.221q1.016 1.465 2.754 1.875zM182.425 226.642q.654 0 .996.547.205.312.205.693-.01 1.3-.723 2.725-1.26 2.52-3.222 4.385-.723.683-1.436 1.162h-.967l-.966-7.842q-.088-.586-.967-.596-.235 0-.576.059v-.508l3.545-.557.937 7.52q1.846-1.758 2.656-3.496.342-.733.342-1.172 0-.322-.342-.625-.351-.312-.449-.469-.185-.283-.185-.674 0-.732.605-1.025.244-.127.547-.127z" font-weight="400" font-size="20" font-family="TEMPO"/><path style="line-height:1.25;-inkscape-font-specification:'Times New Roman, '" d="M189.407 239.92h-4.85v-.312q.965 0 1.27-.292.247-.24.266-.907v-5.078q0-.75-.31-.876-.09-.032-.197-.032-.299.006-1.067.305v-.337l3.263-1.415h.235v7.407q0 .768.279 1.003.203.165.806.203l.305.02z" font-size="26" font-family="Times New Roman" baseline-shift="sub"/></g><g letter-spacing="0" word-spacing="0"><path style="line-height:1.25;-inkscape-font-specification:TEMPO" d="M52.54 110.909q.41 1.738 1.884 2.754v1.22q-.957-.449-1.406-.761v7.324h-1.436v-7.324q-.44.312-1.396.761v-1.22q1.464-1.016 1.875-2.754zM55.225 112.95q0-.654.547-.996.312-.205.693-.205 1.299.01 2.724.722 2.52 1.26 4.385 3.223.684.723 1.162 1.436v.966l-7.841.967q-.586.088-.596.967 0 .234.058.576h-.507l-.557-3.545 7.52-.937q-1.758-1.846-3.497-2.657-.732-.341-1.171-.341-.323 0-.625.341-.313.352-.47.45-.282.185-.673.185-.732 0-1.025-.605-.127-.244-.127-.547zM58.281 95.958v10.078h-1.758V95.958zm4.082 0v10.078h-1.758V95.958zM55.225 82.676q0-.654.547-.996.312-.205.693-.205 1.299.01 2.724.723 2.52 1.26 4.385 3.223.684.722 1.162 1.435v.967l-7.841.967q-.586.088-.596.966 0 .235.058.577h-.507l-.557-3.545 7.52-.938q-1.758-1.845-3.497-2.656-.732-.342-1.171-.342-.323 0-.625.342-.313.352-.47.45-.282.185-.673.185-.732 0-1.025-.606-.127-.244-.127-.547z" font-weight="400" font-size="20" font-family="TEMPO"/><path style="line-height:1.25;-inkscape-font-specification:'Times New Roman, '" d="M68.502 75.694v4.85h-.311q0-.965-.292-1.27-.241-.247-.908-.266h-5.078q-.749 0-.876.311-.032.089-.032.197.007.298.305 1.066h-.336l-1.416-3.263v-.234h7.408q.768 0 1.003-.28.165-.203.203-.806l.019-.305z" font-size="26" font-family="Times New Roman" baseline-shift="sub"/><path style="line-height:1.25;-inkscape-font-specification:TEMPO" d="M62.94 59.487l1.24 1.24-3.516 3.496 3.516 3.506-1.24 1.24-3.497-3.505-3.505 3.505-1.24-1.24 3.525-3.506-3.526-3.496 1.24-1.24 3.506 3.516zM55.225 45.903q0-.654.547-.996.312-.205.693-.205 1.299.01 2.724.722 2.52 1.26 4.385 3.223.684.723 1.162 1.436v.966l-7.841.967q-.586.088-.596.967 0 .234.058.576h-.507l-.557-3.545 7.52-.937q-1.758-1.846-3.497-2.656-.732-.342-1.171-.342-.323 0-.625.342-.313.351-.47.449-.282.185-.673.185-.732 0-1.025-.605-.127-.244-.127-.547z" font-weight="400" font-size="20" font-family="TEMPO"/><path style="line-height:1.25;-inkscape-font-specification:'Times New Roman, '" d="M65.76 38.439l2.742.596v5.396h-.298l-2.171-1.974q-.635-.578-1.454-1.067-1.06-.634-1.777-.634-1.105 0-1.543.704-.222.362-.222.838.006 1.003 1.174 1.587v.368q-2.647-.889-2.653-2.9 0-1.22.819-1.867.635-.501 1.562-.501 1.409.006 2.634 1.282l2.202 2.304v-1.815q0-.99-.133-1.32-.133-.33-.533-.528-.146-.07-.35-.146z" font-size="26" font-family="Times New Roman" baseline-shift="sub"/><path d="M52.54 80.635q.41 1.739 1.884 2.754v1.221q-.957-.45-1.406-.762v7.324h-1.436v-7.324q-.44.313-1.396.762v-1.22q1.464-1.016 1.875-2.755zM52.54 43.862q.41 1.738 1.884 2.754v1.22q-.957-.449-1.406-.761v7.324h-1.436v-7.324q-.44.312-1.396.762v-1.221q1.464-1.016 1.875-2.754z" style="line-height:1.25;-inkscape-font-specification:TEMPO" font-weight="400" font-size="20" font-family="TEMPO"/></g></svg>