<svg xmlns="http://www.w3.org/2000/svg" width="185" height="185"><defs><marker orient="auto" refY="0" refX="0" id="a" overflow="visible"><path d="M2.308 0l-3.46 2v-4z" fill="#6e6464" fill-rule="evenodd" stroke="#6e6464" stroke-width=".4pt"/></marker><marker id="c" refX="0" refY="0" orient="auto" overflow="visible"><path d="M2.308 0l-3.46 2v-4z" fill="#42bcff" fill-rule="evenodd" stroke="#42bcff" stroke-width=".4pt"/></marker><marker id="d" refX="0" refY="0" orient="auto" overflow="visible"><path d="M2.308 0l-3.46 2v-4z" fill="#fffd01" fill-rule="evenodd" stroke="#fffd01" stroke-width=".4pt"/></marker><marker orient="auto" refY="0" refX="0" id="e" overflow="visible"><path d="M2.308 0l-3.46 2v-4z" fill="#20f" fill-rule="evenodd" stroke="#20f" stroke-width=".4pt"/></marker><marker id="f" refX="0" refY="0" orient="auto" overflow="visible"><path d="M2.308 0l-3.46 2v-4z" fill="#ff0028" fill-rule="evenodd" stroke="#ff0028" stroke-width=".4pt"/></marker><marker orient="auto" refY="0" refX="0" id="b" overflow="visible"><path d="M2.308 0l-3.46 2v-4z" fill="#fffd01" fill-rule="evenodd" stroke="#fffd01" stroke-width=".4pt"/></marker></defs><path fill="#bdc3c7" d="M0 0h185v185H0z"/><path d="M46.72 154.871l95.162-136.09M46.72 154.871l55.924-31.683M46.72 154.871l86.48-22.55" fill="none" stroke="#000" stroke-dasharray="1,1"/><path d="M220.823 165.54l-53.574 23.657" fill="none" stroke="#6e6464" stroke-width="2" marker-end="url(#a)" transform="translate(-77.809 -148.353)"/><path d="M124.208 303.788l38.793-110.517" fill="none" stroke="#fffd01" stroke-width="2" marker-end="url(#b)" transform="translate(-77.809 -148.353)"/><path d="M180.809 271.767l39.244-102.624" fill="none" stroke="#42bcff" stroke-width="2" marker-end="url(#c)" transform="translate(-77.809 -148.353)"/><path d="M212.705 279.87l-28.656-7.35" fill="none" stroke="#fffd01" stroke-width="2" marker-end="url(#d)" transform="translate(-77.809 -148.353)"/><path d="M180.189 305.146l30.126-23.272" fill="none" stroke="#20f" stroke-width="2" marker-end="url(#e)" transform="translate(-77.809 -148.353)"/><path d="M124.208 303.788h53.407" fill="none" stroke="#ff0028" stroke-width="2" marker-end="url(#f)" transform="translate(-77.809 -148.353)"/><g letter-spacing="0" word-spacing="0"><path style="line-height:1.25;-inkscape-font-specification:TEMPO" d="M123.252 116.845q-.869.205-1.377.942h-.61q.225-.478.38-.703h-3.661v-.717h3.662q-.156-.22-.381-.699h.61q.508.733 1.377.938zM122.232 118.188q.327 0 .498.273.102.157.102.347-.005.65-.36 1.362-.63 1.26-1.612 2.193-.362.341-.718.58h-.483l-.484-3.92q-.044-.293-.483-.298-.117 0-.288.03v-.255l1.772-.278.469 3.76q.923-.88 1.328-1.748.17-.366.17-.586 0-.161-.17-.313-.176-.156-.225-.234-.092-.142-.092-.337 0-.366.302-.513.122-.063.274-.063z" font-weight="400" font-size="10" font-family="TEMPO"/><path style="line-height:1.25;-inkscape-font-specification:'Times New Roman, '" d="M123.235 121.421l-.137-.08q.517-.983 1.489-.986.463 0 .77.257.293.25.296.635 0 .438-.343.704-.095.073-.203.12.559.217.727.756.063.203.063.435 0 .654-.498 1.12-.428.4-1.047.505-.178.032-.353.032-.57 0-.85-.216-.184-.146-.187-.372 0-.222.184-.33.101-.06.222-.06.263 0 .492.22.038.037.114.117.181.193.295.253.118.06.25.06.363 0 .537-.348.102-.204.102-.445 0-.612-.524-.946-.228-.146-.749-.323l-.003-.003h-.003l-.003-.003h-.006l-.003-.003h-.006l-.003-.003h-.006l-.006-.003v-.111q.571-.178.752-.476.102-.172.102-.394 0-.406-.286-.571-.146-.08-.33-.08-.444 0-.73.369-.057.073-.117.171z" font-size="26" font-family="Times New Roman" baseline-shift="sub"/></g><g letter-spacing="0" word-spacing="0"><path style="line-height:1.25;-inkscape-font-specification:TEMPO" d="M133.233 68.224q-.87.205-1.377.943h-.61q.224-.479.38-.703h-3.662v-.718h3.663q-.157-.22-.381-.698h.61q.508.732 1.377.937zM132.212 69.567q.328 0 .499.274.102.156.102.346-.005.65-.361 1.363-.63 1.26-1.612 2.192-.36.342-.717.581h-.484l-.483-3.92q-.044-.294-.484-.299-.117 0-.288.03v-.254l1.773-.279.469 3.76q.922-.879 1.328-1.748.17-.366.17-.586 0-.161-.17-.312-.176-.157-.225-.235-.093-.141-.093-.337 0-.366.303-.512.122-.064.273-.064z" font-weight="400" font-size="10" font-family="TEMPO"/><path style="line-height:1.25;-inkscape-font-specification:'Times New Roman, '" d="M135.932 75.27h-.416v.936h-.942v-.936h-1.613v-.734l2.035-2.802h.52v2.815h.416zm-1.352-.72v-1.912l-1.352 1.911z" font-size="26" font-family="Times New Roman" baseline-shift="sub"/></g><g letter-spacing="0" word-spacing="0"><path style="line-height:1.25;-inkscape-font-specification:TEMPO" d="M113.134 18.81q-.869.205-1.377.942h-.61q.225-.478.38-.703h-3.661v-.718h3.662q-.156-.22-.381-.698h.61q.508.733 1.377.938zM112.114 20.153q.327 0 .498.273.102.156.102.347-.005.65-.361 1.362-.63 1.26-1.611 2.193-.362.341-.718.58h-.483l-.484-3.92q-.044-.293-.483-.298-.117 0-.288.03v-.255l1.772-.278.469 3.76q.923-.88 1.328-1.748.17-.367.17-.586 0-.161-.17-.313-.176-.156-.225-.234-.092-.142-.092-.337 0-.366.302-.513.122-.063.274-.063z" font-weight="400" font-size="10" font-family="TEMPO"/><path style="line-height:1.25;-inkscape-font-specification:'Times New Roman, '" d="M115.795 22.399l-.295.825h-1.793l-.143.527q1.044 0 1.603.432.501.393.504 1.088 0 .768-.57 1.197-.509.371-1.264.374-.378 0-.663-.146-.29-.152-.292-.393 0-.254.184-.372.095-.057.212-.057.273 0 .553.21.038.028.114.089.231.19.371.238.102.035.206.035.327 0 .515-.273.127-.194.127-.423 0-.745-1.083-.996-.438-.102-1.012-.114l.631-2.241z" font-size="26" font-family="Times New Roman" baseline-shift="sub"/></g><g letter-spacing="0" word-spacing="0"><path d="M77.343 161.536q-.87.205-1.377.942h-.61q.224-.478.38-.703h-3.662v-.718h3.662q-.156-.22-.38-.698h.61q.508.732 1.377.938zM76.322 162.879q.327 0 .498.273.103.156.103.347-.005.65-.361 1.362-.63 1.26-1.612 2.192-.361.342-.718.581h-.483l-.483-3.92q-.044-.293-.484-.298-.117 0-.288.029v-.254l1.773-.278.468 3.76q.923-.88 1.328-1.748.171-.367.171-.586 0-.162-.17-.313-.176-.156-.225-.234-.093-.142-.093-.337 0-.366.303-.513.122-.063.273-.063z" style="line-height:1.25;-inkscape-font-specification:TEMPO" font-weight="400" font-size="10" font-family="TEMPO"/><path d="M79.813 169.517h-2.425v-.155q.483 0 .635-.146.124-.12.133-.454v-2.539q0-.375-.155-.438-.044-.016-.098-.016-.15.003-.534.152v-.168l1.632-.708h.117v3.704q0 .384.14.502.101.082.403.101l.152.01z" style="line-height:1.25;-inkscape-font-specification:'Times New Roman, '" font-size="26" font-family="Times New Roman" baseline-shift="sub"/></g><g letter-spacing="0" word-spacing="0"><path d="M126.665 146.414q-.87.205-1.377.942h-.61q.224-.479.38-.703h-3.662v-.718h3.662q-.156-.22-.38-.698h.61q.507.732 1.377.937zM125.644 147.756q.327 0 .498.274.103.156.103.347-.005.649-.362 1.362-.63 1.26-1.611 2.192-.361.342-.718.581h-.483l-.484-3.92q-.043-.294-.483-.299-.117 0-.288.03v-.254l1.772-.278.47 3.76q.922-.88 1.327-1.749.171-.366.171-.586 0-.16-.17-.312-.176-.156-.225-.235-.093-.141-.093-.336 0-.367.303-.513.122-.064.273-.064z" style="line-height:1.25;-inkscape-font-specification:TEMPO" font-weight="400" font-size="10" font-family="TEMPO"/><path d="M129.376 153.024l-.298 1.371h-2.698v-.15l.987-1.085q.29-.317.533-.726.318-.53.318-.889 0-.552-.352-.771-.181-.111-.42-.111-.5.003-.793.587h-.184q.444-1.324 1.45-1.327.61 0 .934.41.25.317.25.78-.003.705-.64 1.317l-1.153 1.102h.908q.495 0 .66-.067.165-.067.263-.266.035-.073.073-.175z" style="line-height:1.25;-inkscape-font-specification:'Times New Roman, '" font-size="26" font-family="Times New Roman" baseline-shift="sub"/></g><g letter-spacing="0" word-spacing="0"><path style="line-height:1.25;-inkscape-font-specification:TEMPO" d="M41.318 135.838q-.086.89.45 1.607l-.197.578q-.381-.367-.543-.587l-1.179 3.468-.68-.231 1.179-3.468q-.258.078-.784.136l.197-.578q.856-.245 1.33-1.002zM42.26 137.236q.106-.31.42-.383.18-.047.361.014.614.214 1.174.78.99 1.002 1.557 2.232.208.452.32.866l-.156.458-3.868-.804q-.291-.052-.437.362-.038.111-.065.282l-.24-.081.306-1.768 3.71.765q-.535-1.156-1.227-1.82-.292-.28-.5-.35-.153-.052-.35.062-.205.116-.295.137-.164.042-.349-.02-.347-.119-.388-.452-.02-.136.028-.28zM46.441 129.684l-1.62 4.77-.833-.282 1.62-4.771zm1.933.656l-1.621 4.771-.833-.282 1.621-4.772zM47.13 122.904q.105-.31.42-.383.18-.047.36.014.614.214 1.174.78.99 1.002 1.558 2.231.207.452.319.867l-.155.458-3.868-.804q-.292-.053-.438.362-.038.11-.065.282l-.24-.082.306-1.767 3.711.765q-.535-1.156-1.228-1.82-.292-.28-.5-.35-.152-.052-.35.061-.205.117-.295.138-.164.042-.349-.02-.346-.119-.388-.452-.02-.136.028-.28z" font-weight="400" font-size="10" font-family="TEMPO"/><path style="line-height:1.25;-inkscape-font-specification:'Times New Roman, '" d="M54.54 121.734l-.781 2.296-.147-.05q.155-.456.066-.648-.075-.156-.387-.272l-.078-.026-2.326-.79q-.355-.121-.465.006-.03.037-.047.088-.045.142-.027.554l-.16-.054-.145-1.773.038-.111 3.507 1.191q.364.124.52.03.11-.07.226-.35l.058-.14z" font-size="26" font-family="Times New Roman" baseline-shift="sub"/><path style="line-height:1.25;-inkscape-font-specification:TEMPO" d="M53.322 112.602l-.669 1.97 1.979.672-.283.832-1.979-.672-.669 1.97-.832-.283.67-1.97-1.98-.672.283-.832 1.979.672.669-1.97zM53.045 105.495q.105-.31.42-.384.18-.047.36.015.614.213 1.174.78.99 1.002 1.558 2.231.207.452.319.867l-.156.457-3.868-.803q-.291-.053-.437.362-.038.11-.065.282l-.24-.082.306-1.768 3.71.766q-.534-1.157-1.227-1.82-.292-.28-.5-.35-.152-.052-.35.061-.205.116-.295.137-.164.043-.349-.02-.346-.118-.388-.452-.02-.136.028-.28z" font-weight="400" font-size="10" font-family="TEMPO"/><path style="line-height:1.25;-inkscape-font-specification:'Times New Roman, '" d="M59.233 103.656l1.203.723-.868 2.555-.142-.048-.71-1.284q-.207-.376-.516-.739-.4-.47-.74-.586-.523-.178-.843.085-.164.136-.24.361-.159.476.3.94l-.059.175q-1.11-.847-.79-1.8.197-.578.688-.752.382-.136.82.013.667.23 1.041 1.031l.672 1.445.292-.86q.16-.468.15-.646-.01-.177-.168-.335-.058-.056-.142-.125z" font-size="26" font-family="Times New Roman" baseline-shift="sub"/><path style="line-height:1.25;-inkscape-font-specification:TEMPO" d="M59.237 95.193l-.67 1.97 1.98.672-.283.832-1.979-.672-.669 1.97-.832-.283.669-1.97-1.979-.672.283-.832 1.979.672.669-1.97zM58.96 88.086q.105-.31.42-.384.18-.047.36.014.614.214 1.174.78.99 1.002 1.557 2.232.208.452.32.866l-.156.458-3.868-.804q-.291-.052-.437.362-.038.111-.065.282l-.24-.081.306-1.768 3.71.766q-.535-1.157-1.227-1.82-.292-.28-.5-.35-.153-.052-.35.06-.205.117-.295.138-.164.042-.349-.02-.347-.118-.388-.452-.02-.136.028-.28z" font-weight="400" font-size="10" font-family="TEMPO"/><path style="line-height:1.25;-inkscape-font-specification:'Times New Roman, '" d="M62.344 88.176l-.12.104q-.764-.806-.455-1.727.149-.439.491-.648.332-.195.696-.075.415.141.557.551.039.114.05.231.383-.459.948-.445.213.006.432.08.62.21.9.832.242.535.142 1.154-.027.179-.084.344-.183.541-.478.736-.197.127-.411.058-.21-.072-.254-.28-.024-.116.015-.23.084-.25.365-.396l.148-.07q.242-.11.336-.198.094-.092.137-.218.117-.342-.158-.62-.16-.162-.388-.24-.58-.196-1.064.192-.211.17-.547.605l-.004.003-.001.003-.004.002-.001.003-.001.003-.004.002v.003l-.002.003-.004.002v.003l-.002.003-.005.005-.105-.036q.016-.598-.209-.865-.13-.151-.34-.223-.384-.13-.633.087-.122.112-.18.287-.144.42.113.81.05.077.124.166z" font-size="26" font-family="Times New Roman" baseline-shift="sub"/><path style="line-height:1.25;-inkscape-font-specification:TEMPO" d="M65.152 77.784l-.67 1.97 1.98.672-.283.832-1.979-.673-.67 1.97-.831-.283.669-1.97-1.979-.672.283-.832 1.979.673.669-1.97zM64.875 70.676q.105-.31.419-.383.18-.047.361.014.613.214 1.174.78.99 1.002 1.557 2.231.208.452.32.867l-.156.458-3.868-.804q-.291-.053-.437.362-.038.11-.065.282l-.24-.082.306-1.767 3.71.765q-.535-1.156-1.227-1.82-.292-.28-.5-.35-.153-.052-.351.061-.204.117-.294.138-.164.042-.349-.02-.347-.119-.388-.453-.02-.136.028-.279z" font-weight="400" font-size="10" font-family="TEMPO"/><path style="line-height:1.25;-inkscape-font-specification:'Times New Roman, '" d="M71.47 68.989l-.133.393.886.302-.303.892-.886-.301-.519 1.527-.694-.236-2-2.828.168-.493 2.666.906.133-.394zm-1.117 1.048l-1.809-.614 1.375 1.894z" font-size="26" font-family="Times New Roman" baseline-shift="sub"/><path style="line-height:1.25;-inkscape-font-specification:TEMPO" d="M71.067 60.374l-.67 1.97 1.98.672-.283.832-1.98-.672-.668 1.97-.832-.283.669-1.97-1.98-.672.284-.832 1.978.672.67-1.97zM70.79 53.267q.105-.31.419-.384.18-.047.361.015.613.213 1.174.78.99 1.002 1.557 2.23.208.453.32.867l-.156.458-3.868-.803q-.292-.053-.438.361-.037.111-.065.283l-.24-.082.307-1.768 3.71.766q-.535-1.157-1.227-1.82-.292-.28-.5-.35-.153-.052-.351.061-.205.116-.294.137-.164.043-.35-.02-.346-.118-.387-.452-.021-.136.028-.28z" font-weight="400" font-size="10" font-family="TEMPO"/><path style="line-height:1.25;-inkscape-font-specification:'Times New Roman, '" d="M74.1 50.504l.687.545-.577 1.697.453.305q.336-.989.924-1.379.534-.348 1.193-.127.728.247.95.926.188.6-.052 1.316-.122.358-.352.581-.237.225-.466.15-.24-.082-.293-.294-.023-.108.015-.22.087-.258.376-.455l.12-.08q.255-.158.345-.274.066-.085.1-.185.105-.31-.093-.574-.143-.183-.36-.256-.705-.24-1.29.704-.238.382-.435.922l-1.918-1.319z" font-size="26" font-family="Times New Roman" baseline-shift="sub"/><path d="M46.187 121.506q-.085.889.45 1.607l-.197.578q-.38-.367-.543-.587l-1.178 3.468-.68-.231 1.178-3.468q-.258.077-.783.136l.196-.578q.857-.245 1.33-1.002zM52.102 104.097q-.085.889.45 1.607l-.197.577q-.38-.366-.543-.586l-1.178 3.467-.68-.23 1.178-3.468q-.258.077-.784.136l.197-.578q.857-.245 1.33-1.002zM58.017 86.687q-.086.89.45 1.607l-.197.578q-.381-.366-.543-.587l-1.178 3.468-.68-.231 1.178-3.468q-.258.078-.784.136l.197-.577q.857-.246 1.33-1.003zM63.932 69.278q-.086.889.449 1.607l-.196.578q-.381-.367-.544-.587l-1.178 3.467-.68-.23 1.179-3.468q-.258.077-.784.136l.197-.578q.856-.245 1.33-1.002zM69.847 51.869q-.086.888.449 1.606l-.196.578q-.381-.366-.544-.586l-1.178 3.467-.68-.23 1.179-3.468q-.259.077-.784.136l.196-.578q.857-.245 1.331-1.002z" style="line-height:1.25;-inkscape-font-specification:TEMPO" font-weight="400" font-size="10" font-family="TEMPO"/></g></svg>