<svg xmlns="http://www.w3.org/2000/svg" width="130" height="122"><defs><marker id="b" refX="0" refY="0" orient="auto" overflow="visible"><path d="M2.308 0l-3.46 2v-4z" fill="#ff0015" fill-rule="evenodd" stroke="#ff0015" stroke-width=".4pt"/></marker><marker orient="auto" refY="0" refX="0" id="a" overflow="visible"><path d="M2.308 0l-3.46 2v-4z" fill="#20f" fill-rule="evenodd" stroke="#20f" stroke-width=".4pt"/></marker></defs><path fill="#bdc3c7" d="M0 0h130v122H0z"/><path d="M41.95 76.087a11.037 11.037 0 0112.577 4.377" fill="none" stroke="#000" stroke-linejoin="round"/><text y="70.873" x="47.804" style="line-height:1.25;-inkscape-font-specification:'Times New Roman, Bold Italic'" font-style="italic" font-weight="700" font-size="40" font-family="Times New Roman" letter-spacing="0" word-spacing="0"><tspan style="-inkscape-font-specification:'Times New Roman, Bold Italic'" y="70.873" x="47.804" font-size="10">θ</tspan></text><path d="M45.346 86.588L31.782 40.036" fill="none" stroke="#20f" stroke-width="2" marker-end="url(#a)"/><path d="M45.346 86.588l60.741-40.653" fill="none" stroke="#ff0015" stroke-width="2" marker-end="url(#b)"/><g letter-spacing="0" word-spacing="0"><path d="M104.997 59.6q-.869.205-1.377.942h-.61q.225-.479.38-.703H99.73v-.718h3.662q-.156-.22-.381-.698h.61q.508.732 1.377.937zM103.977 60.942q.327 0 .498.274.102.156.102.346-.005.65-.36 1.363-.63 1.26-1.612 2.192-.362.342-.718.581h-.483l-.484-3.92q-.044-.294-.483-.299-.117 0-.288.03v-.254l1.772-.279.469 3.76q.923-.879 1.328-1.748.17-.366.17-.586 0-.161-.17-.312-.176-.157-.225-.235-.092-.141-.092-.337 0-.366.302-.512.122-.064.274-.064z" style="line-height:1.25;-inkscape-font-specification:TEMPO" font-weight="400" font-size="10" font-family="TEMPO"/><path d="M107.468 67.58h-2.425v-.155q.482 0 .635-.146.124-.12.133-.453v-2.54q0-.374-.155-.438-.045-.015-.099-.015-.149.003-.533.152v-.168l1.631-.708h.118v3.704q0 .384.14.501.1.083.402.102l.153.01z" style="line-height:1.25;-inkscape-font-specification:'Times New Roman, '" font-size="26" font-family="Times New Roman" baseline-shift="sub"/></g><g letter-spacing="0" word-spacing="0"><path d="M24.46 47.481q-.87.205-1.378.942h-.61q.225-.478.38-.703h-3.661v-.718h3.662q-.156-.22-.381-.698h.61q.508.733 1.377.938zM23.439 48.824q.327 0 .498.273.102.156.102.347-.004.65-.36 1.362-.63 1.26-1.612 2.193-.362.341-.718.58h-.483l-.484-3.92q-.044-.293-.483-.298-.117 0-.288.03v-.255l1.772-.278.469 3.76q.923-.88 1.328-1.748.17-.367.17-.586 0-.161-.17-.313-.176-.156-.225-.234-.092-.142-.092-.337 0-.366.302-.513.122-.063.274-.063z" style="line-height:1.25;-inkscape-font-specification:TEMPO" font-weight="400" font-size="10" font-family="TEMPO"/><path d="M27.171 54.091l-.298 1.371h-2.698v-.149l.987-1.085q.289-.318.533-.727.318-.53.318-.889 0-.552-.353-.77-.18-.112-.419-.112-.501.003-.793.587h-.184q.444-1.323 1.45-1.326.61 0 .933.409.251.317.251.78-.003.705-.641 1.318l-1.152 1.101h.908q.495 0 .66-.067.165-.066.263-.266.035-.073.073-.175z" style="line-height:1.25;-inkscape-font-specification:'Times New Roman, '" font-size="26" font-family="Times New Roman" baseline-shift="sub"/></g></svg>