<svg xmlns="http://www.w3.org/2000/svg" height="115" width="115"><defs><marker id="c" refX="0" refY="0" orient="auto" overflow="visible"><path d="M2.308 0l-3.46 2v-4z" fill="#fffd01" fill-rule="evenodd" stroke="#fffd01" stroke-width=".4pt"/></marker><marker orient="auto" refY="0" refX="0" id="b" overflow="visible"><path d="M2.308 0l-3.46 2v-4z" fill="#ff0028" fill-rule="evenodd" stroke="#ff0028" stroke-width=".4pt"/></marker><marker id="a" refX="0" refY="0" orient="auto" overflow="visible"><path d="M2.308 0l-3.46 2v-4z" fill="#20f" fill-rule="evenodd" stroke="#20f" stroke-width=".4pt"/></marker></defs><path fill="#bdc3c7" d="M0 0h115v115H0z"/><path d="M38.216 46.12l57.382-16.152" fill="none" stroke="#ff00b8"/><path d="M75.45 70.652l21.264-40.524" fill="none" stroke="#a0f"/><path d="M15.666 87.387l21.197-38.9" fill="none" stroke="#20f" stroke-width="2" marker-end="url(#a)"/><path d="M15.666 87.387l58.51-17.054" fill="none" stroke="#ff0028" stroke-width="2" marker-end="url(#b)"/><path d="M15.666 87.387l79.932-57.419" fill="none" stroke="#fffd01" stroke-width="2" marker-end="url(#c)"/><g letter-spacing="0" word-spacing="0"><path style="line-height:1.25;-inkscape-font-specification:TEMPO" d="M86.798 71.56q-.87.205-1.377.942h-.61q.224-.479.38-.703H81.53v-.718h3.662q-.156-.22-.38-.698h.61q.508.732 1.377.937zM85.777 72.902q.328 0 .498.274.103.156.103.346-.005.65-.361 1.363-.63 1.26-1.612 2.192-.361.342-.717.581h-.484l-.483-3.92q-.044-.294-.484-.299-.117 0-.288.03v-.254l1.773-.279.469 3.76q.922-.879 1.328-1.748.17-.366.17-.586 0-.16-.17-.312-.176-.156-.225-.235-.093-.141-.093-.337 0-.366.303-.512.122-.064.273-.064z" font-weight="400" font-size="10" font-family="TEMPO"/><path style="line-height:1.25;-inkscape-font-specification:'Times New Roman, '" d="M89.268 79.541h-2.424v-.156q.482 0 .634-.146.124-.12.134-.453v-2.539q0-.375-.156-.438-.044-.016-.098-.016-.15.003-.533.152v-.168l1.63-.708h.118v3.704q0 .384.14.501.102.083.403.102l.152.01z" font-size="26" font-family="Times New Roman" baseline-shift="sub"/></g><g letter-spacing="0" word-spacing="0"><path style="line-height:1.25;-inkscape-font-specification:TEMPO" d="M30.816 37.118q-.87.205-1.377.942h-.61q.224-.479.38-.703h-3.662v-.718h3.662q-.156-.22-.38-.698h.61q.508.732 1.377.937zM29.795 38.46q.327 0 .498.274.103.156.103.347-.005.649-.362 1.362-.63 1.26-1.61 2.192-.362.342-.719.581h-.483l-.483-3.92q-.044-.294-.484-.298-.117 0-.288.029v-.254l1.773-.278.468 3.76q.923-.88 1.328-1.749.171-.366.171-.586 0-.16-.17-.312-.176-.156-.225-.235-.093-.141-.093-.336 0-.367.303-.513.122-.064.273-.064z" font-weight="400" font-size="10" font-family="TEMPO"/><path style="line-height:1.25;-inkscape-font-specification:'Times New Roman, '" d="M33.527 43.728l-.298 1.371h-2.698v-.15l.987-1.085q.29-.317.534-.726.317-.53.317-.889 0-.552-.352-.771-.181-.111-.42-.111-.5.003-.793.587h-.184q.445-1.324 1.45-1.327.61 0 .934.41.25.317.25.78-.003.705-.64 1.317l-1.153 1.102h.908q.495 0 .66-.067.165-.067.264-.266.034-.073.073-.175z" font-size="26" font-family="Times New Roman" baseline-shift="sub"/></g><g letter-spacing="0" word-spacing="0"><path style="line-height:1.25;-inkscape-font-specification:TEMPO" d="M38.885 59.488q-.6.662-.6 1.557l-.504.346q-.085-.522-.084-.796l-3.018 2.075-.406-.592 3.017-2.074q-.253-.093-.709-.36l.503-.346q.833.316 1.666-.007zM38.805 61.173q.27-.185.565-.057.173.07.281.228.364.538.474 1.327.195 1.395-.086 2.72-.104.486-.262.885l-.399.274-2.62-2.958q-.201-.216-.566.029-.097.066-.221.187l-.144-.21 1.303-1.233 2.516 2.833q.263-1.247.105-2.192-.067-.4-.191-.58-.092-.133-.318-.16-.234-.03-.318-.067-.157-.064-.267-.225-.208-.302-.041-.594.064-.121.189-.207zM46.672 57.62l-4.152 2.854-.498-.724 4.153-2.854zm1.156 1.682l-4.152 2.854-.498-.724 4.153-2.854zM51.28 52.599q.269-.185.565-.057.173.07.28.228.364.538.474 1.327.195 1.395-.086 2.72-.104.486-.262.885l-.398.274-2.62-2.958q-.202-.216-.567.029-.096.066-.22.187l-.144-.21 1.303-1.232 2.516 2.832q.262-1.247.104-2.192-.067-.399-.191-.58-.091-.133-.318-.16-.233-.03-.318-.067-.157-.064-.267-.225-.208-.302-.041-.594.065-.121.19-.207z" font-weight="400" font-size="10" font-family="TEMPO"/><path style="line-height:1.25;-inkscape-font-specification:'Times New Roman, '" d="M57.917 56.093l-1.999 1.373-.088-.128q.398-.273.44-.48.034-.17-.147-.45l-.046-.068-1.392-2.024q-.212-.309-.376-.273-.046.012-.09.043-.121.087-.353.427l-.096-.138.944-1.508.097-.066 2.098 3.052q.217.317.399.334.13.01.39-.144l.13-.079z" font-size="26" font-family="Times New Roman" baseline-shift="sub"/><path style="line-height:1.25;-inkscape-font-specification:TEMPO" d="M62.403 48.046l-1.714 1.178 1.184 1.723-.725.497-1.183-1.722L58.25 50.9l-.497-.724 1.714-1.178-1.184-1.722.724-.498 1.184 1.722 1.714-1.178zM66.432 42.184q.27-.185.565-.057.173.071.281.228.364.538.474 1.327.195 1.395-.086 2.72-.104.486-.262.885l-.399.274-2.62-2.957q-.201-.217-.566.028-.097.066-.221.187l-.144-.209 1.303-1.233 2.516 2.833q.263-1.247.105-2.193-.067-.399-.192-.58-.09-.133-.317-.16-.234-.03-.318-.067-.157-.064-.268-.225-.207-.301-.04-.594.064-.121.189-.207z" font-weight="400" font-size="10" font-family="TEMPO"/><path style="line-height:1.25;-inkscape-font-specification:'Times New Roman, '" d="M72.491 44.411l.531 1.3-2.223 1.527-.085-.123.199-1.453q.058-.426.028-.901-.039-.617-.242-.912-.313-.456-.727-.437-.212.011-.408.146-.412.287-.322.934l-.151.104q-.384-1.343.443-1.915.503-.345 1.001-.191.387.12.65.501.396.583.217 1.449L71.076 46l.748-.514q.408-.28.507-.429.098-.148.066-.369-.013-.08-.039-.185z" font-size="26" font-family="Times New Roman" baseline-shift="sub"/><path d="M51.36 50.914q-.6.662-.601 1.557l-.503.346q-.086-.522-.085-.796l-3.018 2.075-.406-.592 3.018-2.074q-.253-.093-.71-.36l.503-.345q.834.315 1.666-.008zM66.512 40.5q-.6.66-.6 1.556l-.504.346q-.086-.522-.084-.795l-3.018 2.074-.407-.592 3.018-2.074q-.253-.092-.709-.36l.503-.345q.833.316 1.666-.008z" style="line-height:1.25;-inkscape-font-specification:TEMPO" font-weight="400" font-size="10" font-family="TEMPO"/></g></svg>