<?xml version="1.0" encoding="UTF-8" standalone="no"?>
<!-- Created with Inkscape (http://www.inkscape.org/) -->

<svg
   xmlns:dc="http://purl.org/dc/elements/1.1/"
   xmlns:cc="http://creativecommons.org/ns#"
   xmlns:rdf="http://www.w3.org/1999/02/22-rdf-syntax-ns#"
   xmlns:svg="http://www.w3.org/2000/svg"
   xmlns="http://www.w3.org/2000/svg"
   xmlns:sodipodi="http://sodipodi.sourceforge.net/DTD/sodipodi-0.dtd"
   xmlns:inkscape="http://www.inkscape.org/namespaces/inkscape"
   width="200"
   height="200"
   viewBox="0 0 52.916665 52.916668"
   version="1.1"
   id="svg8"
   inkscape:version="0.92.3 (2405546, 2018-03-11)"
   sodipodi:docname="icono.svg">
  <defs
     id="defs2">
    <inkscape:path-effect
       effect="envelope"
       id="path-effect11308"
       is_visible="true"
       yy="true"
       xx="true"
       bendpath1="m 56.218053,260.01223 c 0,0 -4.269226,5.75513 9.479977,-5.00585 10.720434,-8.39047 17.611237,-25.31522 17.611237,-25.31522"
       bendpath2="M 83.266626,246.04629 83.023987,258.8504"
       bendpath3="m 56.218053,267.70685 c 0,0 3.640773,8.37924 14.605013,5.96107 10.403812,-2.29456 12.540617,-5.96107 12.540617,-5.96107"
       bendpath4="m 56.218053,260.01223 v 7.69462"
       bendpath1-nodetypes="csc"
       bendpath2-nodetypes="cc"
       bendpath3-nodetypes="csc" />
  </defs>
  <sodipodi:namedview
     id="base"
     pagecolor="#ffffff"
     bordercolor="#666666"
     borderopacity="1.0"
     inkscape:pageopacity="0.0"
     inkscape:pageshadow="2"
     inkscape:zoom="2.8"
     inkscape:cx="86.11105"
     inkscape:cy="91.684908"
     inkscape:document-units="mm"
     inkscape:current-layer="layer1"
     showgrid="true"
     units="px"
     inkscape:window-width="1366"
     inkscape:window-height="745"
     inkscape:window-x="-8"
     inkscape:window-y="-8"
     inkscape:window-maximized="1"
     showguides="false"
     inkscape:snap-global="false">
    <inkscape:grid
       type="xygrid"
       id="grid4293" />
  </sodipodi:namedview>
  <metadata
     id="metadata5">
    <rdf:RDF>
      <cc:Work
         rdf:about="">
        <dc:format>image/svg+xml</dc:format>
        <dc:type
           rdf:resource="http://purl.org/dc/dcmitype/StillImage" />
        <dc:title></dc:title>
      </cc:Work>
    </rdf:RDF>
  </metadata>
  <g
     inkscape:label="Capa 1"
     inkscape:groupmode="layer"
     id="layer1"
     transform="translate(0,-244.08332)">
    <rect
       style="fill:#ecf0f1;fill-opacity:1;fill-rule:evenodd;stroke:none;stroke-width:2.16031361;stroke-linejoin:miter;stroke-miterlimit:4;stroke-dasharray:none;stroke-dashoffset:0;stroke-opacity:1"
       id="rect815"
       width="52.916668"
       height="52.916668"
       x="2.5687237e-008"
       y="244.08334" />
    <g
       aria-label="MATE"
       style="font-style:normal;font-weight:normal;font-size:10.58333302px;line-height:1.25;font-family:sans-serif;letter-spacing:0px;word-spacing:0px;fill:#3498db;fill-opacity:1;stroke:none;stroke-width:0.26458332"
       id="text11297"
       transform="matrix(0.97359384,0,0,0.554815,-42.541814,130.05166)"
       inkscape:path-effect="#path-effect11308">
      <path
         d="m 62.232484,271.02311 c -0.336898,-0.17888 -0.664796,-0.368 -0.986544,-0.56525 1.551008,-4.26175 1.405693,-11.76901 1.406262,-11.76555 -0.278147,1.4392 -1.075873,2.86917 -1.535905,3.94916 -0.353979,0.80207 -0.572116,1.42881 -0.902062,2.3789 -0.212339,-0.002 -0.425892,5e-5 -0.64042,0.005 -0.05501,-0.16305 -0.113301,-0.31894 -0.172759,-0.46703 0,0 0,0 0,0 -0.390623,-0.97814 -1.023278,-2.0439 -1.379704,-2.47372 0,0 -10e-7,0 -10e-7,0 -0.198672,-0.26882 -0.453272,-0.43342 -0.922435,-0.67369 -0.263812,-0.13831 -0.450401,-0.32098 -0.564278,-0.52583 0.694299,1.24693 0.184563,3.58772 0.405706,6.75114 -0.01369,-0.0143 -0.02635,-0.029 -0.03797,-0.0442 0,0 0,0 0,0 -0.08491,-0.0708 -0.170289,-0.12103 -0.25743,-0.15282 0,0 0,0 0,0 -0.158473,-0.053 -0.319553,-0.096 -0.483415,-0.12822 -0.0036,-0.18306 -0.0186,-7.16473 0.07364,-7.41494 -0.01343,0.11181 -0.04279,0.23987 -0.08706,0.38311 0,0 0,0 0,0 -0.01087,0.0849 -0.02446,0.16066 0.006,0.2246 0,0 0,0 0,0 0.01247,-0.005 0.0419,0.0133 0.04945,-0.0148 0.07461,0.008 0.156105,-0.008 0.245286,-0.0369 0.418674,0.10221 0.699072,0.15363 1.011149,0.24855 0,0 1e-6,0 1e-6,0 1.119905,0.3371 1.528319,0.81659 1.947972,1.52026 0,0 0,0 0,0 0.173502,0.28927 0.372747,0.66485 0.555731,1.05691 0.386774,-0.94516 0.8633,-1.74644 1.247547,-2.65526 0.337479,-0.83545 0.589191,-1.81663 0.362333,-3.21754 0.628972,-0.444 1.257561,-0.90775 1.895329,-1.39222 0.407623,1.21576 0.537066,9.558 -1.236419,15.0101 z"
         style="fill:#3498db;fill-opacity:1;stroke-width:0.26458332"
         id="path11299"
         inkscape:connector-curvature="0"
         inkscape:original-d="m 63.070348,267.70685 h -1.023193 v -6.63009 l -2.139405,4.51135 h -0.609782 l -2.123901,-4.51135 v 6.63009 h -0.956014 v -7.69462 h 1.395264 l 2.051554,4.28397 1.984375,-4.28397 h 1.421102 z" />
      <path
         d="m 71.133029,271.93094 c -0.03112,0.0104 -0.06224,0.0207 -0.09337,0.0309 -0.367973,0.12117 -0.73986,0.2218 -1.114942,0.30163 0.323113,-4.143 0.260859,-6.92685 0.140931,-8.91804 -1.145444,0.49585 -2.299719,0.86801 -3.486678,1.12997 -0.395366,1.76804 -0.991572,4.43526 -2.057079,7.5153 -0.250806,-0.0774 -0.498826,-0.16288 -0.744229,-0.25592 -0.118887,-0.0462 -0.237041,-0.0942 -0.354498,-0.14375 0.490181,-1.26223 0.865585,-2.41792 1.163738,-3.43496 0.36234,-1.22764 3.925519,-14.71293 4.11467,-16.59904 0.559729,-0.56737 1.100448,-1.15097 1.625611,-1.74931 -0.125915,-1.12018 1.018868,17.58919 0.874153,20.79195 -0.01865,0.42615 -0.04125,0.8696 -0.0683,1.33122 z m -1.245742,-10.79228 c -0.264442,-2.81434 -0.268178,-4.57706 -0.498601,-7.62984 -0.781897,3.97631 -1.645546,5.96811 -2.322005,8.81476 0.963053,-0.33299 1.897158,-0.72664 2.820606,-1.18492 z"
         style="fill:#3498db;fill-opacity:1;stroke-width:0.26458332"
         id="path11301"
         inkscape:connector-curvature="0"
         inkscape:original-d="m 71.214554,267.70685 h -1.090373 l -0.754476,-2.14457 h -3.327962 l -0.754476,2.14457 h -1.038696 l 2.800862,-7.69462 h 1.364258 z m -2.160075,-3.02307 -1.348755,-3.77755 -1.353923,3.77755 z" />
      <path
         d="m 78.3709,243.97365 c -0.07154,0.0723 -0.142989,0.14614 -0.214355,0.22159 -0.659704,0.62602 -1.340216,1.36372 -2.050438,2.16246 -0.673085,10.1529 -0.182358,9.34978 -1.386546,23.93974 -0.36338,0.2143 -0.729907,0.41409 -1.099796,0.60011 1.385702,-14.43842 0.85796,-13.90906 1.582071,-23.51257 -0.71377,0.81555 -1.438402,1.64649 -2.228861,2.5112 -0.130193,0.14545 -0.261468,0.29098 -0.393976,0.43659 0.104426,-1.07313 0.20201,-2.28812 0.268382,-3.64212 0.137224,-0.18259 0.272963,-0.36515 0.407355,-0.54763 1.921644,-2.64238 3.542767,-5.26392 5.061127,-7.18538 0.06652,-0.0986 0.133205,-0.19544 0.200086,-0.29032 -0.02291,2.00703 -0.07851,3.77466 -0.145049,5.30633 z"
         style="fill:#3498db;fill-opacity:1;stroke-width:0.26458332"
         id="path11303"
         inkscape:connector-curvature="0"
         inkscape:original-d="m 77.250361,260.92173 h -2.749187 v 6.78512 h -1.023193 v -6.78512 h -2.749186 v -0.9095 h 6.521566 z" />
      <path
         d="m 83.138872,261.9487 c -0.03156,0.046 -0.06692,0.0965 -0.09848,0.14253 -0.140842,0.20156 -0.28205,0.39676 -0.429234,0.59703 0,0 0,0 0,0 -0.607863,0.82716 -1.190234,1.56394 -1.848426,2.33182 -0.710196,0.8283 -1.426447,1.59901 -2.180036,2.319 0.514893,-16.28379 0.618745,-11.76267 0.673443,-29.63009 0.555469,-0.64893 1.127204,-1.15593 1.723441,-1.48672 0,0 0,0 0,0 0.540881,-0.3001 1.104791,-0.45996 1.696713,-0.45075 0.146196,0.002 0.295027,0.0131 0.44646,0.0335 0.0359,0.007 0.07293,0.0113 0.111088,0.0142 0.0092,2.48163 0.008,4.58283 0.001,6.35011 -0.03331,-0.0161 -0.06789,-0.0285 -0.103763,-0.0369 -0.147519,-0.0448 -0.294476,-0.0786 -0.441359,-0.10099 0,0 0,0 0,0 -0.594613,-0.0904 -1.166689,-0.0312 -1.726647,0.16005 0,0 0,0 0,0 -0.345917,0.11825 -0.685513,0.28409 -1.020429,0.49188 -0.08557,3.58108 -0.259418,6.56888 -0.338882,8.26405 0.362054,-0.16605 0.727256,-0.30605 1.097163,-0.41471 0.598167,-0.17542 1.205848,-0.26091 1.842475,-0.24917 0,0 0,0 0,0 0.157573,0.003 0.316347,0.0134 0.477909,0.0295 0.03896,0.003 0.07745,0.008 0.115794,0.0136 -0.02025,0.93905 -0.01984,0.8821 -0.04009,1.82116 -0.03986,0.003 -0.07939,0.006 -0.118901,0.009 -0.16448,0.0139 -0.325739,0.0316 -0.48498,0.055 0,0 0,0 0,0 -0.642207,0.0944 -1.25811,0.26792 -1.86195,0.50992 0,0 0,0 0,0 -0.374055,0.15001 -0.744555,0.32457 -1.112392,0.51806 -0.05196,2.23925 0.05578,4.16935 0.07658,8.34447 0.388868,-0.36885 0.767345,-0.73806 1.150083,-1.11557 0.53315,-0.52622 1.282731,-1.28114 1.815882,-1.80737 0,0 0,0 0,0 0.145185,-0.14366 0.296934,-0.29163 0.438953,-0.4291 0.03529,-0.0364 0.06914,-0.0686 0.101071,-0.0971 -0.01489,-1.40837 0.05239,5.2216 0.0375,3.81324 z"
         style="fill:#3498db;fill-opacity:1;stroke-width:0.26458332"
         id="path11305"
         inkscape:connector-curvature="0"
         inkscape:original-d="m 83.363683,267.70685 h -5.069458 v -7.69462 h 5.069458 v 0.9095 h -4.046265 v 2.1084 h 4.046265 v 0.90951 h -4.046265 v 2.8577 h 4.046265 z" />
    </g>
    <text
       xml:space="preserve"
       style="font-style:normal;font-weight:normal;font-size:7.66719341px;line-height:1.25;font-family:sans-serif;letter-spacing:0px;word-spacing:0px;fill:#27ae60;fill-opacity:0.99215686;stroke:none;stroke-width:0.19167984;opacity:0.597;"
       x="8.1482115"
       y="374.15564"
       id="text11314"
       transform="scale(1.3428844,0.74466575)"><tspan
         sodipodi:role="line"
         id="tspan11312"
         x="8.1482115"
         y="374.15564"
         style="fill:#27ae60;fill-opacity:0.99215686;stroke-width:0.19167984;">MATE</tspan></text>
  </g>
</svg>
