<?xml version="1.0" encoding="UTF-8" standalone="no"?>
<svg
   xmlns:dc="http://purl.org/dc/elements/1.1/"
   xmlns:cc="http://creativecommons.org/ns#"
   xmlns:rdf="http://www.w3.org/1999/02/22-rdf-syntax-ns#"
   xmlns:svg="http://www.w3.org/2000/svg"
   xmlns="http://www.w3.org/2000/svg"
   xmlns:xlink="http://www.w3.org/1999/xlink"
   xmlns:sodipodi="http://sodipodi.sourceforge.net/DTD/sodipodi-0.dtd"
   xmlns:inkscape="http://www.inkscape.org/namespaces/inkscape"
   inkscape:version="1.0 (4035a4fb49, 2020-05-01)"
   sodipodi:docname="2_inicio_2_2.svg"
   id="svg30"
   version="1.1"
   height="179"
   width="368">
  <metadata
     id="metadata34">
    <rdf:RDF>
      <cc:Work
         rdf:about="">
        <dc:format>image/svg+xml</dc:format>
        <dc:type
           rdf:resource="http://purl.org/dc/dcmitype/StillImage" />
        <dc:title />
      </cc:Work>
    </rdf:RDF>
  </metadata>
  <sodipodi:namedview
     inkscape:current-layer="svg30"
     inkscape:window-maximized="1"
     inkscape:window-y="-8"
     inkscape:window-x="-8"
     inkscape:cy="152.0102"
     inkscape:cx="183.72614"
     inkscape:zoom="1.4142136"
     fit-margin-bottom="10"
     fit-margin-right="10"
     fit-margin-left="10"
     fit-margin-top="10"
     showgrid="false"
     id="namedview32"
     inkscape:window-height="1027"
     inkscape:window-width="1920"
     inkscape:pageshadow="2"
     inkscape:pageopacity="0"
     guidetolerance="10"
     gridtolerance="10"
     objecttolerance="10"
     borderopacity="1"
     bordercolor="#666666"
     pagecolor="#ffffff"
     inkscape:document-rotation="0" />
  <defs
     id="defs5">
    <marker
       inkscape:isstock="true"
       style="overflow:visible"
       id="marker1325"
       refX="0"
       refY="0"
       orient="auto"
       inkscape:stockid="Arrow2Mend">
      <path
         transform="scale(-0.6)"
         d="M 8.7185878,4.0337352 -2.2072895,0.01601326 8.7185884,-4.0017078 c -1.7454984,2.3720609 -1.7354408,5.6174519 -6e-7,8.035443 z"
         style="fill:#ff0000;fill-opacity:1;fill-rule:evenodd;stroke:#ff0000;stroke-width:0.625;stroke-linejoin:round;stroke-opacity:1"
         id="path1323" />
    </marker>
    <marker
       inkscape:isstock="true"
       style="overflow:visible"
       id="Arrow1Mend"
       refX="0"
       refY="0"
       orient="auto"
       inkscape:stockid="Arrow1Mend">
      <path
         transform="matrix(-0.4,0,0,-0.4,-4,0)"
         style="fill:#ff0000;fill-opacity:1;fill-rule:evenodd;stroke:#ff0000;stroke-width:1pt;stroke-opacity:1"
         d="M 0,0 5,-5 -12.5,0 5,5 Z"
         id="path900" />
    </marker>
    <marker
       inkscape:isstock="true"
       style="overflow:visible"
       id="Arrow1Send"
       refX="0"
       refY="0"
       orient="auto"
       inkscape:stockid="Arrow1Send">
      <path
         transform="matrix(-0.2,0,0,-0.2,-1.2,0)"
         style="fill:#ff0000;fill-opacity:1;fill-rule:evenodd;stroke:#ff0000;stroke-width:1pt;stroke-opacity:1"
         d="M 0,0 5,-5 -12.5,0 5,5 Z"
         id="path906" />
    </marker>
    <marker
       inkscape:isstock="true"
       style="overflow:visible"
       id="Arrow2Mend"
       refX="0"
       refY="0"
       orient="auto"
       inkscape:stockid="Arrow2Mend">
      <path
         transform="scale(-0.6)"
         d="M 8.7185878,4.0337352 -2.2072895,0.01601326 8.7185884,-4.0017078 c -1.7454984,2.3720609 -1.7354408,5.6174519 -6e-7,8.035443 z"
         style="fill:#0000ff;fill-opacity:1;fill-rule:evenodd;stroke:#0000ff;stroke-width:0.625;stroke-linejoin:round;stroke-opacity:1"
         id="path918" />
    </marker>
    <marker
       inkscape:isstock="true"
       style="overflow:visible"
       id="Arrow1Lstart"
       refX="0"
       refY="0"
       orient="auto"
       inkscape:stockid="Arrow1Lstart">
      <path
         transform="matrix(0.8,0,0,0.8,10,0)"
         style="fill:#000000;fill-opacity:1;fill-rule:evenodd;stroke:#0000ff;stroke-width:1pt;stroke-opacity:1"
         d="M 0,0 5,-5 -12.5,0 5,5 Z"
         id="path891" />
    </marker>
    <marker
       overflow="visible"
       orient="auto"
       refY="0"
       refX="0"
       id="a">
      <path
         id="path2"
         stroke="#000000"
         stroke-linejoin="round"
         stroke-width="0.375"
         fill-rule="evenodd"
         d="m -5.231,-2.42 6.555,2.41 -6.554,2.411 c 1.047,-1.423 1.041,-3.37 0,-4.821 z" />
    </marker>
  </defs>
  <path
     id="path7"
     d="M 15.972725,92.189681 H 189.97272 m 30,0 h 120.625"
     style="stroke:#000000;stroke-width:3;stroke-miterlimit:4;stroke-dasharray:none;stroke-opacity:1" />
  <path
     id="c"
     d="m 69.970725,98.691681 v -64.977"
     fill="none"
     stroke="#000000"
     stroke-width="2"
     stroke-linecap="butt"
     stroke-linejoin="miter"
     stroke-miterlimit="4"
     stroke-dasharray="none"
     stroke-opacity="1"
     marker-end="url(#a)"
     style="fill:#ff0000;fill-opacity:1;stroke:#ff0000;stroke-opacity:1;marker-end:url(#marker1325)" />
  <use
     x="0"
     y="0"
     xlink:href="#c"
     id="d"
     transform="translate(54)"
     width="100%"
     height="100%" />
  <use
     x="0"
     y="0"
     xlink:href="#d"
     id="e"
     transform="translate(54)"
     width="100%"
     height="100%" />
  <use
     x="0"
     y="0"
     xlink:href="#e"
     id="f"
     transform="translate(54)"
     width="100%"
     height="100%" />
  <use
     y="0"
     x="0"
     id="use14"
     xlink:href="#f"
     transform="translate(54)"
     width="100%"
     height="100%" />
  <path
     id="path21"
     word-spacing="0"
     letter-spacing="0"
     font-family="'Times New Roman'"
     font-size="18px"
     font-weight="700"
     font-style="italic"
     style="line-height:1.25;-inkscape-font-specification:'Times New Roman, Bold Italic'"
     d="m 171.27572,10 q 0.546,0 0.915,0.378 0.378,0.377 0.378,0.914 0,0.536 -0.378,0.914 -0.378,0.378 -0.914,0.378 -0.528,0 -0.906,-0.378 -0.377,-0.378 -0.377,-0.914 0,-0.537 0.369,-0.914 0.378,-0.378 0.914,-0.378 z m 0.546,4.043 -1.802,6.249 q -0.15,0.536 -0.15,0.703 0,0.096 0.08,0.184 0.079,0.08 0.167,0.08 0.149,0 0.298,-0.132 0.396,-0.326 0.95,-1.178 l 0.298,0.176 q -1.327,2.311 -2.82,2.311 -0.572,0 -0.915,-0.316 -0.334,-0.325 -0.334,-0.818 0,-0.325 0.15,-0.826 l 1.221,-4.201 q 0.176,-0.606 0.176,-0.914 0,-0.193 -0.167,-0.343 -0.167,-0.15 -0.457,-0.15 -0.132,0 -0.316,0.01 l 0.114,-0.352 2.98,-0.483 z" />
  <path
     id="path23"
     word-spacing="0"
     letter-spacing="0"
     font-family="'Times New Roman'"
     font-size="18px"
     font-weight="700"
     style="line-height:1.25;-inkscape-font-specification:'Times New Roman, Bold'"
     d="m 186.05072,10 -8.464,12.691 h -1.177 L 184.86472,10 Z m -9.624,0 q 1.248,0 2.1,0.887 0.862,0.88 0.862,2.277 0,1.432 -0.861,2.329 -0.862,0.887 -2.136,0.887 -1.257,0 -2.092,-0.86 -0.826,-0.862 -0.826,-2.268 0,-1.45 0.853,-2.347 0.852,-0.905 2.1,-0.905 z m 0,0.465 q -0.193,0 -0.316,0.115 -0.22,0.202 -0.334,0.703 -0.106,0.492 -0.106,2.048 0,1.239 0.15,1.916 0.088,0.386 0.299,0.58 0.131,0.114 0.307,0.114 0.193,0 0.308,-0.105 0.202,-0.185 0.299,-0.598 0.149,-0.668 0.149,-1.872 0,-1.477 -0.14,-2.136 -0.097,-0.457 -0.317,-0.668 -0.106,-0.097 -0.299,-0.097 z m 9.563,5.828 q 1.274,0 2.127,0.879 0.86,0.87 0.86,2.285 0,1.432 -0.87,2.329 -0.87,0.896 -2.1,0.896 -1.221,0 -2.083,-0.896 -0.852,-0.897 -0.852,-2.303 0,-1.415 0.835,-2.303 0.835,-0.887 2.083,-0.887 z m 0.026,0.457 q -0.176,0 -0.299,0.105 -0.21,0.193 -0.325,0.677 -0.114,0.474 -0.114,1.828 0,1.441 0.132,2.074 0.096,0.448 0.325,0.65 0.114,0.106 0.299,0.106 0.167,0 0.272,-0.097 0.22,-0.202 0.325,-0.659 0.15,-0.641 0.15,-1.942 0,-1.371 -0.141,-2.004 -0.105,-0.457 -0.316,-0.642 -0.106,-0.096 -0.308,-0.096 z" />
  <path
     id="path865"
     d="M 339.93229,84.690681 V 149.66768"
     fill="none"
     stroke="#000000"
     stroke-width="2"
     stroke-linecap="butt"
     stroke-linejoin="miter"
     stroke-miterlimit="4"
     stroke-dasharray="none"
     stroke-opacity="1"
     marker-end="url(#a)"
     style="fill:#0000ff;fill-opacity:1;stroke:#0000ff;stroke-opacity:1;marker-end:url(#Arrow2Mend)" />
  <text
     id="text885"
     y="36.933815"
     x="346.45334"
     style="font-size:18px;line-height:1.25;font-family:'Times New Roman';-inkscape-font-specification:'Times New Roman, ';letter-spacing:0px;word-spacing:0px;stroke-width:0.999999"
     xml:space="preserve"><tspan
       style="font-style:normal;font-variant:normal;font-weight:bold;font-stretch:normal;font-size:18px;font-family:'Times New Roman';-inkscape-font-specification:'Times New Roman, Bold';stroke-width:0.999999"
       y="36.933815"
       x="346.45334"
       id="tspan883"
       sodipodi:role="line"><tspan
         id="tspan1369"
         style="font-style:italic;font-variant:normal;font-weight:bold;font-stretch:normal;font-family:'Times New Roman';-inkscape-font-specification:'Times New Roman,  Bold Italic'">A</tspan></tspan></text>
  <text
     xml:space="preserve"
     style="font-size:18px;line-height:1.25;font-family:'Times New Roman';-inkscape-font-specification:'Times New Roman, ';letter-spacing:0px;word-spacing:0px;stroke-width:0.999999"
     x="333.4476"
     y="168.93376"
     id="text889"><tspan
       sodipodi:role="line"
       id="tspan887"
       x="333.4476"
       y="168.93376"
       style="font-style:italic;font-variant:normal;font-weight:bold;font-stretch:normal;font-size:18px;font-family:'Times New Roman';-inkscape-font-specification:'Times New Roman,  Bold Italic';stroke-width:0.999999">F</tspan></text>
  <text
     id="text1373"
     y="114.92118"
     x="327.30649"
     style="font-style:italic;font-variant:normal;font-weight:bold;font-stretch:normal;font-size:18px;line-height:1.25;font-family:'Times New Roman';-inkscape-font-specification:'Times New Roman,  Bold Italic';letter-spacing:0px;word-spacing:0px;stroke-width:0.999999"
     xml:space="preserve"><tspan
       style="font-style:italic;font-variant:normal;font-weight:bold;font-stretch:normal;font-size:18px;font-family:'Times New Roman';-inkscape-font-specification:'Times New Roman,  Bold Italic';stroke-width:0.999999"
       y="114.92118"
       x="327.30649"
       id="tspan1371"
       sodipodi:role="line">n</tspan></text>
  <text
     xml:space="preserve"
     style="font-style:normal;font-variant:normal;font-weight:bold;font-stretch:normal;font-size:18px;line-height:1.25;font-family:'Times New Roman';-inkscape-font-specification:'Times New Roman,  Bold';letter-spacing:0px;word-spacing:0px;stroke-width:0.999999"
     x="11.494336"
     y="114.92118"
     id="text895"><tspan
       sodipodi:role="line"
       id="tspan893"
       x="11.494336"
       y="114.92118"
       style="font-style:normal;font-variant:normal;font-weight:bold;font-stretch:normal;font-size:18px;font-family:'Times New Roman';-inkscape-font-specification:'Times New Roman,  Bold';stroke-width:0.999999">0</tspan></text>
  <text
     id="text899"
     y="114.92118"
     x="65.548187"
     style="font-style:normal;font-variant:normal;font-weight:bold;font-stretch:normal;font-size:18px;line-height:1.25;font-family:'Times New Roman';-inkscape-font-specification:'Times New Roman, Bold';letter-spacing:0px;word-spacing:0px;stroke-width:0.999999"
     xml:space="preserve"><tspan
       style="font-style:normal;font-variant:normal;font-weight:bold;font-stretch:normal;font-size:18px;font-family:'Times New Roman';-inkscape-font-specification:'Times New Roman,  Bold';stroke-width:0.999999"
       y="114.92118"
       x="65.548187"
       id="tspan897"
       sodipodi:role="line">1</tspan></text>
  <use
     x="0"
     y="0"
     xlink:href="#use14"
     id="use907"
     transform="translate(54)"
     width="100%"
     height="100%" />
  <text
     xml:space="preserve"
     style="font-style:normal;font-variant:normal;font-weight:bold;font-stretch:normal;font-size:18px;line-height:1.25;font-family:'Times New Roman';-inkscape-font-specification:'Times New Roman, Bold';letter-spacing:0px;word-spacing:0px;stroke-width:0.999999"
     x="119.67123"
     y="114.92118"
     id="text930"><tspan
       sodipodi:role="line"
       id="tspan928"
       x="119.67123"
       y="114.92118"
       style="font-style:normal;font-variant:normal;font-weight:bold;font-stretch:normal;font-size:18px;font-family:'Times New Roman';-inkscape-font-specification:'Times New Roman,  Bold';stroke-width:0.999999">2</tspan></text>
  <text
     id="text934"
     y="114.92118"
     x="173.82504"
     style="font-style:normal;font-variant:normal;font-weight:bold;font-stretch:normal;font-size:18px;line-height:1.25;font-family:'Times New Roman';-inkscape-font-specification:'Times New Roman, Bold';letter-spacing:0px;word-spacing:0px;stroke-width:0.999999"
     xml:space="preserve"><tspan
       style="font-style:normal;font-variant:normal;font-weight:bold;font-stretch:normal;font-size:18px;font-family:'Times New Roman';-inkscape-font-specification:'Times New Roman,  Bold';stroke-width:0.999999"
       y="114.92118"
       x="173.82504"
       id="tspan932"
       sodipodi:role="line">3</tspan></text>
  <text
     xml:space="preserve"
     style="font-style:normal;font-variant:normal;font-weight:bold;font-stretch:normal;font-size:18px;line-height:1.25;font-family:'Times New Roman';-inkscape-font-specification:'Times New Roman, Bold';letter-spacing:0px;word-spacing:0px;stroke-width:0.999999"
     x="217.69125"
     y="114.92118"
     id="text938"><tspan
       sodipodi:role="line"
       id="tspan936"
       x="217.69125"
       y="114.92118"
       style="font-style:normal;font-variant:normal;font-weight:bold;font-stretch:normal;font-size:18px;font-family:'Times New Roman';-inkscape-font-specification:'Times New Roman,  Bold';stroke-width:0.999999"><tspan
   style="font-style:italic;font-variant:normal;font-weight:bold;font-stretch:normal;font-family:'Times New Roman';-inkscape-font-specification:'Times New Roman,  Bold Italic'"
   id="tspan940">n</tspan>−1</tspan></text>
  <text
     id="text946"
     y="114.92118"
     x="271.63412"
     style="font-style:normal;font-variant:normal;font-weight:bold;font-stretch:normal;font-size:18px;line-height:1.25;font-family:'Times New Roman';-inkscape-font-specification:'Times New Roman, Bold';letter-spacing:0px;word-spacing:0px;stroke-width:0.999999"
     xml:space="preserve"><tspan
       style="font-style:normal;font-variant:normal;font-weight:bold;font-stretch:normal;font-size:18px;font-family:'Times New Roman';-inkscape-font-specification:'Times New Roman,  Bold';stroke-width:0.999999"
       y="114.92118"
       x="271.63412"
       id="tspan944"
       sodipodi:role="line"><tspan
   id="tspan942"
   style="font-style:italic;font-variant:normal;font-weight:bold;font-stretch:normal;font-family:'Times New Roman';-inkscape-font-specification:'Times New Roman,  Bold Italic'">n</tspan>−2</tspan></text>
</svg>
