<?xml version="1.0" encoding="UTF-8" standalone="no"?>
<svg
   xmlns:dc="http://purl.org/dc/elements/1.1/"
   xmlns:cc="http://creativecommons.org/ns#"
   xmlns:rdf="http://www.w3.org/1999/02/22-rdf-syntax-ns#"
   xmlns:svg="http://www.w3.org/2000/svg"
   xmlns="http://www.w3.org/2000/svg"
   xmlns:xlink="http://www.w3.org/1999/xlink"
   xmlns:sodipodi="http://sodipodi.sourceforge.net/DTD/sodipodi-0.dtd"
   xmlns:inkscape="http://www.inkscape.org/namespaces/inkscape"
   width="320.24631"
   height="164.24312"
   version="1.1"
   id="svg30"
   sodipodi:docname="3_desarrollo_2_2.svg"
   inkscape:version="1.0 (4035a4fb49, 2020-05-01)">
  <metadata
     id="metadata34">
    <rdf:RDF>
      <cc:Work
         rdf:about="">
        <dc:format>image/svg+xml</dc:format>
        <dc:type
           rdf:resource="http://purl.org/dc/dcmitype/StillImage" />
        <dc:title />
      </cc:Work>
    </rdf:RDF>
  </metadata>
  <sodipodi:namedview
     inkscape:document-rotation="0"
     pagecolor="#ffffff"
     bordercolor="#666666"
     borderopacity="1"
     objecttolerance="10"
     gridtolerance="10"
     guidetolerance="10"
     inkscape:pageopacity="0"
     inkscape:pageshadow="2"
     inkscape:window-width="1920"
     inkscape:window-height="1027"
     id="namedview32"
     showgrid="false"
     fit-margin-top="10"
     fit-margin-left="10"
     fit-margin-right="10"
     fit-margin-bottom="10"
     inkscape:zoom="2"
     inkscape:cx="72.781226"
     inkscape:cy="90.399425"
     inkscape:window-x="-8"
     inkscape:window-y="-8"
     inkscape:window-maximized="1"
     inkscape:current-layer="svg30" />
  <defs
     id="defs5">
    <marker
       inkscape:isstock="true"
       style="overflow:visible"
       id="marker901"
       refX="0"
       refY="0"
       orient="auto"
       inkscape:stockid="Arrow2Mend">
      <path
         transform="scale(-0.6)"
         d="M 8.7185878,4.0337352 -2.2072895,0.01601326 8.7185884,-4.0017078 c -1.7454984,2.3720609 -1.7354408,5.6174519 -6e-7,8.035443 z"
         style="fill:#ff0000;fill-opacity:1;fill-rule:evenodd;stroke:#ff0000;stroke-width:0.625;stroke-linejoin:round;stroke-opacity:1"
         id="path899" />
    </marker>
    <marker
       inkscape:collect="always"
       inkscape:stockid="Arrow2Mend"
       orient="auto"
       refY="0"
       refX="0"
       id="marker1325"
       style="overflow:visible"
       inkscape:isstock="true">
      <path
         id="path1323"
         style="fill:#ff0000;fill-opacity:1;fill-rule:evenodd;stroke:#ff0000;stroke-width:0.625;stroke-linejoin:round;stroke-opacity:1"
         d="M 8.7185878,4.0337352 -2.2072895,0.01601326 8.7185884,-4.0017078 c -1.7454984,2.3720609 -1.7354408,5.6174519 -6e-7,8.035443 z"
         transform="scale(-0.6)" />
    </marker>
    <marker
       inkscape:stockid="Arrow1Mend"
       orient="auto"
       refY="0"
       refX="0"
       id="Arrow1Mend"
       style="overflow:visible"
       inkscape:isstock="true">
      <path
         id="path900"
         d="M 0,0 5,-5 -12.5,0 5,5 Z"
         style="fill:#ff0000;fill-opacity:1;fill-rule:evenodd;stroke:#ff0000;stroke-width:1pt;stroke-opacity:1"
         transform="matrix(-0.4,0,0,-0.4,-4,0)" />
    </marker>
    <marker
       inkscape:stockid="Arrow1Send"
       orient="auto"
       refY="0"
       refX="0"
       id="Arrow1Send"
       style="overflow:visible"
       inkscape:isstock="true">
      <path
         id="path906"
         d="M 0,0 5,-5 -12.5,0 5,5 Z"
         style="fill:#ff0000;fill-opacity:1;fill-rule:evenodd;stroke:#ff0000;stroke-width:1pt;stroke-opacity:1"
         transform="matrix(-0.2,0,0,-0.2,-1.2,0)" />
    </marker>
    <marker
       inkscape:stockid="Arrow2Mend"
       orient="auto"
       refY="0"
       refX="0"
       id="Arrow2Mend"
       style="overflow:visible"
       inkscape:isstock="true">
      <path
         id="path918"
         style="fill:#0000ff;fill-opacity:1;fill-rule:evenodd;stroke:#0000ff;stroke-width:0.625;stroke-linejoin:round;stroke-opacity:1"
         d="M 8.7185878,4.0337352 -2.2072895,0.01601326 8.7185884,-4.0017078 c -1.7454984,2.3720609 -1.7354408,5.6174519 -6e-7,8.035443 z"
         transform="scale(-0.6)" />
    </marker>
    <marker
       inkscape:stockid="Arrow1Lstart"
       orient="auto"
       refY="0"
       refX="0"
       id="Arrow1Lstart"
       style="overflow:visible"
       inkscape:isstock="true">
      <path
         id="path891"
         d="M 0,0 5,-5 -12.5,0 5,5 Z"
         style="fill:#000000;fill-opacity:1;fill-rule:evenodd;stroke:#0000ff;stroke-width:1pt;stroke-opacity:1"
         transform="matrix(0.8,0,0,0.8,10,0)" />
    </marker>
    <marker
       id="a"
       refX="0"
       refY="0"
       orient="auto"
       overflow="visible">
      <path
         d="m -5.231,-2.42 6.555,2.41 -6.554,2.411 c 1.047,-1.423 1.041,-3.37 0,-4.821 z"
         fill-rule="evenodd"
         stroke-width="0.375"
         stroke-linejoin="round"
         stroke="#000000"
         id="path2" />
    </marker>
  </defs>
  <path
     d="M 15.972725,77.499031 H 285.97272"
     fill="none"
     stroke="#000000"
     stroke-width="3"
     id="path7" />
  <path
     style="fill:#ff0000;fill-opacity:1;stroke:#ff0000;stroke-opacity:1;marker-end:url(#marker901)"
     marker-end="url(#a)"
     stroke-opacity="1"
     stroke-dasharray="none"
     stroke-miterlimit="4"
     stroke-linejoin="miter"
     stroke-linecap="butt"
     stroke-width="2"
     stroke="#000000"
     fill="none"
     d="m 148.00916,84.001031 v -64.977"
     id="e" />
  <use
     transform="translate(46)"
     height="100%"
     width="100%"
     id="f"
     xlink:href="#e"
     y="0"
     x="0" />
  <use
     transform="translate(46)"
     height="100%"
     width="100%"
     xlink:href="#f"
     id="use14"
     x="0"
     y="0" />
  <path
     d="m 143.96272,119.97403 q 0.546,0 0.915,0.378 0.378,0.377 0.378,0.914 0,0.536 -0.378,0.914 -0.378,0.378 -0.914,0.378 -0.528,0 -0.906,-0.378 -0.377,-0.378 -0.377,-0.914 0,-0.537 0.369,-0.914 0.378,-0.378 0.914,-0.378 z m 0.546,4.043 -1.802,6.249 q -0.15,0.536 -0.15,0.703 0,0.096 0.08,0.184 0.079,0.08 0.167,0.08 0.149,0 0.298,-0.132 0.396,-0.326 0.95,-1.178 l 0.298,0.176 q -1.327,2.311 -2.82,2.311 -0.572,0 -0.915,-0.316 -0.334,-0.325 -0.334,-0.818 0,-0.325 0.15,-0.826 l 1.221,-4.201 q 0.176,-0.606 0.176,-0.914 0,-0.193 -0.167,-0.343 -0.167,-0.15 -0.457,-0.15 -0.132,0 -0.316,0.01 l 0.114,-0.352 2.98,-0.483 z"
     style="line-height:1.25;-inkscape-font-specification:'Times New Roman, Bold Italic'"
     font-style="italic"
     font-weight="700"
     font-size="18px"
     font-family="'Times New Roman'"
     letter-spacing="0"
     word-spacing="0"
     id="path21" />
  <path
     d="m 158.73772,119.97403 -8.464,12.691 h -1.177 l 8.455,-12.691 z m -9.624,0 q 1.248,0 2.1,0.887 0.862,0.88 0.862,2.277 0,1.432 -0.861,2.329 -0.862,0.887 -2.136,0.887 -1.257,0 -2.092,-0.86 -0.826,-0.862 -0.826,-2.268 0,-1.45 0.853,-2.347 0.852,-0.905 2.1,-0.905 z m 0,0.465 q -0.193,0 -0.316,0.115 -0.22,0.202 -0.334,0.703 -0.106,0.492 -0.106,2.048 0,1.239 0.15,1.916 0.088,0.386 0.299,0.58 0.131,0.114 0.307,0.114 0.193,0 0.308,-0.105 0.202,-0.185 0.299,-0.598 0.149,-0.668 0.149,-1.872 0,-1.477 -0.14,-2.136 -0.097,-0.457 -0.317,-0.668 -0.106,-0.097 -0.299,-0.097 z m 9.563,5.828 q 1.274,0 2.127,0.879 0.86,0.87 0.86,2.285 0,1.432 -0.87,2.329 -0.87,0.896 -2.1,0.896 -1.221,0 -2.083,-0.896 -0.852,-0.897 -0.852,-2.303 0,-1.415 0.835,-2.303 0.835,-0.887 2.083,-0.887 z m 0.026,0.457 q -0.176,0 -0.299,0.105 -0.21,0.193 -0.325,0.677 -0.114,0.474 -0.114,1.828 0,1.441 0.132,2.074 0.096,0.448 0.325,0.65 0.114,0.106 0.299,0.106 0.167,0 0.272,-0.097 0.22,-0.202 0.325,-0.659 0.15,-0.641 0.15,-1.942 0,-1.371 -0.141,-2.004 -0.105,-0.457 -0.316,-0.642 -0.106,-0.096 -0.308,-0.096 z"
     style="line-height:1.25;-inkscape-font-specification:'Times New Roman, Bold'"
     font-weight="700"
     font-size="18px"
     font-family="'Times New Roman'"
     letter-spacing="0"
     word-spacing="0"
     id="path23" />
  <text
     xml:space="preserve"
     style="font-size:18px;line-height:1.25;font-family:'Times New Roman';-inkscape-font-specification:'Times New Roman, ';letter-spacing:0px;word-spacing:0px;stroke-width:0.999999"
     x="160.086"
     y="22.243164"
     id="text885"><tspan
       sodipodi:role="line"
       id="tspan883"
       x="160.086"
       y="22.243164"
       style="font-style:normal;font-variant:normal;font-weight:bold;font-stretch:normal;font-size:18px;font-family:'Times New Roman';-inkscape-font-specification:'Times New Roman, Bold';stroke-width:0.999999"><tspan
         style="font-style:italic;font-variant:normal;font-weight:bold;font-stretch:normal;font-family:'Times New Roman';-inkscape-font-specification:'Times New Roman,  Bold Italic'"
         id="tspan1369">A</tspan></tspan></text>
  <text
     xml:space="preserve"
     style="font-style:italic;font-variant:normal;font-weight:bold;font-stretch:normal;font-size:18px;line-height:1.25;font-family:'Times New Roman';-inkscape-font-specification:'Times New Roman,  Bold Italic';letter-spacing:0px;word-spacing:0px;stroke-width:0.999999"
     x="281.34491"
     y="100.23053"
     id="text1373"><tspan
       sodipodi:role="line"
       id="tspan1371"
       x="281.34491"
       y="100.23053"
       style="font-style:italic;font-variant:normal;font-weight:bold;font-stretch:normal;font-size:18px;font-family:'Times New Roman';-inkscape-font-specification:'Times New Roman,  Bold Italic';stroke-width:0.999999">n</tspan></text>
  <path
     id="use953"
     d="m 286.00916,84.001031 v -64.977"
     fill="none"
     stroke="#000000"
     stroke-width="2"
     stroke-linecap="butt"
     stroke-linejoin="miter"
     stroke-miterlimit="4"
     stroke-dasharray="none"
     stroke-opacity="1"
     marker-end="url(#a)"
     style="fill:#ff0000;fill-opacity:1;stroke:#ff0000;stroke-opacity:1;marker-end:url(#marker1325)" />
  <text
     id="text975"
     y="100.23053"
     x="51.58662"
     style="font-style:italic;font-variant:normal;font-weight:bold;font-stretch:normal;font-size:18px;line-height:1.25;font-family:'Times New Roman';-inkscape-font-specification:'Times New Roman, Bold Italic';letter-spacing:0px;word-spacing:0px;stroke-width:0.999999"
     xml:space="preserve"><tspan
       style="font-style:normal;font-variant:normal;font-weight:bold;font-stretch:normal;font-size:18px;font-family:'Times New Roman';-inkscape-font-specification:'Times New Roman,  Bold';stroke-width:0.999999"
       y="100.23053"
       x="51.58662"
       id="tspan973"
       sodipodi:role="line">1</tspan></text>
  <text
     xml:space="preserve"
     style="font-style:italic;font-variant:normal;font-weight:bold;font-stretch:normal;font-size:18px;line-height:1.25;font-family:'Times New Roman';-inkscape-font-specification:'Times New Roman, Bold Italic';letter-spacing:0px;word-spacing:0px;stroke-width:0.999999"
     x="21.58662"
     y="100.23053"
     id="text985"><tspan
       sodipodi:role="line"
       id="tspan983"
       x="21.58662"
       y="100.23053"
       style="font-style:normal;font-variant:normal;font-weight:bold;font-stretch:normal;font-size:18px;font-family:'Times New Roman';-inkscape-font-specification:'Times New Roman,  Bold';stroke-width:0.999999">0</tspan></text>
  <path
     id="use904"
     d="M 20.06301,70.000031 V 134.97703"
     fill="none"
     stroke="#000000"
     stroke-width="2"
     stroke-linecap="butt"
     stroke-linejoin="miter"
     stroke-miterlimit="4"
     stroke-dasharray="none"
     stroke-opacity="1"
     marker-end="url(#a)"
     style="fill:#0000ff;fill-opacity:1;stroke:#0000ff;stroke-opacity:1;marker-end:url(#Arrow2Mend)" />
  <text
     xml:space="preserve"
     style="font-style:italic;font-variant:normal;font-weight:bold;font-stretch:normal;font-size:18px;line-height:1.25;font-family:'Times New Roman';-inkscape-font-specification:'Times New Roman, Bold Italic';letter-spacing:0px;word-spacing:0px;stroke-width:0.999999"
     x="143.58662"
     y="100.23053"
     id="text908"><tspan
       sodipodi:role="line"
       id="tspan906"
       x="143.58662"
       y="100.23053"
       style="font-style:italic;font-variant:normal;font-weight:bold;font-stretch:normal;font-size:18px;font-family:'Times New Roman';-inkscape-font-specification:'Times New Roman,  Bold Italic';stroke-width:0.999999">d</tspan></text>
  <use
     height="100%"
     width="100%"
     transform="translate(86)"
     id="use957"
     xlink:href="#use904"
     y="0"
     x="0" />
  <text
     id="text961"
     y="100.23053"
     x="75.586617"
     style="font-style:italic;font-variant:normal;font-weight:bold;font-stretch:normal;font-size:18px;line-height:1.25;font-family:'Times New Roman';-inkscape-font-specification:'Times New Roman, Bold Italic';letter-spacing:0px;word-spacing:0px;stroke-width:0.999999"
     xml:space="preserve"><tspan
       style="font-style:italic;font-variant:normal;font-weight:bold;font-stretch:normal;font-size:18px;font-family:'Times New Roman';-inkscape-font-specification:'Times New Roman,  Bold Italic';stroke-width:0.999999"
       y="100.23053"
       x="75.586617"
       id="tspan959"
       sodipodi:role="line">d−<tspan
   id="tspan963"
   style="font-style:normal;font-variant:normal;font-weight:bold;font-stretch:normal;font-family:'Times New Roman';-inkscape-font-specification:'Times New Roman,  Bold'">1</tspan></tspan></text>
  <text
     xml:space="preserve"
     style="font-size:18px;line-height:1.25;font-family:'Times New Roman';-inkscape-font-specification:'Times New Roman, ';letter-spacing:0px;word-spacing:0px;stroke-width:0.999999"
     x="14.558301"
     y="154.24312"
     id="text967"><tspan
       sodipodi:role="line"
       id="tspan965"
       x="14.558301"
       y="154.24312"
       style="font-style:italic;font-variant:normal;font-weight:bold;font-stretch:normal;font-size:18px;font-family:'Times New Roman';-inkscape-font-specification:'Times New Roman,  Bold Italic';stroke-width:0.999999">P</tspan></text>
  <text
     id="text971"
     y="154.24312"
     x="100.5583"
     style="font-size:18px;line-height:1.25;font-family:'Times New Roman';-inkscape-font-specification:'Times New Roman, ';letter-spacing:0px;word-spacing:0px;stroke-width:0.999999"
     xml:space="preserve"><tspan
       style="font-style:italic;font-variant:normal;font-weight:bold;font-stretch:normal;font-size:18px;font-family:'Times New Roman';-inkscape-font-specification:'Times New Roman,  Bold Italic';stroke-width:0.999999"
       y="154.24312"
       x="100.5583"
       id="tspan969"
       sodipodi:role="line">P</tspan></text>
  <text
     xml:space="preserve"
     style="font-size:10.2648px;line-height:1.25;font-family:'Times New Roman';-inkscape-font-specification:'Times New Roman, ';letter-spacing:0px;word-spacing:0px;stroke-width:0.999996"
     x="110.70449"
     y="154.41283"
     id="text976"><tspan
       sodipodi:role="line"
       id="tspan974"
       x="110.70449"
       y="154.41283"
       style="font-style:italic;font-variant:normal;font-weight:bold;font-stretch:normal;font-size:10.2648px;font-family:'Times New Roman';-inkscape-font-specification:'Times New Roman,  Bold Italic';stroke-width:0.999996">desplazado</tspan></text>
</svg>
