<svg xmlns="http://www.w3.org/2000/svg" xmlns:xlink="http://www.w3.org/1999/xlink" width="354" height="274"><defs><marker id="a" refX="0" refY="0" orient="auto" overflow="visible"><path d="M-5.231-2.42L1.324-.01-5.23 2.401c1.047-1.423 1.041-3.37 0-4.821z" fill-rule="evenodd" stroke-width=".375" stroke-linejoin="round" stroke="#000"/></marker></defs><path d="M47 137.499h270" fill="none" stroke="#000" stroke-width="3"/><path id="b" d="M46.998 130v64.977" fill="none" stroke="#000" stroke-width="2" stroke-linecap="butt" stroke-linejoin="miter" stroke-miterlimit="4" stroke-dasharray="none" stroke-opacity="1" marker-end="url(#a)"/><use height="100%" width="100%" transform="matrix(1 0 0 -1 54 274.001)" id="c" xlink:href="#b" y="0" x="0"/><use height="100%" width="100%" transform="translate(54)" id="d" xlink:href="#c" y="0" x="0"/><use height="100%" width="100%" transform="translate(54)" id="e" xlink:href="#d" y="0" x="0"/><use height="100%" width="100%" transform="translate(54)" id="f" xlink:href="#e" y="0" x="0"/><use height="100%" width="100%" transform="translate(54)" xlink:href="#f"/><g style="line-height:1.25;-inkscape-font-specification:'Times New Roman, '"><path style="-inkscape-font-specification:'Times New Roman, Bold'" d="M90.28 74.904q2.1 1.327 2.68 2.004.774.914.774 2.154 0 1.353-.914 2.293-.914.932-2.54 1.073v1.028h-.764v-.967q-.932-.017-1.653-.158-.72-.132-1.652-.492V79h.37q.175.967.553 1.564.378.598.949.906.58.299 1.433.369v-4.342q-2.119-1.327-2.822-2.118-.694-.8-.694-1.855 0-1.142.879-2.012.879-.88 2.637-1.099V70h.764v.413q1.494.106 3.006.923v2.54h-.343q-.255-.861-.615-1.415-.351-.554-.914-.95-.43-.29-1.134-.483zm-.764-3.902q-.642.053-1.029.352-.615.465-.615 1.125 0 .404.281.817.29.413 1.363 1.125zm.764 10.837q.756-.176 1.108-.598.351-.43.351-1.072 0-.554-.316-1.037-.308-.484-1.143-1.099z" font-weight="700" transform="translate(1.15)" id="g" aria-label="$" font-size="18" font-family="Times New Roman" letter-spacing="0" word-spacing="0" stroke-width="1"/></g><path d="M60.69 156.205q0 1.784-.5 3.331-.3.95-.81 1.556-.5.606-1.142.967-.641.351-1.397.351-.862 0-1.556-.44-.694-.439-1.23-1.256-.387-.598-.677-1.59-.378-1.346-.378-2.778 0-1.943.545-3.569.448-1.344 1.362-2.056.914-.721 1.934-.721 1.037 0 1.933.712.906.703 1.328 1.898.588 1.644.588 3.595zm-2.707-.018q0-3.128-.035-3.647-.088-1.222-.422-1.652-.22-.282-.712-.282-.377 0-.597.211-.325.308-.44 1.09-.114.774-.114 5.423 0 2.531.176 3.393.132.624.378.835.246.21.65.21.44 0 .66-.28.369-.493.421-1.521zM102.476 150v9.747q0 1.099.097 1.406.097.3.404.493.308.193.985.193h.272v.325H97.96v-.325h.316q.765 0 1.09-.176.325-.176.44-.483.114-.308.114-1.433v-6.179q0-.826-.08-1.028-.078-.21-.298-.352-.211-.149-.492-.149-.449 0-1.09.281l-.158-.316 4.385-2.004zM158.19 162.164h-7.013v-.193q3.225-3.841 3.91-5.168.695-1.327.695-2.593 0-.923-.571-1.53-.572-.615-1.398-.615-1.353 0-2.1 1.354l-.325-.114q.474-1.688 1.44-2.496.968-.809 2.233-.809.906 0 1.653.422t1.169 1.16q.422.73.422 1.371 0 1.17-.65 2.373-.889 1.626-3.877 4.535h2.575q.95 0 1.23-.079.29-.079.475-.263.185-.194.484-.8h.316zM207.554 156.188v-.308q1.002-.29 1.389-.536.386-.255.668-.765.28-.518.28-1.046 0-.73-.535-1.248-.528-.527-1.319-.527-1.23 0-2.091 1.3l-.326-.114q.633-1.467 1.618-2.206.993-.738 2.206-.738 1.239 0 2.039.756.808.756.808 1.766 0 .66-.378 1.275-.369.606-1.169 1.072 1.029.501 1.565 1.24.545.729.545 1.836 0 1.864-1.354 3.173-1.344 1.301-3.612 1.301-1.512 0-2.206-.501-.501-.352-.501-.905 0-.405.29-.686.29-.29.668-.29.29 0 .545.123.14.07.993.774.861.694 1.608.694.65 0 1.117-.51.466-.518.466-1.31 0-1.204-.844-2.214-.844-1.02-2.47-1.406zM259.106 157.673l5.66-7.673h1.073v7.673h1.09v1.82h-1.09v2.671h-2.417v-2.672h-4.316zm.853 0h3.463v-4.702zM315.295 150.246h5.58l-.887 2.268h-4.693l-.448 1.186q3.032.114 4.667 1.512 1.344 1.151 1.344 2.865 0 1.099-.624 2.153-.624 1.046-1.758 1.618-1.133.562-2.487.562-1.459 0-2.241-.545-.545-.386-.545-.879 0-.378.281-.668.29-.29.668-.29.343 0 .695.141.351.14 1.204.738.536.37.922.51.273.105.616.105.72 0 1.221-.527.51-.527.51-1.266 0-1.546-1.547-2.513-1.547-.967-3.902-.967-.237 0-.712.009z" style="line-height:1.25;-inkscape-font-specification:'Times New Roman, Bold'" font-weight="700" font-size="18" font-family="Times New Roman" letter-spacing="0" word-spacing="0"/><path d="M174.99 179.974q.546 0 .915.378.378.377.378.914 0 .536-.378.914t-.914.378q-.528 0-.906-.378-.377-.378-.377-.914 0-.537.369-.914.378-.378.914-.378zm.546 4.043l-1.802 6.249q-.15.536-.15.703 0 .096.08.184.079.08.167.08.149 0 .298-.132.396-.326.95-1.178l.298.176q-1.327 2.311-2.82 2.311-.572 0-.915-.316-.334-.325-.334-.818 0-.325.15-.826l1.221-4.201q.176-.606.176-.914 0-.193-.167-.343-.167-.15-.457-.15-.132 0-.316.01l.114-.352 2.98-.483z" style="line-height:1.25;-inkscape-font-specification:'Times New Roman, Bold Italic'" font-style="italic" font-weight="700" font-size="18" font-family="Times New Roman" letter-spacing="0" word-spacing="0"/><path d="M189.765 179.974l-8.464 12.691h-1.177l8.455-12.691zm-9.624 0q1.248 0 2.1.887.862.88.862 2.277 0 1.432-.861 2.329-.862.887-2.136.887-1.257 0-2.092-.86-.826-.862-.826-2.268 0-1.45.853-2.347.852-.905 2.1-.905zm0 .465q-.193 0-.316.115-.22.202-.334.703-.106.492-.106 2.048 0 1.239.15 1.916.088.386.299.58.131.114.307.114.193 0 .308-.105.202-.185.299-.598.149-.668.149-1.872 0-1.477-.14-2.136-.097-.457-.317-.668-.106-.097-.299-.097zm9.563 5.828q1.274 0 2.127.879.86.87.86 2.285 0 1.432-.87 2.329-.87.896-2.1.896-1.221 0-2.083-.896-.852-.897-.852-2.303 0-1.415.835-2.303.835-.887 2.083-.887zm.026.457q-.176 0-.299.105-.21.193-.325.677-.114.474-.114 1.828 0 1.441.132 2.074.096.448.325.65.114.106.299.106.167 0 .272-.097.22-.202.325-.659.15-.641.15-1.942 0-1.371-.141-2.004-.105-.457-.316-.642-.106-.096-.308-.096z" style="line-height:1.25;-inkscape-font-specification:'Times New Roman, Bold'" font-weight="700" font-size="18" font-family="Times New Roman" letter-spacing="0" word-spacing="0"/><use height="100%" width="100%" transform="translate(54)" id="h" xlink:href="#g" y="0" x="0"/><use height="100%" width="100%" transform="translate(54)" id="i" xlink:href="#h" y="0" x="0"/><use height="100%" width="100%" transform="translate(54)" id="j" xlink:href="#i" y="0" x="0"/><use height="100%" width="100%" transform="translate(54)" xlink:href="#j"/></svg>