<svg xmlns="http://www.w3.org/2000/svg" height="158" width="322"><path d="M20.23 119.323h279.544l-78.36-80.547z" fill="none" stroke="#000" stroke-width="2"/><path d="M97.078 74.732l3.3-.478q.558.742.86 2.324.02.098.049.283l.03.147q.107-.137.36-.508.86-1.23 1.417-1.7.644-.546 1.25-.546.742 0 1.103.547.196.293.196.644 0 .537-.45.88-.273.204-.576.204-.351 0-.723-.224-.312-.176-.576-.176-.478 0-1.318 1.182-.264.37-.459.703l.635 3.134q.176.909.566 1.036.078.029.166.029.44 0 1.143-.918.029-.04.088-.107.078-.118.117-.157l.42.283q-.801 1.075-1.114 1.407-.966 1.025-1.923 1.035-1.016 0-1.524-1.445-.185-.557-.4-1.66l-.479.78q-.068.108-.205.352-.625 1.035-1.035 1.426-.596.547-1.289.547-.908 0-1.22-.625-.128-.244-.128-.537 0-.664.47-.996.243-.166.536-.166.42 0 .84.254.303.185.518.185.4 0 .761-.586.03-.03.069-.107l.068-.108.879-1.416-.586-3.047q-.273-1.367-1.055-1.377-.449 0-.78.04zM156.116 137.582h-7.46v-.478q1.484 0 1.952-.45.381-.37.41-1.396V127.446q0-1.153-.478-1.348-.137-.049-.303-.049-.459.01-1.64.469V126l5.02-2.177h.36v11.396q0 1.182.43 1.543.313.254 1.24.313l.47.029zM164.134 123.881l-6.377 14.063h-1.738l6.376-14.063zM172.405 133.364l-.918 4.218h-8.3v-.459l3.037-3.34q.888-.976 1.64-2.236.977-1.63.977-2.734 0-1.7-1.084-2.373-.557-.342-1.29-.342-1.542.01-2.44 1.807h-.567q1.367-4.073 4.463-4.082 1.875 0 2.87 1.26.772.976.772 2.402-.01 2.168-1.972 4.052l-3.545 3.39h2.793q1.523 0 2.031-.206.508-.205.81-.82.108-.225.225-.537zM273.078 74.732l3.3-.478q.558.742.86 2.324.02.098.049.283l.03.147q.107-.137.36-.508.86-1.23 1.417-1.7.644-.546 1.25-.546.742 0 1.103.547.196.293.196.644 0 .537-.45.88-.273.204-.576.204-.351 0-.723-.224-.312-.176-.576-.176-.478 0-1.318 1.182-.264.37-.459.703l.635 3.134q.175.909.566 1.036.078.029.166.029.44 0 1.143-.918.029-.04.088-.107.078-.118.117-.157l.42.283q-.801 1.075-1.114 1.407-.966 1.025-1.923 1.035-1.016 0-1.524-1.445-.185-.557-.4-1.66l-.479.78q-.068.108-.205.352-.625 1.035-1.035 1.426-.596.547-1.289.547-.908 0-1.22-.625-.128-.244-.128-.537 0-.664.47-.996.243-.166.536-.166.42 0 .84.254.303.185.518.185.4 0 .761-.586.03-.03.069-.107l.068-.108.879-1.416-.586-3.047q-.273-1.367-1.055-1.377-.449 0-.78.04zM289.094 69.791l-6.377 14.063h-1.739l6.377-14.063zM297.365 79.273l-.918 4.22h-8.3v-.46l3.037-3.34q.888-.976 1.64-2.236.977-1.63.977-2.734 0-1.7-1.084-2.373-.557-.342-1.29-.342-1.542.01-2.44 1.806h-.567q1.367-4.072 4.463-4.082 1.875 0 2.87 1.26.772.977.772 2.403-.01 2.168-1.972 4.052l-3.545 3.389h2.793q1.523 0 2.031-.205.508-.205.81-.82.108-.225.225-.538zM217.21 33.826h-7.461v-.479q1.484 0 1.953-.449.38-.37.41-1.396V23.689q0-1.152-.479-1.347-.136-.05-.302-.05-.46.01-1.641.47v-.518l5.02-2.178h.36v11.397q0 1.181.43 1.543.313.253 1.24.312l.47.03zM227.952 29.607l-.918 4.219h-8.301v-.46l3.037-3.339q.889-.976 1.64-2.236.977-1.631.977-2.735 0-1.699-1.084-2.373-.556-.341-1.289-.341-1.543.01-2.441 1.806h-.567q1.368-4.072 4.463-4.082 1.875 0 2.871 1.26.772.976.772 2.402-.01 2.168-1.973 4.053l-3.545 3.389h2.793q1.524 0 2.032-.205.507-.206.81-.82.108-.225.225-.538zM233.391 20.056q2.403 0 3.614 2.52.869 1.797.917 4.258v.234q0 2.363-.78 4.2-1.075 2.529-3.262 2.792-.245.03-.489.03-2.412 0-3.613-2.53-.86-1.806-.908-4.277v-.215q0-2.373.781-4.219 1.094-2.539 3.3-2.773.225-.02.44-.02zm0 .567q-.898 0-1.181 1.513-.186.977-.186 3.184v3.506q0 2.666.293 3.642.332 1.045 1.074 1.055.908 0 1.201-1.553.176-.976.176-3.144V25.32q0-2.695-.312-3.682-.332-1.005-1.065-1.015zM241.692 20.066q1.396 0 2.236.947.703.81.703 1.963 0 1.358-.937 2.188-.81.722-2.002.722-1.396 0-2.236-.947-.703-.81-.703-1.963 0-1.357.937-2.187.81-.723 2.002-.723zm0 .42q-.82 0-.957 1.357-.04.381-.04 1.133 0 1.377.196 1.885.254.596.801.606.82 0 .957-1.358.04-.38.04-1.133 0-1.377-.196-1.884-.254-.596-.801-.606z" style="line-height:1.25;-inkscape-font-specification:TEMPO" font-weight="400" font-size="20" font-family="TEMPO" letter-spacing="0" word-spacing="0"/></svg>