<svg xmlns="http://www.w3.org/2000/svg" width="424" height="254"><rect ry="20" rx="20" y="1" x="1" height="252" width="422" fill="#fff"/><g stroke-width="3.612" stroke="#000"><g stroke-linejoin="round" fill-rule="evenodd"><path fill="#bd2026" d="M128.202 27.498l-22.655 73.598 3.7 45.88h58.96l63.567-46.647z"/><path fill="#fff" d="M105.558 101.2l3.69 45.775h58.832L152.352 101.2z"/><path fill="#f6b419" d="M27.515 101.094l40.113 120.27 62.349-46.124z"/></g><path fill="none" d="M67.817 220.704L103.9 107.328"/><path stroke-linejoin="round" fill-rule="evenodd" fill="#fced27" d="M27.515 101.094h124.943l-22.482 74.146z"/></g><path d="M368.94 205.605c-5.73 0-9.891 4.608-9.891 10.043s4.161 10.043 9.89 10.043c2.903 0 5.465-1.56 7.067-3.433v2.808h2.824v-18.972h-2.824v2.92c-1.552-1.995-4.033-3.409-7.067-3.409zm0 2.819c4.099 0 7.21 3.267 7.21 7.224 0 3.958-2.882 7.352-7.084 7.352-4.201 0-7.107-3.573-7.107-7.352 0-3.779 2.88-7.224 6.98-7.224zm-67.973-2.819c-5.729 0-9.89 4.608-9.89 10.043s4.161 10.043 9.89 10.043c2.903 0 5.465-1.56 7.067-3.433v2.808h2.824v-18.972h-2.824v2.92c-1.552-1.995-4.033-3.409-7.067-3.409zm0 2.819c4.1 0 7.211 3.267 7.211 7.224 0 3.958-2.882 7.352-7.084 7.352-4.201 0-7.107-3.573-7.107-7.352 0-3.779 2.88-7.224 6.98-7.224zm-67.677 7.243c0 5.829 4.527 10.025 9.871 10.025 4.913 0 7.4-2.627 9.211-5.918l-2.441-1.253c-1.605 2.994-3.858 4.49-6.979 4.49-4.018 0-6.732-3.473-6.732-6.926h16.676c0-5.978-4.013-10.48-9.838-10.48-5.825 0-9.768 4.54-9.768 10.062zm9.768-7.277c3.443 0 5.957 2.196 6.629 5.152H236.57c1.07-3.434 3.044-5.152 6.488-5.152zm141.058 2.748c0 3.824 2.547 4.988 5.846 5.967 1.857.55 3.238 1.146 3.238 2.857 0 1.92-1.35 3.037-3.34 3.037-2.592 0-3.503-1.983-3.736-3.995l-2.422.505c.553 4.123 2.562 6.184 6.027 6.184 3.977 0 5.968-2.734 5.977-6.147.01-3.832-2.137-4.694-5.828-5.948-1.824-.62-3.405-1.15-3.405-2.838 0-1.913 1.662-2.474 3.157-2.48 1.87-.006 2.916 1.05 3.138 3.148l2.39-.435c-.358-3.316-2.044-5.387-5.595-5.387-3.662 0-5.447 2.532-5.447 5.532zm-96.915-45.132c-5.729 0-9.89 4.608-9.89 10.043s4.161 10.043 9.89 10.043c5.73 0 9.89-4.608 9.89-10.043s-4.16-10.043-9.89-10.043zm0 2.818c3.819 0 6.955 3.446 6.955 7.225 0 3.779-2.753 7.301-6.955 7.301s-6.955-3.522-6.955-7.301c0-3.78 3.137-7.225 6.955-7.225zm-72.788-9.468v7.136h-3.278v2.506h3.279v17.094h2.897v-17.094h3.767v-2.506h-3.768v-7.136zm19.957 0v7.136h-3.28v2.506h3.28v17.094h2.895v-17.094h3.769v-2.506h-3.768v-7.136zm33.202 0v7.136h-3.28v2.506h3.28v17.094h2.896v-17.094h3.767v-2.506h-3.767v-7.136zm61.23 0v10.019c-1.618-2.051-4.005-3.37-7.064-3.37-5.729 0-9.89 4.609-9.89 10.044 0 5.435 4.161 10.043 9.89 10.043 3.024 0 5.44-1.48 7.065-3.469v2.842h2.826v-26.11zm-7.064 9.468c4.151 0 7.211 3.165 7.211 7.225s-3.137 7.351-7.21 7.351c-4.075 0-6.956-3.572-6.956-7.351 0-3.78 2.805-7.225 6.955-7.225zm-154.98-8.842v25.482h3v-25.482zm57.707.034v4.25h2.896v-4.25zm-46.134 9.329v-2.853h-2.894v18.972h2.894v-7.031c0-2.507.058-4.192.315-5.014.884-2.827 3.204-4.734 5.791-4.734 2.904 0 3.824 1.384 4.5 3.481.237.735.314 2.16.314 4.248v9.05h2.862v-9.746c0-2.576-.241-4.498-.839-5.71-1.377-2.79-3.67-3.991-6.244-4.004-2.581-.012-4.814 1.114-6.699 3.341zm17.844 2.192c0 3.824 2.546 4.989 5.846 5.967 1.856.55 3.238 1.146 3.238 2.857 0 1.921-1.351 3.037-3.34 3.037-2.593 0-3.503-1.983-3.736-3.995l-2.422.505c.553 4.123 2.562 6.184 6.027 6.184 3.977 0 5.968-2.733 5.977-6.147.01-3.831-2.138-4.693-5.828-5.948-1.825-.62-3.405-1.15-3.405-2.838 0-1.912 1.662-2.473 3.157-2.479 1.87-.007 2.916 1.05 3.138 3.147l2.39-.435c-.359-3.316-2.044-5.387-5.596-5.387-3.661 0-5.446 2.532-5.446 5.532zm140.071 4.53c0 5.828 4.527 10.025 9.871 10.025 4.913 0 7.4-2.627 9.211-5.918l-2.441-1.254c-1.605 2.994-3.858 4.49-6.979 4.49-4.018 0-6.732-3.473-6.732-6.926h16.676c0-5.978-4.013-10.48-9.838-10.48-5.825 0-9.768 4.54-9.768 10.062zm9.768-7.278c3.443 0 5.957 2.196 6.629 5.152h-13.118c1.07-3.434 3.045-5.152 6.489-5.152zm-121.55-2.297v18.972h2.897v-18.972zm19.29 0v9.748c0 4.869 1.393 9.712 7.083 9.712 2.583 0 4.815-1.113 6.699-3.341v2.853h2.895v-18.972h-2.895v7.032c0 2.506-.099 4.183-.35 5.013-.864 2.852-3.197 4.735-5.79 4.735-4.897 0-4.781-4.38-4.781-7.728v-9.052zm57.86 30.55l-3.632 6.668h3.036l4.92-6.668zm-77.954 1.914v7.136h-3.28v2.508h3.28v17.093h2.895V208.6h3.768v-2.508h-3.768v-7.136zm94.64 0v7.136h-3.28v2.508h3.28v17.093h2.896V208.6h3.767v-2.508h-3.767v-7.136zm-151.984.628v25.482h2.895v-20.614l9.204 20.614h1.792l8.923-20.614v20.614h2.895v-25.482h-4.14l-8.67 20.225-8.73-20.225zm162.156.66v4.25h2.895v-4.25zm-122.154 5.361c-5.729 0-9.89 4.608-9.89 10.043s4.161 10.043 9.89 10.043c2.903 0 5.465-1.56 7.067-3.433v2.808h2.824v-18.972h-2.824v2.92c-1.552-1.995-4.033-3.409-7.067-3.409zm0 2.819c4.1 0 7.211 3.267 7.211 7.224 0 3.958-2.882 7.352-7.084 7.352-4.201 0-7.107-3.573-7.107-7.352 0-3.779 2.88-7.224 6.98-7.224zm54.33.349v-2.68h-2.862v18.973h2.862v-8.076c0-2.39.186-4.112.662-5.118.955-2.016 2.846-3.482 4.955-3.482 4.172 0 4.15 4.034 4.15 6.964v9.712h2.827v-7.485c0-2.344.14-4.123.558-5.291.81-2.268 2.6-3.9 5.024-3.9 4.093 0 4.222 3.442 4.222 6.336v10.34h2.93v-10.34c0-4.29-1.016-9.12-6.559-9.12-3.014 0-5.35 1.804-6.732 4.074-1.096-2.549-3.077-4.06-5.932-4.075-2.442-.012-4.477 1.056-6.105 3.168zm67.824-2.053v18.972h2.895V206.72zm17.24-1.113c-5.728 0-9.89 4.608-9.89 10.043s4.162 10.043 9.89 10.043c4.861 0 8.582-3.32 9.602-7.644h-3.017c-.878 2.797-3.28 4.902-6.584 4.902-4.202 0-6.955-3.522-6.955-7.3 0-3.78 3.136-7.225 6.955-7.225 2.8 0 5.225 1.786 6.324 4.277h3.145c-1.195-4.055-4.815-7.096-9.47-7.096z"/></svg>