<?xml version="1.0" encoding="UTF-8" standalone="no"?>
<!-- Created with Inkscape (http://www.inkscape.org/) -->

<svg
   xmlns:dc="http://purl.org/dc/elements/1.1/"
   xmlns:cc="http://creativecommons.org/ns#"
   xmlns:rdf="http://www.w3.org/1999/02/22-rdf-syntax-ns#"
   xmlns:svg="http://www.w3.org/2000/svg"
   xmlns="http://www.w3.org/2000/svg"
   xmlns:sodipodi="http://sodipodi.sourceforge.net/DTD/sodipodi-0.dtd"
   xmlns:inkscape="http://www.inkscape.org/namespaces/inkscape"
   width="200"
   height="200"
   viewBox="0 0 52.916665 52.916668"
   version="1.1"
   id="svg8"
   inkscape:version="0.92.3 (2405546, 2018-03-11)"
   sodipodi:docname="icono.svg">
  <defs
     id="defs2" />
  <sodipodi:namedview
     id="base"
     pagecolor="#ffffff"
     bordercolor="#666666"
     borderopacity="1.0"
     inkscape:pageopacity="0.0"
     inkscape:pageshadow="2"
     inkscape:zoom="2.8"
     inkscape:cx="94.34996"
     inkscape:cy="67.167037"
     inkscape:document-units="mm"
     inkscape:current-layer="layer1"
     showgrid="true"
     units="px"
     inkscape:window-width="1366"
     inkscape:window-height="745"
     inkscape:window-x="-8"
     inkscape:window-y="-8"
     inkscape:window-maximized="1"
     showguides="false">
    <inkscape:grid
       type="xygrid"
       id="grid4293" />
  </sodipodi:namedview>
  <metadata
     id="metadata5">
    <rdf:RDF>
      <cc:Work
         rdf:about="">
        <dc:format>image/svg+xml</dc:format>
        <dc:type
           rdf:resource="http://purl.org/dc/dcmitype/StillImage" />
        <dc:title></dc:title>
      </cc:Work>
    </rdf:RDF>
  </metadata>
  <g
     inkscape:label="Capa 1"
     inkscape:groupmode="layer"
     id="layer1"
     transform="translate(0,-244.08332)">
    <rect
       style="fill:#ecf0f1;fill-opacity:1;fill-rule:evenodd;stroke:none;stroke-width:2.16031361;stroke-linejoin:miter;stroke-miterlimit:4;stroke-dasharray:none;stroke-dashoffset:0;stroke-opacity:1"
       id="rect815"
       width="52.916668"
       height="52.916668"
       x="2.5687237e-008"
       y="244.08334" />
    <path
       style="fill:#d35400;stroke:#2c3e50;stroke-width:0.52916667;stroke-linecap:butt;stroke-linejoin:miter;stroke-opacity:1;stroke-miterlimit:4;stroke-dasharray:none;fill-opacity:1"
       d="M 9.2604166,277.15624 H 43.656249 l -2.645833,-21.16667 z"
       id="path23057"
       inkscape:connector-curvature="0" />
    <path
       style="opacity:0.98999999;vector-effect:none;fill:#3498db;fill-opacity:1;fill-rule:evenodd;stroke:none;stroke-width:0.52916664;stroke-linecap:butt;stroke-linejoin:miter;stroke-miterlimit:4;stroke-dasharray:none;stroke-dashoffset:0;stroke-opacity:1"
       id="path23065"
       sodipodi:type="arc"
       sodipodi:cx="41.010418"
       sodipodi:cy="256.01794"
       sodipodi:rx="4.6302085"
       sodipodi:ry="4.6302085"
       sodipodi:start="1.4595259"
       sodipodi:end="2.5677461"
       d="m 41.524561,260.61952 a 4.6302085,4.6302085 0 0 1 -4.40268,-2.08799 l 3.888537,-2.51359 z" />
    <path
       d="m 39.041499,277.22177 a 4.6302085,4.6302085 0 0 1 4.041951,-4.65622 l 0.587822,4.59274 z"
       sodipodi:end="4.5850918"
       sodipodi:start="3.1278833"
       sodipodi:ry="4.6302085"
       sodipodi:rx="4.6302085"
       sodipodi:cy="277.15829"
       sodipodi:cx="43.671272"
       sodipodi:type="arc"
       id="path23069"
       style="opacity:0.98999999;vector-effect:none;fill:#27ae60;fill-opacity:1;fill-rule:evenodd;stroke:none;stroke-width:0.52916664;stroke-linecap:butt;stroke-linejoin:miter;stroke-miterlimit:4;stroke-dasharray:none;stroke-dashoffset:0;stroke-opacity:1" />
    <path
       style="opacity:0.98999999;vector-effect:none;fill:#9b59b6;fill-opacity:1;fill-rule:evenodd;stroke:none;stroke-width:0.52916664;stroke-linecap:butt;stroke-linejoin:miter;stroke-miterlimit:4;stroke-dasharray:none;stroke-dashoffset:0;stroke-opacity:1"
       id="path23071"
       sodipodi:type="arc"
       sodipodi:cx="9.260417"
       sodipodi:cy="277.15625"
       sodipodi:rx="4.6302085"
       sodipodi:ry="4.6302085"
       sodipodi:start="5.6947829"
       sodipodi:end="6.2830144"
       d="m 13.111956,274.58633 a 4.6302085,4.6302085 0 0 1 0.778669,2.56913 l -4.630208,7.9e-4 z" />
    <path
       inkscape:connector-curvature="0"
       id="path23067"
       d="M 9.2604166,277.15624 H 43.656249 l -2.645833,-21.16667 z"
       style="fill:none;stroke:#2c3e50;stroke-width:0.52916667;stroke-linecap:butt;stroke-linejoin:miter;stroke-opacity:1;stroke-miterlimit:4;stroke-dasharray:none;fill-opacity:1" />
    <g
       aria-label="a"
       style="font-style:normal;font-variant:normal;font-weight:normal;font-stretch:normal;font-size:5.64444447px;line-height:1.25;font-family:Symbol;-inkscape-font-specification:'Symbol, Normal';font-variant-ligatures:normal;font-variant-caps:normal;font-variant-numeric:normal;font-feature-settings:normal;text-align:start;letter-spacing:0px;word-spacing:0px;writing-mode:lr-tb;text-anchor:start;fill:#ecf0f1;fill-opacity:1;stroke:none;stroke-width:0.26458332;stroke-opacity:1"
       id="text23077"
       transform="translate(0.3779762,0.1889881)">
      <path
         d="m 17.928277,273.32764 h 0.457509 l -0.35829,1.25401 q -0.03583,0.11851 -0.112999,0.37207 0.104731,0.42444 0.157096,0.50712 0.09922,0.15158 0.250803,0.15158 0.110243,0 0.20395,-0.0909 0.09371,-0.091 0.124023,-0.28387 h 0.110243 q -0.03858,0.39687 -0.16812,0.54846 -0.12678,0.15158 -0.2949,0.15158 -0.157097,0 -0.286632,-0.13229 -0.12678,-0.13229 -0.228755,-0.56775 -0.121267,0.23978 -0.237022,0.3638 -0.162609,0.17088 -0.352778,0.25356 -0.190169,0.0854 -0.432704,0.0854 -0.609093,0 -0.895725,-0.40515 -0.286632,-0.40514 -0.286632,-0.92328 0,-0.60634 0.336242,-0.98116 0.336241,-0.37759 0.788237,-0.37759 0.314193,0 0.553972,0.19293 0.239778,0.19017 0.43546,0.71107 z m -0.333485,1.13826 q -0.148828,-0.56775 -0.383094,-0.791 -0.234267,-0.226 -0.476802,-0.226 -0.270095,0 -0.44924,0.29766 -0.179145,0.2949 -0.179145,0.94258 0,0.38309 0.07717,0.60358 0.07717,0.21773 0.23151,0.339 0.157097,0.11851 0.33073,0.11851 0.212217,0 0.388606,-0.19568 0.239779,-0.26459 0.460265,-1.08865 z"
         style="font-style:normal;font-variant:normal;font-weight:normal;font-stretch:normal;font-size:5.64444447px;font-family:Symbol;-inkscape-font-specification:'Symbol, Normal';font-variant-ligatures:normal;font-variant-caps:normal;font-variant-numeric:normal;font-feature-settings:normal;text-align:start;writing-mode:lr-tb;text-anchor:start;fill:#ecf0f1;fill-opacity:1;stroke:none;stroke-width:0.26458332;stroke-opacity:1"
         id="path23090"
         inkscape:connector-curvature="0" />
    </g>
    <g
       aria-label="b"
       style="font-style:normal;font-variant:normal;font-weight:normal;font-stretch:normal;font-size:5.64444447px;line-height:1.25;font-family:Symbol;-inkscape-font-specification:'Symbol, Normal';font-variant-ligatures:normal;font-variant-caps:normal;font-variant-numeric:normal;font-feature-settings:normal;text-align:start;letter-spacing:0px;word-spacing:0px;writing-mode:lr-tb;text-anchor:start;fill:#ecf0f1;fill-opacity:1;stroke:none;stroke-width:0.26458332;stroke-opacity:1"
       id="text23084"
       transform="translate(-0.24568452,0.52916667)">
      <path
         d="m 37.667692,264.46807 v 0.46578 q 0,0.44648 -0.110244,0.96738 h -0.465776 q 0.07441,-0.34175 0.08819,-0.46578 0.03583,-0.38585 0.03583,-0.56499 v -2.81671 q 0,-0.49334 0.09646,-0.73036 0.09922,-0.23978 0.352777,-0.39963 0.256316,-0.15986 0.611849,-0.15986 0.493338,0 0.788238,0.26459 0.2949,0.26458 0.2949,0.62838 0,0.23427 -0.121267,0.44649 -0.118511,0.20946 -0.369314,0.3638 0.738628,0.35278 0.738628,1.09692 0,0.33073 -0.15434,0.61736 -0.15434,0.28663 -0.424436,0.43821 -0.270095,0.14883 -0.556727,0.14883 -0.184657,0 -0.366558,-0.0634 -0.179145,-0.0634 -0.438216,-0.23702 z m 0,-0.21773 q 0.267339,0.18741 0.465776,0.2701 0.148829,0.0606 0.297657,0.0606 0.278363,0 0.465777,-0.22875 0.190169,-0.23152 0.190169,-0.73036 0,-0.3142 -0.09095,-0.54846 -0.08819,-0.23703 -0.314192,-0.51815 -0.19017,0.0634 -0.327973,0.0634 -0.165365,0 -0.234267,-0.0496 -0.06615,-0.0496 -0.06615,-0.10748 0,-0.0524 0.05237,-0.0937 0.05237,-0.0413 0.16812,-0.0413 0.135048,0 0.4079,0.0717 0.192925,-0.3831 0.192925,-0.72485 0,-0.34727 -0.170877,-0.53744 -0.170876,-0.19017 -0.424435,-0.19017 -0.319705,0 -0.496094,0.2701 -0.115755,0.17915 -0.115755,0.57602 z"
         style="font-style:normal;font-variant:normal;font-weight:normal;font-stretch:normal;font-size:5.64444447px;font-family:Symbol;-inkscape-font-specification:'Symbol, Normal';font-variant-ligatures:normal;font-variant-caps:normal;font-variant-numeric:normal;font-feature-settings:normal;text-align:start;writing-mode:lr-tb;text-anchor:start;fill:#ecf0f1;fill-opacity:1;stroke:none;stroke-width:0.26458332;stroke-opacity:1"
         id="path23093"
         inkscape:connector-curvature="0" />
    </g>
    <g
       aria-label="g"
       style="font-style:normal;font-variant:normal;font-weight:normal;font-stretch:normal;font-size:5.64444447px;line-height:1.25;font-family:Symbol;-inkscape-font-specification:'Symbol, Normal';font-variant-ligatures:normal;font-variant-caps:normal;font-variant-numeric:normal;font-feature-settings:normal;text-align:start;letter-spacing:0px;word-spacing:0px;writing-mode:lr-tb;text-anchor:start;fill:#ecf0f1;fill-opacity:1;stroke:none;stroke-width:0.26458332;stroke-opacity:1"
       id="text23088">
      <path
         d="m 39.204403,270.68182 h 0.460265 q -0.0441,0.0992 -0.454753,0.94258 -0.170877,0.35278 -0.245291,0.53468 -0.03307,0.0744 -0.07441,0.16261 l -0.316949,0.67799 q 0.01929,0.17639 0.02756,0.32522 0.0083,0.14883 0.0083,0.2701 0,0.37482 -0.05512,0.57877 -0.03859,0.14332 -0.101975,0.19568 -0.06339,0.0551 -0.137804,0.0551 -0.09095,0 -0.162608,-0.0772 -0.0689,-0.0772 -0.0689,-0.19844 0,-0.21222 0.08544,-0.49058 0.08544,-0.27561 0.253559,-0.62012 -0.201193,-1.41111 -0.322461,-1.70326 -0.118511,-0.29214 -0.330729,-0.29214 -0.129535,0 -0.20395,0.0799 -0.07441,0.0772 -0.112999,0.35277 h -0.107487 q -0.0028,-0.0827 -0.0028,-0.12402 0,-0.38034 0.148828,-0.57326 0.113,-0.14332 0.303169,-0.14332 0.165364,0 0.270095,0.0992 0.143316,0.14056 0.256315,0.61185 0.143316,0.61185 0.223243,1.33118 l 0.242534,-0.81855 q 0.162609,-0.55122 0.418924,-1.17685 z"
         style="font-style:normal;font-variant:normal;font-weight:normal;font-stretch:normal;font-size:5.64444447px;font-family:Symbol;-inkscape-font-specification:'Symbol, Normal';font-variant-ligatures:normal;font-variant-caps:normal;font-variant-numeric:normal;font-feature-settings:normal;text-align:start;writing-mode:lr-tb;text-anchor:start;fill:#ecf0f1;fill-opacity:1;stroke:none;stroke-width:0.26458332;stroke-opacity:1"
         id="path23103" />
    </g>
    <text
       id="text23101"
       y="264.32397"
       x="22.60298"
       style="font-style:normal;font-variant:normal;font-weight:normal;font-stretch:normal;font-size:5.64444447px;line-height:1.25;font-family:sans-serif;-inkscape-font-specification:'sans-serif, Normal';font-variant-ligatures:normal;font-variant-caps:normal;font-variant-numeric:normal;font-feature-settings:normal;text-align:start;letter-spacing:0px;word-spacing:0px;writing-mode:lr-tb;text-anchor:start;fill:#34495e;fill-opacity:1;stroke:none;stroke-width:0.26458332;stroke-opacity:1"
       xml:space="preserve"><tspan
         style="font-style:normal;font-variant:normal;font-weight:normal;font-stretch:normal;font-size:5.64444447px;font-family:sans-serif;-inkscape-font-specification:'sans-serif, Normal';font-variant-ligatures:normal;font-variant-caps:normal;font-variant-numeric:normal;font-feature-settings:normal;text-align:start;writing-mode:lr-tb;text-anchor:start;fill:#34495e;fill-opacity:1;stroke:none;stroke-width:0.26458332;stroke-opacity:1"
         y="264.32397"
         x="22.60298"
         id="tspan23099"
         sodipodi:role="line">c</tspan></text>
    <text
       xml:space="preserve"
       style="font-style:normal;font-variant:normal;font-weight:normal;font-stretch:normal;font-size:5.64444447px;line-height:1.25;font-family:sans-serif;-inkscape-font-specification:'sans-serif, Normal';font-variant-ligatures:normal;font-variant-caps:normal;font-variant-numeric:normal;font-feature-settings:normal;text-align:start;letter-spacing:0px;word-spacing:0px;writing-mode:lr-tb;text-anchor:start;fill:#34495e;fill-opacity:1;stroke:none;stroke-width:0.26458332;stroke-opacity:1"
       x="43.297176"
       y="267.34778"
       id="text23108"><tspan
         sodipodi:role="line"
         id="tspan23106"
         x="43.297176"
         y="267.34778"
         style="font-style:normal;font-variant:normal;font-weight:normal;font-stretch:normal;font-size:5.64444447px;font-family:sans-serif;-inkscape-font-specification:'sans-serif, Normal';font-variant-ligatures:normal;font-variant-caps:normal;font-variant-numeric:normal;font-feature-settings:normal;text-align:start;writing-mode:lr-tb;text-anchor:start;fill:#34495e;fill-opacity:1;stroke:none;stroke-width:0.26458332;stroke-opacity:1">a</tspan></text>
    <text
       id="text23112"
       y="282.67474"
       x="26.477236"
       style="font-style:normal;font-variant:normal;font-weight:normal;font-stretch:normal;font-size:5.64444447px;line-height:1.25;font-family:sans-serif;-inkscape-font-specification:'sans-serif, Normal';font-variant-ligatures:normal;font-variant-caps:normal;font-variant-numeric:normal;font-feature-settings:normal;text-align:start;letter-spacing:0px;word-spacing:0px;writing-mode:lr-tb;text-anchor:start;fill:#34495e;fill-opacity:1;stroke:none;stroke-width:0.26458332;stroke-opacity:1"
       xml:space="preserve"><tspan
         style="font-style:normal;font-variant:normal;font-weight:normal;font-stretch:normal;font-size:5.64444447px;font-family:sans-serif;-inkscape-font-specification:'sans-serif, Normal';font-variant-ligatures:normal;font-variant-caps:normal;font-variant-numeric:normal;font-feature-settings:normal;text-align:start;writing-mode:lr-tb;text-anchor:start;fill:#34495e;fill-opacity:1;stroke:none;stroke-width:0.26458332;stroke-opacity:1"
         y="282.67474"
         x="26.477236"
         id="tspan23110"
         sodipodi:role="line">b</tspan></text>
  </g>
</svg>
