<?xml version="1.0" encoding="UTF-8" standalone="no"?>
<!-- Created with Inkscape (http://www.inkscape.org/) -->

<svg
   xmlns:dc="http://purl.org/dc/elements/1.1/"
   xmlns:cc="http://creativecommons.org/ns#"
   xmlns:rdf="http://www.w3.org/1999/02/22-rdf-syntax-ns#"
   xmlns:svg="http://www.w3.org/2000/svg"
   xmlns="http://www.w3.org/2000/svg"
   xmlns:sodipodi="http://sodipodi.sourceforge.net/DTD/sodipodi-0.dtd"
   xmlns:inkscape="http://www.inkscape.org/namespaces/inkscape"
   width="200"
   height="200"
   viewBox="0 0 52.916665 52.916668"
   version="1.1"
   id="svg8"
   inkscape:version="0.92.3 (2405546, 2018-03-11)"
   sodipodi:docname="icono.svg">
  <defs
     id="defs2" />
  <sodipodi:namedview
     id="base"
     pagecolor="#ffffff"
     bordercolor="#666666"
     borderopacity="1.0"
     inkscape:pageopacity="0.0"
     inkscape:pageshadow="2"
     inkscape:zoom="1.979899"
     inkscape:cx="67.875513"
     inkscape:cy="134.71202"
     inkscape:document-units="mm"
     inkscape:current-layer="layer1"
     showgrid="true"
     units="px"
     inkscape:window-width="1366"
     inkscape:window-height="745"
     inkscape:window-x="-8"
     inkscape:window-y="-8"
     inkscape:window-maximized="1"
     showguides="false">
    <inkscape:grid
       type="xygrid"
       id="grid4293" />
  </sodipodi:namedview>
  <metadata
     id="metadata5">
    <rdf:RDF>
      <cc:Work
         rdf:about="">
        <dc:format>image/svg+xml</dc:format>
        <dc:type
           rdf:resource="http://purl.org/dc/dcmitype/StillImage" />
        <dc:title></dc:title>
      </cc:Work>
    </rdf:RDF>
  </metadata>
  <g
     inkscape:label="Capa 1"
     inkscape:groupmode="layer"
     id="layer1"
     transform="translate(0,-244.08332)">
    <rect
       style="fill:#ecf0f1;fill-opacity:1;fill-rule:evenodd;stroke:none;stroke-width:2.16031361;stroke-linejoin:miter;stroke-miterlimit:4;stroke-dasharray:none;stroke-dashoffset:0;stroke-opacity:1"
       id="rect815"
       width="52.916668"
       height="52.916668"
       x="2.5687237e-008"
       y="244.08334" />
    <g
       aria-label="p"
       style="font-style:normal;font-variant:normal;font-weight:normal;font-stretch:normal;font-size:50.79999924px;line-height:1.25;font-family:Symbol;-inkscape-font-specification:'Symbol, Normal';font-variant-ligatures:normal;font-variant-caps:normal;font-variant-numeric:normal;font-feature-settings:normal;text-align:start;letter-spacing:0px;word-spacing:0px;writing-mode:lr-tb;text-anchor:start;fill:#27ae60;fill-opacity:1;stroke:none;stroke-width:0.26458332"
       id="text21893"
       transform="translate(0,-2.1166667)">
      <path
         d="m 37.642884,266.05793 v 3.59668 H 31.64015 q -0.868164,5.68027 -0.868164,10.88926 0,2.55488 0.892969,3.67109 0.892968,1.09141 2.232421,1.09141 1.066602,0 1.860352,-0.74414 0.79375,-0.74415 1.016992,-2.15801 h 0.868164 q -0.421679,3.91914 -1.885156,5.53144 -1.438672,1.61231 -3.249414,1.61231 -1.934766,0 -3.224609,-1.76114 -1.289844,-1.76113 -1.289844,-6.57324 0,-3.02617 0.942578,-11.55898 H 22.48722 q -0.768945,12.99765 -1.860351,16.44551 -1.091406,3.44785 -3.001367,3.44785 -0.892969,0 -1.488281,-0.59531 -0.570508,-0.59532 -0.570508,-1.48829 0,-0.64492 0.198437,-1.11621 0.272852,-0.64492 1.16582,-1.81074 1.513086,-2.00918 2.108399,-4.2168 1.066601,-3.77031 1.389062,-10.66601 h -1.141015 q -1.810742,0 -2.703711,0.59531 -1.438672,0.89297 -2.629297,2.97656 h -0.967383 q 1.389063,-4.29121 3.249414,-5.92832 1.413867,-1.24023 3.96875,-1.24023 z"
         style="font-style:normal;font-variant:normal;font-weight:normal;font-stretch:normal;font-size:50.79999924px;font-family:Symbol;-inkscape-font-specification:'Symbol, Normal';font-variant-ligatures:normal;font-variant-caps:normal;font-variant-numeric:normal;font-feature-settings:normal;text-align:start;writing-mode:lr-tb;text-anchor:start;fill:#27ae60;fill-opacity:1;stroke-width:0.26458332"
         id="path21895"
         inkscape:connector-curvature="0" />
    </g>
    <g
       aria-label="Un100"
       inkscape:transform-center-x="0.051581656"
       inkscape:transform-center-y="-14.566835"
       style="font-style:normal;font-weight:normal;font-size:10.58333302px;line-height:1.25;font-family:sans-serif;letter-spacing:0px;word-spacing:0px;fill:#2980b9;fill-opacity:1;stroke:none;stroke-width:0.26458332"
       id="text21910">
      <path
         d="m 13.880706,258.70415 q 0.664351,0.50939 1.047367,1.03749 0.38206,0.52085 0.455442,1.10457 0.06956,0.55474 -0.110778,1.08719 -0.180335,0.53245 -0.61111,1.09428 -0.440208,0.57413 -0.918954,0.88428 -0.478746,0.31016 -0.997262,0.37493 -0.590968,0.0743 -1.179872,-0.14277 -0.58576,-0.22121 -1.278818,-0.7526 l -3.6539298,-2.80161 0.62258,-0.81199 3.6949398,2.83306 q 0.496212,0.38046 0.833587,0.53495 0.340519,0.15039 0.696901,0.16968 0.404912,0.0239 0.776069,-0.17986 0.3743,-0.20791 0.707601,-0.64261 0.336445,-0.4388 0.441041,-0.84699 0.100495,-0.41133 -0.02867,-0.8034 -0.111124,-0.33917 -0.360183,-0.63432 -0.250015,-0.30239 -0.697016,-0.64513 l -3.7154444,-2.84877 0.6225804,-0.81199 z"
         style="stroke-width:0.26458332;fill:#2980b9;fill-opacity:1"
         id="path21918" />
      <path
         d="m 22.301302,257.38032 -0.877244,0.41748 -1.412318,-2.9677 q -0.170988,-0.35929 -0.361766,-0.65194 -0.192998,-0.29732 -0.389371,-0.42134 -0.209921,-0.14046 -0.473644,-0.12942 -0.265945,0.006 -0.615909,0.17293 -0.359297,0.17099 -0.666873,0.53483 -0.307577,0.36385 -0.535857,0.81015 l 1.852002,3.8916 -0.877244,0.41748 -2.480439,-5.21214 0.877244,-0.41748 0.275358,0.57861 q 0.248519,-0.53605 0.596096,-0.9361 0.347576,-0.40005 0.809529,-0.61989 0.844581,-0.40194 1.529918,-0.10428 0.685336,0.29765 1.140564,1.25422 z"
         style="stroke-width:0.26458332;fill:#2980b9;fill-opacity:1"
         id="path21920" />
      <path
         d="m 28.831561,256.92246 -4.165048,0.0245 -0.0046,-0.78547 1.601941,-0.009 -0.03031,-5.15722 -1.601942,0.009 -0.0041,-0.70278 q 0.325556,-0.002 0.697316,-0.0558 0.37173,-0.059 0.562322,-0.1635 0.236948,-0.13059 0.37015,-0.32775 0.13834,-0.20235 0.157036,-0.53836 l 0.800971,-0.005 0.04076,6.93486 1.570936,-0.009 z"
         style="stroke-width:0.26458332;fill:#2980b9;fill-opacity:1"
         id="path21922" />
      <path
         d="m 37.164308,255.98941 q -0.872083,1.87978 -1.871596,2.48706 -0.992649,0.60476 -2.230213,0.0306 -1.256314,-0.58284 -1.424387,-1.74318 -0.163385,-1.15817 0.693475,-3.00514 0.863384,-1.86103 1.860384,-2.47517 0.999174,-0.61882 2.241425,-0.0425 1.256314,0.58284 1.413175,1.75507 0.163723,1.16972 -0.682263,2.99325 z m -2.220222,1.55627 q 0.340228,-0.30359 0.633531,-0.78846 0.300165,-0.48738 0.63508,-1.20929 0.330565,-0.71254 0.513199,-1.26583 0.187322,-0.55113 0.188195,-0.99506 0.0034,-0.43708 -0.197749,-0.75256 -0.196448,-0.31331 -0.641784,-0.51991 -0.440647,-0.20443 -0.816103,-0.15644 -0.370768,0.0502 -0.711334,0.3422 -0.320316,0.27295 -0.640055,0.80252 -0.31505,0.53174 -0.623868,1.1974 -0.339264,0.73129 -0.51605,1.24742 -0.176786,0.51614 -0.188534,0.98351 -0.01494,0.43741 0.177162,0.7601 0.196787,0.32485 0.665561,0.54233 0.440647,0.20443 0.816103,0.15644 0.375456,-0.048 0.706646,-0.34437 z"
         style="stroke-width:0.26458332;fill:#2980b9;fill-opacity:1"
         id="path21924" />
      <path
         d="m 43.094871,262.00437 q -1.590727,1.32805 -2.753795,1.45084 -1.15579,0.12345 -2.030114,-0.92381 -0.887571,-1.06313 -0.544528,-2.18427 0.346355,-1.11718 1.909313,-2.42204 1.574859,-1.3148 2.738582,-1.44487 1.167691,-0.13339 2.045327,0.91784 0.887571,1.06313 0.529315,2.19024 -0.350977,1.12777 -1.8941,2.41607 z m -2.671985,0.46028 q 0.437233,-0.12942 0.909367,-0.44281 0.479413,-0.31273 1.090315,-0.82275 0.602969,-0.5034 1.004208,-0.92589 0.40455,-0.41853 0.594742,-0.81966 0.189537,-0.39386 0.142225,-0.765 -0.044,-0.36717 -0.358626,-0.74403 -0.311312,-0.37289 -0.671355,-0.48967 -0.356731,-0.11282 -0.789342,0.006 -0.406153,0.1102 -0.921268,0.45274 -0.511803,0.34651 -1.075102,0.81679 -0.618837,0.51664 -0.998931,0.90802 -0.380094,0.39138 -0.590121,0.80907 -0.200127,0.38923 -0.16406,0.76303 0.03938,0.37777 0.370563,0.77446 0.311312,0.37289 0.671355,0.48967 0.360043,0.11679 0.78603,-0.01 z"
         style="stroke-width:0.26458332;fill:#2980b9;fill-opacity:1"
         id="path21926" />
    </g>
  </g>
</svg>
