<svg xmlns="http://www.w3.org/2000/svg" width="40" height="40"><path d="M15.982 3.482a12.5 12.5 0 00-12.5 12.5 12.5 12.5 0 0012.5 12.5 12.5 12.5 0 006.45-1.809l8.807 8.81 4.243-4.243-8.809-8.809a12.5 12.5 0 001.81-6.449 12.5 12.5 0 00-12.5-12.5z" fill="none" stroke="#fffffb" stroke-width="5"/><path fill="#3498db" d="M15.982 3.482a12.5 12.5 0 00-12.5 12.5 12.5 12.5 0 0012.5 12.5 12.5 12.5 0 006.45-1.809l8.807 8.81 4.243-4.243-8.809-8.809a12.5 12.5 0 001.81-6.449 12.5 12.5 0 00-12.5-12.5z"/><path fill="#fff" d="M8.482 14.107v3.75h15v-3.75z"/></svg>