<svg height="118" viewBox="0 0 141 118" width="141" xmlns="http://www.w3.org/2000/svg"><path d="m128.5 2.488a.188.188 0 0 0 -.186.123l-2.41 6.555a.188.188 0 0 0 .285.217 3.966 3.966 0 0 1 1.811-.71v39.255h1v-39.254a3.831 3.831 0 0 1 1.791.709.188.188 0 0 0 .287-.217l-2.412-6.555a.188.188 0 0 0 -.166-.123zm-2.277 50.221-.102.344c.544.024.908.111 1.094.26.185.148.28.346.28.593 0 .254-.066.604-.196 1.05l-2.338 8.08c-.235.81-.491 1.332-.77 1.568-.272.228-.708.343-1.308.343l-.102.344h10.047l1.39-3.525h-.388c-.662.934-1.473 1.635-2.432 2.105a6.63 6.63 0 0 1 -2.968.705c-.31 0-.534-.053-.676-.158-.136-.111-.205-.228-.205-.352 0-.204.136-.776.408-1.716l2.135-7.395c.222-.76.475-1.264.76-1.512.29-.247.727-.378 1.308-.39l.102-.344h-6.04zm1.777 17.363v39.254a3.827 3.827 0 0 1 -1.79-.709.188.188 0 0 0 -.1-.035.188.188 0 0 0 -.186.252l2.41 6.555a.188.188 0 0 0 .352 0l2.412-6.555a.188.188 0 0 0 -.178-.254.188.188 0 0 0 -.11.037 3.966 3.966 0 0 1 -1.81.71v-39.256h-1z"/><g stroke="#0f0f0e" stroke-linecap="round" stroke-width="2"><path d="m5 5h108v108h-108z" fill="#ff8442"/><g stroke-linejoin="bevel"><path d="m59 5 54 54-54 54-54-54z" fill="#fff"/><path d="m86 32v54h-54v-54z" fill="#ff8442"/><path d="m86 59-27 27-27-27 27-27z" fill="#fff"/><path d="m72.5 72.5h-27v-27h27z" fill="#ff8442"/><path d="m59 72.5-13.5-13.5 13.5-13.5 13.5 13.5z" fill="#fff"/><path d="m52.25 65.75v-13.5h13.5v13.5z" fill="#ff8442"/><path d="m52.25 59 6.75-6.75 6.75 6.75-6.75 6.75z" fill="#fff"/><path d="m55.625 55.625h6.75v6.75h-6.75z" fill="#ff8442"/><path d="m59 55.625 3.375 3.375-3.375 3.375-3.375-3.375z" fill="#fff7ff"/><path d="m60.688 57.313v3.374h-3.375v-3.374z" fill="#ff8442"/></g></g></svg>