<svg height="104" viewBox="0 0 442 104" width="442" xmlns="http://www.w3.org/2000/svg" xmlns:xlink="http://www.w3.org/1999/xlink"><radialGradient id="a" cx="15.963" cy="961.368" gradientTransform="matrix(.97826 0 0 .9781 -3.341 159.16)" gradientUnits="userSpaceOnUse" r="6"><stop offset="0" stop-color="#f1c40f"/><stop offset="1" stop-color="#e67e22"/></radialGradient><g transform="translate(0 -1018.52)"><path d="m355.117 1070.52h34.537v-35.032" fill="none" stroke="#7f8c8d" stroke-dashoffset="4.936" stroke-linecap="round" stroke-linejoin="round"/><path d="m355.117 1087.282h51.787v-51.787m-51.787 17.263h17.263v-17.263" fill="none" stroke="#7f8c8d" stroke-dashoffset="4.936" stroke-linecap="round" stroke-linejoin="round"/><path d="m355.11 1035.488h70.063v70.063h-70.063z" fill="none" stroke="#7f8c8d" stroke-linecap="round" stroke-linejoin="round"/><path d="m251.592 1082.145h46.471" fill="none" stroke="#7f8c8d" stroke-dashoffset="4.936" stroke-linecap="round" stroke-linejoin="round"/><path d="m251.414 1035.488h70.063v70.063h-70.063z" fill="none" stroke="#7f8c8d" stroke-linecap="round" stroke-linejoin="round"/><path d="m298.063 1035.666v46.472m-46.471-23.236h23.235m0-23.236v23.236m-126.615 11.618h34.537v-35.032" fill="none" stroke="#7f8c8d" stroke-dashoffset="4.936" stroke-linecap="round" stroke-linejoin="round"/><path d="m147.718 1035.488h70.063v70.063h-70.063zm-103.696 0h70.063v70.063h-70.063z" fill="none" stroke="#7f8c8d" stroke-linecap="round" stroke-linejoin="round"/><use height="100%" stroke-width="1.022" transform="translate(414.76 4.54)" width="100%" xlink:href="#b"/><use height="100%" stroke-width="1.022" transform="translate(344.704 -13.73)" width="100%" xlink:href="#b"/><use height="100%" stroke-width="1.022" transform="translate(344.704 -30.493)" width="100%" xlink:href="#b"/><use height="100%" stroke-width="1.022" transform="translate(396.49 -48.254)" width="100%" xlink:href="#b"/><use height="100%" stroke-width="1.022" transform="translate(344.697 4.54)" width="100%" xlink:href="#b"/><use height="100%" stroke-width="1.022" transform="translate(379.24 -30.493)" width="100%" xlink:href="#b"/><use height="100%" stroke-width="1.022" transform="translate(379.24 -48.254)" width="100%" xlink:href="#b"/><use height="100%" stroke-width="1.022" transform="translate(361.967 -48.254)" width="100%" xlink:href="#b"/><use height="100%" stroke-width="1.022" transform="translate(414.76 -48.254)" width="100%" xlink:href="#b"/><use height="100%" stroke-width="1.022" transform="translate(344.704 -48.254)" width="100%" xlink:href="#b"/><use height="100%" stroke-width="1.022" transform="translate(396.49 -65.517)" width="100%" xlink:href="#b"/><use height="100%" stroke-width="1.022" transform="translate(379.24 -65.524)" width="100%" xlink:href="#b"/><use height="100%" stroke-width="1.022" transform="translate(414.76 -65.524)" width="100%" xlink:href="#b"/><use height="100%" stroke-width="1.022" transform="translate(361.967 -65.517)" width="100%" xlink:href="#b"/><use height="100%" stroke-width="1.022" transform="translate(344.697 -65.524)" width="100%" xlink:href="#b"/><use height="100%" stroke-width="1.022" transform="translate(311.064 4.54)" width="100%" xlink:href="#b"/><use height="100%" stroke-width="1.022" transform="translate(311.064 -65.524)" width="100%" xlink:href="#b"/><use height="100%" stroke-width="1.022" transform="translate(241 -65.524)" width="100%" xlink:href="#b"/><use height="100%" stroke-width="1.022" transform="translate(241 4.54)" width="100%" xlink:href="#b"/><use height="100%" stroke-width="1.022" transform="translate(287.65 -42.11)" width="100%" xlink:href="#b"/><use height="100%" stroke-width="1.022" transform="translate(241.178 -18.867)" width="100%" xlink:href="#b"/><use height="100%" stroke-width="1.022" transform="translate(264.414 -42.11)" width="100%" xlink:href="#b"/><use height="100%" stroke-width="1.022" transform="translate(241.178 -42.11)" width="100%" xlink:href="#b"/><use height="100%" stroke-width="1.022" transform="translate(287.65 -65.346)" width="100%" xlink:href="#b"/><use height="100%" stroke-width="1.022" transform="translate(264.414 -65.346)" width="100%" xlink:href="#b"/><use height="100%" stroke-width="1.022" transform="translate(207.368 4.54)" width="100%" xlink:href="#b"/><use height="100%" stroke-width="1.022" transform="translate(172.336 4.54)" width="100%" xlink:href="#b"/><use height="100%" stroke-width="1.022" transform="translate(137.305 4.54)" width="100%" xlink:href="#b"/><use height="100%" stroke-width="1.022" transform="translate(172.336 -65.524)" width="100%" xlink:href="#b"/><use height="100%" stroke-width="1.022" transform="translate(137.305 -65.524)" width="100%" xlink:href="#b"/><use height="100%" stroke-width="1.022" transform="translate(207.368 -65.524)" width="100%" xlink:href="#b"/><use height="100%" stroke-width="1.022" transform="translate(103.672 4.54)" width="100%" xlink:href="#b"/><use height="100%" stroke-width="1.022" transform="translate(33.609 4.54)" width="100%" xlink:href="#b"/><use height="100%" stroke-width="1.022" transform="translate(33.609 -65.524)" width="100%" xlink:href="#b"/><circle id="b" cx="10.413" cy="1101.012" fill="url(#a)" r="4" stroke="#e0771a" stroke-dashoffset="4.936" stroke-linecap="round" stroke-linejoin="round"/><path id="c" d="m27.695 1018.52v104" fill="none" stroke="#bdc3c7" stroke-dasharray="2 2"/><use height="100%" transform="translate(103.696)" width="100%" xlink:href="#c"/><use height="100%" transform="translate(207.392)" width="100%" xlink:href="#c"/><use height="100%" transform="translate(311.088)" width="100%" xlink:href="#c"/><use height="100%" transform="translate(103.672 -65.524)" width="100%" xlink:href="#b"/><use height="100%" transform="translate(137.8 -30.493)" width="100%" xlink:href="#b"/><use height="100%" transform="translate(172.336 -30.492)" width="100%" xlink:href="#b"/><use height="100%" transform="translate(264.414 -18.867)" width="100%" xlink:href="#b"/><use height="100%" transform="translate(287.65 -18.874)" width="100%" xlink:href="#b"/><use height="100%" transform="translate(311.064 -42.11)" width="100%" xlink:href="#b"/><use height="100%" transform="translate(311.064 -18.874)" width="100%" xlink:href="#b"/><use height="100%" transform="translate(264.414 4.54)" width="100%" xlink:href="#b"/><use height="100%" transform="translate(287.65 4.54)" width="100%" xlink:href="#b"/><use height="100%" transform="translate(361.967 -30.493)" width="100%" xlink:href="#b"/><use height="100%" transform="translate(396.49 -30.493)" width="100%" xlink:href="#b"/><use height="100%" transform="translate(361.967 -13.73)" width="100%" xlink:href="#b"/><use height="100%" transform="translate(379.24 -13.73)" width="100%" xlink:href="#b"/><use height="100%" transform="translate(396.49 -13.73)" width="100%" xlink:href="#b"/><use height="100%" transform="translate(414.76 -30.493)" width="100%" xlink:href="#b"/><use height="100%" transform="translate(414.76 -13.73)" width="100%" xlink:href="#b"/><use height="100%" transform="translate(361.967 4.54)" width="100%" xlink:href="#b"/><use height="100%" transform="translate(379.24 4.54)" width="100%" xlink:href="#b"/><use height="100%" transform="translate(396.49 4.54)" width="100%" xlink:href="#b"/></g></svg>