<svg height="35" width="35" xmlns="http://www.w3.org/2000/svg"><path d="m19.803 19.642c.134-.543.468-.936.908-1.253a21.454 21.454 0 0 0 2.16-1.753 7.248 7.248 0 0 0 1.552-2.108c.39-.8.577-1.73.577-2.776 0-1.224-.329-2.313-.962-3.251-.63-.933-1.489-1.668-2.564-2.196-1.078-.528-2.302-.805-3.661-.805-1.537 0-2.913.295-4.106.885-1.161.575-2.095 1.369-2.748 2.388-.65 1.017-.959 2.203-.959 3.515 0 .487.184.953.561 1.304.38.352.908.505 1.45.505.556 0 1.083-.163 1.456-.51a1.75 1.75 0 0 0 .556-1.299c0-.713.13-1.315.397-1.812.267-.496.671-.867 1.226-1.148.54-.273 1.255-.423 2.167-.423.719 0 1.27.15 1.727.411.49.278.852.609 1.109 1.04.26.438.388.894.388 1.396 0 .734-.1 1.359-.399 1.817-.695 1.068-1.613 1.84-2.523 2.556-.875.69-1.544 1.48-1.976 2.384-.414.864-.636 1.68-.636 2.451 0 .487.177.958.562 1.305.386.347.91.504 1.45.504.557 0 1.137-.113 1.455-.51.605-.755.636-1.82.833-2.617zm-2.287 9.858c.688 0 1.246-.234 1.727-.667.494-.444.77-1.014.77-1.625 0-.62-.285-1.184-.772-1.623-.487-.438-1.036-.696-1.725-.696-.68 0-1.236.248-1.73.693a2.158 2.158 0 0 0 .001 3.253 2.48 2.48 0 0 0 1.729.665z" fill="#fff"/></svg>