<svg height="104" viewBox="0 0 442 104" width="442" xmlns="http://www.w3.org/2000/svg" xmlns:xlink="http://www.w3.org/1999/xlink"><radialGradient id="a" cx="15.963" cy="961.368" gradientTransform="matrix(.97826 0 0 .9781 -3.341 159.16)" gradientUnits="userSpaceOnUse" r="6"><stop offset="0" stop-color="#f1c40f"/><stop offset="1" stop-color="#e67e22"/></radialGradient><g transform="translate(0 -1018.52)"><path d="m390.141 1040.028 35.224 60.983h-70.448zm-17.611 30.492h35.223m-26.802-14.58h18.38m-35.924 30.373h53.468" fill="none" stroke="#7f8c8d" stroke-dashoffset="4.936" stroke-linecap="round" stroke-linejoin="round"/><use height="100%" stroke-width="1.022" transform="translate(414.899)" width="100%" xlink:href="#b"/><use height="100%" stroke-width="1.022" transform="translate(397.337)" width="100%" xlink:href="#b"/><use height="100%" stroke-width="1.022" transform="translate(379.728)" width="100%" xlink:href="#b"/><use height="100%" stroke-width="1.022" transform="translate(362.12)" width="100%" xlink:href="#b"/><use height="100%" stroke-width="1.022" transform="translate(344.558)" width="100%" xlink:href="#b"/><use height="100%" stroke-width="1.022" transform="translate(407.457 -14.699)" width="100%" xlink:href="#b"/><use height="100%" stroke-width="1.022" transform="translate(389.913 -14.699)" width="100%" xlink:href="#b"/><use height="100%" stroke-width="1.022" transform="translate(370.54 -14.699)" width="100%" xlink:href="#b"/><use height="100%" stroke-width="1.022" transform="translate(351.999 -14.699)" width="100%" xlink:href="#b"/><use height="100%" stroke-width="1.022" transform="translate(398.423 -30.493)" width="100%" xlink:href="#b"/><use height="100%" stroke-width="1.022" transform="translate(379.728 -30.493)" width="100%" xlink:href="#b"/><use height="100%" stroke-width="1.022" transform="translate(361.033 -30.493)" width="100%" xlink:href="#b"/><use height="100%" stroke-width="1.022" transform="translate(389.913 -45.073)" width="100%" xlink:href="#b"/><use height="100%" stroke-width="1.022" transform="translate(370.54 -45.073)" width="100%" xlink:href="#b"/><use height="100%" stroke-width="1.022" transform="translate(379.728 -60.984)" width="100%" xlink:href="#b"/><path d="m286.445 1040.028 35.224 60.983h-70.447zm-23.245 40.245h46.49m-35.359-19.272h24.228" fill="none" stroke="#7f8c8d" stroke-dashoffset="4.936" stroke-linecap="round" stroke-linejoin="round"/><use height="100%" stroke-width="1.022" transform="translate(311.203)" width="100%" xlink:href="#b"/><use height="100%" stroke-width="1.022" transform="translate(287.818)" width="100%" xlink:href="#b"/><use height="100%" stroke-width="1.022" transform="translate(264.34)" width="100%" xlink:href="#b"/><use height="100%" stroke-width="1.022" transform="translate(240.862)" width="100%" xlink:href="#b"/><use height="100%" stroke-width="1.022" transform="translate(300.321 -20.74)" width="100%" xlink:href="#b"/><use height="100%" stroke-width="1.022" transform="translate(276.032 -20.74)" width="100%" xlink:href="#b"/><use height="100%" stroke-width="1.022" transform="translate(251.743 -20.74)" width="100%" xlink:href="#b"/><use height="100%" stroke-width="1.022" transform="translate(288.477 -40.01)" width="100%" xlink:href="#b"/><use height="100%" stroke-width="1.022" transform="translate(263.587 -40.01)" width="100%" xlink:href="#b"/><use height="100%" stroke-width="1.022" transform="translate(276.032 -60.984)" width="100%" xlink:href="#b"/><path d="m182.75 1040.028 35.223 60.983h-70.447zm-17.613 30.492h35.225" fill="none" stroke="#7f8c8d" stroke-dashoffset="4.936" stroke-linecap="round" stroke-linejoin="round"/><use height="100%" stroke-width="1.022" transform="translate(207.507)" width="100%" xlink:href="#b"/><use height="100%" stroke-width="1.022" transform="translate(172.336)" width="100%" xlink:href="#b"/><use height="100%" stroke-width="1.022" transform="translate(137.166)" width="100%" xlink:href="#b"/><use height="100%" stroke-width="1.022" transform="translate(191.032 -30.493)" width="100%" xlink:href="#b"/><use height="100%" stroke-width="1.022" transform="translate(153.641 -30.493)" width="100%" xlink:href="#b"/><use height="100%" stroke-width="1.022" transform="translate(172.336 -60.984)" width="100%" xlink:href="#b"/><path d="m79.053 1040.028 35.224 60.983h-70.447z" fill="none" stroke="#7f8c8d" stroke-dashoffset="4.936" stroke-linecap="round" stroke-linejoin="round"/><use height="100%" stroke-width="1.022" transform="translate(103.811)" width="100%" xlink:href="#b"/><use height="100%" stroke-width="1.022" transform="translate(33.47)" width="100%" xlink:href="#b"/><use height="100%" stroke-width="1.022" transform="translate(68.64 -60.984)" width="100%" xlink:href="#b"/><circle id="b" cx="10.413" cy="1101.012" fill="url(#a)" r="4" stroke="#e0771a" stroke-dashoffset="4.936" stroke-linecap="round" stroke-linejoin="round"/><path id="c" d="m27.695 1018.52v104" fill="none" stroke="#bdc3c7" stroke-dasharray="2 2"/><use height="100%" transform="translate(103.696)" width="100%" xlink:href="#c"/><use height="100%" transform="translate(207.392)" width="100%" xlink:href="#c"/><use height="100%" transform="translate(311.088)" width="100%" xlink:href="#c"/></g></svg>