<svg height="104" viewBox="0 0 416 104" width="416" xmlns="http://www.w3.org/2000/svg"><path d="m-34.013 906.696-39.305 22.692-39.304 22.693v-90.77l39.305 22.693z" fill="none" stroke="#7f8c8d" stroke-linecap="round" stroke-linejoin="round" stroke-width="1.123" transform="matrix(0 -.89049 .89067 0 -755.566 -13.288)"/><path d="m-34.013 906.696-39.305 22.692-39.304 22.693v-90.77l39.305 22.693z" fill="none" stroke="#7f8c8d" stroke-linecap="round" stroke-linejoin="round" stroke-width="1.123" transform="matrix(0 -.89049 .89067 0 -651.566 -13.288)"/><path d="m156 87-10.147-17.57-10.146-17.572h40.586l-10.146 17.572z" fill="#2ecc71"/><path d="m-34.013 906.696-39.305 22.692-39.304 22.693v-90.77l39.305 22.693z" fill="none" stroke="#7f8c8d" stroke-linecap="round" stroke-linejoin="bevel" stroke-width="2.237" transform="matrix(0 .44704 -.44714 0 561.417 102.205)"/><path d="m260 17 10.106 17.5 10.104 17.5 10.106 17.5 10.107 17.5h-80.846l10.106-17.5 10.106-17.5 10.105-17.5z" fill="none" stroke="#7f8c8d" stroke-linecap="round" stroke-linejoin="round"/><path d="m249.853 69.43-10.146-17.572h20.293z" fill="#2ecc71"/><path d="m260 52-10.147-17.57h20.294zm10.147 17.57-10.147-17.57h20.293zm-30.44 17.43-10.147-17.57h20.293z" fill="#2ecc71"/><path d="m260 87-10.147-17.57h20.294z" fill="#2ecc71"/><path d="m280.252 87.07-10.146-17.57h20.293z" fill="#2ecc71"/><path d="m-73.318 929.388-39.304 22.693v-45.385z" fill="none" stroke="#7f8c8d" stroke-linecap="round" stroke-linejoin="bevel" stroke-width="2.237" transform="matrix(0 .44704 -.44714 0 665.417 102.205)"/><path d="m260 52-10.147-17.57h20.294zm10.147 17.57-10.147-17.57h20.293zm-30.44 17.43-10.147-17.57h20.293z" fill="none" stroke="#7f8c8d" stroke-linecap="round" stroke-linejoin="bevel"/><path d="m260 87-10.147-17.57h20.294z" fill="none" stroke="#7f8c8d" stroke-linecap="round" stroke-linejoin="bevel"/><path d="m280.252 87.07-10.146-17.57h20.293z" fill="none" stroke="#7f8c8d" stroke-linecap="round" stroke-linejoin="bevel"/><path d="m364 17 5.053 8.75 5.053 8.75 5.053 8.75 5.051 8.75 5.053 8.75 5.053 8.75 5.053 8.75 5.053 8.75h-80.845l5.053-8.75 5.053-8.75 5.053-8.75 5.053-8.75 5.052-8.75 5.053-8.75 5.053-8.75z" fill="none" stroke="#7f8c8d" stroke-linecap="round" stroke-linejoin="round"/><g fill="#2ecc71"><path d="m358.927 43.215-5.074-8.786h10.147z"/><path d="m364 34.43-5.073-8.786h10.146z"/><path d="m369.073 43.215-5.073-8.786h10.147zm5.074 8.785-5.074-8.785h10.147z"/><path d="m364 52-5.073-8.785h10.146zm-10.147 0-5.073-8.785h10.147zm-5.073 8.785-5.073-8.785h10.146zm10.147 0-5.074-8.785h10.147zm10.146 0-5.073-8.785h10.147zm10.147 0-5.073-8.785h10.146zm5.073 8.785-5.073-8.785h10.147zm-10.146 0-5.074-8.785h10.147z"/><path d="m364 69.57-5.073-8.785h10.146zm-10.147 0-5.073-8.785h10.147zm-10.146 0-5.074-8.785h10.147zm-5.074 8.786-5.073-8.785h10.147zm10.147 0-5.073-8.785h10.146zm10.147 0-5.074-8.785h10.147zm10.146 0-5.073-8.785h10.147zm10.147 0-5.073-8.785h10.146z"/><path d="m389.366 78.356-5.073-8.785h10.147zm5.074 8.786-5.074-8.786h10.147z"/><path d="m384.293 87.142-5.073-8.786h10.146zm-10.146 0-5.074-8.786h10.147z"/><path d="m364 87.142-5.073-8.786h10.146zm-10.147 0-5.073-8.786h10.147zm-10.146 0-5.074-8.786h10.147z"/><path d="m333.56 87.142-5.073-8.786h10.146z"/></g><g fill="none" stroke="#7f8c8d" stroke-linecap="round" stroke-linejoin="bevel"><path d="m358.927 43.215-5.074-8.786h10.147z"/><path d="m364 34.43-5.073-8.786h10.146z"/><path d="m369.073 43.215-5.073-8.786h10.147zm5.074 8.785-5.074-8.785h10.147z"/><path d="m364 52-5.073-8.785h10.146zm-10.147 0-5.073-8.785h10.147zm-5.073 8.785-5.073-8.785h10.146zm10.147 0-5.074-8.785h10.147zm10.146 0-5.073-8.785h10.147zm10.147 0-5.073-8.785h10.146zm5.073 8.785-5.073-8.785h10.147zm-10.146 0-5.074-8.785h10.147z"/><path d="m364 69.57-5.073-8.785h10.146zm-10.147 0-5.073-8.785h10.147zm-10.146 0-5.074-8.785h10.147zm-5.074 8.786-5.073-8.785h10.147zm10.147 0-5.073-8.785h10.146zm10.147 0-5.074-8.785h10.147zm10.146 0-5.073-8.785h10.147zm10.147 0-5.073-8.785h10.146z"/><path d="m389.366 78.356-5.073-8.785h10.147zm5.074 8.786-5.074-8.786h10.147z"/><path d="m384.293 87.142-5.073-8.786h10.146zm-10.146 0-5.074-8.786h10.147z"/><path d="m364 87.142-5.073-8.786h10.146zm-10.147 0-5.073-8.786h10.147zm-10.146 0-5.074-8.786h10.147z"/><path d="m333.56 87.142-5.073-8.786h10.146z"/></g></svg>