<svg xmlns="http://www.w3.org/2000/svg" width="482" height="540"><path d="M182 428v47" fill="none" stroke="#000" stroke-width="3"/><path d="M183 451.5H38.5v-323H81m322 0h37V162m0 52v237.5H198m0 12v-23" fill="none" stroke="#000" stroke-width="2"/><ellipse cx="123" cy="71" rx="5.755" ry="5.75" fill="#00000b" paint-order="fill markers stroke"/><ellipse cy="71" cx="165" rx="5.755" ry="5.75" fill="#00000b" paint-order="fill markers stroke"/><text style="line-height:1.25;-inkscape-font-specification:Arial" x="175.706" y="423.553" transform="scale(1.00044 .99956)" font-weight="400" font-size="21.86" font-family="Arial" letter-spacing="0" word-spacing="0"><tspan x="175.706" y="423.553">+</tspan></text><text y="436.801" x="191.699" style="line-height:1.25;-inkscape-font-specification:Arial" transform="scale(1.00044 .99956)" font-weight="400" font-size="21.86" font-family="Arial" letter-spacing="0" word-spacing="0"><tspan y="436.801" x="191.699">−</tspan></text><circle cy="188" cx="440" fill="none" stroke="#000" stroke-width="3" stroke-linecap="round" paint-order="fill markers stroke" r="26"/><path d="M458.922 206.905l-37.844-37.81m0 37.81l37.844-37.81" fill="none" stroke="#000" stroke-width="3"/><ellipse ry="5.75" rx="5.755" cy="187" cx="123" fill="#00000b" paint-order="fill markers stroke"/><ellipse ry="5.75" rx="5.755" cx="165" cy="187" fill="#00000b" paint-order="fill markers stroke"/><ellipse ry="5.75" rx="5.755" cy="71" cx="278" fill="#00000b" paint-order="fill markers stroke"/><ellipse ry="5.75" rx="5.755" cx="320" cy="71" fill="#00000b" paint-order="fill markers stroke"/><ellipse cx="278" cy="187" rx="5.755" ry="5.75" fill="#00000b" paint-order="fill markers stroke"/><ellipse cy="187" cx="320" rx="5.755" ry="5.75" fill="#00000b" paint-order="fill markers stroke"/><path d="M320 71h82v116h-82M123 71H81v116h42m42 0h113M165 71h113" fill="none" stroke="#000" stroke-width="2"/></svg>