<svg xmlns="http://www.w3.org/2000/svg" height="540" width="482"><path d="M182 428v47" fill="none" stroke="#000" stroke-width="3"/><path d="M183 451.5H38.5v-323H125m234 0h81V198m0 52v201.5H198m0 12v-23" fill="none" stroke="#000" stroke-width="2"/><ellipse ry="5.75" rx="5.755" cy="71" cx="213" fill="#00000b" paint-order="fill markers stroke"/><ellipse ry="5.75" rx="5.755" cx="255" cy="71" fill="#00000b" paint-order="fill markers stroke"/><text transform="scale(1.00044 .99956)" y="423.553" x="175.706" style="line-height:1.25;-inkscape-font-specification:Arial" font-weight="400" font-size="21.86" font-family="Arial" letter-spacing="0" word-spacing="0"><tspan y="423.553" x="175.706">+</tspan></text><text transform="scale(1.00044 .99956)" style="line-height:1.25;-inkscape-font-specification:Arial" x="191.699" y="436.801" font-weight="400" font-size="21.86" font-family="Arial" letter-spacing="0" word-spacing="0"><tspan x="191.699" y="436.801">−</tspan></text><circle cx="440" cy="224" fill="none" stroke="#000" stroke-width="3" stroke-linecap="round" paint-order="fill markers stroke" r="26"/><path d="M458.922 242.905l-37.844-37.81m0 37.81l37.844-37.81" fill="none" stroke="#000" stroke-width="3"/><path d="M213 71h-88v116h88M255 187h104V71H255" fill="none" stroke="#000" stroke-width="2"/><ellipse cx="213" cy="187" rx="5.755" ry="5.75" fill="#00000b" paint-order="fill markers stroke"/><ellipse cy="187" cx="255" rx="5.755" ry="5.75" fill="#00000b" paint-order="fill markers stroke"/></svg>