<svg height="200" viewBox="0 0 52.917 52.917" width="200" xmlns="http://www.w3.org/2000/svg"><marker id="b" orient="auto" overflow="visible" refX="0" refY="0"><path d="M1.2 0l1-1-3.5 1 3.5 1z" fill="#c0392b" fill-rule="evenodd" stroke="#c0392b" stroke-width=".2pt"/></marker><marker id="a" orient="auto" overflow="visible" refX="0" refY="0"><path d="M-1.2 0l-1 1 3.5-1-3.5-1z" fill="#c0392b" fill-rule="evenodd" stroke="#c0392b" stroke-width=".2pt"/></marker><path d="M0 0h52.917v52.917H0z" fill="#ecf0f1" fill-rule="evenodd"/><g fill="none" stroke-width=".529"><path d="M35.719 6.615L11.906 39.688h30.427z" stroke="#2c3e50"/><path d="M35.719 6.615v33.073" stroke="#27ae60"/><path d="M11.906 285.348h30.427" marker-end="url(#a)" marker-start="url(#b)" stroke="#c0392b" transform="translate(0 -244.083)"/></g><g stroke-width=".265"><text x="7.938" y="262.604" font-size="6.35" font-family="sans-serif" letter-spacing="0" word-spacing="0" fill="#2c3e50" writing-mode="lr" transform="translate(0 -244.083)"><tspan x="7.938" y="262.604">A=</tspan></text><text fill="#c0392b" font-family="sans-serif" font-size="6.35" letter-spacing="0" word-spacing="0" x="17.96" y="260.065" transform="translate(0 -244.083)"><tspan x="17.96" y="260.065">b<tspan fill="#27ae60">h</tspan></tspan></text><path d="M17.462 16.669h8.732" fill="none" stroke="#2c3e50"/><g font-family="sans-serif" font-size="6.35" letter-spacing="0" word-spacing="0"><text fill="#2c3e50" x="19.595" y="266.113" transform="translate(0 -244.083)"><tspan x="19.595" y="266.113">2</tspan></text><text fill="#c0392b" x="25.577" y="291.336" transform="translate(0 -244.083)"><tspan x="25.577" y="291.336">b</tspan></text><text fill="#27ae60" x="31.341" y="272.059" transform="translate(0 -244.083)"><tspan x="31.341" y="272.059">h</tspan></text></g></g></svg>