<svg xmlns="http://www.w3.org/2000/svg" height="720" width="700"><defs><marker id="g" refX="0" refY="0" orient="auto" overflow="visible"><path d="M5.231 2.42L-1.324.01 5.23-2.401C4.184-.978 4.19.969 5.231 2.42z" fill-rule="evenodd" stroke-width=".375" stroke-linejoin="round" stroke="#ff1b15" fill="#ff1b15"/></marker><marker id="f" refX="0" refY="0" orient="auto" overflow="visible"><path d="M5.231 2.42L-1.324.01 5.23-2.401C4.184-.978 4.19.969 5.231 2.42z" fill-rule="evenodd" stroke-width=".375" stroke-linejoin="round" stroke="#ff1b15" fill="#ff1b15"/></marker><marker orient="auto" refY="0" refX="0" id="e" overflow="visible"><path d="M5.231 2.42L-1.324.01 5.23-2.401C4.184-.978 4.19.969 5.231 2.42z" fill-rule="evenodd" stroke-width=".375" stroke-linejoin="round" stroke="#ff1b15" fill="#ff1b15"/></marker><marker id="d" refX="0" refY="0" orient="auto" overflow="visible"><path d="M5.231 2.42L-1.324.01 5.23-2.401C4.184-.978 4.19.969 5.231 2.42z" fill-rule="evenodd" stroke-width=".375" stroke-linejoin="round" stroke="#000"/></marker><marker orient="auto" refY="0" refX="0" id="c" overflow="visible"><path d="M5.231 2.42L-1.324.01 5.23-2.401C4.184-.978 4.19.969 5.231 2.42z" fill-rule="evenodd" stroke-width=".375" stroke-linejoin="round" stroke="#000"/></marker><marker id="b" refX="0" refY="0" orient="auto" overflow="visible"><path d="M5.231 2.42L-1.324.01 5.23-2.401C4.184-.978 4.19.969 5.231 2.42z" fill-rule="evenodd" stroke-width=".375" stroke-linejoin="round" stroke="#000"/></marker><marker orient="auto" refY="0" refX="0" id="a" overflow="visible"><path d="M5.231 2.42L-1.324.01 5.23-2.401C4.184-.978 4.19.969 5.231 2.42z" fill-rule="evenodd" stroke-width=".375" stroke-linejoin="round" stroke="#000"/></marker></defs><path fill="#b2b2ff" stroke="#2322fe" stroke-width="5" paint-order="stroke markers fill" d="M70 401.5h60v90H70z"/><path d="M214.176 563.999h25.009" fill="none" stroke="#000" stroke-width="2"/><path d="M227.753 577.919h-.28l-.32-2.04c-.52-2.16-.92-3.28-1.72-4.4h-3.28l-5.48.64v1.76s.6-.12 1.16-.12c2.56-.04 3.32.44 4.24 3.84l.92 3.44-2.6 4.32c-.84 1.36-1.28 1.72-2.04 1.72-.72 0-1.64-.48-2.56-.48-1.04 0-1.84.88-1.84 1.96 0 1.24.8 2.36 2.64 2.36 2.56 0 3.68-1.6 4.76-3.72l2.04-3.96h.32l.92 3.92c.64 2.64 1.68 3.76 4.16 3.76 3.08 0 5.24-3.56 6.36-5.36l-1.2-.84c-1 1.44-1.76 2.2-2.76 2.2-.72 0-1.24-1-2.12-3.88l-.92-3.04 2.24-3.52c.68-1.08 1.24-1.6 2.16-1.6.84 0 1.28.72 2.36.72 1.36 0 2.16-1.2 2.16-2.12 0-1.44-.64-2.32-2.52-2.32-2.56 0-3.88 1.48-5.2 3.84zM272.446 581.999v-3.68h-24.8v3.68zM300.509 571.319h-1.28l-1.04 1.16h-.2c-1.2-.8-3-1.24-4.76-1.24-3.68 0-6.32 1.92-6.32 5.12 0 2.4 1.48 3.92 3.52 6.08 1.92 2 2.88 3 2.88 4.44 0 1.48-1.04 2.36-2.8 2.36-2.72 0-3.32-2.16-3.72-5.76h-1.64l-1.48 7.44h1.44l.76-1h.24c1.32.76 2.8 1.2 4.72 1.2 4.04 0 7.92-1.92 7.92-5.68 0-2.44-1.6-4.08-3.8-6.32-1.92-1.96-2.72-2.92-2.72-4.16 0-1.16.72-1.96 2.28-1.96 2.36 0 3.24 1.76 3.52 4.8h1.6z" style="line-height:1.25;-inkscape-font-specification:'STIX Two Text Bold Italic'" font-style="italic" font-weight="700" font-size="40" font-family="STIX Two Text" letter-spacing="0" word-spacing="0"/><path fill="#b2b2ff" stroke="#2322fe" stroke-width="5" paint-order="stroke markers fill" d="M132.5 311.5h60v180h-60z"/><path fill="#99f" stroke="#2322fe" stroke-width="5" paint-order="stroke markers fill" d="M195 184.5h60v307h-60zM257.5 93.5h60v398h-60z"/><path fill="#66f" stroke="#2322fe" stroke-width="5" paint-order="stroke markers fill" d="M320 32.5h60v459h-60z"/><path fill="#bfbfff" stroke="#2322fe" stroke-width="5" paint-order="stroke markers fill" d="M382.5 92.5h60v399h-60zM445 185.5h60v306h-60z"/><path fill="#99f" stroke="#2322fe" stroke-width="5" paint-order="stroke markers fill" d="M507.5 311.5h60v180h-60zM570 400.5h60v91h-60z"/><path d="M19 493h662" fill="none" stroke="#000" stroke-width="3"/><path d="M100 494.5v5M162.5 494.5v5M37.5 494.5v5M225 494.5v5M287.5 494.5v5M350 494.5v5M412.5 494.5v5M475 494.5v5M537.5 494.5v5M600 494.5v5M662.5 494.5v5" fill="none" stroke="#000" stroke-width="2"/><path d="M131.25 507.022V557" fill="none" stroke="#000" stroke-width="2" marker-start="url(#a)"/><path d="M257.25 507.022V557" fill="none" stroke="#000" stroke-width="2" marker-start="url(#b)"/><path d="M443.25 507.022V557" fill="none" stroke="#000" stroke-width="2" marker-start="url(#c)"/><path d="M567.25 507.022V557" fill="none" stroke="#000" stroke-width="2" marker-start="url(#d)"/><path d="M350.041 510.476v106.98" fill="none" stroke="#ff1b15" stroke-width="2" stroke-dasharray="6,6" marker-start="url(#e)"/><path d="M194.047 511.328v136.977" fill="none" stroke="#ff1b15" stroke-width="2" stroke-dasharray="6,6" marker-start="url(#f)"/><path d="M506.047 511.319v136.976" fill="none" stroke="#ff1b15" stroke-width="2" stroke-dasharray="6,6" marker-start="url(#g)"/><path d="M337.629 628.456h25.009" fill="none" stroke="#ff1b15" stroke-width="2"/><path d="M351.206 640.376h-.28l-.32-2.04c-.52-2.16-.92-3.28-1.72-4.4h-3.28l-5.48.64v1.76s.6-.12 1.16-.12c2.56-.04 3.32.44 4.24 3.84l.92 3.44-2.6 4.32c-.84 1.36-1.28 1.72-2.04 1.72-.72 0-1.64-.48-2.56-.48-1.04 0-1.84.88-1.84 1.96 0 1.24.8 2.36 2.64 2.36 2.56 0 3.68-1.6 4.76-3.72l2.04-3.96h.32l.92 3.92c.64 2.64 1.68 3.76 4.16 3.76 3.08 0 5.24-3.56 6.36-5.36l-1.2-.84c-1 1.44-1.76 2.2-2.76 2.2-.72 0-1.24-1-2.12-3.88l-.92-3.04 2.24-3.52c.68-1.08 1.24-1.6 2.16-1.6.84 0 1.28.72 2.36.72 1.36 0 2.16-1.2 2.16-2.12 0-1.44-.64-2.32-2.52-2.32-2.56 0-3.88 1.48-5.2 3.84z" style="line-height:1.25;-inkscape-font-specification:'STIX Two Text Bold Italic'" font-style="italic" font-weight="700" font-size="40" font-family="STIX Two Text" letter-spacing="0" word-spacing="0" fill="#ff1b15"/><path d="M48.329 563.999h25.009" fill="none" stroke="#000" stroke-width="2"/><path d="M61.906 577.919h-.28l-.32-2.04c-.52-2.16-.92-3.28-1.72-4.4h-3.28l-5.48.64v1.76s.6-.12 1.16-.12c2.56-.04 3.32.44 4.24 3.84l.92 3.44-2.6 4.32c-.84 1.36-1.28 1.72-2.04 1.72-.72 0-1.64-.48-2.56-.48-1.04 0-1.84.88-1.84 1.96 0 1.24.8 2.36 2.64 2.36 2.56 0 3.68-1.6 4.76-3.72l2.04-3.96h.32l.92 3.92c.64 2.64 1.68 3.76 4.16 3.76 3.08 0 5.24-3.56 6.36-5.36l-1.2-.84c-1 1.44-1.76 2.2-2.76 2.2-.72 0-1.24-1-2.12-3.88l-.92-3.04 2.24-3.52c.68-1.08 1.24-1.6 2.16-1.6.84 0 1.28.72 2.36.72 1.36 0 2.16-1.2 2.16-2.12 0-1.44-.64-2.32-2.52-2.32-2.56 0-3.88 1.48-5.2 3.84zM106.599 581.999v-3.68h-24.8v3.68z" style="line-height:1.25;-inkscape-font-specification:'STIX Two Text Bold Italic'" font-style="italic" font-weight="700" font-size="40" font-family="STIX Two Text" letter-spacing="0" word-spacing="0"/><path d="M120.741 570.559c1.28-1.84 2.68-2.8 4.96-2.8 2.16 0 3.52 1.2 3.52 3.2 0 2.8-2.32 4.68-4.8 4.68h-.88v2.52h.76c4.28 0 6.36 2.04 6.36 5.52 0 3.92-1.4 5.2-3.32 5.2-2.2 0-3.56-2.84-5.72-2.84-1.44 0-2.16 1.12-2.16 2.4 0 1.68 1.24 2.64 5.08 2.64 6.48 0 11.8-2.64 11.8-8.12 0-3.2-2.2-5.6-6.44-7.04v-.32c3-1.24 4.96-2.48 4.96-5.64 0-3.2-2.8-5.6-7.4-5.6-3.68 0-6.44 1.92-8.12 5.4z" style="line-height:1.25;-inkscape-font-specification:'STIX Two Text Bold'" font-weight="700" font-size="40" font-family="STIX Two Text" letter-spacing="0" word-spacing="0"/><path d="M154.427 571.319h-1.28l-1.04 1.16h-.2c-1.2-.8-3-1.24-4.76-1.24-3.68 0-6.32 1.92-6.32 5.12 0 2.4 1.48 3.92 3.52 6.08 1.92 2 2.88 3 2.88 4.44 0 1.48-1.04 2.36-2.8 2.36-2.72 0-3.32-2.16-3.72-5.76h-1.64l-1.48 7.44h1.44l.76-1h.24c1.32.76 2.8 1.2 4.72 1.2 4.04 0 7.92-1.92 7.92-5.68 0-2.44-1.6-4.08-3.8-6.32-1.92-1.96-2.72-2.92-2.72-4.16 0-1.16.72-1.96 2.28-1.96 2.36 0 3.24 1.76 3.52 4.8h1.6z" style="line-height:1.25;-inkscape-font-specification:'STIX Two Text Bold Italic'" font-style="italic" font-weight="700" font-size="40" font-family="STIX Two Text" letter-spacing="0" word-spacing="0"/><path d="M558.258 563.999h25.009" fill="none" stroke="#000" stroke-width="2"/><path d="M571.835 577.919h-.28l-.32-2.04c-.52-2.16-.92-3.28-1.72-4.4h-3.28l-5.48.64v1.76s.6-.12 1.16-.12c2.56-.04 3.32.44 4.24 3.84l.92 3.44-2.6 4.32c-.84 1.36-1.28 1.72-2.04 1.72-.72 0-1.64-.48-2.56-.48-1.04 0-1.84.88-1.84 1.96 0 1.24.8 2.36 2.64 2.36 2.56 0 3.68-1.6 4.76-3.72l2.04-3.96h.32l.92 3.92c.64 2.64 1.68 3.76 4.16 3.76 3.08 0 5.24-3.56 6.36-5.36l-1.2-.84c-1 1.44-1.76 2.2-2.76 2.2-.72 0-1.24-1-2.12-3.88l-.92-3.04 2.24-3.52c.68-1.08 1.24-1.6 2.16-1.6.84 0 1.28.72 2.36.72 1.36 0 2.16-1.2 2.16-2.12 0-1.44-.64-2.32-2.52-2.32-2.56 0-3.88 1.48-5.2 3.84zM616.528 581.999v-3.68h-10.48v-10.6h-3.84v10.6h-10.48v3.68h10.48v10.6h3.84v-10.6z" style="line-height:1.25;-inkscape-font-specification:'STIX Two Text Bold Italic'" font-style="italic" font-weight="700" font-size="40" font-family="STIX Two Text" letter-spacing="0" word-spacing="0"/><path d="M630.67 570.559c1.28-1.84 2.68-2.8 4.96-2.8 2.16 0 3.52 1.2 3.52 3.2 0 2.8-2.32 4.68-4.8 4.68h-.88v2.52h.76c4.28 0 6.36 2.04 6.36 5.52 0 3.92-1.4 5.2-3.32 5.2-2.2 0-3.56-2.84-5.72-2.84-1.44 0-2.16 1.12-2.16 2.4 0 1.68 1.24 2.64 5.08 2.64 6.48 0 11.8-2.64 11.8-8.12 0-3.2-2.2-5.6-6.44-7.04v-.32c3-1.24 4.96-2.48 4.96-5.64 0-3.2-2.8-5.6-7.4-5.6-3.68 0-6.44 1.92-8.12 5.4z" style="line-height:1.25;-inkscape-font-specification:'STIX Two Text Bold'" font-weight="700" font-size="40" font-family="STIX Two Text" letter-spacing="0" word-spacing="0"/><path d="M664.356 571.319h-1.28l-1.04 1.16h-.2c-1.2-.8-3-1.24-4.76-1.24-3.68 0-6.32 1.92-6.32 5.12 0 2.4 1.48 3.92 3.52 6.08 1.92 2 2.88 3 2.88 4.44 0 1.48-1.04 2.36-2.8 2.36-2.72 0-3.32-2.16-3.72-5.76h-1.64l-1.48 7.44h1.44l.76-1h.24c1.32.76 2.8 1.2 4.72 1.2 4.04 0 7.92-1.92 7.92-5.68 0-2.44-1.6-4.08-3.8-6.32-1.92-1.96-2.72-2.92-2.72-4.16 0-1.16.72-1.96 2.28-1.96 2.36 0 3.24 1.76 3.52 4.8h1.6z" style="line-height:1.25;-inkscape-font-specification:'STIX Two Text Bold Italic'" font-style="italic" font-weight="700" font-size="40" font-family="STIX Two Text" letter-spacing="0" word-spacing="0"/><path d="M400.176 563.999h25.009" fill="none" stroke="#000" stroke-width="2"/><path d="M413.753 577.919h-.28l-.32-2.04c-.52-2.16-.92-3.28-1.72-4.4h-3.28l-5.48.64v1.76s.6-.12 1.16-.12c2.56-.04 3.32.44 4.24 3.84l.92 3.44-2.6 4.32c-.84 1.36-1.28 1.72-2.04 1.72-.72 0-1.64-.48-2.56-.48-1.04 0-1.84.88-1.84 1.96 0 1.24.8 2.36 2.64 2.36 2.56 0 3.68-1.6 4.76-3.72l2.04-3.96h.32l.92 3.92c.64 2.64 1.68 3.76 4.16 3.76 3.08 0 5.24-3.56 6.36-5.36l-1.2-.84c-1 1.44-1.76 2.2-2.76 2.2-.72 0-1.24-1-2.12-3.88l-.92-3.04 2.24-3.52c.68-1.08 1.24-1.6 2.16-1.6.84 0 1.28.72 2.36.72 1.36 0 2.16-1.2 2.16-2.12 0-1.44-.64-2.32-2.52-2.32-2.56 0-3.88 1.48-5.2 3.84zM458.446 581.999v-3.68h-10.48v-10.6h-3.84v10.6h-10.48v3.68h10.48v10.6h3.84v-10.6zM486.509 571.319h-1.28l-1.04 1.16h-.2c-1.2-.8-3-1.24-4.76-1.24-3.68 0-6.32 1.92-6.32 5.12 0 2.4 1.48 3.92 3.52 6.08 1.92 2 2.88 3 2.88 4.44 0 1.48-1.04 2.36-2.8 2.36-2.72 0-3.32-2.16-3.72-5.76h-1.64l-1.48 7.44h1.44l.76-1h.24c1.32.76 2.8 1.2 4.72 1.2 4.04 0 7.92-1.92 7.92-5.68 0-2.44-1.6-4.08-3.8-6.32-1.92-1.96-2.72-2.92-2.72-4.16 0-1.16.72-1.96 2.28-1.96 2.36 0 3.24 1.76 3.52 4.8h1.6z" style="line-height:1.25;-inkscape-font-specification:'STIX Two Text Bold Italic'" font-style="italic" font-weight="700" font-size="40" font-family="STIX Two Text" letter-spacing="0" word-spacing="0"/><path d="M453.09 659.775h25.009" fill="none" stroke="#ff1b15" stroke-width="2"/><path d="M466.667 671.695h-.28l-.32-2.04c-.52-2.16-.92-3.28-1.72-4.4h-3.28l-5.48.64v1.76s.6-.12 1.16-.12c2.56-.04 3.32.44 4.24 3.84l.92 3.44-2.6 4.32c-.84 1.36-1.28 1.72-2.04 1.72-.72 0-1.64-.48-2.56-.48-1.04 0-1.84.88-1.84 1.96 0 1.24.8 2.36 2.64 2.36 2.56 0 3.68-1.6 4.76-3.72l2.04-3.96h.32l.92 3.92c.64 2.64 1.68 3.76 4.16 3.76 3.08 0 5.24-3.56 6.36-5.36l-1.2-.84c-1 1.44-1.76 2.2-2.76 2.2-.72 0-1.24-1-2.12-3.88l-.92-3.04 2.24-3.52c.68-1.08 1.24-1.6 2.16-1.6.84 0 1.28.72 2.36.72 1.36 0 2.16-1.2 2.16-2.12 0-1.44-.64-2.32-2.52-2.32-2.56 0-3.88 1.48-5.2 3.84zM511.36 675.775v-3.68h-10.48v-10.6h-3.84v10.6h-10.48v3.68h10.48v10.6h3.84v-10.6z" style="line-height:1.25;-inkscape-font-specification:'STIX Two Text Bold Italic'" font-style="italic" font-weight="700" font-size="40" font-family="STIX Two Text" letter-spacing="0" word-spacing="0" fill="#ff1b15"/><path d="M541.302 676.255h-1.72c-.92 2.4-1.44 3.28-3.56 3.28h-4.6l-2.52.28v-.32l4.64-3.84c4.8-3.96 7.16-6.68 7.16-10.6 0-4.04-3.32-6.76-7.92-6.76-4.32 0-7.48 2.16-8.92 6.08l1.76.64c1.36-2.8 2.96-3.48 5.2-3.48 2.68 0 3.76 1.64 3.76 4.12 0 4.36-1.84 6.88-5.52 10.64l-5.2 5.28v2.68h16.16z" style="line-height:1.25;-inkscape-font-specification:'STIX Two Text Bold'" font-weight="700" font-size="40" font-family="STIX Two Text" letter-spacing="0" word-spacing="0" fill="#ff1b15"/><path d="M559.188 665.095h-1.28l-1.04 1.16h-.2c-1.2-.8-3-1.24-4.76-1.24-3.68 0-6.32 1.92-6.32 5.12 0 2.4 1.48 3.92 3.52 6.08 1.92 2 2.88 3 2.88 4.44 0 1.48-1.04 2.36-2.8 2.36-2.72 0-3.32-2.16-3.72-5.76h-1.64l-1.48 7.44h1.44l.76-1h.24c1.32.76 2.8 1.2 4.72 1.2 4.04 0 7.92-1.92 7.92-5.68 0-2.44-1.6-4.08-3.8-6.32-1.92-1.96-2.72-2.92-2.72-4.16 0-1.16.72-1.96 2.28-1.96 2.36 0 3.24 1.76 3.52 4.8h1.6z" style="line-height:1.25;-inkscape-font-specification:'STIX Two Text Bold Italic'" font-style="italic" font-weight="700" font-size="40" font-family="STIX Two Text" letter-spacing="0" word-spacing="0" fill="#ff1b15"/><path d="M141.09 659.775h25.009" fill="none" stroke="#ff1b15" stroke-width="2"/><path d="M154.667 671.695h-.28l-.32-2.04c-.52-2.16-.92-3.28-1.72-4.4h-3.28l-5.48.64v1.76s.6-.12 1.16-.12c2.56-.04 3.32.44 4.24 3.84l.92 3.44-2.6 4.32c-.84 1.36-1.28 1.72-2.04 1.72-.72 0-1.64-.48-2.56-.48-1.04 0-1.84.88-1.84 1.96 0 1.24.8 2.36 2.64 2.36 2.56 0 3.68-1.6 4.76-3.72l2.04-3.96h.32l.92 3.92c.64 2.64 1.68 3.76 4.16 3.76 3.08 0 5.24-3.56 6.36-5.36l-1.2-.84c-1 1.44-1.76 2.2-2.76 2.2-.72 0-1.24-1-2.12-3.88l-.92-3.04 2.24-3.52c.68-1.08 1.24-1.6 2.16-1.6.84 0 1.28.72 2.36.72 1.36 0 2.16-1.2 2.16-2.12 0-1.44-.64-2.32-2.52-2.32-2.56 0-3.88 1.48-5.2 3.84zM199.36 675.775v-3.68h-24.8v3.68z" style="line-height:1.25;-inkscape-font-specification:'STIX Two Text Bold Italic'" font-style="italic" font-weight="700" font-size="40" font-family="STIX Two Text" letter-spacing="0" word-spacing="0" fill="#ff1b15"/><path d="M229.302 676.255h-1.72c-.92 2.4-1.44 3.28-3.56 3.28h-4.6l-2.52.28v-.32l4.64-3.84c4.8-3.96 7.16-6.68 7.16-10.6 0-4.04-3.32-6.76-7.92-6.76-4.32 0-7.48 2.16-8.92 6.08l1.76.64c1.36-2.8 2.96-3.48 5.2-3.48 2.68 0 3.76 1.64 3.76 4.12 0 4.36-1.84 6.88-5.52 10.64l-5.2 5.28v2.68h16.16z" style="line-height:1.25;-inkscape-font-specification:'STIX Two Text Bold'" font-weight="700" font-size="40" font-family="STIX Two Text" letter-spacing="0" word-spacing="0" fill="#ff1b15"/><path d="M247.188 665.095h-1.28l-1.04 1.16h-.2c-1.2-.8-3-1.24-4.76-1.24-3.68 0-6.32 1.92-6.32 5.12 0 2.4 1.48 3.92 3.52 6.08 1.92 2 2.88 3 2.88 4.44 0 1.48-1.04 2.36-2.8 2.36-2.72 0-3.32-2.16-3.72-5.76h-1.64l-1.48 7.44h1.44l.76-1h.24c1.32.76 2.8 1.2 4.72 1.2 4.04 0 7.92-1.92 7.92-5.68 0-2.44-1.6-4.08-3.8-6.32-1.92-1.96-2.72-2.92-2.72-4.16 0-1.16.72-1.96 2.28-1.96 2.36 0 3.24 1.76 3.52 4.8h1.6z" style="line-height:1.25;-inkscape-font-specification:'STIX Two Text Bold Italic'" font-style="italic" font-weight="700" font-size="40" font-family="STIX Two Text" letter-spacing="0" word-spacing="0" fill="#ff1b15"/></svg>