<svg xmlns="http://www.w3.org/2000/svg" width="401" height="187"><path d="M160.154 185.31h80.692v-21.94h-80.692z" fill="#efe4b0" paint-order="stroke markers fill"/><g style="-inkscape-font-specification:Calibri" aria-label="EDAD" font-weight="400" font-size="14.277" font-family="Calibri" stroke-width="1.333"><path d="M10.074 17.218q0 .132-.013.234-.014.095-.047.161t-.08.095q-.04.03-.093.03H5.713q-.153 0-.293-.11-.133-.117-.133-.402V8.79q0-.285.133-.395.14-.117.293-.117h4.082q.053 0 .093.03.046.029.073.094.027.066.04.168.02.096.02.242 0 .131-.02.234-.013.095-.04.16-.027.059-.073.088-.04.03-.093.03H6.43v2.967h2.885q.053 0 .093.037.047.03.073.088.034.058.047.16.013.103.013.242 0 .131-.013.226t-.047.154q-.026.058-.073.087-.04.022-.093.022H6.431v3.385h3.41q.053 0 .093.03.047.028.08.094.033.059.047.161.013.095.013.241zM18.547 12.869q0 1.228-.286 2.149-.286.914-.838 1.52-.545.6-1.343.9-.798.3-1.901.3h-1.822q-.153 0-.292-.11-.133-.117-.133-.402V8.79q0-.285.133-.395.14-.117.292-.117h1.948q1.117 0 1.888.322.771.314 1.29.913.525.593.79 1.44.274.849.274 1.916zm-1.204.05q0-.767-.173-1.425-.173-.665-.545-1.147-.365-.483-.93-.753-.566-.27-1.456-.27h-1.164v7.36h1.177q.824 0 1.39-.226.564-.227.943-.694.38-.468.565-1.17.193-.71.193-1.674zM26.815 17.291q.053.161.053.263.007.096-.046.147-.053.05-.18.065-.12.015-.325.015-.206 0-.333-.015-.12-.007-.186-.029-.06-.029-.093-.073-.027-.044-.053-.11l-.738-2.302h-3.577l-.705 2.273q-.02.066-.053.117-.033.044-.1.08-.06.03-.179.044-.113.015-.3.015-.192 0-.318-.022-.12-.014-.173-.066-.047-.05-.047-.146.007-.102.06-.263l2.885-8.787q.027-.08.067-.131.047-.051.126-.08.087-.03.213-.037.133-.015.332-.015.213 0 .353.015.14.007.226.036.086.03.133.088.046.051.073.132zm-3.703-7.756h-.006l-1.483 4.715h2.992zM34.871 12.869q0 1.228-.286 2.149-.285.914-.837 1.52-.545.6-1.343.9-.798.3-1.901.3h-1.822q-.153 0-.293-.11-.133-.117-.133-.402V8.79q0-.285.133-.395.14-.117.293-.117h1.948q1.117 0 1.888.322.771.314 1.29.913.525.593.79 1.44.273.849.273 1.916zm-1.203.05q0-.767-.173-1.425-.173-.665-.545-1.147-.366-.483-.93-.753-.566-.27-1.457-.27H29.4v7.36h1.177q.824 0 1.39-.226.564-.227.943-.694.38-.468.565-1.17.193-.71.193-1.674z"/></g><g style="-inkscape-font-specification:Calibri" aria-label="Frecuencia" font-weight="400" font-size="14.277" font-family="Calibri" stroke-width="1.333"><path d="M89.305 8.819q0 .139-.013.241-.013.103-.047.168-.033.059-.08.088-.04.03-.086.03h-3.151v3.216h2.978q.047 0 .087.029.046.022.08.08.033.059.046.161.013.095.013.249 0 .139-.013.241-.013.095-.047.16-.033.06-.08.096-.04.03-.086.03h-2.978v3.94q0 .05-.027.102-.026.043-.093.073-.066.022-.173.036-.106.022-.279.022-.16 0-.272-.022-.113-.014-.18-.036-.066-.03-.093-.073-.027-.052-.027-.103V8.79q0-.285.133-.395.14-.117.293-.117h3.87q.046 0 .086.03.046.029.08.094.033.066.046.176.013.102.013.241zM94.404 11.407q0 .16-.006.27-.007.11-.027.176-.02.058-.053.095-.027.029-.08.029-.053 0-.133-.03-.073-.036-.173-.065-.093-.037-.212-.066-.12-.03-.26-.03-.166 0-.325.074-.16.073-.34.241-.172.168-.365.446t-.426.68v4.328q0 .058-.026.102-.027.036-.087.066-.06.029-.166.043-.106.015-.272.015-.16 0-.266-.015-.107-.014-.173-.043-.06-.03-.087-.066-.02-.044-.02-.102v-6.58q0-.058.02-.095.02-.043.08-.073.06-.036.153-.044.093-.014.246-.014.146 0 .24.014.1.008.152.044.053.03.073.073.027.037.027.095v.958q.246-.395.459-.643.22-.249.412-.388.193-.146.379-.197.193-.058.385-.058.087 0 .193.014.113.007.233.037.12.029.213.065.1.037.14.074.04.036.052.073.014.029.02.08.014.051.014.154.006.095.006.263zM100.71 13.98q0 .285-.132.41-.127.116-.293.116h-3.922q0 .548.1.987.1.439.332.753t.605.482q.372.169.91.169.426 0 .758-.074.333-.08.572-.175.246-.095.399-.168.16-.08.24-.08.046 0 .08.029.039.022.059.073.02.051.027.146.013.088.013.22 0 .094-.007.167-.007.066-.02.125-.006.05-.033.095-.02.044-.06.088-.033.036-.213.131-.18.088-.465.176-.286.087-.665.153-.372.073-.798.073-.737 0-1.296-.226-.552-.227-.93-.673-.38-.446-.572-1.118-.193-.673-.193-1.565 0-.848.2-1.52.199-.68.571-1.148.379-.475.91-.724.533-.255 1.19-.255.705 0 1.197.248.5.249.818.673.32.416.466.986.152.563.152 1.207zm-1.103-.358q.02-.95-.386-1.492-.399-.54-1.19-.54-.405 0-.711.168-.306.168-.512.446-.206.277-.32.65-.112.366-.125.768zM106.687 16.553q0 .124-.007.22-.007.087-.027.153-.013.058-.04.11-.02.043-.106.138-.08.088-.28.227-.199.132-.451.241-.246.103-.539.168-.292.066-.605.066-.645 0-1.143-.234-.499-.234-.838-.68-.332-.453-.512-1.103-.173-.658-.173-1.514 0-.972.213-1.666.22-.702.592-1.148.379-.446.884-.658.512-.22 1.104-.22.285 0 .551.06.273.058.499.153.226.095.399.22.18.123.26.211.079.088.106.139.033.051.053.124.02.066.026.154.007.088.007.22 0 .284-.06.401-.06.11-.146.11-.1 0-.233-.117-.126-.124-.325-.27-.2-.147-.486-.264-.279-.124-.665-.124-.79 0-1.216.672-.42.666-.42 1.938 0 .636.107 1.118.113.475.326.797.213.321.519.482.312.154.711.154.379 0 .665-.132.286-.131.492-.285.212-.16.352-.285.146-.132.226-.132.047 0 .08.03.033.029.053.102.027.066.033.175.014.103.014.249zM113.27 17.554q0 .059-.026.103-.02.036-.08.066-.06.029-.16.043-.093.015-.232.015-.153 0-.253-.015-.093-.014-.153-.043-.053-.03-.073-.066-.02-.044-.02-.103v-.87q-.512.622-1.01.907-.5.285-1.011.285-.598 0-1.01-.22-.406-.218-.659-.591-.252-.38-.365-.877-.107-.505-.107-1.221v-3.992q0-.058.02-.095.027-.043.093-.073.067-.036.173-.044.106-.014.266-.014.16 0 .266.014.106.008.166.044.067.03.093.073.027.037.027.095v3.83q0 .578.073.93.08.343.233.591.16.242.399.38.239.132.558.132.412 0 .818-.322.412-.321.87-.943v-4.598q0-.058.02-.095.027-.043.094-.073.066-.036.166-.044.106-.014.272-.014.16 0 .266.014.107.008.167.044.06.03.086.073.033.037.033.095zM120.398 13.98q0 .285-.133.41-.126.116-.292.116h-3.922q0 .548.1.987.099.439.332.753.232.314.605.482.372.169.91.169.426 0 .758-.074.333-.08.572-.175.246-.095.399-.168.16-.08.24-.08.046 0 .08.029.039.022.059.073.02.051.026.146.014.088.014.22 0 .094-.007.167-.007.066-.02.125-.007.05-.033.095-.02.044-.06.088-.033.036-.213.131-.18.088-.465.176-.286.087-.665.153-.372.073-.798.073-.738 0-1.296-.226-.552-.227-.93-.673-.38-.446-.573-1.118-.192-.673-.192-1.565 0-.848.2-1.52.199-.68.57-1.148.38-.475.912-.724.532-.255 1.19-.255.704 0 1.196.248.499.249.818.673.32.416.465.986.153.563.153 1.207zm-1.103-.358q.02-.95-.386-1.492-.399-.54-1.19-.54-.405 0-.711.168-.306.168-.512.446-.206.277-.32.65-.112.366-.125.768zM127.225 17.554q0 .059-.026.103-.027.036-.087.066-.06.029-.166.043-.106.015-.266.015-.166 0-.272-.015-.107-.014-.167-.043-.06-.03-.086-.066-.027-.044-.027-.103v-3.852q0-.563-.08-.906-.08-.344-.232-.592-.153-.249-.399-.38-.24-.132-.558-.132-.413 0-.825.322-.412.321-.864.942v4.598q0 .059-.027.103-.026.036-.086.066-.06.029-.166.043-.107.015-.273.015-.16 0-.266-.015-.106-.014-.173-.043-.06-.03-.086-.066-.02-.044-.02-.103v-6.579q0-.058.02-.095.02-.043.08-.073.06-.036.153-.044.093-.014.246-.014.146 0 .239.014.1.008.153.044.053.03.073.073.027.037.027.095v.87q.505-.621 1.004-.906.505-.292 1.017-.292.598 0 1.004.226.412.22.664.592.253.373.36.877.112.498.112 1.2zM133.523 16.553q0 .124-.007.22-.007.087-.027.153-.013.058-.04.11-.02.043-.106.138-.08.088-.28.227-.199.132-.451.241-.246.103-.539.168-.292.066-.605.066-.645 0-1.143-.234-.499-.234-.838-.68-.332-.453-.512-1.103-.173-.658-.173-1.514 0-.972.213-1.666.22-.702.592-1.148.379-.446.884-.658.512-.22 1.104-.22.285 0 .551.06.273.058.499.153.226.095.399.22.18.123.26.211.079.088.105.139.034.051.054.124.02.066.026.154.007.088.007.22 0 .284-.06.401-.06.11-.146.11-.1 0-.233-.117-.126-.124-.326-.27-.2-.147-.485-.264-.28-.124-.665-.124-.79 0-1.216.672-.42.666-.42 1.938 0 .636.107 1.118.113.475.326.797.213.321.518.482.313.154.712.154.379 0 .665-.132.286-.131.492-.285.212-.16.352-.285.146-.132.226-.132.047 0 .08.03.033.029.053.102.027.066.033.175.014.103.014.249zM136.077 17.554q0 .059-.026.103-.027.036-.087.066-.06.029-.166.043-.106.015-.272.015-.16 0-.266-.015-.107-.014-.173-.043-.06-.03-.087-.066-.02-.044-.02-.103v-6.579q0-.05.02-.095.027-.043.087-.073.066-.029.173-.044.106-.014.266-.014.166 0 .272.014.106.015.166.044.06.03.087.073.026.044.026.095zm.127-8.8q0 .423-.147.577-.146.153-.538.153-.386 0-.532-.146-.14-.153-.14-.57 0-.424.147-.578.146-.153.538-.153.386 0 .525.153.147.147.147.563zM142.62 17.562q0 .088-.054.131-.053.044-.146.066-.093.022-.273.022-.172 0-.279-.022-.1-.022-.146-.066-.047-.043-.047-.131v-.658q-.392.46-.877.716-.479.256-1.017.256-.472 0-.858-.139-.379-.131-.651-.387-.266-.256-.42-.629-.146-.373-.146-.848 0-.555.207-.965.206-.41.591-.68.386-.27.944-.402.559-.139 1.257-.139h.824v-.511q0-.38-.073-.673-.073-.292-.24-.482-.159-.198-.418-.293-.26-.102-.638-.102-.406 0-.732.11-.319.102-.565.234-.24.124-.405.234-.16.102-.24.102-.053 0-.093-.03-.04-.029-.073-.087-.026-.059-.04-.146-.013-.095-.013-.205 0-.183.02-.285.027-.11.113-.205.093-.095.312-.219.22-.132.506-.234.286-.11.625-.175.339-.073.684-.073.645 0 1.097.16.452.161.732.476.279.307.405.767t.126 1.075zm-1.09-3.005h-.938q-.452 0-.785.088-.332.08-.551.249-.22.16-.326.394-.1.227-.1.527 0 .511.293.818.299.3.83.3.433 0 .798-.241.373-.241.778-.738z"/></g><g style="-inkscape-font-specification:Calibri" aria-label="Frecuencia" font-weight="400" font-size="14.277" font-family="Calibri" stroke-width="1.333"><path d="M168.777 8.819q0 .139-.013.241-.013.103-.046.168-.034.059-.08.088-.04.03-.087.03h-3.15v3.216h2.978q.046 0 .086.029.046.022.08.08.033.059.046.161.014.095.014.249 0 .139-.014.241-.013.095-.046.16-.034.06-.08.096-.04.03-.086.03H165.4v3.94q0 .05-.026.102-.027.043-.094.073-.066.022-.172.036-.107.022-.28.022-.16 0-.272-.022-.113-.014-.18-.036-.066-.03-.093-.073-.026-.052-.026-.103V8.79q0-.285.133-.395.14-.117.292-.117h3.87q.046 0 .086.03.046.029.08.094.033.066.046.176.013.102.013.241zM173.877 11.407q0 .16-.007.27-.007.11-.027.176-.02.058-.053.095-.026.029-.08.029-.053 0-.133-.03-.073-.036-.172-.065-.093-.037-.213-.066-.12-.03-.26-.03-.166 0-.325.074-.16.073-.34.241-.172.168-.365.446t-.425.68v4.328q0 .058-.027.102-.027.036-.086.066-.06.029-.167.043-.106.015-.272.015-.16 0-.266-.015-.106-.014-.173-.043-.06-.03-.086-.066-.02-.044-.02-.102v-6.58q0-.058.02-.095.02-.043.08-.073.06-.036.152-.044.093-.014.246-.014.147 0 .24.014.1.008.153.044.053.03.073.073.026.037.026.095v.958q.246-.395.46-.643.218-.249.411-.388.193-.146.38-.197.192-.058.385-.058.086 0 .193.014.113.007.232.037.12.029.213.065.1.037.14.074.04.036.053.073.013.029.02.08.013.051.013.154.007.095.007.263zM180.183 13.98q0 .285-.133.41-.126.116-.293.116h-3.922q0 .548.1.987.1.439.332.753.233.314.605.482.372.169.91.169.426 0 .759-.074.332-.08.572-.175.246-.095.398-.168.16-.08.24-.08.046 0 .08.029.04.022.06.073.02.051.026.146.013.088.013.22 0 .094-.006.167-.007.066-.02.125-.007.05-.034.095-.02.044-.06.088-.033.036-.212.131-.18.088-.466.176-.285.087-.664.153-.373.073-.798.073-.738 0-1.297-.226-.551-.227-.93-.673-.38-.446-.572-1.118-.193-.673-.193-1.565 0-.848.2-1.52.2-.68.571-1.148.38-.475.911-.724.532-.255 1.19-.255.705 0 1.197.248.498.249.818.673.319.416.465.986.153.563.153 1.207zm-1.104-.358q.02-.95-.385-1.492-.4-.54-1.19-.54-.406 0-.712.168-.305.168-.512.446-.206.277-.319.65-.113.366-.126.768zM186.159 16.553q0 .124-.007.22-.006.087-.026.153-.014.058-.04.11-.02.043-.107.138-.08.088-.279.227-.2.132-.452.241-.246.103-.538.168-.293.066-.605.066-.645 0-1.144-.234-.498-.234-.837-.68-.333-.453-.512-1.103-.173-.658-.173-1.514 0-.972.213-1.666.219-.702.591-1.148.38-.446.884-.658.512-.22 1.104-.22.286 0 .552.06.272.058.498.153.226.095.4.22.179.123.259.211.08.088.106.139.033.051.053.124.02.066.027.154.006.088.006.22 0 .284-.06.401-.06.11-.146.11-.1 0-.232-.117-.127-.124-.326-.27-.2-.147-.485-.264-.28-.124-.665-.124-.791 0-1.217.672-.419.666-.419 1.938 0 .636.107 1.118.113.475.325.797.213.321.52.482.312.154.71.154.38 0 .665-.132.286-.131.492-.285.213-.16.353-.285.146-.132.226-.132.046 0 .08.03.033.029.053.102.026.066.033.175.013.103.013.249zM192.743 17.554q0 .059-.027.103-.02.036-.08.066-.06.029-.16.043-.092.015-.232.015-.153 0-.253-.015-.093-.014-.153-.043-.053-.03-.073-.066-.02-.044-.02-.103v-.87q-.512.622-1.01.907-.499.285-1.01.285-.6 0-1.011-.22-.406-.218-.658-.591-.253-.38-.366-.877-.106-.505-.106-1.221v-3.992q0-.058.02-.095.026-.043.093-.073.066-.036.172-.044.107-.014.266-.014.16 0 .266.014.107.008.166.044.067.03.094.073.026.037.026.095v3.83q0 .578.073.93.08.343.233.591.16.242.399.38.24.132.558.132.413 0 .818-.322.412-.321.871-.943v-4.598q0-.058.02-.095.027-.043.093-.073.066-.036.166-.044.107-.014.273-.014.16 0 .266.014.106.008.166.044.06.03.086.073.034.037.034.095zM199.87 13.98q0 .285-.132.41-.127.116-.293.116h-3.922q0 .548.1.987.1.439.332.753.233.314.605.482.372.169.91.169.426 0 .759-.074.332-.08.571-.175.246-.095.4-.168.159-.08.239-.08.046 0 .08.029.04.022.06.073.02.051.026.146.013.088.013.22 0 .094-.007.167-.006.066-.02.125-.006.05-.033.095-.02.044-.06.088-.033.036-.212.131-.18.088-.466.176-.286.087-.665.153-.372.073-.797.073-.738 0-1.297-.226-.551-.227-.93-.673-.38-.446-.572-1.118-.193-.673-.193-1.565 0-.848.2-1.52.199-.68.571-1.148.38-.475.911-.724.532-.255 1.19-.255.705 0 1.197.248.498.249.817.673.32.416.466.986.153.563.153 1.207zm-1.103-.358q.02-.95-.385-1.492-.4-.54-1.19-.54-.406 0-.712.168-.306.168-.512.446-.206.277-.319.65-.113.366-.126.768zM206.698 17.554q0 .059-.027.103-.026.036-.086.066-.06.029-.166.043-.107.015-.266.015-.167 0-.273-.015-.106-.014-.166-.043-.06-.03-.087-.066-.026-.044-.026-.103v-3.852q0-.563-.08-.906-.08-.344-.233-.592-.153-.249-.399-.38-.239-.132-.558-.132-.412 0-.824.322-.413.321-.865.942v4.598q0 .059-.026.103-.027.036-.087.066-.06.029-.166.043-.106.015-.272.015-.16 0-.266-.015-.107-.014-.173-.043-.06-.03-.087-.066-.02-.044-.02-.103v-6.579q0-.058.02-.095.02-.043.08-.073.06-.036.153-.044.093-.014.246-.014.146 0 .24.014.1.008.152.044.054.03.073.073.027.037.027.095v.87q.505-.621 1.004-.906.505-.292 1.017-.292.598 0 1.004.226.412.22.665.592.252.373.359.877.113.498.113 1.2zM212.995 16.553q0 .124-.007.22-.007.087-.026.153-.014.058-.04.11-.02.043-.107.138-.08.088-.279.227-.2.132-.452.241-.246.103-.539.168-.292.066-.604.066-.645 0-1.144-.234-.499-.234-.838-.68-.332-.453-.512-1.103-.172-.658-.172-1.514 0-.972.212-1.666.22-.702.592-1.148.379-.446.884-.658.512-.22 1.104-.22.286 0 .552.06.272.058.498.153.226.095.4.22.179.123.258.211.08.088.107.139.033.051.053.124.02.066.027.154.006.088.006.22 0 .284-.06.401-.06.11-.146.11-.1 0-.232-.117-.127-.124-.326-.27-.2-.147-.486-.264-.279-.124-.664-.124-.791 0-1.217.672-.419.666-.419 1.938 0 .636.107 1.118.113.475.325.797.213.321.519.482.312.154.711.154.38 0 .665-.132.286-.131.492-.285.213-.16.352-.285.147-.132.226-.132.047 0 .08.03.034.029.053.102.027.066.034.175.013.103.013.249zM215.55 17.554q0 .059-.027.103-.027.036-.086.066-.06.029-.167.043-.106.015-.272.015-.16 0-.266-.015-.106-.014-.173-.043-.06-.03-.086-.066-.02-.044-.02-.103v-6.579q0-.05.02-.095.026-.043.086-.073.067-.029.173-.044.106-.014.266-.014.166 0 .272.014.107.015.167.044.06.03.086.073.027.044.027.095zm.126-8.8q0 .423-.146.577-.146.153-.539.153-.385 0-.532-.146-.14-.153-.14-.57 0-.424.147-.578.146-.153.539-.153.385 0 .525.153.146.147.146.563zM222.092 17.562q0 .088-.053.131-.054.044-.147.066-.093.022-.272.022-.173 0-.28-.022-.1-.022-.146-.066-.046-.043-.046-.131v-.658q-.393.46-.878.716-.479.256-1.017.256-.472 0-.858-.139-.379-.131-.651-.387-.266-.256-.419-.629-.146-.373-.146-.848 0-.555.206-.965.206-.41.592-.68.385-.27.944-.402.558-.139 1.256-.139h.824v-.511q0-.38-.073-.673-.073-.292-.239-.482-.16-.198-.419-.293-.26-.102-.638-.102-.406 0-.731.11-.32.102-.565.234-.24.124-.406.234-.16.102-.24.102-.053 0-.092-.03-.04-.029-.074-.087-.026-.059-.04-.146-.013-.095-.013-.205 0-.183.02-.285.027-.11.113-.205.093-.095.313-.219.22-.132.505-.234.286-.11.625-.175.339-.073.685-.073.645 0 1.097.16.452.161.73.476.28.307.406.767.127.46.127 1.075zm-1.09-3.005h-.938q-.452 0-.784.088-.333.08-.552.249-.22.16-.326.394-.1.227-.1.527 0 .511.293.818.299.3.83.3.433 0 .799-.241.372-.241.777-.738z"/></g><g style="-inkscape-font-specification:Calibri" aria-label="Frecuencia" font-weight="400" font-size="14.277" font-family="Calibri" stroke-width="1.333"><path d="M248.287 8.819q0 .139-.013.241-.014.103-.047.168-.033.059-.08.088-.04.03-.086.03h-3.151v3.216h2.978q.047 0 .086.029.047.022.08.08.033.059.047.161.013.095.013.249 0 .139-.013.241-.014.095-.047.16-.033.06-.08.096-.04.03-.086.03h-2.978v3.94q0 .05-.027.102-.027.043-.093.073-.067.022-.173.036-.106.022-.28.022-.159 0-.272-.022-.113-.014-.18-.036-.066-.03-.092-.073-.027-.052-.027-.103V8.79q0-.285.133-.395.14-.117.293-.117h3.869q.046 0 .086.03.047.029.08.094.033.066.047.176.013.102.013.241zM253.386 11.407q0 .16-.007.27-.006.11-.026.176-.02.058-.053.095-.027.029-.08.029-.053 0-.133-.03-.073-.036-.173-.065-.093-.037-.213-.066-.12-.03-.259-.03-.166 0-.326.074-.16.073-.339.241-.173.168-.365.446-.193.278-.426.68v4.328q0 .058-.026.102-.027.036-.087.066-.06.029-.166.043-.106.015-.273.015-.16 0-.266-.015-.106-.014-.172-.043-.06-.03-.087-.066-.02-.044-.02-.102v-6.58q0-.058.02-.095.02-.043.08-.073.06-.036.153-.044.093-.014.246-.014.146 0 .24.014.099.008.152.044.053.03.073.073.027.037.027.095v.958q.246-.395.459-.643.219-.249.412-.388.193-.146.379-.197.193-.058.385-.058.087 0 .193.014.113.007.233.037.12.029.213.065.1.037.14.074.039.036.052.073.014.029.02.08.014.051.014.154.006.095.006.263zM259.692 13.98q0 .285-.133.41-.126.116-.292.116h-3.923q0 .548.1.987.1.439.333.753.232.314.604.482.373.169.911.169.426 0 .758-.074.333-.08.572-.175.246-.095.399-.168.16-.08.24-.08.046 0 .079.029.04.022.06.073.02.051.026.146.014.088.014.22 0 .094-.007.167-.007.066-.02.125-.007.05-.033.095-.02.044-.06.088-.033.036-.213.131-.18.088-.465.176-.286.087-.665.153-.372.073-.798.073-.738 0-1.296-.226-.552-.227-.931-.673-.379-.446-.572-1.118-.193-.673-.193-1.565 0-.848.2-1.52.2-.68.572-1.148.379-.475.91-.724.532-.255 1.19-.255.705 0 1.197.248.499.249.818.673.319.416.465.986.153.563.153 1.207zm-1.103-.358q.02-.95-.386-1.492-.399-.54-1.19-.54-.405 0-.711.168-.306.168-.512.446-.206.277-.32.65-.112.366-.126.768zM265.668 16.553q0 .124-.006.22-.007.087-.027.153-.013.058-.04.11-.02.043-.106.138-.08.088-.28.227-.199.132-.452.241-.245.103-.538.168-.293.066-.605.066-.645 0-1.143-.234-.5-.234-.838-.68-.333-.453-.512-1.103-.173-.658-.173-1.514 0-.972.213-1.666.22-.702.592-1.148.378-.446.884-.658.512-.22 1.103-.22.286 0 .552.06.273.058.499.153.226.095.399.22.18.123.259.211.08.088.106.139.034.051.053.124.02.066.027.154.007.088.007.22 0 .284-.06.401-.06.11-.146.11-.1 0-.233-.117-.126-.124-.326-.27-.2-.147-.485-.264-.28-.124-.665-.124-.791 0-1.216.672-.42.666-.42 1.938 0 .636.107 1.118.113.475.326.797.213.321.518.482.313.154.712.154.379 0 .665-.132.285-.131.492-.285.212-.16.352-.285.146-.132.226-.132.046 0 .08.03.033.029.053.102.027.066.033.175.013.103.013.249zM272.252 17.554q0 .059-.027.103-.02.036-.08.066-.06.029-.159.043-.093.015-.233.015-.153 0-.252-.015-.093-.014-.153-.043-.053-.03-.073-.066-.02-.044-.02-.103v-.87q-.512.622-1.01.907-.5.285-1.011.285-.599 0-1.01-.22-.406-.218-.659-.591-.253-.38-.366-.877-.106-.505-.106-1.221v-3.992q0-.058.02-.095.027-.043.093-.073.066-.036.173-.044.106-.014.266-.014.16 0 .266.014.106.008.166.044.066.03.093.073.027.037.027.095v3.83q0 .578.073.93.08.343.232.591.16.242.4.38.239.132.558.132.412 0 .817-.322.413-.321.871-.943v-4.598q0-.058.02-.095.027-.043.093-.073.067-.036.167-.044.106-.014.272-.014.16 0 .266.014.106.008.166.044.06.03.087.073.033.037.033.095zM279.38 13.98q0 .285-.133.41-.126.116-.292.116h-3.923q0 .548.1.987.1.439.332.753.233.314.605.482.373.169.911.169.426 0 .758-.074.332-.08.572-.175.246-.095.399-.168.16-.08.239-.08.047 0 .08.029.04.022.06.073.02.051.026.146.013.088.013.22 0 .094-.006.167-.007.066-.02.125-.007.05-.033.095-.02.044-.06.088-.034.036-.213.131-.18.088-.465.176-.286.087-.665.153-.372.073-.798.073-.738 0-1.296-.226-.552-.227-.931-.673-.38-.446-.572-1.118-.193-.673-.193-1.565 0-.848.2-1.52.2-.68.572-1.148.378-.475.91-.724.532-.255 1.19-.255.705 0 1.197.248.499.249.818.673.319.416.465.986.153.563.153 1.207zm-1.103-.358q.02-.95-.386-1.492-.399-.54-1.19-.54-.406 0-.711.168-.306.168-.512.446-.206.277-.32.65-.112.366-.126.768zM286.207 17.554q0 .059-.026.103-.027.036-.087.066-.06.029-.166.043-.106.015-.266.015-.166 0-.273-.015-.106-.014-.166-.043-.06-.03-.086-.066-.027-.044-.027-.103v-3.852q0-.563-.08-.906-.08-.344-.232-.592-.153-.249-.4-.38-.239-.132-.558-.132-.412 0-.824.322-.412.321-.864.942v4.598q0 .059-.027.103-.026.036-.086.066-.06.029-.166.043-.107.015-.273.015-.16 0-.266-.015-.106-.014-.173-.043-.06-.03-.086-.066-.02-.044-.02-.103v-6.579q0-.058.02-.095.02-.043.08-.073.06-.036.152-.044.093-.014.246-.014.147 0 .24.014.1.008.153.044.053.03.073.073.026.037.026.095v.87q.506-.621 1.004-.906.505-.292 1.017-.292.599 0 1.004.226.412.22.665.592.253.373.36.877.112.498.112 1.2zM292.504 16.553q0 .124-.006.22-.007.087-.027.153-.013.058-.04.11-.02.043-.106.138-.08.088-.28.227-.199.132-.452.241-.246.103-.538.168-.293.066-.605.066-.645 0-1.144-.234-.498-.234-.837-.68-.333-.453-.512-1.103-.173-.658-.173-1.514 0-.972.213-1.666.22-.702.591-1.148.38-.446.885-.658.512-.22 1.103-.22.286 0 .552.06.273.058.499.153.226.095.399.22.18.123.259.211.08.088.106.139.034.051.053.124.02.066.027.154.007.088.007.22 0 .284-.06.401-.06.11-.146.11-.1 0-.233-.117-.126-.124-.326-.27-.2-.147-.485-.264-.28-.124-.665-.124-.791 0-1.217.672-.418.666-.418 1.938 0 .636.106 1.118.113.475.326.797.213.321.518.482.313.154.712.154.379 0 .665-.132.285-.131.491-.285.213-.16.353-.285.146-.132.226-.132.046 0 .08.03.033.029.053.102.027.066.033.175.013.103.013.249zM295.06 17.554q0 .059-.028.103-.026.036-.086.066-.06.029-.166.043-.106.015-.273.015-.16 0-.266-.015-.106-.014-.172-.043-.06-.03-.087-.066-.02-.044-.02-.103v-6.579q0-.05.02-.095.027-.043.087-.073.066-.029.172-.044.107-.014.266-.014.167 0 .273.014.106.015.166.044.06.03.086.073.027.044.027.095zm.125-8.8q0 .423-.146.577-.146.153-.538.153-.386 0-.532-.146-.14-.153-.14-.57 0-.424.146-.578.147-.153.539-.153.386 0 .525.153.146.147.146.563zM301.601 17.562q0 .088-.053.131-.053.044-.146.066-.093.022-.273.022-.173 0-.28-.022-.099-.022-.145-.066-.047-.043-.047-.131v-.658q-.392.46-.877.716-.48.256-1.018.256-.472 0-.857-.139-.38-.131-.652-.387-.266-.256-.419-.629-.146-.373-.146-.848 0-.555.206-.965.206-.41.592-.68.386-.27.944-.402.558-.139 1.256-.139h.825v-.511q0-.38-.073-.673-.073-.292-.24-.482-.16-.198-.418-.293-.26-.102-.639-.102-.405 0-.731.11-.32.102-.565.234-.24.124-.406.234-.16.102-.239.102-.053 0-.093-.03-.04-.029-.073-.087-.027-.059-.04-.146-.013-.095-.013-.205 0-.183.02-.285.026-.11.113-.205.093-.095.312-.219.22-.132.505-.234.286-.11.625-.175.34-.073.685-.073.645 0 1.097.16.452.161.731.476.28.307.406.767t.126 1.075zm-1.09-3.005h-.938q-.452 0-.784.088-.332.08-.552.249-.22.16-.326.394-.1.227-.1.527 0 .511.293.818.3.3.831.3.432 0 .798-.241.372-.241.778-.738z"/></g><g style="-inkscape-font-specification:Calibri" aria-label="Porcentaje" font-weight="400" font-size="14.277" font-family="Calibri" stroke-width="1.333"><path d="M328.524 11.049q0 .709-.213 1.279t-.612.972q-.392.402-.97.621-.572.22-1.37.22h-.977v3.406q0 .059-.033.103-.027.043-.093.073-.06.022-.173.036-.107.022-.273.022-.166 0-.28-.022-.105-.014-.172-.036-.066-.03-.093-.073-.027-.044-.027-.103V8.82q0-.292.14-.417.14-.124.312-.124h1.842q.28 0 .532.03.26.021.605.109.352.08.711.314.366.227.618.563.253.336.386.782.14.439.14.973zm-1.204.102q0-.578-.199-.965-.193-.387-.485-.577-.286-.19-.599-.242-.306-.05-.598-.05h-1.057v3.793h1.03q.519 0 .858-.146.346-.146.578-.402.233-.263.353-.622.12-.365.12-.79zM335.77 14.192q0 .804-.193 1.484-.192.672-.578 1.162-.379.49-.957.768-.572.27-1.33.27-.738 0-1.29-.241-.545-.241-.91-.702-.366-.46-.546-1.118-.18-.658-.18-1.492 0-.804.187-1.476.193-.68.572-1.17.385-.49.957-.76t1.336-.27q.738 0 1.284.24.551.242.917.703.366.46.545 1.118.186.658.186 1.484zm-1.157.08q0-.533-.093-1.008-.086-.476-.292-.834t-.559-.563q-.352-.212-.877-.212-.485 0-.838.19-.346.19-.572.541-.226.344-.339.819-.106.475-.106 1.038 0 .541.086 1.016.094.475.3.833.212.351.565.563.352.205.877.205.479 0 .831-.19.353-.19.579-.534.226-.343.332-.818.106-.476.106-1.046zM340.946 11.407q0 .16-.007.27-.006.11-.026.176-.02.058-.053.095-.027.029-.08.029-.054 0-.133-.03-.073-.036-.173-.065-.093-.037-.213-.066-.12-.03-.26-.03-.165 0-.325.074-.16.073-.339.241-.173.168-.366.446-.192.278-.425.68v4.328q0 .058-.027.102-.026.036-.086.066-.06.029-.166.043-.107.015-.273.015-.16 0-.266-.015-.106-.014-.173-.043-.06-.03-.086-.066-.02-.044-.02-.102v-6.58q0-.058.02-.095.02-.043.08-.073.06-.036.153-.044.093-.014.246-.014.146 0 .239.014.1.008.153.044.053.03.073.073.027.037.027.095v.958q.246-.395.458-.643.22-.249.413-.388.192-.146.379-.197.192-.058.385-.058.086 0 .193.014.113.007.233.037.12.029.212.065.1.037.14.074.04.036.053.073.013.029.02.08.013.051.013.154.007.095.007.263zM346.502 16.553q0 .124-.006.22-.007.087-.027.153-.013.058-.04.11-.02.043-.106.138-.08.088-.28.227-.199.132-.452.241-.246.103-.538.168-.293.066-.605.066-.645 0-1.144-.234-.498-.234-.837-.68-.333-.453-.512-1.103-.173-.658-.173-1.514 0-.972.213-1.666.22-.702.591-1.148.38-.446.885-.658.512-.22 1.103-.22.286 0 .552.06.273.058.499.153.226.095.399.22.18.123.259.211.08.088.106.139.034.051.053.124.02.066.027.154.007.088.007.22 0 .284-.06.401-.06.11-.146.11-.1 0-.233-.117-.126-.124-.326-.27-.2-.147-.485-.264-.28-.124-.665-.124-.791 0-1.217.672-.418.666-.418 1.938 0 .636.106 1.118.113.475.326.797.213.321.518.482.313.154.712.154.379 0 .664-.132.286-.131.492-.285.213-.16.353-.285.146-.132.226-.132.046 0 .08.03.033.029.053.102.026.066.033.175.013.103.013.249zM353.066 13.98q0 .285-.133.41-.126.116-.293.116h-3.922q0 .548.1.987.1.439.332.753.233.314.605.482.372.169.911.169.425 0 .758-.074.332-.08.572-.175.246-.095.399-.168.16-.08.239-.08.046 0 .08.029.04.022.06.073.02.051.026.146.013.088.013.22 0 .094-.006.167-.007.066-.02.125-.007.05-.033.095-.02.044-.06.088-.034.036-.213.131-.18.088-.465.176-.286.087-.665.153-.372.073-.798.073-.738 0-1.296-.226-.552-.227-.931-.673-.379-.446-.572-1.118-.193-.673-.193-1.565 0-.848.2-1.52.2-.68.572-1.148.378-.475.91-.724.532-.255 1.19-.255.705 0 1.197.248.499.249.818.673.319.416.465.986.153.563.153 1.207zm-1.104-.358q.02-.95-.385-1.492-.4-.54-1.19-.54-.406 0-.712.168-.305.168-.511.446-.207.277-.32.65-.113.366-.126.768zM359.893 17.554q0 .059-.027.103-.026.036-.086.066-.06.029-.166.043-.107.015-.266.015-.166 0-.273-.015-.106-.014-.166-.043-.06-.03-.086-.066-.027-.044-.027-.103v-3.852q0-.563-.08-.906-.08-.344-.232-.592-.153-.249-.4-.38-.239-.132-.558-.132-.412 0-.824.322-.412.321-.864.942v4.598q0 .059-.027.103-.027.036-.086.066-.06.029-.167.043-.106.015-.272.015-.16 0-.266-.015-.106-.014-.173-.043-.06-.03-.086-.066-.02-.044-.02-.103v-6.579q0-.058.02-.095.02-.043.08-.073.06-.036.152-.044.093-.014.246-.014.147 0 .24.014.1.008.152.044.054.03.074.073.026.037.026.095v.87q.505-.621 1.004-.906.505-.292 1.017-.292.599 0 1.004.226.412.22.665.592.253.373.359.877.113.498.113 1.2zM365 17.072q0 .212-.027.336-.026.125-.08.183-.053.059-.159.11-.106.05-.246.08-.133.037-.286.059-.153.022-.306.022-.465 0-.797-.132-.333-.139-.546-.41-.212-.277-.312-.694-.093-.424-.093-.994v-3.845h-.838q-.1 0-.16-.117t-.06-.38q0-.14.014-.234.02-.095.047-.154.026-.065.066-.087.047-.03.1-.03h.83V9.221q0-.051.02-.095.027-.044.087-.073.067-.037.173-.051.106-.015.266-.015.166 0 .273.015.106.014.166.05.06.03.086.074.027.044.027.095v1.564h1.536q.053 0 .093.03.04.022.066.087.033.059.047.154.013.095.013.234 0 .263-.06.38-.06.117-.16.117h-1.535v3.67q0 .68.18 1.03.185.344.657.344.153 0 .273-.03.12-.036.213-.073.093-.036.16-.065.066-.037.119-.037.033 0 .06.022.033.015.046.066.02.051.034.139.013.087.013.219zM370.957 17.562q0 .088-.053.131-.053.044-.146.066-.093.022-.273.022-.173 0-.279-.022-.1-.022-.146-.066-.047-.043-.047-.131v-.658q-.392.46-.877.716-.479.256-1.017.256-.472 0-.858-.139-.379-.131-.652-.387-.265-.256-.418-.629-.147-.373-.147-.848 0-.555.206-.965.207-.41.592-.68.386-.27.944-.402.559-.139 1.257-.139h.824v-.511q0-.38-.073-.673-.073-.292-.24-.482-.159-.198-.418-.293-.26-.102-.638-.102-.406 0-.732.11-.319.102-.565.234-.24.124-.405.234-.16.102-.24.102-.053 0-.093-.03-.04-.029-.073-.087-.027-.059-.04-.146-.013-.095-.013-.205 0-.183.02-.285.026-.11.113-.205.093-.095.312-.219.22-.132.505-.234.286-.11.625-.175.34-.073.685-.073.645 0 1.097.16.452.161.731.476.28.307.406.767t.126 1.075zm-1.09-3.005h-.937q-.452 0-.785.088-.332.08-.552.249-.219.16-.325.394-.1.227-.1.527 0 .511.292.818.3.3.831.3.433 0 .798-.241.373-.241.778-.738zM374.195 17.847q0 .73-.1 1.177-.1.453-.312.76-.213.307-.545.46-.333.161-.805.161-.213 0-.366-.029-.146-.03-.226-.066-.08-.036-.106-.087-.033-.044-.046-.11-.014-.058-.014-.124-.006-.066-.006-.161 0-.132.013-.227.007-.095.033-.153.02-.059.053-.088.027-.022.073-.022.04 0 .153.015.12.022.273.022.22 0 .372-.073.16-.074.26-.242.1-.16.146-.424.046-.263.046-.796v-6.865q0-.05.027-.095.027-.043.086-.073.067-.029.173-.044.107-.014.266-.014.16 0 .266.014.106.015.166.044.067.03.093.073.027.044.027.095zm.126-9.094q0 .424-.146.578-.146.153-.539.153-.385 0-.525-.146-.14-.153-.14-.57 0-.424.14-.578.146-.153.539-.153.392 0 .532.153.14.147.14.563zM381.331 13.98q0 .285-.132.41-.127.116-.293.116h-3.922q0 .548.1.987.099.439.332.753.232.314.605.482.372.169.91.169.426 0 .758-.074.333-.08.572-.175.246-.095.399-.168.16-.08.24-.08.046 0 .08.029.039.022.059.073.02.051.027.146.013.088.013.22 0 .094-.007.167-.007.066-.02.125-.006.05-.033.095-.02.044-.06.088-.033.036-.213.131-.18.088-.465.176-.286.087-.665.153-.372.073-.798.073-.737 0-1.296-.226-.552-.227-.93-.673-.38-.446-.572-1.118-.193-.673-.193-1.565 0-.848.2-1.52.199-.68.571-1.148.379-.475.91-.724.533-.255 1.19-.255.705 0 1.197.248.5.249.818.673.32.416.466.986.152.563.152 1.207zm-1.103-.358q.02-.95-.386-1.492-.399-.54-1.19-.54-.405 0-.711.168-.306.168-.512.446-.206.277-.32.65-.112.366-.125.768z"/></g><g style="-inkscape-font-specification:Calibri" aria-label="Absoluta" font-weight="400" font-size="14.277" font-family="Calibri" stroke-width="1.333"><path d="M91.226 36.656q.054.16.054.263.006.095-.047.146-.053.051-.18.066-.12.014-.325.014-.206 0-.333-.014-.12-.007-.186-.03-.06-.029-.093-.072-.026-.044-.053-.11l-.738-2.303h-3.577l-.704 2.274q-.02.065-.054.117-.033.043-.1.08-.06.03-.179.044-.113.014-.299.014-.193 0-.32-.021-.119-.015-.172-.066-.046-.051-.046-.146.006-.103.06-.264l2.885-8.786q.026-.08.066-.132.047-.051.126-.08.087-.03.213-.037.133-.014.333-.014.212 0 .352.014.14.008.226.037.086.029.133.088.047.05.073.131zM87.523 28.9h-.006l-1.483 4.715h2.992zM98.046 33.542q0 .855-.173 1.542-.166.68-.498 1.162-.326.483-.805.739-.479.256-1.097.256-.286 0-.532-.066-.239-.059-.472-.198-.232-.139-.465-.35-.233-.212-.492-.512v.804q0 .058-.027.102-.026.044-.086.073-.06.022-.153.037-.086.015-.226.015-.133 0-.226-.015t-.153-.037q-.06-.029-.08-.073-.02-.044-.02-.102v-9.766q0-.059.02-.103.027-.043.087-.073.066-.029.173-.044.106-.014.265-.014.167 0 .273.014.106.015.166.044.06.03.087.073.026.044.026.103v3.94q.266-.3.512-.505.253-.204.492-.329.24-.131.479-.19.24-.058.505-.058.652 0 1.11.285.466.285.752.768.292.475.425 1.118.133.643.133 1.36zm-1.157.139q0-.505-.073-.98-.066-.475-.24-.84-.172-.366-.458-.585-.286-.227-.711-.227-.213 0-.42.066-.205.066-.418.219-.213.154-.445.395-.226.241-.486.607v2.624q.452.607.865.928.412.315.857.315.412 0 .705-.22.292-.22.472-.577.186-.366.266-.812.086-.453.086-.913zM103.364 35.128q0 .504-.173.9-.166.394-.479.664-.312.27-.744.41-.432.139-.951.139-.32 0-.612-.059-.285-.051-.518-.132-.226-.087-.386-.175-.16-.095-.232-.168-.074-.073-.107-.205-.033-.131-.033-.358 0-.139.013-.234.014-.095.034-.153.02-.059.053-.08.04-.03.086-.03.073 0 .213.102.146.095.352.212.213.117.499.22.286.095.658.095.28 0 .505-.066.226-.066.393-.19.166-.132.252-.33.093-.197.093-.467 0-.278-.133-.468-.126-.19-.339-.336-.212-.146-.478-.256l-.552-.241q-.28-.124-.552-.278-.266-.16-.479-.387-.212-.227-.345-.541-.127-.315-.127-.753 0-.388.133-.739.14-.358.412-.62.273-.271.679-.432.412-.161.957-.161.24 0 .479.044t.432.11q.192.065.325.146.14.073.207.131.073.059.093.103.026.043.033.102.013.051.02.132.013.08.013.197 0 .124-.013.22-.007.087-.033.145-.02.059-.054.088-.033.022-.073.022-.06 0-.173-.08-.113-.08-.292-.169-.18-.095-.426-.175-.239-.08-.551-.08-.28 0-.492.073-.213.066-.353.197-.133.124-.206.3-.066.175-.066.38 0 .285.133.482.133.19.345.337.213.146.486.263.272.117.551.241.286.124.559.278.28.153.492.373.213.219.339.526.133.307.133.731zM110.496 33.556q0 .804-.193 1.484-.193.673-.578 1.163-.38.49-.958.767-.571.27-1.33.27-.737 0-1.29-.24-.544-.242-.91-.702-.366-.461-.545-1.119-.18-.658-.18-1.491 0-.804.187-1.477.192-.68.571-1.17.386-.49.958-.76.571-.27 1.336-.27.738 0 1.283.241.552.241.918.702.365.46.545 1.118.186.658.186 1.484zm-1.157.08q0-.533-.093-1.008-.086-.475-.293-.833-.206-.359-.558-.563-.352-.212-.878-.212-.485 0-.837.19-.346.19-.572.54-.226.344-.339.82-.106.475-.106 1.037 0 .541.086 1.017.093.475.3.833.212.35.564.563.353.204.878.204.478 0 .83-.19.353-.19.58-.533.225-.344.332-.819.106-.475.106-1.045zM113.272 36.919q0 .058-.027.102-.027.037-.086.066-.06.03-.167.044-.106.015-.272.015-.16 0-.266-.015-.106-.015-.173-.044-.06-.03-.086-.066-.02-.044-.02-.102v-9.766q0-.059.02-.103.026-.043.086-.073.067-.029.173-.044.106-.014.266-.014.166 0 .272.014.107.015.167.044.06.03.086.073.027.044.027.103zM120.432 36.919q0 .058-.027.102-.02.037-.08.066-.06.03-.159.044-.093.015-.233.015-.153 0-.252-.015-.093-.015-.153-.044-.053-.03-.073-.066-.02-.044-.02-.102v-.87q-.512.621-1.01.906-.5.286-1.011.286-.599 0-1.01-.22-.406-.22-.659-.592-.253-.38-.366-.877-.106-.504-.106-1.22V30.34q0-.059.02-.095.027-.044.093-.073.067-.037.173-.044.106-.015.266-.015.16 0 .266.015.106.007.166.044.066.029.093.073.027.036.027.095v3.83q0 .578.073.929.08.343.232.592.16.241.4.38.239.132.558.132.412 0 .818-.322.412-.322.87-.943V30.34q0-.059.02-.095.027-.044.093-.073.067-.037.167-.044.106-.015.272-.015.16 0 .266.015.107.007.166.044.06.029.087.073.033.036.033.095zM125.498 36.436q0 .212-.027.337-.027.124-.08.182-.053.059-.16.11-.106.051-.245.08-.133.037-.286.059-.153.022-.306.022-.465 0-.798-.132-.332-.139-.545-.409-.213-.278-.312-.694-.094-.424-.094-.995v-3.845h-.837q-.1 0-.16-.117t-.06-.38q0-.139.014-.234.02-.095.046-.153.027-.066.067-.088.046-.03.1-.03h.83v-1.564q0-.05.02-.095.027-.043.087-.073.066-.036.173-.05.106-.015.266-.015.166 0 .272.014.107.015.166.051.06.03.087.073.026.044.026.095v1.565h1.536q.053 0 .093.029.04.022.067.088.033.058.046.153.013.095.013.234 0 .263-.06.38-.06.117-.159.117h-1.536v3.67q0 .68.18 1.03.186.344.658.344.153 0 .273-.029.12-.037.212-.073.093-.037.16-.066.066-.036.12-.036.033 0 .06.021.033.015.046.066.02.051.033.14.014.087.014.218zM131.455 36.926q0 .088-.053.132-.054.044-.147.066-.093.021-.272.021-.173 0-.28-.021-.1-.022-.146-.066-.046-.044-.046-.132v-.658q-.393.46-.878.717-.479.256-1.017.256-.472 0-.858-.14-.379-.13-.651-.387-.266-.256-.419-.628-.146-.373-.146-.848 0-.556.206-.965.206-.41.592-.68.385-.27.944-.402.558-.14 1.256-.14h.824v-.51q0-.38-.073-.673-.073-.293-.239-.483-.16-.197-.419-.292-.26-.103-.638-.103-.406 0-.731.11-.32.102-.565.234-.24.124-.406.234-.16.102-.24.102-.053 0-.092-.029-.04-.03-.074-.088-.026-.058-.04-.146-.013-.095-.013-.205 0-.182.02-.285.027-.11.113-.204.093-.095.313-.22.22-.131.505-.234.286-.11.625-.175.339-.073.685-.073.645 0 1.097.16.452.162.73.476.28.307.406.767.127.461.127 1.075zm-1.09-3.004h-.938q-.452 0-.784.088-.333.08-.552.248-.22.16-.326.395-.1.226-.1.526 0 .512.293.819.299.3.83.3.433 0 .799-.242.372-.24.777-.738z"/></g><g style="-inkscape-font-specification:Calibri" aria-label="Relativa" font-weight="400" font-size="14.277" font-family="Calibri" stroke-width="1.333"><path d="M169.994 36.912q0 .058-.02.102-.02.044-.086.073-.067.03-.186.044-.12.015-.32.015-.172 0-.285-.015-.107-.015-.173-.044-.067-.037-.107-.095-.033-.058-.06-.146l-.79-2.23q-.14-.38-.293-.694-.146-.322-.352-.548-.207-.234-.486-.359-.279-.131-.671-.131h-.765v4.028q0 .058-.033.102-.027.044-.093.073-.06.022-.173.037-.106.022-.273.022-.166 0-.279-.022-.106-.015-.173-.037-.066-.03-.093-.073-.026-.044-.026-.102v-8.758q0-.285.133-.395.14-.117.292-.117h1.828q.326 0 .539.022.22.015.392.037.499.095.878.3.385.204.645.519.259.314.385.723.133.402.133.892 0 .475-.12.855-.113.373-.332.666-.22.285-.525.497-.306.212-.685.358.213.102.386.263.173.154.319.373.153.22.286.504.133.285.266.644l.77 2.083q.094.263.12.373.027.102.027.16zm-1.722-6.645q0-.556-.226-.936-.226-.387-.758-.555-.166-.052-.379-.074-.206-.021-.545-.021h-.964v3.187h1.117q.452 0 .778-.117.332-.125.552-.337.22-.219.319-.511.106-.293.106-.636zM176.63 33.344q0 .285-.134.41-.126.117-.292.117h-3.923q0 .548.1.986.1.44.333.753.232.315.605.483.372.168.91.168.426 0 .758-.073.333-.08.572-.176.246-.095.399-.168.16-.08.24-.08.046 0 .079.03.04.021.06.072.02.051.026.146.014.088.014.22 0 .095-.007.168-.007.066-.02.124-.007.051-.033.095-.02.044-.06.088-.033.036-.213.132-.18.087-.465.175-.286.088-.665.153-.372.074-.798.074-.738 0-1.296-.227-.552-.227-.93-.673-.38-.445-.573-1.118-.192-.673-.192-1.564 0-.848.2-1.52.199-.68.57-1.149.38-.475.912-.723.531-.256 1.19-.256.704 0 1.196.248.499.249.818.673.32.417.465.987.153.563.153 1.206zm-1.104-.358q.02-.95-.386-1.491-.399-.541-1.19-.541-.405 0-.711.168-.306.168-.512.446-.206.278-.32.65-.112.366-.126.768zM179.4 36.919q0 .058-.026.102-.026.037-.086.066-.06.03-.166.044-.107.015-.273.015-.16 0-.266-.015-.106-.015-.173-.044-.06-.03-.086-.066-.02-.044-.02-.102v-9.766q0-.059.02-.103.027-.043.086-.073.067-.029.173-.044.107-.014.266-.014.166 0 .273.014.106.015.166.044.06.03.086.073.027.044.027.103zM185.943 36.926q0 .088-.053.132-.053.044-.147.066-.093.021-.272.021-.173 0-.28-.021-.099-.022-.146-.066-.046-.044-.046-.132v-.658q-.392.46-.878.717-.478.256-1.017.256-.472 0-.857-.14-.38-.13-.652-.387-.266-.256-.419-.628-.146-.373-.146-.848 0-.556.206-.965.206-.41.592-.68.385-.27.944-.402.558-.14 1.256-.14h.825v-.51q0-.38-.074-.673-.073-.293-.239-.483-.16-.197-.419-.292-.259-.103-.638-.103-.405 0-.731.11-.32.102-.565.234-.24.124-.406.234-.16.102-.24.102-.052 0-.092-.029-.04-.03-.073-.088-.027-.058-.04-.146-.014-.095-.014-.205 0-.182.02-.285.027-.11.113-.204.094-.095.313-.22.22-.131.505-.234.286-.11.625-.175.34-.073.685-.073.645 0 1.097.16.452.162.731.476.28.307.406.767.126.461.126 1.075zm-1.09-3.004h-.938q-.452 0-.784.088-.333.08-.552.248-.22.16-.326.395-.1.226-.1.526 0 .512.293.819.3.3.831.3.432 0 .798-.242.372-.24.778-.738zM191.069 36.436q0 .212-.027.337-.027.124-.08.182-.053.059-.16.11-.106.051-.245.08-.133.037-.286.059-.153.022-.306.022-.465 0-.798-.132-.332-.139-.545-.409-.213-.278-.312-.694-.094-.424-.094-.995v-3.845h-.837q-.1 0-.16-.117t-.06-.38q0-.139.014-.234.02-.095.046-.153.027-.066.067-.088.046-.03.1-.03h.83v-1.564q0-.05.02-.095.027-.043.087-.073.066-.036.173-.05.106-.015.266-.015.166 0 .272.014.107.015.166.051.06.03.087.073.026.044.026.095v1.565h1.536q.053 0 .093.029.04.022.067.088.033.058.046.153.013.095.013.234 0 .263-.06.38-.06.117-.159.117h-1.536v3.67q0 .68.18 1.03.186.344.658.344.153 0 .273-.029.12-.037.212-.073.093-.037.16-.066.066-.036.12-.036.033 0 .06.021.033.015.046.066.02.051.033.14.013.087.013.218zM193.615 36.919q0 .058-.026.102-.027.037-.087.066-.06.03-.166.044-.106.015-.272.015-.16 0-.266-.015-.107-.015-.173-.044-.06-.03-.087-.066-.02-.044-.02-.102v-6.58q0-.05.02-.094.027-.044.087-.073.066-.03.173-.044.106-.015.266-.015.166 0 .272.015.107.015.166.044.06.029.087.073.026.044.026.095zm.127-8.801q0 .424-.147.577-.146.154-.538.154-.386 0-.532-.147-.14-.153-.14-.57 0-.424.147-.577.146-.154.538-.154.386 0 .525.154.147.146.147.563zM200.556 30.325q0 .03-.006.066 0 .03-.007.066-.007.036-.02.08-.007.044-.02.095l-2.04 6.25q-.028.08-.074.132-.04.051-.126.08-.087.03-.22.037-.133.014-.332.014-.2 0-.333-.014-.133-.015-.219-.044-.08-.03-.126-.08-.047-.052-.073-.125l-2.035-6.25-.046-.153-.02-.095v-.059q0-.058.026-.102.027-.044.087-.066.066-.03.166-.036.106-.008.26-.008.192 0 .305.015.12.007.18.036.066.03.093.073.033.044.06.11l1.688 5.424.027.088.02-.088 1.668-5.424q.014-.066.047-.11.033-.043.093-.073.066-.029.173-.036.113-.015.292-.015.153 0 .253.008.1.007.153.036.06.03.08.073.026.037.026.095zM206.366 36.926q0 .088-.053.132-.053.044-.146.066-.094.021-.273.021-.173 0-.28-.021-.099-.022-.146-.066-.046-.044-.046-.132v-.658q-.392.46-.878.717-.478.256-1.017.256-.472 0-.857-.14-.38-.13-.652-.387-.266-.256-.419-.628-.146-.373-.146-.848 0-.556.206-.965.206-.41.592-.68.385-.27.944-.402.558-.14 1.256-.14h.825v-.51q0-.38-.073-.673-.074-.293-.24-.483-.16-.197-.419-.292-.259-.103-.638-.103-.405 0-.731.11-.32.102-.565.234-.24.124-.406.234-.16.102-.24.102-.052 0-.092-.029-.04-.03-.073-.088-.027-.058-.04-.146-.014-.095-.014-.205 0-.182.02-.285.027-.11.113-.204.093-.095.313-.22.22-.131.505-.234.286-.11.625-.175.34-.073.685-.073.645 0 1.097.16.452.162.731.476.28.307.406.767.126.461.126 1.075zm-1.09-3.004h-.938q-.452 0-.784.088-.333.08-.552.248-.22.16-.326.395-.1.226-.1.526 0 .512.293.819.3.3.831.3.432 0 .798-.242.372-.24.778-.738z"/></g><g style="-inkscape-font-specification:Calibri" aria-label="Acumulada" font-weight="400" font-size="14.277" font-family="Calibri" stroke-width="1.333"><path d="M250.208 36.656q.053.16.053.263.007.095-.046.146-.053.051-.18.066-.12.014-.325.014-.206 0-.333-.014-.12-.007-.186-.03-.06-.029-.093-.072-.027-.044-.053-.11l-.738-2.303h-3.577l-.705 2.274q-.02.065-.053.117-.033.043-.1.08-.06.03-.18.044-.112.014-.298.014-.193 0-.32-.021-.119-.015-.172-.066-.047-.051-.047-.146.007-.103.06-.264l2.885-8.786q.027-.08.067-.132.046-.051.126-.08.087-.03.213-.037.133-.014.332-.014.213 0 .353.014.14.008.226.037.086.029.133.088.046.05.073.131zm-3.703-7.756h-.007l-1.482 4.715h2.992zM255.824 35.917q0 .125-.006.22-.007.087-.027.153-.013.059-.04.11-.02.044-.106.139-.08.087-.28.226-.199.132-.451.242-.246.102-.539.168-.292.066-.605.066-.645 0-1.143-.234-.499-.234-.838-.68-.332-.453-.512-1.104-.173-.658-.173-1.513 0-.972.213-1.667.22-.702.592-1.148.379-.445.884-.657.512-.22 1.103-.22.286 0 .552.059.273.058.499.153.226.095.399.22.18.124.259.212.08.087.106.138.034.052.054.125.02.065.026.153.007.088.007.22 0 .285-.06.402-.06.11-.146.11-.1 0-.233-.118-.126-.124-.326-.27-.2-.146-.485-.263-.28-.125-.665-.125-.79 0-1.216.673-.42.665-.42 1.937 0 .636.107 1.118.113.476.326.797.213.322.518.483.313.153.712.153.379 0 .665-.131.285-.132.492-.285.212-.161.352-.286.146-.131.226-.131.047 0 .08.03.033.028.053.101.027.066.033.176.014.102.014.248zM262.408 36.919q0 .058-.027.102-.02.037-.08.066-.06.03-.159.044-.093.015-.233.015-.152 0-.252-.015-.093-.015-.153-.044-.053-.03-.073-.066-.02-.044-.02-.102v-.87q-.512.621-1.01.906-.5.286-1.011.286-.599 0-1.01-.22-.406-.22-.659-.592-.253-.38-.366-.877-.106-.504-.106-1.22V30.34q0-.059.02-.095.027-.044.093-.073.067-.037.173-.044.106-.015.266-.015.16 0 .266.015.106.007.166.044.066.029.093.073.027.036.027.095v3.83q0 .578.073.929.08.343.233.592.16.241.398.38.24.132.559.132.412 0 .818-.322.412-.322.87-.943V30.34q0-.059.02-.095.027-.044.093-.073.067-.037.167-.044.106-.015.272-.015.16 0 .266.015.107.007.166.044.06.029.087.073.033.036.033.095zM273.238 36.919q0 .058-.027.102-.027.037-.086.066-.06.03-.167.044-.106.015-.265.015-.167 0-.273-.015-.106-.015-.173-.044-.06-.03-.086-.066-.027-.044-.027-.102V32.92q0-.416-.066-.76-.067-.343-.213-.592-.146-.249-.372-.38-.226-.132-.532-.132-.38 0-.765.322-.379.322-.837.943v4.598q0 .058-.027.102-.027.037-.093.066-.06.03-.166.044-.107.015-.266.015-.153 0-.266-.015-.107-.015-.173-.044-.06-.03-.086-.066-.02-.044-.02-.102V32.92q0-.416-.074-.76-.073-.343-.219-.592-.146-.249-.372-.38-.22-.132-.525-.132-.38 0-.765.322-.386.322-.838.943v4.598q0 .058-.026.102-.027.037-.087.066-.06.03-.166.044-.106.015-.272.015-.16 0-.266-.015-.107-.015-.173-.044-.06-.03-.087-.066-.02-.044-.02-.102v-6.58q0-.058.02-.094.02-.044.08-.073.06-.037.153-.044.093-.015.246-.015.146 0 .24.015.1.007.152.044.054.029.074.073.026.036.026.095v.87q.505-.622.977-.907.48-.292.964-.292.373 0 .665.095.3.095.525.27.226.169.386.41.16.234.266.526.3-.358.565-.607.273-.248.519-.402.252-.153.485-.219.24-.073.479-.073.578 0 .97.227.392.219.632.592.246.372.345.877.107.497.107 1.053zM280.421 36.919q0 .058-.026.102-.02.037-.08.066-.06.03-.16.044-.093.015-.232.015-.153 0-.253-.015-.093-.015-.153-.044-.053-.03-.073-.066-.02-.044-.02-.102v-.87q-.512.621-1.01.906-.5.286-1.011.286-.598 0-1.01-.22-.406-.22-.659-.592-.252-.38-.365-.877-.107-.504-.107-1.22V30.34q0-.059.02-.095.027-.044.093-.073.067-.037.173-.044.106-.015.266-.015.16 0 .266.015.106.007.166.044.067.029.093.073.027.036.027.095v3.83q0 .578.073.929.08.343.233.592.16.241.399.38.239.132.558.132.412 0 .818-.322.412-.322.87-.943V30.34q0-.059.02-.095.027-.044.094-.073.066-.037.166-.044.106-.015.272-.015.16 0 .266.015.107.007.167.044.06.029.086.073.033.036.033.095zM283.5 36.919q0 .058-.027.102-.026.037-.086.066-.06.03-.166.044-.107.015-.273.015-.16 0-.266-.015-.106-.015-.173-.044-.06-.03-.086-.066-.02-.044-.02-.102v-9.766q0-.059.02-.103.026-.043.086-.073.067-.029.173-.044.106-.014.266-.014.166 0 .273.014.106.015.166.044.06.03.086.073.027.044.027.103zM290.042 36.926q0 .088-.053.132-.054.044-.147.066-.093.021-.272.021-.173 0-.28-.021-.1-.022-.146-.066-.046-.044-.046-.132v-.658q-.393.46-.878.717-.479.256-1.017.256-.472 0-.858-.14-.379-.13-.651-.387-.266-.256-.419-.628-.146-.373-.146-.848 0-.556.206-.965.206-.41.591-.68.386-.27.945-.402.558-.14 1.256-.14h.824v-.51q0-.38-.073-.673-.073-.293-.24-.483-.159-.197-.418-.292-.26-.103-.638-.103-.406 0-.731.11-.32.102-.566.234-.239.124-.405.234-.16.102-.24.102-.053 0-.092-.029-.04-.03-.074-.088-.026-.058-.04-.146-.013-.095-.013-.205 0-.182.02-.285.027-.11.113-.204.093-.095.313-.22.219-.131.505-.234.286-.11.625-.175.339-.073.685-.073.644 0 1.096.16.453.162.732.476.279.307.405.767.127.461.127 1.075zm-1.09-3.004h-.938q-.452 0-.784.088-.333.08-.552.248-.22.16-.326.395-.1.226-.1.526 0 .512.293.819.299.3.83.3.433 0 .799-.242.372-.24.777-.738zM297.182 36.919q0 .058-.027.102-.02.044-.08.073-.053.022-.146.037t-.226.015q-.14 0-.233-.015t-.152-.037q-.06-.029-.087-.073-.026-.044-.026-.102v-.87q-.473.563-.984.877-.506.315-1.11.315-.659 0-1.124-.278-.466-.285-.758-.76-.286-.483-.419-1.126-.133-.65-.133-1.367 0-.848.166-1.528.167-.687.492-1.17.326-.482.805-.738.485-.263 1.117-.263.525 0 .957.256.439.248.864.738v-3.823q0-.051.02-.095.027-.051.093-.073.067-.03.166-.044.107-.022.266-.022.167 0 .273.022.106.015.166.044.06.022.087.073.033.044.033.095zm-1.104-4.627q-.445-.607-.864-.921-.412-.322-.864-.322-.42 0-.712.22-.292.219-.478.577-.18.358-.266.811-.08.453-.08.921 0 .497.066.972.073.476.246.848.173.366.459.593.286.219.718.219.22 0 .419-.066.206-.066.419-.22.212-.153.445-.394.233-.249.492-.607zM303.63 36.926q0 .088-.053.132-.054.044-.147.066-.093.021-.272.021-.173 0-.28-.021-.1-.022-.146-.066-.046-.044-.046-.132v-.658q-.392.46-.878.717-.478.256-1.017.256-.472 0-.858-.14-.378-.13-.651-.387-.266-.256-.419-.628-.146-.373-.146-.848 0-.556.206-.965.206-.41.592-.68.385-.27.944-.402.558-.14 1.256-.14h.825v-.51q0-.38-.074-.673-.073-.293-.239-.483-.16-.197-.419-.292-.26-.103-.638-.103-.406 0-.731.11-.32.102-.565.234-.24.124-.406.234-.16.102-.24.102-.052 0-.092-.029-.04-.03-.073-.088-.027-.058-.04-.146-.014-.095-.014-.205 0-.182.02-.285.027-.11.113-.204.093-.095.313-.22.22-.131.505-.234.286-.11.625-.175.34-.073.685-.073.645 0 1.097.16.452.162.731.476.28.307.406.767.126.461.126 1.075zm-1.09-3.004h-.938q-.452 0-.784.088-.333.08-.552.248-.22.16-.326.395-.1.226-.1.526 0 .512.293.819.3.3.83.3.433 0 .799-.242.372-.24.778-.738z"/></g><g style="-inkscape-font-specification:Calibri" aria-label="18" font-weight="400" font-size="14.277" font-family="Calibri" stroke-width="1.333"><path d="M41.267 58.6q0 .139-.02.234t-.053.153q-.034.059-.08.088-.04.022-.086.022h-4.495q-.046 0-.086-.022-.04-.03-.08-.088-.033-.058-.053-.153-.02-.095-.02-.234 0-.132.02-.227t.046-.153q.034-.066.074-.095.046-.037.1-.037h1.794v-7.193l-1.662 1.09q-.126.072-.206.087-.073.015-.12-.03-.046-.05-.066-.16-.013-.11-.013-.278 0-.124.006-.212.014-.088.034-.146.02-.059.053-.102.04-.044.1-.088l1.98-1.396q.027-.022.067-.037.04-.015.1-.03.06-.014.14-.014.08-.007.199-.007.16 0 .266.015.106.014.166.043.06.022.08.066.02.037.02.08v8.312h1.556q.053 0 .1.037.046.029.072.095.034.058.047.153.02.095.02.227zM48.402 56.67q0 .614-.2 1.096-.199.476-.578.805-.372.329-.924.497-.552.168-1.263.168-.665 0-1.19-.154-.525-.153-.89-.453-.367-.3-.56-.738-.192-.439-.192-1.002 0-.446.133-.818.133-.373.379-.688.252-.314.618-.584.366-.278.824-.527-.398-.226-.704-.475-.306-.256-.519-.548-.213-.3-.326-.636-.106-.336-.106-.731 0-.497.16-.928.166-.44.492-.76.332-.322.837-.505.512-.19 1.19-.19.652 0 1.124.175.478.168.784.468.313.293.459.695.146.402.146.862 0 .373-.113.717-.106.343-.319.65-.213.307-.525.578-.306.263-.705.497.472.256.838.526.372.27.618.585.253.307.38.658.132.343.132.76zm-1.436-4.854q0-.307-.1-.555-.093-.249-.279-.424-.186-.176-.465-.264-.273-.095-.625-.095-.718 0-1.09.359-.366.358-.366.98 0 .284.086.533.093.241.28.46.192.22.478.432.293.204.692.43.671-.38 1.03-.84.359-.46.359-1.016zm.28 4.986q0-.337-.114-.607-.113-.278-.345-.512-.227-.241-.572-.46-.34-.227-.791-.468-.42.226-.738.453-.313.227-.519.468-.2.241-.306.511-.1.264-.1.585 0 .71.44 1.097.445.387 1.322.387.851 0 1.283-.387.44-.395.44-1.067z"/></g><path d="M157.784 56.034q0 .621-.173 1.206-.173.578-.532 1.024-.359.438-.91.709-.552.263-1.303.263-.539 0-.951-.146-.412-.147-.718-.417t-.512-.665q-.2-.395-.326-.9-.12-.504-.173-1.103-.053-.6-.053-1.287 0-.607.06-1.228t.213-1.199q.153-.577.412-1.082.266-.511.658-.884.399-.38.95-.6.552-.219 1.284-.219.246 0 .498.037.253.029.466.087.212.052.359.117.146.066.193.11.046.037.066.088.027.044.04.102.013.051.02.124.006.066.006.169 0 .131-.006.226 0 .095-.027.154-.02.058-.06.087-.033.03-.093.03-.073 0-.2-.052-.125-.05-.305-.11-.18-.065-.439-.116-.252-.051-.591-.051-.619 0-1.064.277-.446.278-.731.746-.28.468-.42 1.09-.132.613-.152 1.286.173-.11.385-.22.22-.11.472-.197.26-.088.546-.139.285-.058.611-.058.698 0 1.177.212.479.204.771.577.3.366.426.87.126.497.126 1.082zm-1.157.117q0-.424-.08-.768-.073-.35-.252-.592-.18-.24-.479-.373-.299-.131-.738-.131-.246 0-.492.051-.246.044-.478.132-.226.08-.44.197-.205.11-.378.241 0 .943.106 1.58.113.635.32 1.023.212.38.525.548.312.16.73.16.426 0 .739-.175.312-.175.518-.468.206-.3.3-.665.1-.373.1-.76z" style="stroke-width:1.33333" aria-label="6" font-weight="400" font-size="14.277" font-family="Calibri" stroke-width="1.333"/><g style="-inkscape-font-specification:Calibri" aria-label="0,1200" font-weight="400" font-size="14.277" font-family="Calibri" stroke-width="1.333"><path d="M206.133 54.345q0 1.09-.16 1.989-.152.899-.518 1.55-.359.643-.944 1-.585.352-1.443.352-.81 0-1.37-.315-.55-.321-.89-.935-.339-.622-.485-1.52-.14-.907-.14-2.077 0-1.082.16-1.98.16-.907.518-1.55.36-.651.944-1.002.585-.358 1.436-.358.818 0 1.37.321.558.315.897.936.34.614.479 1.52.146.9.146 2.07zm-1.17.088q0-.709-.046-1.272-.047-.563-.14-.994-.086-.431-.233-.738-.14-.315-.339-.512-.2-.205-.458-.292-.253-.095-.572-.095-.565 0-.918.292-.352.292-.558.804-.2.512-.273 1.199-.073.687-.073 1.477 0 1.06.1 1.805.1.738.312 1.206.22.468.552.68.34.212.818.212.372 0 .651-.132.286-.131.486-.372.206-.249.339-.592.133-.344.213-.76.08-.417.106-.9.033-.49.033-1.016zM209.115 58.052q0 .226-.02.416-.02.19-.067.358-.046.169-.126.33-.073.167-.186.35l-.91 1.506q-.034.051-.08.088-.04.036-.107.066-.06.029-.146.036-.08.015-.206.015-.113 0-.193-.015-.073-.007-.107-.036-.033-.022-.04-.066 0-.044.027-.103l.884-2.01v-.935q0-.198.034-.315.04-.117.12-.175.08-.059.199-.08.12-.023.292-.023.167 0 .286.022.12.022.193.08.08.06.113.176.04.117.04.315zM216.215 58.6q0 .139-.02.234t-.053.153q-.033.059-.08.088-.04.022-.086.022h-4.494q-.047 0-.087-.022-.04-.03-.08-.088-.033-.058-.053-.153-.02-.095-.02-.234 0-.132.02-.227t.047-.153q.033-.066.073-.095.046-.037.1-.037h1.795v-7.193l-1.662 1.09q-.127.072-.207.087-.073.015-.12-.03-.046-.05-.066-.16-.013-.11-.013-.278 0-.124.007-.212.013-.088.033-.146.02-.059.053-.102.04-.044.1-.088l1.981-1.396q.027-.022.067-.037.04-.015.1-.03.06-.014.139-.014.08-.007.2-.007.159 0 .265.015.107.014.166.043.06.022.08.066.02.037.02.08v8.312h1.556q.053 0 .1.037.046.029.073.095.033.058.046.153.02.095.02.227zM223.139 58.556q0 .132-.02.234-.013.102-.046.175-.027.066-.08.103-.047.029-.107.029h-4.753q-.093 0-.166-.022-.067-.03-.12-.088-.047-.058-.073-.168-.02-.11-.02-.27 0-.147.007-.256.013-.11.046-.19.033-.088.08-.168.053-.088.133-.183l1.669-1.945q.578-.672.924-1.206.352-.533.538-.972.193-.439.253-.797.06-.358.06-.672 0-.315-.093-.592-.094-.286-.273-.498-.173-.212-.439-.336-.266-.124-.611-.124-.406 0-.732.124-.319.124-.565.27-.24.147-.405.271-.16.124-.24.124-.046 0-.086-.029-.033-.029-.06-.095-.02-.066-.033-.175-.013-.11-.013-.263 0-.11.006-.19.007-.08.02-.14.02-.058.047-.109.026-.051.106-.124.08-.08.273-.212.2-.132.492-.256.299-.132.651-.22.36-.087.751-.087.625 0 1.09.197.473.19.779.527.312.336.465.782.153.446.153.95 0 .453-.073.906-.073.446-.313.973-.232.519-.678 1.162-.445.636-1.183 1.47l-1.363 1.564h3.743q.053 0 .1.036.053.03.086.095.04.066.053.168.02.095.02.227zM230.369 54.345q0 1.09-.16 1.989-.153.899-.518 1.55-.36.643-.944 1-.586.352-1.443.352-.811 0-1.37-.315-.551-.321-.89-.935-.34-.622-.486-1.52-.14-.907-.14-2.077 0-1.082.16-1.98.16-.907.519-1.55.359-.651.944-1.002.585-.358 1.436-.358.817 0 1.37.321.558.315.897.936.339.614.478 1.52.147.9.147 2.07zm-1.17.088q0-.709-.047-1.272-.046-.563-.14-.994-.086-.431-.232-.738-.14-.315-.34-.512-.199-.205-.458-.292-.253-.095-.572-.095-.565 0-.917.292-.353.292-.559.804-.2.512-.272 1.199-.073.687-.073 1.477 0 1.06.1 1.805.1.738.312 1.206.22.468.552.68.339.212.817.212.373 0 .652-.132.286-.131.485-.372.206-.249.34-.592.132-.344.212-.76.08-.417.106-.9.034-.49.034-1.016zM237.313 54.345q0 1.09-.16 1.989-.153.899-.519 1.55-.359.643-.944 1-.585.352-1.442.352-.811 0-1.37-.315-.552-.321-.89-.935-.34-.622-.486-1.52-.14-.907-.14-2.077 0-1.082.16-1.98.16-.907.519-1.55.359-.651.944-1.002.585-.358 1.436-.358.817 0 1.37.321.558.315.897.936.339.614.478 1.52.147.9.147 2.07zm-1.17.088q0-.709-.047-1.272-.047-.563-.14-.994-.086-.431-.232-.738-.14-.315-.34-.512-.199-.205-.458-.292-.253-.095-.572-.095-.565 0-.917.292-.353.292-.559.804-.2.512-.272 1.199-.074.687-.074 1.477 0 1.06.1 1.805.1.738.313 1.206.22.468.551.68.34.212.818.212.372 0 .652-.132.286-.131.485-.372.206-.249.34-.592.132-.344.212-.76.08-.417.106-.9.033-.49.033-1.016z"/></g><g style="-inkscape-font-specification:Calibri" aria-label="19" font-weight="400" font-size="14.277" font-family="Calibri" stroke-width="1.333"><path d="M41.267 78.29q0 .139-.02.234t-.053.153q-.034.059-.08.088-.04.022-.086.022h-4.495q-.046 0-.086-.022-.04-.03-.08-.088-.033-.058-.053-.153-.02-.095-.02-.234 0-.132.02-.227t.046-.153q.034-.066.074-.095.046-.037.1-.037h1.794v-7.193l-1.662 1.09q-.126.072-.206.087-.073.014-.12-.03-.046-.05-.066-.16-.013-.11-.013-.278 0-.124.006-.212.014-.088.034-.146.02-.059.053-.103.04-.043.1-.087l1.98-1.396q.027-.022.067-.037.04-.015.1-.03.06-.014.14-.014.08-.007.199-.007.16 0 .266.014.106.015.166.044.06.022.08.066.02.037.02.08v8.312h1.556q.053 0 .1.037.046.029.072.095.034.058.047.153.02.095.02.227zM48.27 73.684q0 .614-.067 1.243-.067.629-.226 1.214-.16.577-.433 1.089-.265.504-.678.884-.405.38-.97.6-.559.212-1.303.212-.286 0-.559-.044-.266-.037-.485-.095-.213-.059-.36-.124-.145-.066-.212-.132-.066-.066-.1-.175-.026-.117-.026-.308 0-.16.007-.255.013-.095.033-.147.02-.05.053-.065.04-.022.093-.022.073 0 .206.058.133.051.333.117.206.066.478.124.273.052.612.052.645 0 1.103-.27.466-.279.758-.74.293-.46.44-1.066.145-.607.159-1.28-.353.227-.845.402-.492.176-1.13.176-.718 0-1.21-.212-.485-.22-.784-.592-.293-.373-.426-.885-.126-.512-.126-1.118 0-.629.166-1.192.166-.57.519-1.001.352-.432.897-.687.545-.256 1.303-.256.539 0 .95.153.42.146.726.432.305.277.518.68.213.394.34.899.132.504.185 1.096.06.585.06 1.235zm-1.164-.138q0-.936-.113-1.572-.113-.643-.333-1.038-.22-.395-.538-.57-.32-.176-.738-.176-.432 0-.738.176-.306.168-.505.46-.193.285-.286.65-.093.366-.093.754 0 .431.08.79.086.357.272.606.186.248.485.387.3.132.738.132.499 0 .964-.16.466-.169.805-.44z"/></g><g style="-inkscape-font-specification:Calibri" aria-label="14" font-weight="400" font-size="14.277" font-family="Calibri" stroke-width="1.333"><path d="M150.629 78.29q0 .139-.02.234t-.053.153q-.033.059-.08.088-.04.022-.086.022h-4.494q-.047 0-.087-.022-.04-.03-.08-.088-.033-.058-.053-.153-.02-.095-.02-.234 0-.132.02-.227t.047-.153q.033-.066.073-.095.046-.037.1-.037h1.795v-7.193l-1.663 1.09q-.126.072-.206.087-.073.014-.12-.03-.046-.05-.066-.16-.013-.11-.013-.278 0-.124.007-.212.013-.088.033-.146.02-.059.053-.103.04-.043.1-.087l1.981-1.396q.027-.022.067-.037.04-.015.1-.03.059-.014.139-.014.08-.007.2-.007.159 0 .265.014.107.015.166.044.06.022.08.066.02.037.02.08v8.312h1.556q.053 0 .1.037.046.029.073.095.033.058.046.153.02.095.02.227zM157.93 76.097q0 .24-.066.38-.067.139-.186.139h-.971v1.988q0 .059-.027.102-.026.037-.093.066-.066.03-.172.044-.107.015-.273.015-.16 0-.266-.015-.106-.015-.173-.044-.06-.03-.086-.066-.02-.043-.02-.102v-1.988h-3.55q-.08 0-.133-.022-.053-.022-.1-.08-.04-.06-.06-.169-.013-.11-.013-.285 0-.139.007-.248.006-.11.026-.198.02-.095.053-.175.034-.088.08-.183l3.098-5.746q.034-.058.093-.102.067-.044.167-.073.1-.03.246-.037.146-.014.345-.014.22 0 .38.022.165.014.265.044.1.029.153.08.053.044.053.11v6.038h.97q.114 0 .18.131.074.125.074.388zm-2.333-5.71h-.013l-2.8 5.19h2.813z"/></g><g style="-inkscape-font-specification:Calibri" aria-label="0,2800" font-weight="400" font-size="14.277" font-family="Calibri" stroke-width="1.333"><path d="M206.133 74.035q0 1.09-.16 1.989-.152.899-.518 1.55-.359.643-.944 1-.585.352-1.443.352-.81 0-1.37-.315-.55-.321-.89-.935-.339-.622-.485-1.52-.14-.907-.14-2.077 0-1.082.16-1.98.16-.907.518-1.55.36-.651.944-1.002.585-.358 1.436-.358.818 0 1.37.321.558.315.897.936.34.614.479 1.52.146.9.146 2.07zm-1.17.088q0-.71-.046-1.272-.047-.563-.14-.994-.086-.431-.233-.738-.14-.315-.339-.512-.2-.205-.458-.293-.253-.095-.572-.095-.565 0-.918.293-.352.292-.558.804-.2.512-.273 1.199-.073.687-.073 1.476 0 1.06.1 1.806.1.738.312 1.206.22.468.552.68.34.212.818.212.372 0 .651-.132.286-.131.486-.372.206-.249.339-.593.133-.343.213-.76.08-.416.106-.899.033-.49.033-1.016zM209.115 77.741q0 .227-.02.417-.02.19-.067.358-.046.168-.126.33-.073.167-.186.35l-.91 1.506q-.034.051-.08.088-.04.036-.107.066-.06.029-.146.036-.08.015-.206.015-.113 0-.193-.015-.073-.007-.107-.036-.033-.022-.04-.066 0-.044.027-.103l.884-2.01v-.936q0-.197.034-.314.04-.117.12-.175.08-.059.199-.08.12-.023.292-.023.167 0 .286.022.12.022.193.08.08.06.113.176.04.117.04.314zM216.195 78.246q0 .131-.02.234-.013.102-.046.175-.027.066-.08.103-.047.029-.107.029h-4.753q-.093 0-.166-.022-.067-.03-.12-.088-.046-.058-.073-.168-.02-.11-.02-.27 0-.147.007-.256.013-.11.046-.19.034-.088.08-.168.053-.088.133-.183l1.669-1.945q.578-.672.924-1.206.352-.533.538-.972.193-.439.253-.797.06-.358.06-.672 0-.315-.093-.593-.093-.285-.273-.497-.173-.212-.439-.336-.266-.124-.611-.124-.406 0-.732.124-.319.124-.565.27-.239.147-.405.271-.16.124-.24.124-.046 0-.086-.029-.033-.03-.06-.095-.02-.066-.033-.175-.013-.11-.013-.264 0-.11.006-.19.007-.08.02-.138.02-.059.047-.11.026-.051.106-.124.08-.08.273-.212.2-.132.492-.256.299-.132.651-.22.36-.087.752-.087.624 0 1.09.197.472.19.778.526.312.337.465.783.153.446.153.95 0 .453-.073.906-.073.446-.313.973-.232.519-.678 1.162-.445.636-1.183 1.47l-1.363 1.564h3.743q.053 0 .1.036.053.03.086.095.04.066.053.168.02.095.02.227zM223.338 76.36q0 .614-.199 1.096-.2.476-.578.804-.373.33-.924.498-.552.168-1.264.168-.664 0-1.19-.154-.525-.153-.89-.453-.366-.3-.559-.738-.193-.439-.193-1.002 0-.446.133-.819.133-.372.38-.687.252-.314.617-.584.366-.278.825-.527-.4-.226-.705-.475-.306-.256-.518-.548-.213-.3-.326-.636-.107-.336-.107-.731 0-.497.16-.929.166-.438.492-.76.332-.321.838-.504.512-.19 1.19-.19.651 0 1.123.175.479.168.785.468.312.292.458.694.147.403.147.863 0 .373-.113.716-.107.344-.32.651-.212.307-.525.578-.306.263-.704.497.472.255.837.526.373.27.619.585.252.307.378.658.133.343.133.76zm-1.436-4.854q0-.307-.1-.556-.092-.248-.279-.424-.186-.175-.465-.263-.272-.095-.625-.095-.718 0-1.09.358-.366.359-.366.98 0 .285.087.534.093.24.279.46.193.22.479.431.292.205.69.432.672-.38 1.031-.84.36-.461.36-1.017zm.28 4.985q0-.336-.113-.606-.113-.278-.346-.512-.226-.241-.572-.46-.339-.227-.79-.468-.42.226-.739.453-.312.226-.518.468-.2.24-.306.511-.1.264-.1.585 0 .71.439 1.097.445.387 1.323.387.85 0 1.283-.387.439-.395.439-1.068zM230.369 74.035q0 1.09-.16 1.989-.153.899-.518 1.55-.36.643-.944 1-.586.352-1.443.352-.811 0-1.37-.315-.551-.321-.89-.935-.34-.622-.486-1.52-.14-.907-.14-2.077 0-1.082.16-1.98.16-.907.519-1.55.359-.651.944-1.002.585-.358 1.436-.358.817 0 1.37.321.558.315.897.936.339.614.478 1.52.147.9.147 2.07zm-1.17.088q0-.71-.047-1.272-.046-.563-.14-.994-.086-.431-.232-.738-.14-.315-.34-.512-.199-.205-.458-.293-.253-.095-.572-.095-.565 0-.917.293-.353.292-.559.804-.2.512-.272 1.199-.073.687-.073 1.476 0 1.06.1 1.806.1.738.312 1.206.22.468.552.68.339.212.817.212.373 0 .652-.132.286-.131.485-.372.206-.249.34-.593.132-.343.212-.76.08-.416.106-.899.034-.49.034-1.016zM237.313 74.035q0 1.09-.16 1.989-.153.899-.519 1.55-.359.643-.944 1-.585.352-1.442.352-.811 0-1.37-.315-.552-.321-.89-.935-.34-.622-.486-1.52-.14-.907-.14-2.077 0-1.082.16-1.98.16-.907.519-1.55.359-.651.944-1.002.585-.358 1.436-.358.817 0 1.37.321.558.315.897.936.339.614.478 1.52.147.9.147 2.07zm-1.17.088q0-.71-.047-1.272-.047-.563-.14-.994-.086-.431-.232-.738-.14-.315-.34-.512-.199-.205-.458-.293-.253-.095-.572-.095-.565 0-.917.293-.353.292-.559.804-.2.512-.272 1.199-.074.687-.074 1.476 0 1.06.1 1.806.1.738.313 1.206.22.468.551.68.34.212.818.212.372 0 .652-.132.286-.131.485-.372.206-.249.34-.593.132-.343.212-.76.08-.416.106-.899.033-.49.033-1.016z"/></g><g style="-inkscape-font-specification:Calibri" aria-label="20" font-weight="400" font-size="14.277" font-family="Calibri" stroke-width="1.333"><path d="M41.247 97.936q0 .131-.02.234-.013.102-.047.175-.026.066-.08.102-.046.03-.106.03h-4.753q-.093 0-.166-.022-.067-.03-.12-.088-.047-.058-.073-.168-.02-.11-.02-.27 0-.147.007-.256.013-.11.046-.19.033-.088.08-.169.053-.087.133-.182l1.669-1.945q.578-.672.924-1.206.352-.534.538-.972.193-.439.253-.797.06-.358.06-.673 0-.314-.093-.592-.094-.285-.273-.497-.173-.212-.439-.336-.266-.124-.611-.124-.406 0-.732.124-.319.124-.565.27-.24.147-.405.27-.16.125-.24.125-.046 0-.086-.029-.033-.03-.06-.095-.02-.066-.033-.176-.014-.11-.014-.263 0-.11.007-.19t.02-.139q.02-.058.047-.11.026-.05.106-.124.08-.08.273-.212.199-.131.492-.255.299-.132.651-.22.36-.087.751-.087.625 0 1.09.197.473.19.778.526.313.337.466.782.153.446.153.95 0 .454-.073.907-.074.446-.313.972-.233.52-.678 1.163-.445.636-1.183 1.469l-1.363 1.564h3.743q.053 0 .1.037.053.03.086.095.04.066.053.168.02.095.02.227zM48.488 93.725q0 1.09-.16 1.988-.152.9-.518 1.55-.359.643-.944 1.002-.585.35-1.442.35-.811 0-1.37-.314-.552-.321-.89-.935-.34-.622-.486-1.521-.14-.906-.14-2.076 0-1.082.16-1.981.16-.906.518-1.55.36-.65.945-1.001.585-.358 1.436-.358.817 0 1.369.321.558.315.898.936.339.614.478 1.52.146.9.146 2.07zm-1.17.088q0-.71-.046-1.272-.047-.563-.14-.994-.086-.432-.232-.739-.14-.314-.34-.511-.199-.205-.458-.293-.253-.095-.572-.095-.565 0-.917.293-.353.292-.559.804-.2.512-.272 1.199-.074.687-.074 1.476 0 1.06.1 1.806.1.738.313 1.206.219.468.551.68.34.212.818.212.372 0 .652-.132.286-.131.485-.373.206-.248.339-.592.133-.343.213-.76.08-.417.106-.899.033-.49.033-1.016z"/></g><g style="-inkscape-font-specification:Calibri" aria-label="13" font-weight="400" font-size="14.277" font-family="Calibri" stroke-width="1.333"><path d="M150.629 97.98q0 .138-.02.233-.02.096-.053.154-.033.058-.08.088-.04.022-.086.022h-4.494q-.047 0-.087-.022-.04-.03-.08-.088-.033-.058-.053-.154-.02-.095-.02-.233 0-.132.02-.227t.047-.154q.033-.065.073-.095.046-.036.1-.036h1.795v-7.193l-1.663 1.089q-.126.073-.206.088-.073.014-.12-.03-.046-.05-.066-.16-.013-.11-.013-.278 0-.124.007-.212.013-.088.033-.146.02-.059.053-.103.04-.044.1-.087l1.981-1.397q.027-.022.067-.036.04-.015.1-.03.059-.014.139-.014.08-.007.2-.007.159 0 .265.014.107.015.166.044.06.022.08.066.02.036.02.08v8.312h1.556q.053 0 .1.036.046.03.073.095.033.059.046.154.02.095.02.227zM157.498 95.772q0 .65-.206 1.177-.206.519-.592.892-.385.372-.95.577-.565.198-1.277.198-.432 0-.81-.08-.373-.074-.666-.176-.292-.11-.485-.22-.193-.117-.246-.168-.046-.05-.073-.102-.027-.051-.047-.124-.02-.073-.033-.176-.007-.11-.007-.263 0-.263.047-.365.047-.103.133-.103.06 0 .233.117.18.117.452.256.279.132.645.249.372.117.824.117.439 0 .771-.125.333-.124.559-.35.226-.227.339-.534.113-.315.113-.68 0-.402-.147-.724-.14-.321-.418-.555-.273-.234-.679-.359-.398-.124-.91-.124h-.818q-.053 0-.106-.022-.047-.029-.087-.087-.033-.059-.06-.154-.02-.095-.02-.249 0-.138.02-.226.02-.095.054-.146.04-.059.086-.08.047-.03.106-.03h.752q.438 0 .784-.124.352-.125.592-.358.246-.234.372-.556.133-.329.133-.731 0-.292-.086-.556-.087-.27-.26-.467-.173-.198-.445-.307-.266-.117-.618-.117-.386 0-.712.131-.319.124-.571.27-.253.147-.42.278-.166.125-.232.125-.047 0-.086-.015-.034-.022-.06-.073-.02-.058-.033-.153-.007-.103-.007-.264 0-.11.007-.19.006-.087.026-.146.02-.066.047-.117.026-.051.086-.117.067-.073.26-.205.192-.131.471-.255.286-.132.652-.22.372-.087.798-.087.598 0 1.05.168.452.168.751.475.306.307.452.738.153.424.153.943 0 .446-.106.834-.106.38-.313.68-.206.292-.505.504-.299.204-.691.285v.014q.445.052.81.249.373.19.64.482.265.293.411.688.153.387.153.833z"/></g><g style="-inkscape-font-specification:Calibri" aria-label="0,2600" font-weight="400" font-size="14.277" font-family="Calibri" stroke-width="1.333"><path d="M206.133 93.725q0 1.09-.16 1.988-.152.9-.518 1.55-.359.643-.944 1.002-.585.35-1.443.35-.81 0-1.37-.314-.55-.321-.89-.935-.339-.622-.485-1.521-.14-.906-.14-2.076 0-1.082.16-1.981.16-.906.518-1.55.36-.65.944-1.001.585-.358 1.436-.358.818 0 1.37.321.558.315.897.936.34.614.479 1.52.146.9.146 2.07zm-1.17.088q0-.71-.046-1.272-.047-.563-.14-.994-.086-.432-.233-.739-.14-.314-.339-.511-.2-.205-.458-.293-.253-.095-.572-.095-.565 0-.918.293-.352.292-.558.804-.2.512-.273 1.199-.073.687-.073 1.476 0 1.06.1 1.806.1.738.312 1.206.22.468.552.68.34.212.818.212.372 0 .651-.132.286-.131.486-.373.206-.248.339-.592.133-.343.213-.76.08-.417.106-.899.033-.49.033-1.016zM209.115 97.431q0 .227-.02.417-.02.19-.067.358-.046.168-.126.33-.073.167-.186.35l-.91 1.506q-.034.051-.08.088-.04.036-.107.065-.06.03-.146.037-.08.015-.206.015-.113 0-.193-.015-.073-.007-.107-.037-.033-.022-.04-.065 0-.044.027-.103l.884-2.01v-.936q0-.197.034-.314.04-.117.12-.175.08-.059.199-.08.12-.023.292-.023.167 0 .286.022.12.022.193.08.08.059.113.176.04.117.04.314zM216.195 97.936q0 .131-.02.234-.013.102-.046.175-.027.066-.08.102-.047.03-.107.03h-4.753q-.093 0-.166-.022-.067-.03-.12-.088-.046-.058-.073-.168-.02-.11-.02-.27 0-.147.007-.256.013-.11.046-.19.034-.088.08-.169.053-.087.133-.182l1.669-1.945q.578-.672.924-1.206.352-.534.538-.972.193-.439.253-.797.06-.358.06-.673 0-.314-.093-.592-.093-.285-.273-.497-.173-.212-.439-.336-.266-.124-.611-.124-.406 0-.732.124-.319.124-.565.27-.239.147-.405.27-.16.125-.24.125-.046 0-.086-.029-.033-.03-.06-.095-.02-.066-.033-.176-.013-.11-.013-.263 0-.11.006-.19.007-.08.02-.139.02-.058.047-.11.026-.05.106-.124.08-.08.273-.212.2-.131.492-.255.299-.132.651-.22.36-.087.752-.087.624 0 1.09.197.472.19.778.526.312.337.465.782.153.446.153.95 0 .454-.073.907-.073.446-.313.972-.232.52-.678 1.163-.445.636-1.183 1.469l-1.363 1.564h3.743q.053 0 .1.037.053.03.086.095.04.066.053.168.02.095.02.227zM223.358 95.414q0 .621-.172 1.206-.173.577-.532 1.023-.36.439-.911.71-.552.263-1.303.263-.539 0-.95-.147-.413-.146-.719-.416t-.512-.666q-.2-.394-.326-.899-.12-.504-.172-1.103-.054-.6-.054-1.287 0-.607.06-1.228t.213-1.199q.153-.577.412-1.082.266-.512.658-.884.4-.38.951-.6.552-.22 1.283-.22.246 0 .499.037.252.03.465.088.213.051.36.117.145.066.192.11.046.036.066.088.027.043.04.102.013.051.02.124.007.066.007.168 0 .132-.007.227 0 .095-.026.153-.02.059-.06.088-.034.03-.093.03-.073 0-.2-.052-.126-.051-.306-.11-.18-.065-.438-.116-.253-.052-.592-.052-.618 0-1.064.278-.445.278-.731.746-.28.468-.419 1.089-.133.614-.153 1.287.173-.11.386-.22.22-.11.472-.197.26-.088.545-.139.286-.059.612-.059.698 0 1.176.212.479.205.771.578.3.365.426.87.126.497.126 1.082zm-1.156.117q0-.424-.08-.768-.073-.35-.253-.592-.18-.241-.479-.373-.299-.131-.737-.131-.246 0-.492.05-.246.045-.48.132-.225.08-.438.198-.206.11-.379.241 0 .943.107 1.579.113.636.319 1.023.212.38.525.549.312.16.731.16.426 0 .738-.175.313-.175.519-.468.206-.3.299-.665.1-.373.1-.76zM230.369 93.725q0 1.09-.16 1.988-.153.9-.518 1.55-.36.643-.944 1.002-.586.35-1.443.35-.811 0-1.37-.314-.551-.321-.89-.935-.34-.622-.486-1.521-.14-.906-.14-2.076 0-1.082.16-1.981.16-.906.519-1.55.359-.65.944-1.001.585-.358 1.436-.358.817 0 1.37.321.558.315.897.936.339.614.478 1.52.147.9.147 2.07zm-1.17.088q0-.71-.047-1.272-.046-.563-.14-.994-.086-.432-.232-.739-.14-.314-.34-.511-.199-.205-.458-.293-.253-.095-.572-.095-.565 0-.917.293-.353.292-.559.804-.2.512-.272 1.199-.073.687-.073 1.476 0 1.06.1 1.806.1.738.312 1.206.22.468.552.68.339.212.817.212.373 0 .652-.132.286-.131.485-.373.206-.248.34-.592.132-.343.212-.76.08-.417.106-.899.034-.49.034-1.016zM237.313 93.725q0 1.09-.16 1.988-.153.9-.519 1.55-.359.643-.944 1.002-.585.35-1.442.35-.811 0-1.37-.314-.552-.321-.89-.935-.34-.622-.486-1.521-.14-.906-.14-2.076 0-1.082.16-1.981.16-.906.519-1.55.359-.65.944-1.001.585-.358 1.436-.358.817 0 1.37.321.558.315.897.936.339.614.478 1.52.147.9.147 2.07zm-1.17.088q0-.71-.047-1.272-.047-.563-.14-.994-.086-.432-.232-.739-.14-.314-.34-.511-.199-.205-.458-.293-.253-.095-.572-.095-.565 0-.917.293-.353.292-.559.804-.2.512-.272 1.199-.074.687-.074 1.476 0 1.06.1 1.806.1.738.313 1.206.22.468.551.68.34.212.818.212.372 0 .652-.132.286-.131.485-.373.206-.248.34-.592.132-.343.212-.76.08-.417.106-.899.033-.49.033-1.016z"/></g><g style="-inkscape-font-specification:Calibri" aria-label="21" font-weight="400" font-size="14.277" font-family="Calibri" stroke-width="1.333"><path d="M41.247 117.626q0 .131-.02.234-.013.102-.047.175-.026.066-.08.102-.046.03-.106.03h-4.753q-.093 0-.166-.022-.067-.03-.12-.088-.047-.059-.073-.168-.02-.11-.02-.27 0-.147.007-.257.013-.11.046-.19.033-.087.08-.168.053-.088.133-.183l1.669-1.944q.578-.673.924-1.206.352-.534.538-.972.193-.439.253-.797.06-.358.06-.673 0-.314-.093-.592-.094-.285-.273-.497-.173-.212-.439-.336-.266-.124-.611-.124-.406 0-.732.124-.319.124-.565.27-.24.147-.405.27-.16.125-.24.125-.046 0-.086-.03-.033-.028-.06-.094-.02-.066-.033-.176-.014-.11-.014-.263 0-.11.007-.19t.02-.139q.02-.058.047-.11.026-.05.106-.124.08-.08.273-.212.199-.131.492-.255.299-.132.651-.22.36-.088.751-.088.625 0 1.09.198.473.19.778.526.313.336.466.782.153.446.153.95 0 .454-.073.907-.074.446-.313.972-.233.52-.678 1.163-.445.636-1.183 1.469l-1.363 1.564h3.743q.053 0 .1.037.053.03.086.095.04.066.053.168.02.095.02.227zM48.223 117.67q0 .138-.02.233t-.054.154q-.033.058-.08.088-.04.022-.086.022H43.49q-.046 0-.086-.022-.04-.03-.08-.088-.033-.059-.053-.154-.02-.095-.02-.234 0-.131.02-.226t.046-.154q.033-.065.073-.095.047-.036.1-.036h1.795v-7.193l-1.662 1.089q-.126.073-.206.088-.073.014-.12-.03-.046-.05-.066-.16-.014-.11-.014-.278 0-.124.007-.212.013-.088.033-.146.02-.059.054-.103.04-.044.1-.088l1.98-1.396q.027-.022.067-.036.04-.015.1-.03.06-.014.14-.014.079-.007.199-.007.16 0 .266.014.106.015.166.044.06.022.08.066.02.036.02.08v8.312h1.555q.053 0 .1.036.046.03.073.095.033.059.047.154.02.095.02.226z"/></g><path d="M157.764 115.74q0 .614-.2 1.096-.199.475-.578.804-.372.33-.924.497-.552.168-1.263.168-.665 0-1.19-.153-.525-.154-.89-.453-.367-.3-.56-.739-.192-.438-.192-1.001 0-.446.133-.819.133-.373.379-.687.252-.314.618-.585.366-.278.824-.526-.398-.227-.704-.475-.306-.256-.519-.548-.213-.3-.326-.636-.106-.337-.106-.731 0-.498.16-.929.166-.438.492-.76.332-.322.837-.504.512-.19 1.19-.19.652 0 1.124.175.478.168.784.468.313.292.459.694.146.402.146.863 0 .373-.113.716-.106.344-.319.65-.213.308-.525.578-.306.263-.705.497.472.256.838.527.372.27.618.584.253.308.38.658.132.344.132.76zm-1.436-4.854q0-.307-.1-.556-.093-.248-.279-.424-.186-.175-.465-.263-.273-.095-.625-.095-.718 0-1.09.358-.366.358-.366.98 0 .285.086.533.093.242.28.461.192.22.478.431.293.205.692.432.671-.38 1.03-.841.36-.46.36-1.016zm.28 4.985q0-.336-.114-.607-.113-.277-.345-.511-.226-.241-.572-.46-.34-.227-.791-.469-.42.227-.738.454-.313.226-.519.467-.2.242-.306.512-.1.263-.1.585 0 .709.44 1.096.445.388 1.322.388.851 0 1.284-.388.438-.394.438-1.067z" style="stroke-width:1.33333" aria-label="8" font-weight="400" font-size="14.277" font-family="Calibri" stroke-width="1.333"/><g style="-inkscape-font-specification:Calibri" aria-label="0,1600" font-weight="400" font-size="14.277" font-family="Calibri" stroke-width="1.333"><path d="M206.133 113.415q0 1.09-.16 1.988-.152.9-.518 1.55-.359.643-.944 1.002-.585.35-1.443.35-.81 0-1.37-.314-.55-.322-.89-.936-.339-.62-.485-1.52-.14-.906-.14-2.076 0-1.082.16-1.981.16-.907.518-1.55.36-.65.944-1.001.585-.358 1.436-.358.818 0 1.37.321.558.314.897.936.34.614.479 1.52.146.9.146 2.069zm-1.17.088q0-.71-.046-1.272-.047-.563-.14-.994-.086-.432-.233-.739-.14-.314-.339-.511-.2-.205-.458-.293-.253-.095-.572-.095-.565 0-.918.293-.352.292-.558.804-.2.511-.273 1.199-.073.687-.073 1.476 0 1.06.1 1.806.1.738.312 1.206.22.468.552.68.34.212.818.212.372 0 .651-.132.286-.131.486-.373.206-.248.339-.592.133-.343.213-.76.08-.417.106-.9.033-.489.033-1.015zM209.115 117.121q0 .227-.02.417-.02.19-.067.358-.046.168-.126.329-.073.168-.186.35l-.91 1.507q-.034.05-.08.088-.04.036-.107.065-.06.03-.146.037-.08.014-.206.014-.113 0-.193-.014-.073-.008-.107-.037-.033-.022-.04-.065 0-.044.027-.103l.884-2.01v-.936q0-.197.034-.314.04-.117.12-.176.08-.058.199-.08.12-.022.292-.022.167 0 .286.022.12.022.193.08.08.059.113.176.04.117.04.314zM216.215 117.67q0 .138-.02.233t-.053.154q-.033.058-.08.088-.04.022-.086.022h-4.494q-.047 0-.087-.022-.04-.03-.08-.088-.033-.059-.053-.154-.02-.095-.02-.234 0-.131.02-.226t.047-.154q.033-.065.073-.095.046-.036.1-.036h1.795v-7.193l-1.662 1.089q-.127.073-.207.088-.073.014-.12-.03-.046-.05-.066-.16-.013-.11-.013-.278 0-.124.007-.212.013-.088.033-.146.02-.059.053-.103.04-.044.1-.088l1.981-1.396q.027-.022.067-.036.04-.015.1-.03.06-.014.139-.014.08-.007.2-.007.159 0 .265.014.107.015.166.044.06.022.08.066.02.036.02.08v8.312h1.556q.053 0 .1.036.046.03.073.095.033.059.046.154.02.095.02.226zM223.358 115.104q0 .621-.172 1.206-.173.577-.532 1.023-.36.439-.911.71-.552.262-1.303.262-.539 0-.95-.146-.413-.146-.719-.416t-.512-.666q-.2-.394-.326-.899-.12-.504-.172-1.104-.054-.599-.054-1.286 0-.607.06-1.228.06-.622.213-1.2.153-.577.412-1.081.266-.512.658-.884.4-.38.951-.6.552-.22 1.283-.22.246 0 .499.037.252.03.465.088.213.051.36.117.145.066.192.11.046.036.066.087.027.044.04.103.013.051.02.124.007.066.007.168 0 .132-.007.227 0 .095-.026.153-.02.059-.06.088-.034.03-.093.03-.073 0-.2-.052-.126-.051-.306-.11-.18-.065-.438-.117-.253-.05-.592-.05-.618 0-1.064.277-.445.278-.731.746-.28.468-.419 1.089-.133.614-.153 1.286.173-.11.386-.219.22-.11.472-.197.26-.088.545-.14.286-.058.612-.058.698 0 1.176.212.479.205.771.578.3.365.426.87.126.497.126 1.082zm-1.156.117q0-.424-.08-.768-.073-.35-.253-.592-.18-.241-.479-.373-.299-.131-.737-.131-.246 0-.492.05-.246.045-.48.132-.225.08-.438.198-.206.11-.379.24 0 .944.107 1.58.113.636.319 1.023.212.38.525.549.312.16.731.16.426 0 .738-.175.313-.176.519-.468.206-.3.299-.665.1-.373.1-.76zM230.369 113.415q0 1.09-.16 1.988-.153.9-.518 1.55-.36.643-.944 1.002-.586.35-1.443.35-.811 0-1.37-.314-.551-.322-.89-.936-.34-.62-.486-1.52-.14-.906-.14-2.076 0-1.082.16-1.981.16-.907.519-1.55.359-.65.944-1.001.585-.358 1.436-.358.817 0 1.37.321.558.314.897.936.339.614.478 1.52.147.9.147 2.069zm-1.17.088q0-.71-.047-1.272-.046-.563-.14-.994-.086-.432-.232-.739-.14-.314-.34-.511-.199-.205-.458-.293-.253-.095-.572-.095-.565 0-.917.293-.353.292-.559.804-.2.511-.272 1.199-.073.687-.073 1.476 0 1.06.1 1.806.1.738.312 1.206.22.468.552.68.339.212.817.212.373 0 .652-.132.286-.131.485-.373.206-.248.34-.592.132-.343.212-.76.08-.417.106-.9.034-.489.034-1.015zM237.313 113.415q0 1.09-.16 1.988-.153.9-.519 1.55-.359.643-.944 1.002-.585.35-1.442.35-.811 0-1.37-.314-.552-.322-.89-.936-.34-.62-.486-1.52-.14-.906-.14-2.076 0-1.082.16-1.981.16-.907.519-1.55.359-.65.944-1.001.585-.358 1.436-.358.817 0 1.37.321.558.314.897.936.339.614.478 1.52.147.9.147 2.069zm-1.17.088q0-.71-.047-1.272-.047-.563-.14-.994-.086-.432-.232-.739-.14-.314-.34-.511-.199-.205-.458-.293-.253-.095-.572-.095-.565 0-.917.293-.353.292-.559.804-.2.511-.272 1.199-.074.687-.074 1.476 0 1.06.1 1.806.1.738.313 1.206.22.468.551.68.34.212.818.212.372 0 .652-.132.286-.131.485-.373.206-.248.34-.592.132-.343.212-.76.08-.417.106-.9.033-.489.033-1.015z"/></g><g style="-inkscape-font-specification:Calibri" aria-label="22" font-weight="400" font-size="14.277" font-family="Calibri" stroke-width="1.333"><path d="M41.247 137.316q0 .131-.02.234-.013.102-.047.175-.026.066-.08.102-.046.03-.106.03h-4.753q-.093 0-.166-.022-.067-.03-.12-.088-.047-.059-.073-.168-.02-.11-.02-.27 0-.147.007-.257.013-.11.046-.19.033-.087.08-.168.053-.088.133-.183l1.669-1.944q.578-.673.924-1.206.352-.534.538-.972.193-.439.253-.797.06-.358.06-.673 0-.314-.093-.592-.094-.285-.273-.497-.173-.212-.439-.336-.266-.124-.611-.124-.406 0-.732.124-.319.124-.565.27-.24.147-.405.27-.16.125-.24.125-.046 0-.086-.03-.033-.028-.06-.094-.02-.066-.033-.176-.014-.11-.014-.263 0-.11.007-.19t.02-.139q.02-.058.047-.11.026-.05.106-.124.08-.08.273-.212.199-.131.492-.255.299-.132.651-.22.36-.088.751-.088.625 0 1.09.198.473.19.778.526.313.336.466.782.153.446.153.95 0 .454-.073.907-.074.446-.313.972-.233.52-.678 1.163-.445.636-1.183 1.469l-1.363 1.564h3.743q.053 0 .1.037.053.03.086.095.04.066.053.168.02.095.02.227zM48.203 137.316q0 .131-.02.234-.014.102-.047.175-.026.066-.08.102-.046.03-.106.03h-4.753q-.094 0-.167-.022-.066-.03-.12-.088-.046-.059-.072-.168-.02-.11-.02-.27 0-.147.006-.257.014-.11.047-.19.033-.087.08-.168.053-.088.133-.183l1.668-1.944q.579-.673.924-1.206.353-.534.539-.972.193-.439.252-.797.06-.358.06-.673 0-.314-.093-.592-.093-.285-.272-.497-.173-.212-.44-.336-.265-.124-.61-.124-.406 0-.732.124-.32.124-.565.27-.24.147-.406.27-.16.125-.239.125-.047 0-.086-.03-.034-.028-.06-.094-.02-.066-.034-.176-.013-.11-.013-.263 0-.11.007-.19t.02-.139q.02-.058.046-.11.027-.05.107-.124.08-.08.272-.212.2-.131.492-.255.3-.132.652-.22.359-.088.751-.088.625 0 1.09.198.472.19.778.526.313.336.465.782.153.446.153.95 0 .454-.073.907-.073.446-.312.972-.233.52-.678 1.163-.446.636-1.184 1.469l-1.363 1.564h3.743q.054 0 .1.037.053.03.087.095.04.066.053.168.02.095.02.227z"/></g><path d="M157.784 134.794q0 .621-.173 1.206-.173.577-.532 1.023-.359.439-.91.71-.552.262-1.303.262-.539 0-.951-.146-.412-.146-.718-.416t-.512-.666q-.2-.394-.326-.899-.12-.504-.173-1.104-.053-.599-.053-1.286 0-.607.06-1.228.06-.622.213-1.2.153-.577.412-1.081.266-.512.658-.884.399-.38.95-.6.552-.22 1.284-.22.246 0 .498.037.253.03.466.088.212.051.359.117.146.066.193.11.046.036.066.088.027.043.04.102.013.051.02.124.006.066.006.168 0 .132-.006.227 0 .095-.027.153-.02.059-.06.088-.033.03-.093.03-.073 0-.2-.052-.125-.05-.305-.11-.18-.065-.439-.116-.252-.052-.591-.052-.619 0-1.064.278-.446.278-.731.746-.28.468-.42 1.089-.132.614-.152 1.287.173-.11.385-.22.22-.11.472-.197.26-.088.546-.139.285-.058.611-.058.698 0 1.177.212.479.204.771.577.3.366.426.87.126.497.126 1.082zm-1.157.117q0-.424-.08-.768-.073-.35-.252-.592-.18-.241-.479-.373-.299-.131-.738-.131-.246 0-.492.05-.246.045-.478.132-.226.08-.44.198-.205.11-.378.24 0 .944.106 1.58.113.636.32 1.023.212.38.525.549.312.16.73.16.426 0 .739-.175.312-.176.518-.468.206-.3.3-.665.1-.373.1-.76z" style="stroke-width:1.33333" aria-label="6" font-weight="400" font-size="14.277" font-family="Calibri" stroke-width="1.333"/><g style="-inkscape-font-specification:Calibri" aria-label="0,1200" font-weight="400" font-size="14.277" font-family="Calibri" stroke-width="1.333"><path d="M206.133 133.105q0 1.09-.16 1.988-.152.9-.518 1.55-.359.643-.944 1.002-.585.35-1.443.35-.81 0-1.37-.314-.55-.322-.89-.936-.339-.62-.485-1.52-.14-.907-.14-2.076 0-1.082.16-1.981.16-.907.518-1.55.36-.65.944-1.001.585-.359 1.436-.359.818 0 1.37.322.558.314.897.936.34.614.479 1.52.146.9.146 2.069zm-1.17.088q0-.71-.046-1.272-.047-.563-.14-.994-.086-.432-.233-.739-.14-.314-.339-.511-.2-.205-.458-.293-.253-.095-.572-.095-.565 0-.918.293-.352.292-.558.804-.2.511-.273 1.199-.073.687-.073 1.476 0 1.06.1 1.806.1.738.312 1.206.22.468.552.68.34.212.818.212.372 0 .651-.132.286-.131.486-.373.206-.248.339-.592.133-.343.213-.76.08-.417.106-.9.033-.489.033-1.015zM209.115 136.811q0 .227-.02.417-.02.19-.067.358-.046.168-.126.329-.073.168-.186.35l-.91 1.507q-.034.05-.08.087-.04.037-.107.066-.06.03-.146.037-.08.014-.206.014-.113 0-.193-.014-.073-.008-.107-.037-.033-.022-.04-.066 0-.043.027-.102l.884-2.01v-.936q0-.197.034-.314.04-.117.12-.176.08-.058.199-.08.12-.022.292-.022.167 0 .286.022.12.022.193.08.08.059.113.176.04.117.04.314zM216.215 137.36q0 .138-.02.233t-.053.154q-.033.058-.08.088-.04.022-.086.022h-4.494q-.047 0-.087-.022-.04-.03-.08-.088-.033-.059-.053-.154-.02-.095-.02-.234 0-.131.02-.226t.047-.154q.033-.065.073-.095.046-.036.1-.036h1.795v-7.193l-1.662 1.089q-.127.073-.207.088-.073.014-.12-.03-.046-.05-.066-.16-.013-.11-.013-.278 0-.125.007-.212.013-.088.033-.147.02-.058.053-.102.04-.044.1-.088l1.981-1.396q.027-.022.067-.036.04-.015.1-.03.06-.014.139-.014.08-.007.2-.007.159 0 .265.014.107.015.166.044.06.022.08.066.02.036.02.08v8.312h1.556q.053 0 .1.036.046.03.073.095.033.059.046.154.02.095.02.226zM223.139 137.316q0 .131-.02.234-.013.102-.046.175-.027.066-.08.102-.047.03-.107.03h-4.753q-.093 0-.166-.022-.067-.03-.12-.088-.047-.059-.073-.168-.02-.11-.02-.27 0-.147.007-.257.013-.11.046-.19.033-.087.08-.168.053-.088.133-.183l1.669-1.944q.578-.673.924-1.206.352-.534.538-.972.193-.439.253-.797.06-.358.06-.673 0-.314-.093-.592-.094-.285-.273-.497-.173-.212-.439-.336-.266-.124-.611-.124-.406 0-.732.124-.319.124-.565.27-.24.147-.405.27-.16.125-.24.125-.046 0-.086-.03-.033-.028-.06-.094-.02-.066-.033-.176-.013-.11-.013-.263 0-.11.006-.19.007-.08.02-.139.02-.058.047-.11.026-.05.106-.124.08-.08.273-.212.2-.131.492-.255.299-.132.651-.22.36-.088.751-.088.625 0 1.09.198.473.19.779.526.312.336.465.782.153.446.153.95 0 .454-.073.907-.073.446-.313.972-.232.52-.678 1.163-.445.636-1.183 1.469l-1.363 1.564h3.743q.053 0 .1.037.053.03.086.095.04.066.053.168.02.095.02.227zM230.369 133.105q0 1.09-.16 1.988-.153.9-.518 1.55-.36.643-.944 1.002-.586.35-1.443.35-.811 0-1.37-.314-.551-.322-.89-.936-.34-.62-.486-1.52-.14-.907-.14-2.076 0-1.082.16-1.981.16-.907.519-1.55.359-.65.944-1.001.585-.359 1.436-.359.817 0 1.37.322.558.314.897.936.339.614.478 1.52.147.9.147 2.069zm-1.17.088q0-.71-.047-1.272-.046-.563-.14-.994-.086-.432-.232-.739-.14-.314-.34-.511-.199-.205-.458-.293-.253-.095-.572-.095-.565 0-.917.293-.353.292-.559.804-.2.511-.272 1.199-.073.687-.073 1.476 0 1.06.1 1.806.1.738.312 1.206.22.468.552.68.339.212.817.212.373 0 .652-.132.286-.131.485-.373.206-.248.34-.592.132-.343.212-.76.08-.417.106-.9.034-.489.034-1.015zM237.313 133.105q0 1.09-.16 1.988-.153.9-.519 1.55-.359.643-.944 1.002-.585.35-1.442.35-.811 0-1.37-.314-.552-.322-.89-.936-.34-.62-.486-1.52-.14-.907-.14-2.076 0-1.082.16-1.981.16-.907.519-1.55.359-.65.944-1.001.585-.359 1.436-.359.817 0 1.37.322.558.314.897.936.339.614.478 1.52.147.9.147 2.069zm-1.17.088q0-.71-.047-1.272-.047-.563-.14-.994-.086-.432-.232-.739-.14-.314-.34-.511-.199-.205-.458-.293-.253-.095-.572-.095-.565 0-.917.293-.353.292-.559.804-.2.511-.272 1.199-.074.687-.074 1.476 0 1.06.1 1.806.1.738.313 1.206.22.468.551.68.34.212.818.212.372 0 .652-.132.286-.131.485-.373.206-.248.34-.592.132-.343.212-.76.08-.417.106-.9.033-.489.033-1.015z"/></g><g style="-inkscape-font-specification:Calibri" aria-label="23" font-weight="400" font-size="14.277" font-family="Calibri" stroke-width="1.333"><path d="M41.247 156.68q0 .132-.02.234-.013.102-.047.175-.026.066-.08.103-.046.029-.106.029h-4.753q-.093 0-.166-.022-.067-.03-.12-.088-.047-.058-.073-.168-.02-.11-.02-.27 0-.146.007-.256.013-.11.046-.19.033-.088.08-.168.053-.088.133-.183l1.669-1.945q.578-.672.924-1.206.352-.533.538-.972.193-.439.253-.797.06-.358.06-.672 0-.315-.093-.592-.094-.285-.273-.497-.173-.212-.439-.337-.266-.124-.611-.124-.406 0-.732.124-.319.125-.565.27-.24.147-.405.271-.16.125-.24.125-.046 0-.086-.03-.033-.029-.06-.095-.02-.065-.033-.175-.014-.11-.014-.263 0-.11.007-.19t.02-.14q.02-.058.047-.109.026-.051.106-.124.08-.08.273-.212.199-.132.492-.256.299-.132.651-.22.36-.087.751-.087.625 0 1.09.197.473.19.778.527.313.336.466.782.153.446.153.95 0 .453-.073.907-.074.445-.313.972-.233.519-.678 1.162-.445.636-1.183 1.47l-1.363 1.564h3.743q.053 0 .1.036.053.03.086.095.04.066.053.168.02.095.02.227zM48.136 154.516q0 .65-.206 1.177-.206.52-.592.892-.385.373-.95.578-.565.197-1.277.197-.432 0-.81-.08-.373-.074-.666-.176-.292-.11-.485-.22-.193-.116-.246-.167-.047-.052-.073-.103-.027-.05-.047-.124-.02-.073-.033-.175-.007-.11-.007-.264 0-.263.047-.365.046-.102.133-.102.06 0 .233.116.18.117.452.256.279.132.645.249.372.117.824.117.439 0 .771-.124.333-.125.559-.351.226-.227.339-.534.113-.314.113-.68 0-.402-.147-.723-.14-.322-.418-.556-.273-.234-.679-.358-.398-.124-.91-.124h-.818q-.053 0-.106-.022-.047-.03-.087-.088-.033-.059-.06-.154-.02-.095-.02-.248 0-.14.02-.227.02-.095.053-.146.04-.059.087-.08.046-.03.106-.03h.752q.438 0 .784-.124.352-.124.592-.358.246-.234.372-.556.133-.329.133-.73 0-.293-.086-.556-.087-.27-.26-.468-.173-.198-.445-.307-.266-.117-.618-.117-.386 0-.712.131-.319.125-.572.27-.252.147-.418.279-.167.124-.233.124-.047 0-.087-.015-.033-.022-.06-.073-.02-.058-.033-.153-.006-.103-.006-.263 0-.11.006-.19.007-.088.027-.147.02-.065.047-.117.026-.05.086-.117.066-.073.26-.204.192-.132.471-.256.286-.132.652-.22.372-.087.798-.087.598 0 1.05.168.452.168.751.475.306.307.452.738.153.424.153.943 0 .446-.106.834-.107.38-.313.68-.206.292-.505.504-.3.205-.691.285v.015q.445.05.81.248.373.19.639.483.266.292.412.687.153.387.153.833z"/></g><path d="M157.498 154.516q0 .65-.206 1.177-.206.52-.592.892-.385.373-.95.578-.565.197-1.277.197-.432 0-.81-.08-.373-.074-.666-.176-.292-.11-.485-.22-.193-.116-.246-.167-.046-.052-.073-.103-.027-.05-.047-.124-.02-.073-.033-.175-.007-.11-.007-.264 0-.263.047-.365.047-.102.133-.102.06 0 .233.116.18.117.452.256.279.132.645.249.372.117.824.117.439 0 .771-.124.333-.125.559-.351.226-.227.339-.534.113-.314.113-.68 0-.402-.147-.723-.14-.322-.418-.556-.273-.234-.679-.358-.398-.124-.91-.124h-.818q-.053 0-.106-.022-.047-.03-.087-.088-.033-.059-.06-.154-.02-.095-.02-.248 0-.14.02-.227.02-.095.054-.146.04-.059.086-.08.047-.03.106-.03h.752q.438 0 .784-.124.352-.124.592-.358.246-.234.372-.556.133-.329.133-.73 0-.293-.086-.556-.087-.27-.26-.468-.173-.198-.445-.307-.266-.117-.618-.117-.386 0-.712.131-.319.125-.571.27-.253.147-.42.279-.166.124-.232.124-.047 0-.086-.015-.034-.022-.06-.073-.02-.058-.033-.153-.007-.103-.007-.263 0-.11.007-.19.006-.088.026-.147.02-.065.047-.117.026-.05.086-.117.067-.073.26-.204.192-.132.471-.256.286-.132.652-.22.372-.087.798-.087.598 0 1.05.168.452.168.751.475.306.307.452.738.153.424.153.943 0 .446-.106.834-.106.38-.313.68-.206.292-.505.504-.299.205-.691.285v.015q.445.05.81.248.373.19.64.483.265.292.411.687.153.387.153.833z" style="stroke-width:1.33333" aria-label="3" font-weight="400" font-size="14.277" font-family="Calibri" stroke-width="1.333"/><g style="-inkscape-font-specification:Calibri" aria-label="0,0600" font-weight="400" font-size="14.277" font-family="Calibri" stroke-width="1.333"><path d="M206.133 152.47q0 1.089-.16 1.988-.152.899-.518 1.55-.359.643-.944 1.001-.585.35-1.443.35-.81 0-1.37-.313-.55-.322-.89-.936-.339-.621-.485-1.52-.14-.907-.14-2.077 0-1.082.16-1.98.16-.907.518-1.55.36-.651.944-1.002.585-.358 1.436-.358.818 0 1.37.322.558.314.897.935.34.614.479 1.52.146.9.146 2.07zm-1.17.087q0-.709-.046-1.272-.047-.563-.14-.994-.086-.431-.233-.738-.14-.314-.339-.512-.2-.205-.458-.292-.253-.095-.572-.095-.565 0-.918.292-.352.293-.558.804-.2.512-.273 1.2-.073.686-.073 1.476 0 1.06.1 1.805.1.739.312 1.206.22.468.552.68.34.212.818.212.372 0 .651-.131.286-.132.486-.373.206-.249.339-.592.133-.344.213-.76.08-.417.106-.9.033-.49.033-1.016zM209.115 156.176q0 .226-.02.416-.02.19-.067.359-.046.168-.126.328-.073.169-.186.351l-.91 1.506q-.034.051-.08.088-.04.036-.107.066-.06.029-.146.036-.08.015-.206.015-.113 0-.193-.015-.073-.007-.107-.036-.033-.022-.04-.066 0-.044.027-.102l.884-2.01v-.936q0-.198.034-.315.04-.117.12-.175.08-.059.199-.08.12-.023.292-.023.167 0 .286.022.12.022.193.08.08.06.113.176.04.117.04.315zM216.481 152.47q0 1.089-.16 1.988-.152.899-.518 1.55-.36.643-.944 1.001-.585.35-1.443.35-.81 0-1.37-.313-.551-.322-.89-.936-.34-.621-.486-1.52-.14-.907-.14-2.077 0-1.082.16-1.98.16-.907.519-1.55.359-.651.944-1.002.585-.358 1.436-.358.818 0 1.37.322.558.314.897.935.34.614.479 1.52.146.9.146 2.07zm-1.17.087q0-.709-.047-1.272-.046-.563-.14-.994-.086-.431-.232-.738-.14-.314-.339-.512-.2-.205-.459-.292-.252-.095-.571-.095-.566 0-.918.292-.352.293-.558.804-.2.512-.273 1.2-.073.686-.073 1.476 0 1.06.1 1.805.1.739.312 1.206.22.468.552.68.339.212.818.212.372 0 .651-.131.286-.132.485-.373.207-.249.34-.592.132-.344.212-.76.08-.417.107-.9.033-.49.033-1.016zM223.358 154.158q0 .621-.172 1.206-.173.578-.532 1.024-.36.438-.911.709-.552.263-1.303.263-.539 0-.95-.146-.413-.147-.719-.417t-.512-.665q-.2-.395-.326-.9-.12-.504-.172-1.103-.054-.6-.054-1.287 0-.606.06-1.228.06-.621.213-1.199.153-.577.412-1.082.266-.511.658-.884.4-.38.951-.6.552-.219 1.283-.219.246 0 .499.037.252.03.465.088.213.05.36.117.145.065.192.11.046.036.066.087.027.044.04.102.013.052.02.125.007.065.007.168 0 .131-.007.226 0 .095-.026.154-.02.058-.06.088-.034.029-.093.029-.073 0-.2-.051-.126-.051-.306-.11-.18-.066-.438-.117-.253-.051-.592-.051-.618 0-1.064.278-.445.278-.731.745-.28.468-.419 1.09-.133.614-.153 1.286.173-.11.386-.22.22-.109.472-.197.26-.087.545-.138.286-.059.612-.059.698 0 1.176.212.479.205.771.578.3.365.426.87.126.496.126 1.081zm-1.156.117q0-.424-.08-.767-.073-.351-.253-.593-.18-.24-.479-.372t-.737-.132q-.246 0-.492.051-.246.044-.48.132-.225.08-.438.197-.206.11-.379.241 0 .943.107 1.58.113.635.319 1.023.212.38.525.548.312.16.731.16.426 0 .738-.175.313-.175.519-.467.206-.3.299-.666.1-.373.1-.76zM230.369 152.47q0 1.089-.16 1.988-.153.899-.518 1.55-.36.643-.944 1.001-.586.35-1.443.35-.811 0-1.37-.313-.551-.322-.89-.936-.34-.621-.486-1.52-.14-.907-.14-2.077 0-1.082.16-1.98.16-.907.519-1.55.359-.651.944-1.002.585-.358 1.436-.358.817 0 1.37.322.558.314.897.935.339.614.478 1.52.147.9.147 2.07zm-1.17.087q0-.709-.047-1.272-.046-.563-.14-.994-.086-.431-.232-.738-.14-.314-.34-.512-.199-.205-.458-.292-.253-.095-.572-.095-.565 0-.917.292-.353.293-.559.804-.2.512-.272 1.2-.073.686-.073 1.476 0 1.06.1 1.805.1.739.312 1.206.22.468.552.68.339.212.817.212.373 0 .652-.131.286-.132.485-.373.206-.249.34-.592.132-.344.212-.76.08-.417.106-.9.034-.49.034-1.016zM237.313 152.47q0 1.089-.16 1.988-.153.899-.519 1.55-.359.643-.944 1.001-.585.35-1.442.35-.811 0-1.37-.313-.552-.322-.89-.936-.34-.621-.486-1.52-.14-.907-.14-2.077 0-1.082.16-1.98.16-.907.519-1.55.359-.651.944-1.002.585-.358 1.436-.358.817 0 1.37.322.558.314.897.935.339.614.478 1.52.147.9.147 2.07zm-1.17.087q0-.709-.047-1.272-.047-.563-.14-.994-.086-.431-.232-.738-.14-.314-.34-.512-.199-.205-.458-.292-.253-.095-.572-.095-.565 0-.917.292-.353.293-.559.804-.2.512-.272 1.2-.074.686-.074 1.476 0 1.06.1 1.805.1.739.313 1.206.22.468.551.68.34.212.818.212.372 0 .652-.131.286-.132.485-.373.206-.249.34-.592.132-.344.212-.76.08-.417.106-.9.033-.49.033-1.016z"/></g><g style="-inkscape-font-specification:Calibri" aria-label="Total" font-weight="400" font-size="14.277" font-family="Calibri" stroke-width="1.333"><path d="M10.679 169.945q0 .14-.013.242-.014.102-.047.168-.026.058-.073.087-.04.03-.093.03h-2.42v8.202q0 .058-.027.102-.026.044-.093.073-.066.022-.18.037-.106.021-.272.021-.16 0-.272-.021-.113-.015-.18-.037-.066-.03-.093-.073-.026-.044-.026-.102v-8.202H4.47q-.054 0-.1-.03-.04-.029-.067-.087-.026-.066-.046-.169-.013-.102-.013-.24 0-.14.013-.242.02-.11.046-.175.027-.066.067-.095.046-.03.1-.03h5.983q.053 0 .093.03.047.029.073.095.033.065.047.175.013.102.013.241zM17.356 175.318q0 .804-.193 1.484-.192.673-.578 1.162-.379.49-.957.768-.572.27-1.33.27-.738 0-1.29-.24-.545-.242-.91-.703-.366-.46-.546-1.118-.18-.658-.18-1.491 0-.804.187-1.477.193-.68.572-1.17.385-.49.957-.76t1.336-.27q.738 0 1.283.241.552.241.918.702.366.46.545 1.118.186.658.186 1.484zm-1.157.08q0-.533-.093-1.008-.086-.475-.292-.834-.206-.358-.559-.562-.352-.212-.877-.212-.485 0-.838.19-.346.19-.572.54-.226.344-.339.82-.106.474-.106 1.037 0 .541.086 1.016.094.476.3.834.212.35.565.563.352.204.877.204.479 0 .831-.19.353-.19.579-.533.226-.344.332-.82.106-.474.106-1.044zM22.174 178.198q0 .212-.027.337-.027.124-.08.182-.053.059-.16.11-.106.051-.245.08-.133.037-.286.059-.153.022-.306.022-.465 0-.798-.132-.332-.139-.545-.41-.213-.277-.312-.694-.093-.424-.093-.994v-3.845h-.838q-.1 0-.16-.117t-.06-.38q0-.139.014-.234.02-.095.046-.153.027-.066.067-.088.046-.03.1-.03h.83v-1.564q0-.05.02-.095.027-.044.087-.073.066-.036.173-.05.106-.016.266-.016.166 0 .272.015.107.015.166.051.06.03.087.073.027.044.027.095v1.565h1.535q.053 0 .093.029.04.022.067.088.033.058.046.153.014.095.014.234 0 .263-.06.38-.06.117-.16.117H20.42v3.67q0 .68.179 1.03.186.344.658.344.153 0 .273-.03.12-.036.213-.072.093-.037.16-.066.066-.037.119-.037.033 0 .06.022.033.015.046.066.02.051.033.139.014.088.014.22zM28.13 178.688q0 .088-.052.132-.054.043-.147.065-.093.022-.272.022-.173 0-.28-.022-.1-.022-.146-.065-.046-.044-.046-.132v-.658q-.392.46-.878.717-.478.255-1.017.255-.472 0-.858-.138-.378-.132-.651-.388-.266-.256-.419-.629-.146-.372-.146-.848 0-.555.206-.964.206-.41.592-.68.385-.27.944-.402.558-.14 1.256-.14h.825v-.51q0-.381-.074-.673-.073-.293-.239-.483-.16-.197-.419-.292-.259-.103-.638-.103-.405 0-.731.11-.32.102-.565.234-.24.124-.406.234-.16.102-.24.102-.052 0-.092-.03-.04-.028-.073-.087-.027-.058-.04-.146-.014-.095-.014-.205 0-.182.02-.285.027-.11.113-.204.093-.095.313-.22.22-.131.505-.234.286-.11.625-.175.34-.073.685-.073.645 0 1.097.16.452.161.731.476.28.307.406.767t.126 1.075zm-1.09-3.004h-.937q-.452 0-.784.087-.333.08-.552.249-.22.16-.326.395-.1.226-.1.526 0 .512.293.819.3.3.831.3.432 0 .798-.242.372-.241.778-.738zM31.242 178.68q0 .06-.026.103-.027.037-.087.066-.06.03-.166.044-.106.014-.273.014-.16 0-.266-.014-.106-.015-.172-.044-.06-.03-.087-.066-.02-.044-.02-.102v-9.766q0-.059.02-.103.027-.044.087-.073.066-.03.172-.044.107-.014.266-.014.167 0 .273.014.106.015.166.044.06.03.087.073.026.044.026.103z"/></g><g style="-inkscape-font-specification:Calibri" aria-label="50" font-weight="400" font-size="14.277" font-family="Calibri" stroke-width="1.333"><path d="M150.57 175.823q0 .76-.234 1.352-.232.592-.658 1.001-.425.402-1.017.614-.585.212-1.303.212-.399 0-.758-.065-.359-.059-.638-.147-.28-.095-.459-.182-.18-.088-.232-.14-.047-.05-.067-.094-.02-.044-.04-.103-.013-.065-.02-.16-.006-.095-.006-.227 0-.124.006-.22.014-.102.04-.16.027-.066.06-.095.04-.03.086-.03.067 0 .206.096.14.087.373.197.24.102.585.197.352.095.83.095.446 0 .819-.117.372-.117.638-.365.272-.249.425-.621.153-.38.153-.921 0-.454-.133-.797-.126-.351-.399-.578-.266-.234-.678-.343-.412-.117-.984-.117-.405 0-.698.044-.292.043-.545.043-.186 0-.266-.095-.08-.095-.08-.365v-3.852q0-.242.1-.359.106-.117.3-.117h3.809q.053 0 .1.037.053.03.086.095.033.066.046.168.02.102.02.241 0 .263-.066.41-.067.146-.186.146h-3.211v2.653q.232-.036.472-.044.246-.007.565-.007.738 0 1.29.198.551.19.917.548.372.35.558.855.193.504.193 1.118zM157.85 174.112q0 1.09-.159 1.988-.153.9-.519 1.55-.359.643-.944 1.002-.585.35-1.442.35-.811 0-1.37-.314-.552-.322-.89-.936-.34-.62-.486-1.52-.14-.907-.14-2.076 0-1.082.16-1.981.16-.907.519-1.55.359-.65.944-1.001.585-.359 1.436-.359.817 0 1.37.322.558.314.897.936.339.614.478 1.52.147.9.147 2.069zm-1.17.088q0-.71-.046-1.272-.047-.563-.14-.994-.086-.432-.232-.739-.14-.314-.34-.511-.199-.205-.458-.293-.253-.095-.572-.095-.565 0-.917.293-.353.292-.559.804-.2.511-.272 1.199-.074.687-.074 1.476 0 1.06.1 1.806.1.738.313 1.206.22.468.551.68.34.212.818.212.372 0 .652-.132.286-.131.485-.373.206-.248.34-.592.132-.343.212-.76.08-.417.106-.9.033-.489.033-1.015z"/></g><path d="M237.094 178.366q0 .14-.02.234-.02.095-.053.154-.033.058-.08.088-.04.022-.086.022h-4.495q-.046 0-.086-.022-.04-.03-.08-.088-.033-.059-.053-.154-.02-.095-.02-.234 0-.131.02-.226t.047-.154q.033-.065.073-.095.046-.036.1-.036h1.794v-7.193l-1.662 1.089q-.126.073-.206.088-.073.014-.12-.03-.046-.05-.066-.16-.013-.11-.013-.278 0-.124.007-.212.013-.088.033-.146.02-.059.053-.103.04-.044.1-.087l1.981-1.397q.027-.022.066-.036.04-.015.1-.03.06-.014.14-.014.08-.007.2-.007.159 0 .265.014.106.015.166.044.06.022.08.066.02.036.02.08v8.312h1.556q.053 0 .1.036.046.03.073.095.033.059.046.154.02.095.02.227z" style="stroke-width:1.33333" aria-label="1" font-weight="400" font-size="14.277" font-family="Calibri" stroke-width="1.333"/><path d="M80.089 41.333h2.368V1.713h-2.368zM159.561 41.333h2.368V1.713h-2.368zM239.07 41.333h2.369V1.713h-2.368zM318.543 41.333h2.368V1.713h-2.368z" fill-rule="evenodd"/><path d="M80.755 45.346V161.37" fill="none" stroke="#000" stroke-width=".187" stroke-linecap="square" stroke-linejoin="round" stroke-miterlimit="10"/><path d="M80.682 42.446v142.865h1.183V42.446z" fill-rule="evenodd"/><path d="M160.227 45.346V161.37" fill="none" stroke="#000" stroke-width=".187" stroke-linecap="square" stroke-linejoin="round" stroke-miterlimit="10"/><path d="M160.154 42.446v142.865h1.184V42.446z" fill-rule="evenodd"/><path d="M239.737 45.346V161.37" fill="none" stroke="#000" stroke-width=".187" stroke-linecap="square" stroke-linejoin="round" stroke-miterlimit="10"/><path d="M239.662 42.446v142.865h1.184V42.446z" fill-rule="evenodd"/><path d="M319.21 45.346V161.37" fill="none" stroke="#000" stroke-width=".187" stroke-linecap="square" stroke-linejoin="round" stroke-miterlimit="10"/><path d="M319.135 42.446v142.865h1.183V42.446zM399.663 187H401V1.712h-1.337zM0 187h1.985V0H0z" fill-rule="evenodd"/><path d="M80.755 165.439v17.574M160.227 165.439v17.574M239.737 165.439v17.574M319.21 165.439v17.574" fill="none" stroke="#000" stroke-width=".187" stroke-linecap="square" stroke-linejoin="round" stroke-miterlimit="10"/><path d="M1.359 2.576H401V0H1.359zM1.359 43.493H401v-2.166H1.359z" fill-rule="evenodd"/><path d="M3.626 63.41h393.748" fill="none" stroke="#000" stroke-width=".187" stroke-linecap="square" stroke-linejoin="round" stroke-miterlimit="10"/><path d="M1.359 64.63H399.64v-1.302H1.36z" fill-rule="evenodd"/><path d="M3.626 83.099h393.748" fill="none" stroke="#000" stroke-width=".187" stroke-linecap="square" stroke-linejoin="round" stroke-miterlimit="10"/><path d="M1.359 84.32H399.64v-1.302H1.36z" fill-rule="evenodd"/><path d="M3.626 102.789h393.748" fill="none" stroke="#000" stroke-width=".187" stroke-linecap="square" stroke-linejoin="round" stroke-miterlimit="10"/><path d="M1.359 104.01H399.64v-1.302H1.36z" fill-rule="evenodd"/><path d="M3.626 122.479h393.748" fill="none" stroke="#000" stroke-width=".187" stroke-linecap="square" stroke-linejoin="round" stroke-miterlimit="10"/><path d="M1.359 123.7H399.64v-1.303H1.36z" fill-rule="evenodd"/><path d="M3.626 142.169h393.748" fill="none" stroke="#000" stroke-width=".187" stroke-linecap="square" stroke-linejoin="round" stroke-miterlimit="10"/><path d="M1.359 143.39H399.64v-1.303H1.36zM1.359 163.585H401v-2.133H1.359zM1.359 187h398.457v-2.133H1.36z" fill-rule="evenodd"/></svg>