<svg xmlns="http://www.w3.org/2000/svg" width="80.979" height="660"><path style="-inkscape-font-specification:Calibri" d="M35.599 17.803q0 .166-.026.279-.026.113-.07.182-.043.07-.104.105-.052.026-.113.026h-5.88q-.061 0-.114-.026-.052-.035-.104-.105-.043-.07-.07-.182-.026-.113-.026-.279 0-.156.026-.27.027-.112.061-.182.044-.078.096-.113.06-.044.13-.044h2.35V8.635l-2.176 1.296q-.165.087-.27.105-.095.017-.156-.035-.06-.06-.087-.191-.017-.13-.017-.33 0-.149.009-.253.017-.105.043-.174.026-.07.07-.122.052-.052.13-.104l2.592-1.662q.035-.026.087-.043.052-.018.13-.035.079-.017.183-.017.105-.009.261-.009.21 0 .348.017.14.018.218.053.078.026.104.078.026.043.026.096v9.89h2.036q.07 0 .13.043.061.035.096.113.043.07.06.183.027.113.027.27zM45.152 15.194q0 .287-.087.452-.087.165-.243.165h-1.27v2.366q0 .07-.035.122-.035.044-.122.078-.087.035-.226.053-.14.017-.357.017-.209 0-.348-.017-.139-.018-.226-.053-.078-.034-.113-.078-.026-.052-.026-.122v-2.366h-4.645q-.104 0-.174-.026-.07-.026-.13-.095-.053-.07-.079-.2-.017-.13-.017-.34 0-.165.008-.295.01-.13.035-.235.026-.113.07-.209.043-.104.104-.217l4.054-6.837q.043-.07.122-.122.087-.052.217-.087.13-.035.322-.043.191-.018.452-.018.287 0 .496.026.217.018.348.052.13.035.2.096.07.052.07.13v7.185h1.27q.147 0 .234.157.096.148.096.46zM42.1 8.4h-.017l-3.663 6.175h3.68zM54.036 15.507q0 .73-.261 1.305-.261.565-.757.956-.487.392-1.21.592-.721.2-1.652.2-.87 0-1.557-.183-.687-.182-1.166-.539-.478-.357-.73-.878-.253-.522-.253-1.192 0-.53.174-.974.174-.444.496-.818.33-.374.81-.696.478-.33 1.078-.626-.522-.27-.922-.565-.4-.305-.679-.653-.278-.356-.426-.757-.14-.4-.14-.87 0-.59.21-1.104.217-.522.643-.905.435-.382 1.096-.6.67-.226 1.557-.226.853 0 1.47.209.627.2 1.027.556.409.348.6.827.192.478.192 1.026 0 .444-.148.853-.14.408-.418.774-.278.365-.687.687-.4.313-.922.591.617.305 1.096.627.487.321.809.695.33.366.496.783.174.41.174.905zm-1.88-5.776q0-.365-.13-.66-.121-.296-.365-.505-.244-.209-.609-.313-.357-.113-.818-.113-.94 0-1.426.426-.479.426-.479 1.165 0 .34.113.635.122.287.366.548.252.261.626.513.383.244.905.514.878-.453 1.348-1 .47-.549.47-1.21zm.366 5.932q0-.4-.148-.721-.148-.331-.452-.61-.296-.286-.748-.547-.444-.27-1.035-.557-.548.27-.966.54-.409.269-.678.556-.261.287-.4.609-.131.313-.131.696 0 .843.574 1.304.583.461 1.731.461 1.114 0 1.679-.46.574-.47.574-1.27zM35.599 40.845q0 .165-.026.278-.026.113-.07.183-.043.07-.104.104-.052.027-.113.027h-5.88q-.061 0-.114-.027-.052-.034-.104-.104-.043-.07-.07-.183-.026-.113-.026-.278 0-.156.026-.27.027-.113.061-.182.044-.079.096-.113.06-.044.13-.044h2.35v-8.559l-2.176 1.296q-.165.087-.27.105-.095.017-.156-.035-.06-.061-.087-.192-.017-.13-.017-.33 0-.148.009-.252.017-.105.043-.174.026-.07.07-.122.052-.052.13-.104l2.592-1.662q.035-.026.087-.043.052-.018.13-.035.079-.017.183-.017.105-.01.261-.01.21 0 .348.018.14.018.218.052.078.027.104.079.026.043.026.095v9.89h2.036q.07 0 .13.044.061.034.096.113.043.07.06.182.027.114.027.27zM45.152 38.236q0 .287-.087.452-.087.165-.243.165h-1.27v2.366q0 .07-.035.122-.035.043-.122.078t-.226.052q-.14.018-.357.018-.209 0-.348-.018-.139-.017-.226-.052-.078-.035-.113-.078-.026-.052-.026-.122v-2.366h-4.645q-.104 0-.174-.026-.07-.026-.13-.096-.053-.07-.079-.2-.017-.13-.017-.339 0-.165.008-.296.01-.13.035-.234.026-.114.07-.21.043-.104.104-.217l4.054-6.836q.043-.07.122-.122.087-.052.217-.087.13-.035.322-.044.191-.017.452-.017.287 0 .496.026.217.017.348.052.13.035.2.096.07.052.07.13v7.185h1.27q.147 0 .234.157.096.148.096.46zM42.1 31.442h-.017l-3.663 6.176h3.68zM53.862 35.365q0 .73-.087 1.479-.087.748-.296 1.444-.209.687-.565 1.296-.348.6-.888 1.052-.53.453-1.27.714-.73.252-1.705.252-.374 0-.73-.052-.348-.044-.635-.113-.279-.07-.47-.148-.191-.079-.278-.157-.087-.078-.13-.209-.036-.139-.036-.365 0-.191.009-.304.017-.113.044-.174.026-.061.07-.079.051-.026.12-.026.097 0 .27.07.175.06.435.139.27.078.627.148.356.06.8.06.844 0 1.444-.321.609-.33.992-.879.382-.548.574-1.27.191-.721.209-1.522-.461.27-1.105.479-.644.208-1.479.208-.94 0-1.583-.252-.635-.26-1.027-.704-.382-.444-.556-1.053-.166-.609-.166-1.33 0-.749.218-1.418.217-.679.678-1.192.461-.513 1.175-.818.713-.304 1.705-.304.704 0 1.244.183.548.173.948.513.4.33.678.809.279.47.444 1.07.174.6.243 1.304.079.696.079 1.47zm-1.523-.165q0-1.113-.147-1.87-.148-.766-.435-1.235-.287-.47-.705-.679-.417-.208-.965-.208-.566 0-.966.208-.4.2-.661.548-.252.34-.374.774-.122.435-.122.896 0 .513.104.94.114.426.357.722.244.295.635.46.392.157.966.157.652 0 1.26-.191.61-.2 1.053-.522zM35.599 65.855q0 .166-.026.279-.026.113-.07.182-.043.07-.104.105-.052.026-.113.026h-5.88q-.061 0-.114-.026-.052-.035-.104-.105-.043-.07-.07-.182-.026-.113-.026-.279 0-.156.026-.27.027-.112.061-.182.044-.078.096-.113.06-.043.13-.043h2.35v-8.56l-2.176 1.297q-.165.087-.27.104-.095.017-.156-.035-.06-.06-.087-.191-.017-.13-.017-.33 0-.149.009-.253.017-.104.043-.174.026-.07.07-.122.052-.052.13-.104l2.592-1.661q.035-.026.087-.044.052-.017.13-.035.079-.017.183-.017.105-.009.261-.009.21 0 .348.018.14.017.218.052.078.026.104.078.026.044.026.096v9.89h2.036q.07 0 .13.043.061.035.096.113.043.07.06.183.027.113.027.27zM44.622 62.829q0 .904-.305 1.609-.304.704-.861 1.191-.557.479-1.33.731-.766.252-1.706.252-.522 0-.991-.078-.47-.07-.836-.174-.365-.113-.6-.217-.235-.105-.304-.166-.061-.06-.087-.113-.026-.052-.052-.122-.018-.078-.026-.191-.01-.113-.01-.27 0-.147.01-.26.017-.122.052-.192.035-.078.078-.113.052-.035.113-.035.087 0 .27.113.182.105.487.235.313.122.765.235.461.113 1.088.113.582 0 1.07-.14.487-.138.835-.434.356-.296.556-.74.2-.452.2-1.095 0-.54-.174-.948-.165-.418-.521-.688-.348-.278-.888-.408-.539-.14-1.287-.14-.53 0-.913.053-.383.052-.714.052-.243 0-.348-.113-.104-.113-.104-.435v-4.584q0-.287.13-.426.14-.14.392-.14h4.984q.07 0 .13.044.07.035.114.113.043.078.06.2.027.122.027.287 0 .313-.087.487t-.244.174h-4.201v3.158q.304-.044.617-.053.322-.008.74-.008.965 0 1.687.235.722.226 1.2.652.488.418.731 1.018.253.6.253 1.33zM53.688 63.229q0 .774-.27 1.4-.27.618-.774 1.061-.505.444-1.244.687-.74.235-1.67.235-.566 0-1.061-.095-.487-.087-.87-.21-.383-.13-.635-.26-.252-.14-.322-.2-.06-.061-.096-.122-.035-.06-.06-.148-.027-.087-.044-.209-.009-.13-.009-.313 0-.313.061-.435.06-.121.174-.121.078 0 .304.139.235.139.592.304.365.157.844.296.487.14 1.078.14.574 0 1.01-.149.434-.148.73-.417.296-.27.444-.635.148-.374.148-.81 0-.478-.192-.86-.182-.383-.548-.661-.356-.279-.887-.427-.522-.147-1.192-.147h-1.07q-.07 0-.139-.027-.06-.034-.113-.104-.043-.07-.078-.183-.026-.113-.026-.295 0-.166.026-.27.026-.113.07-.174.052-.07.112-.096.061-.034.14-.034h.983q.574 0 1.026-.148.461-.148.774-.426.322-.279.487-.662.174-.391.174-.87 0-.347-.113-.66-.113-.322-.34-.557-.225-.235-.582-.365-.348-.14-.809-.14-.504 0-.93.157-.418.148-.749.322-.33.174-.548.33-.217.148-.304.148-.061 0-.113-.017-.044-.026-.078-.087-.027-.07-.044-.183-.009-.122-.009-.313 0-.13.009-.226.009-.105.035-.174.026-.078.06-.14.035-.06.114-.138.087-.087.339-.244t.618-.304q.374-.157.852-.261.487-.105 1.044-.105.783 0 1.374.2.592.2.983.566.4.365.592.878.2.505.2 1.122 0 .53-.14.992-.139.452-.408.809-.27.348-.661.6-.392.244-.905.34v.017q.583.06 1.061.295.487.226.835.574t.54.818q.2.461.2.992zM35.599 89.285q0 .165-.026.278-.026.113-.07.183-.043.07-.104.104-.052.026-.113.026h-5.88q-.061 0-.114-.026-.052-.035-.104-.104-.043-.07-.07-.183-.026-.113-.026-.278 0-.157.026-.27.027-.113.061-.183.044-.078.096-.113.06-.043.13-.043h2.35v-8.56l-2.176 1.297q-.165.087-.27.104-.095.017-.156-.035-.06-.06-.087-.191-.017-.13-.017-.33 0-.148.009-.253.017-.104.043-.174.026-.07.07-.122.052-.052.13-.104l2.592-1.661q.035-.026.087-.044.052-.017.13-.035.079-.017.183-.017.105-.009.261-.009.21 0 .348.018.14.017.218.052.078.026.104.078.026.044.026.096v9.89h2.036q.07 0 .13.043.061.035.096.113.043.07.06.183.027.113.027.27zM44.622 86.258q0 .904-.305 1.609-.304.704-.861 1.191-.557.479-1.33.731-.766.252-1.706.252-.522 0-.991-.078-.47-.07-.836-.174-.365-.113-.6-.217-.235-.105-.304-.166-.061-.06-.087-.113-.026-.052-.052-.122-.018-.078-.026-.19-.01-.114-.01-.27 0-.148.01-.261.017-.122.052-.192.035-.078.078-.113.052-.035.113-.035.087 0 .27.113.182.105.487.235.313.122.765.235.461.113 1.088.113.582 0 1.07-.139.487-.14.835-.435.356-.296.556-.74.2-.452.2-1.095 0-.54-.174-.948-.165-.418-.521-.687-.348-.279-.888-.41-.539-.138-1.287-.138-.53 0-.913.052t-.714.052q-.243 0-.348-.113-.104-.113-.104-.435v-4.584q0-.287.13-.426.14-.14.392-.14h4.984q.07 0 .13.044.07.035.114.113.043.078.06.2.027.122.027.287 0 .313-.087.487t-.244.174h-4.201v3.158q.304-.044.617-.052.322-.01.74-.01.965 0 1.687.236.722.226 1.2.652.488.418.731 1.018.253.6.253 1.33zM54.253 86.675q0 .287-.087.452-.087.166-.243.166h-1.27v2.366q0 .07-.035.121-.035.044-.122.079-.087.034-.226.052-.14.017-.357.017-.209 0-.348-.017-.139-.018-.226-.052-.078-.035-.113-.079-.026-.052-.026-.121v-2.366h-4.645q-.105 0-.174-.026-.07-.027-.13-.096-.053-.07-.079-.2-.017-.13-.017-.34 0-.165.008-.295.01-.13.035-.235.026-.113.07-.209.043-.104.104-.217l4.054-6.837q.043-.07.122-.122.087-.052.217-.087.13-.034.322-.043.191-.018.452-.018.287 0 .496.027.217.017.348.052.13.034.2.095.07.053.07.13v7.186h1.27q.147 0 .234.156.096.148.096.461zM51.2 79.882h-.017l-3.663 6.176h3.68zM35.599 112.714q0 .165-.026.278-.026.113-.07.183-.043.07-.104.104-.052.026-.113.026h-5.88q-.061 0-.114-.026-.052-.035-.104-.104-.043-.07-.07-.183-.026-.113-.026-.278 0-.157.026-.27.027-.113.061-.183.044-.078.096-.113.06-.043.13-.043h2.35v-8.56l-2.176 1.297q-.165.087-.27.104-.095.018-.156-.035-.06-.06-.087-.191-.017-.13-.017-.33 0-.148.009-.253.017-.104.043-.174.026-.07.07-.122.052-.052.13-.104l2.592-1.661q.035-.026.087-.044.052-.017.13-.035.079-.017.183-.017.105-.009.261-.009.21 0 .348.017.14.018.218.053.078.026.104.078.026.043.026.096v9.89h2.036q.07 0 .13.043.061.035.096.113.043.07.06.183.027.113.027.27zM44.622 109.687q0 .904-.305 1.609-.304.704-.861 1.191-.557.479-1.33.731-.766.252-1.706.252-.522 0-.991-.078-.47-.07-.836-.174-.365-.113-.6-.217-.235-.105-.304-.166-.061-.06-.087-.113-.026-.052-.052-.121-.018-.079-.026-.192-.01-.113-.01-.27 0-.147.01-.26.017-.122.052-.192.035-.078.078-.113.052-.035.113-.035.087 0 .27.113.182.105.487.235.313.122.765.235.461.113 1.088.113.582 0 1.07-.139.487-.14.835-.435.356-.296.556-.74.2-.452.2-1.095 0-.54-.174-.948-.165-.418-.521-.687-.348-.279-.888-.41-.539-.138-1.287-.138-.53 0-.913.052t-.714.052q-.243 0-.348-.113-.104-.113-.104-.435v-4.584q0-.287.13-.426.14-.14.392-.14h4.984q.07 0 .13.044.07.035.114.113.043.079.06.2.027.122.027.287 0 .314-.087.487-.087.174-.244.174h-4.201v3.158q.304-.044.617-.052.322-.01.74-.01.965 0 1.687.236.722.226 1.2.652.488.417.731 1.018.253.6.253 1.33zM53.723 109.687q0 .904-.305 1.609-.304.704-.861 1.191-.557.479-1.331.731-.765.252-1.705.252-.522 0-.992-.078-.47-.07-.835-.174-.365-.113-.6-.217-.235-.105-.304-.166-.061-.06-.087-.113-.026-.052-.052-.121-.018-.079-.027-.192-.008-.113-.008-.27 0-.147.008-.26.018-.122.053-.192.034-.078.078-.113.052-.035.113-.035.087 0 .27.113.182.105.487.235.313.122.765.235.461.113 1.088.113.582 0 1.07-.139.487-.14.835-.435.356-.296.556-.74.2-.452.2-1.095 0-.54-.174-.948-.165-.418-.522-.687-.347-.279-.887-.41-.54-.138-1.287-.138-.53 0-.914.052-.382.052-.713.052-.243 0-.348-.113-.104-.113-.104-.435v-4.584q0-.287.13-.426.14-.14.392-.14h4.984q.07 0 .13.044.07.035.114.113.043.079.06.2.027.122.027.287 0 .314-.087.487-.087.174-.244.174h-4.201v3.158q.304-.044.617-.052.322-.01.74-.01.965 0 1.687.236.722.226 1.2.652.488.417.731 1.018.252.6.252 1.33zM35.599 136.143q0 .165-.026.278-.026.113-.07.183-.043.07-.104.104-.052.026-.113.026h-5.88q-.061 0-.114-.026-.052-.035-.104-.104-.043-.07-.07-.183-.026-.113-.026-.278 0-.157.026-.27.027-.113.061-.183.044-.078.096-.113.06-.043.13-.043h2.35v-8.56l-2.176 1.297q-.165.087-.27.104-.095.018-.156-.035-.06-.06-.087-.19-.017-.131-.017-.331 0-.148.009-.253.017-.104.043-.174.026-.07.07-.121.052-.053.13-.105l2.592-1.661q.035-.026.087-.044.052-.017.13-.034.079-.018.183-.018.105-.009.261-.009.21 0 .348.018.14.017.218.052.078.026.104.078.026.044.026.096v9.89h2.036q.07 0 .13.043.061.035.096.113.043.07.06.183.027.113.027.27zM44.622 133.116q0 .904-.305 1.609-.304.704-.861 1.192-.557.478-1.33.73-.766.252-1.706.252-.522 0-.991-.078-.47-.07-.836-.174-.365-.113-.6-.217-.235-.105-.304-.165-.061-.061-.087-.114-.026-.052-.052-.121-.018-.079-.026-.192-.01-.113-.01-.27 0-.147.01-.26.017-.122.052-.192.035-.078.078-.113.052-.035.113-.035.087 0 .27.114.182.104.487.234.313.122.765.235.461.113 1.088.113.582 0 1.07-.139.487-.139.835-.435.356-.296.556-.74.2-.451.2-1.095 0-.54-.174-.948-.165-.418-.521-.687-.348-.279-.888-.41-.539-.138-1.287-.138-.53 0-.913.052t-.714.052q-.243 0-.348-.113-.104-.113-.104-.435v-4.584q0-.287.13-.426.14-.14.392-.14h4.984q.07 0 .13.044.07.035.114.113.043.079.06.2.027.122.027.287 0 .314-.087.488t-.244.174h-4.201v3.157q.304-.044.617-.052.322-.01.74-.01.965 0 1.687.236.722.226 1.2.652.488.417.731 1.018.253.6.253 1.33zM54.062 133.09q0 .739-.226 1.435-.227.687-.696 1.218-.47.522-1.192.843-.722.313-1.705.313-.705 0-1.244-.173-.54-.174-.94-.496-.4-.322-.67-.792-.26-.47-.425-1.07-.157-.6-.226-1.313-.07-.713-.07-1.531 0-.722.078-1.461.079-.74.279-1.427t.539-1.287q.348-.609.861-1.053.522-.452 1.244-.713.722-.26 1.679-.26.322 0 .652.043.33.035.61.104.277.061.469.14.191.078.252.13.061.043.087.104.035.052.052.122.018.06.026.148.009.078.009.2 0 .156-.009.27 0 .113-.034.182-.027.07-.079.104-.043.035-.122.035-.095 0-.26-.06-.166-.062-.4-.131-.235-.078-.575-.14-.33-.06-.774-.06-.809 0-1.392.33-.582.33-.957.888-.365.556-.548 1.296-.173.73-.2 1.53.227-.13.505-.26.287-.13.618-.235.339-.105.713-.166.374-.07.8-.07.913 0 1.54.253.626.244 1.009.687.391.435.556 1.035.166.592.166 1.288zm-1.514.139q0-.505-.104-.913-.096-.418-.33-.705-.236-.287-.627-.444-.391-.156-.966-.156-.321 0-.643.06-.322.053-.627.157-.295.096-.574.235-.27.13-.495.287 0 1.122.139 1.879.148.757.417 1.218.279.452.687.652.41.191.957.191.557 0 .966-.208.409-.21.678-.557.27-.357.392-.792.13-.443.13-.904zM35.599 159.572q0 .165-.026.278-.026.113-.07.183-.043.07-.104.104-.052.026-.113.026h-5.88q-.061 0-.114-.026-.052-.035-.104-.104-.043-.07-.07-.183-.026-.113-.026-.278 0-.157.026-.27.027-.113.061-.182.044-.079.096-.114.06-.043.13-.043h2.35v-8.56l-2.176 1.297q-.165.087-.27.104-.095.018-.156-.034-.06-.061-.087-.192-.017-.13-.017-.33 0-.148.009-.253.017-.104.043-.174.026-.07.07-.121.052-.053.13-.105l2.592-1.661q.035-.026.087-.044.052-.017.13-.034.079-.018.183-.018.105-.009.261-.009.21 0 .348.018.14.017.218.052.078.026.104.078.026.044.026.096v9.89h2.036q.07 0 .13.043.061.035.096.113.043.07.06.183.027.113.027.27zM44.622 156.545q0 .904-.305 1.609-.304.705-.861 1.192-.557.478-1.33.73-.766.253-1.706.253-.522 0-.991-.079-.47-.07-.836-.174-.365-.113-.6-.217-.235-.105-.304-.165-.061-.061-.087-.113-.026-.053-.052-.122-.018-.079-.026-.192-.01-.113-.01-.27 0-.147.01-.26.017-.122.052-.192.035-.078.078-.113.052-.034.113-.034.087 0 .27.113.182.104.487.234.313.122.765.235.461.113 1.088.113.582 0 1.07-.139.487-.139.835-.435.356-.295.556-.739.2-.452.2-1.096 0-.54-.174-.948-.165-.418-.521-.687-.348-.279-.888-.41-.539-.138-1.287-.138-.53 0-.913.052t-.714.052q-.243 0-.348-.113-.104-.113-.104-.435v-4.584q0-.287.13-.426.14-.14.392-.14h4.984q.07 0 .13.044.07.035.114.113.043.079.06.2.027.122.027.288 0 .313-.087.487t-.244.174h-4.201v3.157q.304-.043.617-.052.322-.01.74-.01.965 0 1.687.236.722.226 1.2.652.488.418.731 1.018.253.6.253 1.33zM53.862 154.092q0 .73-.087 1.479-.087.748-.296 1.444-.209.687-.565 1.296-.348.6-.888 1.052-.53.452-1.27.713-.73.253-1.705.253-.374 0-.73-.053-.348-.043-.635-.113-.279-.07-.47-.148-.191-.078-.278-.156-.087-.078-.13-.209-.036-.14-.036-.365 0-.192.009-.305.017-.113.044-.174.026-.06.07-.078.051-.026.12-.026.097 0 .27.07.175.06.435.139.27.078.627.148.356.06.8.06.844 0 1.444-.321.609-.33.992-.879.382-.548.574-1.27.191-.722.209-1.522-.461.27-1.105.478-.644.21-1.479.21-.94 0-1.583-.253-.635-.261-1.027-.705-.382-.443-.556-1.052-.166-.609-.166-1.33 0-.749.218-1.419.217-.678.678-1.191.461-.514 1.175-.818.713-.304 1.705-.304.704 0 1.244.182.548.174.948.513.4.331.678.81.279.47.444 1.07.174.6.243 1.304.079.696.079 1.47zm-1.523-.165q0-1.114-.147-1.87-.148-.766-.435-1.236-.287-.47-.705-.678-.417-.209-.965-.209-.566 0-.966.209-.4.2-.661.548-.252.34-.374.774-.122.435-.122.896 0 .513.104.94.114.426.357.721.244.296.635.461.392.157.966.157.652 0 1.26-.191.61-.2 1.053-.522zM35.599 183q0 .166-.026.28-.026.112-.07.182-.043.07-.104.104-.052.026-.113.026h-5.88q-.061 0-.114-.026-.052-.035-.104-.104-.043-.07-.07-.183-.026-.113-.026-.278 0-.157.026-.27.027-.113.061-.182.044-.079.096-.113.06-.044.13-.044h2.35v-8.559l-2.176 1.296q-.165.087-.27.104-.095.018-.156-.034-.06-.061-.087-.192-.017-.13-.017-.33 0-.148.009-.252.017-.105.043-.174.026-.07.07-.122.052-.052.13-.105l2.592-1.661q.035-.026.087-.043.052-.018.13-.035.079-.018.183-.018.105-.009.261-.009.21 0 .348.018.14.017.218.052.078.026.104.078.026.044.026.096v9.89h2.036q.07 0 .13.043.061.035.096.113.043.07.06.183.027.113.027.27zM44.96 179.948q0 .74-.225 1.435-.227.687-.696 1.218-.47.522-1.192.844-.722.313-1.705.313-.704 0-1.244-.174t-.94-.496q-.4-.322-.669-.792-.261-.47-.426-1.07-.157-.6-.226-1.313-.07-.713-.07-1.53 0-.723.078-1.462.079-.74.279-1.427t.539-1.287q.348-.609.861-1.052.522-.453 1.244-.714.722-.26 1.679-.26.322 0 .652.043.33.035.61.104.277.061.469.14.191.078.252.13.061.043.087.104.035.052.052.122.018.061.026.148.01.078.01.2 0 .157-.01.27 0 .113-.034.182-.026.07-.079.105-.043.034-.121.034-.096 0-.261-.06-.166-.061-.4-.13-.235-.08-.575-.14-.33-.061-.774-.061-.809 0-1.392.33-.582.331-.956.888-.366.556-.548 1.296-.174.73-.2 1.53.226-.13.504-.26.287-.13.618-.235.339-.104.713-.165.374-.07.8-.07.913 0 1.54.252.626.244 1.009.687.391.435.557 1.036.165.591.165 1.287zm-1.513.139q0-.504-.104-.913-.096-.418-.33-.705-.236-.287-.627-.443-.391-.157-.966-.157-.321 0-.643.06-.322.053-.627.157-.295.096-.574.235-.27.13-.495.287 0 1.122.139 1.88.148.756.417 1.217.279.452.687.652.41.192.957.192.557 0 .966-.21.409-.208.678-.556.27-.356.392-.791.13-.444.13-.905zM54.149 177.939q0 1.296-.209 2.365-.2 1.07-.679 1.844-.47.766-1.235 1.192-.765.418-1.887.418-1.062 0-1.792-.374-.722-.383-1.166-1.114-.443-.74-.635-1.809-.182-1.079-.182-2.47 0-1.288.208-2.357.209-1.079.679-1.844.47-.775 1.235-1.192.765-.426 1.879-.426 1.07 0 1.792.382.73.374 1.174 1.114.444.73.626 1.809.192 1.07.192 2.462zm-1.531.104q0-.844-.061-1.514t-.183-1.182q-.113-.514-.304-.879-.183-.374-.444-.609-.26-.243-.6-.348-.33-.113-.748-.113-.74 0-1.2.348-.462.348-.731.957-.261.609-.357 1.426-.096.818-.096 1.757 0 1.262.13 2.149.131.878.41 1.435.287.557.722.809.443.252 1.07.252.487 0 .852-.156.374-.157.635-.444.27-.296.444-.705.174-.408.278-.904.105-.496.14-1.07.043-.583.043-1.209zM35.599 206.43q0 .165-.026.278-.026.113-.07.183-.043.07-.104.104-.052.026-.113.026h-5.88q-.061 0-.114-.026-.052-.034-.104-.104-.043-.07-.07-.183-.026-.113-.026-.278 0-.157.026-.27.027-.113.061-.182.044-.079.096-.113.06-.044.13-.044h2.35v-8.559l-2.176 1.296q-.165.087-.27.105-.095.017-.156-.035-.06-.061-.087-.192-.017-.13-.017-.33 0-.148.009-.252.017-.105.043-.174.026-.07.07-.122.052-.052.13-.105l2.592-1.66q.035-.027.087-.044.052-.018.13-.035.079-.018.183-.018.105-.009.261-.009.21 0 .348.018.14.017.218.052.078.026.104.078.026.044.026.096v9.89h2.036q.07 0 .13.043.061.035.096.113.043.07.06.183.027.113.027.27zM44.96 203.377q0 .74-.225 1.435-.227.687-.696 1.218-.47.522-1.192.844-.722.313-1.705.313-.704 0-1.244-.174t-.94-.496q-.4-.322-.669-.792-.261-.47-.426-1.07-.157-.6-.226-1.313-.07-.713-.07-1.53 0-.723.078-1.462.079-.74.279-1.427t.539-1.287q.348-.609.861-1.052.522-.453 1.244-.714.722-.26 1.679-.26.322 0 .652.043.33.035.61.104.277.061.469.14.191.078.252.13.061.043.087.104.035.053.052.122.018.061.026.148.01.078.01.2 0 .157-.01.27 0 .113-.034.182-.026.07-.079.105-.043.035-.121.035-.096 0-.261-.061-.166-.061-.4-.13-.235-.08-.575-.14-.33-.06-.774-.06-.809 0-1.392.33-.582.33-.956.887-.366.557-.548 1.296-.174.73-.2 1.53.226-.13.504-.26.287-.13.618-.235.339-.104.713-.165.374-.07.8-.07.913 0 1.54.252.626.244 1.009.688.391.434.557 1.035.165.591.165 1.287zm-1.513.14q0-.505-.104-.914-.096-.418-.33-.705-.236-.287-.627-.443-.391-.157-.966-.157-.321 0-.643.061-.322.052-.627.157-.295.095-.574.234-.27.13-.495.287 0 1.122.139 1.88.148.756.417 1.217.279.452.687.652.41.192.957.192.557 0 .966-.21.409-.208.678-.556.27-.356.392-.791.13-.444.13-.905zM53.8 206.43q0 .165-.025.278-.026.113-.07.183-.043.07-.104.104-.052.026-.113.026h-5.88q-.061 0-.114-.026-.052-.034-.104-.104-.044-.07-.07-.183-.026-.113-.026-.278 0-.157.026-.27.026-.113.061-.182.044-.079.096-.113.06-.044.13-.044h2.349v-8.559l-2.175 1.296q-.165.087-.27.105-.095.017-.156-.035-.06-.061-.087-.192-.017-.13-.017-.33 0-.148.008-.252.018-.105.044-.174.026-.07.07-.122.052-.052.13-.105l2.592-1.66q.035-.027.087-.044.052-.018.13-.035.079-.018.183-.018.105-.009.261-.009.21 0 .348.018.14.017.218.052.078.026.104.078.026.044.026.096v9.89h2.036q.07 0 .13.043.061.035.096.113.043.07.06.183.027.113.027.27zM35.599 229.86q0 .164-.026.277-.026.113-.07.183-.043.07-.104.104-.052.027-.113.027h-5.88q-.061 0-.114-.027-.052-.034-.104-.104-.043-.07-.07-.183-.026-.113-.026-.278 0-.156.026-.27.027-.113.061-.182.044-.079.096-.113.06-.044.13-.044h2.35v-8.559l-2.176 1.296q-.165.087-.27.105-.095.017-.156-.035-.06-.061-.087-.192-.017-.13-.017-.33 0-.148.009-.252.017-.105.043-.174.026-.07.07-.122.052-.052.13-.104l2.592-1.662q.035-.026.087-.043.052-.018.13-.035.079-.017.183-.017.105-.01.261-.01.21 0 .348.018.14.017.218.052.078.026.104.078.026.044.026.096v9.89h2.036q.07 0 .13.043.061.035.096.113.043.07.06.183.027.113.027.27zM44.96 226.806q0 .74-.225 1.435-.227.687-.696 1.218-.47.522-1.192.844-.722.313-1.705.313-.704 0-1.244-.174t-.94-.496q-.4-.322-.669-.791-.261-.47-.426-1.07-.157-.6-.226-1.314-.07-.713-.07-1.53 0-.723.078-1.462.079-.74.279-1.426.2-.688.539-1.288.348-.609.861-1.052.522-.453 1.244-.713.722-.261 1.679-.261.322 0 .652.043.33.035.61.104.277.061.469.14.191.078.252.13.061.044.087.104.035.053.052.122.018.061.026.148.01.078.01.2 0 .157-.01.27 0 .113-.034.182-.026.07-.079.105-.043.035-.121.035-.096 0-.261-.061-.166-.061-.4-.13-.235-.079-.575-.14-.33-.06-.774-.06-.809 0-1.392.33-.582.33-.956.887-.366.557-.548 1.296-.174.73-.2 1.53.226-.13.504-.26.287-.13.618-.235.339-.104.713-.165.374-.07.8-.07.913 0 1.54.252.626.244 1.009.688.391.434.557 1.035.165.591.165 1.287zm-1.513.14q0-.505-.104-.914-.096-.418-.33-.705-.236-.287-.627-.443-.391-.157-.966-.157-.321 0-.643.061-.322.052-.627.157-.295.095-.574.234-.27.13-.495.288 0 1.122.139 1.878.148.757.417 1.218.279.452.687.652.41.192.957.192.557 0 .966-.209.409-.209.678-.557.27-.356.392-.791.13-.444.13-.905zM53.775 229.807q0 .156-.026.278-.018.122-.061.209-.035.078-.105.122-.06.035-.139.035h-6.22q-.121 0-.217-.027-.087-.034-.156-.104-.061-.07-.096-.2-.026-.13-.026-.322 0-.174.009-.304.017-.13.06-.226.044-.105.105-.2.07-.105.174-.218l2.183-2.314q.757-.8 1.21-1.435.46-.635.704-1.157.252-.522.33-.948.079-.426.079-.8 0-.374-.122-.705-.122-.339-.357-.591-.226-.252-.574-.4-.348-.148-.8-.148-.53 0-.957.148-.418.148-.74.322-.313.174-.53.322-.209.147-.313.147-.061 0-.113-.034-.044-.035-.078-.113-.027-.079-.044-.21-.017-.13-.017-.312 0-.13.008-.227.009-.095.026-.165.026-.07.061-.13.035-.061.14-.148.104-.096.356-.252.261-.157.644-.305.391-.156.852-.26.47-.105.983-.105.818 0 1.427.235.617.226 1.018.626.408.4.608.93.2.531.2 1.131 0 .54-.095 1.079-.096.53-.409 1.157-.304.617-.887 1.383-.583.757-1.549 1.748l-1.783 1.862h4.897q.07 0 .13.043.07.035.114.113.052.079.07.2.026.113.026.27zM35.599 253.288q0 .165-.026.279-.026.113-.07.182-.043.07-.104.105-.052.026-.113.026h-5.88q-.061 0-.114-.026-.052-.035-.104-.105-.043-.07-.07-.182-.026-.114-.026-.279 0-.156.026-.27.027-.113.061-.182.044-.078.096-.113.06-.044.13-.044h2.35v-8.559l-2.176 1.296q-.165.087-.27.105-.095.017-.156-.035-.06-.061-.087-.191-.017-.13-.017-.331 0-.148.009-.252.017-.105.043-.174.026-.07.07-.122.052-.052.13-.104l2.592-1.662q.035-.026.087-.043.052-.018.13-.035.079-.017.183-.017.105-.01.261-.01.21 0 .348.018.14.017.218.052.078.026.104.078.026.044.026.096v9.89h2.036q.07 0 .13.044.061.034.096.113.043.07.06.182.027.113.027.27zM44.96 250.235q0 .74-.225 1.435-.227.687-.696 1.218-.47.522-1.192.844-.722.313-1.705.313-.704 0-1.244-.174t-.94-.496q-.4-.322-.669-.791-.261-.47-.426-1.07-.157-.6-.226-1.314-.07-.713-.07-1.53 0-.723.078-1.462.079-.74.279-1.426.2-.688.539-1.288.348-.609.861-1.052.522-.452 1.244-.713.722-.261 1.679-.261.322 0 .652.043.33.035.61.105.277.06.469.139.191.078.252.13.061.044.087.105.035.052.052.121.018.061.026.148.01.078.01.2 0 .157-.01.27 0 .113-.034.183-.026.07-.079.104-.043.035-.121.035-.096 0-.261-.061-.166-.061-.4-.13-.235-.079-.575-.14-.33-.06-.774-.06-.809 0-1.392.33-.582.33-.956.887-.366.557-.548 1.296-.174.73-.2 1.53.226-.13.504-.26.287-.13.618-.235.339-.104.713-.165.374-.07.8-.07.913 0 1.54.253.626.243 1.009.687.391.435.557 1.035.165.591.165 1.287zm-1.513.14q0-.505-.104-.914-.096-.418-.33-.705-.236-.287-.627-.443-.391-.157-.966-.157-.321 0-.643.061-.322.052-.627.157-.295.095-.574.235-.27.13-.495.287 0 1.122.139 1.878.148.757.417 1.218.279.452.687.653.41.19.957.19.557 0 .966-.208.409-.209.678-.557.27-.356.392-.791.13-.444.13-.905zM53.688 250.661q0 .774-.27 1.4-.27.618-.774 1.062-.505.444-1.244.687-.74.235-1.67.235-.566 0-1.061-.096-.487-.087-.87-.209-.383-.13-.635-.26-.252-.14-.322-.2-.06-.061-.096-.122-.035-.061-.06-.148-.027-.087-.044-.209-.009-.13-.009-.313 0-.313.061-.435.06-.122.174-.122.078 0 .304.14.235.139.592.304.365.156.844.296.487.139 1.078.139.574 0 1.01-.148.434-.148.73-.418t.444-.635q.148-.374.148-.809 0-.478-.192-.86-.182-.383-.548-.662-.356-.278-.887-.426-.522-.148-1.192-.148h-1.07q-.07 0-.139-.026-.06-.035-.113-.104-.043-.07-.078-.183-.026-.113-.026-.296 0-.165.026-.27.026-.112.07-.173.052-.07.112-.096.061-.035.14-.035h.983q.574 0 1.026-.148.461-.147.774-.426.322-.278.487-.66.174-.392.174-.87 0-.349-.113-.662-.113-.322-.34-.556-.225-.235-.582-.366-.348-.139-.809-.139-.504 0-.93.157-.418.147-.749.321-.33.174-.548.331-.217.148-.304.148-.061 0-.113-.018-.044-.026-.078-.087-.027-.07-.044-.182-.009-.122-.009-.313 0-.13.009-.227.009-.104.035-.173.026-.079.06-.14.035-.06.114-.139.087-.087.339-.243.252-.157.618-.305.374-.156.852-.26.487-.105 1.044-.105.783 0 1.374.2.592.2.983.565.4.366.592.879.2.504.2 1.122 0 .53-.14.991-.139.453-.408.81-.27.347-.661.6-.392.243-.905.339v.017q.583.061 1.061.296.487.226.835.574t.54.818q.2.46.2.991zM35.599 276.717q0 .166-.026.279-.026.113-.07.182-.043.07-.104.105-.052.026-.113.026h-5.88q-.061 0-.114-.026-.052-.035-.104-.105-.043-.07-.07-.182-.026-.113-.026-.279 0-.156.026-.27.027-.112.061-.182.044-.078.096-.113.06-.044.13-.044h2.35v-8.559l-2.176 1.296q-.165.087-.27.105-.095.017-.156-.035-.06-.06-.087-.191-.017-.13-.017-.33 0-.149.009-.253.017-.105.043-.174.026-.07.07-.122.052-.052.13-.104l2.592-1.662q.035-.026.087-.043.052-.018.13-.035.079-.017.183-.017.105-.01.261-.01.21 0 .348.018.14.017.218.052.078.026.104.079.026.043.026.095v9.89h2.036q.07 0 .13.044.061.034.096.113.043.07.06.182.027.113.027.27zM44.96 273.664q0 .74-.225 1.435-.227.688-.696 1.218-.47.522-1.192.844-.722.313-1.705.313-.704 0-1.244-.174t-.94-.496q-.4-.322-.669-.791-.261-.47-.426-1.07-.157-.6-.226-1.314-.07-.713-.07-1.53 0-.722.078-1.462.079-.74.279-1.426.2-.687.539-1.288.348-.608.861-1.052.522-.452 1.244-.713.722-.261 1.679-.261.322 0 .652.043.33.035.61.105.277.06.469.139.191.078.252.13.061.044.087.105.035.052.052.121.018.061.026.148.01.079.01.2 0 .157-.01.27 0 .113-.034.183-.026.07-.079.104-.043.035-.121.035-.096 0-.261-.061-.166-.061-.4-.13-.235-.079-.575-.14-.33-.06-.774-.06-.809 0-1.392.33-.582.33-.956.887-.366.557-.548 1.296-.174.73-.2 1.531.226-.13.504-.26.287-.131.618-.236.339-.104.713-.165.374-.07.8-.07.913 0 1.54.253.626.243 1.009.687.391.435.557 1.035.165.591.165 1.287zm-1.513.14q0-.505-.104-.914-.096-.417-.33-.704-.236-.288-.627-.444-.391-.157-.966-.157-.321 0-.643.061-.322.052-.627.157-.295.096-.574.235-.27.13-.495.287 0 1.122.139 1.879.148.756.417 1.217.279.453.687.653.41.191.957.191.557 0 .966-.209.409-.209.678-.556.27-.357.392-.792.13-.444.13-.905zM54.253 274.108q0 .287-.087.452-.087.165-.243.165h-1.27v2.366q0 .07-.035.122-.035.044-.122.078-.087.035-.226.053-.14.017-.357.017-.209 0-.348-.017-.139-.018-.226-.053-.078-.034-.113-.078-.026-.052-.026-.122v-2.366h-4.645q-.105 0-.174-.026-.07-.026-.13-.095-.053-.07-.079-.2-.017-.131-.017-.34 0-.165.008-.295.01-.13.035-.235.026-.113.07-.21.043-.103.104-.217l4.054-6.836q.043-.07.122-.122.087-.052.217-.087.13-.035.322-.044.191-.017.452-.017.287 0 .496.026.217.018.348.052.13.035.2.096.07.052.07.13v7.185h1.27q.147 0 .234.157.096.148.096.46zm-3.053-6.793h-.017l-3.663 6.175h3.68zM35.599 300.146q0 .166-.026.279-.026.113-.07.182-.043.07-.104.105-.052.026-.113.026h-5.88q-.061 0-.114-.026-.052-.035-.104-.105-.043-.07-.07-.182-.026-.113-.026-.279 0-.156.026-.27.027-.112.061-.182.044-.078.096-.113.06-.044.13-.044h2.35v-8.559l-2.176 1.296q-.165.087-.27.105-.095.017-.156-.035-.06-.06-.087-.191-.017-.13-.017-.33 0-.149.009-.253.017-.104.043-.174.026-.07.07-.122.052-.052.13-.104l2.592-1.662q.035-.026.087-.043.052-.017.13-.035.079-.017.183-.017.105-.01.261-.01.21 0 .348.018.14.018.218.052.078.026.104.079.026.043.026.095v9.89h2.036q.07 0 .13.044.061.034.096.113.043.07.06.182.027.113.027.27zM44.96 297.093q0 .74-.225 1.435-.227.688-.696 1.218-.47.522-1.192.844-.722.313-1.705.313-.704 0-1.244-.174t-.94-.496q-.4-.322-.669-.791-.261-.47-.426-1.07-.157-.6-.226-1.313-.07-.714-.07-1.531 0-.722.078-1.462.079-.739.279-1.426.2-.687.539-1.287.348-.61.861-1.053.522-.452 1.244-.713.722-.261 1.679-.261.322 0 .652.043.33.035.61.105.277.06.469.139.191.078.252.13.061.044.087.105.035.052.052.121.018.061.026.148.01.079.01.2 0 .157-.01.27 0 .113-.034.183-.026.07-.079.104-.043.035-.121.035-.096 0-.261-.061-.166-.06-.4-.13-.235-.079-.575-.14-.33-.06-.774-.06-.809 0-1.392.33-.582.33-.956.887-.366.557-.548 1.296-.174.73-.2 1.531.226-.13.504-.26.287-.131.618-.236.339-.104.713-.165.374-.07.8-.07.913 0 1.54.253.626.243 1.009.687.391.435.557 1.035.165.591.165 1.287zm-1.513.14q0-.505-.104-.914-.096-.417-.33-.704-.236-.287-.627-.444-.391-.157-.966-.157-.321 0-.643.061-.322.053-.627.157-.295.096-.574.235-.27.13-.495.287 0 1.122.139 1.879.148.756.417 1.217.279.453.687.653.41.191.957.191.557 0 .966-.209.409-.208.678-.556.27-.357.392-.792.13-.444.13-.905zM53.723 297.12q0 .904-.305 1.609-.304.704-.861 1.191-.557.479-1.331.73-.765.253-1.705.253-.522 0-.992-.078-.47-.07-.835-.174-.365-.113-.6-.218-.235-.104-.304-.165-.061-.06-.087-.113-.026-.052-.052-.122-.018-.078-.027-.191-.008-.113-.008-.27 0-.148.008-.26.018-.122.053-.192.034-.078.078-.113.052-.035.113-.035.087 0 .27.113.182.105.487.235.313.122.765.235.461.113 1.088.113.582 0 1.07-.14.487-.138.835-.434.356-.296.556-.74.2-.452.2-1.095 0-.54-.174-.949-.165-.417-.522-.687-.347-.278-.887-.409-.54-.139-1.287-.139-.53 0-.914.053-.382.052-.713.052-.243 0-.348-.113-.104-.113-.104-.435v-4.584q0-.287.13-.426.14-.14.392-.14h4.984q.07 0 .13.044.07.035.114.113.043.078.06.2.027.122.027.287 0 .313-.087.487t-.244.174h-4.201v3.158q.304-.044.617-.053.322-.009.74-.009.965 0 1.687.235.722.226 1.2.653.488.417.731 1.017.252.6.252 1.331zM35.599 323.237q0 .165-.026.278-.026.113-.07.183-.043.07-.104.104-.052.026-.113.026h-5.88q-.061 0-.114-.026-.052-.035-.104-.104-.043-.07-.07-.183-.026-.113-.026-.278 0-.157.026-.27.027-.113.061-.183.044-.078.096-.113.06-.043.13-.043h2.35v-8.56l-2.176 1.297q-.165.087-.27.104-.095.018-.156-.035-.06-.06-.087-.191-.017-.13-.017-.33 0-.148.009-.253.017-.104.043-.174.026-.07.07-.122.052-.052.13-.104l2.592-1.661q.035-.026.087-.044.052-.017.13-.035.079-.017.183-.017.105-.009.261-.009.21 0 .348.017.14.018.218.053.078.026.104.078.026.043.026.096v9.89h2.036q.07 0 .13.043.061.035.096.113.043.07.06.183.027.113.027.27zM44.96 320.184q0 .739-.225 1.435-.227.687-.696 1.217-.47.522-1.192.844-.722.313-1.705.313-.704 0-1.244-.174t-.94-.495q-.4-.322-.669-.792-.261-.47-.426-1.07-.157-.6-.226-1.313-.07-.714-.07-1.531 0-.722.078-1.461.079-.74.279-1.427t.539-1.287q.348-.61.861-1.053.522-.452 1.244-.713.722-.26 1.679-.26.322 0 .652.043.33.034.61.104.277.06.469.14.191.077.252.13.061.043.087.104.035.052.052.122.018.06.026.148.01.078.01.2 0 .156-.01.27 0 .112-.034.182-.026.07-.079.104-.043.035-.121.035-.096 0-.261-.06-.166-.062-.4-.131-.235-.079-.575-.14-.33-.06-.774-.06-.809 0-1.392.33-.582.33-.956.887-.366.557-.548 1.296-.174.731-.2 1.531.226-.13.504-.26.287-.131.618-.235.339-.105.713-.166.374-.07.8-.07.913 0 1.54.253.626.244 1.009.687.391.435.557 1.035.165.592.165 1.288zm-1.513.139q0-.505-.104-.914-.096-.417-.33-.704-.236-.287-.627-.444-.391-.156-.966-.156-.321 0-.643.06-.322.053-.627.157-.295.096-.574.235-.27.13-.495.287 0 1.122.139 1.879.148.757.417 1.218.279.452.687.652.41.191.957.191.557 0 .966-.208.409-.21.678-.557.27-.357.392-.792.13-.443.13-.904zM54.062 320.184q0 .739-.226 1.435-.227.687-.696 1.217-.47.522-1.192.844-.722.313-1.705.313-.705 0-1.244-.174-.54-.174-.94-.495-.4-.322-.67-.792-.26-.47-.425-1.07-.157-.6-.226-1.313-.07-.714-.07-1.531 0-.722.078-1.461.079-.74.279-1.427t.539-1.287q.348-.61.861-1.053.522-.452 1.244-.713.722-.26 1.679-.26.322 0 .652.043.33.034.61.104.277.06.469.14.191.077.252.13.061.043.087.104.035.052.052.122.018.06.026.148.009.078.009.2 0 .156-.009.27 0 .112-.034.182-.027.07-.079.104-.043.035-.122.035-.095 0-.26-.06-.166-.062-.4-.131-.235-.079-.575-.14-.33-.06-.774-.06-.809 0-1.392.33-.582.33-.957.887-.365.557-.548 1.296-.173.731-.2 1.531.227-.13.505-.26.287-.131.618-.235.339-.105.713-.166.374-.07.8-.07.913 0 1.54.253.626.244 1.009.687.391.435.556 1.035.166.592.166 1.288zm-1.514.139q0-.505-.104-.914-.096-.417-.33-.704-.236-.287-.627-.444-.391-.156-.966-.156-.321 0-.643.06-.322.053-.627.157-.295.096-.574.235-.27.13-.495.287 0 1.122.139 1.879.148.757.417 1.218.279.452.687.652.41.191.957.191.557 0 .966-.208.409-.21.678-.557.27-.357.392-.792.13-.443.13-.904zM35.599 348.215q0 .165-.026.278-.026.113-.07.183-.043.07-.104.104-.052.026-.113.026h-5.88q-.061 0-.114-.026-.052-.035-.104-.104-.043-.07-.07-.183-.026-.113-.026-.278 0-.157.026-.27.027-.113.061-.183.044-.078.096-.113.06-.043.13-.043h2.35v-8.56l-2.176 1.297q-.165.087-.27.104-.095.018-.156-.035-.06-.06-.087-.19-.017-.131-.017-.331 0-.148.009-.253.017-.104.043-.174.026-.07.07-.121.052-.053.13-.105l2.592-1.661q.035-.026.087-.044.052-.017.13-.034.079-.018.183-.018.105-.009.261-.009.21 0 .348.018.14.017.218.052.078.026.104.078.026.044.026.096v9.89h2.036q.07 0 .13.043.061.035.096.113.043.07.06.183.027.113.027.27zM44.96 345.162q0 .739-.225 1.435-.227.687-.696 1.218-.47.521-1.192.843-.722.313-1.705.313-.704 0-1.244-.174-.54-.173-.94-.495-.4-.322-.669-.792-.261-.47-.426-1.07-.157-.6-.226-1.313-.07-.713-.07-1.531 0-.722.078-1.461.079-.74.279-1.427t.539-1.287q.348-.609.861-1.053.522-.452 1.244-.713.722-.26 1.679-.26.322 0 .652.043.33.034.61.104.277.061.469.14.191.078.252.13.061.043.087.104.035.052.052.122.018.06.026.148.01.078.01.2 0 .156-.01.27 0 .113-.034.182-.026.07-.079.104-.043.035-.121.035-.096 0-.261-.06-.166-.062-.4-.131-.235-.078-.575-.14-.33-.06-.774-.06-.809 0-1.392.33-.582.33-.956.888-.366.556-.548 1.296-.174.73-.2 1.53.226-.13.504-.26.287-.13.618-.235.339-.105.713-.166.374-.07.8-.07.913 0 1.54.253.626.244 1.009.687.391.435.557 1.035.165.592.165 1.288zm-1.513.139q0-.505-.104-.913-.096-.418-.33-.705-.236-.287-.627-.444-.391-.156-.966-.156-.321 0-.643.06-.322.053-.627.157-.295.096-.574.235-.27.13-.495.287 0 1.122.139 1.879.148.757.417 1.218.279.452.687.652.41.191.957.191.557 0 .966-.208.409-.21.678-.557.27-.357.392-.792.13-.443.13-.904zM53.94 338.194q0 .157-.017.287-.01.122-.035.244-.018.113-.061.226-.035.105-.087.226l-4.054 9.342q-.043.105-.113.174-.06.061-.165.104-.096.035-.252.044-.157.017-.383.017-.296 0-.461-.026-.165-.026-.244-.078-.07-.06-.06-.14.008-.086.06-.2l4.263-9.55h-5.402q-.165 0-.252-.174-.079-.174-.079-.487 0-.165.018-.287.026-.122.07-.2.043-.087.104-.122.06-.043.139-.043h6.559q.121 0 .208.026.096.026.14.104.052.079.078.2.026.122.026.313zM35.599 371.644q0 .165-.026.278-.026.113-.07.183-.043.07-.104.104-.052.026-.113.026h-5.88q-.061 0-.114-.026-.052-.035-.104-.104-.043-.07-.07-.183-.026-.113-.026-.278 0-.157.026-.27.027-.113.061-.183.044-.078.096-.113.06-.043.13-.043h2.35v-8.56l-2.176 1.297q-.165.087-.27.104-.095.018-.156-.034-.06-.061-.087-.192-.017-.13-.017-.33 0-.148.009-.253.017-.104.043-.174.026-.07.07-.121.052-.053.13-.105l2.592-1.661q.035-.026.087-.044.052-.017.13-.034.079-.018.183-.018.105-.009.261-.009.21 0 .348.018.14.017.218.052.078.026.104.078.026.044.026.096v9.89h2.036q.07 0 .13.043.061.035.096.113.043.07.06.183.027.113.027.27zM44.96 368.59q0 .74-.225 1.436-.227.687-.696 1.218-.47.522-1.192.843-.722.314-1.705.314-.704 0-1.244-.174t-.94-.496q-.4-.322-.669-.792-.261-.47-.426-1.07-.157-.6-.226-1.313-.07-.713-.07-1.53 0-.723.078-1.462.079-.74.279-1.427t.539-1.287q.348-.609.861-1.053.522-.452 1.244-.713.722-.26 1.679-.26.322 0 .652.043.33.035.61.104.277.061.469.14.191.078.252.13.061.043.087.104.035.052.052.122.018.06.026.148.01.078.01.2 0 .156-.01.27 0 .113-.034.182-.026.07-.079.105-.043.034-.121.034-.096 0-.261-.06-.166-.061-.4-.131-.235-.078-.575-.14-.33-.06-.774-.06-.809 0-1.392.33-.582.331-.956.888-.366.556-.548 1.296-.174.73-.2 1.53.226-.13.504-.26.287-.13.618-.235.339-.105.713-.165.374-.07.8-.07.913 0 1.54.252.626.244 1.009.687.391.435.557 1.035.165.592.165 1.288zm-1.513.14q0-.505-.104-.913-.096-.418-.33-.705-.236-.287-.627-.444-.391-.156-.966-.156-.321 0-.643.06-.322.053-.627.157-.295.096-.574.235-.27.13-.495.287 0 1.122.139 1.879.148.757.417 1.218.279.452.687.652.41.192.957.192.557 0 .966-.21.409-.208.678-.556.27-.357.392-.791.13-.444.13-.905zM54.036 369.347q0 .731-.261 1.305-.261.566-.757.957-.487.391-1.21.591-.721.2-1.652.2-.87 0-1.557-.182-.687-.183-1.166-.54-.478-.356-.73-.878-.253-.522-.253-1.192 0-.53.174-.974.174-.443.496-.817.33-.374.81-.696.478-.33 1.078-.627-.522-.27-.922-.565-.4-.304-.679-.652-.278-.357-.426-.757-.14-.4-.14-.87 0-.591.21-1.104.217-.522.643-.905.435-.383 1.096-.6.67-.226 1.557-.226.853 0 1.47.208.627.2 1.027.557.409.348.6.826.192.479.192 1.027 0 .443-.148.852-.14.409-.418.774-.278.366-.687.687-.4.314-.922.592.617.304 1.096.626.487.322.809.696.33.365.496.783.174.409.174.904zm-1.88-5.775q0-.365-.13-.661-.121-.296-.365-.505-.244-.208-.609-.313-.357-.113-.818-.113-.94 0-1.426.426-.479.427-.479 1.166 0 .34.113.635.122.287.366.548.252.26.626.513.383.244.905.513.878-.452 1.348-1 .47-.548.47-1.21zm.366 5.932q0-.4-.148-.722-.148-.33-.452-.609-.296-.287-.748-.548-.444-.27-1.035-.556-.548.27-.966.539-.409.27-.678.557-.261.287-.4.608-.131.314-.131.696 0 .844.574 1.305.583.461 1.731.461 1.114 0 1.679-.461.574-.47.574-1.27zM35.599 395.073q0 .165-.026.278-.026.113-.07.183-.043.07-.104.104-.052.026-.113.026h-5.88q-.061 0-.114-.026-.052-.035-.104-.104-.043-.07-.07-.183-.026-.113-.026-.278 0-.157.026-.27.027-.113.061-.182.044-.079.096-.113.06-.044.13-.044h2.35v-8.559l-2.176 1.296q-.165.087-.27.104-.095.018-.156-.034-.06-.061-.087-.192-.017-.13-.017-.33 0-.148.009-.253.017-.104.043-.173.026-.07.07-.122.052-.052.13-.105l2.592-1.661q.035-.026.087-.043.052-.018.13-.035.079-.018.183-.018.105-.009.261-.009.21 0 .348.018.14.017.218.052.078.026.104.078.026.044.026.096v9.89h2.036q.07 0 .13.043.061.035.096.113.043.07.06.183.027.113.027.27zM44.96 392.02q0 .74-.225 1.435-.227.687-.696 1.218-.47.522-1.192.843-.722.314-1.705.314-.704 0-1.244-.174t-.94-.496q-.4-.322-.669-.792-.261-.47-.426-1.07-.157-.6-.226-1.313-.07-.713-.07-1.53 0-.723.078-1.462.079-.74.279-1.427t.539-1.287q.348-.609.861-1.052.522-.453 1.244-.714.722-.26 1.679-.26.322 0 .652.043.33.035.61.104.277.061.469.14.191.078.252.13.061.043.087.104.035.052.052.122.018.06.026.148.01.078.01.2 0 .157-.01.27 0 .113-.034.182-.026.07-.079.105-.043.034-.121.034-.096 0-.261-.06-.166-.061-.4-.13-.235-.08-.575-.14-.33-.061-.774-.061-.809 0-1.392.33-.582.331-.956.888-.366.556-.548 1.296-.174.73-.2 1.53.226-.13.504-.26.287-.13.618-.235.339-.105.713-.165.374-.07.8-.07.913 0 1.54.252.626.244 1.009.687.391.435.557 1.035.165.592.165 1.288zm-1.513.139q0-.504-.104-.913-.096-.418-.33-.705-.236-.287-.627-.443-.391-.157-.966-.157-.321 0-.643.06-.322.053-.627.157-.295.096-.574.235-.27.13-.495.287 0 1.122.139 1.88.148.756.417 1.217.279.452.687.652.41.192.957.192.557 0 .966-.21.409-.208.678-.556.27-.356.392-.791.13-.444.13-.905zM53.862 389.593q0 .73-.087 1.479-.087.748-.296 1.444-.209.687-.565 1.296-.348.6-.888 1.052-.53.452-1.27.713-.73.253-1.705.253-.374 0-.73-.053-.348-.043-.635-.113-.279-.07-.47-.148-.191-.078-.278-.156-.087-.078-.13-.209-.036-.139-.036-.365 0-.192.009-.305.017-.113.044-.174.026-.06.07-.078.051-.026.12-.026.097 0 .27.07.175.06.435.139.27.078.627.148.356.06.8.06.844 0 1.444-.321.609-.33.992-.879.382-.548.574-1.27.191-.722.209-1.522-.461.27-1.105.479-.644.208-1.479.208-.94 0-1.583-.252-.635-.26-1.027-.705-.382-.443-.556-1.052-.166-.609-.166-1.33 0-.749.218-1.419.217-.678.678-1.191.461-.513 1.175-.818.713-.304 1.705-.304.704 0 1.244.182.548.174.948.514.4.33.678.808.279.47.444 1.07.174.6.243 1.305.079.696.079 1.47zm-1.523-.165q0-1.114-.147-1.87-.148-.766-.435-1.235-.287-.47-.705-.679-.417-.209-.965-.209-.566 0-.966.21-.4.2-.661.547-.252.34-.374.774-.122.435-.122.896 0 .513.104.94.114.426.357.721.244.296.635.461.392.157.966.157.652 0 1.26-.191.61-.2 1.053-.522zM35.599 418.502q0 .165-.026.278-.026.113-.07.183-.043.07-.104.104-.052.026-.113.026h-5.88q-.061 0-.114-.026-.052-.034-.104-.104-.043-.07-.07-.183-.026-.113-.026-.278 0-.157.026-.27.027-.113.061-.182.044-.079.096-.113.06-.044.13-.044h2.35v-8.559l-2.176 1.296q-.165.087-.27.104-.095.018-.156-.034-.06-.061-.087-.192-.017-.13-.017-.33 0-.148.009-.252.017-.105.043-.174.026-.07.07-.122.052-.052.13-.105l2.592-1.66q.035-.027.087-.044.052-.018.13-.035.079-.018.183-.018.105-.009.261-.009.21 0 .348.018.14.017.218.052.078.026.104.078.026.044.026.096v9.89h2.036q.07 0 .13.043.061.035.096.113.043.07.06.183.027.113.027.27zM44.839 408.482q0 .156-.017.287-.01.121-.035.243-.018.113-.061.226-.035.105-.087.227l-4.054 9.341q-.043.105-.113.174-.06.061-.165.105-.096.035-.252.043-.157.018-.383.018-.296 0-.46-.026-.166-.027-.245-.079-.07-.06-.06-.139.008-.087.06-.2l4.263-9.55h-5.402q-.165 0-.252-.175-.079-.173-.079-.487 0-.165.018-.287.026-.121.07-.2.043-.087.104-.121.06-.044.139-.044h6.559q.121 0 .208.026.096.026.14.104.052.079.078.2.026.122.026.314zM54.149 413.44q0 1.296-.209 2.366-.2 1.07-.679 1.844-.47.765-1.235 1.191-.765.418-1.887.418-1.062 0-1.792-.374-.722-.383-1.166-1.114-.443-.739-.635-1.809-.182-1.078-.182-2.47 0-1.287.208-2.357.209-1.079.679-1.844.47-.775 1.235-1.192.765-.426 1.879-.426 1.07 0 1.792.382.73.374 1.174 1.114.444.73.626 1.81.192 1.069.192 2.46zm-1.531.104q0-.844-.061-1.513-.061-.67-.183-1.183-.113-.514-.304-.879-.183-.374-.444-.609-.26-.243-.6-.348-.33-.113-.748-.113-.74 0-1.2.348-.462.348-.731.957-.261.609-.357 1.426-.096.818-.096 1.757 0 1.262.13 2.149.131.878.41 1.435.287.557.722.809.443.252 1.07.252.487 0 .852-.156.374-.157.635-.444.27-.296.444-.704.174-.41.278-.905.105-.496.14-1.07.043-.583.043-1.209zM35.599 441.931q0 .165-.026.278-.026.113-.07.183-.043.07-.104.104-.052.027-.113.027h-5.88q-.061 0-.114-.027-.052-.034-.104-.104-.043-.07-.07-.183-.026-.113-.026-.278 0-.156.026-.27.027-.113.061-.182.044-.079.096-.113.06-.044.13-.044h2.35v-8.559l-2.176 1.296q-.165.087-.27.105-.095.017-.156-.035-.06-.061-.087-.192-.017-.13-.017-.33 0-.148.009-.252.017-.105.043-.174.026-.07.07-.122.052-.052.13-.104l2.592-1.662q.035-.026.087-.043.052-.018.13-.035.079-.018.183-.018.105-.009.261-.009.21 0 .348.018.14.017.218.052.078.026.104.078.026.044.026.096v9.89h2.036q.07 0 .13.043.061.035.096.113.043.07.06.183.027.113.027.27zM44.839 431.91q0 .157-.017.288-.01.122-.035.243-.018.113-.061.227-.035.104-.087.226l-4.054 9.342q-.043.104-.113.173-.06.061-.165.105-.096.035-.252.043-.157.018-.383.018-.296 0-.46-.026-.166-.026-.245-.079-.07-.06-.06-.139.008-.087.06-.2l4.263-9.55h-5.402q-.165 0-.252-.174-.079-.174-.079-.488 0-.165.018-.287.026-.121.07-.2.043-.087.104-.121.06-.044.139-.044h6.559q.121 0 .208.026.096.026.14.105.052.078.078.2.026.121.026.313zM53.8 441.931q0 .165-.025.278-.026.113-.07.183-.043.07-.104.104-.052.027-.113.027h-5.88q-.061 0-.114-.027-.052-.034-.104-.104-.044-.07-.07-.183-.026-.113-.026-.278 0-.156.026-.27.026-.113.061-.182.044-.079.096-.113.06-.044.13-.044h2.349v-8.559l-2.175 1.296q-.165.087-.27.105-.095.017-.156-.035-.06-.061-.087-.192-.017-.13-.017-.33 0-.148.008-.252.018-.105.044-.174.026-.07.07-.122.052-.052.13-.104l2.592-1.662q.035-.026.087-.043.052-.018.13-.035.079-.018.183-.018.105-.009.261-.009.21 0 .348.018.14.017.218.052.078.026.104.078.026.044.026.096v9.89h2.036q.07 0 .13.043.061.035.096.113.043.07.06.183.027.113.027.27zM35.599 465.36q0 .165-.026.278-.026.114-.07.183-.043.07-.104.105-.052.026-.113.026h-5.88q-.061 0-.114-.026-.052-.035-.104-.105-.043-.07-.07-.183-.026-.113-.026-.278 0-.156.026-.27.027-.113.061-.182.044-.078.096-.113.06-.044.13-.044h2.35v-8.559l-2.176 1.296q-.165.087-.27.105-.095.017-.156-.035-.06-.061-.087-.191-.017-.131-.017-.331 0-.148.009-.252.017-.105.043-.174.026-.07.07-.122.052-.052.13-.104l2.592-1.662q.035-.026.087-.043.052-.018.13-.035.079-.017.183-.017.105-.01.261-.01.21 0 .348.018.14.017.218.052.078.026.104.078.026.044.026.096v9.89h2.036q.07 0 .13.043.061.035.096.114.043.07.06.182.027.113.027.27zM44.839 455.34q0 .156-.017.287-.01.122-.035.243-.018.114-.061.227-.035.104-.087.226l-4.054 9.342q-.043.104-.113.174-.06.06-.165.104-.096.035-.252.043-.157.018-.383.018-.296 0-.46-.026-.166-.026-.245-.079-.07-.06-.06-.139.008-.087.06-.2l4.263-9.55h-5.402q-.165 0-.252-.174-.079-.174-.079-.487 0-.166.018-.287.026-.122.07-.2.043-.088.104-.122.06-.044.139-.044h6.559q.121 0 .208.026.096.026.14.105.052.078.078.2.026.121.026.313zM53.688 462.733q0 .774-.27 1.4-.27.618-.774 1.062-.505.443-1.244.687-.74.235-1.67.235-.566 0-1.061-.096-.487-.087-.87-.209-.383-.13-.635-.26-.252-.14-.322-.2-.06-.061-.096-.122-.035-.061-.06-.148-.027-.087-.044-.209-.009-.13-.009-.313 0-.313.061-.435.06-.122.174-.122.078 0 .304.14.235.139.592.304.365.156.844.296.487.139 1.078.139.574 0 1.01-.148.434-.148.73-.418t.444-.635q.148-.374.148-.809 0-.478-.192-.86-.182-.383-.548-.662-.356-.278-.887-.426-.522-.148-1.192-.148h-1.07q-.07 0-.139-.026-.06-.035-.113-.104-.043-.07-.078-.183-.026-.113-.026-.296 0-.165.026-.27.026-.112.07-.173.052-.07.112-.096.061-.035.14-.035h.983q.574 0 1.026-.148.461-.148.774-.426.322-.278.487-.66.174-.392.174-.87 0-.349-.113-.662-.113-.322-.34-.556-.225-.235-.582-.366-.348-.139-.809-.139-.504 0-.93.157-.418.147-.749.321-.33.174-.548.331-.217.148-.304.148-.061 0-.113-.018-.044-.026-.078-.087-.027-.07-.044-.182-.009-.122-.009-.313 0-.13.009-.227.009-.104.035-.173.026-.079.06-.14.035-.06.114-.139.087-.087.339-.243.252-.157.618-.305.374-.156.852-.26.487-.105 1.044-.105.783 0 1.374.2.592.2.983.565.4.366.592.879.2.504.2 1.122 0 .53-.14.991-.139.453-.408.81-.27.347-.661.6-.392.243-.905.339v.017q.583.061 1.061.296.487.226.835.574t.54.818q.2.46.2.991zM35.599 488.79q0 .165-.026.278-.026.113-.07.182-.043.07-.104.105-.052.026-.113.026h-5.88q-.061 0-.114-.026-.052-.035-.104-.105-.043-.07-.07-.182-.026-.113-.026-.279 0-.156.026-.27.027-.112.061-.182.044-.078.096-.113.06-.044.13-.044h2.35v-8.559l-2.176 1.296q-.165.087-.27.105-.095.017-.156-.035-.06-.06-.087-.191-.017-.13-.017-.33 0-.149.009-.253.017-.105.043-.174.026-.07.07-.122.052-.052.13-.104l2.592-1.662q.035-.026.087-.043.052-.018.13-.035.079-.017.183-.017.105-.01.261-.01.21 0 .348.018.14.017.218.052.078.026.104.079.026.043.026.095v9.89h2.036q.07 0 .13.044.061.034.096.113.043.07.06.182.027.113.027.27zM44.839 478.769q0 .157-.017.287-.01.122-.035.244-.018.113-.061.226-.035.104-.087.226l-4.054 9.342q-.043.104-.113.174-.06.06-.165.104-.096.035-.252.044-.157.017-.383.017-.296 0-.46-.026-.166-.026-.245-.078-.07-.061-.06-.14.008-.087.06-.2l4.263-9.55h-5.402q-.165 0-.252-.174-.079-.174-.079-.487 0-.166.018-.287.026-.122.07-.2.043-.087.104-.122.06-.044.139-.044h6.559q.121 0 .208.026.096.026.14.105.052.078.078.2.026.122.026.313zM54.253 486.18q0 .287-.087.452-.087.165-.243.165h-1.27v2.366q0 .07-.035.122-.035.044-.122.078-.087.035-.226.053-.14.017-.357.017-.209 0-.348-.017-.139-.018-.226-.053-.078-.034-.113-.078-.026-.052-.026-.122v-2.366h-4.645q-.105 0-.174-.026-.07-.026-.13-.095-.053-.07-.079-.2-.017-.131-.017-.34 0-.165.008-.295.01-.13.035-.235.026-.113.07-.21.043-.103.104-.217l4.054-6.836q.043-.07.122-.122.087-.052.217-.087.13-.035.322-.044.191-.017.452-.017.287 0 .496.026.217.018.348.052.13.035.2.096.07.052.07.13v7.185h1.27q.147 0 .234.157.096.148.096.46zm-3.053-6.793h-.017l-3.663 6.175h3.68zM35.599 512.218q0 .166-.026.279-.026.113-.07.182-.043.07-.104.105-.052.026-.113.026h-5.88q-.061 0-.114-.026-.052-.035-.104-.105-.043-.07-.07-.182-.026-.113-.026-.279 0-.156.026-.27.027-.112.061-.182.044-.078.096-.113.06-.044.13-.044h2.35v-8.559l-2.176 1.296q-.165.087-.27.105-.095.017-.156-.035-.06-.06-.087-.191-.017-.13-.017-.33 0-.149.009-.253.017-.104.043-.174.026-.07.07-.122.052-.052.13-.104l2.592-1.662q.035-.026.087-.043.052-.017.13-.035.079-.017.183-.017.105-.01.261-.01.21 0 .348.018.14.018.218.052.078.026.104.079.026.043.026.095v9.89h2.036q.07 0 .13.044.061.034.096.113.043.07.06.182.027.113.027.27zM44.839 502.198q0 .157-.017.287-.01.122-.035.244-.018.113-.061.226-.035.104-.087.226l-4.054 9.342q-.043.104-.113.174-.06.06-.165.104-.096.035-.252.044-.157.017-.383.017-.296 0-.46-.026-.166-.026-.245-.078-.07-.061-.06-.14.008-.087.06-.2l4.263-9.55h-5.402q-.165 0-.252-.174-.079-.174-.079-.487 0-.166.018-.287.026-.122.07-.2.043-.087.104-.122.06-.044.139-.044h6.559q.121 0 .208.026.096.027.14.105.052.078.078.2.026.122.026.313zM54.062 509.165q0 .74-.226 1.435-.227.688-.696 1.218-.47.522-1.192.844-.722.313-1.705.313-.705 0-1.244-.174-.54-.174-.94-.496-.4-.322-.67-.791-.26-.47-.425-1.07-.157-.6-.226-1.314-.07-.713-.07-1.53 0-.722.078-1.462.079-.739.279-1.426.2-.687.539-1.288.348-.608.861-1.052.522-.452 1.244-.713.722-.261 1.679-.261.322 0 .652.043.33.035.61.105.277.06.469.139.191.078.252.13.061.044.087.105.035.052.052.121.018.061.026.148.009.079.009.2 0 .157-.009.27 0 .113-.034.183-.027.07-.079.104-.043.035-.122.035-.095 0-.26-.061-.166-.06-.4-.13-.235-.079-.575-.14-.33-.06-.774-.06-.809 0-1.392.33-.582.33-.957.887-.365.557-.548 1.296-.173.73-.2 1.531.227-.13.505-.26.287-.131.618-.236.339-.104.713-.165.374-.07.8-.07.913 0 1.54.253.626.243 1.009.687.391.435.556 1.035.166.591.166 1.287zm-1.514.14q0-.505-.104-.914-.096-.417-.33-.704-.236-.287-.627-.444-.391-.157-.966-.157-.321 0-.643.061-.322.053-.627.157-.295.096-.574.235-.27.13-.495.287 0 1.122.139 1.879.148.756.417 1.217.279.453.687.653.41.191.957.191.557 0 .966-.209.409-.208.678-.556.27-.357.392-.792.13-.444.13-.905zM35.599 535.647q0 .166-.026.279-.026.113-.07.182-.043.07-.104.105-.052.026-.113.026h-5.88q-.061 0-.114-.026-.052-.035-.104-.105-.043-.07-.07-.182-.026-.113-.026-.279 0-.156.026-.27.027-.112.061-.182.044-.078.096-.113.06-.043.13-.043h2.35v-8.56l-2.176 1.297q-.165.087-.27.104-.095.017-.156-.035-.06-.06-.087-.191-.017-.13-.017-.33 0-.149.009-.253.017-.104.043-.174.026-.07.07-.122.052-.052.13-.104l2.592-1.661q.035-.027.087-.044.052-.017.13-.035.079-.017.183-.017.105-.01.261-.01.21 0 .348.018.14.018.218.052.078.027.104.079.026.043.026.095v9.89h2.036q.07 0 .13.044.061.035.096.113.043.07.06.182.027.114.027.27zM44.839 525.627q0 .157-.017.287-.01.122-.035.244-.018.113-.061.226-.035.104-.087.226l-4.054 9.342q-.043.104-.113.174-.06.06-.165.104-.096.035-.252.044-.157.017-.383.017-.296 0-.46-.026-.166-.026-.245-.078-.07-.061-.06-.14.008-.086.06-.2l4.263-9.55h-5.402q-.165 0-.252-.174-.079-.174-.079-.487 0-.165.018-.287.026-.122.07-.2.043-.087.104-.122.06-.044.139-.044h6.559q.121 0 .208.027.096.026.14.104.052.078.078.2.026.122.026.313zM53.94 525.627q0 .157-.017.287-.01.122-.035.244-.018.113-.061.226-.035.104-.087.226l-4.054 9.342q-.043.104-.113.174-.06.06-.165.104-.096.035-.252.044-.157.017-.383.017-.296 0-.461-.026-.165-.026-.244-.078-.07-.061-.06-.14.008-.086.06-.2l4.263-9.55h-5.402q-.165 0-.252-.174-.079-.174-.079-.487 0-.165.018-.287.026-.122.07-.2.043-.087.104-.122.06-.044.139-.044h6.559q.121 0 .208.027.096.026.14.104.052.078.078.2.026.122.026.313zM35.599 559.077q0 .165-.026.278-.026.113-.07.183-.043.07-.104.104-.052.026-.113.026h-5.88q-.061 0-.114-.026-.052-.035-.104-.104-.043-.07-.07-.183-.026-.113-.026-.278 0-.157.026-.27.027-.113.061-.183.044-.078.096-.113.06-.043.13-.043h2.35v-8.56l-2.176 1.297q-.165.087-.27.104-.095.017-.156-.035-.06-.06-.087-.191-.017-.13-.017-.33 0-.149.009-.253.017-.104.043-.174.026-.07.07-.122.052-.052.13-.104l2.592-1.661q.035-.026.087-.044.052-.017.13-.035.079-.017.183-.017.105-.01.261-.01.21 0 .348.018.14.018.218.053.078.026.104.078.026.043.026.096v9.89h2.036q.07 0 .13.043.061.035.096.113.043.07.06.183.027.113.027.27zM44.839 549.056q0 .157-.017.287-.01.122-.035.244-.018.113-.061.226-.035.104-.087.226l-4.054 9.342q-.043.104-.113.174-.06.06-.165.104-.096.035-.252.044-.157.017-.383.017-.296 0-.46-.026-.166-.026-.245-.078-.07-.061-.06-.14.008-.086.06-.2l4.263-9.55h-5.402q-.165 0-.252-.174-.079-.174-.079-.487 0-.165.018-.287.026-.122.07-.2.043-.087.104-.122.06-.043.139-.043h6.559q.121 0 .208.026.096.026.14.104.052.078.078.2.026.122.026.313zM54.036 556.78q0 .73-.261 1.305-.261.565-.757.957-.487.391-1.21.591-.721.2-1.652.2-.87 0-1.557-.182-.687-.183-1.166-.54-.478-.356-.73-.878-.253-.522-.253-1.192 0-.53.174-.974.174-.444.496-.818.33-.374.81-.696.478-.33 1.078-.626-.522-.27-.922-.565-.4-.305-.679-.653-.278-.356-.426-.756-.14-.4-.14-.87 0-.592.21-1.105.217-.522.643-.904.435-.383 1.096-.6.67-.227 1.557-.227.853 0 1.47.21.627.2 1.027.556.409.348.6.826.192.478.192 1.026 0 .444-.148.853-.14.409-.418.774-.278.365-.687.687-.4.313-.922.592.617.304 1.096.626.487.322.809.696.33.365.496.783.174.408.174.904zm-1.88-5.775q0-.366-.13-.661-.121-.296-.365-.505-.244-.209-.609-.313-.357-.113-.818-.113-.94 0-1.426.426-.479.426-.479 1.166 0 .339.113.635.122.287.366.548.252.26.626.513.383.243.905.513.878-.452 1.348-1 .47-.548.47-1.21zm.366 5.932q0-.4-.148-.722-.148-.33-.452-.61-.296-.286-.748-.547-.444-.27-1.035-.557-.548.27-.966.54-.409.27-.678.556-.261.287-.4.61-.131.312-.131.695 0 .844.574 1.305.583.46 1.731.46 1.114 0 1.679-.46.574-.47.574-1.27zM35.599 582.506q0 .165-.026.278-.026.113-.07.183-.043.07-.104.104-.052.026-.113.026h-5.88q-.061 0-.114-.026-.052-.035-.104-.104-.043-.07-.07-.183-.026-.113-.026-.278 0-.157.026-.27.027-.113.061-.183.044-.078.096-.113.06-.043.13-.043h2.35v-8.56l-2.176 1.297q-.165.087-.27.104-.095.018-.156-.035-.06-.06-.087-.191-.017-.13-.017-.33 0-.148.009-.253.017-.104.043-.174.026-.07.07-.122.052-.052.13-.104l2.592-1.661q.035-.026.087-.044.052-.017.13-.035.079-.017.183-.017.105-.009.261-.009.21 0 .348.017.14.018.218.053.078.026.104.078.026.043.026.096v9.89h2.036q.07 0 .13.043.061.035.096.113.043.07.06.183.027.113.027.27zM44.935 580.21q0 .73-.261 1.304-.261.565-.757.957-.487.391-1.21.591-.721.2-1.652.2-.87 0-1.557-.182-.687-.183-1.166-.54-.478-.356-.73-.878t-.252-1.192q0-.53.174-.974.173-.444.495-.818.33-.374.81-.695.478-.331 1.078-.627-.522-.27-.922-.565-.4-.305-.679-.652-.278-.357-.426-.757-.139-.4-.139-.87 0-.591.209-1.105.217-.522.643-.904.435-.383 1.096-.6.67-.227 1.558-.227.852 0 1.47.21.626.2 1.026.556.409.348.6.826.192.479.192 1.027 0 .443-.148.852-.14.409-.418.774-.278.365-.687.687-.4.313-.922.592.618.304 1.096.626.487.322.809.696.33.365.496.783.174.408.174.904zm-1.88-5.776q0-.366-.13-.661-.121-.296-.365-.505-.244-.209-.609-.313-.357-.113-.818-.113-.939 0-1.426.426-.479.426-.479 1.166 0 .339.114.635.121.287.365.548.252.26.626.513.383.243.905.513.878-.452 1.348-1 .47-.548.47-1.21zm.366 5.932q0-.4-.148-.722-.148-.33-.452-.609-.296-.287-.748-.548-.444-.27-1.035-.557-.548.27-.966.54-.409.27-.678.556-.261.287-.4.61-.13.312-.13.695 0 .844.573 1.305.583.46 1.731.46 1.114 0 1.679-.46.574-.47.574-1.27zM53.8 582.506q0 .165-.025.278-.026.113-.07.183-.043.07-.104.104-.052.026-.113.026h-5.88q-.061 0-.114-.026-.052-.035-.104-.104-.044-.07-.07-.183-.026-.113-.026-.278 0-.157.026-.27.026-.113.061-.183.044-.078.096-.113.06-.043.13-.043h2.349v-8.56l-2.175 1.297q-.165.087-.27.104-.095.018-.156-.035-.06-.06-.087-.191-.017-.13-.017-.33 0-.148.008-.253.018-.104.044-.174.026-.07.07-.122.052-.052.13-.104l2.592-1.661q.035-.026.087-.044.052-.017.13-.035.079-.017.183-.017.105-.009.261-.009.21 0 .348.017.14.018.218.053.078.026.104.078.026.043.026.096v9.89h2.036q.07 0 .13.043.061.035.096.113.043.07.06.183.027.113.027.27zM35.599 605.967q0 .165-.026.278-.026.113-.07.183-.043.07-.104.104-.052.026-.113.026h-5.88q-.061 0-.114-.026-.052-.034-.104-.104-.043-.07-.07-.183-.026-.113-.026-.278 0-.157.026-.27.027-.113.061-.182.044-.079.096-.113.06-.044.13-.044h2.35V596.8l-2.176 1.296q-.165.087-.27.104-.095.018-.156-.034-.06-.061-.087-.192-.017-.13-.017-.33 0-.148.009-.252.017-.105.043-.174.026-.07.07-.122.052-.052.13-.105l2.592-1.66q.035-.027.087-.044.052-.018.13-.035.079-.018.183-.018.105-.009.261-.009.21 0 .348.018.14.017.218.052.078.026.104.078.026.044.026.096v9.89h2.036q.07 0 .13.043.061.035.096.113.043.07.06.183.027.113.027.27zM44.935 603.67q0 .731-.261 1.305-.261.566-.757.957-.487.392-1.21.592-.721.2-1.652.2-.87 0-1.557-.183-.687-.183-1.166-.54-.478-.356-.73-.878t-.252-1.191q0-.531.174-.975.173-.443.495-.817.33-.374.81-.696.478-.33 1.078-.626-.522-.27-.922-.566-.4-.304-.679-.652-.278-.357-.426-.757-.139-.4-.139-.87 0-.591.209-1.104.217-.522.643-.905.435-.383 1.096-.6.67-.226 1.558-.226.852 0 1.47.208.626.2 1.026.557.409.348.6.827.192.478.192 1.026 0 .444-.148.852-.14.41-.418.774-.278.366-.687.688-.4.313-.922.591.618.305 1.096.626.487.322.809.696.33.366.496.783.174.409.174.905zm-1.88-5.775q0-.365-.13-.661-.121-.296-.365-.504-.244-.21-.609-.314-.357-.113-.818-.113-.939 0-1.426.427-.479.426-.479 1.165 0 .34.114.635.121.287.365.548.252.261.626.513.383.244.905.513.878-.452 1.348-1 .47-.548.47-1.209zm.366 5.932q0-.4-.148-.722-.148-.33-.452-.609-.296-.287-.748-.548-.444-.27-1.035-.556-.548.27-.966.539-.409.27-.678.557-.261.287-.4.609-.13.313-.13.695 0 .844.573 1.305.583.461 1.731.461 1.114 0 1.679-.46.574-.47.574-1.27zM54.253 603.358q0 .287-.087.452-.087.165-.243.165h-1.27v2.366q0 .07-.035.122-.035.043-.122.078t-.226.052q-.14.018-.357.018-.209 0-.348-.018-.139-.017-.226-.052-.078-.035-.113-.078-.026-.052-.026-.122v-2.366h-4.645q-.105 0-.174-.026-.07-.026-.13-.096-.053-.07-.079-.2-.017-.13-.017-.339 0-.165.008-.296.01-.13.035-.235.026-.113.07-.208.043-.105.104-.218l4.054-6.837q.043-.07.122-.121.087-.053.217-.087.13-.035.322-.044.191-.017.452-.017.287 0 .496.026.217.017.348.052.13.035.2.096.07.052.07.13v7.185h1.27q.147 0 .234.156.096.148.096.461zm-3.053-6.794h-.017l-3.663 6.176h3.68zM35.599 629.396q0 .165-.026.278-.026.113-.07.183-.043.07-.104.104-.052.027-.113.027h-5.88q-.061 0-.114-.027-.052-.034-.104-.104-.043-.07-.07-.183-.026-.113-.026-.278 0-.157.026-.27.027-.113.061-.182.044-.079.096-.113.06-.044.13-.044h2.35v-8.559l-2.176 1.296q-.165.087-.27.105-.095.017-.156-.035-.06-.061-.087-.192-.017-.13-.017-.33 0-.148.009-.252.017-.105.043-.174.026-.07.07-.122.052-.052.13-.104l2.592-1.662q.035-.026.087-.043.052-.018.13-.035.079-.018.183-.018.105-.009.261-.009.21 0 .348.018.14.017.218.052.078.026.104.078.026.044.026.096v9.89h2.036q.07 0 .13.043.061.035.096.113.043.07.06.183.027.113.027.27zM44.935 627.1q0 .73-.261 1.304-.261.566-.757.957-.487.392-1.21.592-.721.2-1.652.2-.87 0-1.557-.183-.687-.183-1.166-.54-.478-.356-.73-.878t-.252-1.191q0-.53.174-.975.173-.443.495-.817.33-.374.81-.696.478-.33 1.078-.626-.522-.27-.922-.566-.4-.304-.679-.652-.278-.357-.426-.757-.139-.4-.139-.87 0-.591.209-1.104.217-.522.643-.905.435-.383 1.096-.6.67-.226 1.558-.226.852 0 1.47.209.626.2 1.026.556.409.348.6.827.192.478.192 1.026 0 .444-.148.852-.14.41-.418.775-.278.365-.687.687-.4.313-.922.591.618.305 1.096.626.487.322.809.696.33.366.496.783.174.409.174.905zm-1.88-5.776q0-.365-.13-.66-.121-.297-.365-.505-.244-.21-.609-.314-.357-.113-.818-.113-.939 0-1.426.427-.479.426-.479 1.165 0 .34.114.635.121.287.365.548.252.261.626.513.383.244.905.513.878-.452 1.348-1 .47-.548.47-1.209zm.366 5.932q0-.4-.148-.722-.148-.33-.452-.609-.296-.287-.748-.548-.444-.27-1.035-.556-.548.27-.966.54-.409.269-.678.556-.261.287-.4.609-.13.313-.13.695 0 .844.573 1.305.583.461 1.731.461 1.114 0 1.679-.46.574-.47.574-1.27zM53.723 626.37q0 .904-.305 1.608-.304.705-.861 1.192-.557.478-1.331.73-.765.253-1.705.253-.522 0-.992-.079-.47-.07-.835-.173-.365-.114-.6-.218t-.304-.165q-.061-.061-.087-.113-.026-.052-.052-.122-.018-.078-.027-.191-.008-.113-.008-.27 0-.148.008-.261.018-.122.053-.191.034-.079.078-.113.052-.035.113-.035.087 0 .27.113.182.104.487.235.313.121.765.235.461.113 1.088.113.582 0 1.07-.14.487-.139.835-.434.356-.296.556-.74.2-.452.2-1.096 0-.539-.174-.948-.165-.417-.522-.687-.347-.278-.887-.409-.54-.139-1.287-.139-.53 0-.914.052-.382.052-.713.052-.243 0-.348-.113-.104-.113-.104-.435v-4.584q0-.287.13-.426.14-.139.392-.139h4.984q.07 0 .13.044.07.034.114.113.043.078.06.2.027.122.027.287 0 .313-.087.487t-.244.174h-4.201v3.157q.304-.043.617-.052.322-.009.74-.009.965 0 1.687.235.722.226 1.2.652.488.418.731 1.018.252.6.252 1.33zM35.599 652.825q0 .165-.026.278-.026.114-.07.183-.043.07-.104.105-.052.026-.113.026h-5.88q-.061 0-.114-.026-.052-.035-.104-.105-.043-.07-.07-.183-.026-.113-.026-.278 0-.156.026-.27.027-.113.061-.182.044-.078.096-.113.06-.044.13-.044h2.35v-8.559l-2.176 1.296q-.165.087-.27.105-.095.017-.156-.035-.06-.061-.087-.192-.017-.13-.017-.33 0-.148.009-.252.017-.105.043-.174.026-.07.07-.122.052-.052.13-.104l2.592-1.662q.035-.026.087-.043.052-.018.13-.035.079-.017.183-.017.105-.01.261-.01.21 0 .348.018.14.017.218.052.078.026.104.078.026.044.026.096v9.89h2.036q.07 0 .13.043.061.035.096.114.043.07.06.182.027.113.027.27zM44.76 647.345q0 .73-.086 1.479-.087.748-.296 1.444-.209.687-.565 1.296-.348.6-.888 1.052-.53.453-1.27.714-.73.252-1.705.252-.374 0-.73-.052-.348-.044-.635-.113-.279-.07-.47-.148-.191-.079-.278-.157-.087-.078-.13-.209-.036-.139-.036-.365 0-.191.01-.304.017-.113.043-.174.026-.061.07-.079.051-.026.121-.026.096 0 .27.07.174.06.435.14.27.077.626.147.356.06.8.06.844 0 1.444-.321.609-.33.992-.879.382-.547.574-1.27.191-.721.209-1.522-.461.27-1.105.479-.644.209-1.479.209-.94 0-1.583-.253-.635-.26-1.026-.704-.383-.444-.557-1.053-.165-.609-.165-1.33 0-.749.217-1.418.217-.679.679-1.192.46-.513 1.174-.818.713-.304 1.705-.304.704 0 1.244.183.548.174.948.513.4.33.678.809.279.47.444 1.07.174.6.243 1.304.079.696.079 1.47zm-1.522-.165q0-1.113-.147-1.87-.148-.766-.435-1.235-.287-.47-.705-.679-.417-.208-.965-.208-.566 0-.966.208-.4.2-.661.548-.252.34-.374.774-.122.435-.122.896 0 .514.104.94.114.426.357.722.244.295.635.46.392.157.966.157.652 0 1.261-.191.609-.2 1.052-.522zM54.253 650.216q0 .287-.087.452-.087.165-.243.165h-1.27v2.366q0 .07-.035.122-.035.043-.122.078t-.226.052q-.14.018-.357.018-.209 0-.348-.018-.139-.017-.226-.052-.078-.035-.113-.078-.026-.052-.026-.122v-2.366h-4.645q-.105 0-.174-.026-.07-.026-.13-.096-.053-.07-.079-.2-.017-.13-.017-.339 0-.165.008-.296.01-.13.035-.234.026-.114.07-.21.043-.104.104-.217l4.054-6.836q.043-.07.122-.122.087-.052.217-.087.13-.035.322-.044.191-.017.452-.017.287 0 .496.026.217.017.348.052.13.035.2.096.07.052.07.13v7.185h1.27q.147 0 .234.157.096.148.096.46zm-3.053-6.794h-.017l-3.663 6.176h3.68z" font-weight="400" font-size="11.04" font-family="Calibri"/><path d="M.097.097v659.806" fill="none" stroke="#000" stroke-width=".187" stroke-linecap="square" stroke-linejoin="round" stroke-miterlimit="10"/><path d="M0 660h1.55V0H0z" fill-rule="evenodd"/><path d="M79.527 1.646v658.257" fill="none" stroke="#000" stroke-width=".187" stroke-linecap="square" stroke-linejoin="round" stroke-miterlimit="10"/><path d="M79.43 660h1.55V1.549h-1.55z" fill-rule="evenodd"/><path d="M1.646.097h79.23" fill="none" stroke="#000" stroke-width=".187" stroke-linecap="square" stroke-linejoin="round" stroke-miterlimit="10"/><path d="M1.55 1.549h79.43V0H1.55z" fill-rule="evenodd"/><path d="M1.646 23.526h79.23" fill="none" stroke="#000" stroke-width=".187" stroke-linecap="square" stroke-linejoin="round" stroke-miterlimit="10"/><path d="M1.55 24.978h79.43V23.43H1.55z" fill-rule="evenodd"/><path d="M1.646 48.149h79.23" fill="none" stroke="#000" stroke-width=".187" stroke-linecap="square" stroke-linejoin="round" stroke-miterlimit="10"/><path d="M1.55 49.601h79.43v-1.549H1.55z" fill-rule="evenodd"/><path d="M1.646 71.578h79.23" fill="none" stroke="#000" stroke-width=".187" stroke-linecap="square" stroke-linejoin="round" stroke-miterlimit="10"/><path d="M1.55 73.03h79.43v-1.549H1.55z" fill-rule="evenodd"/><path d="M1.646 95.007h79.23" fill="none" stroke="#000" stroke-width=".187" stroke-linecap="square" stroke-linejoin="round" stroke-miterlimit="10"/><path d="M1.55 96.46h79.43v-1.55H1.55z" fill-rule="evenodd"/><path d="M1.646 118.436h79.23" fill="none" stroke="#000" stroke-width=".187" stroke-linecap="square" stroke-linejoin="round" stroke-miterlimit="10"/><path d="M1.55 119.888h79.43v-1.549H1.55z" fill-rule="evenodd"/><path d="M1.646 141.865h79.23" fill="none" stroke="#000" stroke-width=".187" stroke-linecap="square" stroke-linejoin="round" stroke-miterlimit="10"/><path d="M1.55 143.318h79.43v-1.55H1.55z" fill-rule="evenodd"/><path d="M1.646 165.294h79.23" fill="none" stroke="#000" stroke-width=".187" stroke-linecap="square" stroke-linejoin="round" stroke-miterlimit="10"/><path d="M1.55 166.747h79.43v-1.55H1.55z" fill-rule="evenodd"/><path d="M1.646 188.724h79.23" fill="none" stroke="#000" stroke-width=".187" stroke-linecap="square" stroke-linejoin="round" stroke-miterlimit="10"/><path d="M1.55 190.176h79.43v-1.55H1.55z" fill-rule="evenodd"/><path d="M1.646 212.153h79.23" fill="none" stroke="#000" stroke-width=".187" stroke-linecap="square" stroke-linejoin="round" stroke-miterlimit="10"/><path d="M1.55 213.605h79.43v-1.55H1.55z" fill-rule="evenodd"/><path d="M1.646 235.582h79.23" fill="none" stroke="#000" stroke-width=".187" stroke-linecap="square" stroke-linejoin="round" stroke-miterlimit="10"/><path d="M1.55 237.034h79.43v-1.55H1.55z" fill-rule="evenodd"/><path d="M1.646 259.01h79.23" fill="none" stroke="#000" stroke-width=".187" stroke-linecap="square" stroke-linejoin="round" stroke-miterlimit="10"/><path d="M1.55 260.463h79.43v-1.549H1.55z" fill-rule="evenodd"/><path d="M1.646 282.44h79.23" fill="none" stroke="#000" stroke-width=".187" stroke-linecap="square" stroke-linejoin="round" stroke-miterlimit="10"/><path d="M1.55 283.892h79.43v-1.549H1.55z" fill-rule="evenodd"/><path d="M1.646 305.869h79.23" fill="none" stroke="#000" stroke-width=".187" stroke-linecap="square" stroke-linejoin="round" stroke-miterlimit="10"/><path d="M1.55 307.321h79.43v-1.549H1.55z" fill-rule="evenodd"/><path d="M1.646 330.508h79.23" fill="none" stroke="#000" stroke-width=".187" stroke-linecap="square" stroke-linejoin="round" stroke-miterlimit="10"/><path d="M1.55 331.96h79.43v-1.549H1.55z" fill-rule="evenodd"/><path d="M1.646 353.937h79.23" fill="none" stroke="#000" stroke-width=".187" stroke-linecap="square" stroke-linejoin="round" stroke-miterlimit="10"/><path d="M1.55 355.39h79.43v-1.55H1.55z" fill-rule="evenodd"/><path d="M1.646 377.366h79.23" fill="none" stroke="#000" stroke-width=".187" stroke-linecap="square" stroke-linejoin="round" stroke-miterlimit="10"/><path d="M1.55 378.819h79.43v-1.55H1.55z" fill-rule="evenodd"/><path d="M1.646 400.796h79.23" fill="none" stroke="#000" stroke-width=".187" stroke-linecap="square" stroke-linejoin="round" stroke-miterlimit="10"/><path d="M1.55 402.248h79.43v-1.55H1.55z" fill-rule="evenodd"/><path d="M1.646 424.225h79.23" fill="none" stroke="#000" stroke-width=".187" stroke-linecap="square" stroke-linejoin="round" stroke-miterlimit="10"/><path d="M1.55 425.677h79.43v-1.55H1.55z" fill-rule="evenodd"/><path d="M1.646 447.654h79.23" fill="none" stroke="#000" stroke-width=".187" stroke-linecap="square" stroke-linejoin="round" stroke-miterlimit="10"/><path d="M1.55 449.106h79.43v-1.55H1.55z" fill-rule="evenodd"/><path d="M1.646 471.083h79.23" fill="none" stroke="#000" stroke-width=".187" stroke-linecap="square" stroke-linejoin="round" stroke-miterlimit="10"/><path d="M1.55 472.535h79.43v-1.549H1.55z" fill-rule="evenodd"/><path d="M1.646 494.512h79.23" fill="none" stroke="#000" stroke-width=".187" stroke-linecap="square" stroke-linejoin="round" stroke-miterlimit="10"/><path d="M1.55 495.964h79.43v-1.549H1.55z" fill-rule="evenodd"/><path d="M1.646 517.941h79.23" fill="none" stroke="#000" stroke-width=".187" stroke-linecap="square" stroke-linejoin="round" stroke-miterlimit="10"/><path d="M1.55 519.393h79.43v-1.549H1.55z" fill-rule="evenodd"/><path d="M1.646 541.37h79.23" fill="none" stroke="#000" stroke-width=".187" stroke-linecap="square" stroke-linejoin="round" stroke-miterlimit="10"/><path d="M1.55 542.822h79.43v-1.549H1.55z" fill-rule="evenodd"/><path d="M1.646 564.8h79.23" fill="none" stroke="#000" stroke-width=".187" stroke-linecap="square" stroke-linejoin="round" stroke-miterlimit="10"/><path d="M1.55 566.251h79.43v-1.549H1.55z" fill-rule="evenodd"/><path d="M1.646 588.26h79.23" fill="none" stroke="#000" stroke-width=".187" stroke-linecap="square" stroke-linejoin="round" stroke-miterlimit="10"/><path d="M1.55 589.713h79.43v-1.55H1.55z" fill-rule="evenodd"/><path d="M1.646 611.69h79.23" fill="none" stroke="#000" stroke-width=".187" stroke-linecap="square" stroke-linejoin="round" stroke-miterlimit="10"/><path d="M1.55 613.142h79.43v-1.55H1.55z" fill-rule="evenodd"/><path d="M1.646 635.119h79.23" fill="none" stroke="#000" stroke-width=".187" stroke-linecap="square" stroke-linejoin="round" stroke-miterlimit="10"/><path d="M1.55 636.57h79.43v-1.548H1.55z" fill-rule="evenodd"/><path d="M1.646 658.548h79.23" fill="none" stroke="#000" stroke-width=".187" stroke-linecap="square" stroke-linejoin="round" stroke-miterlimit="10"/><path d="M1.55 660h79.43v-1.55H1.55z" fill-rule="evenodd"/></svg>