<svg xmlns="http://www.w3.org/2000/svg" width="392" height="203"><path d="M31.337 15.708q0 .133-.012.236-.011.096-.04.162-.03.066-.07.096-.035.03-.082.03h-3.62q-.134 0-.257-.111-.116-.118-.116-.405v-8.5q0-.287.116-.397.123-.118.257-.118h3.58q.046 0 .08.03.042.029.065.095t.035.17q.017.095.017.243 0 .132-.017.235-.012.096-.035.162-.023.06-.064.089-.035.03-.082.03h-2.95v2.99h2.53q.047 0 .082.036.04.03.064.089.03.058.041.162.012.103.012.243 0 .132-.012.228t-.04.155q-.024.058-.065.088-.035.022-.082.022h-2.53v3.41h2.99q.048 0 .083.03.04.029.07.095.029.06.04.162.012.096.012.243zM36.149 14.243q0 .508-.152.906-.146.397-.42.67-.274.272-.653.412-.378.14-.833.14-.28 0-.536-.059-.251-.051-.455-.132-.198-.089-.338-.177-.14-.096-.204-.17-.064-.073-.093-.206-.03-.132-.03-.36 0-.14.012-.236.012-.096.03-.155.017-.059.046-.08.035-.03.076-.03.064 0 .186.103.128.095.31.213.186.118.436.221.25.096.577.096.245 0 .443-.066.199-.067.344-.192.146-.132.222-.331.081-.2.081-.472 0-.28-.116-.47-.11-.192-.297-.34-.187-.147-.42-.257l-.484-.244q-.245-.125-.484-.28-.233-.161-.42-.39-.186-.228-.303-.545-.11-.316-.11-.758 0-.39.116-.744.123-.361.362-.626.239-.273.594-.435.362-.162.84-.162.21 0 .42.044.21.045.378.11.17.067.286.148.122.074.18.133.065.059.082.103.023.044.03.103.011.052.017.133.011.08.011.198 0 .126-.011.221-.006.089-.03.148-.017.059-.046.088-.03.022-.064.022-.053 0-.152-.08-.099-.082-.256-.17-.158-.096-.373-.177-.21-.081-.484-.081-.245 0-.431.074-.187.066-.31.198-.116.126-.18.302-.058.177-.058.383 0 .288.116.486.117.192.303.34.187.147.426.264.239.118.484.243.25.126.49.28.244.155.43.376.187.22.298.53.117.31.117.737zM40.251 15.561q0 .214-.023.339-.024.125-.07.184-.047.059-.14.11-.093.052-.216.081-.116.037-.25.06-.134.021-.269.021-.408 0-.7-.132-.29-.14-.477-.413-.187-.28-.274-.7-.082-.426-.082-1v-3.875h-.734q-.088 0-.14-.118-.053-.118-.053-.383 0-.14.012-.235.018-.096.04-.155.024-.066.06-.088.04-.03.087-.03h.728V7.651q0-.052.018-.096.023-.044.076-.073.058-.037.151-.052t.233-.015q.146 0 .24.015.093.015.145.052.053.03.076.073.023.044.023.096v1.576h1.347q.046 0 .081.03.035.022.059.088.029.059.04.155.012.095.012.235 0 .265-.052.383-.053.118-.14.118h-1.347v3.697q0 .685.158 1.039.163.346.577.346.134 0 .239-.03.105-.036.186-.073.082-.037.14-.066.058-.037.105-.037.03 0 .052.022.03.015.041.066.018.052.03.14.011.088.011.221zM45.498 16.054q0 .089-.046.133-.047.044-.128.066-.082.022-.24.022-.151 0-.244-.022-.088-.022-.128-.066-.041-.044-.041-.133v-.662q-.344.464-.77.721-.42.258-.892.258-.414 0-.752-.14-.332-.132-.57-.39-.234-.258-.368-.633-.128-.376-.128-.855 0-.56.18-.972.181-.412.52-.685.337-.272.827-.405.49-.14 1.102-.14h.722v-.516q0-.382-.064-.677-.064-.295-.21-.486-.14-.199-.367-.295-.227-.103-.56-.103-.355 0-.64.11-.28.104-.496.236-.21.125-.356.236-.14.103-.21.103-.046 0-.081-.03-.035-.029-.064-.088-.024-.059-.035-.147-.012-.096-.012-.206 0-.184.018-.288.023-.11.099-.206.081-.096.274-.22.192-.133.443-.236.25-.11.548-.177.297-.074.6-.074.566 0 .962.162t.641.479q.245.31.356.773.11.464.11 1.083zm-.956-3.027h-.821q-.397 0-.688.089-.292.08-.484.25-.192.162-.286.398-.087.228-.087.53 0 .516.256.825.263.302.729.302.379 0 .7-.243.326-.243.681-.744zM49.993 15.561q0 .214-.023.339-.024.125-.07.184-.047.059-.14.11-.094.052-.216.081-.117.037-.25.06-.135.021-.269.021-.408 0-.7-.132-.29-.14-.477-.413-.187-.28-.274-.7-.082-.426-.082-1v-3.875h-.734q-.088 0-.14-.118-.053-.118-.053-.383 0-.14.012-.235.017-.096.04-.155.024-.066.059-.088.04-.03.087-.03h.73V7.651q0-.052.017-.096.023-.044.075-.073.059-.037.152-.052t.233-.015q.146 0 .24.015.092.015.145.052.052.03.076.073.023.044.023.096v1.576H49.8q.047 0 .082.03.035.022.058.088.03.059.041.155.012.095.012.235 0 .265-.053.383-.052.118-.14.118h-1.346v3.697q0 .685.157 1.039.164.346.577.346.134 0 .24-.03.104-.036.186-.073t.14-.066q.058-.037.105-.037.029 0 .052.022.03.015.041.066.018.052.03.14.01.088.01.221zM55.758 16.047q0 .059-.023.103-.017.037-.07.067-.052.029-.14.044-.081.014-.204.014-.134 0-.221-.014-.082-.015-.134-.044-.047-.03-.064-.067-.018-.044-.018-.103v-.876q-.449.626-.886.913-.437.287-.886.287-.525 0-.886-.22-.356-.222-.577-.597-.222-.383-.32-.884-.094-.508-.094-1.23V9.419q0-.06.017-.096.024-.044.082-.074.058-.037.152-.044.093-.015.233-.015t.233.015q.093.007.146.044.058.03.081.074.024.037.024.096v3.859q0 .582.064.935.07.346.204.597.14.243.35.383.21.132.49.132.36 0 .716-.324.362-.324.764-.95V9.42q0-.06.017-.096.024-.044.082-.074.058-.037.146-.044.093-.015.239-.015.14 0 .233.015.093.007.146.044.052.03.075.074.03.037.03.096zM60.598 9.853q0 .162-.006.273-.006.11-.023.176-.018.06-.047.096-.023.03-.07.03-.046 0-.116-.03-.065-.037-.152-.066-.082-.037-.187-.066-.104-.03-.227-.03-.146 0-.285.074-.14.073-.298.243-.151.17-.32.45-.17.279-.373.684v4.36q0 .059-.024.103-.023.037-.076.067-.052.029-.145.044-.094.014-.24.014-.14 0-.232-.014-.094-.015-.152-.044-.052-.03-.076-.067-.017-.044-.017-.103V9.42q0-.06.017-.096.018-.044.07-.074.053-.037.134-.044.082-.015.216-.015.128 0 .21.015.087.007.134.044.047.03.064.074.023.037.023.096v.964q.216-.397.403-.648.192-.25.36-.39.17-.147.333-.199.17-.059.338-.059.076 0 .17.015.098.007.203.037.105.03.187.066.087.037.122.074t.047.073q.012.03.017.081.012.052.012.155.006.096.006.265zM65.615 16.054q0 .089-.047.133-.047.044-.128.066-.082.022-.24.022-.15 0-.244-.022-.087-.022-.128-.066-.041-.044-.041-.133v-.662q-.344.464-.77.721-.42.258-.891.258-.414 0-.752-.14-.333-.132-.572-.39-.233-.258-.367-.633-.128-.376-.128-.855 0-.56.18-.972.181-.412.52-.685.338-.272.827-.405.49-.14 1.102-.14h.723v-.516q0-.382-.064-.677-.065-.295-.21-.486-.14-.199-.367-.295-.228-.103-.56-.103-.356 0-.641.11-.28.104-.496.236-.21.125-.355.236-.14.103-.21.103-.047 0-.082-.03-.035-.029-.064-.088-.023-.059-.035-.147-.012-.096-.012-.206 0-.184.018-.288.023-.11.099-.206.082-.096.274-.22.192-.133.443-.236.25-.11.548-.177.297-.074.6-.074.566 0 .962.162.397.162.641.479.245.31.356.773.11.464.11 1.083zm-.956-3.027h-.822q-.397 0-.688.089-.292.08-.484.25-.192.162-.286.398-.087.228-.087.53 0 .516.257.825.262.302.728.302.38 0 .7-.243.326-.243.682-.744zM74.556 12.446q0 .287-.117.412-.11.118-.256.118h-3.44q0 .552.088.994.087.442.291.759.205.316.531.486.326.17.799.17.373 0 .664-.074.292-.081.501-.177.216-.096.35-.17.14-.08.21-.08.04 0 .07.029.035.022.052.074.018.051.024.147.011.088.011.22 0 .097-.005.17-.006.066-.018.125-.006.052-.03.096-.017.044-.052.089-.029.036-.186.132-.157.088-.408.177-.25.088-.583.155-.327.073-.7.073-.647 0-1.136-.228-.484-.228-.816-.678-.333-.449-.502-1.127-.169-.677-.169-1.576 0-.854.175-1.532.175-.685.501-1.156.333-.479.799-.729.466-.258 1.043-.258.618 0 1.05.25.437.251.717.678.28.42.408.994.134.568.134 1.216zm-.968-.361q.018-.958-.338-1.503-.35-.545-1.043-.545-.356 0-.624.17t-.449.449q-.18.28-.28.655-.099.369-.11.774zM80.578 16.047q0 .059-.023.103-.024.037-.076.067-.053.029-.146.044-.093.014-.233.014-.146 0-.24-.014-.092-.015-.145-.044-.052-.03-.076-.067-.023-.044-.023-.103v-3.881q0-.567-.07-.913-.07-.347-.204-.597-.134-.25-.35-.383-.21-.133-.49-.133-.36 0-.722.324-.362.325-.758.95v4.633q0 .059-.023.103-.024.037-.076.067-.053.029-.146.044-.093.014-.239.014-.14 0-.233-.014-.093-.015-.152-.044-.052-.03-.075-.067-.018-.044-.018-.103V9.42q0-.06.018-.096.017-.044.07-.074.052-.037.134-.044.081-.015.215-.015.129 0 .21.015.088.007.134.044.047.03.064.074.024.037.024.096v.876q.443-.626.88-.913.443-.295.892-.295.525 0 .88.229.362.22.583.596.222.376.315.884.099.5.099 1.208zM30.8 34.548q0 .126-.005.221-.006.089-.024.155-.011.059-.035.11-.017.045-.093.14-.07.089-.245.229-.175.132-.396.243-.216.103-.472.17-.257.065-.53.065-.566 0-1.003-.235-.437-.236-.735-.685-.291-.457-.449-1.112-.151-.663-.151-1.525 0-.98.186-1.679.193-.707.52-1.156.331-.45.774-.663.45-.221.968-.221.25 0 .484.059.239.059.437.154.198.096.35.221.157.126.227.214t.093.14q.03.051.047.125.018.066.023.155.006.088.006.22 0 .288-.052.406-.053.11-.128.11-.088 0-.204-.118-.111-.125-.286-.272-.175-.147-.426-.265-.244-.125-.582-.125-.694 0-1.067.677-.367.67-.367 1.952 0 .64.093 1.127.099.478.285.803.187.324.455.486.274.154.624.154.332 0 .583-.132.25-.133.431-.288.187-.162.31-.287.127-.132.197-.132.041 0 .07.03.03.029.047.102.023.067.029.177.012.103.012.25zM39.861 35.557q0 .06-.023.104-.023.036-.076.066-.052.03-.146.044-.093.015-.233.015-.146 0-.239-.015t-.151-.044q-.053-.03-.076-.066-.024-.045-.024-.104V31.53q0-.42-.058-.766-.058-.346-.186-.597-.129-.25-.327-.383-.198-.132-.466-.132-.332 0-.67.324-.333.324-.735.95v4.632q0 .06-.023.104-.024.036-.082.066-.052.03-.146.044-.093.015-.233.015-.134 0-.233-.015-.093-.015-.152-.044-.052-.03-.075-.066-.018-.045-.018-.104V31.53q0-.42-.064-.766-.064-.346-.192-.597-.129-.25-.327-.383-.192-.132-.46-.132-.333 0-.67.324-.339.324-.735.95v4.632q0 .06-.023.104-.024.036-.076.066-.053.03-.146.044-.093.015-.239.015-.14 0-.233-.015t-.152-.044q-.052-.03-.075-.066-.018-.045-.018-.104V28.93q0-.059.018-.096.017-.044.07-.073.052-.037.134-.045.081-.014.215-.014.128 0 .21.014.088.008.134.045.047.029.064.073.024.037.024.096v.876q.443-.626.857-.913.42-.294.845-.294.326 0 .583.095.262.096.46.273.198.17.338.412.14.236.233.53.263-.36.496-.61.239-.251.455-.406.221-.155.425-.22.21-.074.42-.074.507 0 .851.228.344.22.554.596.215.376.303.884.093.501.093 1.06zM44.971 33.753q0 .508-.151.906-.146.398-.42.67-.274.273-.653.413-.379.14-.834.14-.28 0-.536-.06-.25-.051-.455-.132-.198-.088-.338-.177-.14-.096-.204-.17-.064-.073-.093-.205-.03-.133-.03-.361 0-.14.013-.236.011-.096.029-.155.017-.059.046-.08.035-.03.076-.03.064 0 .187.103.128.096.309.214.186.117.437.22.25.096.577.096.245 0 .443-.066t.344-.191q.146-.133.221-.332.082-.199.082-.471 0-.28-.117-.472-.11-.191-.297-.338-.186-.148-.42-.258l-.483-.243q-.245-.125-.484-.28-.233-.162-.42-.39-.187-.229-.303-.545-.11-.317-.11-.759 0-.39.116-.744.122-.36.361-.626.24-.272.595-.434.361-.162.84-.162.209 0 .419.044t.379.11q.169.066.285.147.123.074.181.133.064.059.082.103.023.044.029.103.011.052.017.133.012.08.012.199 0 .125-.012.22-.006.089-.029.148-.017.059-.046.088-.03.022-.065.022-.052 0-.151-.08-.1-.082-.257-.17-.157-.096-.373-.177-.21-.08-.484-.08-.244 0-.43.073-.187.066-.31.199-.116.125-.18.302-.059.176-.059.383 0 .287.117.486.116.191.303.339.186.147.425.265.24.118.484.243.25.125.49.28.245.154.431.375.187.221.298.53.116.31.116.737zM47.587 34.939q0 .523-.14.7-.134.169-.495.169-.35 0-.484-.17-.134-.169-.134-.677 0-.523.134-.692.14-.177.501-.177.35 0 .484.17.134.169.134.677zM15.165 56.418q0 .14-.018.236-.017.095-.047.154-.029.06-.07.089-.034.022-.075.022h-3.94q-.042 0-.077-.022-.035-.03-.07-.089-.029-.059-.046-.154-.018-.096-.018-.236 0-.133.018-.228.017-.096.04-.155.03-.066.065-.096.04-.037.087-.037h1.574v-7.247l-1.457 1.098q-.111.073-.181.088-.064.015-.105-.03-.04-.051-.058-.162-.012-.11-.012-.28 0-.125.006-.213.012-.088.03-.147.017-.06.046-.103.035-.045.087-.089l1.737-1.407q.024-.022.059-.036.035-.015.087-.03.053-.015.123-.015.07-.007.174-.007.14 0 .234.015.093.015.145.044.053.022.07.066.018.037.018.081v8.374h1.364q.046 0 .087.037.041.03.064.096.03.059.041.155.018.095.018.228zM15.147 76.212q0 .132-.017.236-.012.103-.041.176-.024.067-.07.103-.041.03-.093.03h-4.168q-.082 0-.146-.022-.058-.03-.105-.089-.04-.059-.064-.169-.018-.11-.018-.272 0-.148.006-.258.012-.11.041-.192.03-.088.07-.17.047-.088.117-.183l1.463-1.96q.507-.677.81-1.215.309-.537.472-.98.17-.441.222-.802.052-.36.052-.678 0-.316-.081-.596-.082-.287-.24-.5-.151-.214-.384-.34-.233-.125-.536-.125-.356 0-.642.125-.28.126-.495.273-.21.147-.356.272-.14.126-.21.126-.04 0-.075-.03-.03-.03-.053-.096-.017-.066-.029-.176-.012-.11-.012-.266 0-.11.006-.191t.018-.14q.017-.059.04-.11.024-.052.094-.126.07-.08.239-.213.175-.133.431-.258.263-.133.571-.221.315-.088.66-.088.547 0 .955.198.414.192.682.53.274.34.408.789.134.45.134.957 0 .457-.064.914-.064.449-.274.98-.204.522-.594 1.17-.39.64-1.038 1.48l-1.195 1.577h3.282q.047 0 .087.036.047.03.076.096.035.066.047.17.017.095.017.228zM15.089 93.87q0 .656-.18 1.186-.182.523-.52.898-.338.376-.833.582-.496.2-1.12.2-.378 0-.71-.082-.327-.074-.584-.177-.256-.11-.425-.22-.17-.118-.216-.17-.04-.052-.064-.103-.023-.052-.04-.125-.018-.074-.03-.177-.006-.11-.006-.265 0-.265.041-.369.04-.103.117-.103.052 0 .204.118.157.118.396.258.245.133.565.25.327.118.723.118.385 0 .676-.125.292-.125.49-.353.198-.229.297-.538.1-.317.1-.685 0-.405-.129-.73-.122-.323-.367-.559-.239-.236-.595-.36-.35-.126-.798-.126h-.717q-.047 0-.093-.022-.041-.03-.076-.089-.03-.058-.053-.154-.017-.096-.017-.25 0-.14.017-.229.018-.096.047-.147.035-.06.076-.081.04-.03.093-.03h.659q.385 0 .688-.125.309-.125.518-.36.216-.236.327-.56.116-.332.116-.737 0-.295-.075-.56-.076-.272-.228-.471-.151-.199-.39-.31-.233-.117-.542-.117-.338 0-.624.132-.28.126-.501.273-.222.147-.368.28-.145.125-.204.125-.04 0-.075-.015-.03-.022-.053-.073-.017-.06-.03-.155-.005-.103-.005-.265 0-.11.006-.192.006-.088.023-.147.018-.066.041-.118.023-.051.076-.118.058-.073.227-.206.17-.133.414-.258.25-.132.571-.22.327-.09.7-.09.524 0 .92.17.397.17.66.479.268.31.396.744.134.427.134.95 0 .45-.093.84-.093.383-.274.685-.18.294-.443.508-.263.206-.606.287v.015q.39.051.71.25.327.192.56.486.233.295.362.692.134.39.134.84zM15.468 113.723q0 .243-.059.383-.058.14-.163.14h-.85v2.003q0 .06-.024.103-.024.037-.082.067-.058.029-.151.044-.094.014-.24.014-.14 0-.233-.014-.093-.015-.151-.044-.053-.03-.076-.067-.017-.044-.017-.103v-2.003h-3.113q-.07 0-.117-.022-.046-.022-.087-.081-.035-.06-.053-.17-.011-.11-.011-.287 0-.14.006-.25.005-.11.023-.2.017-.095.047-.176.029-.088.07-.184l2.716-5.789q.03-.059.082-.103.058-.044.145-.074.088-.03.216-.036.128-.015.303-.015.192 0 .332.022.146.015.234.044.087.03.134.081.046.044.046.11v6.084h.851q.1 0 .158.133.064.125.064.39zm-2.046-5.752h-.012l-2.454 5.23h2.466zM15.112 133.208q0 .766-.204 1.362-.204.597-.577 1.01-.373.404-.892.618-.513.213-1.142.213-.35 0-.665-.066-.315-.059-.56-.147-.244-.096-.402-.184-.157-.089-.204-.14-.04-.052-.058-.096-.018-.044-.035-.103-.012-.066-.018-.162-.005-.096-.005-.228 0-.126.005-.221.012-.103.035-.162.024-.067.053-.096.035-.03.076-.03.058 0 .18.096.123.089.327.2.21.102.513.198.309.096.728.096.391 0 .717-.118.327-.118.56-.368.24-.25.373-.626.134-.383.134-.928 0-.457-.116-.803-.111-.354-.35-.582-.233-.236-.595-.346-.361-.118-.862-.118-.356 0-.613.044-.256.044-.478.044-.163 0-.233-.095-.07-.096-.07-.369v-3.881q0-.243.088-.36.093-.119.262-.119h3.34q.047 0 .088.037.046.03.075.096.03.066.041.17.018.102.018.242 0 .266-.058.413-.059.147-.164.147H11.61v2.674q.204-.037.414-.045.215-.008.495-.008.647 0 1.131.2.484.19.804.552.327.353.49.861.17.509.17 1.127zM15.34 153.024q0 .626-.152 1.215-.152.582-.466 1.031-.315.442-.799.714-.484.266-1.143.266-.472 0-.833-.148-.362-.147-.63-.42-.268-.272-.449-.67-.174-.397-.285-.906-.105-.508-.152-1.112-.046-.604-.046-1.296 0-.611.052-1.237.053-.626.187-1.208t.361-1.09q.233-.516.577-.891.35-.383.834-.604.484-.221 1.125-.221.215 0 .437.037.221.03.408.088.187.052.315.118t.169.11q.04.037.058.089.023.044.035.103.012.052.018.125.005.066.005.17 0 .132-.005.228 0 .096-.024.155-.017.058-.052.088-.03.03-.082.03-.064 0-.175-.052-.11-.052-.268-.11-.157-.067-.385-.119-.221-.051-.518-.051-.543 0-.933.28t-.641.75q-.245.472-.368 1.098-.116.619-.134 1.297.152-.111.338-.221.193-.11.414-.2.228-.088.478-.14.251-.058.537-.058.612 0 1.031.213.42.207.677.582.262.369.373.877.11.5.11 1.09zm-1.015.118q0-.428-.07-.774-.064-.353-.221-.596-.158-.243-.42-.376-.262-.132-.647-.132-.216 0-.431.051-.216.044-.42.133-.198.08-.385.199-.18.11-.332.243 0 .95.093 1.59.1.641.28 1.032.186.383.46.552.274.162.642.162.373 0 .647-.177t.454-.471q.181-.302.263-.67.087-.376.087-.766zM15.258 166.963q0 .132-.012.243-.006.103-.023.206-.012.096-.04.191-.024.089-.06.192l-2.716 7.91q-.029.088-.075.147-.041.052-.111.088-.064.03-.17.037-.104.015-.256.015-.198 0-.309-.022-.11-.022-.163-.066-.047-.052-.04-.118.005-.074.04-.17l2.856-8.086h-3.62q-.11 0-.169-.148-.052-.147-.052-.412 0-.14.012-.243.017-.103.046-.17.03-.073.07-.103.041-.036.093-.036h4.396q.081 0 .14.022.064.022.093.088.035.066.052.17.018.102.018.264zM31.867 186.473q0 .14-.011.243-.012.103-.041.17-.023.058-.064.088-.035.029-.082.029h-2.122v8.264q0 .058-.023.103-.023.044-.082.073-.058.022-.157.037-.093.022-.239.022-.14 0-.239-.022-.1-.015-.157-.037-.059-.03-.082-.073-.023-.045-.023-.103v-8.264h-2.122q-.047 0-.088-.03-.035-.029-.058-.088-.023-.066-.04-.17-.012-.102-.012-.242t.011-.243q.018-.11.041-.177.023-.066.058-.096.041-.03.088-.03h5.246q.047 0 .082.03.04.03.064.096.03.066.04.177.012.103.012.243zM37.722 191.886q0 .81-.169 1.495-.169.678-.507 1.171-.332.494-.84.774-.5.272-1.165.272-.647 0-1.131-.243-.478-.243-.799-.707-.32-.464-.478-1.127-.157-.663-.157-1.502 0-.81.163-1.488.17-.685.501-1.178.339-.494.84-.766.501-.273 1.172-.273.647 0 1.125.243.483.243.804.707.32.464.478 1.127.163.663.163 1.495zm-1.014.081q0-.537-.082-1.016-.075-.479-.256-.84-.18-.36-.49-.567-.309-.214-.77-.214-.425 0-.734.192-.303.191-.501.545-.198.346-.297.825-.094.479-.094 1.046 0 .545.076 1.023.082.48.262.84.187.354.496.567.309.206.77.206.42 0 .728-.191.309-.192.507-.538.198-.346.292-.825.093-.478.093-1.053zM41.946 194.788q0 .214-.023.339-.023.125-.07.184-.047.059-.14.11-.093.052-.216.081-.116.037-.25.06-.134.021-.268.021-.408 0-.7-.132-.291-.14-.478-.413-.186-.28-.274-.7-.081-.426-.081-1v-3.875h-.735q-.087 0-.14-.118-.052-.118-.052-.383 0-.14.011-.235.018-.096.041-.155.024-.066.058-.088.041-.03.088-.03h.729v-1.576q0-.052.017-.096.023-.044.076-.073.058-.037.151-.052.094-.015.234-.015.145 0 .239.015.093.015.145.052.053.03.076.073.023.044.023.096v1.576h1.347q.047 0 .082.03.035.022.058.088.029.059.04.155.012.095.012.235 0 .265-.052.383-.053.118-.14.118h-1.347v3.697q0 .685.158 1.039.163.346.577.346.134 0 .239-.03.105-.036.186-.073.082-.037.14-.066.059-.037.105-.037.03 0 .053.022.029.014.04.066.018.052.03.14.011.088.011.22zM47.17 195.281q0 .089-.047.133-.046.044-.128.066-.082.022-.239.022-.152 0-.245-.022-.087-.022-.128-.066-.04-.044-.04-.133v-.662q-.345.464-.77.721-.42.258-.892.258-.414 0-.752-.14-.332-.132-.571-.39-.234-.258-.368-.634-.128-.375-.128-.854 0-.56.18-.972.181-.413.52-.685.338-.273.827-.405.49-.14 1.102-.14h.723v-.516q0-.383-.064-.677-.064-.295-.21-.486-.14-.2-.367-.295-.228-.103-.56-.103-.356 0-.641.11-.28.104-.496.236-.21.125-.355.236-.14.103-.21.103-.047 0-.082-.03-.035-.029-.064-.088-.023-.059-.035-.147-.011-.096-.011-.206 0-.184.017-.287.023-.11.1-.207.08-.095.273-.22.192-.133.443-.236.25-.11.548-.177.297-.074.6-.074.566 0 .962.162.397.162.642.48.244.308.355.772.11.464.11 1.083zm-.956-3.027h-.822q-.396 0-.688.089-.291.08-.484.25-.192.162-.285.398-.088.228-.088.53 0 .516.257.825.262.302.728.302.38 0 .7-.243.326-.243.682-.744zM49.898 195.274q0 .059-.023.103-.024.037-.076.066-.053.03-.146.045-.093.014-.239.014-.14 0-.233-.014-.093-.015-.152-.045-.052-.03-.075-.066-.018-.044-.018-.103v-9.84q0-.058.018-.103.023-.044.075-.073.059-.03.152-.044.093-.015.233-.015.146 0 .24.015.092.014.145.044.052.03.076.073.023.045.023.103z" style="-inkscape-font-specification:Calibri" font-weight="400" font-size="13.419" font-family="Calibri"/><path d="M1.131 41.425h21.827" fill="none" stroke="#000" stroke-width=".187" stroke-linecap="square" stroke-linejoin="round" stroke-miterlimit="10"/><path d="M1.067 42.655h21.956v-1.312H1.067zM93.61 43.31h2.077V2.619h-2.076zM164.236 43.31h2.076V2.619h-2.076zM217.44 43.31h2.076V2.619h-2.076zM258.445 43.31h2.077V2.619h-2.077zM309.854 43.31h2.076V2.619h-2.076zM351.639 43.31h2.076V2.619h-2.076z" fill-rule="evenodd"/><path d="M1.131 61.263h21.827" fill="none" stroke="#000" stroke-width=".187" stroke-linecap="square" stroke-linejoin="round" stroke-miterlimit="10"/><path d="M1.067 62.493h21.956v-1.312H1.067z" fill-rule="evenodd"/><path d="M1.131 81.102h21.827" fill="none" stroke="#000" stroke-width=".187" stroke-linecap="square" stroke-linejoin="round" stroke-miterlimit="10"/><path d="M1.067 82.331h21.956V81.02H1.067z" fill-rule="evenodd"/><path d="M1.131 100.94h21.827" fill="none" stroke="#000" stroke-width=".187" stroke-linecap="square" stroke-linejoin="round" stroke-miterlimit="10"/><path d="M1.067 102.17h21.956v-1.312H1.067z" fill-rule="evenodd"/><path d="M1.131 120.778h21.827" fill="none" stroke="#000" stroke-width=".187" stroke-linecap="square" stroke-linejoin="round" stroke-miterlimit="10"/><path d="M1.067 122.008h21.956v-1.312H1.067z" fill-rule="evenodd"/><path d="M1.131 140.616h21.827" fill="none" stroke="#000" stroke-width=".187" stroke-linecap="square" stroke-linejoin="round" stroke-miterlimit="10"/><path d="M1.067 141.846h21.956v-1.312H1.067z" fill-rule="evenodd"/><path d="M1.131 160.454h21.827" fill="none" stroke="#000" stroke-width=".187" stroke-linecap="square" stroke-linejoin="round" stroke-miterlimit="10"/><path d="M1.067 161.684h21.956v-1.312H1.067z" fill-rule="evenodd"/><path d="M1.131 180.293h21.827" fill="none" stroke="#000" stroke-width=".187" stroke-linecap="square" stroke-linejoin="round" stroke-miterlimit="10"/><path d="M1.067 181.522h21.956v-1.311H1.067zM23.023 203h2.076V0h-2.076z" fill-rule="evenodd"/><path d="M94.195 43.393v156.902" fill="none" stroke="#000" stroke-width=".187" stroke-linecap="square" stroke-linejoin="round" stroke-miterlimit="10"/><path d="M94.13 200.377h1.038V43.31H94.13z" fill-rule="evenodd"/><path d="M164.82 43.393v156.902" fill="none" stroke="#000" stroke-width=".187" stroke-linecap="square" stroke-linejoin="round" stroke-miterlimit="10"/><path d="M164.755 200.377h1.038V43.31h-1.038z" fill-rule="evenodd"/><path d="M218.024 43.393v156.902" fill="none" stroke="#000" stroke-width=".187" stroke-linecap="square" stroke-linejoin="round" stroke-miterlimit="10"/><path d="M217.959 200.377h1.038V43.31h-1.038z" fill-rule="evenodd"/><path d="M259.03 43.393v156.902" fill="none" stroke="#000" stroke-width=".187" stroke-linecap="square" stroke-linejoin="round" stroke-miterlimit="10"/><path d="M258.964 200.377h1.039V43.31h-1.039z" fill-rule="evenodd"/><path d="M310.438 43.393v156.902" fill="none" stroke="#000" stroke-width=".187" stroke-linecap="square" stroke-linejoin="round" stroke-miterlimit="10"/><path d="M310.373 200.377h1.038V43.31h-1.038z" fill-rule="evenodd"/><path d="M352.223 43.393v156.902" fill="none" stroke="#000" stroke-width=".187" stroke-linecap="square" stroke-linejoin="round" stroke-miterlimit="10"/><path d="M352.158 200.377h1.038V43.31h-1.038zM389.92 203h2.076V2.623h-2.077z" fill-rule="evenodd"/><path d="M.093 41.425V181.44" fill="none" stroke="#000" stroke-width=".187" stroke-linecap="square" stroke-linejoin="round" stroke-miterlimit="10"/><path d="M.028 181.522h1.039V41.343H.028zM25.1 2.623H392V0H25.1zM25.1 43.31H392v-2.655H25.1z" fill-rule="evenodd"/><path d="M25.164 61.263h364.69" fill="none" stroke="#000" stroke-width=".187" stroke-linecap="square" stroke-linejoin="round" stroke-miterlimit="10"/><path d="M25.1 62.493h364.824v-1.312H25.099z" fill-rule="evenodd"/><path d="M25.164 81.102h364.69" fill="none" stroke="#000" stroke-width=".187" stroke-linecap="square" stroke-linejoin="round" stroke-miterlimit="10"/><path d="M25.1 82.331h364.824V81.02H25.099z" fill-rule="evenodd"/><path d="M25.164 100.94h364.69" fill="none" stroke="#000" stroke-width=".187" stroke-linecap="square" stroke-linejoin="round" stroke-miterlimit="10"/><path d="M25.1 102.17h364.824v-1.312H25.099z" fill-rule="evenodd"/><path d="M25.164 120.778h364.69" fill="none" stroke="#000" stroke-width=".187" stroke-linecap="square" stroke-linejoin="round" stroke-miterlimit="10"/><path d="M25.1 122.008h364.824v-1.312H25.099z" fill-rule="evenodd"/><path d="M25.164 140.616h364.69" fill="none" stroke="#000" stroke-width=".187" stroke-linecap="square" stroke-linejoin="round" stroke-miterlimit="10"/><path d="M25.1 141.846h364.824v-1.312H25.099z" fill-rule="evenodd"/><path d="M25.164 160.454h364.69" fill="none" stroke="#000" stroke-width=".187" stroke-linecap="square" stroke-linejoin="round" stroke-miterlimit="10"/><path d="M25.1 161.684h364.824v-1.312H25.099z" fill-rule="evenodd"/><path d="M25.164 180.293h364.69" fill="none" stroke="#000" stroke-width=".187" stroke-linecap="square" stroke-linejoin="round" stroke-miterlimit="10"/><path d="M25.1 181.522h364.824v-1.311H25.099zM25.1 203H392v-2.623H25.1z" fill-rule="evenodd"/></svg>