<svg xmlns="http://www.w3.org/2000/svg" width="401" height="187"><path d="M80.089 41.333h2.368V1.713h-2.368zM159.561 41.333h2.368V1.713h-2.368zM239.07 41.333h2.369V1.713h-2.368zM318.543 41.333h2.368V1.713h-2.368z" fill-rule="evenodd"/><path d="M80.755 45.346V161.37" fill="none" stroke="#000" stroke-width=".187" stroke-linecap="square" stroke-linejoin="round" stroke-miterlimit="10"/><path d="M80.682 42.446v142.865h1.183V42.446z" fill-rule="evenodd"/><path d="M160.227 45.346V161.37" fill="none" stroke="#000" stroke-width=".187" stroke-linecap="square" stroke-linejoin="round" stroke-miterlimit="10"/><path d="M160.154 42.446v142.865h1.184V42.446z" fill-rule="evenodd"/><path d="M239.737 45.346V161.37" fill="none" stroke="#000" stroke-width=".187" stroke-linecap="square" stroke-linejoin="round" stroke-miterlimit="10"/><path d="M239.662 42.446v142.865h1.184V42.446z" fill-rule="evenodd"/><path d="M319.21 45.346V161.37" fill="none" stroke="#000" stroke-width=".187" stroke-linecap="square" stroke-linejoin="round" stroke-miterlimit="10"/><path d="M319.135 42.446v142.865h1.183V42.446zM399.663 187H401V1.712h-1.337zM0 187h1.985V0H0z" fill-rule="evenodd"/><path d="M80.755 165.439v17.574M160.227 165.439v17.574M239.737 165.439v17.574M319.21 165.439v17.574" fill="none" stroke="#000" stroke-width=".187" stroke-linecap="square" stroke-linejoin="round" stroke-miterlimit="10"/><path d="M1.359 2.576H401V0H1.359zM1.359 43.493H401v-2.166H1.359z" fill-rule="evenodd"/><path d="M3.626 63.41h393.748" fill="none" stroke="#000" stroke-width=".187" stroke-linecap="square" stroke-linejoin="round" stroke-miterlimit="10"/><path d="M1.359 64.63H399.64v-1.302H1.36z" fill-rule="evenodd"/><path d="M3.626 83.099h393.748" fill="none" stroke="#000" stroke-width=".187" stroke-linecap="square" stroke-linejoin="round" stroke-miterlimit="10"/><path d="M1.359 84.32H399.64v-1.302H1.36z" fill-rule="evenodd"/><path d="M3.626 102.789h393.748" fill="none" stroke="#000" stroke-width=".187" stroke-linecap="square" stroke-linejoin="round" stroke-miterlimit="10"/><path d="M1.359 104.01H399.64v-1.302H1.36z" fill-rule="evenodd"/><path d="M3.626 122.479h393.748" fill="none" stroke="#000" stroke-width=".187" stroke-linecap="square" stroke-linejoin="round" stroke-miterlimit="10"/><path d="M1.359 123.7H399.64v-1.303H1.36z" fill-rule="evenodd"/><path d="M3.626 142.169h393.748" fill="none" stroke="#000" stroke-width=".187" stroke-linecap="square" stroke-linejoin="round" stroke-miterlimit="10"/><path d="M1.359 143.39H399.64v-1.303H1.36zM1.359 163.585H401v-2.133H1.359zM1.359 187h398.457v-2.133H1.36z" fill-rule="evenodd"/></svg>