<svg xmlns="http://www.w3.org/2000/svg" width="365" height="130"><path d="M1 91.5h363" fill="none" stroke="#000" stroke-width="2"/><path d="M24.424 98.893q0 .361-.228.599-.228.228-.77.228h-4.275l-.627 3.571q1.064-.228 1.967-.228 1.064 0 1.871.314.817.314 1.368.865.551.55.827 1.301.285.75.285 1.634 0 1.083-.38 1.957-.38.874-1.045 1.501-.656.618-1.549.95-.893.333-1.928.333-.599 0-1.15-.124-.551-.114-1.026-.314-.475-.199-.883-.456-.409-.256-.722-.541l.513-.722q.17-.247.456-.247.18 0 .418.152.247.142.589.323.342.18.798.332.465.143 1.102.143.712 0 1.282-.228.57-.228.969-.646.409-.428.627-1.017.219-.588.219-1.32 0-.636-.19-1.15-.181-.512-.561-.873-.37-.362-.931-.561-.56-.2-1.311-.2-.513 0-1.064.086-.551.085-1.14.275l-1.064-.313 1.102-6.365h6.45zM75.06 103.424q.817 0 1.549.276.731.266 1.282.788.551.513.874 1.273.323.751.323 1.72 0 .94-.342 1.748-.342.807-.959 1.406-.608.598-1.473.94-.864.342-1.9.342-1.026 0-1.862-.323-.826-.332-1.415-.93-.589-.609-.912-1.464-.314-.864-.314-1.928 0-.893.4-1.9.398-1.007 1.263-2.166l3.448-4.645q.133-.171.371-.285.237-.124.541-.124h1.501l-4.721 5.975q.484-.332 1.073-.512.59-.19 1.273-.19zm-3.515 4.142q0 .656.19 1.197.19.542.551.931.371.39.893.608.532.21 1.207.21.684 0 1.235-.219t.94-.608q.4-.39.608-.922.219-.532.219-1.159 0-.665-.209-1.197-.209-.541-.589-.912-.38-.38-.912-.579-.532-.2-1.169-.2-.684 0-1.235.238-.55.228-.94.627-.38.39-.589.912-.2.513-.2 1.073zM133.127 98.152v.76q0 .323-.076.532-.067.209-.143.352l-5.633 11.371q-.124.247-.342.427-.219.172-.59.172h-1.206l5.719-11.23q.124-.237.247-.436.133-.2.295-.38h-7.106q-.162 0-.295-.124-.123-.133-.123-.294v-1.15zM182.5 111.918q-1.016 0-1.862-.267-.846-.275-1.454-.778-.607-.504-.94-1.217-.332-.721-.332-1.614 0-1.311.684-2.157.684-.855 1.957-1.216-1.074-.399-1.625-1.187-.541-.798-.541-1.9 0-.751.294-1.406.294-.656.836-1.14.541-.485 1.292-.76.76-.276 1.691-.276.921 0 1.681.276.76.275 1.302.76.541.484.836 1.14.295.655.295 1.406 0 1.102-.551 1.9-.551.788-1.615 1.187 1.273.361 1.957 1.216.684.846.684 2.157 0 .893-.342 1.615-.333.712-.941 1.216-.599.503-1.444.778-.845.267-1.862.267zm0-1.35q.665 0 1.188-.18.532-.19.893-.522.37-.342.56-.808.2-.475.2-1.045 0-.703-.238-1.197-.228-.503-.627-.817-.39-.313-.903-.456-.513-.152-1.073-.152-.56 0-1.074.152-.513.142-.912.456-.389.314-.627.817-.228.494-.228 1.197 0 .57.19 1.045.2.466.561.807.37.333.893.523.532.18 1.197.18zm0-6.535q.665 0 1.13-.2.476-.209.77-.541.294-.343.427-.78.134-.436.134-.902 0-.475-.162-.893-.152-.418-.465-.731-.304-.314-.77-.494-.456-.181-1.064-.181-.608 0-1.073.18-.456.181-.77.495-.304.313-.465.731-.152.418-.152.893 0 .466.133.902.133.438.427.78.295.332.76.541.475.2 1.14.2zM235.892 106.18q-.77 0-1.463-.257-.684-.257-1.206-.75-.523-.504-.837-1.226-.304-.732-.304-1.672 0-.893.333-1.672.333-.779.931-1.358.599-.58 1.425-.912.827-.333 1.815-.333.978 0 1.776.323t1.368.903q.57.579.874 1.387.314.807.314 1.785 0 .59-.114 1.122-.105.522-.314 1.025-.209.504-.503 1.007-.285.494-.656 1.026l-3.315 4.788q-.124.181-.352.295-.228.104-.522.104h-1.558l4.142-5.424q.209-.276.389-.522.18-.248.342-.495-.522.419-1.178.637-.655.218-1.387.218zm3.401-3.981q0-.636-.209-1.15-.2-.522-.56-.883-.361-.361-.865-.551-.494-.2-1.092-.2-.627 0-1.15.21-.513.199-.883.56-.361.361-.561.865-.2.503-.2 1.102 0 .646.181 1.159.19.503.532.855.352.351.846.532.503.18 1.12.18.685 0 1.207-.218.532-.228.893-.599.361-.37.551-.855.19-.484.19-1.007zM281.531 110.474h2.926v-9.282q0-.418.029-.845l-2.432 2.08q-.095.076-.19.114-.095.029-.18.029-.143 0-.257-.057-.114-.067-.171-.153l-.532-.731 4.047-3.505h1.377v12.35h2.68v1.291h-7.297zM300.276 104.963q0 1.787-.39 3.098-.38 1.301-1.044 2.156-.665.855-1.577 1.273-.903.418-1.938.418-1.045 0-1.948-.418-.893-.418-1.558-1.273t-1.045-2.157q-.38-1.31-.38-3.097 0-1.785.38-3.096.38-1.312 1.045-2.166.665-.865 1.558-1.283.903-.418 1.948-.418 1.035 0 1.938.418.912.418 1.577 1.283.665.855 1.045 2.166.39 1.31.39 3.096zm-1.757 0q0-1.557-.266-2.612-.257-1.064-.703-1.71-.437-.646-1.017-.921-.58-.285-1.206-.285-.627 0-1.207.285-.58.275-1.016.921-.437.646-.703 1.71-.257 1.054-.257 2.612 0 1.559.257 2.613.266 1.054.703 1.7.437.647 1.016.932.58.275 1.207.275.627 0 1.206-.276.58-.284 1.017-.93.446-.647.703-1.701.266-1.054.266-2.612zM335.745 110.474h2.926v-9.282q0-.418.029-.845l-2.432 2.08q-.095.076-.19.114-.095.029-.181.029-.142 0-.256-.057-.114-.067-.171-.153l-.532-.731 4.047-3.505h1.377v12.35h2.679v1.291h-7.296zM346.767 110.474h2.926v-9.282q0-.418.028-.845l-2.432 2.08q-.095.076-.19.114-.095.029-.18.029-.143 0-.257-.057-.114-.067-.171-.153l-.532-.731 4.047-3.505h1.378v12.35h2.679v1.291h-7.296z" style="line-height:1.25;-inkscape-font-specification:Lato" font-weight="400" font-size="19" font-family="Lato" letter-spacing="0" word-spacing="0"/><path d="M6 78.5h29l-14.5 14zM60 78.5h29l-14.5 14zM114 78.5h29l-14.5 14zM168 78.5h29l-14.5 14zM222 78.5h29l-14.5 14zM276 78.5h29l-14.5 14zM330 78.5h29l-14.5 14zM60 63.5h29l-14.5 14zM168 63.5h29l-14.5 14zM168 48.5h29l-14.5 14zM168 33.5h29l-14.5 14zM330 63.5h29l-14.5 14zM330 48.5h29l-14.5 14zM222 33.5h29l-14.5 14zM222 18.5h29l-14.5 14zM276 63.5h29l-14.5 14zM222 63.5h29l-14.5 14zM222 48.5h29l-14.5 14z" fill="#3e42fe" stroke="#0c0fde" stroke-linecap="round" stroke-linejoin="round"/></svg>