<svg xmlns="http://www.w3.org/2000/svg" height="312" width="872"><path d="M330 67v212M258 67v212M186 67v212M114 67v212" fill="none" stroke="gray" stroke-width="2"/><path fill="#3f3f3f" paint-order="stroke markers fill" d="M42 67h360v208H42z"/><path d="M38 67h364M38 101.5h364M38 136h364M38 170.5h364M38 205h364M38 239.5h364M38 274h364M402 67v212M42 67v212" fill="none" stroke="gray" stroke-width="2"/><path d="M31.13 273.974c0-3.655-1.478-5.525-3.722-5.525-2.5 0-3.808 2.023-3.808 5.474 0 3.196.986 5.627 3.774 5.627 2.703 0 3.757-2.448 3.757-5.576zm-2.566.102c0 3.145-.442 4.692-1.207 4.692-.765 0-1.224-1.58-1.224-4.76 0-3.247.459-4.81 1.224-4.81.782 0 1.207 1.546 1.207 4.878zM22.594 244.863v-.73c-1.564 0-2.295-.307-2.295-1.14V234h-1.122l-3.774.935v.833a11.618 11.618 0 011.82-.204c.424 0 .56.238.56.833v6.596c0 .85-.68 1.14-2.278 1.14v.73zM31.13 239.474c0-3.655-1.478-5.525-3.722-5.525-2.5 0-3.808 2.023-3.808 5.474 0 3.196.986 5.627 3.774 5.627 2.703 0 3.757-2.448 3.757-5.576zm-2.566.102c0 3.145-.442 4.692-1.207 4.692-.765 0-1.224-1.58-1.224-4.76 0-3.247.459-4.81 1.224-4.81.782 0 1.207 1.546 1.207 4.878zM22.628 206.963h-.73c-.392 1.02-.613 1.394-1.514 1.394H18.43l-1.07.12v-.137l1.971-1.632c2.04-1.683 3.043-2.839 3.043-4.505 0-1.717-1.41-2.873-3.366-2.873-1.836 0-3.179.918-3.79 2.584l.747.272c.578-1.19 1.258-1.479 2.21-1.479 1.14 0 1.598.697 1.598 1.751 0 1.853-.782 2.924-2.346 4.522l-2.21 2.244v1.14h6.868zM31.13 204.974c0-3.655-1.478-5.525-3.722-5.525-2.5 0-3.808 2.023-3.808 5.474 0 3.196.986 5.627 3.774 5.627 2.703 0 3.757-2.448 3.757-5.576zm-2.566.102c0 3.145-.442 4.692-1.207 4.692-.765 0-1.224-1.58-1.224-4.76 0-3.247.459-4.81 1.224-4.81.782 0 1.207 1.546 1.207 4.878zM15.913 167.457c.544-.782 1.14-1.19 2.108-1.19.918 0 1.496.51 1.496 1.36 0 1.19-.986 1.989-2.04 1.989h-.374v1.071h.323c1.82 0 2.703.867 2.703 2.346 0 1.666-.595 2.21-1.41 2.21-.936 0-1.514-1.207-2.432-1.207-.612 0-.918.476-.918 1.02 0 .714.527 1.122 2.16 1.122 2.753 0 5.014-1.122 5.014-3.451 0-1.36-.935-2.38-2.737-2.992v-.136c1.275-.527 2.108-1.054 2.108-2.397 0-1.36-1.19-2.38-3.145-2.38-1.564 0-2.737.816-3.45 2.295zM31.13 170.534c0-3.655-1.478-5.525-3.722-5.525-2.5 0-3.808 2.023-3.808 5.474 0 3.196.986 5.627 3.774 5.627 2.703 0 3.757-2.448 3.757-5.576zm-2.566.102c0 3.145-.442 4.692-1.207 4.692-.765 0-1.224-1.581-1.224-4.76 0-3.247.459-4.811 1.224-4.811.782 0 1.207 1.547 1.207 4.879zM22.968 139.349v-1.989h-1.394v-6.902h-1.989l-4.573 7.021v1.87h4.097v2.074h2.465v-2.074zm-3.859-1.989h-2.737v-.068l2.686-4.216h.051zM31.13 136.034c0-3.655-1.478-5.525-3.722-5.525-2.5 0-3.808 2.023-3.808 5.474 0 3.196.986 5.627 3.774 5.627 2.703 0 3.757-2.448 3.757-5.576zm-2.566.102c0 3.145-.442 4.692-1.207 4.692-.765 0-1.224-1.581-1.224-4.76 0-3.247.459-4.811 1.224-4.811.782 0 1.207 1.547 1.207 4.879zM22 98.066l.305-1.887h-5.338l-1.207 5.151.29.459c.237 0 .288 0 .73.017 2.21.085 3.69.408 3.69 2.142 0 1.717-.698 2.244-1.939 2.244-1.054 0-1.564-1.19-2.482-1.19-.612 0-.918.544-.918 1.088 0 .714.527 1.071 2.16 1.071 2.787 0 5.422-1.054 5.422-3.995 0-2.975-3.45-3.502-5.576-3.502l.357-1.598zM31.13 101.5c0-3.655-1.478-5.525-3.722-5.525-2.5 0-3.808 2.023-3.808 5.474 0 3.196.986 5.627 3.774 5.627 2.703 0 3.757-2.448 3.757-5.576zm-2.566.102c0 3.145-.442 4.692-1.207 4.692-.765 0-1.224-1.581-1.224-4.76 0-3.247.459-4.811 1.224-4.811.782 0 1.207 1.547 1.207 4.879zM22.39 61.339c-3.825.153-7.19 2.414-7.19 6.715 0 2.635 1.206 4.505 3.994 4.505 2.346 0 3.604-1.275 3.604-3.859 0-2.193-1.122-3.434-2.856-3.434-.833 0-1.326.323-1.989.986l-.187-.017c.51-2.38 2.33-3.74 4.71-4.097zm-2.09 7.667c0 2.04-.34 2.754-1.055 2.754-1.02 0-1.479-1.445-1.479-3.451 0-1.292.493-1.768 1.14-1.768.934 0 1.393 1.071 1.393 2.465zM31.13 66.932c0-3.655-1.478-5.525-3.722-5.525-2.5 0-3.808 2.023-3.808 5.474 0 3.196.986 5.627 3.774 5.627 2.703 0 3.757-2.448 3.757-5.576zm-2.566.102c0 3.145-.442 4.692-1.207 4.692-.765 0-1.224-1.581-1.224-4.76 0-3.247.459-4.811 1.224-4.811.782 0 1.207 1.547 1.207 4.879z" style="line-height:1.25;-inkscape-font-specification:'STIX Two Text Bold';text-align:end" font-weight="700" font-size="17" font-family="STIX Two Text" letter-spacing="0" word-spacing="0" text-anchor="end"/><path d="M45.766 290.525c0-3.655-1.48-5.525-3.723-5.525-2.5 0-3.808 2.023-3.808 5.474 0 3.196.986 5.627 3.774 5.627 2.703 0 3.757-2.448 3.757-5.576zm-2.567.102c0 3.145-.442 4.692-1.207 4.692-.765 0-1.224-1.581-1.224-4.76 0-3.247.459-4.811 1.224-4.811.782 0 1.207 1.547 1.207 4.879zM117.663 292.514h-.73c-.392 1.02-.613 1.394-1.514 1.394h-1.954l-1.072.119v-.136l1.973-1.632c2.04-1.683 3.042-2.839 3.042-4.505 0-1.717-1.41-2.873-3.365-2.873-1.837 0-3.18.918-3.792 2.584l.749.272c.578-1.19 1.258-1.479 2.21-1.479 1.139 0 1.598.697 1.598 1.751 0 1.853-.783 2.924-2.347 4.522l-2.21 2.244v1.139h6.869zM190.046 293.84v-1.989h-1.394v-6.902h-1.989l-4.573 7.021v1.87h4.097v2.074h2.465v-2.074zm-3.859-1.989h-2.737v-.068l2.686-4.216h.051zM261.4 284.932c-3.825.153-7.191 2.414-7.191 6.715 0 2.635 1.207 4.505 3.995 4.505 2.346 0 3.604-1.275 3.604-3.859 0-2.193-1.122-3.434-2.856-3.434-.833 0-1.326.323-1.989.986l-.187-.017c.51-2.38 2.329-3.74 4.709-4.097zm-2.091 7.667c0 2.04-.34 2.754-1.054 2.754-1.02 0-1.479-1.445-1.479-3.451 0-1.292.493-1.768 1.139-1.768.935 0 1.394 1.071 1.394 2.465zM333.783 293.194c0-1.411-.646-2.108-2.635-3.366v-.051c1.598-.765 2.159-1.445 2.159-2.601 0-1.326-1.36-2.295-3.23-2.295-2.142 0-3.655.986-3.655 2.635 0 1.088.39 1.887 2.176 3.077v.051c-1.564.935-2.448 1.53-2.448 2.856 0 1.751 1.53 2.652 3.62 2.652 2.262 0 4.013-.986 4.013-2.958zm-2.431-6.001c0 .952-.357 1.581-.901 2.159-1.258-.782-1.734-1.377-1.734-2.227 0-.935.578-1.479 1.428-1.479.697 0 1.207.561 1.207 1.547zm-2.142 3.859c1.649 1.241 2.176 1.785 2.176 2.805 0 1.037-.833 1.564-1.547 1.564-1.003 0-1.683-.646-1.683-2.057 0-1.071.527-1.547 1.054-2.312zM401.43 295.914v-.731c-1.565 0-2.296-.306-2.296-1.139v-8.993h-1.122l-3.774.935v.833a11.618 11.618 0 011.82-.204c.424 0 .56.238.56.833v6.596c0 .85-.68 1.139-2.278 1.139v.731zM409.966 290.525c0-3.655-1.48-5.525-3.723-5.525-2.5 0-3.808 2.023-3.808 5.474 0 3.196.986 5.627 3.774 5.627 2.703 0 3.757-2.448 3.757-5.576zm-2.567.102c0 3.145-.442 4.692-1.207 4.692-.765 0-1.224-1.581-1.224-4.76 0-3.247.459-4.811 1.224-4.811.782 0 1.207 1.547 1.207 4.879z" style="line-height:1.25;-inkscape-font-specification:'STIX Two Text Bold';text-align:center" font-weight="700" font-size="17" font-family="STIX Two Text" letter-spacing="0" word-spacing="0" text-anchor="middle"/><path d="M144.032 40.747v5.599h-2.959V30.44h5.181q1.595 0 2.761.374 1.166.374 1.925 1.045.76.671 1.122 1.606.363.935.363 2.046 0 1.155-.385 2.123-.385.957-1.155 1.65t-1.925 1.078q-1.155.385-2.706.385zm0-2.31h2.222q.814 0 1.42-.198.604-.209 1-.583.396-.385.594-.924.198-.55.198-1.221 0-.638-.198-1.155t-.594-.88q-.396-.363-1-.55-.606-.198-1.42-.198h-2.222zM157.056 35.06v7.172q0 1.034.473 1.606.484.561 1.441.561.704 0 1.32-.308.616-.319 1.166-.869V35.06h2.717v11.286h-1.66q-.529 0-.694-.495l-.187-.902q-.352.352-.726.649-.374.286-.803.495-.418.198-.913.308-.484.121-1.045.121-.924 0-1.639-.308-.704-.319-1.188-.891-.484-.572-.737-1.353-.242-.792-.242-1.738V35.06zM167.074 46.346V35.06h1.661q.528 0 .693.495l.187.891q.341-.352.715-.638.385-.286.803-.495.43-.209.913-.319.484-.11 1.056-.11.924 0 1.64.319.714.308 1.187.88.484.561.726 1.353.253.781.253 1.727v7.183h-2.717v-7.183q0-1.034-.484-1.595-.473-.572-1.43-.572-.704 0-1.32.319-.616.319-1.166.869v8.162zM183.285 46.522q-1.463 0-2.255-.825-.792-.836-.792-2.299v-6.303h-1.144q-.22 0-.385-.143-.154-.143-.154-.429v-1.078l1.815-.297.572-3.08q.044-.22.198-.341.165-.121.407-.121h1.408v3.553h2.97v1.936h-2.97v6.116q0 .528.264.825.264.297.704.297.253 0 .418-.055.176-.066.297-.132.132-.066.231-.121.099-.066.198-.066.121 0 .198.066.077.055.165.176l.814 1.32q-.594.495-1.364.748-.77.253-1.595.253zM196.93 46.346h-1.221q-.385 0-.605-.11-.22-.121-.33-.473l-.242-.803q-.43.385-.847.682-.407.286-.847.484t-.935.297q-.495.099-1.1.099-.715 0-1.32-.187-.605-.198-1.045-.583-.43-.385-.671-.957-.242-.572-.242-1.331 0-.638.33-1.254.34-.627 1.122-1.122.78-.506 2.079-.836 1.298-.33 3.223-.374v-.66q0-1.133-.484-1.672-.473-.55-1.386-.55-.66 0-1.1.154-.44.154-.77.352-.32.187-.594.341-.275.154-.605.154-.275 0-.473-.143-.198-.143-.32-.352l-.494-.869q1.947-1.782 4.697-1.782.99 0 1.76.33.78.319 1.32.902.539.572.814 1.375.286.803.286 1.76zm-5.28-1.694q.418 0 .77-.077.352-.077.66-.231.319-.154.605-.374.297-.231.594-.539v-1.903q-1.188.055-1.991.209-.792.143-1.276.374t-.693.539q-.198.308-.198.671 0 .715.418 1.023.429.308 1.11.308zM202.494 35.06v11.671q0 .737-.198 1.386-.187.649-.616 1.133-.418.495-1.11.77-.683.286-1.673.286-.385 0-.715-.055-.33-.044-.67-.154l.087-1.463q.033-.22.176-.286.143-.055.55-.055.407 0 .682-.088.286-.077.451-.264.176-.176.242-.473.077-.297.077-.737V35.06zm.407-3.289q0 .352-.143.66-.143.308-.385.539-.23.231-.55.374-.319.132-.682.132-.352 0-.67-.132-.309-.143-.54-.374-.23-.231-.374-.539-.132-.308-.132-.66 0-.363.132-.682.143-.319.374-.55.231-.231.54-.363.318-.143.67-.143.363 0 .682.143.32.132.55.363.242.231.385.55.143.319.143.682zM210.195 34.884q1.067 0 1.958.341.902.341 1.551 1.001.65.649 1.012 1.606.363.946.363 2.167 0 .308-.033.517-.022.198-.099.319-.066.11-.187.165-.12.044-.308.044h-6.974q.121 1.738.935 2.552.814.814 2.156.814.66 0 1.133-.154.484-.154.836-.341.363-.187.627-.341.275-.154.528-.154.165 0 .286.066.121.066.21.187l.791.99q-.45.528-1.012.891-.56.352-1.177.572-.605.209-1.243.297-.627.088-1.22.088-1.178 0-2.19-.385-1.012-.396-1.76-1.155-.748-.77-1.177-1.892-.429-1.133-.429-2.618 0-1.155.374-2.167.374-1.023 1.067-1.771.704-.759 1.705-1.199 1.012-.44 2.277-.44zm.055 1.947q-1.188 0-1.859.671-.67.671-.858 1.903h5.104q0-.528-.143-.99-.143-.473-.44-.825-.297-.352-.748-.55-.45-.209-1.056-.209zM229.5 46.346q-.528 0-.693-.495l-.22-1.089q-.352.396-.737.715-.385.319-.836.55-.44.231-.957.352-.506.132-1.1.132-.924 0-1.694-.385-.77-.385-1.33-1.111-.55-.737-.859-1.815-.297-1.078-.297-2.464 0-1.254.341-2.332.341-1.078.98-1.87.637-.792 1.528-1.232.891-.451 2.002-.451.946 0 1.617.308.671.297 1.2.803V30h2.716v16.346zm-3.619-1.991q.847 0 1.441-.352.594-.352 1.122-1.001v-5.06q-.462-.561-1.012-.792-.539-.231-1.166-.231-.616 0-1.122.231-.495.231-.847.704-.34.462-.528 1.188-.187.715-.187 1.694 0 .99.154 1.683.165.682.462 1.122.297.429.726.627.43.187.957.187zM236.998 35.06v11.286h-2.717V35.06zm.407-3.289q0 .352-.143.66-.143.308-.385.539-.23.231-.55.374-.319.132-.682.132-.352 0-.67-.132-.309-.143-.54-.374-.23-.231-.374-.539-.132-.308-.132-.66 0-.363.132-.682.143-.319.374-.55.231-.231.54-.363.318-.143.67-.143.363 0 .682.143.32.132.55.363.242.231.385.55.143.319.143.682zM246.777 37.26q-.11.176-.231.253-.121.066-.308.066-.198 0-.429-.11-.22-.11-.517-.242-.297-.143-.682-.253-.374-.11-.891-.11-.803 0-1.265.341-.462.341-.462.891 0 .363.231.616.242.242.627.429.396.187.891.341.495.143 1.012.319.517.176 1.012.407.495.22.88.572.396.341.627.825.242.484.242 1.166 0 .814-.297 1.507-.297.682-.869 1.188-.572.495-1.419.781-.836.275-1.925.275-.583 0-1.144-.11-.55-.099-1.067-.286-.506-.187-.946-.44-.429-.253-.759-.55l.627-1.034q.121-.187.286-.286.165-.099.418-.099t.473.143q.231.143.528.308.297.165.693.308.407.143 1.023.143.484 0 .825-.11.352-.121.572-.308.231-.187.33-.429.11-.253.11-.517 0-.396-.242-.649-.231-.253-.627-.44-.385-.187-.891-.33-.495-.154-1.023-.33-.517-.176-1.023-.407-.495-.242-.891-.605-.385-.363-.627-.891-.231-.528-.231-1.276 0-.693.275-1.32.275-.627.803-1.089.539-.473 1.331-.748.803-.286 1.848-.286 1.166 0 2.123.385.957.385 1.595 1.012zM249.703 50.031V35.06h1.661q.264 0 .451.121t.242.374l.22 1.045q.682-.781 1.562-1.265.891-.484 2.079-.484.924 0 1.683.385.77.385 1.32 1.122.561.726.858 1.804.308 1.067.308 2.453 0 1.265-.341 2.343t-.979 1.87q-.627.792-1.529 1.243-.891.44-2.002.44-.957 0-1.628-.286-.66-.297-1.188-.814v4.62zm5.28-13.035q-.847 0-1.452.363-.594.352-1.111 1.001v5.06q.462.572 1.001.803.55.22 1.177.22.616 0 1.111-.231.506-.231.847-.704.352-.473.539-1.188.187-.726.187-1.705 0-.99-.165-1.672-.154-.693-.451-1.122-.297-.429-.726-.627-.418-.198-.957-.198zM266.828 34.884q1.067 0 1.958.341.902.341 1.55 1.001.65.649 1.013 1.606.363.946.363 2.167 0 .308-.033.517-.022.198-.1.319-.065.11-.186.165-.121.044-.308.044h-6.974q.12 1.738.935 2.552.814.814 2.156.814.66 0 1.133-.154.484-.154.836-.341.363-.187.627-.341.275-.154.528-.154.165 0 .286.066.12.066.209.187l.792.99q-.451.528-1.012.891-.561.352-1.177.572-.605.209-1.243.297-.627.088-1.221.088-1.177 0-2.19-.385-1.011-.396-1.76-1.155-.747-.77-1.176-1.892-.43-1.133-.43-2.618 0-1.155.375-2.167.374-1.023 1.067-1.771.704-.759 1.705-1.199 1.012-.44 2.277-.44zm.055 1.947q-1.188 0-1.86.671-.67.671-.857 1.903h5.104q0-.528-.143-.99-.143-.473-.44-.825-.297-.352-.748-.55-.451-.209-1.056-.209zM273.937 46.346V35.06h1.595q.418 0 .583.154.165.154.22.528l.165 1.364q.605-1.045 1.42-1.65.813-.605 1.825-.605.836 0 1.386.385l-.352 2.035q-.033.198-.143.286-.11.077-.297.077-.165 0-.45-.077-.287-.077-.76-.077-.847 0-1.452.473-.605.462-1.023 1.364v7.029zM289.617 37.26q-.11.176-.231.253-.121.066-.308.066-.198 0-.43-.11-.22-.11-.516-.242-.297-.143-.682-.253-.374-.11-.891-.11-.803 0-1.265.341-.462.341-.462.891 0 .363.23.616.243.242.628.429.396.187.89.341.496.143 1.013.319.517.176 1.012.407.495.22.88.572.396.341.627.825.242.484.242 1.166 0 .814-.297 1.507-.297.682-.87 1.188-.571.495-1.418.781-.836.275-1.925.275-.583 0-1.144-.11-.55-.099-1.067-.286-.506-.187-.946-.44-.43-.253-.76-.55l.628-1.034q.12-.187.286-.286.165-.099.418-.099t.473.143q.23.143.528.308.297.165.693.308.407.143 1.023.143.484 0 .825-.11.352-.121.572-.308.23-.187.33-.429.11-.253.11-.517 0-.396-.242-.649-.231-.253-.627-.44-.385-.187-.891-.33-.495-.154-1.023-.33-.517-.176-1.023-.407-.495-.242-.891-.605-.385-.363-.627-.891-.231-.528-.231-1.276 0-.693.275-1.32.275-.627.803-1.089.539-.473 1.33-.748.804-.286 1.849-.286 1.166 0 2.123.385.957.385 1.595 1.012zM297.36 34.884q1.266 0 2.289.407 1.034.407 1.76 1.155t1.122 1.826q.396 1.078.396 2.409 0 1.342-.396 2.42-.396 1.078-1.122 1.837-.726.759-1.76 1.166-1.023.407-2.288.407t-2.3-.407q-1.033-.407-1.77-1.166-.726-.759-1.133-1.837-.396-1.078-.396-2.42 0-1.331.396-2.409.407-1.078 1.133-1.826.737-.748 1.77-1.155 1.035-.407 2.3-.407zm0 9.537q1.409 0 2.08-.946.682-.946.682-2.772 0-1.826-.682-2.783-.671-.957-2.08-.957-1.43 0-2.111.968-.682.957-.682 2.772t.682 2.772q.682.946 2.112.946z" style="line-height:1.25;-inkscape-font-specification:'Lato Bold';text-align:center" font-weight="700" font-size="22" font-family="Lato" letter-spacing="0" word-spacing="0" text-anchor="middle"/><path d="M772 67v212M700 67v212M628 67v212M556 67v212" fill="none" stroke="gray" stroke-width="2"/><path fill="#3f3f3f" paint-order="stroke markers fill" d="M484 67h360v208H484z"/><path d="M480 67h364M480 101.5h364M480 136h364M480 170.5h364M480 205h364M480 239.5h364M480 274h364M844 67v212M484 67v212" fill="none" stroke="gray" stroke-width="2"/><path d="M473.13 273.974c0-3.655-1.478-5.525-3.722-5.525-2.5 0-3.808 2.023-3.808 5.474 0 3.196.986 5.627 3.774 5.627 2.703 0 3.757-2.448 3.757-5.576zm-2.566.102c0 3.145-.442 4.692-1.207 4.692-.765 0-1.224-1.58-1.224-4.76 0-3.247.459-4.81 1.224-4.81.782 0 1.207 1.546 1.207 4.878zM464.594 244.863v-.73c-1.564 0-2.295-.307-2.295-1.14V234h-1.122l-3.774.935v.833a11.618 11.618 0 011.82-.204c.424 0 .56.238.56.833v6.596c0 .85-.68 1.14-2.278 1.14v.73zM473.13 239.474c0-3.655-1.478-5.525-3.722-5.525-2.5 0-3.808 2.023-3.808 5.474 0 3.196.986 5.627 3.774 5.627 2.703 0 3.757-2.448 3.757-5.576zm-2.566.102c0 3.145-.442 4.692-1.207 4.692-.765 0-1.224-1.58-1.224-4.76 0-3.247.459-4.81 1.224-4.81.782 0 1.207 1.546 1.207 4.878zM464.628 206.963h-.73c-.392 1.02-.613 1.394-1.514 1.394h-1.955l-1.07.12v-.137l1.971-1.632c2.04-1.683 3.043-2.839 3.043-4.505 0-1.717-1.41-2.873-3.366-2.873-1.836 0-3.179.918-3.79 2.584l.747.272c.578-1.19 1.258-1.479 2.21-1.479 1.14 0 1.598.697 1.598 1.751 0 1.853-.782 2.924-2.346 4.522l-2.21 2.244v1.14h6.868zM473.13 204.974c0-3.655-1.478-5.525-3.722-5.525-2.5 0-3.808 2.023-3.808 5.474 0 3.196.986 5.627 3.774 5.627 2.703 0 3.757-2.448 3.757-5.576zm-2.566.102c0 3.145-.442 4.692-1.207 4.692-.765 0-1.224-1.58-1.224-4.76 0-3.247.459-4.81 1.224-4.81.782 0 1.207 1.546 1.207 4.878zM457.913 167.457c.544-.782 1.14-1.19 2.108-1.19.918 0 1.496.51 1.496 1.36 0 1.19-.986 1.989-2.04 1.989h-.374v1.071h.323c1.82 0 2.703.867 2.703 2.346 0 1.666-.595 2.21-1.41 2.21-.936 0-1.514-1.207-2.432-1.207-.612 0-.918.476-.918 1.02 0 .714.527 1.122 2.16 1.122 2.753 0 5.014-1.122 5.014-3.451 0-1.36-.935-2.38-2.737-2.992v-.136c1.275-.527 2.108-1.054 2.108-2.397 0-1.36-1.19-2.38-3.145-2.38-1.564 0-2.737.816-3.45 2.295zM473.13 170.534c0-3.655-1.478-5.525-3.722-5.525-2.5 0-3.808 2.023-3.808 5.474 0 3.196.986 5.627 3.774 5.627 2.703 0 3.757-2.448 3.757-5.576zm-2.566.102c0 3.145-.442 4.692-1.207 4.692-.765 0-1.224-1.581-1.224-4.76 0-3.247.459-4.811 1.224-4.811.782 0 1.207 1.547 1.207 4.879zM464.968 139.349v-1.989h-1.394v-6.902h-1.989l-4.573 7.021v1.87h4.097v2.074h2.465v-2.074zm-3.859-1.989h-2.737v-.068l2.686-4.216h.051zM473.13 136.034c0-3.655-1.478-5.525-3.722-5.525-2.5 0-3.808 2.023-3.808 5.474 0 3.196.986 5.627 3.774 5.627 2.703 0 3.757-2.448 3.757-5.576zm-2.566.102c0 3.145-.442 4.692-1.207 4.692-.765 0-1.224-1.581-1.224-4.76 0-3.247.459-4.811 1.224-4.811.782 0 1.207 1.547 1.207 4.879zM464 98.066l.305-1.887h-5.338l-1.207 5.151.29.459c.237 0 .288 0 .73.017 2.21.085 3.69.408 3.69 2.142 0 1.717-.698 2.244-1.939 2.244-1.054 0-1.564-1.19-2.482-1.19-.612 0-.918.544-.918 1.088 0 .714.527 1.071 2.16 1.071 2.787 0 5.422-1.054 5.422-3.995 0-2.975-3.45-3.502-5.576-3.502l.357-1.598zM473.13 101.5c0-3.655-1.478-5.525-3.722-5.525-2.5 0-3.808 2.023-3.808 5.474 0 3.196.986 5.627 3.774 5.627 2.703 0 3.757-2.448 3.757-5.576zm-2.566.102c0 3.145-.442 4.692-1.207 4.692-.765 0-1.224-1.581-1.224-4.76 0-3.247.459-4.811 1.224-4.811.782 0 1.207 1.547 1.207 4.879zM464.39 61.339c-3.825.153-7.19 2.414-7.19 6.715 0 2.635 1.206 4.505 3.994 4.505 2.346 0 3.604-1.275 3.604-3.859 0-2.193-1.122-3.434-2.856-3.434-.833 0-1.326.323-1.989.986l-.187-.017c.51-2.38 2.33-3.74 4.71-4.097zm-2.09 7.667c0 2.04-.34 2.754-1.055 2.754-1.02 0-1.479-1.445-1.479-3.451 0-1.292.493-1.768 1.14-1.768.934 0 1.393 1.071 1.393 2.465zM473.13 66.932c0-3.655-1.478-5.525-3.722-5.525-2.5 0-3.808 2.023-3.808 5.474 0 3.196.986 5.627 3.774 5.627 2.703 0 3.757-2.448 3.757-5.576zm-2.566.102c0 3.145-.442 4.692-1.207 4.692-.765 0-1.224-1.581-1.224-4.76 0-3.247.459-4.811 1.224-4.811.782 0 1.207 1.547 1.207 4.879z" style="line-height:1.25;-inkscape-font-specification:'STIX Two Text Bold';text-align:end" font-weight="700" font-size="17" font-family="STIX Two Text" letter-spacing="0" word-spacing="0" text-anchor="end"/><path d="M487.765 290.525c0-3.655-1.479-5.525-3.723-5.525-2.499 0-3.808 2.023-3.808 5.474 0 3.196.986 5.627 3.774 5.627 2.703 0 3.757-2.448 3.757-5.576zm-2.567.102c0 3.145-.442 4.692-1.207 4.692-.765 0-1.224-1.581-1.224-4.76 0-3.247.46-4.811 1.224-4.811.782 0 1.207 1.547 1.207 4.879zM559.663 292.514h-.73c-.392 1.02-.613 1.394-1.514 1.394h-1.955l-1.07.119v-.136l1.971-1.632c2.04-1.683 3.043-2.839 3.043-4.505 0-1.717-1.41-2.873-3.366-2.873-1.836 0-3.179.918-3.79 2.584l.747.272c.578-1.19 1.258-1.479 2.21-1.479 1.14 0 1.598.697 1.598 1.751 0 1.853-.782 2.924-2.346 4.522l-2.21 2.244v1.139h6.868zM632.046 293.84v-1.989h-1.394v-6.902h-1.989l-4.573 7.021v1.87h4.097v2.074h2.465v-2.074zm-3.859-1.989h-2.737v-.068l2.686-4.216h.051zM703.4 284.932c-3.825.153-7.191 2.414-7.191 6.715 0 2.635 1.207 4.505 3.995 4.505 2.346 0 3.604-1.275 3.604-3.859 0-2.193-1.122-3.434-2.856-3.434-.833 0-1.326.323-1.989.986l-.187-.017c.51-2.38 2.329-3.74 4.709-4.097zm-2.091 7.667c0 2.04-.34 2.754-1.054 2.754-1.02 0-1.479-1.445-1.479-3.451 0-1.292.493-1.768 1.139-1.768.935 0 1.394 1.071 1.394 2.465zM775.783 293.194c0-1.411-.646-2.108-2.635-3.366v-.051c1.598-.765 2.159-1.445 2.159-2.601 0-1.326-1.36-2.295-3.23-2.295-2.142 0-3.655.986-3.655 2.635 0 1.088.39 1.887 2.176 3.077v.051c-1.564.935-2.448 1.53-2.448 2.856 0 1.751 1.53 2.652 3.62 2.652 2.262 0 4.013-.986 4.013-2.958zm-2.431-6.001c0 .952-.357 1.581-.901 2.159-1.258-.782-1.734-1.377-1.734-2.227 0-.935.578-1.479 1.428-1.479.697 0 1.207.561 1.207 1.547zm-2.142 3.859c1.649 1.241 2.176 1.785 2.176 2.805 0 1.037-.833 1.564-1.547 1.564-1.003 0-1.683-.646-1.683-2.057 0-1.071.527-1.547 1.054-2.312zM843.43 295.914v-.731c-1.565 0-2.296-.306-2.296-1.139v-8.993h-1.122l-3.774.935v.833a11.618 11.618 0 011.82-.204c.424 0 .56.238.56.833v6.596c0 .85-.68 1.139-2.278 1.139v.731zM851.966 290.525c0-3.655-1.48-5.525-3.723-5.525-2.5 0-3.808 2.023-3.808 5.474 0 3.196.986 5.627 3.774 5.627 2.703 0 3.757-2.448 3.757-5.576zm-2.567.102c0 3.145-.442 4.692-1.207 4.692-.765 0-1.224-1.581-1.224-4.76 0-3.247.459-4.811 1.224-4.811.782 0 1.207 1.547 1.207 4.879z" style="line-height:1.25;-inkscape-font-specification:'STIX Two Text Bold';text-align:center" font-weight="700" font-size="17" font-family="STIX Two Text" letter-spacing="0" word-spacing="0" text-anchor="middle"/><path d="M580.339 40.747v5.599h-2.96V30.44h5.182q1.595 0 2.76.374 1.167.374 1.926 1.045.759.671 1.122 1.606.363.935.363 2.046 0 1.155-.385 2.123-.385.957-1.155 1.65t-1.925 1.078q-1.155.385-2.706.385zm0-2.31h2.222q.814 0 1.419-.198.605-.209 1-.583.397-.385.595-.924.198-.55.198-1.221 0-.638-.198-1.155t-.594-.88q-.396-.363-1.001-.55-.605-.198-1.42-.198h-2.221zM593.363 35.06v7.172q0 1.034.473 1.606.484.561 1.44.561.705 0 1.32-.308.617-.319 1.167-.869V35.06h2.717v11.286h-1.661q-.528 0-.693-.495l-.187-.902q-.352.352-.726.649-.374.286-.803.495-.418.198-.913.308-.484.121-1.045.121-.924 0-1.64-.308-.703-.319-1.187-.891-.484-.572-.737-1.353-.242-.792-.242-1.738V35.06zM603.38 46.346V35.06h1.662q.528 0 .693.495l.187.891q.34-.352.715-.638.385-.286.803-.495.429-.209.913-.319.484-.11 1.056-.11.924 0 1.639.319.715.308 1.188.88.484.561.726 1.353.253.781.253 1.727v7.183h-2.717v-7.183q0-1.034-.484-1.595-.473-.572-1.43-.572-.704 0-1.32.319-.616.319-1.166.869v8.162zM619.592 46.522q-1.463 0-2.255-.825-.792-.836-.792-2.299v-6.303H615.4q-.22 0-.385-.143-.154-.143-.154-.429v-1.078l1.815-.297.572-3.08q.044-.22.198-.341.165-.121.407-.121h1.408v3.553h2.97v1.936h-2.97v6.116q0 .528.264.825.264.297.704.297.253 0 .418-.055.176-.066.297-.132.132-.066.23-.121.1-.066.199-.066.12 0 .198.066.077.055.165.176l.814 1.32q-.594.495-1.364.748-.77.253-1.595.253zM633.236 46.346h-1.22q-.386 0-.606-.11-.22-.121-.33-.473l-.242-.803q-.429.385-.847.682-.407.286-.847.484t-.935.297q-.495.099-1.1.099-.715 0-1.32-.187-.605-.198-1.045-.583-.429-.385-.67-.957-.243-.572-.243-1.331 0-.638.33-1.254.341-.627 1.122-1.122.781-.506 2.08-.836 1.297-.33 3.222-.374v-.66q0-1.133-.484-1.672-.473-.55-1.386-.55-.66 0-1.1.154-.44.154-.77.352-.319.187-.594.341-.275.154-.605.154-.275 0-.473-.143-.198-.143-.319-.352l-.495-.869q1.947-1.782 4.697-1.782.99 0 1.76.33.781.319 1.32.902.54.572.814 1.375.286.803.286 1.76zm-5.28-1.694q.418 0 .77-.077.352-.077.66-.231.32-.154.605-.374.297-.231.594-.539v-1.903q-1.188.055-1.99.209-.793.143-1.277.374-.484.231-.693.539-.198.308-.198.671 0 .715.418 1.023.43.308 1.111.308zM638.801 35.06v11.671q0 .737-.198 1.386-.187.649-.616 1.133-.418.495-1.11.77-.683.286-1.673.286-.385 0-.715-.055-.33-.044-.671-.154l.088-1.463q.033-.22.176-.286.143-.055.55-.055.407 0 .682-.088.286-.077.451-.264.176-.176.242-.473.077-.297.077-.737V35.06zm.407-3.289q0 .352-.143.66-.143.308-.385.539-.23.231-.55.374-.319.132-.682.132-.352 0-.67-.132-.309-.143-.54-.374-.231-.231-.374-.539-.132-.308-.132-.66 0-.363.132-.682.143-.319.374-.55.231-.231.539-.363.319-.143.671-.143.363 0 .682.143.32.132.55.363.242.231.385.55.143.319.143.682zM646.502 34.884q1.067 0 1.958.341.902.341 1.55 1.001.65.649 1.013 1.606.363.946.363 2.167 0 .308-.033.517-.022.198-.1.319-.065.11-.186.165-.121.044-.308.044h-6.974q.12 1.738.935 2.552.814.814 2.156.814.66 0 1.133-.154.484-.154.836-.341.363-.187.627-.341.275-.154.528-.154.165 0 .286.066.12.066.209.187l.792.99q-.451.528-1.012.891-.561.352-1.177.572-.605.209-1.243.297-.627.088-1.221.088-1.177 0-2.19-.385-1.011-.396-1.76-1.155-.747-.77-1.176-1.892-.43-1.133-.43-2.618 0-1.155.375-2.167.374-1.023 1.067-1.771.704-.759 1.705-1.199 1.012-.44 2.277-.44zm.055 1.947q-1.188 0-1.86.671-.67.671-.857 1.903h5.104q0-.528-.143-.99-.143-.473-.44-.825-.297-.352-.748-.55-.451-.209-1.056-.209zM662.683 34.884q1.265 0 2.288.407 1.034.407 1.76 1.155t1.122 1.826q.396 1.078.396 2.409 0 1.342-.396 2.42-.396 1.078-1.122 1.837-.726.759-1.76 1.166-1.023.407-2.288.407t-2.299-.407q-1.034-.407-1.77-1.166-.727-.759-1.134-1.837-.396-1.078-.396-2.42 0-1.331.396-2.409.407-1.078 1.133-1.826.737-.748 1.771-1.155 1.034-.407 2.3-.407zm0 9.537q1.408 0 2.08-.946.681-.946.681-2.772 0-1.826-.682-2.783-.67-.957-2.079-.957-1.43 0-2.112.968-.682.957-.682 2.772t.682 2.772q.682.946 2.112.946zM670.369 46.346V35.06h1.595q.418 0 .583.154.165.154.22.528l.165 1.364q.605-1.045 1.419-1.65.814-.605 1.826-.605.836 0 1.386.385l-.352 2.035q-.033.198-.143.286-.11.077-.297.077-.165 0-.451-.077-.286-.077-.759-.077-.847 0-1.452.473-.605.462-1.023 1.364v7.029zM687.291 46.346q-.528 0-.693-.495l-.22-1.089q-.352.396-.737.715-.385.319-.836.55-.44.231-.957.352-.506.132-1.1.132-.924 0-1.694-.385-.77-.385-1.33-1.111-.55-.737-.859-1.815-.297-1.078-.297-2.464 0-1.254.341-2.332.341-1.078.98-1.87.637-.792 1.528-1.232.891-.451 2.002-.451.946 0 1.617.308.671.297 1.2.803V30h2.716v16.346zm-3.619-1.991q.847 0 1.441-.352.594-.352 1.122-1.001v-5.06q-.462-.561-1.012-.792-.539-.231-1.166-.231-.616 0-1.122.231-.495.231-.847.704-.34.462-.528 1.188-.187.715-.187 1.694 0 .99.154 1.683.165.682.462 1.122.297.429.726.627.43.187.957.187zM696.56 34.884q1.067 0 1.958.341.902.341 1.551 1.001.65.649 1.012 1.606.363.946.363 2.167 0 .308-.033.517-.022.198-.099.319-.066.11-.187.165-.12.044-.308.044h-6.974q.121 1.738.935 2.552.814.814 2.156.814.66 0 1.133-.154.484-.154.836-.341.363-.187.627-.341.275-.154.528-.154.165 0 .286.066.121.066.21.187l.791.99q-.45.528-1.012.891-.56.352-1.177.572-.605.209-1.243.297-.627.088-1.22.088-1.178 0-2.19-.385-1.012-.396-1.76-1.155-.748-.77-1.177-1.892-.429-1.133-.429-2.618 0-1.155.374-2.167.374-1.023 1.067-1.771.704-.759 1.705-1.199 1.012-.44 2.277-.44zm.055 1.947q-1.188 0-1.859.671-.67.671-.858 1.903h5.104q0-.528-.143-.99-.143-.473-.44-.825-.297-.352-.748-.55-.45-.209-1.056-.209zM703.67 46.346V35.06h1.66q.529 0 .694.495l.187.891q.34-.352.715-.638.385-.286.803-.495.429-.209.913-.319.484-.11 1.056-.11.924 0 1.639.319.715.308 1.188.88.484.561.726 1.353.253.781.253 1.727v7.183h-2.717v-7.183q0-1.034-.484-1.595-.473-.572-1.43-.572-.704 0-1.32.319-.616.319-1.166.869v8.162zM725.018 46.346h-1.221q-.385 0-.605-.11-.22-.121-.33-.473l-.242-.803q-.43.385-.847.682-.407.286-.847.484t-.935.297q-.495.099-1.1.099-.715 0-1.32-.187-.605-.198-1.045-.583-.43-.385-.671-.957-.242-.572-.242-1.331 0-.638.33-1.254.34-.627 1.122-1.122.78-.506 2.079-.836 1.298-.33 3.223-.374v-.66q0-1.133-.484-1.672-.473-.55-1.386-.55-.66 0-1.1.154-.44.154-.77.352-.32.187-.594.341-.275.154-.605.154-.275 0-.473-.143-.198-.143-.32-.352l-.494-.869q1.947-1.782 4.697-1.782.99 0 1.76.33.78.319 1.32.902.539.572.814 1.375.286.803.286 1.76zm-5.28-1.694q.418 0 .77-.077.352-.077.66-.231.319-.154.605-.374.297-.231.594-.539v-1.903q-1.188.055-1.991.209-.792.143-1.276.374t-.693.539q-.198.308-.198.671 0 .715.418 1.023.429.308 1.11.308zM735.631 46.346q-.528 0-.693-.495l-.22-1.089q-.352.396-.737.715-.385.319-.836.55-.44.231-.957.352-.506.132-1.1.132-.924 0-1.694-.385-.77-.385-1.33-1.111-.55-.737-.859-1.815-.297-1.078-.297-2.464 0-1.254.341-2.332.341-1.078.98-1.87.637-.792 1.528-1.232.891-.451 2.002-.451.946 0 1.617.308.671.297 1.2.803V30h2.716v16.346zm-3.619-1.991q.847 0 1.441-.352.594-.352 1.122-1.001v-5.06q-.462-.561-1.012-.792-.539-.231-1.166-.231-.616 0-1.122.231-.495.231-.847.704-.34.462-.528 1.188-.187.715-.187 1.694 0 .99.154 1.683.165.682.462 1.122.297.429.726.627.43.187.957.187zM745.054 34.884q1.265 0 2.288.407 1.034.407 1.76 1.155t1.122 1.826q.396 1.078.396 2.409 0 1.342-.396 2.42-.396 1.078-1.122 1.837-.726.759-1.76 1.166-1.023.407-2.288.407t-2.299-.407q-1.034-.407-1.77-1.166-.727-.759-1.134-1.837-.396-1.078-.396-2.42 0-1.331.396-2.409.407-1.078 1.133-1.826.737-.748 1.771-1.155 1.034-.407 2.3-.407zm0 9.537q1.408 0 2.08-.946.681-.946.681-2.772 0-1.826-.682-2.783-.67-.957-2.079-.957-1.43 0-2.112.968-.682.957-.682 2.772t.682 2.772q.682.946 2.112.946z" style="line-height:1.25;-inkscape-font-specification:'Lato Bold';text-align:center" font-weight="700" font-size="22" font-family="Lato" letter-spacing="0" word-spacing="0" text-anchor="middle"/><path fill="#c3e87b" paint-order="stroke markers fill" d="M114 171l7 7-7 6.999-7-7zM78 123l7 7-7 7-7-7zM150 198l7 7-7 7-7-7zM186 174l7 7-7 7-7-7zM222 118l7 7-7 7-7-7zM258 94.5l7 7-7 7-7-7zM294 154.5l7 7-7 7-7-7zM330 150.5l7 7-7 7-7-7zM366 129l7 7-7 7-7-7z"/><path fill="#d6d6d6" paint-order="stroke markers fill" d="M513 198h14v14h-14zM549 176h14v14h-14zM585 168h14v14h-14zM621 152h14v14h-14zM657 148h14v14h-14zM693 130h14v14h-14zM729 122h14v14h-14zM765 116h14v14h-14zM801 94.5h14v14h-14z"/></svg>