<svg xmlns="http://www.w3.org/2000/svg" height="162" width="134"><path d="M9.937 32.617q0 .125-.02.21-.02.086-.053.139-.033.052-.079.078-.04.02-.086.02H5.24q-.047 0-.086-.02-.04-.026-.08-.078-.033-.053-.052-.138-.02-.086-.02-.21 0-.12.02-.204.02-.086.046-.139.033-.059.072-.085.047-.033.1-.033H7.02V25.69l-1.65.98q-.125.065-.204.078-.073.013-.12-.026-.045-.046-.065-.145-.013-.098-.013-.25 0-.111.006-.19.014-.079.033-.131.02-.053.053-.092.04-.04.1-.08l1.966-1.254q.026-.02.066-.033.04-.013.099-.027.059-.013.138-.013.08-.006.198-.006.159 0 .264.013.106.013.165.04.06.019.08.058.02.033.02.073v7.472h1.543q.053 0 .1.033.046.026.072.085.033.053.046.138.02.086.02.204zM17.02 30.882q0 .552-.198.986-.198.427-.575.723-.37.296-.917.447-.548.151-1.254.151-.66 0-1.181-.138t-.884-.407q-.363-.27-.555-.664-.191-.395-.191-.9 0-.402.132-.737.132-.335.376-.617.25-.283.614-.526.363-.25.818-.473-.396-.204-.7-.428-.303-.23-.514-.493-.211-.269-.323-.571-.106-.303-.106-.658 0-.446.158-.834.165-.395.489-.684.33-.289.831-.453.508-.171 1.181-.171.647 0 1.116.158.475.15.778.42.31.263.456.625.145.361.145.775 0 .335-.112.644-.106.31-.317.585-.211.276-.521.52-.304.236-.7.446.469.23.832.473.37.244.613.526.251.276.377.592.131.309.131.683zm-1.426-4.364q0-.276-.099-.5-.092-.223-.277-.38-.185-.158-.462-.237-.27-.085-.62-.085-.713 0-1.083.322-.363.322-.363.88 0 .257.086.48.093.217.277.414.192.197.476.388.29.184.686.388.666-.342 1.023-.756.356-.414.356-.914zM15.871 31q0-.302-.112-.545-.112-.25-.343-.46-.224-.217-.568-.414-.336-.204-.785-.42-.416.203-.732.407-.31.204-.515.42-.198.217-.304.46-.099.237-.099.526 0 .638.436.986.442.348 1.313.348.845 0 1.274-.348.435-.355.435-.96zM28.75 32.578q0 .118-.02.21-.013.092-.046.158-.026.059-.08.092-.045.026-.105.026h-4.718q-.092 0-.165-.02-.066-.026-.119-.078-.046-.053-.072-.152-.02-.098-.02-.243 0-.131.006-.23.014-.098.047-.17.033-.08.079-.152.053-.079.132-.164l1.656-1.748q.574-.605.917-1.085.35-.48.535-.874.191-.394.25-.716.06-.322.06-.605 0-.282-.092-.532-.093-.256-.27-.447-.172-.19-.436-.302-.264-.112-.608-.112-.402 0-.725.112-.317.111-.561.243-.238.131-.403.243-.158.112-.238.112-.046 0-.085-.027-.033-.026-.06-.085-.02-.06-.033-.158-.013-.098-.013-.236 0-.099.007-.171.006-.073.02-.125.02-.053.046-.099.026-.046.105-.111.08-.073.27-.191.199-.118.49-.23.296-.118.646-.197.356-.08.746-.08.62 0 1.082.178.468.171.772.474.31.302.462.703.152.4.152.854 0 .408-.073.815-.072.401-.31.874-.231.467-.673 1.045-.442.572-1.175 1.321l-1.353 1.407h3.716q.052 0 .099.032.052.027.085.086.04.06.053.151.02.086.02.204zM35.938 28.792q0 .98-.158 1.788-.152.808-.515 1.393-.356.579-.937.9-.58.316-1.432.316-.805 0-1.36-.283-.547-.289-.884-.84-.336-.56-.481-1.368-.139-.815-.139-1.866 0-.973.158-1.781.159-.815.515-1.394.356-.585.937-.9.58-.322 1.426-.322.811 0 1.359.29.554.282.89.84.337.552.476 1.367.145.809.145 1.86zm-1.161.08q0-.638-.046-1.144-.047-.506-.139-.894-.086-.388-.231-.664-.139-.283-.337-.46-.197-.184-.455-.263-.25-.085-.567-.085-.561 0-.911.262-.35.263-.554.723-.198.46-.271 1.078-.073.618-.073 1.328 0 .953.1 1.623.098.664.31 1.085.217.42.547.61.337.191.812.191.37 0 .647-.118.284-.118.481-.335.205-.224.337-.532.132-.31.211-.684.08-.375.106-.808.033-.44.033-.914zM47.573 32.617q0 .125-.02.21-.02.086-.052.139-.033.052-.08.078-.039.02-.085.02h-4.461q-.046 0-.086-.02-.04-.026-.08-.078-.032-.053-.052-.138-.02-.086-.02-.21 0-.12.02-.204.02-.086.046-.139.033-.059.073-.085.046-.033.099-.033h1.782V25.69l-1.65.98q-.126.065-.205.078-.072.013-.119-.026-.046-.046-.066-.145-.013-.098-.013-.25 0-.111.007-.19.013-.079.033-.131.02-.053.053-.092.04-.04.099-.08l1.966-1.254q.027-.02.066-.033.04-.013.1-.027.059-.013.138-.013.079-.006.198-.006.158 0 .264.013.105.013.165.04.06.019.079.058.02.033.02.073v7.472h1.544q.053 0 .099.033.046.026.072.085.033.053.047.138.02.086.02.204zM54.524 28.477q0 .552-.066 1.117t-.224 1.091q-.159.52-.43.98-.263.453-.672.795-.403.341-.964.538-.554.191-1.293.191-.284 0-.555-.04-.264-.032-.481-.085-.212-.052-.357-.112-.145-.059-.21-.118-.067-.059-.1-.158-.026-.105-.026-.276 0-.144.006-.23.014-.085.033-.131.02-.046.053-.06.04-.019.092-.019.073 0 .205.053.132.046.33.105.205.059.475.111.27.046.607.046.64 0 1.096-.243.462-.25.752-.663.29-.415.436-.96.145-.545.158-1.15-.35.204-.838.361-.488.158-1.122.158-.713 0-1.201-.19-.482-.198-.779-.533-.29-.335-.422-.795-.125-.46-.125-1.006 0-.565.165-1.07.165-.514.514-.901.35-.388.891-.618.541-.23 1.294-.23.534 0 .943.138.416.131.72.388.303.25.514.61.211.356.337.81.132.453.185.985.059.526.059 1.11zm-1.155-.125q0-.841-.112-1.413-.112-.578-.33-.933-.218-.355-.534-.513-.317-.158-.733-.158-.429 0-.732.158-.304.151-.502.414-.191.256-.284.585-.092.329-.092.677 0 .388.079.71.086.322.27.545.185.224.482.349.297.118.733.118.495 0 .957-.145.462-.15.798-.394zM66.357 32.578q0 .118-.02.21-.013.092-.046.158-.026.059-.079.092-.046.026-.106.026h-4.718q-.092 0-.165-.02-.066-.026-.119-.078-.046-.053-.072-.152-.02-.098-.02-.243 0-.131.007-.23.013-.098.046-.17.033-.08.079-.152.053-.079.132-.164l1.656-1.748q.574-.605.918-1.085.35-.48.534-.874.191-.394.25-.716.06-.322.06-.605 0-.282-.092-.532-.093-.256-.27-.447-.172-.19-.436-.302-.264-.112-.607-.112-.403 0-.726.112-.317.111-.561.243-.238.131-.403.243-.158.112-.237.112-.047 0-.086-.027-.033-.026-.06-.085-.02-.06-.033-.158-.013-.098-.013-.236 0-.099.007-.171.006-.073.02-.125.02-.053.046-.099.026-.046.105-.111.08-.073.271-.191.198-.118.488-.23.297-.118.647-.197.356-.08.746-.08.62 0 1.082.178.469.171.772.474.31.302.462.703.152.4.152.854 0 .408-.073.815-.072.401-.31.874-.23.467-.673 1.045-.442.572-1.175 1.321l-1.352 1.407H66.1q.053 0 .099.032.053.027.086.086.04.06.052.151.02.086.02.204zM73.545 28.792q0 .98-.158 1.788-.152.808-.515 1.393-.356.579-.937.9-.58.316-1.432.316-.805 0-1.36-.283-.547-.289-.884-.84-.336-.56-.481-1.368-.139-.815-.139-1.866 0-.973.159-1.781.158-.815.514-1.394.357-.585.937-.9.581-.322 1.426-.322.811 0 1.36.29.554.282.89.84.337.552.475 1.367.145.809.145 1.86zm-1.161.08q0-.638-.046-1.144-.046-.506-.139-.894-.086-.388-.23-.664-.14-.283-.337-.46-.198-.184-.456-.263-.25-.085-.567-.085-.561 0-.91.262-.35.263-.555.723-.198.46-.27 1.078-.073.618-.073 1.328 0 .953.099 1.623.099.664.31 1.085.218.42.547.61.337.191.812.191.37 0 .647-.118.284-.118.482-.335.204-.224.336-.532.132-.31.211-.684.08-.375.106-.808.033-.44.033-.914zM85.156 32.578q0 .118-.02.21-.013.092-.046.158-.026.059-.08.092-.045.026-.105.026h-4.718q-.093 0-.165-.02-.066-.026-.119-.078-.046-.053-.073-.152-.02-.098-.02-.243 0-.131.007-.23.013-.098.046-.17.033-.08.08-.152.052-.079.132-.164l1.656-1.748q.574-.605.917-1.085.35-.48.535-.874.191-.394.25-.716.06-.322.06-.605 0-.282-.092-.532-.093-.256-.271-.447-.172-.19-.436-.302-.264-.112-.607-.112-.402 0-.726.112-.316.111-.56.243-.238.131-.403.243-.158.112-.238.112-.046 0-.085-.027-.033-.026-.06-.085-.02-.06-.033-.158-.013-.098-.013-.236 0-.099.007-.171.006-.073.02-.125.02-.053.046-.099.026-.046.105-.111.08-.073.27-.191.199-.118.489-.23.297-.118.647-.197.356-.08.745-.08.62 0 1.083.178.468.171.772.474.31.302.462.703.152.4.152.854 0 .408-.073.815-.073.401-.31.874-.231.467-.673 1.045-.442.572-1.175 1.321l-1.353 1.407H84.9q.052 0 .099.032.052.027.085.086.04.06.053.151.02.086.02.204zM92.344 28.792q0 .98-.158 1.788-.152.808-.515 1.393-.356.579-.937.9-.58.316-1.432.316-.805 0-1.36-.283-.547-.289-.884-.84-.336-.56-.482-1.368-.138-.815-.138-1.866 0-.973.158-1.781.159-.815.515-1.394.356-.585.937-.9.58-.322 1.425-.322.812 0 1.36.29.554.282.89.84.337.552.476 1.367.145.809.145 1.86zm-1.161.08q0-.638-.047-1.144-.046-.506-.138-.894-.086-.388-.231-.664-.139-.283-.337-.46-.198-.184-.455-.263-.25-.085-.568-.085-.56 0-.91.262-.35.263-.555.723-.198.46-.27 1.078-.073.618-.073 1.328 0 .953.1 1.623.098.664.31 1.085.217.42.547.61.337.191.812.191.37 0 .647-.118.283-.118.481-.335.205-.224.337-.532.132-.31.211-.684.08-.375.106-.808.033-.44.033-.914zM103.96 32.578q0 .118-.02.21-.014.092-.047.158-.026.059-.079.092-.046.026-.105.026H98.99q-.092 0-.165-.02-.066-.026-.118-.078-.047-.053-.073-.152-.02-.098-.02-.243 0-.131.007-.23.013-.098.046-.17.033-.08.08-.152.052-.079.131-.164l1.656-1.748q.575-.605.918-1.085.35-.48.534-.874.192-.394.251-.716.06-.322.06-.605 0-.282-.093-.532-.092-.256-.27-.447-.172-.19-.436-.302-.264-.112-.607-.112-.403 0-.726.112-.317.111-.561.243-.238.131-.403.243-.158.112-.237.112-.046 0-.086-.027-.033-.026-.06-.085-.02-.06-.032-.158-.013-.098-.013-.236 0-.099.006-.171.007-.073.02-.125.02-.053.046-.099.027-.046.106-.111.079-.073.27-.191.198-.118.489-.23.297-.118.646-.197.357-.08.746-.08.62 0 1.082.178.469.171.772.474.31.302.462.703.152.4.152.854 0 .408-.072.815-.073.401-.31.874-.232.467-.674 1.045-.442.572-1.174 1.321l-1.353 1.407h3.715q.053 0 .1.032.052.027.085.086.04.06.053.151.02.086.02.204zM111.148 28.792q0 .98-.159 1.788-.151.808-.514 1.393-.357.579-.938.9-.58.316-1.432.316-.805 0-1.359-.283-.548-.289-.884-.84-.337-.56-.482-1.368-.139-.815-.139-1.866 0-.973.159-1.781.158-.815.515-1.394.356-.585.937-.9.58-.322 1.425-.322.812 0 1.36.29.554.282.89.84.337.552.475 1.367.146.809.146 1.86zm-1.162.08q0-.638-.046-1.144-.046-.506-.139-.894-.085-.388-.23-.664-.14-.283-.337-.46-.198-.184-.455-.263-.251-.085-.568-.085-.56 0-.91.262-.35.263-.555.723-.198.46-.27 1.078-.073.618-.073 1.328 0 .953.099 1.623.099.664.31 1.085.218.42.548.61.336.191.811.191.37 0 .647-.118.284-.118.482-.335.204-.224.336-.532.132-.31.212-.684.079-.375.105-.808.033-.44.033-.914zM122.763 32.578q0 .118-.02.21-.013.092-.046.158-.026.059-.08.092-.045.026-.105.026h-4.718q-.093 0-.165-.02-.066-.026-.119-.078-.046-.053-.072-.152-.02-.098-.02-.243 0-.131.007-.23.013-.098.046-.17.033-.08.08-.152.052-.079.131-.164l1.656-1.748q.575-.605.918-1.085.35-.48.534-.874.192-.394.251-.716.06-.322.06-.605 0-.282-.093-.532-.092-.256-.27-.447-.172-.19-.436-.302-.264-.112-.607-.112-.403 0-.726.112-.317.111-.561.243-.238.131-.403.243-.158.112-.237.112-.046 0-.086-.027-.033-.026-.06-.085-.02-.06-.032-.158-.014-.098-.014-.236 0-.099.007-.171.007-.073.02-.125.02-.053.046-.099.027-.046.106-.111.08-.073.27-.191.199-.118.489-.23.297-.118.647-.197.356-.08.745-.08.62 0 1.083.178.468.171.772.474.31.302.462.703.151.4.151.854 0 .408-.072.815-.073.401-.31.874-.231.467-.673 1.045-.443.572-1.175 1.321l-1.353 1.407h3.715q.053 0 .1.032.052.027.085.086.04.06.053.151.02.086.02.204zM129.667 32.578q0 .118-.02.21-.013.092-.046.158-.026.059-.079.092-.046.026-.105.026h-4.719q-.092 0-.165-.02-.066-.026-.118-.078-.047-.053-.073-.152-.02-.098-.02-.243 0-.131.007-.23.013-.098.046-.17.033-.08.08-.152.052-.079.132-.164l1.656-1.748q.574-.605.917-1.085.35-.48.535-.874.191-.394.25-.716.06-.322.06-.605 0-.282-.093-.532-.092-.256-.27-.447-.172-.19-.436-.302-.264-.112-.607-.112-.402 0-.726.112-.316.111-.56.243-.238.131-.403.243-.159.112-.238.112-.046 0-.085-.027-.033-.026-.06-.085-.02-.06-.033-.158-.013-.098-.013-.236 0-.099.007-.171.007-.073.02-.125.02-.053.046-.099.026-.046.105-.111.08-.073.271-.191.198-.118.488-.23.297-.118.647-.197.356-.08.746-.08.62 0 1.082.178.469.171.772.474.31.302.462.703.152.4.152.854 0 .408-.073.815-.072.401-.31.874-.23.467-.673 1.045-.442.572-1.175 1.321l-1.352 1.407h3.715q.053 0 .099.032.053.027.086.086.04.06.052.151.02.086.02.204zM9.917 50.305q0 .118-.02.21-.013.092-.046.158-.026.059-.08.092-.045.026-.105.026H4.948q-.092 0-.165-.02-.066-.026-.119-.079-.046-.052-.072-.15-.02-.1-.02-.244 0-.131.006-.23.014-.099.047-.17.033-.08.079-.152.053-.079.132-.164l1.656-1.748q.574-.605.917-1.085.35-.48.535-.874.191-.394.25-.716.06-.322.06-.605t-.092-.532q-.093-.257-.27-.447-.172-.19-.436-.303-.264-.111-.608-.111-.402 0-.725.111-.317.112-.561.244-.238.131-.403.243-.158.112-.237.112-.047 0-.086-.027-.033-.026-.06-.085-.02-.06-.033-.158-.013-.098-.013-.237 0-.098.007-.17.006-.073.02-.125.02-.053.046-.099.026-.046.105-.112.08-.072.27-.19.199-.118.49-.23.296-.118.646-.197.356-.08.746-.08.62 0 1.082.178.468.171.772.473.31.303.462.704.152.4.152.854 0 .408-.073.815-.072.4-.31.874-.231.467-.673 1.045-.442.572-1.175 1.321l-1.353 1.406H9.66q.053 0 .099.033.053.027.086.086.04.059.052.15.02.086.02.205zM17.105 46.52q0 .978-.158 1.787-.152.808-.515 1.393-.356.578-.937.9-.58.316-1.432.316-.805 0-1.36-.283-.547-.289-.884-.84-.336-.56-.481-1.368-.139-.815-.139-1.866 0-.973.158-1.781.159-.815.515-1.394.357-.585.937-.9.581-.322 1.426-.322.811 0 1.36.289.553.283.89.841.337.552.475 1.367.145.809.145 1.86zm-1.161.078q0-.637-.046-1.144-.047-.506-.139-.893-.086-.388-.23-.664-.14-.283-.337-.46-.198-.184-.456-.263-.25-.086-.567-.086-.561 0-.911.263t-.554.723q-.198.46-.27 1.078-.074.618-.074 1.328 0 .953.1 1.623.098.664.31 1.084.217.421.547.612.337.19.812.19.37 0 .647-.118.284-.118.482-.335.204-.224.336-.533.132-.308.211-.683.08-.375.106-.808.033-.44.033-.914zM28.77 50.344q0 .125-.02.21-.02.086-.053.138-.033.053-.079.08-.04.019-.086.019h-4.46q-.047 0-.087-.02-.04-.026-.079-.079-.033-.052-.053-.138-.02-.085-.02-.21 0-.118.02-.204.02-.085.047-.138.033-.059.072-.085.046-.033.1-.033h1.781v-6.467l-1.65.98q-.125.065-.204.078-.073.013-.12-.026-.045-.046-.065-.145-.013-.098-.013-.25 0-.111.006-.19.013-.079.033-.131.02-.053.053-.092.04-.04.1-.08l1.966-1.255q.026-.02.066-.032.04-.014.099-.027.059-.013.138-.013.08-.007.198-.007.159 0 .264.014.106.013.165.04.06.019.08.058.02.033.02.073v7.472h1.543q.053 0 .1.033.045.026.072.085.033.053.046.138.02.086.02.204zM35.852 48.61q0 .551-.198.985-.197.427-.574.723-.37.296-.917.447-.548.15-1.254.15-.66 0-1.181-.137-.521-.138-.884-.408-.363-.27-.555-.663-.191-.395-.191-.9 0-.402.132-.737.132-.335.376-.618.25-.282.614-.525.363-.25.818-.474-.396-.203-.7-.427-.303-.23-.514-.493-.211-.27-.323-.571-.106-.303-.106-.658 0-.447.158-.834.165-.395.489-.684.33-.289.831-.453.508-.171 1.181-.171.647 0 1.116.158.475.15.778.42.31.263.456.625.145.361.145.775 0 .335-.112.644-.106.309-.317.585-.211.276-.521.52-.304.236-.7.446.469.23.832.473.37.243.613.526.251.276.376.592.132.308.132.683zm-1.425-4.365q0-.276-.099-.5-.092-.223-.277-.38-.185-.158-.462-.237-.27-.086-.62-.086-.713 0-1.083.323-.363.322-.363.88 0 .256.086.48.093.217.277.414.192.197.475.388.29.184.687.387.666-.341 1.023-.755.356-.414.356-.914zm.277 4.482q0-.302-.112-.545-.112-.25-.343-.46-.225-.217-.568-.414-.336-.204-.785-.42-.416.203-.732.407-.31.203-.515.42-.198.217-.304.46-.099.237-.099.526 0 .638.436.986.442.348 1.313.348.845 0 1.274-.348.435-.355.435-.96zM47.554 50.305q0 .118-.02.21-.013.092-.046.158-.027.059-.08.092-.046.026-.105.026h-4.719q-.092 0-.165-.02-.065-.026-.118-.079-.046-.052-.073-.15-.02-.1-.02-.244 0-.131.007-.23.013-.099.046-.17.033-.08.08-.152.052-.079.131-.164l1.657-1.748q.574-.605.917-1.085.35-.48.534-.874.192-.394.251-.716.06-.322.06-.605t-.093-.532q-.092-.257-.27-.447-.172-.19-.436-.303-.264-.111-.607-.111-.403 0-.726.111-.317.112-.56.244-.238.131-.403.243-.159.112-.238.112-.046 0-.086-.027-.033-.026-.06-.085-.019-.06-.032-.158-.013-.098-.013-.237 0-.098.006-.17.007-.073.02-.125.02-.053.046-.099.027-.046.106-.112.08-.072.27-.19.198-.118.489-.23.297-.118.646-.197.357-.08.746-.08.62 0 1.082.178.469.171.773.473.31.303.461.704.152.4.152.854 0 .408-.072.815-.073.4-.31.874-.231.467-.674 1.045-.442.572-1.174 1.321l-1.353 1.406h3.715q.053 0 .1.033.052.027.085.086.04.059.053.15.02.086.02.205zM54.478 50.344q0 .125-.02.21-.02.086-.053.138-.033.053-.079.08-.04.019-.086.019h-4.46q-.047 0-.087-.02-.04-.026-.079-.079-.033-.052-.053-.138-.02-.085-.02-.21 0-.118.02-.204.02-.085.047-.138.033-.059.072-.085.046-.033.1-.033h1.781v-6.467l-1.65.98q-.125.065-.204.078-.073.013-.12-.026-.045-.046-.065-.145-.013-.098-.013-.25 0-.111.006-.19.013-.079.033-.131.02-.053.053-.092.04-.04.1-.08l1.966-1.255q.026-.02.066-.032.04-.014.099-.027.059-.013.138-.013.08-.007.198-.007.159 0 .264.014.106.013.165.04.06.019.08.058.02.033.02.073v7.472h1.543q.053 0 .1.033.045.026.072.085.033.053.046.138.02.086.02.204zM66.357 50.305q0 .118-.02.21-.013.092-.046.158-.026.059-.079.092-.046.026-.106.026h-4.718q-.092 0-.165-.02-.066-.026-.119-.079-.046-.052-.072-.15-.02-.1-.02-.244 0-.131.007-.23.013-.099.046-.17.033-.08.079-.152.053-.079.132-.164l1.656-1.748q.574-.605.918-1.085.35-.48.534-.874.191-.394.25-.716.06-.322.06-.605t-.092-.532q-.093-.257-.27-.447-.172-.19-.436-.303-.264-.111-.607-.111-.403 0-.726.111-.317.112-.561.244-.238.131-.403.243-.158.112-.237.112-.047 0-.086-.027-.033-.026-.06-.085-.02-.06-.033-.158-.013-.098-.013-.237 0-.098.007-.17.006-.073.02-.125.02-.053.046-.099.026-.046.105-.112.08-.072.271-.19.198-.118.488-.23.297-.118.647-.197.356-.08.746-.08.62 0 1.082.178.469.171.772.473.31.303.462.704.152.4.152.854 0 .408-.073.815-.072.4-.31.874-.23.467-.673 1.045-.442.572-1.175 1.321l-1.352 1.406H66.1q.053 0 .099.033.053.027.086.086.04.059.052.15.02.086.02.205zM73.281 50.344q0 .125-.02.21-.02.086-.052.138-.033.053-.08.08-.039.019-.085.019h-4.461q-.046 0-.086-.02-.04-.026-.08-.079-.032-.052-.052-.138-.02-.085-.02-.21 0-.118.02-.204.02-.085.046-.138.033-.059.073-.085.046-.033.099-.033h1.782v-6.467l-1.65.98q-.126.065-.205.078-.072.013-.119-.026-.046-.046-.066-.145-.013-.098-.013-.25 0-.111.007-.19.013-.079.033-.131.02-.053.053-.092.04-.04.099-.08l1.966-1.255q.027-.02.066-.032.04-.014.1-.027.059-.013.138-.013.079-.007.198-.007.158 0 .264.014.105.013.165.04.06.019.079.058.02.033.02.073v7.472h1.544q.053 0 .099.033.046.026.072.085.033.053.047.138.02.086.02.204zM85.156 50.305q0 .118-.02.21-.013.092-.046.158-.026.059-.08.092-.045.026-.105.026h-4.718q-.093 0-.165-.02-.066-.026-.119-.079-.046-.052-.073-.15-.02-.1-.02-.244 0-.131.007-.23.013-.099.046-.17.033-.08.08-.152.052-.079.132-.164l1.656-1.748q.574-.605.917-1.085.35-.48.535-.874.191-.394.25-.716.06-.322.06-.605t-.092-.532q-.093-.257-.271-.447-.172-.19-.436-.303-.264-.111-.607-.111-.402 0-.726.111-.316.112-.56.244-.238.131-.403.243-.158.112-.238.112-.046 0-.085-.027-.033-.026-.06-.085-.02-.06-.033-.158-.013-.098-.013-.237 0-.098.007-.17.006-.073.02-.125.02-.053.046-.099.026-.046.105-.112.08-.072.27-.19.199-.118.489-.23.297-.118.647-.197.356-.08.745-.08.62 0 1.083.178.468.171.772.473.31.303.462.704.152.4.152.854 0 .408-.073.815-.073.4-.31.874-.231.467-.673 1.045-.442.572-1.175 1.321l-1.353 1.406H84.9q.052 0 .099.033.052.027.085.086.04.059.053.15.02.086.02.205zM92.08 50.344q0 .125-.02.21-.02.086-.052.138-.033.053-.08.08-.04.019-.085.019h-4.461q-.047 0-.086-.02-.04-.026-.08-.079-.032-.052-.052-.138-.02-.085-.02-.21 0-.118.02-.204.02-.085.046-.138.033-.059.073-.085.046-.033.099-.033h1.781v-6.467l-1.65.98q-.125.065-.204.078-.073.013-.119-.026-.046-.046-.066-.145-.013-.098-.013-.25 0-.111.007-.19.013-.079.033-.131.02-.053.052-.092.04-.04.1-.08l1.966-1.255q.026-.02.066-.032.04-.014.099-.027.06-.013.138-.013.08-.007.198-.007.159 0 .264.014.106.013.165.04.06.019.08.058.02.033.02.073v7.472h1.544q.052 0 .099.033.046.026.072.085.033.053.046.138.02.086.02.204zM103.96 50.305q0 .118-.02.21-.014.092-.047.158-.026.059-.079.092-.046.026-.105.026H98.99q-.092 0-.165-.02-.066-.026-.118-.079-.047-.052-.073-.15-.02-.1-.02-.244 0-.131.007-.23.013-.099.046-.17.033-.08.08-.152.052-.079.131-.164l1.656-1.748q.575-.605.918-1.085.35-.48.534-.874.192-.394.251-.716.06-.322.06-.605t-.093-.532q-.092-.257-.27-.447-.172-.19-.436-.303-.264-.111-.607-.111-.403 0-.726.111-.317.112-.561.244-.238.131-.403.243-.158.112-.237.112-.046 0-.086-.027-.033-.026-.06-.085-.02-.06-.032-.158-.013-.098-.013-.237 0-.098.006-.17.007-.073.02-.125.02-.053.046-.099.027-.046.106-.112.079-.072.27-.19.198-.118.489-.23.297-.118.646-.197.357-.08.746-.08.62 0 1.082.178.469.171.772.473.31.303.462.704.152.4.152.854 0 .408-.072.815-.073.4-.31.874-.232.467-.674 1.045-.442.572-1.174 1.321l-1.353 1.406h3.715q.053 0 .1.033.052.027.085.086.04.059.053.15.02.086.02.205zM110.884 50.344q0 .125-.02.21-.02.086-.053.138-.033.053-.08.08-.039.019-.085.019h-4.46q-.047 0-.087-.02-.04-.026-.079-.079-.033-.052-.053-.138-.02-.085-.02-.21 0-.118.02-.204.02-.085.046-.138.033-.059.073-.085.046-.033.1-.033h1.78v-6.467l-1.649.98q-.125.065-.205.078-.072.013-.118-.026-.047-.046-.066-.145-.014-.098-.014-.25 0-.111.007-.19.014-.079.033-.131.02-.053.053-.092.04-.04.1-.08l1.966-1.255q.026-.02.066-.032.04-.014.099-.027.06-.013.138-.013.08-.007.198-.007.159 0 .264.014.106.013.165.04.06.019.08.058.02.033.02.073v7.472h1.544q.052 0 .099.033.046.026.072.085.033.053.046.138.02.086.02.204zM122.783 50.344q0 .125-.02.21-.02.086-.053.138-.033.053-.079.08-.04.019-.086.019h-4.46q-.047 0-.087-.02-.04-.026-.079-.079-.033-.052-.053-.138-.02-.085-.02-.21 0-.118.02-.204.02-.085.047-.138.033-.059.072-.085.046-.033.1-.033h1.781v-6.467l-1.65.98q-.125.065-.204.078-.073.013-.12-.026-.045-.046-.065-.145-.013-.098-.013-.25 0-.111.007-.19.013-.079.033-.131.02-.053.052-.092.04-.04.1-.08l1.966-1.255q.026-.02.066-.032.04-.014.099-.027.06-.013.139-.013.079-.007.198-.007.158 0 .264.014.105.013.165.04.059.019.079.058.02.033.02.073v7.472h1.544q.053 0 .099.033.046.026.072.085.033.053.047.138.02.086.02.204zM129.733 46.204q0 .552-.066 1.117t-.224 1.09q-.158.52-.429.98-.264.454-.673.795-.402.342-.963.54-.555.19-1.294.19-.284 0-.554-.04-.264-.032-.482-.085-.211-.053-.356-.112-.145-.059-.211-.118-.066-.06-.1-.158-.026-.105-.026-.276 0-.144.007-.23.013-.085.033-.131.02-.046.053-.06.04-.02.092-.02.073 0 .205.053.132.046.33.106.204.059.475.111.27.046.607.046.64 0 1.096-.243.462-.25.752-.664.29-.414.435-.96.146-.545.159-1.15-.35.204-.838.362-.489.158-1.122.158-.713 0-1.201-.19-.482-.198-.779-.533-.29-.335-.422-.795-.126-.46-.126-1.006 0-.565.165-1.071.165-.513.515-.9.35-.388.891-.618.541-.23 1.293-.23.535 0 .944.138.416.131.72.388.303.25.514.61.211.356.337.81.132.453.184.985.06.526.06 1.11zm-1.154-.125q0-.841-.113-1.413-.112-.579-.33-.933-.217-.355-.534-.513-.317-.158-.733-.158-.429 0-.732.158-.304.151-.502.414-.191.256-.283.585-.093.328-.093.677 0 .388.08.71.085.322.27.545.185.224.482.348.297.119.732.119.495 0 .957-.145.462-.151.799-.394zM9.937 68.047q0 .124-.02.21-.02.085-.053.138-.033.053-.079.079-.04.02-.086.02H5.24q-.047 0-.086-.02-.04-.026-.08-.08-.033-.052-.052-.137-.02-.086-.02-.21 0-.119.02-.204.02-.086.046-.138.033-.06.072-.086.047-.032.1-.032H7.02V61.12l-1.65.979q-.125.066-.204.079-.073.013-.12-.027-.045-.046-.065-.144-.013-.099-.013-.25 0-.112.006-.19.014-.08.033-.132.02-.053.053-.092.04-.04.1-.079l1.966-1.255q.026-.02.066-.033.04-.013.099-.026.059-.013.138-.013.08-.007.198-.007.159 0 .264.013.106.013.165.04.06.02.08.059.02.033.02.072v7.473h1.543q.053 0 .1.032.046.027.072.086.033.052.046.138.02.085.02.204zM16.888 63.906q0 .552-.066 1.117-.066.566-.225 1.091-.158.52-.429.98-.264.453-.673.795-.402.342-.963.539-.555.19-1.294.19-.284 0-.554-.039-.264-.033-.482-.085-.211-.053-.356-.112-.145-.06-.211-.119t-.1-.157q-.026-.105-.026-.276 0-.145.007-.23.013-.086.033-.132.02-.046.053-.059.04-.02.092-.02.073 0 .205.053.132.046.33.105.204.06.475.112.27.046.607.046.64 0 1.095-.243.462-.25.753-.664.29-.414.435-.96.145-.545.158-1.15-.35.204-.838.362-.488.157-1.122.157-.712 0-1.2-.19-.482-.197-.78-.532-.29-.336-.422-.796-.125-.46-.125-1.005 0-.565.165-1.072.165-.512.515-.9t.89-.618q.542-.23 1.294-.23.535 0 .944.138.415.132.719.388.304.25.515.611.21.355.336.809.132.453.185.985.06.526.06 1.111zm-1.155-.125q0-.84-.113-1.413-.112-.578-.33-.933-.217-.355-.534-.513-.317-.157-.733-.157-.428 0-.732.157-.304.152-.502.414-.19.257-.283.585-.093.329-.093.677 0 .388.08.71.085.322.27.546.185.223.482.348.297.118.732.118.495 0 .957-.144.462-.152.799-.395zM28.75 68.007q0 .118-.02.21-.013.092-.046.158-.026.06-.08.092-.045.027-.105.027h-4.718q-.092 0-.165-.02-.066-.027-.119-.08-.046-.052-.072-.15-.02-.099-.02-.243 0-.132.006-.23.014-.099.047-.171.033-.08.079-.151.053-.08.132-.165l1.656-1.748q.574-.605.917-1.084.35-.48.535-.874.191-.395.25-.717.06-.322.06-.604 0-.283-.092-.533-.093-.256-.27-.447-.172-.19-.436-.302-.264-.112-.608-.112-.402 0-.725.112-.317.112-.561.243-.238.132-.403.243-.158.112-.238.112-.046 0-.085-.026-.033-.027-.06-.086-.02-.059-.033-.157-.013-.099-.013-.237 0-.099.007-.17.006-.073.02-.126.02-.052.046-.098.026-.046.105-.112.08-.072.27-.19.199-.119.49-.23.296-.119.646-.198.356-.079.746-.079.62 0 1.082.178.468.17.772.473.31.302.462.703.152.401.152.855 0 .407-.073.814-.072.401-.31.875-.231.466-.673 1.045-.442.571-1.175 1.32l-1.353 1.407h3.716q.052 0 .099.033.052.026.085.085.04.06.053.151.02.086.02.204zM35.674 68.047q0 .124-.02.21-.02.085-.052.138-.033.053-.08.079-.04.02-.085.02h-4.461q-.047 0-.086-.02-.04-.026-.08-.08-.032-.052-.052-.137-.02-.086-.02-.21 0-.119.02-.204.02-.086.046-.138.033-.06.073-.086.046-.032.099-.032h1.781V61.12l-1.65.979q-.125.066-.204.079-.073.013-.119-.027-.046-.046-.066-.144-.013-.099-.013-.25 0-.112.007-.19.013-.08.033-.132.02-.053.052-.092.04-.04.1-.079l1.966-1.255q.026-.02.066-.033.04-.013.099-.026.06-.013.139-.013.079-.007.198-.007.158 0 .264.013.105.013.165.04.059.02.079.059.02.033.02.072v7.473h1.544q.053 0 .099.032.046.027.072.086.033.052.046.138.02.085.02.204zM47.573 68.047q0 .124-.02.21-.02.085-.052.138-.033.053-.08.079-.039.02-.085.02h-4.461q-.046 0-.086-.02-.04-.026-.08-.08-.032-.052-.052-.137-.02-.086-.02-.21 0-.119.02-.204.02-.086.046-.138.033-.06.073-.086.046-.032.099-.032h1.782V61.12l-1.65.979q-.126.066-.205.079-.072.013-.119-.027-.046-.046-.066-.144-.013-.099-.013-.25 0-.112.007-.19.013-.08.033-.132.02-.053.053-.092.04-.04.099-.079l1.966-1.255q.027-.02.066-.033.04-.013.1-.026.059-.013.138-.013.079-.007.198-.007.158 0 .264.013.105.013.165.04.06.02.079.059.02.033.02.072v7.473h1.544q.053 0 .099.032.046.027.072.086.033.052.047.138.02.085.02.204zM54.656 66.312q0 .552-.198.985-.198.428-.574.723-.37.296-.917.447-.548.151-1.254.151-.66 0-1.181-.138-.522-.138-.885-.407-.363-.27-.554-.664-.191-.394-.191-.9 0-.401.132-.736.132-.336.376-.618.25-.283.613-.526.363-.25.819-.473-.396-.204-.7-.427-.303-.23-.515-.493-.21-.27-.323-.572-.105-.302-.105-.657 0-.447.158-.835.165-.394.488-.683.33-.29.832-.454.508-.17 1.181-.17.647 0 1.115.157.475.151.779.42.31.264.455.625.145.361.145.776 0 .335-.112.644-.105.308-.316.584-.212.277-.522.52-.303.236-.7.447.47.23.832.473.37.243.614.526.25.276.376.591.132.309.132.684zm-1.425-4.364q0-.276-.1-.5-.092-.223-.277-.381-.184-.158-.461-.237-.271-.085-.62-.085-.714 0-1.083.322-.363.322-.363.88 0 .257.086.48.092.217.277.414.191.198.475.388.29.184.686.388.667-.342 1.023-.756.357-.414.357-.913zm.277 4.482q0-.302-.112-.546-.113-.25-.344-.46-.224-.217-.567-.414-.337-.203-.785-.42-.416.203-.733.407-.31.204-.515.42-.198.218-.303.46-.1.237-.1.527 0 .637.436.985.443.349 1.314.349.844 0 1.273-.349.436-.355.436-.96zM66.357 68.007q0 .118-.02.21-.013.092-.046.158-.026.06-.079.092-.046.027-.106.027h-4.718q-.092 0-.165-.02-.066-.027-.119-.08-.046-.052-.072-.15-.02-.099-.02-.243 0-.132.007-.23.013-.099.046-.171.033-.08.079-.151.053-.08.132-.165l1.656-1.748q.574-.605.918-1.084.35-.48.534-.874.191-.395.25-.717.06-.322.06-.604 0-.283-.092-.533-.093-.256-.27-.447-.172-.19-.436-.302-.264-.112-.607-.112-.403 0-.726.112-.317.112-.561.243-.238.132-.403.243-.158.112-.237.112-.047 0-.086-.026-.033-.027-.06-.086-.02-.059-.033-.157-.013-.099-.013-.237 0-.099.007-.17.006-.073.02-.126.02-.052.046-.098.026-.046.105-.112.08-.072.271-.19.198-.119.488-.23.297-.119.647-.198.356-.079.746-.079.62 0 1.082.178.469.17.772.473.31.302.462.703.152.401.152.855 0 .407-.073.814-.072.401-.31.875-.23.466-.673 1.045-.442.571-1.175 1.32l-1.352 1.407H66.1q.053 0 .099.033.053.026.086.085.04.06.052.151.02.086.02.204zM73.545 64.222q0 .979-.158 1.787-.152.809-.515 1.394-.356.578-.937.9-.58.315-1.432.315-.805 0-1.36-.282-.547-.29-.884-.841-.336-.56-.481-1.367-.139-.815-.139-1.867 0-.973.159-1.781.158-.815.514-1.393.357-.585.937-.9.581-.323 1.426-.323.811 0 1.36.29.554.282.89.84.337.553.475 1.368.145.808.145 1.86zm-1.161.078q0-.637-.046-1.143t-.139-.894q-.086-.388-.23-.664-.14-.282-.337-.46-.198-.184-.456-.263-.25-.085-.567-.085-.561 0-.91.263-.35.263-.555.723-.198.46-.27 1.078-.073.617-.073 1.327 0 .953.099 1.623.099.664.31 1.085.218.42.547.611.337.19.812.19.37 0 .647-.118.284-.118.482-.335.204-.223.336-.532.132-.309.211-.684.08-.374.106-.808.033-.44.033-.914zM85.176 68.047q0 .124-.02.21-.02.085-.053.138-.033.053-.08.079-.039.02-.085.02h-4.46q-.047 0-.087-.02-.04-.026-.079-.08-.033-.052-.053-.137-.02-.086-.02-.21 0-.119.02-.204.02-.086.047-.138.033-.06.072-.086.046-.032.1-.032h1.78V61.12l-1.649.979q-.125.066-.204.079-.073.013-.12-.027-.045-.046-.065-.144-.013-.099-.013-.25 0-.112.006-.19.013-.08.033-.132.02-.053.053-.092.04-.04.099-.079l1.966-1.255q.027-.02.066-.033.04-.013.1-.026.059-.013.138-.013.08-.007.198-.007.158 0 .264.013.106.013.165.04.06.02.08.059.019.033.019.072v7.473h1.544q.053 0 .1.032.045.027.072.086.033.052.046.138.02.085.02.204zM92.258 66.312q0 .552-.198.985-.198.428-.574.723-.37.296-.917.447-.548.151-1.254.151-.66 0-1.181-.138-.522-.138-.884-.407-.363-.27-.555-.664-.191-.394-.191-.9 0-.401.132-.736.132-.336.376-.618.25-.283.614-.526.363-.25.818-.473-.396-.204-.7-.427-.303-.23-.514-.493-.211-.27-.324-.572-.105-.302-.105-.657 0-.447.158-.835.165-.394.489-.683.33-.29.831-.454.508-.17 1.181-.17.647 0 1.116.157.475.151.778.42.31.264.456.625.145.361.145.776 0 .335-.112.644-.106.308-.317.584-.211.277-.522.52-.303.236-.7.447.47.23.832.473.37.243.614.526.25.276.376.591.132.309.132.684zm-1.425-4.364q0-.276-.1-.5-.092-.223-.276-.381-.185-.158-.462-.237-.27-.085-.62-.085-.713 0-1.083.322-.363.322-.363.88 0 .257.086.48.092.217.277.414.192.198.475.388.29.184.687.388.666-.342 1.023-.756.356-.414.356-.913zm.277 4.482q0-.302-.112-.546-.112-.25-.343-.46-.225-.217-.568-.414-.336-.203-.785-.42-.416.203-.733.407-.31.204-.514.42-.198.218-.304.46-.099.237-.099.527 0 .637.436.985.442.349 1.313.349.845 0 1.273-.349.436-.355.436-.96zM103.98 68.047q0 .124-.02.21-.02.085-.053.138-.033.053-.08.079-.04.02-.085.02H99.28q-.047 0-.086-.02-.04-.026-.08-.08-.032-.052-.052-.137-.02-.086-.02-.21 0-.119.02-.204.02-.086.046-.138.033-.06.073-.086.046-.032.099-.032h1.781V61.12l-1.65.979q-.125.066-.204.079-.073.013-.119-.027-.046-.046-.066-.144-.013-.099-.013-.25 0-.112.007-.19.013-.08.033-.132.02-.053.052-.092.04-.04.1-.079l1.966-1.255q.026-.02.066-.033.04-.013.099-.026.06-.013.139-.013.079-.007.198-.007.158 0 .264.013.105.013.165.04.059.02.079.059.02.033.02.072v7.473h1.544q.053 0 .099.032.046.027.072.086.033.052.047.138.02.085.02.204zM110.93 63.906q0 .552-.066 1.117-.066.566-.224 1.091-.159.52-.43.98-.263.453-.673.795-.402.342-.963.539-.554.19-1.293.19-.284 0-.555-.039-.264-.033-.482-.085-.21-.053-.356-.112-.145-.06-.211-.119t-.099-.157q-.026-.105-.026-.276 0-.145.007-.23.013-.086.033-.132.02-.046.052-.059.04-.02.093-.02.072 0 .204.053.132.046.33.105.205.06.475.112.271.046.608.046.64 0 1.095-.243.462-.25.752-.664.29-.414.436-.96.145-.545.158-1.15-.35.204-.838.362-.488.157-1.122.157-.712 0-1.2-.19-.482-.197-.78-.532-.29-.336-.422-.796-.125-.46-.125-1.005 0-.565.165-1.072.165-.512.515-.9t.89-.618q.542-.23 1.294-.23.534 0 .944.138.415.132.719.388.303.25.515.611.21.355.336.809.132.453.185.985.06.526.06 1.111zm-1.155-.125q0-.84-.112-1.413-.112-.578-.33-.933-.218-.355-.535-.513-.316-.157-.732-.157-.43 0-.733.157-.303.152-.501.414-.192.257-.284.585-.092.329-.092.677 0 .388.079.71.086.322.27.546.185.223.482.348.297.118.733.118.495 0 .957-.144.461-.152.798-.395zM9.917 85.71q0 .118-.02.21-.013.092-.046.158-.026.059-.08.092-.045.026-.105.026H4.948q-.092 0-.165-.02-.066-.026-.119-.079-.046-.052-.072-.15-.02-.1-.02-.244 0-.131.006-.23.014-.099.047-.17.033-.08.079-.152.053-.079.132-.164l1.656-1.748q.574-.605.917-1.085.35-.48.535-.874.191-.394.25-.716.06-.322.06-.605t-.092-.532q-.093-.257-.27-.447-.172-.19-.436-.303-.264-.111-.608-.111-.402 0-.725.111-.317.112-.561.244-.238.131-.403.243-.158.112-.237.112-.047 0-.086-.027-.033-.026-.06-.085-.02-.06-.033-.158-.013-.099-.013-.237 0-.098.007-.17.006-.073.02-.125.02-.053.046-.099.026-.046.105-.112.08-.072.27-.19.199-.118.49-.23.296-.118.646-.197.356-.08.746-.08.62 0 1.082.178.468.171.772.473.31.303.462.704.152.4.152.854 0 .407-.073.815-.072.4-.31.874-.231.467-.673 1.045-.442.572-1.175 1.321l-1.353 1.406H9.66q.053 0 .099.033.053.027.086.086.04.059.052.15.02.086.02.205zM16.841 85.75q0 .124-.02.21-.02.085-.052.137-.033.053-.08.08-.04.019-.085.019h-4.461q-.046 0-.086-.02-.04-.026-.08-.079-.032-.052-.052-.138-.02-.085-.02-.21 0-.118.02-.204.02-.085.046-.138.033-.059.073-.085.046-.033.099-.033h1.781v-6.467l-1.65.98q-.125.065-.204.078-.072.013-.119-.026-.046-.046-.066-.145-.013-.098-.013-.25 0-.111.007-.19.013-.079.033-.131.02-.053.053-.092.04-.04.099-.08l1.966-1.255q.026-.02.066-.032.04-.014.1-.027.058-.013.138-.013.079-.007.198-.007.158 0 .264.014.105.013.165.04.059.019.079.058.02.033.02.072v7.473h1.544q.053 0 .099.033.046.026.072.085.033.053.047.138.02.086.02.204zM28.77 85.75q0 .124-.02.21-.02.085-.053.137-.033.053-.079.08-.04.019-.086.019h-4.46q-.047 0-.087-.02-.04-.026-.079-.079-.033-.052-.053-.138-.02-.085-.02-.21 0-.118.02-.204.02-.085.047-.138.033-.059.072-.085.046-.033.1-.033h1.781v-6.467l-1.65.98q-.125.065-.204.078-.073.013-.12-.026-.045-.046-.065-.145-.013-.098-.013-.25 0-.111.006-.19.013-.079.033-.131.02-.053.053-.092.04-.04.1-.08l1.966-1.255q.026-.02.066-.032.04-.014.099-.027.059-.013.138-.013.08-.007.198-.007.159 0 .264.014.106.013.165.04.06.019.08.058.02.033.02.072v7.473h1.543q.053 0 .1.033.045.026.072.085.033.053.046.138.02.086.02.204zM35.72 81.609q0 .552-.066 1.117t-.224 1.09q-.158.52-.429.98-.264.454-.673.795-.403.342-.963.54-.555.19-1.294.19-.284 0-.554-.04-.264-.032-.482-.085-.211-.053-.356-.112-.145-.059-.211-.118-.066-.06-.1-.158-.026-.105-.026-.276 0-.144.007-.23.013-.085.033-.131.02-.046.053-.06.04-.02.092-.02.073 0 .204.053.132.046.33.106.205.059.476.111.27.046.607.046.64 0 1.095-.243.462-.25.752-.664.29-.414.436-.96.145-.545.158-1.15-.35.204-.838.362t-1.122.158q-.712 0-1.2-.19-.482-.198-.78-.533-.29-.335-.422-.795-.125-.46-.125-1.006 0-.565.165-1.071.165-.513.515-.9.35-.388.89-.618.542-.23 1.294-.23.535 0 .944.138.415.131.719.388.304.25.515.61.21.356.336.81.132.453.185.985.06.526.06 1.11zm-1.154-.125q0-.841-.113-1.413-.112-.579-.33-.933-.217-.355-.534-.513-.317-.158-.733-.158-.429 0-.732.158-.304.151-.502.414-.191.256-.283.585-.093.328-.093.677 0 .388.08.71.085.322.27.545.185.224.482.348.297.119.732.119.495 0 .957-.145.462-.151.799-.394zM47.554 85.71q0 .118-.02.21-.013.092-.046.158-.027.059-.08.092-.046.026-.105.026h-4.719q-.092 0-.165-.02-.065-.026-.118-.079-.046-.052-.073-.15-.02-.1-.02-.244 0-.131.007-.23.013-.099.046-.17.033-.08.08-.152.052-.079.131-.164l1.657-1.748q.574-.605.917-1.085.35-.48.534-.874.192-.394.251-.716.06-.322.06-.605t-.093-.532q-.092-.257-.27-.447-.172-.19-.436-.303-.264-.111-.607-.111-.403 0-.726.111-.317.112-.56.244-.238.131-.403.243-.159.112-.238.112-.046 0-.086-.027-.033-.026-.06-.085-.019-.06-.032-.158-.013-.099-.013-.237 0-.098.006-.17.007-.073.02-.125.02-.053.046-.099.027-.046.106-.112.08-.072.27-.19.198-.118.489-.23.297-.118.646-.197.357-.08.746-.08.62 0 1.082.178.469.171.773.473.31.303.461.704.152.4.152.854 0 .407-.072.815-.073.4-.31.874-.231.467-.674 1.045-.442.572-1.174 1.321l-1.353 1.406h3.715q.053 0 .1.033.052.027.085.086.04.059.053.15.02.086.02.205zM54.458 85.71q0 .118-.02.21-.013.092-.046.158-.026.059-.08.092-.045.026-.105.026H49.49q-.092 0-.165-.02-.066-.026-.119-.079-.046-.052-.072-.15-.02-.1-.02-.244 0-.131.006-.23.014-.099.047-.17.033-.08.079-.152.053-.079.132-.164l1.656-1.748q.574-.605.917-1.085.35-.48.535-.874.191-.394.25-.716.06-.322.06-.605t-.092-.532q-.093-.257-.27-.447-.172-.19-.436-.303-.264-.111-.608-.111-.402 0-.725.111-.317.112-.561.244-.238.131-.403.243-.158.112-.238.112-.046 0-.085-.027-.033-.026-.06-.085-.02-.06-.033-.158-.013-.099-.013-.237 0-.098.007-.17.006-.073.02-.125.02-.053.046-.099.026-.046.105-.112.08-.072.27-.19.199-.118.49-.23.296-.118.646-.197.356-.08.746-.08.62 0 1.082.178.468.171.772.473.31.303.462.704.152.4.152.854 0 .407-.073.815-.072.4-.31.874-.231.467-.673 1.045-.442.572-1.175 1.321l-1.353 1.406h3.716q.052 0 .099.033.052.027.085.086.04.059.053.15.02.086.02.205zM66.357 85.71q0 .118-.02.21-.013.092-.046.158-.026.059-.079.092-.046.026-.106.026h-4.718q-.092 0-.165-.02-.066-.026-.119-.079-.046-.052-.072-.15-.02-.1-.02-.244 0-.131.007-.23.013-.099.046-.17.033-.08.079-.152.053-.079.132-.164l1.656-1.748q.574-.605.918-1.085.35-.48.534-.874.191-.394.25-.716.06-.322.06-.605t-.092-.532q-.093-.257-.27-.447-.172-.19-.436-.303-.264-.111-.607-.111-.403 0-.726.111-.317.112-.561.244-.238.131-.403.243-.158.112-.237.112-.047 0-.086-.027-.033-.026-.06-.085-.02-.06-.033-.158-.013-.099-.013-.237 0-.098.007-.17.006-.073.02-.125.02-.053.046-.099.026-.046.105-.112.08-.072.271-.19.198-.118.488-.23.297-.118.647-.197.356-.08.746-.08.62 0 1.082.178.469.171.772.473.31.303.462.704.152.4.152.854 0 .407-.073.815-.072.4-.31.874-.23.467-.673 1.045-.442.572-1.175 1.321l-1.352 1.406H66.1q.053 0 .099.033.053.027.086.086.04.059.052.15.02.086.02.205zM73.262 85.71q0 .118-.02.21-.013.092-.046.158-.027.059-.08.092-.046.026-.105.026h-4.719q-.092 0-.165-.02-.065-.026-.118-.079-.046-.052-.073-.15-.02-.1-.02-.244 0-.131.007-.23.013-.099.046-.17.033-.08.08-.152.052-.079.131-.164l1.657-1.748q.574-.605.917-1.085.35-.48.534-.874.192-.394.251-.716.06-.322.06-.605t-.093-.532q-.092-.257-.27-.447-.172-.19-.436-.303-.264-.111-.607-.111-.403 0-.726.111-.317.112-.56.244-.238.131-.403.243-.159.112-.238.112-.046 0-.086-.027-.033-.026-.06-.085-.019-.06-.032-.158-.013-.099-.013-.237 0-.098.006-.17.007-.073.02-.125.02-.053.046-.099.027-.046.106-.112.08-.072.27-.19.198-.118.489-.23.297-.118.646-.197.357-.08.746-.08.62 0 1.082.178.469.171.773.473.31.303.461.704.152.4.152.854 0 .407-.072.815-.073.4-.31.874-.231.467-.674 1.045-.442.572-1.174 1.321l-1.353 1.406h3.715q.053 0 .1.033.052.027.085.086.04.059.053.15.02.086.02.205zM85.176 85.75q0 .124-.02.21-.02.085-.053.137-.033.053-.08.08-.039.019-.085.019h-4.46q-.047 0-.087-.02-.04-.026-.079-.079-.033-.052-.053-.138-.02-.085-.02-.21 0-.118.02-.204.02-.085.047-.138.033-.059.072-.085.046-.033.1-.033h1.78v-6.467l-1.649.98q-.125.065-.204.078-.073.013-.12-.026-.045-.046-.065-.145-.013-.098-.013-.25 0-.111.006-.19.013-.079.033-.131.02-.053.053-.092.04-.04.099-.08l1.966-1.255q.027-.02.066-.032.04-.014.1-.027.059-.013.138-.013.08-.007.198-.007.158 0 .264.014.106.013.165.04.06.019.08.058.019.033.019.072v7.473h1.544q.053 0 .1.033.045.026.072.085.033.053.046.138.02.086.02.204zM92.126 81.609q0 .552-.066 1.117t-.224 1.09q-.158.52-.429.98-.264.454-.673.795-.403.342-.964.54-.554.19-1.293.19-.284 0-.554-.04-.264-.032-.482-.085-.211-.053-.356-.112-.146-.059-.212-.118-.066-.06-.099-.158-.026-.105-.026-.276 0-.144.007-.23.013-.085.033-.131.02-.046.052-.06.04-.02.093-.02.072 0 .204.053.132.046.33.106.205.059.475.111.271.046.608.046.64 0 1.095-.243.462-.25.752-.664.29-.414.436-.96.145-.545.158-1.15-.35.204-.838.362t-1.122.158q-.712 0-1.2-.19-.482-.198-.78-.533-.29-.335-.422-.795-.125-.46-.125-1.006 0-.565.165-1.071.165-.513.515-.9.35-.388.89-.618.542-.23 1.294-.23.534 0 .944.138.415.131.719.388.303.25.515.61.21.356.336.81.132.453.185.985.06.526.06 1.11zm-1.155-.125q0-.841-.112-1.413-.112-.579-.33-.933-.217-.355-.534-.513-.317-.158-.733-.158-.429 0-.732.158-.304.151-.502.414-.191.256-.284.585-.092.328-.092.677 0 .388.08.71.085.322.27.545.185.224.482.348.297.119.732.119.495 0 .957-.145.462-.151.798-.394zM103.96 85.71q0 .118-.02.21-.014.092-.047.158-.026.059-.079.092-.046.026-.105.026H98.99q-.092 0-.165-.02-.066-.026-.118-.079-.047-.052-.073-.15-.02-.1-.02-.244 0-.131.007-.23.013-.099.046-.17.033-.08.08-.152.052-.079.131-.164l1.656-1.748q.575-.605.918-1.085.35-.48.534-.874.192-.394.251-.716.06-.322.06-.605t-.093-.532q-.092-.257-.27-.447-.172-.19-.436-.303-.264-.111-.607-.111-.403 0-.726.111-.317.112-.561.244-.238.131-.403.243-.158.112-.237.112-.046 0-.086-.027-.033-.026-.06-.085-.02-.06-.032-.158-.013-.099-.013-.237 0-.098.006-.17.007-.073.02-.125.02-.053.046-.099.027-.046.106-.112.079-.072.27-.19.198-.118.489-.23.297-.118.646-.197.357-.08.746-.08.62 0 1.082.178.469.171.772.473.31.303.462.704.152.4.152.854 0 .407-.072.815-.073.4-.31.874-.232.467-.674 1.045-.442.572-1.174 1.321l-1.353 1.406h3.715q.053 0 .1.033.052.027.085.086.04.059.053.15.02.086.02.205zM110.864 85.71q0 .118-.02.21-.013.092-.046.158-.027.059-.08.092-.046.026-.105.026h-4.718q-.093 0-.165-.02-.066-.026-.12-.079-.045-.052-.072-.15-.02-.1-.02-.244 0-.131.008-.23.013-.099.046-.17.033-.08.079-.152.053-.079.132-.164l1.656-1.748q.574-.605.918-1.085.35-.48.534-.874.192-.394.25-.716.06-.322.06-.605t-.092-.532q-.092-.257-.27-.447-.172-.19-.436-.303-.264-.111-.607-.111-.403 0-.726.111-.317.112-.561.244-.238.131-.403.243-.158.112-.237.112-.046 0-.086-.027-.033-.026-.06-.085-.02-.06-.032-.158-.014-.099-.014-.237 0-.098.007-.17.007-.073.02-.125.02-.053.046-.099.027-.046.106-.112.08-.072.27-.19.198-.118.489-.23.297-.118.647-.197.356-.08.745-.08.62 0 1.082.178.469.171.773.473.31.303.462.704.151.4.151.854 0 .407-.072.815-.073.4-.31.874-.231.467-.674 1.045-.442.572-1.174 1.321l-1.353 1.406h3.715q.053 0 .1.033.052.027.085.086.04.059.053.15.02.086.02.205zM9.917 103.412q0 .118-.02.21-.013.092-.046.158-.026.06-.08.092-.045.026-.105.026H4.948q-.092 0-.165-.02-.066-.026-.119-.078-.046-.053-.072-.151-.02-.099-.02-.243 0-.132.006-.23.014-.1.047-.171.033-.08.079-.152.053-.078.132-.164l1.656-1.748q.574-.605.917-1.084.35-.48.535-.875.191-.394.25-.716.06-.322.06-.605 0-.282-.092-.532-.093-.256-.27-.447-.172-.19-.436-.302-.264-.112-.608-.112-.402 0-.725.112-.317.112-.561.243-.238.132-.403.243-.158.112-.237.112-.047 0-.086-.026-.033-.027-.06-.086-.02-.059-.033-.157-.013-.099-.013-.237 0-.099.007-.17.006-.073.02-.126.02-.052.046-.098.026-.046.105-.112.08-.072.27-.19.199-.119.49-.23.296-.119.646-.198.356-.079.746-.079.62 0 1.082.178.468.17.772.473.31.302.462.703.152.401.152.854 0 .408-.073.815-.072.401-.31.875-.231.466-.673 1.044-.442.572-1.175 1.321l-1.353 1.407H9.66q.053 0 .099.033.053.026.086.085.04.06.052.151.02.086.02.204zM16.756 101.467q0 .585-.205 1.058-.205.467-.587.802-.383.335-.944.519-.561.177-1.267.177-.429 0-.805-.072-.37-.066-.66-.158-.29-.098-.482-.197-.191-.105-.244-.151-.046-.046-.073-.092-.026-.046-.046-.112-.02-.065-.033-.157-.006-.1-.006-.237 0-.237.046-.329.046-.092.132-.092.06 0 .23.105.179.106.45.23.277.119.64.224.37.105.818.105.435 0 .765-.112.33-.111.555-.315.224-.204.336-.48.112-.282.112-.611 0-.362-.145-.65-.138-.29-.415-.5-.271-.21-.674-.322-.396-.112-.904-.112h-.811q-.053 0-.106-.02-.046-.026-.086-.079-.033-.052-.06-.138-.019-.085-.019-.223 0-.125.02-.204.02-.085.053-.131.04-.053.085-.072.047-.027.106-.027h.746q.435 0 .778-.111.35-.112.588-.323.244-.21.37-.499.131-.296.131-.657 0-.263-.085-.5-.086-.243-.258-.42-.171-.178-.442-.276-.264-.105-.614-.105-.382 0-.706.118-.317.112-.567.243-.251.131-.416.25-.165.111-.231.111-.046 0-.086-.013-.033-.02-.06-.065-.019-.053-.032-.138-.007-.092-.007-.237 0-.099.007-.17.006-.08.026-.132.02-.06.046-.106.027-.046.086-.105.066-.065.258-.184.19-.118.468-.23.284-.118.647-.197.37-.079.792-.079.594 0 1.042.151.45.152.746.428.304.276.449.663.152.382.152.848 0 .401-.106.75-.106.341-.31.61-.205.264-.502.454-.297.184-.686.256v.014q.442.046.805.223.37.17.634.434.264.263.409.618.152.348.152.749zM28.75 103.412q0 .118-.02.21-.013.092-.046.158-.026.06-.08.092-.045.026-.105.026h-4.718q-.092 0-.165-.02-.066-.026-.119-.078-.046-.053-.072-.151-.02-.099-.02-.243 0-.132.006-.23.014-.1.047-.171.033-.08.079-.152.053-.078.132-.164l1.656-1.748q.574-.605.917-1.084.35-.48.535-.875.191-.394.25-.716.06-.322.06-.605 0-.282-.092-.532-.093-.256-.27-.447-.172-.19-.436-.302-.264-.112-.608-.112-.402 0-.725.112-.317.112-.561.243-.238.132-.403.243-.158.112-.238.112-.046 0-.085-.026-.033-.027-.06-.086-.02-.059-.033-.157-.013-.099-.013-.237 0-.099.007-.17.006-.073.02-.126.02-.052.046-.098.026-.046.105-.112.08-.072.27-.19.199-.119.49-.23.296-.119.646-.198.356-.079.746-.079.62 0 1.082.178.468.17.772.473.31.302.462.703.152.401.152.854 0 .408-.073.815-.072.401-.31.875-.231.466-.673 1.044-.442.572-1.175 1.321l-1.353 1.407h3.716q.052 0 .099.033.052.026.085.085.04.06.053.151.02.086.02.204zM35.674 103.452q0 .124-.02.21-.02.085-.052.138-.033.053-.08.079-.04.02-.085.02h-4.461q-.047 0-.086-.02-.04-.026-.08-.08-.032-.052-.052-.137-.02-.086-.02-.21 0-.119.02-.204.02-.086.046-.138.033-.06.073-.086.046-.032.099-.032h1.781v-6.467l-1.65.979q-.125.066-.204.079-.073.013-.119-.027-.046-.046-.066-.144-.013-.099-.013-.25 0-.112.007-.19.013-.08.033-.132.02-.053.052-.092.04-.04.1-.079l1.966-1.255q.026-.02.066-.033.04-.013.099-.026.06-.013.139-.013.079-.007.198-.007.158 0 .264.013.105.013.165.04.059.02.079.059.02.033.02.072v7.472h1.544q.053 0 .099.033.046.027.072.086.033.052.046.138.02.085.02.204zM47.573 103.452q0 .124-.02.21-.02.085-.052.138-.033.053-.08.079-.039.02-.085.02h-4.461q-.046 0-.086-.02-.04-.026-.08-.08-.032-.052-.052-.137-.02-.086-.02-.21 0-.119.02-.204.02-.086.046-.138.033-.06.073-.086.046-.032.099-.032h1.782v-6.467l-1.65.979q-.126.066-.205.079-.072.013-.119-.027-.046-.046-.066-.144-.013-.099-.013-.25 0-.112.007-.19.013-.08.033-.132.02-.053.053-.092.04-.04.099-.079l1.966-1.255q.027-.02.066-.033.04-.013.1-.026.059-.013.138-.013.079-.007.198-.007.158 0 .264.013.105.013.165.04.06.02.079.059.02.033.02.072v7.472h1.544q.053 0 .099.033.046.027.072.086.033.052.047.138.02.085.02.204zM54.656 101.717q0 .552-.198.985-.198.428-.574.723-.37.296-.917.447-.548.151-1.254.151-.66 0-1.181-.138-.522-.138-.885-.407-.363-.27-.554-.664-.191-.394-.191-.9 0-.401.132-.736.132-.336.376-.618.25-.283.613-.526.363-.25.819-.473-.396-.204-.7-.427-.303-.23-.515-.493-.21-.27-.323-.572-.105-.302-.105-.657 0-.447.158-.835.165-.394.488-.683.33-.29.832-.454.508-.17 1.181-.17.647 0 1.115.157.475.151.779.42.31.263.455.625.145.361.145.775 0 .336-.112.645-.105.308-.316.584-.212.276-.522.52-.303.236-.7.447.47.23.832.473.37.243.614.526.25.276.376.591.132.309.132.684zm-1.425-4.364q0-.276-.1-.5-.092-.223-.277-.381-.184-.158-.461-.237-.271-.085-.62-.085-.714 0-1.083.322-.363.322-.363.88 0 .257.086.48.092.217.277.414.191.198.475.388.29.184.686.388.667-.342 1.023-.756.357-.414.357-.913zm.277 4.482q0-.302-.112-.546-.113-.25-.344-.46-.224-.217-.567-.414-.337-.203-.785-.42-.416.203-.733.407-.31.204-.515.42-.198.218-.303.46-.1.237-.1.527 0 .637.436.985.443.349 1.314.349.844 0 1.273-.349.436-.355.436-.96zM66.357 103.412q0 .118-.02.21-.013.092-.046.158-.026.06-.079.092-.046.026-.106.026h-4.718q-.092 0-.165-.02-.066-.026-.119-.078-.046-.053-.072-.151-.02-.099-.02-.243 0-.132.007-.23.013-.1.046-.171.033-.08.079-.152.053-.078.132-.164l1.656-1.748q.574-.605.918-1.084.35-.48.534-.875.191-.394.25-.716.06-.322.06-.605 0-.282-.092-.532-.093-.256-.27-.447-.172-.19-.436-.302-.264-.112-.607-.112-.403 0-.726.112-.317.112-.561.243-.238.132-.403.243-.158.112-.237.112-.047 0-.086-.026-.033-.027-.06-.086-.02-.059-.033-.157-.013-.099-.013-.237 0-.099.007-.17.006-.073.02-.126.02-.052.046-.098.026-.046.105-.112.08-.072.271-.19.198-.119.488-.23.297-.119.647-.198.356-.079.746-.079.62 0 1.082.178.469.17.772.473.31.302.462.703.152.401.152.854 0 .408-.073.815-.072.401-.31.875-.23.466-.673 1.044-.442.572-1.175 1.321l-1.352 1.407H66.1q.053 0 .099.033.053.026.086.085.04.06.052.151.02.086.02.204zM73.262 103.412q0 .118-.02.21-.013.092-.046.158-.027.06-.08.092-.046.026-.105.026h-4.719q-.092 0-.165-.02-.065-.026-.118-.078-.046-.053-.073-.151-.02-.099-.02-.243 0-.132.007-.23.013-.1.046-.171.033-.08.08-.152.052-.078.131-.164l1.657-1.748q.574-.605.917-1.084.35-.48.534-.875.192-.394.251-.716.06-.322.06-.605 0-.282-.093-.532-.092-.256-.27-.447-.172-.19-.436-.302-.264-.112-.607-.112-.403 0-.726.112-.317.112-.56.243-.238.132-.403.243-.159.112-.238.112-.046 0-.086-.026-.033-.027-.06-.086-.019-.059-.032-.157-.013-.099-.013-.237 0-.099.006-.17.007-.073.02-.126.02-.052.046-.098.027-.046.106-.112.08-.072.27-.19.198-.119.489-.23.297-.119.646-.198.357-.079.746-.079.62 0 1.082.178.469.17.773.473.31.302.461.703.152.401.152.854 0 .408-.072.815-.073.401-.31.875-.231.466-.674 1.044-.442.572-1.174 1.321l-1.353 1.407h3.715q.053 0 .1.033.052.026.085.085.04.06.053.151.02.086.02.204zM85.176 103.452q0 .124-.02.21-.02.085-.053.138-.033.053-.08.079-.039.02-.085.02h-4.46q-.047 0-.087-.02-.04-.026-.079-.08-.033-.052-.053-.137-.02-.086-.02-.21 0-.119.02-.204.02-.086.047-.138.033-.06.072-.086.046-.032.1-.032h1.78v-6.467l-1.649.979q-.125.066-.204.079-.073.013-.12-.027-.045-.046-.065-.144-.013-.099-.013-.25 0-.112.006-.19.013-.08.033-.132.02-.053.053-.092.04-.04.099-.079l1.966-1.255q.027-.02.066-.033.04-.013.1-.026.059-.013.138-.013.08-.007.198-.007.158 0 .264.013.106.013.165.04.06.02.08.059.019.033.019.072v7.472h1.544q.053 0 .1.033.045.027.072.086.033.052.046.138.02.085.02.204zM92.126 99.311q0 .552-.066 1.117-.066.566-.224 1.091-.158.52-.429.98-.264.453-.673.795-.403.342-.964.539-.554.19-1.293.19-.284 0-.554-.039-.264-.033-.482-.085-.211-.053-.356-.112-.146-.06-.212-.118-.066-.06-.099-.158-.026-.105-.026-.276 0-.145.007-.23.013-.086.033-.132.02-.046.052-.059.04-.02.093-.02.072 0 .204.053.132.046.33.105.205.06.475.112.271.046.608.046.64 0 1.095-.243.462-.25.752-.664.29-.414.436-.96.145-.545.158-1.15-.35.204-.838.362-.488.157-1.122.157-.712 0-1.2-.19-.482-.197-.78-.532-.29-.336-.422-.796-.125-.46-.125-1.005 0-.565.165-1.071.165-.513.515-.9.35-.389.89-.619.542-.23 1.294-.23.534 0 .944.138.415.132.719.388.303.25.515.611.21.355.336.809.132.453.185.985.06.526.06 1.111zm-1.155-.125q0-.841-.112-1.413-.112-.578-.33-.933-.217-.355-.534-.513-.317-.157-.733-.157-.429 0-.732.157-.304.152-.502.414-.191.257-.284.585-.092.329-.092.677 0 .388.08.71.085.322.27.546.185.223.482.348.297.118.732.118.495 0 .957-.144.462-.152.798-.395zM103.96 103.412q0 .118-.02.21-.014.092-.047.158-.026.06-.079.092-.046.026-.105.026H98.99q-.092 0-.165-.02-.066-.026-.118-.078-.047-.053-.073-.151-.02-.099-.02-.243 0-.132.007-.23.013-.1.046-.171.033-.08.08-.152.052-.078.131-.164l1.656-1.748q.575-.605.918-1.084.35-.48.534-.875.192-.394.251-.716.06-.322.06-.605 0-.282-.093-.532-.092-.256-.27-.447-.172-.19-.436-.302-.264-.112-.607-.112-.403 0-.726.112-.317.112-.561.243-.238.132-.403.243-.158.112-.237.112-.046 0-.086-.026-.033-.027-.06-.086-.02-.059-.032-.157-.013-.099-.013-.237 0-.099.006-.17.007-.073.02-.126.02-.052.046-.098.027-.046.106-.112.079-.072.27-.19.198-.119.489-.23.297-.119.646-.198.357-.079.746-.079.62 0 1.082.178.469.17.772.473.31.302.462.703.152.401.152.854 0 .408-.072.815-.073.401-.31.875-.232.466-.674 1.044-.442.572-1.174 1.321l-1.353 1.407h3.715q.053 0 .1.033.052.026.085.085.04.06.053.151.02.086.02.204zM111.148 99.627q0 .979-.159 1.787-.151.809-.514 1.393-.357.579-.938.9-.58.316-1.432.316-.805 0-1.359-.282-.548-.29-.884-.841-.337-.56-.482-1.367-.139-.815-.139-1.867 0-.973.159-1.781.158-.815.515-1.393.356-.585.937-.9.58-.323 1.425-.323.812 0 1.36.29.554.282.89.84.337.553.475 1.368.146.808.146 1.86zm-1.162.078q0-.637-.046-1.143t-.139-.894q-.085-.388-.23-.664-.14-.282-.337-.46-.198-.184-.455-.263-.251-.085-.568-.085-.56 0-.91.263t-.555.723q-.198.46-.27 1.078-.073.617-.073 1.327 0 .953.099 1.623.099.664.31 1.085.218.42.548.611.336.19.811.19.37 0 .647-.118.284-.118.482-.335.204-.223.336-.532.132-.309.212-.684.079-.374.105-.808.033-.44.033-.914zM9.937 121.154q0 .125-.02.21-.02.086-.053.138-.033.053-.079.08-.04.019-.086.019H5.24q-.047 0-.086-.02-.04-.026-.08-.079-.033-.052-.052-.138-.02-.085-.02-.21 0-.118.02-.204.02-.085.046-.138.033-.059.072-.085.047-.033.1-.033H7.02v-6.467l-1.65.98q-.125.065-.204.078-.073.013-.12-.026-.045-.046-.065-.145-.013-.098-.013-.25 0-.111.006-.19.014-.079.033-.131.02-.053.053-.092.04-.04.1-.08l1.966-1.255q.026-.02.066-.033.04-.013.099-.026.059-.013.138-.013.08-.007.198-.007.159 0 .264.013.106.013.165.04.06.02.08.059.02.033.02.072v7.472h1.543q.053 0 .1.033.046.027.072.086.033.052.046.138.02.085.02.204zM16.888 117.014q0 .552-.066 1.117t-.225 1.09q-.158.52-.429.98-.264.454-.673.795-.402.342-.963.54-.555.19-1.294.19-.284 0-.554-.04-.264-.032-.482-.085-.211-.053-.356-.112-.145-.059-.211-.118-.066-.06-.1-.158-.026-.105-.026-.276 0-.144.007-.23.013-.085.033-.131.02-.046.053-.06.04-.02.092-.02.073 0 .205.053.132.046.33.106.204.059.475.111.27.046.607.046.64 0 1.095-.243.462-.25.753-.664.29-.414.435-.96.145-.545.158-1.15-.35.204-.838.362t-1.122.158q-.712 0-1.2-.19-.482-.198-.78-.533-.29-.335-.422-.795-.125-.46-.125-1.006 0-.565.165-1.071.165-.513.515-.9.35-.388.89-.618.542-.23 1.294-.23.535 0 .944.138.415.131.719.388.304.25.515.61.21.356.336.81.132.453.185.985.06.526.06 1.11zm-1.155-.125q0-.841-.113-1.413-.112-.579-.33-.934-.217-.354-.534-.512-.317-.158-.733-.158-.428 0-.732.158-.304.151-.502.414-.19.256-.283.585-.093.328-.093.677 0 .388.08.71.085.322.27.545.185.223.482.348.297.119.732.119.495 0 .957-.145.462-.151.799-.394zM28.77 121.154q0 .125-.02.21-.02.086-.053.138-.033.053-.079.08-.04.019-.086.019h-4.46q-.047 0-.087-.02-.04-.026-.079-.079-.033-.052-.053-.138-.02-.085-.02-.21 0-.118.02-.204.02-.085.047-.138.033-.059.072-.085.046-.033.1-.033h1.781v-6.467l-1.65.98q-.125.065-.204.078-.073.013-.12-.026-.045-.046-.065-.145-.013-.098-.013-.25 0-.111.006-.19.013-.079.033-.131.02-.053.053-.092.04-.04.1-.08l1.966-1.255q.026-.02.066-.033.04-.013.099-.026.059-.013.138-.013.08-.007.198-.007.159 0 .264.013.106.013.165.04.06.02.08.059.02.033.02.072v7.472h1.543q.053 0 .1.033.045.027.072.086.033.052.046.138.02.085.02.204zM35.72 117.014q0 .552-.066 1.117t-.224 1.09q-.158.52-.429.98-.264.454-.673.795-.403.342-.963.54-.555.19-1.294.19-.284 0-.554-.04-.264-.032-.482-.085-.211-.053-.356-.112-.145-.059-.211-.118-.066-.06-.1-.158-.026-.105-.026-.276 0-.144.007-.23.013-.085.033-.131.02-.046.053-.06.04-.02.092-.02.073 0 .204.053.132.046.33.106.205.059.476.111.27.046.607.046.64 0 1.095-.243.462-.25.752-.664.29-.414.436-.96.145-.545.158-1.15-.35.204-.838.362t-1.122.158q-.712 0-1.2-.19-.482-.198-.78-.533-.29-.335-.422-.795-.125-.46-.125-1.006 0-.565.165-1.071.165-.513.515-.9.35-.388.89-.618.542-.23 1.294-.23.535 0 .944.138.415.131.719.388.304.25.515.61.21.356.336.81.132.453.185.985.06.526.06 1.11zm-1.154-.125q0-.841-.113-1.413-.112-.579-.33-.934-.217-.354-.534-.512-.317-.158-.733-.158-.429 0-.732.158-.304.151-.502.414-.191.256-.283.585-.093.328-.093.677 0 .388.08.71.085.322.27.545.185.223.482.348.297.119.732.119.495 0 .957-.145.462-.151.799-.394zM47.573 121.154q0 .125-.02.21-.02.086-.052.138-.033.053-.08.08-.039.019-.085.019h-4.461q-.046 0-.086-.02-.04-.026-.08-.079-.032-.052-.052-.138-.02-.085-.02-.21 0-.118.02-.204.02-.085.046-.138.033-.059.073-.085.046-.033.099-.033h1.782v-6.467l-1.65.98q-.126.065-.205.078-.072.013-.119-.026-.046-.046-.066-.145-.013-.098-.013-.25 0-.111.007-.19.013-.079.033-.131.02-.053.053-.092.04-.04.099-.08l1.966-1.255q.027-.02.066-.033.04-.013.1-.026.059-.013.138-.013.079-.007.198-.007.158 0 .264.013.105.013.165.04.06.02.079.059.02.033.02.072v7.472h1.544q.053 0 .099.033.046.027.072.086.033.052.047.138.02.085.02.204zM54.524 117.014q0 .552-.066 1.117t-.224 1.09q-.159.52-.43.98-.263.454-.672.795-.403.342-.964.54-.554.19-1.293.19-.284 0-.555-.04-.264-.032-.481-.085-.212-.053-.357-.112-.145-.059-.21-.118-.067-.06-.1-.158-.026-.105-.026-.276 0-.144.006-.23.014-.085.033-.131.02-.046.053-.06.04-.02.092-.02.073 0 .205.053.132.046.33.106.205.059.475.111.27.046.607.046.64 0 1.096-.243.462-.25.752-.664.29-.414.436-.96.145-.545.158-1.15-.35.204-.838.362t-1.122.158q-.713 0-1.201-.19-.482-.198-.779-.533-.29-.335-.422-.795-.125-.46-.125-1.006 0-.565.165-1.071.165-.513.514-.9.35-.388.891-.618.541-.23 1.294-.23.534 0 .943.138.416.131.72.388.303.25.514.61.211.356.337.81.132.453.185.985.059.526.059 1.11zm-1.155-.125q0-.841-.112-1.413-.112-.579-.33-.934-.218-.354-.534-.512-.317-.158-.733-.158-.429 0-.732.158-.304.151-.502.414-.191.256-.284.585-.092.328-.092.677 0 .388.079.71.086.322.27.545.185.223.482.348.297.119.733.119.495 0 .957-.145.462-.151.798-.394zM66.357 121.115q0 .118-.02.21-.013.092-.046.158-.026.059-.079.092-.046.026-.106.026h-4.718q-.092 0-.165-.02-.066-.026-.119-.079-.046-.052-.072-.15-.02-.1-.02-.244 0-.131.007-.23.013-.099.046-.17.033-.08.079-.152.053-.079.132-.164l1.656-1.749q.574-.604.918-1.084.35-.48.534-.874.191-.394.25-.716.06-.322.06-.605t-.092-.532q-.093-.257-.27-.447-.172-.19-.436-.303-.264-.111-.607-.111-.403 0-.726.111-.317.112-.561.244-.238.131-.403.243-.158.111-.237.111-.047 0-.086-.026-.033-.026-.06-.085-.02-.06-.033-.158-.013-.099-.013-.237 0-.098.007-.17.006-.073.02-.125.02-.053.046-.099.026-.046.105-.112.08-.072.271-.19.198-.118.488-.23.297-.119.647-.197.356-.08.746-.08.62 0 1.082.178.469.171.772.473.31.303.462.704.152.4.152.854 0 .407-.073.815-.072.4-.31.874-.23.467-.673 1.045-.442.572-1.175 1.321l-1.352 1.406H66.1q.053 0 .099.033.053.027.086.086.04.059.052.15.02.086.02.205zM73.545 117.33q0 .978-.158 1.787-.152.808-.515 1.393-.356.578-.937.9-.58.316-1.432.316-.805 0-1.36-.283-.547-.289-.884-.841-.336-.559-.481-1.367-.139-.815-.139-1.866 0-.973.159-1.782.158-.814.514-1.393.357-.585.937-.9.581-.322 1.426-.322.811 0 1.36.289.554.283.89.841.337.552.475 1.367.145.809.145 1.86zm-1.161.078q0-.638-.046-1.144-.046-.506-.139-.893-.086-.388-.23-.664-.14-.283-.337-.46-.198-.184-.456-.263-.25-.085-.567-.085-.561 0-.91.262-.35.263-.555.723-.198.46-.27 1.078-.073.618-.073 1.328 0 .953.099 1.623.099.664.31 1.084.218.421.547.612.337.19.812.19.37 0 .647-.118.284-.118.482-.335.204-.224.336-.533.132-.308.211-.683.08-.375.106-.808.033-.44.033-.914zM85.156 121.115q0 .118-.02.21-.013.092-.046.158-.026.059-.08.092-.045.026-.105.026h-4.718q-.093 0-.165-.02-.066-.026-.119-.079-.046-.052-.073-.15-.02-.1-.02-.244 0-.131.007-.23.013-.099.046-.17.033-.08.08-.152.052-.079.132-.164l1.656-1.749q.574-.604.917-1.084.35-.48.535-.874.191-.394.25-.716.06-.322.06-.605t-.092-.532q-.093-.257-.271-.447-.172-.19-.436-.303-.264-.111-.607-.111-.402 0-.726.111-.316.112-.56.244-.238.131-.403.243-.158.111-.238.111-.046 0-.085-.026-.033-.026-.06-.085-.02-.06-.033-.158-.013-.099-.013-.237 0-.098.007-.17.006-.073.02-.125.02-.053.046-.099.026-.046.105-.112.08-.072.27-.19.199-.118.489-.23.297-.119.647-.197.356-.08.745-.08.62 0 1.083.178.468.171.772.473.31.303.462.704.152.4.152.854 0 .407-.073.815-.073.4-.31.874-.231.467-.673 1.045-.442.572-1.175 1.321l-1.353 1.406H84.9q.052 0 .099.033.052.027.085.086.04.059.053.15.02.086.02.205zM92.08 121.154q0 .125-.02.21-.02.086-.052.138-.033.053-.08.08-.04.019-.085.019h-4.461q-.047 0-.086-.02-.04-.026-.08-.079-.032-.052-.052-.138-.02-.085-.02-.21 0-.118.02-.204.02-.085.046-.138.033-.059.073-.085.046-.033.099-.033h1.781v-6.467l-1.65.98q-.125.065-.204.078-.073.013-.119-.026-.046-.046-.066-.145-.013-.098-.013-.25 0-.111.007-.19.013-.079.033-.131.02-.053.052-.092.04-.04.1-.08l1.966-1.255q.026-.02.066-.033.04-.013.099-.026.06-.013.138-.013.08-.007.198-.007.159 0 .264.013.106.013.165.04.06.02.08.059.02.032.02.072v7.472h1.544q.052 0 .099.033.046.027.072.086.033.052.046.138.02.085.02.203zM103.98 121.154q0 .125-.02.21-.02.086-.053.138-.033.053-.08.08-.04.019-.085.019H99.28q-.047 0-.086-.02-.04-.026-.08-.079-.032-.052-.052-.138-.02-.085-.02-.21 0-.118.02-.204.02-.085.046-.138.033-.059.073-.085.046-.033.099-.033h1.781v-6.467l-1.65.98q-.125.065-.204.078-.073.013-.119-.026-.046-.046-.066-.145-.013-.098-.013-.25 0-.111.007-.19.013-.079.033-.131.02-.053.052-.092.04-.04.1-.08l1.966-1.255q.026-.02.066-.033.04-.013.099-.026.06-.013.139-.013.079-.007.198-.007.158 0 .264.013.105.013.165.04.059.02.079.059.02.033.02.072v7.472h1.544q.053 0 .099.033.046.027.072.086.033.052.047.138.02.085.02.204zM110.93 117.014q0 .552-.066 1.117t-.224 1.09q-.159.52-.43.98-.263.454-.673.795-.402.342-.963.54-.554.19-1.293.19-.284 0-.555-.04-.264-.032-.482-.085-.21-.053-.356-.112-.145-.059-.211-.118-.066-.06-.099-.158-.026-.105-.026-.276 0-.144.007-.23.013-.085.033-.131.02-.046.052-.06.04-.02.093-.02.072 0 .204.053.132.046.33.106.205.059.475.111.271.046.608.046.64 0 1.095-.243.462-.25.752-.664.29-.414.436-.96.145-.545.158-1.15-.35.204-.838.362t-1.122.158q-.712 0-1.2-.19-.482-.198-.78-.533-.29-.335-.422-.795-.125-.46-.125-1.006 0-.565.165-1.071.165-.513.515-.9.35-.388.89-.618.542-.23 1.294-.23.534 0 .944.138.415.131.719.388.303.25.515.61.21.356.336.81.132.453.185.985.06.526.06 1.11zm-1.155-.125q0-.841-.112-1.413-.112-.579-.33-.934-.218-.354-.535-.512-.316-.158-.732-.158-.43 0-.733.158-.303.151-.501.414-.192.256-.284.585-.092.328-.092.677 0 .388.079.71.086.322.27.545.185.223.482.348.297.119.733.119.495 0 .957-.145.461-.151.798-.394zM9.917 138.817q0 .118-.02.21-.013.092-.046.158-.026.06-.08.092-.045.026-.105.026H4.948q-.092 0-.165-.02-.066-.026-.119-.078-.046-.053-.072-.151-.02-.099-.02-.243 0-.132.006-.23.014-.1.047-.171.033-.08.079-.152.053-.078.132-.164l1.656-1.748q.574-.605.917-1.084.35-.48.535-.875.191-.394.25-.716.06-.322.06-.605 0-.282-.092-.532-.093-.256-.27-.447-.172-.19-.436-.302-.264-.112-.608-.112-.402 0-.725.112-.317.112-.561.243-.238.132-.403.243-.158.112-.237.112-.047 0-.086-.026-.033-.027-.06-.086-.02-.059-.033-.157-.013-.1-.013-.237 0-.099.007-.17.006-.073.02-.126.02-.052.046-.098.026-.046.105-.112.08-.072.27-.19.199-.119.49-.23.296-.119.646-.198.356-.079.746-.079.62 0 1.082.178.468.17.772.473.31.302.462.703.152.401.152.854 0 .408-.073.815-.072.401-.31.874-.231.467-.673 1.045-.442.572-1.175 1.321l-1.353 1.407H9.66q.053 0 .099.033.053.026.086.085.04.06.052.151.02.086.02.204zM17.105 135.032q0 .979-.158 1.787-.152.809-.515 1.393-.356.579-.937.9-.58.316-1.432.316-.805 0-1.36-.282-.547-.29-.884-.842-.336-.558-.481-1.367-.139-.814-.139-1.866 0-.973.158-1.781.159-.815.515-1.393.357-.585.937-.9.581-.323 1.426-.323.811 0 1.36.29.553.282.89.84.337.553.475 1.368.145.808.145 1.86zm-1.161.078q0-.637-.046-1.143-.047-.506-.139-.894-.086-.388-.23-.664-.14-.282-.337-.46-.198-.184-.456-.263-.25-.085-.567-.085-.561 0-.911.263t-.554.723q-.198.46-.27 1.078-.074.617-.074 1.327 0 .953.1 1.624.098.663.31 1.084.217.42.547.611.337.19.812.19.37 0 .647-.118.284-.118.482-.335.204-.223.336-.532.132-.309.211-.684.08-.374.106-.808.033-.44.033-.913zM28.75 138.817q0 .118-.02.21-.013.092-.046.158-.026.06-.08.092-.045.026-.105.026h-4.718q-.092 0-.165-.02-.066-.026-.119-.078-.046-.053-.072-.151-.02-.099-.02-.243 0-.132.006-.23.014-.1.047-.171.033-.08.079-.152.053-.078.132-.164l1.656-1.748q.574-.605.917-1.084.35-.48.535-.875.191-.394.25-.716.06-.322.06-.605 0-.282-.092-.532-.093-.256-.27-.447-.172-.19-.436-.302-.264-.112-.608-.112-.402 0-.725.112-.317.112-.561.243-.238.132-.403.243-.158.112-.238.112-.046 0-.085-.026-.033-.027-.06-.086-.02-.059-.033-.157-.013-.1-.013-.237 0-.099.007-.17.006-.073.02-.126.02-.052.046-.098.026-.046.105-.112.08-.072.27-.19.199-.119.49-.23.296-.119.646-.198.356-.079.746-.079.62 0 1.082.178.468.17.772.473.31.302.462.703.152.401.152.854 0 .408-.073.815-.072.401-.31.874-.231.467-.673 1.045-.442.572-1.175 1.321l-1.353 1.407h3.716q.052 0 .099.033.052.026.085.085.04.06.053.151.02.086.02.204zM35.938 135.032q0 .979-.158 1.787-.152.809-.515 1.393-.356.579-.937.9-.58.316-1.432.316-.805 0-1.36-.282-.547-.29-.884-.842-.336-.558-.481-1.367-.139-.814-.139-1.866 0-.973.158-1.781.159-.815.515-1.393.356-.585.937-.9.58-.323 1.426-.323.811 0 1.359.29.554.282.89.84.337.553.476 1.368.145.808.145 1.86zm-1.161.078q0-.637-.046-1.143-.047-.506-.139-.894-.086-.388-.231-.664-.139-.282-.337-.46-.197-.184-.455-.263-.25-.085-.567-.085-.561 0-.911.263t-.554.723q-.198.46-.271 1.078-.073.617-.073 1.327 0 .953.1 1.624.098.663.31 1.084.217.42.547.611.337.19.812.19.37 0 .647-.118.284-.118.481-.335.205-.223.337-.532.132-.309.211-.684.08-.374.106-.808.033-.44.033-.913zM47.554 138.817q0 .118-.02.21-.013.092-.046.158-.027.06-.08.092-.046.026-.105.026h-4.719q-.092 0-.165-.02-.065-.026-.118-.078-.046-.053-.073-.151-.02-.099-.02-.243 0-.132.007-.23.013-.1.046-.171.033-.08.08-.152.052-.078.131-.164l1.657-1.748q.574-.605.917-1.084.35-.48.534-.874.192-.395.251-.717.06-.322.06-.604 0-.283-.093-.533-.092-.256-.27-.447-.172-.19-.436-.302-.264-.112-.607-.112-.403 0-.726.112-.317.112-.56.243-.238.132-.403.243-.159.112-.238.112-.046 0-.086-.026-.033-.027-.06-.086-.019-.059-.032-.157-.013-.099-.013-.237 0-.099.006-.17.007-.073.02-.126.02-.052.046-.098.027-.046.106-.112.08-.072.27-.19.198-.119.489-.23.297-.119.646-.198.357-.079.746-.079.62 0 1.082.178.469.17.773.473.31.302.462.703.151.401.151.854 0 .408-.072.815-.073.401-.31.874-.231.467-.674 1.045-.442.572-1.174 1.321l-1.353 1.407h3.715q.053 0 .1.033.052.026.085.085.04.06.053.151.02.086.02.204zM54.742 135.032q0 .979-.159 1.787-.151.809-.514 1.393-.357.579-.937.9-.581.316-1.432.316-.805 0-1.36-.282-.548-.29-.884-.842-.337-.558-.482-1.367-.138-.814-.138-1.866 0-.973.158-1.781.158-.815.515-1.393.356-.585.937-.9.58-.323 1.425-.323.812 0 1.36.29.554.282.89.84.337.553.476 1.368.145.808.145 1.86zm-1.162.078q0-.637-.046-1.143t-.138-.894q-.086-.388-.231-.664-.139-.282-.337-.46-.198-.184-.455-.263-.251-.085-.568-.085-.56 0-.91.263t-.555.723q-.198.46-.27 1.078-.073.617-.073 1.327 0 .953.099 1.624.099.663.31 1.084.218.42.548.611.336.19.812.19.37 0 .646-.118.284-.118.482-.335.205-.223.337-.532.132-.309.21-.684.08-.374.106-.808.033-.44.033-.913zM66.377 138.857q0 .124-.02.21-.02.085-.053.138-.033.052-.079.079-.04.02-.086.02h-4.46q-.047 0-.086-.02-.04-.027-.08-.08-.033-.052-.052-.137-.02-.086-.02-.21 0-.119.02-.204.02-.086.046-.138.033-.06.072-.086.047-.033.1-.033h1.781v-6.466l-1.65.979q-.125.065-.204.079-.073.013-.119-.027-.046-.046-.066-.144-.013-.099-.013-.25 0-.112.006-.19.014-.08.033-.132.02-.053.053-.092.04-.04.1-.079l1.966-1.255q.026-.02.066-.033.04-.013.099-.026.06-.013.138-.013.08-.007.198-.007.159 0 .264.013.106.013.165.039.06.02.08.06.02.032.02.071v7.473h1.543q.053 0 .1.033.046.026.072.085.033.053.046.138.02.086.02.204zM73.328 134.716q0 .552-.066 1.117-.066.566-.225 1.091-.158.52-.429.98-.264.453-.673.795-.402.342-.963.539-.555.19-1.294.19-.283 0-.554-.04-.264-.032-.482-.084-.21-.053-.356-.112-.145-.06-.211-.118-.066-.06-.1-.158-.026-.105-.026-.276 0-.145.007-.23.013-.086.033-.132.02-.046.053-.059.04-.02.092-.02.073 0 .205.053.132.046.33.105.204.06.475.112.27.046.607.046.64 0 1.095-.243.462-.25.753-.664.29-.414.435-.96.145-.545.159-1.15-.35.204-.839.362-.488.158-1.121.158-.713 0-1.201-.191-.482-.197-.78-.532-.29-.336-.421-.796-.126-.46-.126-1.005 0-.565.165-1.071.165-.513.515-.9.35-.389.89-.619.542-.23 1.294-.23.535 0 .944.138.416.132.72.388.303.25.514.611.211.355.336.809.132.453.185.986.06.525.06 1.11zm-1.155-.125q0-.841-.112-1.413-.113-.578-.33-.933-.218-.355-.535-.513-.317-.157-.732-.157-.43 0-.733.157-.303.152-.501.414-.192.257-.284.585-.093.329-.093.677 0 .388.08.71.085.322.27.546.185.223.482.348.297.118.732.118.495 0 .957-.144.462-.152.799-.395zM85.176 138.857q0 .124-.02.21-.02.085-.053.138-.033.052-.08.079-.039.02-.085.02h-4.46q-.047 0-.087-.02-.04-.027-.079-.08-.033-.052-.053-.137-.02-.086-.02-.21 0-.119.02-.204.02-.086.047-.138.033-.06.072-.086.046-.033.1-.033h1.78v-6.466l-1.649.979q-.125.065-.204.079-.073.013-.12-.027-.045-.046-.065-.144-.013-.099-.013-.25 0-.112.006-.19.013-.08.033-.132.02-.053.053-.092.04-.04.099-.079l1.966-1.255q.027-.02.066-.033.04-.013.1-.026.059-.013.138-.013.08-.007.198-.007.158 0 .264.013.106.013.165.039.06.02.08.06.019.032.019.071v7.473h1.544q.053 0 .1.033.045.026.072.085.033.053.046.138.02.086.02.204zM92.126 134.716q0 .552-.066 1.117-.066.566-.224 1.091-.158.52-.429.98-.264.453-.673.795-.403.342-.964.539-.554.19-1.293.19-.284 0-.554-.04-.264-.032-.482-.084-.211-.053-.356-.112-.146-.06-.212-.118-.066-.06-.099-.158-.026-.105-.026-.276 0-.145.007-.23.013-.086.033-.132.02-.046.052-.059.04-.02.093-.02.072 0 .204.053.132.046.33.105.205.06.475.112.271.046.608.046.64 0 1.095-.243.462-.25.752-.664.29-.414.436-.96.145-.545.158-1.15-.35.204-.838.362t-1.122.158q-.712 0-1.2-.191-.482-.197-.78-.532-.29-.336-.422-.796-.125-.46-.125-1.005 0-.565.165-1.071.165-.513.515-.9.35-.389.89-.619.542-.23 1.294-.23.534 0 .944.138.415.132.719.388.303.25.515.611.21.355.336.809.132.453.185.986.06.525.06 1.11zm-1.155-.125q0-.841-.112-1.413-.112-.578-.33-.933-.217-.355-.534-.513-.317-.157-.733-.157-.429 0-.732.157-.304.152-.502.414-.191.257-.284.585-.092.329-.092.677 0 .388.08.71.085.322.27.546.185.223.482.348.297.118.732.118.495 0 .957-.144.462-.152.798-.395zM103.96 138.817q0 .118-.02.21-.014.092-.047.158-.026.06-.079.092-.046.026-.105.026H98.99q-.092 0-.165-.02-.066-.026-.118-.078-.047-.053-.073-.151-.02-.099-.02-.243 0-.132.007-.23.013-.1.046-.171.033-.08.08-.152.052-.078.131-.164l1.656-1.748q.575-.605.918-1.084.35-.48.534-.875.192-.394.251-.716.06-.322.06-.605 0-.282-.093-.532-.092-.256-.27-.447-.172-.19-.436-.302-.264-.112-.607-.112-.403 0-.726.112-.317.112-.561.243-.238.132-.403.243-.158.112-.237.112-.046 0-.086-.026-.033-.027-.06-.086-.02-.059-.032-.157-.013-.1-.013-.237 0-.099.006-.17.007-.073.02-.126.02-.052.046-.098.027-.046.106-.112.079-.072.27-.19.198-.119.489-.23.297-.119.646-.198.357-.079.746-.079.62 0 1.082.178.469.17.772.473.31.302.462.703.152.401.152.854 0 .408-.072.815-.073.401-.31.874-.232.467-.674 1.045-.442.572-1.174 1.321l-1.353 1.407h3.715q.053 0 .1.033.052.026.085.085.04.06.053.151.02.086.02.204zM111.148 135.032q0 .979-.159 1.787-.151.809-.514 1.393-.357.579-.938.9-.58.316-1.432.316-.805 0-1.359-.282-.548-.29-.884-.842-.337-.558-.482-1.367-.139-.814-.139-1.866 0-.973.159-1.781.158-.815.515-1.393.356-.585.937-.9.58-.323 1.425-.323.812 0 1.36.29.554.282.89.84.337.553.475 1.368.146.808.146 1.86zm-1.162.078q0-.637-.046-1.143t-.139-.894q-.085-.388-.23-.664-.14-.282-.337-.46-.198-.184-.455-.263-.251-.085-.568-.085-.56 0-.91.263t-.555.723q-.198.46-.27 1.078-.073.617-.073 1.327 0 .953.099 1.624.099.663.31 1.084.218.42.548.611.336.19.811.19.37 0 .647-.118.284-.118.482-.335.204-.223.336-.532.132-.309.212-.684.079-.374.105-.808.033-.44.033-.913zM9.917 156.52q0 .118-.02.21-.013.092-.046.158-.026.059-.08.092-.045.026-.105.026H4.948q-.092 0-.165-.02-.066-.026-.119-.079-.046-.052-.072-.15-.02-.1-.02-.244 0-.131.006-.23.014-.099.047-.17.033-.08.079-.152.053-.079.132-.164l1.656-1.749q.574-.604.917-1.084.35-.48.535-.874.191-.394.25-.716.06-.322.06-.605t-.092-.532q-.093-.257-.27-.447-.172-.19-.436-.303-.264-.111-.608-.111-.402 0-.725.111-.317.112-.561.244-.238.131-.403.243-.158.111-.237.111-.047 0-.086-.026-.033-.026-.06-.085-.02-.06-.033-.158-.013-.099-.013-.237 0-.098.007-.17.006-.073.02-.125.02-.053.046-.099.026-.046.105-.112.08-.072.27-.19.199-.119.49-.23.296-.119.646-.197.356-.08.746-.08.62 0 1.082.178.468.171.772.473.31.303.462.704.152.4.152.854 0 .407-.073.815-.072.4-.31.874-.231.467-.673 1.045-.442.572-1.175 1.32l-1.353 1.407H9.66q.053 0 .099.033.053.027.086.086.04.059.052.15.02.086.02.205zM16.822 156.52q0 .118-.02.21-.013.092-.046.158-.027.059-.08.092-.046.026-.105.026h-4.719q-.092 0-.165-.02-.066-.026-.118-.079-.047-.052-.073-.15-.02-.1-.02-.244 0-.131.007-.23.013-.099.046-.17.033-.08.08-.152.052-.079.131-.164l1.657-1.749q.574-.604.917-1.084.35-.48.534-.874.192-.394.251-.716.06-.322.06-.605t-.093-.532q-.092-.257-.27-.447-.172-.19-.436-.303-.264-.111-.607-.111-.403 0-.726.111-.317.112-.56.244-.239.131-.403.243-.159.111-.238.111-.046 0-.086-.026-.033-.026-.06-.085-.019-.06-.032-.158-.013-.099-.013-.237 0-.098.006-.17.007-.073.02-.125.02-.053.046-.099.027-.046.106-.112.079-.072.27-.19.198-.119.489-.23.297-.119.646-.197.357-.08.746-.08.62 0 1.082.178.469.171.772.473.31.303.462.704.152.4.152.854 0 .407-.072.815-.073.4-.31.874-.232.467-.674 1.045-.442.572-1.174 1.32l-1.353 1.407h3.715q.053 0 .1.033.052.027.085.086.04.059.053.15.02.086.02.205zM28.77 156.559q0 .125-.02.21-.02.086-.053.138-.033.053-.079.08-.04.019-.086.019h-4.46q-.047 0-.087-.02-.04-.026-.079-.079-.033-.052-.053-.138-.02-.085-.02-.21 0-.118.02-.204.02-.085.047-.138.033-.059.072-.085.046-.033.1-.033h1.781v-6.467l-1.65.98q-.125.065-.204.078-.073.013-.12-.026-.045-.046-.065-.145-.013-.098-.013-.25 0-.111.006-.19.013-.079.033-.131.02-.053.053-.092.04-.04.1-.08l1.966-1.255q.026-.02.066-.033.04-.013.099-.026.059-.013.138-.013.08-.007.198-.007.159 0 .264.013.106.013.165.04.06.02.08.059.02.033.02.072v7.472h1.543q.053 0 .1.033.045.027.072.086.033.052.046.138.02.085.02.204zM35.72 152.419q0 .552-.066 1.117t-.224 1.09q-.158.52-.429.98-.264.454-.673.795-.403.342-.963.54-.555.19-1.294.19-.284 0-.554-.04-.264-.032-.482-.085-.211-.053-.356-.112-.145-.059-.211-.118-.066-.06-.1-.158-.026-.105-.026-.276 0-.144.007-.23.013-.085.033-.131.02-.046.053-.06.04-.02.092-.02.073 0 .204.053.132.046.33.106.205.059.476.111.27.046.607.046.64 0 1.095-.243.462-.25.752-.664.29-.414.436-.96.145-.545.158-1.15-.35.204-.838.362t-1.122.158q-.712 0-1.2-.19-.482-.198-.78-.533-.29-.335-.422-.795-.125-.46-.125-1.006 0-.565.165-1.071.165-.513.515-.9.35-.388.89-.618.542-.23 1.294-.23.535 0 .944.138.415.131.719.388.304.25.515.61.21.356.336.81.132.453.185.985.06.526.06 1.11zm-1.154-.125q0-.842-.113-1.413-.112-.579-.33-.934-.217-.354-.534-.512-.317-.158-.733-.158-.429 0-.732.158-.304.151-.502.414-.191.256-.283.585-.093.328-.093.677 0 .388.08.71.085.322.27.545.185.223.482.348.297.119.732.119.495 0 .957-.145.462-.151.799-.394zM47.554 156.52q0 .118-.02.21-.013.092-.046.158-.027.059-.08.092-.046.026-.105.026h-4.719q-.092 0-.165-.02-.065-.026-.118-.079-.046-.052-.073-.15-.02-.1-.02-.244 0-.131.007-.23.013-.099.046-.17.033-.08.08-.152.052-.079.131-.164l1.657-1.749q.574-.604.917-1.084.35-.48.534-.874.192-.394.251-.716.06-.322.06-.605t-.093-.532q-.092-.257-.27-.447-.172-.19-.436-.303-.264-.111-.607-.111-.403 0-.726.111-.317.112-.56.244-.238.131-.403.243-.159.111-.238.111-.046 0-.086-.026-.033-.026-.06-.085-.019-.06-.032-.158-.013-.099-.013-.237 0-.098.006-.17.007-.073.02-.125.02-.053.046-.099.027-.046.106-.112.08-.072.27-.19.198-.119.489-.23.297-.119.646-.197.357-.08.746-.08.62 0 1.082.178.469.171.773.473.31.303.461.704.152.4.152.854 0 .407-.072.815-.073.4-.31.874-.231.467-.674 1.045-.442.572-1.174 1.32l-1.353 1.407h3.715q.053 0 .1.033.052.027.085.086.04.059.053.15.02.086.02.205zM54.392 154.574q0 .585-.205 1.058-.204.467-.587.802t-.944.52q-.56.177-1.267.177-.428 0-.805-.072-.37-.066-.66-.158-.29-.099-.481-.197-.192-.106-.244-.152-.047-.046-.073-.092-.026-.046-.046-.111-.02-.066-.033-.158-.007-.099-.007-.237 0-.236.046-.328.047-.092.132-.092.06 0 .231.105.178.105.449.23.277.118.64.223.37.106.818.106.436 0 .766-.112t.554-.316q.225-.203.337-.48.112-.282.112-.61 0-.362-.145-.651-.139-.29-.416-.5-.27-.21-.673-.322-.396-.111-.904-.111h-.812q-.053 0-.105-.02-.047-.026-.086-.08-.033-.052-.06-.137-.02-.085-.02-.224 0-.124.02-.203.02-.086.053-.132.04-.052.086-.072.046-.026.106-.026h.745q.436 0 .779-.112.35-.112.587-.322.244-.21.37-.5.132-.295.132-.657 0-.263-.086-.5-.086-.242-.257-.42-.172-.177-.442-.276-.264-.105-.614-.105-.383 0-.706.118-.317.112-.568.243-.25.132-.416.25-.165.112-.23.112-.047 0-.086-.013-.033-.02-.06-.066-.02-.053-.033-.138-.006-.092-.006-.237 0-.098.006-.17.007-.08.027-.132.02-.059.046-.105t.086-.105q.066-.066.257-.184t.469-.23q.283-.118.646-.197.37-.08.792-.08.594 0 1.043.152.449.151.746.427.303.276.448.664.152.381.152.848 0 .4-.105.749-.106.342-.31.611-.205.263-.502.454-.297.184-.686.256v.013q.442.046.805.223.37.171.633.434.264.263.41.618.151.348.151.75zM66.357 156.52q0 .118-.02.21-.013.092-.046.158-.026.059-.079.092-.046.026-.106.026h-4.718q-.092 0-.165-.02-.066-.026-.119-.079-.046-.052-.072-.15-.02-.1-.02-.244 0-.131.007-.23.013-.099.046-.17.033-.08.079-.152.053-.079.132-.164l1.656-1.749q.574-.604.918-1.084.35-.48.534-.874.191-.394.25-.716.06-.322.06-.605t-.092-.532q-.093-.257-.27-.447-.172-.19-.436-.303-.264-.111-.607-.111-.403 0-.726.111-.317.112-.561.244-.238.131-.403.243-.158.111-.237.111-.047 0-.086-.026-.033-.026-.06-.085-.02-.06-.033-.158-.013-.099-.013-.237 0-.098.007-.17.006-.073.02-.125.02-.053.046-.099.026-.046.105-.112.08-.072.271-.19.198-.119.488-.23.297-.119.647-.197.356-.08.746-.08.62 0 1.082.178.469.171.772.473.31.303.462.704.152.4.152.854 0 .407-.073.815-.072.4-.31.874-.23.467-.673 1.045-.442.572-1.175 1.32l-1.352 1.407H66.1q.053 0 .099.033.053.027.086.086.04.059.052.15.02.086.02.205zM73.545 152.734q0 .98-.158 1.788-.152.808-.515 1.393-.356.578-.937.9-.58.316-1.432.316-.805 0-1.36-.283-.547-.289-.884-.841-.336-.559-.481-1.367-.139-.815-.139-1.867 0-.972.159-1.78.158-.815.514-1.394.357-.585.937-.9.581-.322 1.426-.322.811 0 1.36.289.554.283.89.841.337.552.475 1.367.145.809.145 1.86zm-1.161.079q0-.638-.046-1.144-.046-.506-.139-.893-.086-.388-.23-.664-.14-.283-.337-.46-.198-.184-.456-.263-.25-.086-.567-.086-.561 0-.91.263-.35.263-.555.723-.198.46-.27 1.078-.073.618-.073 1.328 0 .953.099 1.623.099.664.31 1.084.218.421.547.612.337.19.812.19.37 0 .647-.118.284-.118.482-.335.204-.224.336-.533.132-.308.211-.683.08-.375.106-.808.033-.44.033-.914zM85.156 156.52q0 .118-.02.21-.013.092-.046.158-.026.059-.08.092-.045.026-.105.026h-4.718q-.093 0-.165-.02-.066-.026-.119-.079-.046-.052-.073-.15-.02-.1-.02-.244 0-.131.007-.23.013-.099.046-.17.033-.08.08-.152.052-.079.132-.164l1.656-1.749q.574-.604.917-1.084.35-.48.535-.874.191-.394.25-.716.06-.322.06-.605t-.092-.532q-.093-.257-.271-.447-.172-.19-.436-.303-.264-.111-.607-.111-.402 0-.726.111-.316.112-.56.244-.238.131-.403.243-.158.111-.238.111-.046 0-.085-.026-.033-.026-.06-.085-.02-.06-.033-.158-.013-.099-.013-.237 0-.098.007-.17.006-.073.02-.125.02-.053.046-.099.026-.046.105-.112.08-.072.27-.19.199-.119.489-.23.297-.119.647-.197.356-.08.745-.08.62 0 1.083.178.468.171.772.473.31.303.462.704.152.4.152.854 0 .407-.073.815-.073.4-.31.874-.231.467-.673 1.045-.442.572-1.175 1.32l-1.353 1.407H84.9q.052 0 .099.033.052.027.085.086.04.059.053.15.02.086.02.205zM91.994 154.574q0 .585-.204 1.058-.205.467-.588.802-.382.335-.943.52-.561.177-1.267.177-.43 0-.805-.072-.37-.066-.66-.158-.29-.099-.482-.197-.191-.106-.244-.152-.046-.046-.073-.092-.026-.046-.046-.111-.02-.066-.033-.158-.007-.099-.007-.237 0-.236.047-.328.046-.092.132-.092.059 0 .23.105.179.105.45.23.276.118.64.223.369.106.818.106.435 0 .765-.112t.555-.316q.224-.203.336-.48.112-.282.112-.61 0-.362-.145-.651-.138-.29-.416-.5-.27-.21-.673-.322-.396-.111-.904-.111h-.812q-.052 0-.105-.02-.046-.026-.086-.08-.033-.052-.06-.137-.02-.085-.02-.224 0-.124.02-.203.02-.086.053-.132.04-.052.086-.072.046-.026.106-.026h.746q.435 0 .778-.112.35-.112.588-.322.244-.21.37-.5.131-.295.131-.657 0-.263-.086-.5-.085-.242-.257-.42-.172-.177-.442-.276-.264-.105-.614-.105-.383 0-.706.118-.317.112-.568.243-.25.132-.415.25-.165.112-.231.112-.046 0-.086-.013-.033-.02-.06-.066-.02-.053-.032-.138-.007-.092-.007-.237 0-.098.007-.17.006-.08.026-.132.02-.059.046-.105.027-.046.086-.105.066-.066.257-.184.192-.118.469-.23.284-.118.647-.197.37-.08.791-.08.594 0 1.043.152.449.151.746.427.303.276.449.664.151.381.151.848 0 .4-.105.749-.106.342-.31.611-.205.263-.502.454-.297.184-.686.256v.013q.442.046.805.223.37.171.633.434.264.263.41.618.151.348.151.75zM103.98 156.559q0 .125-.02.21-.02.086-.053.138-.033.053-.08.08-.04.019-.085.019H99.28q-.047 0-.086-.02-.04-.026-.08-.079-.032-.052-.052-.138-.02-.085-.02-.21 0-.118.02-.204.02-.085.046-.138.033-.059.073-.085.046-.033.099-.033h1.781v-6.467l-1.65.98q-.125.065-.204.078-.073.013-.119-.026-.046-.046-.066-.145-.013-.098-.013-.25 0-.111.007-.19.013-.079.033-.131.02-.053.052-.092.04-.04.1-.08l1.966-1.255q.026-.02.066-.033.04-.013.099-.026.06-.013.139-.013.079-.007.198-.007.158 0 .264.013.105.013.165.04.059.02.079.059.02.033.02.072v7.472h1.544q.053 0 .099.033.046.027.072.086.033.052.047.138.02.085.02.204zM111.062 154.824q0 .552-.198.986-.198.427-.574.723-.37.296-.917.447-.548.15-1.254.15-.66 0-1.182-.137-.52-.138-.884-.408-.363-.27-.554-.663-.192-.395-.192-.9 0-.402.132-.737.132-.335.377-.618.25-.282.613-.525.363-.25.819-.474-.396-.203-.7-.427-.304-.23-.515-.493-.21-.27-.323-.572-.106-.302-.106-.657 0-.447.159-.834.165-.395.488-.684.33-.29.832-.453.508-.171 1.18-.171.648 0 1.116.157.475.152.779.421.31.263.455.624.145.362.145.776 0 .335-.112.644-.105.309-.317.585-.21.276-.521.52-.304.236-.7.446.47.23.832.473.37.243.614.526.25.276.376.592.132.308.132.683zm-1.426-4.364q0-.276-.099-.5-.092-.223-.277-.38-.184-.158-.462-.237-.27-.086-.62-.086-.713 0-1.082.322-.363.323-.363.881 0 .256.086.48.092.217.277.414.191.197.475.388.29.184.686.387.667-.341 1.023-.755.356-.414.356-.914zm.278 4.482q0-.302-.113-.545-.112-.25-.343-.46-.224-.217-.567-.414-.337-.204-.786-.42-.415.203-.732.407-.31.203-.515.42-.198.217-.303.46-.1.237-.1.526 0 .638.436.986.442.348 1.313.348.845 0 1.274-.348.436-.355.436-.96zM57.92 13.725q0 .118-.014.21-.013.085-.046.145-.033.059-.08.085-.039.026-.091.026H53.59q-.151 0-.29-.098-.132-.105-.132-.362V6.147q0-.256.132-.355.139-.105.29-.105h4.052q.053 0 .093.026.046.026.072.086.027.059.04.15.02.086.02.218 0 .118-.02.21-.013.085-.04.145-.026.052-.072.078-.04.027-.093.027h-3.339v2.668h2.864q.053 0 .093.033.046.026.072.079.033.052.046.144.014.092.014.217 0 .118-.014.204-.013.085-.046.138-.026.053-.072.079-.04.02-.093.02h-2.864v3.042h3.386q.052 0 .092.027.046.026.08.085.032.053.045.145.013.085.013.217zM66.33 9.814q0 1.104-.284 1.932-.284.822-.832 1.367-.54.54-1.333.809-.792.27-1.887.27h-1.808q-.152 0-.29-.1-.133-.104-.133-.36V6.146q0-.256.132-.355.139-.105.29-.105h1.934q1.109 0 1.875.29.765.282 1.28.82.521.533.785 1.295.27.763.27 1.722zm-1.195.046q0-.69-.171-1.281-.172-.598-.542-1.032-.363-.434-.923-.677-.561-.243-1.446-.243H60.9v6.618h1.168q.818 0 1.379-.204.56-.204.937-.624.376-.42.56-1.052.192-.637.192-1.505zM74.537 13.79q.053.145.053.237.007.085-.046.131t-.178.06q-.119.013-.324.013-.204 0-.33-.013-.118-.007-.184-.027-.06-.026-.093-.065-.026-.04-.052-.1l-.733-2.07H69.1l-.7 2.045q-.02.059-.053.105-.033.04-.099.072-.059.026-.178.04-.112.013-.297.013-.191 0-.317-.02-.118-.013-.171-.06-.046-.045-.046-.13.006-.093.06-.237l2.863-7.9q.027-.072.066-.118.046-.046.126-.073.085-.026.21-.032.133-.014.33-.014.212 0 .35.014.139.006.225.032.086.027.132.08.046.045.072.118zm-3.675-6.973h-.007l-1.472 4.24h2.97zM82.534 9.814q0 1.104-.284 1.932-.283.822-.831 1.367-.541.54-1.333.809-.792.27-1.887.27H76.39q-.151 0-.29-.1-.132-.104-.132-.36V6.146q0-.256.132-.355.139-.105.29-.105h1.934q1.109 0 1.874.29.766.282 1.28.82.522.533.786 1.295.27.763.27 1.722zm-1.194.046q0-.69-.172-1.281-.171-.598-.541-1.032-.363-.434-.924-.677-.56-.243-1.445-.243h-1.155v6.618h1.168q.818 0 1.38-.204.56-.204.936-.624.377-.42.561-1.052.192-.637.192-1.505z" style="-inkscape-font-specification:Calibri" font-weight="400" font-size="11.04" font-family="Calibri"/><path d="M0 20.921h2.35V0H0zM131.65 20.921H134V2.341h-2.35z" fill-rule="evenodd"/><path d="M.661 20.994v140.913" fill="none" stroke="#000" stroke-width=".187" stroke-linecap="square" stroke-linejoin="round" stroke-miterlimit="10"/><path d="M.588 161.98h1.175V20.921H.588z" fill-rule="evenodd"/><path d="M132.31 20.994v140.913" fill="none" stroke="#000" stroke-width=".187" stroke-linecap="square" stroke-linejoin="round" stroke-miterlimit="10"/><path d="M132.237 161.98h1.175V20.921h-1.175z" fill-rule="evenodd"/><path d="M19.494 20.994v140.913" fill="none" stroke="#000" stroke-width=".187" stroke-linecap="square" stroke-linejoin="round" stroke-miterlimit="10"/><path d="M19.42 161.98h1.176V20.921H19.42z" fill-rule="evenodd"/><path d="M38.298 20.994v140.913" fill="none" stroke="#000" stroke-width=".187" stroke-linecap="square" stroke-linejoin="round" stroke-miterlimit="10"/><path d="M38.224 161.98H39.4V20.921h-1.175z" fill-rule="evenodd"/><path d="M57.101 20.994v140.913" fill="none" stroke="#000" stroke-width=".187" stroke-linecap="square" stroke-linejoin="round" stroke-miterlimit="10"/><path d="M57.028 161.98h1.175V20.921h-1.175z" fill-rule="evenodd"/><path d="M75.9 20.994v140.913" fill="none" stroke="#000" stroke-width=".187" stroke-linecap="square" stroke-linejoin="round" stroke-miterlimit="10"/><path d="M75.826 161.98h1.176V20.921h-1.176z" fill-rule="evenodd"/><path d="M94.703 20.994v140.913" fill="none" stroke="#000" stroke-width=".187" stroke-linecap="square" stroke-linejoin="round" stroke-miterlimit="10"/><path d="M94.63 161.98h1.175V20.921H94.63z" fill-rule="evenodd"/><path d="M113.507 20.994v140.913" fill="none" stroke="#000" stroke-width=".187" stroke-linecap="square" stroke-linejoin="round" stroke-miterlimit="10"/><path d="M113.434 161.98h1.175V20.921h-1.175zM2.35 2.34H134V0H2.35zM2.35 20.921H134v-2.34H2.35z" fill-rule="evenodd"/><path d="M1.836 36.966H133.34" fill="none" stroke="#000" stroke-width=".187" stroke-linecap="square" stroke-linejoin="round" stroke-miterlimit="10"/><path d="M1.763 38.063h131.65v-1.17H1.762z" fill-rule="evenodd"/><path d="M1.836 54.668H133.34" fill="none" stroke="#000" stroke-width=".187" stroke-linecap="square" stroke-linejoin="round" stroke-miterlimit="10"/><path d="M1.763 55.765h131.65v-1.17H1.762z" fill-rule="evenodd"/><path d="M1.836 72.37H133.34" fill="none" stroke="#000" stroke-width=".187" stroke-linecap="square" stroke-linejoin="round" stroke-miterlimit="10"/><path d="M1.763 73.468h131.65v-1.17H1.762z" fill-rule="evenodd"/><path d="M1.836 90.073H133.34" fill="none" stroke="#000" stroke-width=".187" stroke-linecap="square" stroke-linejoin="round" stroke-miterlimit="10"/><path d="M1.763 91.17h131.65V90H1.762z" fill-rule="evenodd"/><path d="M1.836 107.775H133.34" fill="none" stroke="#000" stroke-width=".187" stroke-linecap="square" stroke-linejoin="round" stroke-miterlimit="10"/><path d="M1.763 108.873h131.65v-1.17H1.762z" fill-rule="evenodd"/><path d="M1.836 125.478H133.34" fill="none" stroke="#000" stroke-width=".187" stroke-linecap="square" stroke-linejoin="round" stroke-miterlimit="10"/><path d="M1.763 126.575h131.65v-1.17H1.762z" fill-rule="evenodd"/><path d="M1.836 143.18H133.34" fill="none" stroke="#000" stroke-width=".187" stroke-linecap="square" stroke-linejoin="round" stroke-miterlimit="10"/><path d="M1.763 144.278h131.65v-1.17H1.762z" fill-rule="evenodd"/><path d="M1.836 160.883H133.34" fill="none" stroke="#000" stroke-width=".187" stroke-linecap="square" stroke-linejoin="round" stroke-miterlimit="10"/><path d="M1.763 161.98h131.65v-1.17H1.762z" fill-rule="evenodd"/></svg>