<svg xmlns="http://www.w3.org/2000/svg" width="278" height="158"><path fill="#fac090" stroke="#000" stroke-width="3" paint-order="stroke markers fill" d="M1.5 1.5h275v155H1.5z"/><circle cx="139" cy="89" r="59" fill="#fff" stroke="#000" stroke-width="3" paint-order="stroke markers fill"/><path style="line-height:1.25;-inkscape-font-specification:'Lato Bold'" d="M17.555 24.282v4.835H15V15.38h4.474q1.378 0 2.385.323t1.662.903q.656.579.97 1.387.313.807.313 1.767 0 .997-.332 1.833-.333.827-.998 1.425-.665.599-1.662.931-.998.333-2.337.333zm0-1.995h1.92q.702 0 1.225-.171.522-.181.865-.504.341-.332.512-.798.171-.475.171-1.054 0-.551-.17-.998-.171-.446-.513-.76-.343-.313-.865-.475-.522-.171-1.226-.171h-1.919zM30.52 19.218q1.093 0 1.977.352.893.351 1.52.997t.969 1.577q.342.931.342 2.08 0 1.16-.342 2.09-.342.932-.97 1.587-.626.656-1.52 1.007-.883.352-1.975.352-1.093 0-1.986-.352-.893-.351-1.53-1.007-.626-.655-.978-1.586-.342-.931-.342-2.09 0-1.15.342-2.081.352-.931.979-1.577.636-.646 1.53-.997.892-.352 1.985-.352zm0 8.237q1.217 0 1.796-.817.59-.817.59-2.394 0-1.577-.59-2.404-.58-.826-1.795-.826-1.235 0-1.824.836-.59.826-.59 2.394 0 1.567.59 2.394.589.817 1.824.817zM37.187 29.117V15h2.346v5.567q.58-.617 1.311-.978.732-.371 1.71-.371.798 0 1.454.333.665.323 1.14.95.484.627.741 1.548.266.922.266 2.119 0 1.092-.295 2.023-.294.931-.845 1.615-.542.684-1.32 1.074-.77.38-1.73.38-.446 0-.817-.095-.37-.086-.674-.247-.304-.162-.57-.39-.257-.237-.494-.522l-.105.655q-.057.247-.199.352-.133.104-.37.104zm4.56-8.075q-.732 0-1.254.314-.513.304-.96.864v4.37q.4.494.865.694.475.19 1.026.19.532 0 .96-.2.427-.2.721-.608.304-.408.466-1.026.161-.627.161-1.472 0-.855-.142-1.444-.133-.599-.39-.97-.256-.37-.627-.541-.36-.171-.826-.171zM50.493 15v14.117h-2.347V15zM60.79 29.117h-1.054q-.332 0-.522-.095-.19-.104-.285-.408l-.21-.694q-.37.333-.73.589-.352.247-.732.418-.38.171-.808.257-.427.085-.95.085-.617 0-1.14-.161-.522-.171-.902-.504-.37-.332-.58-.826-.209-.494-.209-1.15 0-.551.285-1.083.295-.541.97-.969.674-.437 1.795-.722 1.12-.285 2.783-.323v-.57q0-.978-.418-1.444-.408-.475-1.197-.475-.57 0-.95.133t-.665.304q-.275.162-.513.295-.237.133-.522.133-.238 0-.409-.124-.17-.123-.275-.304l-.428-.75q1.682-1.54 4.057-1.54.855 0 1.52.286.674.275 1.14.779.465.494.703 1.187.247.694.247 1.52zm-4.56-1.463q.362 0 .666-.066.304-.067.57-.2.275-.133.522-.323.257-.2.513-.465v-1.644q-1.026.048-1.72.18-.683.124-1.101.324-.418.199-.599.465-.17.266-.17.58 0 .617.36.883.37.266.96.266zM69.947 21.432q-.104.133-.209.209-.095.076-.285.076-.18 0-.351-.105-.171-.114-.409-.247-.237-.142-.57-.247-.323-.114-.807-.114-.618 0-1.083.228-.466.219-.78.637-.303.418-.455 1.016-.152.589-.152 1.34 0 .779.161 1.387.171.608.485 1.026.313.408.76.627.446.209 1.007.209.56 0 .902-.133.352-.143.59-.304.237-.171.408-.304.18-.143.399-.143.285 0 .427.219l.675.855q-.39.456-.846.769-.456.304-.95.494-.484.18-1.007.257-.522.076-1.035.076-.903 0-1.7-.333-.799-.342-1.397-.988-.59-.646-.94-1.577-.343-.94-.343-2.137 0-1.074.304-1.986.314-.921.912-1.586.599-.675 1.482-1.055.884-.38 2.033-.38 1.093 0 1.91.352.826.351 1.482 1.007zM74.651 19.37v9.747h-2.346V19.37zm.352-2.84q0 .304-.124.57-.123.266-.332.465-.2.2-.475.323-.276.114-.59.114-.303 0-.579-.114-.266-.123-.465-.323-.2-.2-.323-.465-.114-.266-.114-.57 0-.314.114-.59.123-.275.323-.474.2-.2.465-.314.276-.123.58-.123.313 0 .589.123.275.114.475.314.209.199.332.475.124.275.124.589zM81.472 19.218q1.092 0 1.976.352.893.351 1.52.997t.969 1.577q.342.931.342 2.08 0 1.16-.342 2.09-.342.932-.97 1.587-.626.656-1.52 1.007-.883.352-1.975.352-1.093 0-1.986-.352-.893-.351-1.53-1.007-.626-.655-.978-1.586-.342-.931-.342-2.09 0-1.15.342-2.081.352-.931.979-1.577.636-.646 1.53-.997.892-.352 1.985-.352zm0 8.237q1.216 0 1.795-.817.59-.817.59-2.394 0-1.577-.59-2.404-.58-.826-1.795-.826-1.235 0-1.824.836-.59.826-.59 2.394 0 1.567.59 2.394.589.817 1.824.817zm3.296-12.227l-2.346 2.48q-.18.19-.352.266-.161.066-.427.066h-1.406l1.349-2.308q.142-.247.332-.371.19-.133.57-.133zM88.11 29.117V19.37h1.434q.456 0 .599.428l.161.769q.295-.304.618-.551.332-.247.693-.427.37-.181.789-.276.418-.095.912-.095.798 0 1.415.276.618.266 1.026.76.418.484.627 1.168.219.675.219 1.492v6.203h-2.347v-6.203q0-.893-.418-1.378-.408-.494-1.235-.494-.608 0-1.14.276-.532.275-1.007.75v7.049zM111.25 90.093q.162.304.295.636.143.323.276.656.133-.342.275-.675.143-.332.304-.636l4.066-7.61q.076-.142.152-.228.086-.085.18-.123.105-.038.229-.048.123-.01.294-.01h1.929v13.738h-2.252V86.92q0-.247.01-.542.02-.294.048-.598l-4.152 7.79q-.142.266-.37.418-.228.142-.532.142h-.352q-.304 0-.532-.142-.228-.152-.37-.418l-4.209-7.819q.038.314.048.618.019.294.019.55v8.874h-2.252V82.056h1.929q.17 0 .294.009.124.01.219.048.104.038.19.123.085.086.161.228l4.104 7.629zM124.032 86.046v6.194q0 .893.408 1.387.419.484 1.245.484.608 0 1.14-.266.532-.275 1.007-.75v-7.05h2.347v9.748h-1.435q-.456 0-.599-.428l-.161-.779q-.304.304-.627.56-.323.248-.694.428-.36.171-.788.266-.418.105-.902.105-.799 0-1.416-.266-.608-.276-1.026-.77-.418-.494-.636-1.168-.21-.684-.21-1.501v-6.194zM136.712 85.894q.921 0 1.69.294.78.295 1.34.865.56.56.874 1.387.314.817.314 1.871 0 .266-.029.447-.019.17-.085.275-.057.095-.162.143-.104.038-.266.038h-6.023q.105 1.5.808 2.204.703.703 1.862.703.57 0 .978-.133.418-.133.722-.295.314-.161.542-.294.237-.133.456-.133.142 0 .247.057.104.057.18.161l.684.855q-.39.456-.874.77-.484.304-1.016.494-.523.18-1.074.256-.541.076-1.054.076-1.017 0-1.89-.332-.875-.342-1.52-.998-.647-.665-1.017-1.634-.37-.978-.37-2.261 0-.997.322-1.871.323-.884.922-1.53.608-.655 1.472-1.035.874-.38 1.967-.38zm.047 1.681q-1.026 0-1.605.58-.58.579-.741 1.643h4.408q0-.456-.124-.855-.123-.408-.38-.712-.256-.304-.646-.475-.39-.181-.912-.181zM148.637 87.946q-.095.152-.2.218-.104.057-.265.057-.171 0-.37-.095-.19-.095-.447-.209-.257-.123-.59-.218-.322-.095-.769-.095-.693 0-1.092.294-.4.295-.4.77 0 .313.2.532.21.209.542.37.342.162.77.295.427.123.873.275.447.152.874.352.428.19.76.494.342.294.542.712.209.418.209 1.007 0 .703-.257 1.302-.256.589-.75 1.026-.494.427-1.226.674-.722.238-1.662.238-.504 0-.988-.095-.475-.086-.922-.247-.437-.162-.817-.38-.37-.219-.655-.475l.541-.893q.105-.162.247-.247.143-.086.361-.086.219 0 .409.124.2.123.456.266.256.142.598.266.352.123.884.123.418 0 .712-.095.304-.104.494-.266.2-.161.285-.37.095-.219.095-.447 0-.342-.209-.56-.2-.219-.541-.38-.333-.162-.77-.285-.427-.133-.883-.285-.447-.152-.884-.352-.427-.209-.77-.522-.332-.314-.54-.77-.2-.456-.2-1.102 0-.598.237-1.14.238-.541.694-.94.465-.409 1.15-.646.693-.247 1.595-.247 1.007 0 1.834.332.826.333 1.377.874zM154.366 95.945q-1.264 0-1.948-.713-.684-.722-.684-1.985v-5.444h-.988q-.19 0-.332-.123-.133-.124-.133-.371v-.931l1.567-.256.494-2.66q.038-.19.171-.295.143-.104.352-.104h1.216v3.068h2.565v1.672h-2.565v5.282q0 .456.228.713.228.256.608.256.218 0 .36-.047.153-.057.257-.114.114-.057.2-.105.085-.057.17-.057.105 0 .172.057.066.048.142.152l.703 1.14q-.513.428-1.178.646-.665.219-1.377.219zM158.512 95.793v-9.747h1.377q.361 0 .504.133.142.133.19.456l.142 1.178q.523-.903 1.226-1.425.703-.523 1.577-.523.722 0 1.197.333l-.304 1.757q-.029.171-.124.247-.095.067-.256.067-.143 0-.39-.067-.247-.066-.655-.066-.732 0-1.254.408-.523.399-.884 1.178v6.07zM173.646 95.793h-1.054q-.333 0-.523-.095-.19-.105-.285-.409l-.209-.693q-.37.332-.731.589-.352.247-.732.418-.38.17-.807.256-.428.086-.95.086-.618 0-1.14-.162-.523-.171-.903-.503-.37-.333-.58-.827-.208-.494-.208-1.15 0-.55.285-1.082.294-.542.969-.97.674-.436 1.795-.721t2.784-.323v-.57q0-.979-.418-1.444-.409-.475-1.197-.475-.57 0-.95.133t-.665.304q-.276.161-.513.294-.238.133-.523.133-.237 0-.408-.123-.171-.124-.276-.304l-.427-.751q1.681-1.539 4.056-1.539.855 0 1.52.285.675.276 1.14.779.466.494.703 1.188.247.693.247 1.52zm-4.56-1.463q.361 0 .665-.067.304-.066.57-.2.276-.132.523-.322.256-.2.513-.466v-1.643q-1.026.047-1.72.18-.684.124-1.102.323-.418.2-.598.466-.171.266-.171.579 0 .618.36.884.371.266.96.266z" font-weight="700" font-size="19" font-family="Lato" letter-spacing="0" word-spacing="0"/></svg>