<svg xmlns="http://www.w3.org/2000/svg" width="1024" height="1024"><defs><clipPath id="a" clipPathUnits="userSpaceOnUse"><path d="M-32768 32767h65535v-65535h-65535z"/></clipPath><clipPath id="c" clipPathUnits="userSpaceOnUse"><path d="M-32768 32767h65535v-65535h-65535z"/></clipPath><clipPath id="e" clipPathUnits="userSpaceOnUse"><path d="M-32768 32767h65535v-65535h-65535z"/></clipPath><clipPath id="g" clipPathUnits="userSpaceOnUse"><path d="M-32768 32767h65535v-65535h-65535z"/></clipPath><clipPath id="i" clipPathUnits="userSpaceOnUse"><path d="M-32768 32767h65535v-65535h-65535z"/></clipPath><clipPath id="k" clipPathUnits="userSpaceOnUse"><path d="M-32768 32767h65535v-65535h-65535z"/></clipPath><clipPath id="m" clipPathUnits="userSpaceOnUse"><path d="M-32768 32767h65535v-65535h-65535z"/></clipPath><clipPath id="o" clipPathUnits="userSpaceOnUse"><path d="M-32768 32767h65535v-65535h-65535z"/></clipPath><clipPath id="q" clipPathUnits="userSpaceOnUse"><path d="M-32768 32767h65535v-65535h-65535z"/></clipPath><clipPath id="s" clipPathUnits="userSpaceOnUse"><path d="M-32768 32767h65535v-65535h-65535z"/></clipPath><clipPath id="u" clipPathUnits="userSpaceOnUse"><path d="M-32768 32767h65535v-65535h-65535z"/></clipPath><clipPath id="w" clipPathUnits="userSpaceOnUse"><path d="M-32768 32767h65535v-65535h-65535z"/></clipPath><clipPath id="y" clipPathUnits="userSpaceOnUse"><path d="M-32768 32767h65535v-65535h-65535z"/></clipPath><clipPath id="A" clipPathUnits="userSpaceOnUse"><path d="M-32768 32767h65535v-65535h-65535z"/></clipPath><clipPath id="C" clipPathUnits="userSpaceOnUse"><path d="M-32768 32767h65535v-65535h-65535z"/></clipPath><clipPath id="E" clipPathUnits="userSpaceOnUse"><path d="M-32768 32767h65535v-65535h-65535z"/></clipPath><clipPath id="G" clipPathUnits="userSpaceOnUse"><path d="M-32768 32767h65535v-65535h-65535z"/></clipPath><clipPath id="I" clipPathUnits="userSpaceOnUse"><path d="M-32768 32767h65535v-65535h-65535z"/></clipPath><clipPath id="K" clipPathUnits="userSpaceOnUse"><path d="M-32768 32767h65535v-65535h-65535z"/></clipPath><clipPath id="M" clipPathUnits="userSpaceOnUse"><path d="M-32768 32767h65535v-65535h-65535z"/></clipPath><clipPath id="O" clipPathUnits="userSpaceOnUse"><path d="M-32768 32767h65535v-65535h-65535z"/></clipPath><clipPath id="Q" clipPathUnits="userSpaceOnUse"><path d="M-32768 32767h65535v-65535h-65535z"/></clipPath><clipPath id="S" clipPathUnits="userSpaceOnUse"><path d="M-32768 32767h65535v-65535h-65535z"/></clipPath><clipPath id="U" clipPathUnits="userSpaceOnUse"><path d="M-32768 32767h65535v-65535h-65535z"/></clipPath><clipPath id="W" clipPathUnits="userSpaceOnUse"><path d="M-32768 32767h65535v-65535h-65535z"/></clipPath><clipPath id="Y" clipPathUnits="userSpaceOnUse"><path d="M-32768 32767h65535v-65535h-65535z"/></clipPath><clipPath id="aa" clipPathUnits="userSpaceOnUse"><path d="M-32768 32767h65535v-65535h-65535z"/></clipPath><clipPath id="ac" clipPathUnits="userSpaceOnUse"><path d="M-32768 32767h65535v-65535h-65535z"/></clipPath><clipPath id="ae" clipPathUnits="userSpaceOnUse"><path d="M-32768 32767h65535v-65535h-65535z"/></clipPath><clipPath id="ag" clipPathUnits="userSpaceOnUse"><path d="M-32768 32767h65535v-65535h-65535z"/></clipPath><clipPath id="ai" clipPathUnits="userSpaceOnUse"><path d="M-32768 32767h65535v-65535h-65535z"/></clipPath><clipPath id="ak" clipPathUnits="userSpaceOnUse"><path d="M-32768 32767h65535v-65535h-65535z"/></clipPath><clipPath id="am" clipPathUnits="userSpaceOnUse"><path d="M-32768 32767h65535v-65535h-65535z"/></clipPath><clipPath id="ao" clipPathUnits="userSpaceOnUse"><path d="M-32768 32767h65535v-65535h-65535z"/></clipPath><clipPath id="aq" clipPathUnits="userSpaceOnUse"><path d="M-32768 32767h65535v-65535h-65535z"/></clipPath><clipPath id="as" clipPathUnits="userSpaceOnUse"><path d="M-32768 32767h65535v-65535h-65535z"/></clipPath><clipPath id="au" clipPathUnits="userSpaceOnUse"><path d="M-32768 32767h65535v-65535h-65535z"/></clipPath><clipPath id="aw" clipPathUnits="userSpaceOnUse"><path d="M-32768 32767h65535v-65535h-65535z"/></clipPath><clipPath id="ay" clipPathUnits="userSpaceOnUse"><path d="M-32768 32767h65535v-65535h-65535z"/></clipPath><clipPath id="aA" clipPathUnits="userSpaceOnUse"><path d="M-32768 32767h65535v-65535h-65535z"/></clipPath><clipPath id="aC" clipPathUnits="userSpaceOnUse"><path d="M-32768 32767h65535v-65535h-65535z"/></clipPath><clipPath id="aE" clipPathUnits="userSpaceOnUse"><path d="M-32768 32767h65535v-65535h-65535z"/></clipPath><clipPath id="aG" clipPathUnits="userSpaceOnUse"><path d="M-32768 32767h65535v-65535h-65535z"/></clipPath><clipPath id="aI" clipPathUnits="userSpaceOnUse"><path d="M0 500h500V0H0z"/></clipPath><radialGradient id="b" spreadMethod="pad" gradientTransform="matrix(4.46933 0 0 -4.46933 481.238 421.779)" gradientUnits="userSpaceOnUse" r="1" cy="0" cx="0" fy="0" fx="0"><stop offset="0" stop-color="#fff"/><stop offset=".15" stop-color="#fff"/><stop offset=".367" stop-color="#fff"/><stop offset="1" stop-opacity="0" stop-color="#fff"/></radialGradient><radialGradient id="d" spreadMethod="pad" gradientTransform="matrix(4.46933 0 0 -4.46933 227.667 481.47)" gradientUnits="userSpaceOnUse" r="1" cy="0" cx="0" fy="0" fx="0"><stop offset="0" stop-color="#fff"/><stop offset=".15" stop-color="#fff"/><stop offset=".367" stop-color="#fff"/><stop offset="1" stop-opacity="0" stop-color="#fff"/></radialGradient><radialGradient id="f" spreadMethod="pad" gradientTransform="matrix(4.46933 0 0 -4.46933 61.48 101.153)" gradientUnits="userSpaceOnUse" r="1" cy="0" cx="0" fy="0" fx="0"><stop offset="0" stop-color="#fff"/><stop offset=".15" stop-color="#fff"/><stop offset=".367" stop-color="#fff"/><stop offset="1" stop-opacity="0" stop-color="#fff"/></radialGradient><radialGradient id="h" spreadMethod="pad" gradientTransform="matrix(4.46933 0 0 -4.46933 481.238 331.96)" gradientUnits="userSpaceOnUse" r="1" cy="0" cx="0" fy="0" fx="0"><stop offset="0" stop-color="#fff"/><stop offset=".15" stop-color="#fff"/><stop offset=".367" stop-color="#fff"/><stop offset="1" stop-opacity="0" stop-color="#fff"/></radialGradient><radialGradient id="j" spreadMethod="pad" gradientTransform="matrix(4.46933 0 0 -4.46933 382.126 464.594)" gradientUnits="userSpaceOnUse" r="1" cy="0" cx="0" fy="0" fx="0"><stop offset="0" stop-color="#fff"/><stop offset=".15" stop-color="#fff"/><stop offset=".367" stop-color="#fff"/><stop offset="1" stop-opacity="0" stop-color="#fff"/></radialGradient><radialGradient id="l" spreadMethod="pad" gradientTransform="matrix(4.46933 0 0 -4.46933 126.969 28.059)" gradientUnits="userSpaceOnUse" r="1" cy="0" cx="0" fy="0" fx="0"><stop offset="0" stop-color="#fff"/><stop offset=".15" stop-color="#fff"/><stop offset=".367" stop-color="#fff"/><stop offset="1" stop-opacity="0" stop-color="#fff"/></radialGradient><radialGradient id="n" spreadMethod="pad" gradientTransform="matrix(4.46933 0 0 -4.46933 271.784 120.362)" gradientUnits="userSpaceOnUse" r="1" cy="0" cx="0" fy="0" fx="0"><stop offset="0" stop-color="#fff"/><stop offset=".15" stop-color="#fff"/><stop offset=".367" stop-color="#fff"/><stop offset="1" stop-opacity="0" stop-color="#fff"/></radialGradient><radialGradient id="p" spreadMethod="pad" gradientTransform="matrix(4.46933 0 0 -4.46933 440.798 101.27)" gradientUnits="userSpaceOnUse" r="1" cy="0" cx="0" fy="0" fx="0"><stop offset="0" stop-color="#fff"/><stop offset=".15" stop-color="#fff"/><stop offset=".367" stop-color="#fff"/><stop offset="1" stop-opacity="0" stop-color="#fff"/></radialGradient><radialGradient id="r" spreadMethod="pad" gradientTransform="matrix(4.46933 0 0 -4.46933 422.235 25.01)" gradientUnits="userSpaceOnUse" r="1" cy="0" cx="0" fy="0" fx="0"><stop offset="0" stop-color="#fff"/><stop offset=".15" stop-color="#fff"/><stop offset=".367" stop-color="#fff"/><stop offset="1" stop-opacity="0" stop-color="#fff"/></radialGradient><radialGradient id="t" spreadMethod="pad" gradientTransform="matrix(4.46933 0 0 -4.46933 74.178 473.532)" gradientUnits="userSpaceOnUse" r="1" cy="0" cx="0" fy="0" fx="0"><stop offset="0" stop-color="#fff"/><stop offset=".15" stop-color="#fff"/><stop offset=".367" stop-color="#fff"/><stop offset="1" stop-opacity="0" stop-color="#fff"/></radialGradient><radialGradient id="v" spreadMethod="pad" gradientTransform="matrix(4.46933 0 0 -4.46933 20.834 327.49)" gradientUnits="userSpaceOnUse" r="1" cy="0" cx="0" fy="0" fx="0"><stop offset="0" stop-color="#fff"/><stop offset=".15" stop-color="#fff"/><stop offset=".367" stop-color="#fff"/><stop offset="1" stop-opacity="0" stop-color="#fff"/></radialGradient><radialGradient id="x" spreadMethod="pad" gradientTransform="matrix(4.46933 0 0 -4.46933 145.79 370.335)" gradientUnits="userSpaceOnUse" r="1" cy="0" cx="0" fy="0" fx="0"><stop offset="0" stop-color="#fff"/><stop offset=".15" stop-color="#fff"/><stop offset=".367" stop-color="#fff"/><stop offset="1" stop-opacity="0" stop-color="#fff"/></radialGradient><radialGradient id="z" spreadMethod="pad" gradientTransform="matrix(1.59619 0 0 -1.59619 58.381 382.622)" gradientUnits="userSpaceOnUse" r="1" cy="0" cx="0" fy="0" fx="0"><stop offset="0" stop-color="#fff"/><stop offset=".15" stop-color="#fff"/><stop offset=".367" stop-color="#fff"/><stop offset="1" stop-opacity="0" stop-color="#fff"/></radialGradient><radialGradient id="B" spreadMethod="pad" gradientTransform="matrix(1.59619 0 0 -1.59619 115.585 446.474)" gradientUnits="userSpaceOnUse" r="1" cy="0" cx="0" fy="0" fx="0"><stop offset="0" stop-color="#fff"/><stop offset=".15" stop-color="#fff"/><stop offset=".367" stop-color="#fff"/><stop offset="1" stop-opacity="0" stop-color="#fff"/></radialGradient><radialGradient id="D" spreadMethod="pad" gradientTransform="matrix(1.59619 0 0 -1.59619 40 426.608)" gradientUnits="userSpaceOnUse" r="1" cy="0" cx="0" fy="0" fx="0"><stop offset="0" stop-color="#fff"/><stop offset=".15" stop-color="#fff"/><stop offset=".367" stop-color="#fff"/><stop offset="1" stop-opacity="0" stop-color="#fff"/></radialGradient><radialGradient id="F" spreadMethod="pad" gradientTransform="matrix(1.59619 0 0 -1.59619 153.333 266.346)" gradientUnits="userSpaceOnUse" r="1" cy="0" cx="0" fy="0" fx="0"><stop offset="0" stop-color="#fff"/><stop offset=".15" stop-color="#fff"/><stop offset=".367" stop-color="#fff"/><stop offset="1" stop-opacity="0" stop-color="#fff"/></radialGradient><radialGradient id="H" spreadMethod="pad" gradientTransform="matrix(1.59619 0 0 -1.59619 35.404 175.773)" gradientUnits="userSpaceOnUse" r="1" cy="0" cx="0" fy="0" fx="0"><stop offset="0" stop-color="#fff"/><stop offset=".15" stop-color="#fff"/><stop offset=".367" stop-color="#fff"/><stop offset="1" stop-opacity="0" stop-color="#fff"/></radialGradient><radialGradient id="J" spreadMethod="pad" gradientTransform="matrix(1.59619 0 0 -1.59619 367.305 49.413)" gradientUnits="userSpaceOnUse" r="1" cy="0" cx="0" fy="0" fx="0"><stop offset="0" stop-color="#fff"/><stop offset=".15" stop-color="#fff"/><stop offset=".367" stop-color="#fff"/><stop offset="1" stop-opacity="0" stop-color="#fff"/></radialGradient><radialGradient id="L" spreadMethod="pad" gradientTransform="matrix(1.59619 0 0 -1.59619 284.353 20.148)" gradientUnits="userSpaceOnUse" r="1" cy="0" cx="0" fy="0" fx="0"><stop offset="0" stop-color="#fff"/><stop offset=".15" stop-color="#fff"/><stop offset=".367" stop-color="#fff"/><stop offset="1" stop-opacity="0" stop-color="#fff"/></radialGradient><radialGradient id="N" spreadMethod="pad" gradientTransform="matrix(1.59619 0 0 -1.59619 470.53 255.003)" gradientUnits="userSpaceOnUse" r="1" cy="0" cx="0" fy="0" fx="0"><stop offset="0" stop-color="#fff"/><stop offset=".15" stop-color="#fff"/><stop offset=".367" stop-color="#fff"/><stop offset="1" stop-opacity="0" stop-color="#fff"/></radialGradient><radialGradient id="P" spreadMethod="pad" gradientTransform="matrix(1.59619 0 0 -1.59619 316.324 254.024)" gradientUnits="userSpaceOnUse" r="1" cy="0" cx="0" fy="0" fx="0"><stop offset="0" stop-color="#fff"/><stop offset=".15" stop-color="#fff"/><stop offset=".367" stop-color="#fff"/><stop offset="1" stop-opacity="0" stop-color="#fff"/></radialGradient><radialGradient id="R" spreadMethod="pad" gradientTransform="matrix(1.59619 0 0 -1.59619 44.54 43.667)" gradientUnits="userSpaceOnUse" r="1" cy="0" cx="0" fy="0" fx="0"><stop offset="0" stop-color="#fff"/><stop offset=".15" stop-color="#fff"/><stop offset=".367" stop-color="#fff"/><stop offset="1" stop-opacity="0" stop-color="#fff"/></radialGradient><radialGradient id="T" spreadMethod="pad" gradientTransform="matrix(1.59619 0 0 -1.59619 274.698 202.394)" gradientUnits="userSpaceOnUse" r="1" cy="0" cx="0" fy="0" fx="0"><stop offset="0" stop-color="#fff"/><stop offset=".15" stop-color="#fff"/><stop offset=".367" stop-color="#fff"/><stop offset="1" stop-opacity="0" stop-color="#fff"/></radialGradient><radialGradient id="V" spreadMethod="pad" gradientTransform="matrix(1.59619 0 0 -1.59619 14.449 113.674)" gradientUnits="userSpaceOnUse" r="1" cy="0" cx="0" fy="0" fx="0"><stop offset="0" stop-color="#fff"/><stop offset=".15" stop-color="#fff"/><stop offset=".367" stop-color="#fff"/><stop offset="1" stop-opacity="0" stop-color="#fff"/></radialGradient><radialGradient id="X" spreadMethod="pad" gradientTransform="matrix(1.59619 0 0 -1.59619 482.834 136.884)" gradientUnits="userSpaceOnUse" r="1" cy="0" cx="0" fy="0" fx="0"><stop offset="0" stop-color="#fff"/><stop offset=".15" stop-color="#fff"/><stop offset=".367" stop-color="#fff"/><stop offset="1" stop-opacity="0" stop-color="#fff"/></radialGradient><radialGradient id="Z" spreadMethod="pad" gradientTransform="matrix(1.59619 0 0 -1.59619 468.934 57.922)" gradientUnits="userSpaceOnUse" r="1" cy="0" cx="0" fy="0" fx="0"><stop offset="0" stop-color="#fff"/><stop offset=".15" stop-color="#fff"/><stop offset=".367" stop-color="#fff"/><stop offset="1" stop-opacity="0" stop-color="#fff"/></radialGradient><radialGradient id="ab" spreadMethod="pad" gradientTransform="matrix(1.59619 0 0 -1.59619 228.489 199.202)" gradientUnits="userSpaceOnUse" r="1" cy="0" cx="0" fy="0" fx="0"><stop offset="0" stop-color="#fff"/><stop offset=".15" stop-color="#fff"/><stop offset=".367" stop-color="#fff"/><stop offset="1" stop-opacity="0" stop-color="#fff"/></radialGradient><radialGradient id="ad" spreadMethod="pad" gradientTransform="matrix(1.59619 0 0 -1.59619 19.238 212.89)" gradientUnits="userSpaceOnUse" r="1" cy="0" cx="0" fy="0" fx="0"><stop offset="0" stop-color="#fff"/><stop offset=".15" stop-color="#fff"/><stop offset=".367" stop-color="#fff"/><stop offset="1" stop-opacity="0" stop-color="#fff"/></radialGradient><radialGradient id="af" spreadMethod="pad" gradientTransform="matrix(1.59619 0 0 -1.59619 28.367 247.654)" gradientUnits="userSpaceOnUse" r="1" cy="0" cx="0" fy="0" fx="0"><stop offset="0" stop-color="#fff"/><stop offset=".15" stop-color="#fff"/><stop offset=".367" stop-color="#fff"/><stop offset="1" stop-opacity="0" stop-color="#fff"/></radialGradient><radialGradient id="ah" spreadMethod="pad" gradientTransform="matrix(1.59619 0 0 -1.59619 455.197 458.528)" gradientUnits="userSpaceOnUse" r="1" cy="0" cx="0" fy="0" fx="0"><stop offset="0" stop-color="#fff"/><stop offset=".15" stop-color="#fff"/><stop offset=".367" stop-color="#fff"/><stop offset="1" stop-opacity="0" stop-color="#fff"/></radialGradient><radialGradient id="aj" spreadMethod="pad" gradientTransform="matrix(1.59619 0 0 -1.59619 447.944 366.5)" gradientUnits="userSpaceOnUse" r="1" cy="0" cx="0" fy="0" fx="0"><stop offset="0" stop-color="#fff"/><stop offset=".15" stop-color="#fff"/><stop offset=".367" stop-color="#fff"/><stop offset="1" stop-opacity="0" stop-color="#fff"/></radialGradient><radialGradient id="al" spreadMethod="pad" gradientTransform="matrix(1.59619 0 0 -1.59619 269.91 304.825)" gradientUnits="userSpaceOnUse" r="1" cy="0" cx="0" fy="0" fx="0"><stop offset="0" stop-color="#fff"/><stop offset=".15" stop-color="#fff"/><stop offset=".367" stop-color="#fff"/><stop offset="1" stop-opacity="0" stop-color="#fff"/></radialGradient><radialGradient id="an" spreadMethod="pad" gradientTransform="matrix(1.59619 0 0 -1.59619 400.768 374.804)" gradientUnits="userSpaceOnUse" r="1" cy="0" cx="0" fy="0" fx="0"><stop offset="0" stop-color="#fff"/><stop offset=".15" stop-color="#fff"/><stop offset=".367" stop-color="#fff"/><stop offset="1" stop-opacity="0" stop-color="#fff"/></radialGradient><radialGradient id="ap" spreadMethod="pad" gradientTransform="matrix(1.59619 0 0 -1.59619 393.134 117.837)" gradientUnits="userSpaceOnUse" r="1" cy="0" cx="0" fy="0" fx="0"><stop offset="0" stop-color="#fff"/><stop offset=".15" stop-color="#fff"/><stop offset=".367" stop-color="#fff"/><stop offset="1" stop-opacity="0" stop-color="#fff"/></radialGradient><radialGradient id="ar" spreadMethod="pad" gradientTransform="matrix(1.59619 0 0 -1.59619 375.277 271.355)" gradientUnits="userSpaceOnUse" r="1" cy="0" cx="0" fy="0" fx="0"><stop offset="0" stop-color="#fff"/><stop offset=".15" stop-color="#fff"/><stop offset=".367" stop-color="#fff"/><stop offset="1" stop-opacity="0" stop-color="#fff"/></radialGradient><radialGradient id="at" spreadMethod="pad" gradientTransform="matrix(1.59619 0 0 -1.59619 164.872 449.667)" gradientUnits="userSpaceOnUse" r="1" cy="0" cx="0" fy="0" fx="0"><stop offset="0" stop-color="#fff"/><stop offset=".15" stop-color="#fff"/><stop offset=".367" stop-color="#fff"/><stop offset="1" stop-opacity="0" stop-color="#fff"/></radialGradient><radialGradient id="av" spreadMethod="pad" gradientTransform="matrix(1.59619 0 0 -1.59619 81.76 306.477)" gradientUnits="userSpaceOnUse" r="1" cy="0" cx="0" fy="0" fx="0"><stop offset="0" stop-color="#fff"/><stop offset=".15" stop-color="#fff"/><stop offset=".367" stop-color="#fff"/><stop offset="1" stop-opacity="0" stop-color="#fff"/></radialGradient><radialGradient id="ax" spreadMethod="pad" gradientTransform="matrix(1.59619 0 0 -1.59619 222.702 448.07)" gradientUnits="userSpaceOnUse" r="1" cy="0" cx="0" fy="0" fx="0"><stop offset="0" stop-color="#fff"/><stop offset=".15" stop-color="#fff"/><stop offset=".367" stop-color="#fff"/><stop offset="1" stop-opacity="0" stop-color="#fff"/></radialGradient><radialGradient id="az" spreadMethod="pad" gradientTransform="matrix(1.59619 0 0 -1.59619 348.333 417.67)" gradientUnits="userSpaceOnUse" r="1" cy="0" cx="0" fy="0" fx="0"><stop offset="0" stop-color="#fff"/><stop offset=".15" stop-color="#fff"/><stop offset=".367" stop-color="#fff"/><stop offset="1" stop-opacity="0" stop-color="#fff"/></radialGradient><radialGradient id="aB" spreadMethod="pad" gradientTransform="matrix(1.59619 0 0 -1.59619 334.203 460.124)" gradientUnits="userSpaceOnUse" r="1" cy="0" cx="0" fy="0" fx="0"><stop offset="0" stop-color="#fff"/><stop offset=".15" stop-color="#fff"/><stop offset=".367" stop-color="#fff"/><stop offset="1" stop-opacity="0" stop-color="#fff"/></radialGradient><radialGradient id="aD" spreadMethod="pad" gradientTransform="matrix(1.59619 0 0 -1.59619 271.506 382.1)" gradientUnits="userSpaceOnUse" r="1" cy="0" cx="0" fy="0" fx="0"><stop offset="0" stop-color="#fff"/><stop offset=".15" stop-color="#fff"/><stop offset=".367" stop-color="#fff"/><stop offset="1" stop-opacity="0" stop-color="#fff"/></radialGradient><radialGradient id="aF" spreadMethod="pad" gradientTransform="matrix(1.59619 0 0 -1.59619 218.08 294.905)" gradientUnits="userSpaceOnUse" r="1" cy="0" cx="0" fy="0" fx="0"><stop offset="0" stop-color="#fff"/><stop offset=".15" stop-color="#fff"/><stop offset=".367" stop-color="#fff"/><stop offset="1" stop-opacity="0" stop-color="#fff"/></radialGradient><radialGradient id="aH" spreadMethod="pad" gradientTransform="matrix(1.59619 0 0 -1.59619 460.671 175.767)" gradientUnits="userSpaceOnUse" r="1" cy="0" cx="0" fy="0" fx="0"><stop offset="0" stop-color="#fff"/><stop offset=".15" stop-color="#fff"/><stop offset=".367" stop-color="#fff"/><stop offset="1" stop-opacity="0" stop-color="#fff"/></radialGradient></defs><g fill="#fff"><path d="M916.026 744.945c105.231-182.266 74.661-413.626-74.343-562.63C753.62 94.252 636.533 45.754 511.988 45.754c-124.541-.001-241.63 48.5-329.692 136.56-29.012 29.013-54.023 61.567-74.342 96.76C2.724 461.34 33.295 692.7 182.298 841.703c88.063 88.064 205.149 136.564 329.693 136.564 124.541 0 241.63-48.5 329.693-136.563 29.011-29.01 54.022-61.564 74.342-96.758M105.465 277.638c20.445-35.413 45.61-68.167 74.799-97.355C363.178-2.63 660.8-2.631 843.716 180.283c149.918 149.922 180.679 382.71 74.799 566.099-20.445 35.41-45.611 68.166-74.798 97.352-88.608 88.607-206.415 137.405-331.726 137.404-125.312 0-243.12-48.796-331.727-137.404-149.919-149.92-180.678-382.709-74.8-566.096"/><path d="M734.887 640.465a255.642 255.642 0 0025.585-61.872c11.611-43.56 11.612-89.608.001-133.165-11.572-43.405-34.61-83.266-66.622-115.278s-71.875-55.049-115.28-66.623c-43.561-11.613-89.609-11.61-133.163 0-43.423 11.595-83.287 34.63-115.278 66.622-16.016 16.017-29.824 33.985-41.037 53.406v.005a255.654 255.654 0 00-25.582 61.868c-11.603 43.583-11.604 89.632 0 133.163 11.572 43.405 34.612 83.268 66.622 115.278 32.012 32.012 71.875 55.049 115.278 66.622 43.53 11.603 89.58 11.603 133.164-.002 43.423-11.59 83.286-34.629 115.279-66.619 16.017-16.018 29.825-33.986 41.037-53.406m-448.287-258.34v-.005c11.34-19.638 25.3-37.806 41.493-54.001 32.349-32.348 72.66-55.643 116.57-67.366 44.041-11.741 90.6-11.74 134.647-.002 43.89 11.704 84.2 34.998 116.569 67.367 32.366 32.37 55.662 72.679 67.365 116.57 11.74 44.043 11.742 90.604.002 134.647-11.718 43.874-35.007 84.21-67.367 116.569-32.35 32.35-72.66 55.645-116.57 67.365-44.07 11.733-90.631 11.734-134.646.002-43.891-11.704-84.202-34.999-116.57-67.367-32.367-32.368-55.663-72.676-67.366-116.568-11.733-44.017-11.732-90.576-.002-134.646a258.69 258.69 0 0125.872-62.564"/><path d="M644.488 12l-66.562 248.393c.462.12.926.234 1.388.357.463.123.923.255 1.385.38l66.565-248.386-2.776-.744zm-264.974.02l-2.778.744 66.55 248.369c.46-.126.92-.258 1.382-.381.464-.124.93-.238 1.394-.36L379.514 12.02zM147.252 145.242l-2.031 2.031 181.869 181.87c.337-.341.669-.687 1.008-1.026.338-.339.683-.67 1.023-1.008L147.252 145.242zm729.475 0L694.857 327.11c.341.337.687.67 1.026 1.008.339.34.67.685 1.008 1.026l181.869-181.87-2.033-2.03zm134.53 231.494L762.866 443.3c.127.463.26.924.383 1.389.123.46.237.923.357 1.384L1012 379.51l-.742-2.774zm-998.515.02L12 379.533l248.37 66.557c.12-.467.234-.935.359-1.4.123-.461.255-.92.38-1.38L12.742 376.757zM260.37 577.93L12.002 644.488l.738 2.776 248.367-66.557c-.124-.457-.254-.913-.377-1.371-.124-.468-.239-.938-.36-1.406zm503.24.011c-.12.464-.235.93-.359 1.393-.124.463-.257.923-.383 1.385l248.37 66.545.744-2.776-248.372-66.547zM327.088 694.877L145.22 876.748l2.033 2.033L329.12 696.908c-.34-.336-.685-.667-1.023-1.006-.34-.34-.673-.684-1.01-1.025zm369.803 0c-.337.34-.67.686-1.008 1.025-.34.34-.685.671-1.026 1.008l181.868 181.87 2.03-2.034-181.864-181.87zM580.7 762.885c-.463.126-.925.259-1.389.383-.462.123-.926.237-1.388.357L644.469 1012l2.775-.742-66.543-248.373zm-137.408.006l-66.555 248.363 2.774.742 66.556-248.365c-.467-.122-.936-.237-1.402-.361-.459-.123-.915-.254-1.373-.38z"/><g clip-path="url(#aI)" transform="scale(-2.38098 2.38098) rotate(60 52.093 -167.71)" stroke-width=".56"><path d="M113.29 335.097c.695 1.154 1.957 3.14 2.592 4.23.36.616 2.53 3.793 1.438 4.428-1.027.598-4.03-5.364-5.377-7.874-1.518-2.41-5.218-7.967-4.19-8.565 1.09-.634 2.78 2.822 3.14 3.438.633 1.09 1.736 3.17 2.397 4.343M123.488 309.516c-1.471-.229-2.908-.638-4.388-.778-1.46-.144-3.104-.187-4.421.571-.69.402-2.636 1.352-3.971 4.245-.562 1.213-.487 2.484.134 3.682 1.127 2.186 3.097 4.455 5.768 4.238-.212.437-.406.878-.576 1.336-.002.01-.008.012-.008.012-.96 3.012-6.801-2.483-7.742-4.204-1.424-2.618-1.045-5.59.793-7.958 1.948-2.51 4.357-4.515 7.683-4.525 3.488-.006 6.956 1.751 10.209 2.837-1.587 1.054-1.736.812-3.481.544M125.315 338.781s.006-.003.015 0c.48.079.96.128 1.445.16-1.508 2.214-.508 5.048.837 7.108.734 1.132 1.802 1.824 3.135 1.935 3.175.269 4.962-.954 5.652-1.357 1.31-.77 2.085-2.221 2.68-3.561.61-1.356.964-2.808 1.49-4.2.63-1.65.493-1.898 2.194-2.758-.663 3.365-.848 7.248-2.576 10.279-1.651 2.887-4.585 3.99-7.73 4.445-2.967.428-5.738-.71-7.31-3.241-1.033-1.668-2.925-9.462.168-8.81M152.702 319.234c-1.1-1.01-1.463-2.633-2.29-3.856-.41-.625-1.3-2.154-1.64-2.819-.656-1.323-1.887-2.44-2.223-3.896-.495-2.164 1.442-1.213 2.088-.038a403.933 403.933 0 012.416 4.493 401.892 401.892 0 012.713 4.32c.703 1.142.573 3.296-1.064 1.796"/><path d="M139.39 336.564c-2.088.757-4.373 1.438-6.588 1.703-2.226.272-4.32-.489-6.514-.648-2.283-.169-5.008-1.097-7.264-.365-1.438.471-.254 4.855-.685 4.97-.4.101-3.341-5.56-4.351-7.533-1.215-1.852-4.686-7.206-4.4-7.503.312-.319 3.539 2.877 4.658 1.858 1.75-1.599 2.29-4.427 3.272-6.496.945-1.987 1.318-4.183 2.653-5.984 1.325-1.795 3.046-3.446 4.736-4.888 6.289-5.342 18.29-6.23 23.613 2.914 5.323 9.145-1.378 19.142-9.13 21.972M111.507 357.193c.786-2.693 1.323-5.48 1.706-8.257.208-1.507.506-4.156 1.133-5.634.366-.861-.406-1.446-.709-.711-.497 1.207-.883 2.365-1.097 3.656-.433 2.602-.804 5.187-1.397 7.76-.587 2.55-1.017 5.342-2.982 7.295-2.493 2.477-6.296 1.789-6.44 2.724-.147.935 4.122.464 6.313-1.272 1.677-1.328 2.893-3.573 3.473-5.561M107.787 341.386c.938-1.088 2.312-1.452 3.264-2.431.701-.722-.308-.966-.86-.78-4.448 1.497-6.769 8.643-8.672 12.356-1.412 2.753-2.802 4.596-5.454 6.254-1.467.917-5.125 2.529-4.569 3.343.556.813 9.395-4.313 12.022-11.687.87-2.442 2.572-5.087 4.27-7.055M105.972 354.722c1.973-4.356 6.74-13.77 6.18-13.996-.82-.33-1.807 1.862-2.079 2.35-1.431 2.557-2.104 5.422-3.328 8.07-1.32 2.851-2.468 6.163-4.767 8.375-1.124 1.083-2.42 1.976-3.801 2.7-.98.512-3.288.87-3.024 1.533.715 1.802 4.95-1.578 6.32-2.717 2.04-1.699 3.415-3.92 4.5-6.315M95.35 326.87c2.53.756 4.96 1.71 7.436 2.619 1.23.451 2.426.687 3.721.851.79.1.662-.86-.268-.968-1.595-.185-4.045-1.233-5.458-1.797-2.604-1.039-5.292-1.948-8.022-2.595-2.015-.477-4.568-.529-6.55.273-2.592 1.048-5.11 4.527-4.226 4.862.885.335 2.165-3.311 5.55-4.255 2.67-.744 5.308.261 7.816 1.01M108.392 334.385c-1.322.343-2.317 1.36-3.726 1.637-2.55.504-5.69.677-8.243.228-7.71-1.359-16.532 3.795-16.1 4.68.433.885 3.642-1.499 5.164-2.322 2.75-1.487 5.04-1.785 8.13-1.652 4.169.18 11.529 1.69 15.028-1.438.434-.389.72-1.386-.253-1.133M86.028 332.115c3.06-.906 6.504-.268 9.635-.007 2.908.243 5.732 1.074 8.663 1.092.558.004 2.95.23 3.069-.647.08-.599-10.46-1.103-15.221-1.54-2.618-.24-5.23-.14-7.715.794-1.666.627-6.696 2.64-5.482 4.153.446.557 1.896-1.274 2.826-1.872 1.312-.844 2.728-1.53 4.225-1.973M191.085 400.4c.853-.338 1.31-.386 2.14-.472l.175-.018c.312-.033.653-.122.983-.21.425-.11.862-.225 1.203-.205-.003.06-.006.102-.01.138-.105 2.55-.893 4.16-2.81 5.736-.066.053-.132.107-.199.158-.787.605-1.743 1.108-3.006 1.582-.078.03-.18.055-.232.012-.164-.141-.025-.818.05-1.181.037-.182.07-.338.074-.434.014-.222.021-.47.03-.735.04-1.393.095-3.302 1.157-4.118.134-.103.284-.188.445-.252M168.414 401.212c.697.744 2.067 1.051 3.23.158.169-.13.33-.283.478-.455.836-.967.522-2.13-.161-2.853-.731-.774-1.983-1.165-2.963-.412a2.345 2.345 0 00-.33.312c-1.177 1.345-.872 2.592-.254 3.25m-14.161-27.497c.018.181-.791.906-1.504 1.546-2.168 1.946-5.798 5.203-5.95 8.746-.065 1.506.516 2.923 1.725 4.211 4.703 5.011 12.238 4.601 16.31 3.91.545-.092 1.392-.318 2.465-.604 3.748-1 10.02-2.673 12.524-.936.63.437.975 1.051 1.056 1.878.413 4.24-3.6 8.281-7.04 10.925a37.39 37.39 0 01-1.168.862c-2.602 1.847-6.03 4.013-9.464 4.385-1.827.198-4.648.25-6.582-.252-6.942-1.801-11.936-4.713-15.266-8.902-1.141-1.435-3.815-5.183-4.021-9.001-.151-2.807.764-4.295 2.03-6.355.202-.33.412-.671.628-1.035.774-1.304 1.878-2.483 3.475-3.71 1.008-.774 2.09-1.477 3.139-2.156l.5-.325c.282-.183.589-.388.914-.606 2.152-1.44 5.404-3.613 6.229-2.58"/><path d="M153.255 377.065c.317-.363 1.227-1.423 1.843-2.141l.604-.703c.219-.278.443-.505.666-.677.506-.39 1.029-.504 1.556-.342 1.553.477 2.846 3.183 3.398 4.795-1.465.533-6.788.045-8.067-.932M155.687 372.033c-.86.323-1.318.361-2.149.43l-.175.014c-.313.027-.655.11-.986.19-.428.103-.868.21-1.208.182.004-.06.008-.1.013-.138.156-2.548.976-4.14 2.924-5.678l.08-.062c.82-.63 1.823-1.144 3.158-1.614.078-.028.182-.05.232-.007.161.143.01.817-.073 1.18a3.81 3.81 0 00-.083.432c-.018.221-.03.47-.043.732-.068 1.38-.16 3.267-1.21 4.074-.145.111-.306.2-.48.265M171.051 398.837a.567.567 0 01.196.455c-.014.283-.232.614-.584.884-.369.283-.802.433-1.104.382a.47.47 0 01-.33-.206c-.24-.365-.014-1.319.516-1.726.39-.299.842-.227 1.306.211M157.917 391.27l-.283-.045c-1.155-.179-1.918-.297-2.254-.769-.25-.353-.287-.933-.08-1.93.361-.277 2.267.053 4.742.823 2.286.711 3.75 1.385 4.112 1.682l-.607.075c-1.913.238-3.72.463-5.63.163M145.656 404.751l.552.35c1.068.68 2.173 1.383 3.318 1.98 3.129 1.625 6.514 2.554 9.36 2.577a1.688 1.688 0 01-.8.256c-3.423.926-12.086.53-14.257-1.472-.382-.353-.531-.724-.456-1.133.123-.664.758-1.58 1.477-2.133.282-.216.559-.362.806-.425M175.19 373.908a.57.57 0 01-.206-.456c.013-.29.243-.64.602-.917h.001c.362-.279.772-.423 1.067-.376a.464.464 0 01.327.2c.254.368.04 1.334-.498 1.747-.38.293-.827.224-1.293-.198M200.463 367.49l-.58-.353c-1.076-.654-2.187-1.33-3.336-1.898-3.16-1.564-6.562-2.426-9.41-2.392.355-.223.648-.261.794-.271 3.404-.994 12.073-.771 14.284 1.187.39.345.546.713.478 1.124-.112.68-.766 1.649-1.489 2.206a2.252 2.252 0 01-.74.397"/><path d="M177.794 371.497c-.696-.728-2.054-1.025-3.2-.144a3.19 3.19 0 00-.515.5c-.809.973-.483 2.122.198 2.829.734.763 1.986 1.144 2.956.399.127-.097.247-.213.357-.344 1.141-1.357.823-2.593.204-3.24m28.76 17.535c-.804 1.416-2.01 2.716-3.799 4.09-.876.673-1.803 1.3-2.699 1.907l-.494.334c-.276.189-.579.4-.899.624-2.124 1.482-5.332 3.72-6.177 2.704-.022-.181.772-.922 1.472-1.576 2.13-1.99 5.694-5.318 5.775-8.863.035-1.506-.573-2.911-1.808-4.175-4.802-4.918-12.328-4.356-16.386-3.585-.543.104-1.385.346-2.452.654-3.727 1.073-9.966 2.87-12.502 1.185-.638-.425-.996-1.032-1.093-1.857-.52-4.42 3.74-8.705 7.406-11.522.192-.148.381-.29.565-.426 2.564-1.897 5.947-4.131 9.375-4.572 1.823-.234 4.641-.343 6.585.12 6.977 1.664 12.028 4.476 15.441 8.597 1.17 1.412 3.918 5.107 4.2 8.919.207 2.803-.678 4.31-1.903 6.395-.195.332-.399.679-.608 1.047"/><path d="M191.026 398.214a3.8 3.8 0 01-.694.723c-.49.376-1.002.49-1.523.335-1.556-.46-2.896-3.129-3.476-4.72 1.454-.563 6.786-.182 8.084.77-.302.36-1.15 1.39-1.75 2.118l-.64.774M188.472 381.214l.286.038c1.157.156 1.921.259 2.266.724.26.348.306.927.152 1.878-.002.013-.008.03-.035.052-.386.296-2.494-.05-5.126-.84-2.224-.668-3.477-1.243-3.788-1.49l.622-.088c1.907-.276 3.708-.536 5.623-.274M238.64 412.881c1.03 1.125 2.267 2.035 3.536 2.853 1.596 1.03 2.268.939 1.859 2.888-.325 1.478-1.176 2.741-1.893 4.048-1.75 3.213-8.246-6.756-6.534-8.602a.079.079 0 00-.025.021c.006-.007.012-.02.025-.027 1.058-1.114 1.902-2.41 3.032-1.181"/><path d="M240.257 424.505c-1.866 1.372-4.263 3.342-6.658 3.502-2.058.14-2.945-3.478-3.419-4.923-.836-2.575-.51-4.773.073-7.366.148-.63 3.185-.734 3.926-1.037.956 3.781 2.744 7.575 6.078 9.824M261.696 403.85c-.742-.411-.013-1.045.093-1.702.267-1.665-.127-3.98-1.182-5.327-.846-1.08-1.72-2.187-3.982-1.748-.908-1.083-.284-5.428-1.343-4.88-.567.294-.978 1.82-.483 3.366.623 1.947 1.3 3.879 1.984 5.805 1.188 3.34 3.909 7.177 7.188 6.015 1.057-.374-1.811-1.272-2.275-1.53m-10.071-18.915c3.837 3.186 1.414-2.218 0 0m-1.938.033c-1.488-2.168-3.727 3.314 0 0m-3.476 5.38c-1.077-.512-.306 3.81-1.177 4.923-2.276-.362-3.111.774-3.92 1.882-1.01 1.382-1.324 3.709-1 5.365.127.652.878 1.26.15 1.697-.455.273-3.29 1.268-2.222 1.606 3.317 1.049 5.907-2.877 6.98-6.256a196.367 196.367 0 001.786-5.87c.443-1.56-.021-3.073-.597-3.347m4.988 26.568c-3.184.054-9.485-2.316-11.835-4.99-2.654-3.033-2.175-7.084-1.371-10.697.804-3.601 2.852-6.687 4.615-9.861.878-1.593 4.186-8.411 5.937-9.155.297-.126 1.758-.185 2.062-.19.303-.005 1.766.004 2.066.12 1.776.684 5.313 7.385 6.245 8.948 1.869 3.112 4.02 6.127 4.946 9.698.926 3.584 1.543 7.616-1.006 10.738-2.26 2.753-8.476 5.335-11.66 5.389M260.446 422.359c-.762-1.282-1.654-2.515-2.03-3.981-.475-1.934.2-1.866 1.76-2.95 1.24-.86 2.446-1.811 3.437-2.971 1.089-1.267 1.975 0 3.07 1.077.014.007.02.02.027.026-.007-.006-.013-.013-.027-.02 1.774 1.787-4.38 11.97-6.237 8.819M215.01 408.401c.325-2.245 1.312-8.715 4.481-8.749.998-.01 7.85.891 5.696 3.603-.427.535-.824 1.638-1.835 3.591-2.924-.677-5.798.046-8.342 1.555M220.858 417.087c-.37.812-1.054 4.437-1.717 4.692-1.756-3.054-3.683-6.08-3.956-9.695 0-.02-.007-.046-.008-.066l-.001-.06c0 .009.002.016.003.024l-.003-.033V411.946c-.202-3.36 3.125-4.268 5.986-4.177 2.782.09 1.438 3.014 3.379 4.903-1.734.94-2.887 2.664-3.683 4.415"/><path d="M228.783 422.097c.494 2.231 1.343 4.41 2.937 6.093-1.402 1.82-11.601-2.458-11.221-5.014.389-2.748.776-5.212 2.395-7.544 1.354-1.952 1.85-1.848 3.706-1.14.006 0 .033.013.099.038.85.31 1.708.592 2.57.861-.321.858-.544 1.74-.667 2.653a11.798 11.798 0 00.18 4.053M233.528 400.847c-2.549-.762-4.509-.63-6.676.88-1.429-2.856-5.109-3.309-6.621-3.27 4.471-3.55 10.853-3.057 13.297 2.39M269.164 427.402c-2.399-.078-4.862-1.965-6.773-3.273 3.256-2.36 4.914-6.213 5.741-10.025.751.277 3.79.28 3.959.903.671 2.571 1.072 4.758.323 7.36-.424 1.46-1.188 5.106-3.25 5.035M278.687 405.906c-1.076-1.917-1.511-3.006-1.955-3.527-2.245-2.637 4.572-3.77 5.569-3.793 3.17-.074 4.375 6.36 4.776 8.591-2.593-1.422-5.49-2.047-8.39-1.27"/><path d="M275.015 400.91c-2.217-1.436-4.18-1.502-6.702-.653 2.258-5.528 8.62-6.237 13.208-2.84-1.512.012-5.175.59-6.506 3.492M281.528 416.056c-.855-1.723-2.066-3.406-3.831-4.288 1.876-1.954.433-4.829 3.21-5.015 2.858-.187 6.213.608 6.125 3.972V410.728l-.001.033v-.023l.002.06c0 .02-.006.046-.005.065-.15 3.623-1.973 6.712-3.625 9.824-.671-.233-1.478-3.832-1.875-4.63"/><path d="M279.443 414.672c1.696 2.276 2.167 4.726 2.65 7.458.466 2.542-9.58 7.165-11.045 5.393 1.536-1.737 2.311-3.943 2.73-6.19.247-1.338.263-2.712.042-4.056a12.125 12.125 0 00-.758-2.63 57.36 57.36 0 002.54-.947c.066-.027.092-.041.098-.041 1.83-.771 2.324-.892 3.743 1.013M309.653 391.937c.755.246 2.65-.175 3.184.45l.004.006c1.912 2.353 4.667 2.777 7.46 3.39-1.743 1.395-4.402 4.639-6.855 3.792-3.323-1.151-5.693-3.57-8.106-6.008 1.681-1.586 2.035-2.378 4.313-1.63M309.084 388.055c2.259-.2 1.967.527 2.772 2.625-1.185-.069-9.489-2.148-9.216-3.4l.785.109c1.865.342 3.747.825 5.659.666M329.744 376.128c-.928-1.232-.668-2.25-2.249-3.096-1.078-.575-3.33-.065-3.994-.636-.999-.86-1.66-1.777-2.97-2 .364 2.006 3.864 4.68 5.516 5.944 1.573 1.203 5.502 1.083 6.624 1.227.646-1.76-2.243-.532-2.927-1.439m-14.378-11.699c.871 1.116 1.248 1.66 2.621.874-.732-.898-1.463-.757-2.62-.874m-1.492 13.291c.131.864-1.499 2.501-1.585 3.72-.125 1.788.877 2.11 1.427 3.551.405 1.061-2.172 2.855-.338 3.244.475-1.026 2.666-4.29 2.483-6.262-.193-2.073-.596-6.458-2.103-7.832-.507 1.227-.08 2.275.116 3.58m-2.423-11.127c-.517 1.042-1.025 1.587-.654 2.684 1.396-.745 1.136-1.354.654-2.684m23.572 17.63c-.734 3.627-5.104 6.965-6.875 7.944-1.77.978-6.92 2.906-10.383 1.598-3.552-1.333-4.795-4.427-6.102-7.719-.717-1.815-2.125-3.474-2.375-5.44-.169-1.37.208-2.75.06-4.139-.349-3.196-1.958-5.913-.843-9.179.588-1.706 2.761-3.399 3.536-4.25 1.133-.203 3.722-1.144 5.474-.732 3.364.788 4.811 3.596 7.332 5.59 1.097.865 2.46 1.281 3.53 2.153 1.54 1.254 2.196 3.33 3.352 4.901 2.093 2.857 4.053 5.555 3.294 9.272M309.196 384.696c3.366 1.338-4.051 3.169-4.497 1.257.917-.266 3.595-1.62 4.497-1.257M319.798 415.427c-1.084-.268-2.174-.533-3.261-.808.189-.338.383-.672.58-1.008.42.252 2.805 1.385 2.68 1.816M331.897 372.142c.173-.956 2.743-2.505 3.455-3.14 1.382 1.393-4.11 6.703-3.455 3.14M312.578 406.273c.033.661.527 1.8-.082 2.377-4.09 3.93-6.948-2.33-8.495-5.128 2.074.68 4.183 1.37 6.375 1.554 1.57.136 2.1-.664 2.202 1.197"/><path d="M315.223 411.821c2.887 3.12-2.735.91-3.659.453a34.873 34.873 0 01-1.956-1.122c2.633-1.953 3.69-1.406 5.615.67M308.298 403.297c-2.208-.485-4.994-1.676-4.777-4.34.102-1.331.29-2.695 1.005-3.86 3.169 2.715 5.734 5.032 9.823 6.054-1.705 2.73-2.826 2.846-6.051 2.146M343.095 385.254c1.31-4.007.71-7.41.095-11.538 1.366.014 2.622.58 3.804 1.202 2.371 1.231 1.898 4.225 1.135 6.352-1.12 3.103-1.814 3.992-5.034 3.984M353.34 394.268c-.347 1.067-.702 2.13-1.05 3.192-.432-.124-.124-2.747-.114-3.235.384.013.775.024 1.163.043M335.385 387.443c.964-2.692 2.07-5.25 1.093-8.121l-.003-.006c-.003-.006-.003-.006 0-.015l-.003-.006c-.216-.786 1.125-2.154 1.315-2.916.578-2.326 1.437-2.205 3.674-2.786.783 3.34 1.57 6.633.778 10.06-.587 2.528-4.748 3.055-6.854 3.79M350.432 387.672c-.813.208-1.515-.815-2.057-1.195-1.522-1.075-.563-1.1.157-2.5 1.009-1.955 1.547-4.109 2.073-6.227 1.547 2.798 5.33 8.547-.173 9.922M334.797 373.837c1.157-1.538 1.748-3.39 2.449-5.15l.325-.723c1.206.434-1.447 8.573-2.02 9.614-1.347-1.798-2.12-1.937-.754-3.741"/><path d="M351.668 391.668c-.734-2.733-.636-3.92 2.419-5.111a35.973 35.973 0 01-.09 2.253c-.105 1.025-1.221 6.962-2.33 2.858M397.818 338.743c1.736.484 3.625 1.288 3.995 2.852.573 2.444-1.627 5.86-3.604 8.81-.305-.05-2.162-4.376-2.69-5.028-1.301-1.619 1.455-5.025 2.299-6.634M400.417 331.924c-.733 1.263-2.11 3.686-2.837 4.952-2.336-.98-1.565-2.351-.01-4.377 1.002-1.309 1.293-.964 2.847-.575M392.874 348.48c-.096 1.181.765 6.658-.624 6.824l-.221-12.14c2.522.69.995 3.567.845 5.316M396.823 338.222c-.704 1.279-2.058 3.715-2.756 4.997-1.14-1.126-1.586-1.195-.988-2.73.923-2.383 1.693-3.753 3.744-2.267M385.62 331.764c1.885 1.053 3.611 2.334 5.46 3.441 2.75 1.644 1.95 2.718.844 5.544-5.819-5.779-12.109-11.248-18.698-16.104 4.257 2.158 8.308 4.83 12.393 7.119M403.016 332.044c.832.111 5.49-.549 5.693-.315-1.493 3.222-3.268 6.876-5.653 7.656-1.53.497-3.198-.699-4.513-1.93.936-1.558 2.413-5.683 4.473-5.41M386.24 330.66c-4.078-2.302-8.47-4.369-12.523-6.89 7.573 3.106 15.514 5.638 23.476 7.607-1.84 2.412-2.342 3.654-5.176 2.16-1.906-1.005-3.898-1.814-5.777-2.878M397 350.414c.465 2.11-1.48 3.412-2.82 4.665-.222-3.095-.85-6.265.32-9.26 1.002 1.412 2.117 2.864 2.5 4.595M408.088 330.69c-1.678.573-3.498.375-5.225.253 1.95-2.555 4.986-3.667 7.745-5.085-.373 1.797-.475 4.134-2.52 4.833M404.08 318.001c-.881.305-1.041 1.701-1.317 2.445-.792 2.134-1.688 3.869-3.138 5.622 1.896 1.602 4.922-5.531 5.06-6.749.07-.61.266-1.62-.605-1.318m-3.006-.958c-1.522-.762-4.453-1.742-5.01-.659-.558 1.082 2.145 2.977 3.833 4.391-.02.109-.056.169-.1.198-.502.774-2.75 2.83-1.142 3.084.907.143 2.349-2.168 2.645-2.776.43-.884.97-3.639-.226-4.238m2.828 9.249c-2.1 1.228-4.057 2.553-6.044 3.944-1.434-.171-2.176-.307-2.476-.408-5.343-1.102-10.686-3.591-15.591-5.621-3.45-1.424-7.201-2.351-10.541-4.024-1.908-.959-7.04-3.518-5.357-3.99 4.528-1.462 9.057-2.916 13.585-4.379.135 1.539.259 3.071.408 4.61.06.632 1.043 1.434 1.28.567.272-.968-.343-2.556-.336-3.606.01-1.099.156-2.192.43-3.258.52-2.018.75-6.185 3.714-5.42 1.384.354 2.45 1.302 3.876 1.596 1.323.274 2.11.451 3.286 1.135-1.112.67-2.235 1.334-3.325 2.047-1.183.782 1.138.496 1.35.412 1.325-.521 3.675-2.208 4.987-.97 1.937 1.824 2.568 1.011 4.584-.136 1.539-.877 2.372 1.993 2.979 2.895 1.352 1.988 3.182 3.463 4.943 5.06 1.34 1.215 3.942 3.542 4.018 5.509.062 1.52-4.617 3.359-5.77 4.037M404.292 328.17c-1.417 1.038-3.08 3.837-4.98 2.042 3.496-2.042 6.99-4.078 10.486-6.12.58 1.273-4.547 3.383-5.506 4.079M381.693 351.515c1.134.711 3.206-1.182 3.738-2.009.366-.569 1.591-3.002.998-3.702-1.053-1.243-1.64 1.747-2.042 2.579-.002.052-.034.114-.117.188-2.085-.709-5.109-2.033-5.744-.994-.635 1.039 1.725 3.034 3.167 3.938m2.381 2.071c.194.9.955.208 1.44-.168.97-.751 5.491-7.043 3.136-7.831-.744 2.15-1.76 3.817-3.172 5.602-.492.623-1.602 1.485-1.404 2.397m-7.319-23.979c4.283 3.135 9.187 6.407 12.905 10.399.241.204.743.767 1.634 1.904-.156 2.42-.27 4.78-.229 7.213.021 1.337.881 6.291-.45 7.028-1.72.957-5.06-.057-6.795-.57-2.279-.675-4.49-1.472-6.892-1.594-1.085-.05-3.97.729-4.02-1.041-.069-2.319.297-3.28-2.267-3.987-1.74-.478-1.52-3.362-1.762-4.764-.039-.226-1-2.357-1.054-.941-.043 1.302-.026 2.607-.02 3.905-1.197-.649-1.757-1.229-2.679-2.217-.992-1.066-2.356-1.484-3.378-2.483-2.194-2.135 1.248-4.496 2.701-5.989a13.683 13.683 0 012.56-2.061c.894-.551 2.57-.851 3.256-1.587.617-.653-.577-1.075-1.15-.798-1.393.672-2.766 1.362-4.15 2.046-1.103-4.628-2.215-9.253-3.318-13.881-.514-1.834 4.381 1.371 6.192 2.503 3.165 1.984 5.907 4.708 8.916 6.915M372.824 263.868c.526.49-.026 1.314-.184 1.78-.269.794-1.046 4.148-1.82 4.197-.002-1.961.075-3.738.49-5.66.146-.693 1.082-.72 1.514-.317M381.918 265.392c-.046.699-1.695 1.897-2.16 2.387-.277.292-1.235 1.734-1.78 1.57-.984-.326-1.836.199-2.667.65.096-.416.188-.673.266-.827.853-2.162 3.122-5.14 4.994-5.837.284-.106 1.375 1.629 1.347 2.057M379.313 260.359c.328 1.354-2.115 2.017-3.248 2.634-1.138.62-1.28 1.074-2.45.346l-1.508-.938c1.478-.887 2.814-2 4.351-2.79.776-.398 1.6-.706 2.462-.855.133.534.264 1.068.393 1.603M380.556 245.548c-1.873-.694-4.147-3.668-5.004-5.829-.078-.153-.17-.41-.267-.827.831.451 1.684.974 2.668.645.545-.164 1.505 1.277 1.782 1.568.466.49 2.117 1.685 2.164 2.384.03.427-1.059 2.164-1.343 2.06M371.294 244.714c-.418-1.922-.498-3.698-.5-5.66.775.048 1.558 3.4 1.828 4.194.158.466.711 1.29.187 1.78-.432.403-1.368.378-1.515-.314M379.304 248.526c-.128.535-.259 1.069-.391 1.604-.862-.148-1.686-.455-2.463-.852-1.538-.788-2.876-1.897-4.355-2.782l1.506-.94c1.169-.73 1.311-.277 2.45.34 1.134.616 3.578 1.275 3.253 2.63M390.403 272.41c-.9-.121-1.7 1.378-2.02 1.25-.068-1.525-.142-3.05-.215-4.576.815.113 1.63.228 2.444.342-.068.995-.14 1.99-.209 2.985M391.765 274.787c1.308 1.256 3 2.18 4.494 3.193-2.256-.249-4.317-1.14-6.126-2.459.005.034-.214-.122-.903-.705.766-2.096 1.335-1.182 2.535-.029M377.332 270.183c.342 1.974.682 3.948 1.015 5.923-.712.153-2.671-2.327-3.075-5.42.554-.375 1.382-.69 2.06-.503M383.413 273.69c1.02.22.766.805 1.05 1.6.391 1.088 3.06 3.225 2.888 4.263-1.513-.88-6.266-3.503-5.645-5.603.164-.575 1.348-.337 1.706-.26M385.033 270.854c-.432 1.31-.144 2.006-1.664 1.885-.58-.045-1.157-.093-1.736-.143.18-.747.258-1.522.573-2.233.48-1.09 1.117-2.1 1.688-3.145 2.02 1.23 1.883 1.38 1.139 3.636M380.127 255.197c-.02.003-.024.004.005-.002.544-.097.197-.034.042-.006 3.393-.598 8.64-.177 11.031 2.668 1.552 1.845 4.278 7.854 2.315 10.096-2.03 2.32-8.723-.823-10.22-2.74-.736-.944-5.363-9.576-3.173-10.016M375.245 238.205c.4-3.093 2.354-5.576 3.066-5.425-.33 1.976-.666 3.951-1.005 5.925-.677.188-1.506-.125-2.061-.5"/><path d="M400.863 271.16c-1.13.216-2.255-1.852-2.85-2.573-1.219-1.475-1.482-1.046-3.136-.452.841-5.071-1.185-11.335-6.417-13.137-.914-.32-1.857-.48-2.812-.56.955-.083 1.897-.245 2.811-.565 5.23-1.811 7.245-8.078 6.396-13.148 1.655.592 1.918 1.02 3.134-.457.594-.722 1.716-2.792 2.847-2.58 1.165.247 1.795 1.21 2.445 2.106l-1.576 1.229c-.978.763-1.89.784-1.026 1.957.795 1.079 1.537 2.209 2.36 3.267.656.848 1.587.157 2.453.078 3.626-.333.675 5.167-.559 2.535-.883 1.502 1.487 3.597 1.498 5.56-.008 1.964-2.375 4.063-1.489 5.563 1.23-2.633 4.19 2.862.563 2.535-.866-.078-1.798-.767-2.454.08-.82 1.06-1.56 2.192-2.354 3.273-.862 1.174.051 1.194 1.03 1.955l1.578 1.226c-.649.897-1.277 1.862-2.442 2.109M409.724 273.558c-1.439.526-3.387.224-4.834-.182a7.88 7.88 0 01-.096-.025c-.44-.13-.302-.09-.068-.023-1.117-.33-2.21-.733-3.314-1.104.85-.645 1.684-1.195 2.368-2.032.807-.988 1.334-.425 2.467-.102.854.243 2.525.134 3.225.679.657.51 1.328 2.396.252 2.789M401.383 236.625c1.103-.373 2.196-.778 3.312-1.11-.233.068-.371.107.068-.022.728-.21.42-.12.096-.026 1.447-.408 3.394-.714 4.834-.19 1.077.392.409 2.28-.247 2.79-.699.546-2.37.44-3.224.684-1.133.325-1.658.888-2.467-.098-.686-.836-1.52-1.384-2.372-2.028M385.006 238.021c.748 2.256.886 2.405-1.133 3.637-.572-1.043-1.21-2.052-1.693-3.142-.316-.71-.395-1.485-.577-2.232.579-.05 1.157-.099 1.736-.145 1.52-.123 1.233.573 1.667 1.882M421.724 261.125c3.207 2.814 5.064 6.412 2.695 10.573-1.866 3.28-7.69 5.5-10.985 3.111-3.89-2.79-3.533-8.12.077-10.79-.28 1.43-.794 3.104.327 4.322 1.061 1.155 2.778 1.433 4.21.966 3.322-1.083 4.475-4.988 3.676-8.182M390.588 239.44c-.815.116-1.63.233-2.443.347.07-1.526.142-3.052.207-4.577.319-.128 1.12 1.369 2.022 1.246.07.995.144 1.99.214 2.985M383.38 235.188c-.357.078-1.54.318-1.705-.258-.625-2.098 4.124-4.73 5.635-5.61.174 1.036-2.492 3.178-2.881 4.267-.284.795-.027 1.38-1.048 1.601M389.196 234.053c.688-.585.907-.74.902-.707 1.807-1.321 3.866-2.216 6.122-2.47-1.492 1.017-3.183 1.943-4.489 3.2-1.198 1.156-1.765 2.07-2.535-.023M413.4 234.02c3.293-2.394 9.12-.183 10.992 3.093 2.375 4.157.524 7.758-2.678 10.578.793-3.196-.366-7.1-3.69-8.176-1.432-.465-3.15-.184-4.208.972-1.12 1.22-.603 2.894-.32 4.324-3.614-2.665-3.98-7.995-.095-10.791"/><path d="M380.173 253.695a4.096 4.096 0 01-.047-.008c-2.19-.438 2.422-9.077 3.157-10.02 1.493-1.922 8.181-5.076 10.215-2.759 1.967 2.24-.749 8.252-2.298 10.1-2.387 2.848-7.633 3.278-11.027 2.686M365.135 195.253l-.695 2.371c-.482 1.65-.955 3.302-1.437 4.951-2.078-1.34-4.354-2.416-6.198-4.094 1.546-1.731 3.097-3.464 4.64-5.201l3.69 1.973M357.555 185.524l2.393.614-.189 4.18c-2.281.44-4.564.888-6.841 1.332-.501-2.443-.263-4.949-.354-7.419 1.664.428 3.326.865 4.991 1.293M355.65 197.96c-.443-.485-1.405-1.174-1.994-2.209-.589-1.035-.69-2.213-.88-2.842 1.716-.308 5.458-.758 7.585-.973-1.27 1.72-3.569 4.706-4.71 6.024M360.239 185.046c-2.28-.55-5.26-1.9-7.596-1.718.252-2.362.5-4.73.742-7.094 2.932.786 5.859 1.575 8.787 2.355l-1.933 6.457M372.761 197.197c-.825 2.916-1.64 5.835-2.463 8.757a1798.88 1798.88 0 00-6.479-2.985c1.35-1.915 1.71-5.167 2.403-7.408l6.54 1.636M369.131 169.667a107.405 107.405 0 017.697-5.755c.417.65.83 1.298 1.247 1.95-1.26 1.804-3.296 3.729-3.098 6.094.25 2.6.985 2.972-.716 5.164-1.278 1.638-2.667 2.71-3.568 4.651-.494 1.056.604 4.253-1.203 3.868-2.165-.44-4.18-1.67-6.165-2.594-1.85-.86.386-5.545.676-7.398.365-2.403 3.38-4.529 5.13-5.98M361.801 191.117c-.75-1.32-1.184-5.565.074-7.375.75 1.679 5.281 4.328 7.038 3.328-1.757 1-1.794 6.249-.734 7.75-2.198.157-5.627-2.383-6.378-3.703M377.99 198.241a9.236 9.236 0 004.167-.889c.007 1.348.431 10.278-.8 10.235-3.286-.137-6.24-.333-9.385-1.24-.05-.01-.099-.028-.153-.043-.045-.012-.094-.03-.148-.045-.538-.172 1.632-6.962 1.944-8.028.34-1.18 3.155-.01 4.375.01M383.145 198.553c-.087-1.888.559-1.541 2.197-2.162 1.153-.443 2.304-.878 3.46-1.316.699 2.71 2.77 5.294 3.864 7.938 1.088 2.633 1.115 3.416-2.08 3.836-2.58.342-5.177.53-7.764.778.15-3.02.474-6.045.323-9.074"/><path d="M363.945 173.56c-.606 1.059-1.038 4.078-2.226 3.767-1.076-.277-8.022-1.88-7.895-2.43.015-.054.024-.105.037-.15.014-.054.024-.105.042-.153.826-3.168 2.166-5.807 3.726-8.701.593-1.082 8.054 3.844 9.21 4.539a9.233 9.233 0 00-2.894 3.128M376.224 197.126c-1.741-.696-6.91-1.167-6.706-3.198.22-2.177.19-4.538.919-6.624.592-1.75 2.78.826 3.94.942 2.13.216 3.76-.43 5.822-.692 2.753-.343 2.697.48 4.806 2.022 1.93 1.378 4.626.612 6.82.45.349.691.693 1.376 1.04 2.068a107.252 107.252 0 01-8.88 3.677c-2.141.763-5.508 2.27-7.761 1.355"/><path d="M394.226 190.705c-2.35-2.98-3.242-6.34-8.023-5.594-2.461.39-4.944.648-7.407 1.046-.698.109-1.727.543-2.246-.195-.09-.132-1.581-2.338-1.673-2.286.092-.052-1.043-2.461-1.11-2.605-.37-.823.529-1.487.979-2.031 1.6-1.914 3.09-3.917 4.682-5.833 3.083-3.73.65-6.214-.71-9.755 2.317-.24 5.523.253 6.55.8.009.004.012.009.015.015.009.003.02.01.03.013a.12.12 0 00.043.022l.098.05c-.01-.002-.022-.01-.04-.015 3.379 1.892 5.348 5.886 7.234 9.227 1.909 3.328 4.337 7.06 4.237 10.932.005-.018.005-.033.007-.042l-.006.11a.13.13 0 00-.003.047c-.003.009-.002.024-.004.033.003.006.006.01.004.02-.053 1.163-1.267 4.17-2.657 6.04M398.814 184.28c1.96.359 4.095.853 6.017 1.386 1.62.445 3.526.789 3.176 2.63a22.389 22.389 0 01-.95 3.405c-.826 2.248-1.997 4.343-3.337 6.314-1.304-3.08-4.427-5.642-6.436-8.305-.424-.52.765-5.573 1.53-5.43M400.268 183.27c-1.982-.384-2.764-1.505-.844-2.605 2.144-1.227 4.427-1.835 6.812-2.357 2.409-.534 2.24 3.308 2.237 3.317-.002.024.02 2.838.019 4.146-2.74-1.063-5.324-1.932-8.224-2.501M398.369 202.967s-.017.01-.043.032l-.023.013c-.002.009-.008.012-.014.015l-.005.004a.12.12 0 00-.037.028l-.029.017a.204.204 0 01-.048.035c-.049.035-.1.079-.171.127-1.112.823-2.298 1.543-3.455 2.3-1.136-3.517-2.683-6.945-4.484-10.175-.642-1.17 1.698-1.476 2.575-1.952 1.532-.82 2.664-1.66 3.914-2.843 2.201 2.532 4.339 5.115 6.475 7.706.627.73-3.326 3.717-4.655 4.693M394.897 174.632c-.943-1.804.06-1.63 1.75-2.493 1.209-.612 2.413-1.221 3.619-1.84.602-.303 3.49-2.13 3.815-1.6.325.544.65 1.089.97 1.637.745 1.255 1.48 2.417 1.626 3.9.008.026.006.049.007.079.004.006 0 .015.004.02a.187.187 0 00.004.059c-.003.009.004.02 0 .03.117.777.309 1.542.57 2.282a29.993 29.993 0 00-9.501 3.4c-.918-1.84-1.917-3.65-2.864-5.474M386.585 162.79c-.268.73-5.221-.83-5.45-1.459-1.263-3.088-1.871-7.08-3.853-9.775 2.38-.146 4.779-.083 7.133.356 1.156.216 2.297.524 3.413.922 1.76.64 1.084 2.453.639 4.075a71.785 71.785 0 01-1.882 5.88M367.34 158.506c1.713 2.292 2.877 5.39 4.85 7.376-.967.77-1.929 1.538-2.899 2.303-1.37 1.09-1.402 1.823-2.98.784-2.528-1.677-5.294-2.945-7.967-4.357 1.535-2.097 3.023-4.235 4.635-6.277 1.993-2.532 2.652-2.11 4.36.17M375.578 163.437c-.857.51-2.316 2.366-2.993 1.217-1.858-3.198-4.014-6.28-6.458-9.053 1.242-.608 2.467-1.259 3.743-1.795.077-.037.141-.058.196-.082a.209.209 0 01.055-.024l.03-.016a.116.116 0 00.042-.017l.006-.003c.006-.003.011-.007.021-.004l.023-.013c.031-.01.05-.02.05-.02 1.517-.644 6.104-2.518 6.411-1.605 1.136 3.16 2.265 6.317 3.317 9.502-1.655.47-2.956 1.014-4.443 1.913M399.345 168.681c-1.147.721-2.286 1.445-3.43 2.172-1.604 1.012-1.967 1.963-3.036.231-1.085-1.746-2.131-3.529-3.244-5.259 2.94-1.68 5.562-3.872 7.776-6.43 0 0 2.334 1.617 4.347 5.154.167.293.61 1.112.912 1.67.29.55-2.756 2.1-3.325 2.462M390.004 164.11c-1.926 1.089-2.49-.155-1.808-2.055.992-2.783 1.564-5.45 2.05-8.348 1.125.668 3.534 2.123 3.555 2.134.009.003 3.399 1.82 1.709 3.617-1.667 1.785-3.356 3.437-5.506 4.653M328.803 144.725c.867-.703 1.892-1.6 3.19-2.335 1.012-.573 2.226-1.057 3.295-1.514 4.964-2.126 9.374-5.372 11.725-10.333 1.248-2.632 2.306-4.465 2.279-7.5-.021-2.276-.55-4.755-1.43-6.852-.926-2.207-2.802-4.636-4.821-5.939-1.441-.93-5.537-1.654-4.542-2.584 2.237-2.09 8.486 4.252 9.869 7.294 2.48 5.453 2.646 10.535-.135 15.91-2.89 5.584-7.496 8.877-13.13 11.521-2.344 1.102-4.536 2.27-6.52 3.963-1.725 1.472-2.603 3.182-3.765 4.965-.503-2.53 2.155-5.114 3.985-6.596M307.052 125.788c-.391-6.21.28-11.833 3.786-17.053 3.374-5.022 7.908-7.322 13.882-7.77 3.332-.25 11.899 2.176 11.142 5.143-.336 1.32-2.942-1.924-4.45-2.74-2.113-1.143-5.146-1.619-7.526-1.369-2.262.237-4.69.966-6.694 2.042-2.674 1.436-3.772 3.246-5.48 5.606-3.218 4.448-3.943 9.875-3.418 15.25.113 1.157.273 2.454.258 3.617-.02 1.492-.314 2.822-.513 3.92-.42 2.318-1.405 5.891-3.866 6.667 1.004-1.877 2.08-3.469 2.542-5.69.53-2.553.5-5.037.337-7.623"/><path d="M334.268 110.253c-.85 1.454-1.523 3.007-2.459 4.414-.034.056-.07.104-.103.161-.466-3.169-2.065-4.837-5.319-5.458-2.454-.467-4.981-.584-7.311.202a18.384 18.384 0 00-2.475 2.071c.425-.218.872-.433 1.34-.673 2.984-1.526 8.862-1.745 11.433.835.676.685 1.066 3.66 2.297 4.39 1.232.73 4.028-.362 4.954-.098 3.499 1.013 6.134 6.272 6.231 9.621.018.61.048 1.177.057 1.724.291-1.057.514-2.183.634-3.338-.422-2.442-1.749-4.619-3.35-6.56-2.111-2.554-4.342-3.153-7.344-2.037.034-.057.058-.11.092-.168.821-1.57 1.921-2.964 2.81-4.492a21.026 21.026 0 00-1.487-.594m-8.349 19.108c-.507 1.466-1.34.766-2.196.26-.855-.506-1.868-.9-.828-2.049.589-.657 4.05-5.777 4.484-7.6.722-2.995-2.372-1.074-4.009-2.212-.844-.584-2.218-3.254-3.49-2.35 1.39 2.62 3.687 4.132 6.709 3.757-1.541 4.727-4.671 7.827-5.202 8.724-.531.897.692 1.828 1.867 2.523v.001c1.175.695 2.579 1.32 3.11.422.532-.897 1.744-5.132 5.146-8.757 1.126 2.83 3.557 4.116 6.521 4.075.181-1.55-2.821-1.47-3.739-1.93-1.785-.887-1.589-4.524-3.868-2.45-1.389 1.257-4.212 6.755-4.505 7.586m-8.838 2.082c-.312.797 2.788.753 4.648 1.547 1.591 1.25 3.044 3.988 3.592 3.331.549-.657-1.48-2.9-3.232-3.938-1.753-1.038-4.696-1.737-5.008-.94m3.04 4.263l.001.001c.669.296 2.631 1.09 2.844.003-.774-.274-1.649-.416-2.384-.782-.674-.468-1.22-1.167-1.832-1.714-.85.71.79 2.048 1.371 2.492m31.696-2.166c-2.194 3.421-4.934 6.404-8.309 8.696-3.002 2.038-6.853 3.073-9.546 5.47-1.289 1.14-2.806 2.161-3.723 3.644-.878 1.406-.876 3.165-1.096 4.77-2.118-2.283.749-5.934 2.455-7.48 2.654-2.397 5.409-3.667 8.45-5.42 5.622-3.25 11.869-7.917 12.935-14.76.972-6.233.31-13.087-4.043-17.973-2.123-2.377-4.664-3.736-7.652-4.86-1.286-.485-1.944-.774-2.787.468-.807 1.196-1.543 2.127-1.747 3.587 9.107 2.144 9.778 14.3 6.143 21.594-2.35 4.695-6.664 7.33-11.243 9.607-1.906.951-3.946 2.361-5.535 3.776-1.82 1.61-2.789 3.207-4.229 5.095-.793-3.47 5.135-6.937 7.416-8.534 3.48-2.445 7.21-4.143 10.45-6.945.25-.265.705-.947 1.216-1.915-1.082.706-2.519.898-3.739 1.327-1.742.611 1.011-2.265 1.5-3.103 1.185-2.016 4.259-5.407.877-8.82-.718-.733-3.345-2.234-4.258-2.675-.467-.223-1.876-1.318-2.438-.706-.486.55.127 1.264.588 1.522 1.24.68 5.144 2.308 5.85 3.617.236.431 1.189 1.61 1.111 2.077-.143.76-.768 1.61-1.138 2.273-.357.602-1.653 2.184-2.193 2.862-3.398 4.29-4.988 6.25-10.064 8.432-2.096.908-4.589 2.41-6.95 2.225-.654-.049-2.161-.719-2.812-.928-.497-.47-1.809-1.469-2.166-2.019-1.299-1.98-1.181-4.889-1.393-7.163-.528-5.5.426-7.837 2.551-12.88.335-.799 1.097-2.696 1.454-3.299.404-.643.848-1.6 1.445-2.09.373-.295 1.864-.026 2.356-.026 1.487-.01 4.792 2.63 5.984 3.388.448.281 1.37.474 1.618-.216.266-.787-3.078-2.505-3.498-2.807-.825-.589-1.7-1.16-2.687-1.437-4.62-1.323-6.114 3.003-7.31 5.012-.501.832-1.697 4.63-2 2.807-.197-1.193-.661-2.453-.64-3.665a38.295 38.295 0 00-1.088 1.736c-.899 4.19-.593 8.276-1.062 12.503-.303 2.768-.491 9.632-3.915 10.607.963-2.17 1.898-3.789 2.433-6.158.476-2.075.731-4.54.648-6.67-.206-5.11.028-10.16 3.013-14.478 4.647-6.696 15.627-11.955 21.887-5.003 1.182-.88 1.644-1.973 2.304-3.256.684-1.337.114-1.774-.93-2.669-2.423-2.078-4.837-3.653-7.942-4.37-6.378-1.466-12.705 1.25-17.701 5.101-5.487 4.226-6.574 11.948-6.718 18.44-.074 3.51.138 6.536-.687 10.016-.535 2.24-2.356 6.51-5.376 5.75 1.3-.965 2.843-1.809 3.654-3.255.859-1.517 1.024-3.338 1.404-5.017.806-3.514-.139-7.389.203-11 .386-4.062 1.682-7.899 3.626-11.468 1.793-3.314 5.088-5.224 8.258-7.053 3.177-1.827 6.49-2.835 10.154-2.685 4.21.174 6.819 1.42 10.269 3.707l7.854 4.65c3.665 1.923 6.012 3.611 8.189 7.218 1.895 3.14 2.605 6.53 2.531 10.194-.079 3.66-.168 7.467-2.211 10.632M178.351 159.613c-1.558.414-6.34 1.915-7.063-.64-.866-3.064.77-3.249 3.241-3.653.61 2.068 1.734 3.588 3.822 4.293M170.203 159.94c-3.505-1.745-7.962-4.676-6.501-9.199.996-.245 1.462-.796 1.953.246.2.423.43.837.683 1.23.636.992 1.465 1.854 2.472 2.477.887.547 1.48.245 1.189 1.408-.13.484-.216.982-.257 1.483-.03.493.6 2.187.46 2.355M182.392 152.994c.462 3.051-3.24 7.85-5.867 4.132-1.06-1.487-.32-3.05.828-4.235.92-.94 3.457.669 5.039.104M172.607 133.505c1.812.606 4.402.887 6.934.665 2.53-.235 5.029-.977 6.703-1.898.194.436-.378 1.388-.45 1.959-.107.88-.982 1.71-1.214 2.576-.206.745-1.13 2.064-1.693 2.705-.732.147-1.386.46-2.132.658-1.455.399-2.993.14-4.18-.696a4.673 4.673 0 01-1.518-1.806c-.383-.81-1.393-1.47-1.656-2.316-.174-.55-.907-1.384-.794-1.847M162.948 149.617c-2.94.868-6.17-1.473-6.69-4.276-.336-1.801-1.346-3.486-.97-5.365.273-1.316 1.193-2.262 1.902-3.357.767 1.204.95 2.547 1.898 3.759 1.277 1.617 2.883 2.695 4.686 3.675 1.429.771 3.164 1.614 2.51 3.598-.292.883-2.495 1.722-3.336 1.966M158.091 123.1c.963 1.036 1.833 2.206 2.938 3.1.697.563 1.934.582 2.764.898 1.677.625 4.045.715 4.407 2.725-4.784-.443-9.028-1.432-10.109-6.724M171.487 135.413c.613.398.911 1.073 1.444 1.546-4.879-.323-8.187-1.197-11.708-4.76 2.44 1.22 4.58 1.958 7.212 2.633.948.25 2.208.036 3.052.581M191.901 118.956c2.142-1.578 3.94-3.126 5.298-5.41.136 4.316-4.464 6.459-7.52 8.635-.197-2.298.516-1.972 2.222-3.225M158.47 117.048c1.745 2.003 3.791 3.203 6.182 4.372 1.903.926 2.546.477 2.766 2.774-3.398-1.594-8.308-2.876-8.949-7.146M190.585 132.83c2.468-1.137 5.089-2.799 7.147-4.643-2.232 4.58-6.446 6.348-11.188 7.541.439-.56.611-1.279 1.143-1.78.733-.687 2.01-.703 2.898-1.119"/><path d="M179.448 133.141c-.8.078-1.6.095-2.388.029-3.01-.255-6.64-.498-7.43-4.072-.157-.712-.12-1.461.06-2.166.307-1.208.953-.658 1.97-.514 1.85.267 3.72.539 5.574.092a13.3 13.3 0 001.57-.489c.543.1 1.09.168 1.633.2 1.903.107 3.693-.496 5.465-1.09.977-.325 1.513-.982 2.032.151.302.662.474 1.392.446 2.121-.135 3.657-3.662 4.547-6.577 5.339-.764.205-1.554.333-2.355.399M179.008 151.76c-1.253-.948-.842-3.27-.31-4.517.596-.078 3.42-.918 3.846-.335.658.897.725 2.735.468 3.739-.435 1.71-2.651 2.14-4.004 1.114M179.028 146.151c-1.56-.635-1.81-3.395-1.329-4.742 1.688-.01 3.213-.378 4.864-.738.603 1.864 1.053 2.724-.108 4.37-.616.881-2.363 1.548-3.427 1.11M171.07 134.097c-2.219-.5-4.655-.802-6.793-1.578-1.74-.625-2.993-2.052-4.194-3.39 2.268 1.112 4.613 1.23 7.085 1.508 1.851.211 3.267 1.592 3.902 3.46M187.733 114.203c.617-.522 1.22-1.073 1.83-1.606.456.306.906.614 1.355.914-.968 1.106-1.942 2.213-2.91 3.32-.91-1.21-1.538-1.55-.275-2.628M193.373 107.968a.292.292 0 01.067.05c.935.598-1.489 3.929-1.839 4.525-.421-.253-.841-.507-1.261-.755 1.009-1.277 2.024-2.55 3.033-3.82M197.779 125.72c-.942 1.533-1.92 3.16-3.518 4.088-1.964 1.147-4.307 1.88-6.4 2.77.289-1.95 1.435-3.562 3.218-4.103 2.382-.718 4.668-1.254 6.7-2.754M189.918 127.86c-.005-2.043 2.31-2.556 3.847-3.471.76-.46 1.973-.7 2.558-1.38.927-1.078 1.572-2.384 2.334-3.577-.114 5.4-4.112 7.134-8.739 8.428M193.089 99.263c3.732 4.537.926 7.902.899 8.016-1.064-.226-1.028-7.036-.899-8.016M164.642 115.887c.388-.377.776-.759 1.17-1.143.695.416 1.387.85 2.088 1.252 1.435.833.88 1.281.201 2.634-1.15-.915-2.308-1.829-3.459-2.743M161.177 110.935c.01-.02.034-.04.057-.061 1.22 1.07 2.446 2.138 3.667 3.214-.368.319-.736.644-1.104.969-.45-.524-3.434-3.365-2.62-4.122M158.974 97.428c-1.33-2.76.64-8.086 2.879-9.847.812-.639 6.776-4.04 7.41-2.508-2.568 2.076-4.94 3.93-5.89 7.24-.551 1.93-.606 3.177 1.853 2.694 1.543-.307 3.01-1.185 4.423-1.84-1.028 3.061-1.771 6.512-5.363 7.377-3.076.738-4.221-.874-5.312-3.116M160.505 110.306c-.047-.108-3.412-2.914-.554-8.047.303.941 1.56 7.633.554 8.047M188.517 98.353c-3.692-.14-5.039-3.469-6.599-6.296 1.507.391 3.107.992 4.681 1.017 2.506.035 2.228-1.182 1.339-2.984-1.528-3.084-4.194-4.483-7.094-6.065.35-1.62 6.828.656 7.741 1.14 2.517 1.33 5.245 5.79 4.432 8.745-.671 2.402-1.685 4.551-4.5 4.443"/><path d="M181.109 125.278a13.993 13.993 0 01-2.387-.169 13.97 13.97 0 01-2.32.594c-2.16.345-6.95.455-7.506-2.4-.353-1.844.096-3.474.916-5.12.925-1.853 1.083-1.613 3.146-1.396.533.058 2.848.246 5.026.161 2.158-.307 4.4-.908 4.915-1.06 1.99-.583 2.103-.848 3.346.81 1.102 1.471 1.836 2.994 1.819 4.871-.035 2.91-4.767 3.66-6.955 3.71"/><path d="M180.087 115.696c-.745.21-1.45.38-2.174.47-.73.04-1.454 0-2.224-.072-1.673-.166-4.068.125-5.187-1.394-2.358-3.215-.12-7.174 2.496-9.205.204.95.084 2.507 1.3 2.633.39.039 1.963.077 2.893.06.918-.15 2.46-.47 2.836-.578 1.173-.342.776-1.852.806-2.824 2.94 1.529 5.85 5.023 4.107 8.608-.828 1.696-3.237 1.839-4.853 2.302M106.02 198.894l-4.723.555c.115-.24.233-.504.353-.768.307-.678.625-1.381.86-1.674.24-.298 2.261-1.337 3.95-1.79.773-.206 1.391-.267 1.728-.211 1.09 1.189 1.298 5.507 1.11 5.965-.14.349-.597.97-1.037 1.57-.172.235-.344.469-.497.688z"/><path d="M101.607 200.32c.071-.02.143-.031.22-.037.714-.044 1.454-.153 2.171-.258.47-.07.942-.14 1.412-.192.185.435.357.879.527 1.324.261.676.53 1.375.841 2.02.463.964-.595 2.32-1.368 3.31-.146.186-.282.36-.4.522-.357-1.076-.555-2.227-.749-3.343l-.244-1.426-1.397.483c-.78.278-1.586.564-2.392.78a12.62 12.62 0 01-.87.203c.08-.181.166-.386.256-.603.445-1.07 1.054-2.531 1.993-2.783M154.945 189.473c-.69 1.556-2.204 2.717-4.27 3.27-2.866.769-6.322.23-8.37-1.225l-1.778.157c-4.736.44-9.632.894-14.505 1.204-2.905.187-5.858.269-8.784.35a308.44 308.44 0 00-6.774.238c-.257.476-.511.945-.77 1.428-.374-.291-1.621-1.023-2.087-1.22.257-.402.503-.795.755-1.194a295.533 295.533 0 00-3.284-6.357c-1.344-2.543-2.733-5.174-4.01-7.82-2.116-4.381-4.117-8.851-6.054-13.18l-.704-1.606c-2.065-1.074-4.021-3.517-4.833-6.15-.695-2.25-.472-4.3.626-5.771.774-1.041 1.96-1.876 3.093-2.18.995-.266 1.912-.12 2.653.42 1.317.964 1.615 2.312.929 4.227-.674-1.698-2.081-2.168-3.232-1.86-1.341.36-2.471 1.786-2.033 3.818.799 3.676 4.97 5.796 8.215 5.4.856-.103 1.706-.288 2.529-.47.969-.212 1.97-.43 2.98-.513a47.586 47.586 0 016.506-.103c3.675.202 8.203 2.174 11.048 4.804-.066.132-.154.324-.258.55-.41.9-1.265 2.769-1.825 2.919h-.001c-.42.038-1.428-.885-2.097-1.495-.351-.322-.655-.6-.846-.725-2.458-1.62-4.85-2.673-7.11-3.131-3.025-.608-5.762-.37-8.04-.058-.658.092-1.34.242-2.06.4-1.584.348-3.211.699-4.693.449l.257.587c1.93 4.316 3.929 8.778 6.038 13.144 1.266 2.626 2.65 5.247 3.992 7.787.988 1.87 1.992 3.794 2.965 5.726 3.89-6.202 7.235-11.924 10.175-17.418.868-1.618 1.88-3.193 2.862-4.715 1.123-1.746 2.285-3.551 3.238-5.438a83.412 83.412 0 012.44-4.52c.295-.496.568-.765.86-.843.245-.066.515 0 .835.205.32.169.508.365.574.6.086.295-.013.67-.308 1.183a82.036 82.036 0 01-2.74 4.346c-1.173 1.758-2.175 3.657-3.144 5.494-.844 1.6-1.72 3.257-2.7 4.809-3.311 5.212-6.621 10.873-10.073 17.229 2.093-.093 4.194-.151 6.142-.204 2.846-.08 5.788-.16 8.672-.346 4.854-.31 9.743-.763 14.472-1.202l.728-.064c-.864-1.15-1.336-2.663-1.79-4.141-.215-.707-.42-1.374-.664-1.994-.846-2.137-1.983-4.638-4-6.975-1.508-1.743-3.601-3.31-6.217-4.654-.204-.104-.595-.233-1.046-.38-.86-.281-2.157-.707-2.331-1.091-.216-.463 1.04-2.197 1.644-3.028.145-.202.269-.372.35-.494 3.688 1.186 7.628 4.16 9.61 7.263a47.71 47.71 0 013.107 5.717c.425.922.728 1.907 1.019 2.857.247.802.502 1.63.83 2.427.7 1.693 2.209 3.244 4.037 4.092l.096-.008.005.05c1.36.609 2.889.83 4.394.427l.209-.06c1.989-.618 2.674-2.304 2.324-3.652-.298-1.15-1.398-2.141-3.205-1.894.704-.816 1.392-1.305 2.096-1.494.654-.175 1.32-.101 2.04.226 2.214 1.005 2.079 4.097 1.29 5.87M133.589 160.079l.03.118-.031-.118c-.311.084-1.892-1.208-2.567-1.761l-.354-.287a4.95 4.95 0 00-1.253-.731l-.417-.164c-.685-.267-2.773-1.082-2.802-1.377-.065-.863 3.45-2.866 5.708-3.471.631-.168 1.113-.216 1.342-.17.821.82 1.201 4.766.842 6.823-.151.858-.377 1.08-.498 1.138M66.9 230.232c-.022-2.467.171-4.868.403-7.32l4.083 6.365c-.926 1-4.465 3.74-4.486.955M88.655 263.735c2.584 3.532.946 6.132-1.83 8.854-.01-1.756-.82-3.94-1.899-5.294-1.143-1.46-3.308-2.401-4.836-3.386 2.911-1.108 6.247-3.341 8.565-.174M68.91 237.89c-1.463.035-1.516-3.544-1.592-4.462-.109-1.327 1.16-.915 2.253-1.336.893-.344 1.727-.889 2.269-1.695 1.461 1.46 4.113 2.82 2.561 5.042-1.141 1.631-3.63 2.375-5.49 2.45"/><path d="M71.504 243.146c-1.234-1.11-2.039-2.633-2.615-4.196 3.385-.801 6.315-1.407 6.764-5.233.936.75 1.813 1.57 2.821 2.23.006.007.02.014.026.02 3.796 2.46-4.65 9.298-6.996 7.179"/><path d="M82.014 247.01c-3.799 2.467-5.818.036-8.938-2.351 4.01-.761 7.398-2.72 7.361-7.243 1.534.835 3.692 2.024 4.7 2.533 2.738 1.358-1.833 6.225-3.123 7.062M90.735 272.674c.202.098.338.163.423.202.013.007.032.013.045.026h.007c.006 0 .02.007.026.014h.006l.007.006h.013c1.34.647 2.724 1.222 4.234 1.277-.816 1.704-2.608 2.846-4.198 3.734-2.032 1.149-3.714 2.753-5.714 3.94-.094-1.893.443-3.695 1.396-5.32.613-1.054 2.234-4.63 3.755-3.88M85.078 273.386c-1.01.506-3.172 1.686-4.71 2.517.054-4.523-3.327-6.495-7.334-7.27 3.128-2.376 5.156-4.8 8.946-2.32 1.287.842 5.84 5.724 3.098 7.073M71.289 284.009c-1.37 2.119-2.734 4.232-4.105 6.35-.223-2.453-.408-4.855-.377-7.321.03-2.785 3.56-.033 4.482.97M74.326 277.858c1.545 2.229-1.113 3.577-2.58 5.033-.538-.808-1.37-1.356-2.261-1.703-1.093-.425-2.363-.017-2.25-1.345.08-.917.145-4.496 1.609-4.455 1.86.082 4.346.835 5.482 2.47"/><path d="M78.427 277.344c-.007.007-.02.013-.026.02-1.01.655-1.89 1.473-2.828 2.22-.436-3.827-3.364-4.444-6.746-5.257.582-1.56 1.39-3.082 2.63-4.187 2.353-2.11 10.775 4.757 6.97 7.204M126.878 259.117c-.405 1.02 1.422 1.968 2.033 2.457-2.246.32-4.4.806-6.659.509 1.168-1.488 1.243-3.545 1.26-5.347-.01-1.803-.079-3.86-1.24-5.352 2.258-.29 4.411.203 6.656.532-.613.487-2.443 1.428-2.04 2.45.348.886 3.18 1.203 3.985 1.406 1.217.302 2.531.474 3.266.982-.737.507-2.052.674-3.269.97-.807.2-3.639.508-3.992 1.393M88.68 249.613c-2.329 3.159-5.657.914-8.564-.204 1.531-.98 3.7-1.913 4.848-3.37 1.083-1.351 1.901-3.53 1.916-5.286 2.767 2.73 4.396 5.337 1.8 8.86M91.306 240.435l-.007.006h-.006a.049.049 0 01-.026.013h-.007c-.013.013-.032.02-.045.026a30.64 30.64 0 00-.424.2c-1.524.747-3.13-2.835-3.74-3.89-.949-1.63-1.479-3.433-1.378-5.326 1.996 1.194 3.672 2.804 5.7 3.96 1.587.894 3.374 2.043 4.185 3.75-1.51.049-2.897.619-4.239 1.26z"/><path d="M120.035 253.697c-.403-.131-.682-.652-1.046-.959-.28-.241-.565-.58-.989-.19-.424.39-.118.631.155.885.675.626 1.84 1.786 2.463 1.664.623-.121.269-1.125-.583-1.4m-2.05 7.206c.422.392.709.054.99-.186.365-.306.646-.826 1.049-.955.853-.272 1.211-1.275.588-1.399-.622-.123-1.791 1.032-2.469 1.656-.274.253-.58.493-.158.884m-9.774-11.456c-.524-2.929-4.464-6.474-7.608-3.928-.202-.201-.282-.316-.295-.373-.598-.875-1.325-2.516-1.996-2.613-.959-.139 1.069 3.428 1.367 3.863 2.998 4.384 13.231 6.247 13.789 5.033.495-1.074-5.08-.99-5.257-1.982m-9.949 21.402c.671-.095 1.404-1.733 2.005-2.606.013-.057.094-.172.296-.372 3.135 2.557 7.088-.974 7.622-3.901.181-.992 5.756-.888 5.265-1.964-.555-1.215-10.794.611-13.808 4.985-.299.433-2.34 3.993-1.38 3.858m20.153-6.554c-3.063 2.194-6.125 4.408-9.577 5.957-3.263 1.466-6.948 2.39-10.502 2.689-1.1.089-9.52-.771-8.13-2.709.006-.006.013-.013.013-.019 1.416-2.015 1.254-4.899.053-6.87-1.427-2.343-2.947-1.94-3.874-3.563-.189-.325-.799-2.116-.784-3.112-.012-.995.605-2.784.795-3.109.933-1.619 2.451-1.211 3.887-3.549 1.207-1.966 1.379-4.85-.029-6.87 0-.007-.007-.013-.013-.019-1.383-1.942 7.04-2.773 8.14-2.68 3.552.312 7.234 1.249 10.492 2.725 3.447 1.562 6.501 3.787 9.556 5.992 2.444 1.761 4.165 3.68 4.158 7.576-.007 3.895-1.735 5.808-4.185 7.561M248.898 88.428c0-.865-.043-1.701-.064-2.56-.004-.337-.094-.767.073-.99.14-.184.624-.318 1.111-.315.488.004.97.144 1.107.33.164.225.068.654.06.99-.033.859-.086 1.695-.099 2.56-.026 1.948-.059 3.946-.092 5.894-.02 1.09-.147 2.172-.147 3.255.003 2.457-.189 20.07-.166 22.515-.182.174-.513.216-.903.213-.389-.003-.719-.05-.899-.225.056-2.443.1-20.06.136-22.515.014-1.083-.098-2.167-.104-3.257-.007-1.948-.013-3.947-.013-5.895M248.602 121.587c.14-.41.28-.428.722-.372.165.02.733.025.897.006.443-.05.582-.03.718.382.194.556.395 1.125.702 1.622.974 1.592 2 3.157 3.013 4.743-1.647.43-3.978.528-4.93.522 0 0-3.281-.135-4.922-.588 1.034-1.572 2.08-3.124 3.076-4.702.314-.493.522-1.06.724-1.613"/><path d="M268.51 90.189c-.842 1.707-1.71 3.446-2.57 4.954 3.024-.14 5.786-.244 8.836-.426l.124-.011c-.658-1.47-1.256-3.183-1.832-4.864-.58-1.686-1.173-3.418-1.833-4.898-.92 1.595-1.834 3.445-2.724 5.245m-41.35-.66c-.573 1.713-1.17 3.46-1.872 4.973 3.218.234 6.148.384 9.354.576-.861-1.504-1.761-3.203-2.706-4.992-.984-1.863-1.996-3.78-2.958-5.445-.68 1.492-1.256 3.213-1.817 4.888m47.047-.08c.614 1.79 1.25 3.615 1.948 5.1l.693-.106c-.144 4-2.772 6.59-4.696 7.143-1.19.35-2.514.708-3.7.533-1.8-.267-3.25-1.393-4.075-3.095-.558-1.151-.723-2.78-.5-3.95.244.028.456.049.666.066.947-1.581 1.89-3.475 2.884-5.486 1.087-2.198 2.21-4.472 3.353-6.304l.142-.227c-.277-.114-.516-.324-.711-.562-.14-.168-.233-.433-.27-.731H251.62c-.408.672-1.033 1.258-1.6 1.254-.561-.003-1.17-.585-1.57-1.254h-18.295c-.044.203-.11.387-.214.51a2.166 2.166 0 01-.618.514l.123.204c1.145 1.893 2.37 4.216 3.558 6.464 1.074 2.032 2.089 3.947 3.046 5.573.23-.015.472-.037.742-.064.222 1.256.022 2.999-.592 4.225-.91 1.812-2.48 2.997-4.411 3.258-1.274.17-2.688-.232-3.958-.625-2.054-.62-4.834-3.432-4.93-7.721.433.07.796.132 1.124.185.743-1.51 1.355-3.303 1.993-5.208.705-2.105 1.433-4.281 2.379-6.057l.056-.106c-.341-.08-.713-.306-1.113-.765-1.116-1.281-.29-2.752 1.293-2.752.78 0 1.246.535 1.452 1.157h17.94c-.002-.054-.015-.113-.012-.163.04-.693.472-1.83 2.037-1.82 1.565.012 1.982 1.154 2.012 1.847.002.042-.01.09-.012.136h18.102c.23-.424.646-.746 1.326-.746 1.722 0 2.243 1.412 1.179 2.6-.342.383-.658.58-.952.67l.126.246c.897 1.74 1.65 3.935 2.378 6.057"/></g></g></svg>