<svg xmlns="http://www.w3.org/2000/svg" width="345" height="241"><defs><marker id="c" refX="0" refY="0" orient="auto" overflow="visible"><path d="M2.308 0l-3.46 2v-4z" fill-rule="evenodd" stroke="#000" stroke-width=".4pt"/></marker><marker orient="auto" refY="0" refX="0" id="e" overflow="visible"><path d="M2.308 0l-3.46 2v-4z" fill="#00f" fill-rule="evenodd" stroke="#00f" stroke-width=".4pt"/></marker><marker id="d" refX="0" refY="0" orient="auto" overflow="visible"><path d="M2.308 0l-3.46 2v-4z" fill="#00f" fill-rule="evenodd" stroke="#00f" stroke-width=".4pt"/></marker><marker id="b" refX="0" refY="0" orient="auto" overflow="visible"><path d="M4.616 0l-6.92 4v-8z" fill-rule="evenodd" stroke="#000" stroke-width=".8pt"/></marker><marker orient="auto" refY="0" refX="0" id="a" overflow="visible"><path d="M4.616 0l-6.92 4v-8z" fill-rule="evenodd" stroke="#000" stroke-width=".8pt"/></marker></defs><path d="M124.772 175.678h107.896" fill="none" stroke="#000" marker-end="url(#a)"/><path d="M139.176 190.72V82.823" fill="none" stroke="#000" marker-end="url(#b)"/><path d="M64.769 48.384l201.372 171.381" fill="none" stroke="#000"/><path d="M135.176 99.849h8m-8 15h8m-8 15h8m-8 15h8m-8 15h8m72 11.83v8m-15-8v8m-15-8v8m-15-8v8m-15-8v8" fill="none" stroke="#000" stroke-linecap="round"/><path d="M133.114 75.063q1.478-2.805 1.478-3.395 0-.398-.299-.606-.041-.024-.133-.074-.315-.191-.415-.399-.108-.224-.108-.564 0-.498.44-.78.258-.166.54-.166.63 0 .921.523.141.257.141.564-.008 1.287-1.286 3.852-1.395 2.78-2.947 4.598-1.228 1.428-2.258 1.718-.299.083-.59.083-.746 0-1.053-.49-.133-.223-.133-.497 0-.482.365-.797.233-.191.49-.191.431 0 .888.315.365.25.548.283.075.016.141.016.39 0 .872-.506.639-.68.705-1.536.008-.083.008-.158 0-.788-.855-4.79-.299-1.385-.598-1.784-.273-.34-.755-.34v-.457l2.548-.406q.714 1.859 1.121 4.656l.183 1.328zM238.777 179.19l2.806-.408q.473.631.73 1.976.017.083.042.24l.025.125q.091-.116.307-.431.73-1.046 1.203-1.445.548-.465 1.063-.465.63 0 .938.465.166.25.166.548 0 .457-.382.747-.232.175-.49.175-.298 0-.614-.191-.265-.15-.49-.15-.406 0-1.12 1.005-.224.315-.39.597l.54 2.665q.149.772.48.88.067.025.142.025.373 0 .971-.78.025-.034.075-.092.066-.1.1-.133l.356.24q-.68.914-.946 1.196-.822.872-1.635.88-.864 0-1.295-1.228-.158-.474-.34-1.412l-.407.665q-.058.09-.175.298-.53.88-.88 1.212-.506.465-1.095.465-.772 0-1.038-.531-.108-.208-.108-.457 0-.564.399-.846.207-.141.456-.141.357 0 .714.215.257.158.44.158.34 0 .648-.498.024-.025.058-.091.041-.067.058-.092l.747-1.203-.498-2.59q-.233-1.162-.897-1.17-.382 0-.664.033zM273.913 220.392l1.942-4.872q-1.411-.108-2.183-1.013-.772-.905-.515-2.175.067-.34.283-.764h.44q-.208.399-.283.74-.216 1.078.432 1.834.647.747 1.984.98l.091-.233q.83-2.059 2.316-3.27 1.486-1.22 3.17-1.22.79 0 1.205.414.423.415.29 1.08-.232 1.161-1.834 2.207-1.602 1.038-3.628 1.345l-.921 2.324q-.067.158-.424.955l-.406.896q-.208.465-.664 1.196l1.519.53q1.61.574 2.407.574 1.386 0 2.49-1.852l.282.092q-.639 1.278-1.726 2.208-1.088.93-1.95.93-.906 0-2.533-.714l-.647-.283-.847-.332q-1.834 1.328-3.56 1.328-.939 0-1.404-.381-.464-.39-.332-1.063.158-.788.98-1.253.83-.473 2.058-.473.814 0 1.968.265zm3.86-5.329q1.585-.29 2.623-1.07 1.037-.79 1.245-1.852.116-.556-.1-.896-.216-.34-.68-.34-1.428 0-2.79 3.411zm-4.475 6.442q-1.286-.665-2.257-.665-.59 0-1.063.316-.465.315-.556.764-.091.448.232.738.332.283.93.283.73 0 1.494-.407.772-.407 1.22-1.03zM135.976 182.809q0 2.158-1.195 4.175-1.104 1.868-2.84 2.88-1.527.905-3.195.905-1.9 0-3.005-1.104-1.054-1.07-1.054-2.889 0-2.158 1.195-4.175 1.104-1.868 2.839-2.88 1.527-.905 3.196-.905 1.51 0 2.631.888 1.245.996 1.403 2.656.025.224.025.449zm-4.067-3.412q-1.793 0-3.146 2.54-.972 1.834-1.437 4.291-.19 1.021-.19 1.644 0 1.444.763 2.034.374.282.855.282 1.802 0 3.146-2.482.988-1.818 1.436-4.283.191-1.03.191-1.71 0-1.843-1.07-2.225-.25-.091-.548-.091z"/><g><path d="M98.67 19.703q-1.545.349-2.665 1.602h-1.038q.548-.813.888-1.195H89.63l.249-1.22h6.225q-.19-.374-.415-1.187h1.038q.614 1.245 2.025 1.593zM96.935 21.986q.556 0 .846.465.175.265.175.589-.009 1.104-.615 2.316-1.07 2.141-2.739 3.727-.614.581-1.22.988h-.822l-.822-6.666q-.074-.498-.822-.506-.199 0-.49.05v-.432l3.014-.473.797 6.391q1.569-1.494 2.258-2.971.29-.623.29-.996 0-.274-.29-.532-.3-.265-.382-.398-.158-.24-.158-.573 0-.622.515-.871.207-.108.465-.108z"/><path d="M101.763 28.167q.847 0 1.085.81.075.27.075.593 0 1.02-.55 2.045-.545 1.014-1.355 1.49-.534.307-1.084.307-.507-.006-.82-.238l-.135.454q-.264.879-.264 1.187 0 .296.242.372.14.043.475.054v.297H96.67v-.297q.48 0 .647-.265.081-.129.189-.588l.027-.102 1.063-4.198q.243-.95.243-1.074 0-.232-.534-.242h-.065v-.297l2.12-.308-.399 1.268q.459-.717.869-.993.415-.275.933-.275zm-.221 1.392q-.006-.604-.437-.61-.35 0-.76.502-.276.335-.416.702-.06.221-.48 1.613-.206.658-.206.836 0 .27.238.384.097.043.194.043.577 0 1.111-.907.486-.814.68-1.85.076-.4.076-.713z"/></g><path d="M168.79 136.913l39.8-46.764" fill="none" stroke="#d21900" stroke-width="2" stroke-linecap="round"/><path d="M222.55 81.928h.506l-.68 3.437-.457-.066q-.125-1.885-1.038-2.5-.523-.34-1.311-.34-.764 0-1.27.607-.39.473-.39 1.046 0 1.037.863 1.776.157.133.896.647l.158.117q1.079.796 1.519 1.36.722.93.722 2.209 0 1.693-1.137 2.69-1.038.904-2.64.904-.938 0-2.233-.407-.597-.19-.763-.19-.316 0-.49.307-.033.058-.141.29h-.515l.614-3.827.49.034q.1 1.602.922 2.49.68.722 1.65.722.989 0 1.637-.672.556-.581.556-1.362 0-1.153-1.13-2.1-.256-.224-.837-.63-1.304-.922-1.793-1.802-.407-.722-.407-1.56 0-1.56 1.129-2.466.97-.78 2.34-.78.905 0 1.719.315.506.2.747.2.548-.01.764-.45zm6.49.067v.382q-1.933 1.112-2.382 4.1-.166 1.12-.166 2.98 0 2.466.332 3.827.565 2.29 2.217 3.245v.382q-2.134-.747-3.428-2.722-1.287-1.968-1.353-4.491v-.24q0-2.524 1.236-4.541 1.22-2 3.28-2.823.132-.058.265-.1z" fill="red"/><path d="M229.954 86.062l2.806-.407q.473.63.73 1.976.017.083.042.24l.024.125q.092-.116.308-.431.73-1.046 1.203-1.445.548-.465 1.063-.465.63 0 .938.465.166.25.166.548 0 .457-.382.747-.233.175-.49.175-.3 0-.614-.191-.266-.15-.49-.15-.407 0-1.12 1.005-.225.315-.39.597l.539 2.665q.15.772.48.88.068.025.142.025.374 0 .972-.78.025-.034.074-.092.067-.1.1-.133l.357.24q-.68.914-.946 1.196-.822.872-1.636.88-.863 0-1.295-1.228-.157-.474-.34-1.412l-.407.665q-.058.09-.174.298-.531.88-.88 1.212-.506.465-1.096.465-.772 0-1.037-.531-.108-.208-.108-.457 0-.564.398-.846.208-.141.457-.141.357 0 .714.215.257.158.44.158.34 0 .647-.498.025-.025.058-.091l.058-.092.747-1.203-.498-2.59q-.232-1.162-.896-1.17-.382 0-.664.033zM242.629 96.908h-4.122v-.264q.82 0 1.079-.25.21-.204.226-.77v-4.318q0-.636-.264-.744-.076-.027-.167-.027-.254.005-.907.259v-.286l2.774-1.203h.2V95.6q0 .653.237.853.172.14.685.172l.259.017z" fill="red"/><path d="M242.485 96.604l-.224-.423q2-1.063 2.008-1.976 0-.348-.34-.548-.058-.024-.166-.083-.407-.207-.54-.431-.15-.25-.15-.614 0-1.046.906-1.254.19-.041.398-.041.83 0 1.179.763.174.382.174.83 0 1.827-2.033 3.138-.556.357-1.212.64zm13.397-4.964q1.478-2.805 1.478-3.395 0-.398-.3-.606-.04-.025-.132-.074-.315-.191-.415-.4-.108-.223-.108-.563 0-.498.44-.78.257-.167.54-.167.63 0 .92.523.142.258.142.565-.008 1.286-1.286 3.85-1.395 2.782-2.947 4.6-1.23 1.428-2.258 1.718-.3.083-.59.083-.746 0-1.054-.49-.132-.224-.132-.497 0-.482.365-.797.232-.191.49-.191.43 0 .888.315.365.25.548.282.074.017.14.017.39 0 .872-.506.64-.681.706-1.536.008-.083.008-.158 0-.788-.855-4.79-.3-1.385-.598-1.784-.274-.34-.755-.34v-.457l2.548-.407q.714 1.86 1.12 4.657l.183 1.328zM264.19 96.908h-4.121v-.264q.82 0 1.079-.25.21-.204.226-.77v-4.318q0-.636-.264-.744-.075-.027-.167-.027-.254.005-.907.259v-.286l2.774-1.203h.2V95.6q0 .653.237.853.172.14.685.172l.259.017zM265.06 96.91v-.381q1.934-1.112 2.382-4.1.166-1.12.166-2.98 0-2.465-.332-3.827-.565-2.29-2.216-3.245v-.382q2.133.747 3.428 2.722 1.286 1.968 1.353 4.49v.24q0 2.525-1.237 4.542-1.22 2-3.28 2.823-.132.058-.264.1z" fill="red"/><circle r="3.5" cy="90.149" cx="208.589" fill="red"/><path stroke-linecap="round" stroke-width="2" stroke="#000" fill="none" d="M79.618 61.022l122.268 27.466" marker-end="url(#c)"/><g><path d="M101.375 86q-1.544.349-2.664 1.602h-1.038q.548-.813.888-1.195h-6.225l.249-1.22h6.225q-.19-.374-.415-1.187h1.038q.614 1.245 2.025 1.594zM99.64 88.283q.557 0 .847.465.175.265.175.59-.009 1.103-.615 2.315-1.07 2.142-2.739 3.727-.614.581-1.22.988h-.822l-.822-6.666q-.074-.498-.822-.506-.199 0-.49.05v-.432l3.014-.473.797 6.392q1.569-1.494 2.258-2.972.29-.623.29-.996 0-.274-.29-.531-.3-.266-.382-.399-.158-.24-.158-.572 0-.623.515-.872.207-.108.465-.108z"/></g><path d="M72.101 57.737l-.614 3.262-.456-.033q-.017-1.503-.565-2.076-.531-.54-1.776-.556l-2.3 8.31q-.29 1.029-.29 1.261.017.772 1.411.78v.424h-5.628v-.424q.922 0 1.328-.373.316-.29.473-.855l2.524-9.123q-1.918.009-2.972 1.254-.39.465-.739 1.17l-.423-.116.664-2.905z"/><path stroke-linecap="round" stroke-width="2" stroke="#00f" fill="none" d="M79.618 61.022l16.935-19.898" marker-end="url(#d)"/><path d="M79.618 61.022l19.899 16.935" fill="none" stroke="#00f" stroke-width="2" stroke-linecap="round" marker-end="url(#e)"/><g><path d="M164.155 65.597q-1.581-.07-2.992.846l-1-.273q.742-.64 1.17-.92l-6.007-1.635.56-1.112 6.008 1.635q-.086-.41-.089-1.254l1.001.272q.266 1.363 1.536 2.07zM158.578 68.07q-.125.491.435 1.659.68 1.423.736 2.29.034.474-.073.867-.307 1.13-1.427 1.452-.756.216-1.573-.006-.536-.146-1.106-.55-.23-.167-.342-.197-.347-.086-.57.197l-.44-.12 1.101-2.625.427.168q-.302 2.25.937 2.595.585.16.968-.175.185-.173.25-.414.182-.664-.353-1.8-.075-.166-.204-.416-.526-1.038-.574-1.748-.041-.544.127-1.161.327-1.201 1.499-1.399.578-.1 1.226.076.521.142.927.485.28.231.505.292.305.083.57-.198.01-.005.012-.013l.473.128-1.063 2.42-.432-.151q.152-2.075-.81-2.337-.965-.245-1.226.681zM174.81 75.345l-8.265-2.25.392-1.442 8.266 2.25zM179.402 80.44q-1.092-.314-.815-1.366.09-.328.858-1.667.777-1.337 1.5-2.509l.723-1.17-.857-.234.155-.568q1.532-.065 2.792-.935.438-.311.908-.743l.577.157-1.289 2.205 1.178.32-.188.69-1.353-.37-1.823 2.997q-.987 1.667-1.06 1.94-.087.346.168.424.42.097 1.607-.973l.308.35q-1.005.914-1.642 1.23-.898.453-1.747.222zM188.652 68.6q-1.582-.069-2.992.846l-1.001-.272q.742-.641 1.17-.92l-6.007-1.635.561-1.112 6.007 1.635q-.086-.41-.088-1.255l1 .273q.266 1.363 1.536 2.07z"/></g></svg>