<svg xmlns="http://www.w3.org/2000/svg" width="345" height="189"><defs><marker id="b" refX="0" refY="0" orient="auto" overflow="visible"><path d="M4.616 0l-6.92 4v-8l6.92 4z" fill-rule="evenodd" stroke="#000" stroke-width=".8pt"/></marker><marker orient="auto" refY="0" refX="0" id="a" overflow="visible"><path d="M4.616 0l-6.92 4v-8l6.92 4z" fill-rule="evenodd" stroke="#000" stroke-width=".8pt"/></marker></defs><path d="M123.492 134.528h107.895" fill="none" stroke="#000" marker-end="url(#a)"/><path d="M137.895 149.569V41.674" fill="none" stroke="#000" marker-end="url(#b)"/><path d="M63.488 7.234l201.373 171.38" fill="none" stroke="#000"/><path d="M133.895 58.698h8m-8 15h8m-8 15h8m-8 15h8m-8 15h8m72 11.83v8m-15-8v8m-15-8v8m-15-8v8m-15-8v8" fill="none" stroke="#000" stroke-linecap="round"/><path d="M166.985 95.317l39.8-46.764" fill="none" stroke="#d21900" stroke-width="2" stroke-linecap="round"/><path d="M199.988 85.751q.274 0 .896-.888.117-.174.208-.316l.373.266q-1.36 2.142-2.457 2.15-1.104-.017-1.112-1.038 0-.381.183-1.162-.897 1.619-1.934 2.05-.424.183-.889.183-1.469 0-1.743-1.536-.058-.323-.058-.688 0-1.146.714-2.624.814-1.668 1.992-2.548.922-.68 1.868-.68.797.008 1.278.556l.3-1.088q.497-1.751.497-2.075 0-.473-.697-.473h-.357v-.457l3.553-.498-1.992 7.164q-.864 3.113-.864 3.403.017.29.241.299zm-1.378-3.378q.44-1.37.44-1.843 0-.548-.315-.789-.15-.108-.324-.108-.697 0-1.51 1.212-.798 1.179-1.163 2.623-.174.69-.174 1.204 0 .68.34.963.158.133.365.133 1.237-.017 2.341-3.395zM207.774 75.259v.382q-1.934 1.112-2.382 4.1-.166 1.12-.166 2.98 0 2.466.332 3.827.564 2.29 2.216 3.246v.381q-2.133-.747-3.428-2.722-1.287-1.968-1.353-4.491v-.24q0-2.524 1.237-4.541 1.22-2 3.278-2.823.133-.058.266-.1zM216.423 75.192h.507l-.68 3.437-.457-.066q-.125-1.885-1.038-2.499-.523-.34-1.311-.34-.764 0-1.27.606-.39.473-.39 1.046 0 1.037.863 1.776.157.133.896.647l.158.117q1.079.796 1.519 1.36.722.93.722 2.209 0 1.693-1.137 2.69-1.038.904-2.64.904-.938 0-2.233-.407-.597-.19-.763-.19-.316 0-.49.307-.033.058-.141.29h-.515l.614-3.827.49.034q.1 1.602.921 2.49.681.722 1.652.722.988 0 1.636-.672.556-.581.556-1.362 0-1.153-1.13-2.1-.256-.224-.838-.63-1.303-.922-1.792-1.802-.407-.722-.407-1.56 0-1.56 1.129-2.466.97-.78 2.34-.78.905 0 1.719.315.506.2.747.2.548-.009.763-.449zM216.656 89.868l-.224-.423q2-1.063 2.009-1.976 0-.348-.34-.548-.059-.024-.167-.083-.406-.207-.54-.431-.149-.25-.149-.614 0-1.046.905-1.254.191-.041.398-.041.83 0 1.18.763.174.382.174.83 0 1.827-2.034 3.138-.556.357-1.212.64zM231.49 84.174l1.942-4.873q-1.411-.108-2.183-1.012-.772-.905-.515-2.175.066-.34.282-.764h.44q-.207.399-.282.739-.216 1.079.432 1.834.647.747 1.984.98l.09-.233q.83-2.058 2.317-3.27 1.486-1.22 3.17-1.22.79 0 1.204.415.424.415.29 1.079-.232 1.162-1.834 2.208-1.602 1.037-3.627 1.345l-.922 2.324q-.066.158-.423.954l-.407.897q-.207.465-.664 1.195l1.52.531q1.61.573 2.407.573 1.386 0 2.49-1.85l.282.09q-.64 1.279-1.727 2.208-1.087.93-1.95.93-.905 0-2.532-.714l-.647-.282-.847-.332q-1.835 1.328-3.561 1.328-.938 0-1.403-.382-.465-.39-.332-1.062.158-.789.98-1.254.83-.473 2.058-.473.814 0 1.967.266zm3.86-5.33q1.585-.29 2.622-1.07 1.038-.789 1.245-1.851.117-.556-.1-.897-.215-.34-.68-.34-1.428 0-2.789 3.412zm-4.475 6.442q-1.286-.664-2.258-.664-.589 0-1.062.316-.465.315-.556.763-.092.448.232.739.332.282.93.282.73 0 1.494-.407.772-.406 1.22-1.029z" fill="red"/><path d="M239.55 90.175v-.381q1.934-1.113 2.382-4.101.166-1.12.166-2.98 0-2.465-.332-3.827-.565-2.29-2.217-3.245v-.382q2.134.747 3.429 2.722 1.286 1.968 1.353 4.491v.24q0 2.524-1.237 4.541-1.22 2.001-3.279 2.823-.133.058-.266.1z" fill="red"/><path d="M131.834 33.913q1.477-2.806 1.477-3.395 0-.399-.299-.606-.041-.025-.132-.075-.316-.19-.415-.398-.108-.224-.108-.565 0-.498.44-.78.257-.166.54-.166.63 0 .92.523.142.257.142.564-.008 1.287-1.287 3.852-1.395 2.78-2.947 4.599-1.228 1.427-2.258 1.718-.298.083-.589.083-.747 0-1.054-.49-.133-.224-.133-.498 0-.481.365-.797.233-.19.49-.19.432 0 .888.315.365.249.548.282.075.017.141.017.39 0 .872-.507.639-.68.705-1.535.008-.083.008-.158 0-.789-.855-4.79-.299-1.386-.597-1.784-.274-.34-.756-.34v-.457l2.549-.407q.713 1.86 1.12 4.657l.183 1.328zM237.496 138.039l2.806-.407q.473.63.73 1.976.017.083.042.24l.025.125q.091-.116.307-.432.73-1.046 1.204-1.444.548-.465 1.062-.465.631 0 .938.465.166.249.166.548 0 .456-.382.747-.232.174-.49.174-.298 0-.614-.19-.265-.15-.49-.15-.406 0-1.12 1.004-.224.316-.39.598l.54 2.664q.149.772.48.88.067.025.142.025.373 0 .971-.78.025-.033.075-.091.066-.1.1-.133l.356.24q-.68.914-.946 1.196-.822.871-1.635.88-.863 0-1.295-1.229-.158-.473-.34-1.411l-.407.664q-.058.091-.174.299-.532.88-.88 1.212-.507.465-1.096.465-.772 0-1.038-.532-.108-.207-.108-.456 0-.565.399-.847.207-.141.456-.141.357 0 .714.216.258.158.44.158.34 0 .648-.498.025-.025.058-.092l.058-.091.747-1.204-.498-2.59q-.233-1.162-.897-1.17-.381 0-.664.033zM272.632 179.242l1.942-4.873q-1.41-.108-2.183-1.013-.772-.904-.515-2.174.067-.34.283-.764h.44q-.208.398-.283.739-.215 1.079.432 1.834.648.747 1.984.98l.091-.233q.83-2.058 2.316-3.27 1.486-1.22 3.171-1.22.789 0 1.204.415.423.415.29 1.079-.232 1.162-1.834 2.208-1.602 1.037-3.628 1.344l-.921 2.325q-.066.157-.423.954l-.407.897q-.208.465-.664 1.195l1.519.531q1.61.573 2.407.573 1.386 0 2.49-1.851l.283.091q-.64 1.279-1.727 2.208-1.087.93-1.95.93-.906 0-2.532-.714l-.648-.282-.847-.332q-1.834 1.328-3.56 1.328-.939 0-1.403-.382-.465-.39-.333-1.062.158-.789.98-1.254.83-.473 2.059-.473.813 0 1.967.266zm3.86-5.33q1.585-.29 2.623-1.07 1.037-.789 1.245-1.851.116-.556-.1-.897-.216-.34-.68-.34-1.428 0-2.79 3.412zm-4.474 6.442q-1.287-.664-2.258-.664-.59 0-1.063.315-.465.316-.556.764-.091.448.233.739.332.282.93.282.73 0 1.493-.407.772-.406 1.22-1.029z"/><path d="M220.745 40.332h.506l-.68 3.437-.457-.066q-.125-1.885-1.038-2.499-.523-.34-1.311-.34-.764 0-1.27.606-.39.473-.39 1.046 0 1.037.863 1.776.157.133.896.647l.158.117q1.079.796 1.519 1.36.722.93.722 2.209 0 1.693-1.137 2.69-1.038.904-2.64.904-.938 0-2.233-.407-.597-.19-.763-.19-.316 0-.49.307-.033.058-.141.29h-.515l.614-3.827.49.034q.1 1.602.922 2.49.68.722 1.651.722.988 0 1.636-.672.556-.581.556-1.362 0-1.153-1.13-2.1-.256-.224-.837-.63-1.304-.922-1.793-1.802-.407-.722-.407-1.56 0-1.56 1.129-2.466.971-.78 2.34-.78.905 0 1.719.315.506.2.747.2.548-.009.764-.449zM227.236 40.399v.382q-1.934 1.112-2.383 4.1-.166 1.12-.166 2.98 0 2.466.332 3.827.565 2.29 2.217 3.245v.382q-2.134-.747-3.428-2.722-1.287-1.968-1.353-4.491v-.24q0-2.524 1.236-4.541 1.22-2 3.28-2.823.132-.058.265-.1z" fill="red"/><path d="M228.149 44.466l2.806-.407q.473.631.73 1.976.017.083.042.24l.024.125q.092-.116.308-.431.73-1.046 1.203-1.445.548-.465 1.063-.465.63 0 .938.465.166.25.166.548 0 .457-.382.747-.233.175-.49.175-.299 0-.614-.191-.266-.15-.49-.15-.407 0-1.12 1.005-.225.315-.39.597l.539 2.665q.15.772.481.88.067.025.141.025.374 0 .972-.78.025-.034.074-.092.067-.1.1-.133l.357.24q-.68.914-.946 1.196-.822.872-1.636.88-.863 0-1.295-1.228-.157-.474-.34-1.412l-.407.665q-.058.09-.174.298-.531.88-.88 1.212-.506.465-1.096.465-.772 0-1.037-.531-.108-.208-.108-.457 0-.564.398-.846.208-.141.457-.141.357 0 .714.215.257.158.44.158.34 0 .647-.498.025-.025.058-.091l.058-.092.747-1.203-.498-2.59q-.232-1.162-.896-1.17-.382 0-.664.033z" fill="red"/><path d="M240.824 55.312h-4.122v-.264q.82 0 1.079-.249.21-.205.226-.771V49.71q0-.636-.264-.744-.076-.027-.167-.027-.254.005-.907.259v-.286l2.774-1.203h.2v6.296q0 .653.237.853.172.14.685.172l.259.017z" fill="red"/><path d="M240.68 55.008l-.224-.423q2-1.063 2.008-1.976 0-.348-.34-.548-.058-.024-.166-.083-.407-.207-.54-.431-.149-.25-.149-.614 0-1.046.905-1.254.19-.041.398-.041.83 0 1.179.763.174.382.174.83 0 1.827-2.033 3.138-.556.357-1.212.64zM254.077 50.044q1.478-2.805 1.478-3.395 0-.398-.3-.606-.04-.025-.132-.074-.315-.191-.415-.399-.108-.224-.108-.564 0-.498.44-.78.257-.167.54-.167.63 0 .921.523.141.258.141.565-.008 1.286-1.286 3.851-1.395 2.781-2.947 4.6-1.229 1.427-2.258 1.717-.299.083-.59.083-.746 0-1.054-.49-.132-.224-.132-.497 0-.482.365-.797.232-.191.49-.191.431 0 .888.315.365.25.548.282.074.017.14.017.39 0 .872-.506.64-.681.706-1.536.008-.083.008-.158 0-.788-.855-4.79-.299-1.385-.598-1.784-.274-.34-.755-.34v-.457l2.548-.407q.714 1.86 1.12 4.657l.183 1.328z" fill="red"/><path d="M262.386 55.312h-4.122v-.264q.82 0 1.079-.249.21-.205.226-.771V49.71q0-.636-.264-.744-.075-.027-.167-.027-.254.005-.907.259v-.286l2.774-1.203h.2v6.296q0 .653.237.853.172.14.685.172l.259.017z" fill="red"/><path d="M263.255 55.315v-.382q1.934-1.112 2.382-4.1.166-1.12.166-2.98 0-2.465-.332-3.827-.565-2.29-2.216-3.245v-.382q2.133.747 3.428 2.722 1.286 1.968 1.353 4.491v.24q0 2.524-1.237 4.541-1.22 2-3.279 2.823-.133.058-.265.1z" fill="red"/><path d="M134.695 141.658q0 2.158-1.195 4.175-1.104 1.868-2.84 2.88-1.526.905-3.195.905-1.9 0-3.005-1.104-1.054-1.07-1.054-2.888 0-2.158 1.195-4.175 1.104-1.868 2.84-2.88 1.527-.906 3.195-.906 1.51 0 2.631.889 1.245.996 1.403 2.656.025.224.025.448zm-4.067-3.412q-1.793 0-3.146 2.54-.971 1.835-1.436 4.292-.191 1.021-.191 1.644 0 1.444.763 2.033.374.282.855.282 1.802 0 3.146-2.481.988-1.818 1.436-4.284.191-1.029.191-1.71 0-1.842-1.07-2.224-.25-.092-.548-.092z"/><circle r="3.5" cy="48.553" cx="206.784" fill="red"/></svg>