<svg xmlns="http://www.w3.org/2000/svg" height="189" width="345"><defs><marker overflow="visible" orient="auto" refY="0" refX="0" id="b"><path stroke-width=".8pt" stroke="#000" fill-rule="evenodd" d="M4.616 0l-6.92 4v-8l6.92 4z"/></marker><marker overflow="visible" id="a" refX="0" refY="0" orient="auto"><path stroke-width=".8pt" stroke="#000" fill-rule="evenodd" d="M4.616 0l-6.92 4v-8l6.92 4z"/></marker></defs><path stroke-opacity=".933" stroke-linejoin="round" stroke-linecap="round" stroke="#00f" fill="none" d="M161.02 80.592a10.177 10.177 0 01-2.244 7.693"/><path marker-end="url(#a)" stroke="#000" fill="none" d="M121.466 132.981H229.36"/><path marker-end="url(#b)" stroke="#000" fill="none" d="M135.869 148.022V40.127"/><path stroke="#000" fill="none" d="M61.462 5.687l201.373 171.381"/><path stroke-linecap="round" stroke="#000" fill="none" d="M131.869 57.152h8m-8 15h8m-8 15h8m-8 15h8m-8 15h8m72 11.83v8m-15-8v8m-15-8v8m-15-8v8m-15-8v8"/><path d="M129.808 32.366q1.477-2.805 1.477-3.395 0-.398-.299-.606-.041-.025-.133-.074-.315-.191-.415-.399-.107-.224-.107-.564 0-.498.44-.78.257-.167.539-.167.63 0 .921.523.142.258.142.565-.008 1.286-1.287 3.851-1.395 2.781-2.947 4.6-1.228 1.427-2.258 1.717-.299.083-.589.083-.747 0-1.054-.49-.133-.224-.133-.497 0-.482.365-.797.233-.191.49-.191.432 0 .888.315.365.25.548.282.075.017.141.017.39 0 .872-.506.639-.681.705-1.536.008-.083.008-.158 0-.788-.855-4.79-.299-1.385-.597-1.784-.274-.34-.756-.34v-.457l2.549-.407q.713 1.86 1.12 4.657l.183 1.328zM235.47 136.492l2.806-.407q.473.631.73 1.976.017.083.042.24l.025.125q.091-.116.307-.431.73-1.046 1.204-1.445.547-.465 1.062-.465.63 0 .938.465.166.25.166.548 0 .457-.382.747-.232.175-.49.175-.298 0-.614-.191-.265-.15-.49-.15-.406 0-1.12 1.005-.224.315-.39.597l.54 2.665q.149.772.48.88.067.025.142.025.373 0 .971-.78.025-.034.075-.092.066-.1.1-.133l.356.24q-.68.914-.946 1.196-.822.872-1.635.88-.864 0-1.295-1.228-.158-.474-.34-1.412l-.407.665q-.058.09-.175.298-.53.88-.88 1.212-.506.465-1.095.465-.772 0-1.038-.531-.108-.208-.108-.457 0-.564.399-.846.207-.141.456-.141.357 0 .714.215.257.158.44.158.34 0 .648-.498.024-.025.058-.091.041-.067.058-.092l.747-1.203-.498-2.59q-.233-1.162-.897-1.17-.382 0-.664.033z"/><path d="M270.606 177.695l1.942-4.873q-1.411-.108-2.183-1.012-.772-.905-.515-2.175.067-.34.282-.764h.44q-.207.399-.282.739-.216 1.079.432 1.834.647.747 1.984.98l.091-.233q.83-2.058 2.316-3.27 1.486-1.22 3.17-1.22.79 0 1.204.415.424.415.291 1.079-.232 1.162-1.835 2.208-1.602 1.037-3.627 1.345l-.921 2.324q-.067.158-.424.954l-.406.897q-.208.465-.664 1.195l1.519.531q1.61.573 2.407.573 1.386 0 2.49-1.85l.282.09q-.639 1.279-1.726 2.208-1.088.93-1.951.93-.905 0-2.532-.714l-.647-.282-.847-.332q-1.834 1.328-3.56 1.328-.939 0-1.404-.382-.465-.39-.332-1.062.158-.789.98-1.254.83-.473 2.058-.473.814 0 1.968.266zm3.86-5.33q1.585-.29 2.623-1.07 1.037-.789 1.245-1.851.116-.556-.1-.897-.216-.34-.68-.34-1.428 0-2.79 3.412zm-4.475 6.442q-1.286-.664-2.257-.664-.59 0-1.063.316-.465.315-.556.763-.091.448.232.739.332.282.93.282.73 0 1.494-.407.772-.406 1.22-1.029z" fill="green" fill-opacity=".816"/><path d="M283.322 183.693H279.2v-.264q.82 0 1.079-.249.21-.205.227-.771V178.092q0-.636-.265-.744-.075-.027-.167-.027-.254.005-.907.259v-.286l2.774-1.203h.2v6.296q0 .653.237.853.172.14.685.172l.259.017z" fill="green" fill-opacity=".816"/><path d="M174.667 81.239q1.112 0 1.784.78.673.78.673 2.084 0 1.593-.839 3.843-.838 2.25-2.233 3.644-1.386 1.394-2.814 1.394-1.145 0-1.8-.796-.657-.806-.657-2.059 0-1.378.648-3.304.647-1.926 1.519-3.17.88-1.254 1.85-1.835.98-.581 1.869-.581zm-.142 5.462l.548-2.042q.29-1.071.29-1.735 0-1.212-.904-1.212-.722 0-1.353 1.046-.622 1.037-1.494 3.943zm-3.054.465q-.971 3.179-.971 4.225 0 .498.274.805.273.307.672.307.797 0 1.477-1.312.681-1.311 1.478-4.025z" style="line-height:1.25;-inkscape-font-specification:'Times New Roman, Bold Italic'" fill="#00f" fill-opacity=".996"/><path d="M132.67 140.112q0 2.158-1.196 4.175-1.104 1.868-2.839 2.88-1.527.905-3.195.905-1.901 0-3.005-1.104-1.054-1.07-1.054-2.889 0-2.158 1.195-4.175 1.104-1.868 2.839-2.88 1.527-.905 3.196-.905 1.51 0 2.63.888 1.246.996 1.404 2.656.025.225.025.449zm-4.068-3.412q-1.793 0-3.146 2.54-.971 1.835-1.436 4.292-.19 1.02-.19 1.643 0 1.444.763 2.034.373.282.855.282 1.801 0 3.146-2.482.988-1.818 1.436-4.283.19-1.03.19-1.71 0-1.843-1.07-2.225-.249-.09-.548-.09z"/><path stroke="#000" fill="none" d="M32.098 98.233L294.743 61.95"/><path d="M299.844 68.863l1.942-4.873q-1.411-.108-2.183-1.012-.772-.905-.515-2.175.067-.34.282-.764h.44q-.207.399-.282.739-.216 1.079.432 1.834.647.747 1.984.98l.091-.233q.83-2.058 2.316-3.27 1.486-1.22 3.17-1.22.79 0 1.204.415.424.415.291 1.079-.232 1.162-1.834 2.208-1.603 1.037-3.628 1.345l-.921 2.324q-.067.158-.424.954l-.406.897q-.208.465-.664 1.195l1.519.531q1.61.573 2.407.573 1.386 0 2.49-1.85l.282.09q-.639 1.279-1.726 2.208-1.088.93-1.951.93-.905 0-2.532-.714l-.647-.282-.847-.332q-1.834 1.328-3.56 1.328-.939 0-1.404-.382-.465-.39-.332-1.062.158-.789.98-1.254.83-.473 2.058-.473.814 0 1.968.266zm3.86-5.33q1.585-.29 2.623-1.07 1.037-.789 1.245-1.851.116-.556-.1-.897-.216-.34-.68-.34-1.428 0-2.79 3.412zm-4.475 6.442q-1.286-.664-2.257-.664-.59 0-1.063.316-.465.315-.556.763-.091.448.232.739.332.282.93.282.73 0 1.494-.407.772-.406 1.22-1.029z" fill="red" fill-opacity=".886"/><path d="M312.97 72.53l-.507 2.331h-4.586v-.254l1.678-1.845q.49-.54.906-1.235.54-.901.54-1.511 0-.939-.6-1.311-.307-.19-.711-.19-.853.006-1.35 1h-.312q.755-2.25 2.466-2.256 1.035 0 1.586.696.426.54.426 1.327-.005 1.198-1.09 2.24l-1.958 1.871H311q.841 0 1.122-.113.28-.113.448-.453.06-.124.124-.297z" fill="red" fill-opacity=".886"/></svg>