<svg xmlns="http://www.w3.org/2000/svg" width="345" height="248"><defs><marker id="d" refX="0" refY="0" orient="auto" overflow="visible"><path d="M2.308 0l-3.46 2v-4z" fill="#ff4646" fill-rule="evenodd" stroke="#ff4646" stroke-width=".4pt"/></marker><marker id="b" refX="0" refY="0" orient="auto" overflow="visible"><path d="M4.616 0l-6.92 4v-8z" fill-rule="evenodd" stroke="#000" stroke-width=".8pt"/></marker><marker orient="auto" refY="0" refX="0" id="a" overflow="visible"><path d="M4.616 0l-6.92 4v-8z" fill-rule="evenodd" stroke="#000" stroke-width=".8pt"/></marker><marker orient="auto" refY="0" refX="0" id="c" overflow="visible"><path d="M2.308 0l-3.46 2v-4z" fill="#75bb75" fill-rule="evenodd" stroke="#75bb75" stroke-width=".4pt"/></marker></defs><path d="M121.735 171.014h107.896" fill="none" stroke="#000" marker-end="url(#a)"/><path d="M136.139 186.055V78.16" fill="none" stroke="#000" marker-end="url(#b)"/><path d="M61.732 43.72l201.372 171.381" fill="none" stroke="#000"/><path d="M132.139 95.184h8m-8 15h8m-8 15h8m-8 15h8m-8 15h8m72 11.83v8m-15-8v8m-15-8v8m-15-8v8m-15-8v8" fill="none" stroke="#000" stroke-linecap="round"/><path d="M136.139 171.014l-16.964-14.437" fill="none" stroke="#75bb75" stroke-width="2" stroke-linecap="round" marker-end="url(#c)"/><path d="M130.078 70.4q1.477-2.806 1.477-3.396 0-.398-.299-.606-.041-.024-.133-.074-.315-.191-.415-.399-.108-.224-.108-.564 0-.498.44-.78.258-.166.54-.166.63 0 .921.522.141.258.141.565-.008 1.287-1.286 3.851-1.395 2.781-2.947 4.6-1.228 1.427-2.258 1.717-.299.083-.59.083-.746 0-1.053-.49-.133-.223-.133-.497 0-.482.365-.797.233-.191.49-.191.431 0 .888.315.365.25.548.282.075.017.141.017.39 0 .872-.506.639-.68.705-1.536.008-.083.008-.158 0-.788-.855-4.79-.299-1.385-.597-1.784-.274-.34-.756-.34v-.457l2.548-.406q.714 1.859 1.121 4.656l.183 1.328zM235.74 174.525l2.806-.407q.473.631.73 1.976.017.083.042.24l.025.125q.091-.116.307-.431.73-1.046 1.203-1.445.548-.465 1.063-.465.63 0 .938.465.166.25.166.548 0 .457-.382.747-.232.174-.49.174-.298 0-.614-.19-.265-.15-.49-.15-.406 0-1.12 1.005-.224.315-.39.597l.54 2.665q.149.772.48.88.067.025.142.025.373 0 .971-.78.025-.034.075-.092.066-.1.1-.133l.356.24q-.68.914-.946 1.196-.822.872-1.635.88-.864 0-1.295-1.228-.158-.474-.34-1.412l-.407.664q-.058.092-.175.3-.53.88-.88 1.211-.506.465-1.095.465-.772 0-1.038-.531-.108-.208-.108-.457 0-.564.399-.846.207-.142.456-.142.357 0 .714.216.257.158.44.158.34 0 .648-.498.024-.025.058-.091.041-.067.058-.092l.747-1.203-.498-2.59q-.233-1.162-.897-1.17-.382 0-.664.033z"/><path d="M270.876 215.728l1.942-4.872q-1.411-.108-2.183-1.013-.772-.905-.515-2.175.067-.34.283-.764h.44q-.208.399-.283.74-.216 1.078.432 1.834.647.747 1.984.98l.091-.233q.83-2.059 2.316-3.27 1.486-1.221 3.17-1.221.79 0 1.205.415.423.415.29 1.08-.232 1.161-1.834 2.207-1.602 1.038-3.628 1.345l-.921 2.324q-.067.158-.424.955l-.406.896q-.208.465-.664 1.195l1.519.532q1.61.572 2.407.572 1.386 0 2.49-1.85l.282.09q-.639 1.279-1.726 2.209-1.088.93-1.95.93-.906 0-2.533-.714l-.647-.283-.847-.332q-1.834 1.328-3.56 1.328-.939 0-1.404-.381-.464-.39-.332-1.063.158-.788.98-1.253.83-.473 2.058-.473.814 0 1.968.265zm3.86-5.329q1.585-.29 2.623-1.07 1.037-.79 1.245-1.852.116-.556-.1-.896-.216-.34-.68-.34-1.428 0-2.79 3.411zm-4.475 6.441q-1.286-.664-2.257-.664-.59 0-1.063.316-.465.315-.556.763-.091.449.232.74.332.281.93.281.73 0 1.494-.406.772-.407 1.22-1.03z" fill="green" fill-opacity=".988"/><path d="M283.592 221.726h-4.122v-.264q.82 0 1.079-.248.21-.205.227-.772v-4.316q0-.637-.265-.745-.075-.027-.167-.027-.254.005-.906.26v-.287l2.773-1.203h.2v6.297q0 .652.237.852.173.14.685.173l.26.016z" fill="green" fill-opacity=".988"/><path d="M219.602 120.621q-1.544.349-2.664 1.602H215.9q.548-.813.888-1.195h-6.225l.249-1.22h6.225q-.19-.374-.415-1.187h1.038q.614 1.245 2.025 1.593zM217.867 122.904q.557 0 .847.465.174.265.174.589-.008 1.104-.614 2.316-1.07 2.141-2.739 3.727-.614.581-1.22.988h-.822l-.822-6.666q-.074-.498-.822-.506-.199 0-.49.05v-.432l3.014-.473.797 6.391q1.569-1.494 2.258-2.971.29-.623.29-.996 0-.274-.29-.532-.3-.265-.382-.398-.158-.24-.158-.573 0-.622.515-.871.207-.108.464-.108z" fill="#75ba75"/><path d="M223.802 134.19h-4.122v-.265q.82 0 1.08-.248.21-.205.226-.772v-4.316q0-.637-.265-.745-.075-.027-.167-.027-.254.005-.906.26v-.287l2.773-1.203h.2v6.297q0 .653.237.852.173.14.685.173l.26.016z" fill="#75ba75"/><path d="M227.779 128.531q0-.41.329-.652.221-.162.49-.162.41 0 .659.323.162.222.162.491 0 .405-.324.653-.221.167-.496.167-.405 0-.653-.323-.167-.221-.167-.497z"/><path d="M240.705 122.904q.556 0 .846.465.175.265.175.589-.008 1.104-.615 2.316-1.07 2.141-2.739 3.727-.614.581-1.22.988h-.822l-.822-6.666q-.074-.498-.821-.506-.2 0-.49.05v-.432l3.013-.473.797 6.391q1.569-1.494 2.258-2.971.29-.623.29-.996 0-.274-.29-.532-.3-.265-.382-.398-.158-.24-.158-.573 0-.622.515-.871.207-.108.465-.108z" fill="red"/><path d="M247.05 131.859l-.508 2.33h-4.586v-.253l1.678-1.845q.49-.54.906-1.236.54-.9.54-1.51 0-.94-.599-1.312-.308-.189-.712-.189-.853.005-1.349.999h-.313q.755-2.25 2.466-2.256 1.036 0 1.586.696.426.54.426 1.328-.005 1.197-1.09 2.239l-1.958 1.872h1.543q.842 0 1.122-.113.28-.114.448-.454.06-.124.124-.296z" fill="red"/><path d="M260.673 125.502h-8.566v-1.494h8.566zm0 3.47h-8.566v-1.494h8.566zM269.737 119.085q2.042 0 3.072 2.142.738 1.527.78 3.62v.198q0 2.01-.664 3.57-.913 2.15-2.773 2.374-.207.025-.415.025-2.05 0-3.07-2.15-.731-1.536-.773-3.636v-.183q0-2.017.664-3.586.93-2.158 2.806-2.357.19-.017.373-.017zm0 .482q-.763 0-1.004 1.286-.158.83-.158 2.707v2.98q0 2.266.25 3.096.282.888.912.896.772 0 1.021-1.32.15-.83.15-2.672v-2.98q0-2.291-.266-3.13-.282-.855-.905-.863zM132.939 178.144q0 2.159-1.195 4.176-1.104 1.867-2.84 2.88-1.527.905-3.195.905-1.9 0-3.005-1.104-1.054-1.07-1.054-2.889 0-2.158 1.195-4.175 1.104-1.868 2.839-2.88 1.527-.905 3.196-.905 1.51 0 2.631.888 1.245.996 1.403 2.656.025.224.025.448zm-4.067-3.411q-1.793 0-3.146 2.54-.972 1.834-1.436 4.291-.191 1.021-.191 1.644 0 1.444.763 2.034.374.282.855.282 1.802 0 3.146-2.482.988-1.818 1.436-4.283.191-1.03.191-1.71 0-1.843-1.07-2.225-.25-.091-.548-.091z"/><g><path d="M110.022 139.726q-1.544.348-2.664 1.602h-1.038q.548-.814.888-1.196h-6.225l.249-1.22h6.225q-.19-.373-.415-1.187h1.038q.614 1.245 2.025 1.594zM108.287 142.008q.557 0 .847.465.174.266.174.59-.008 1.104-.614 2.315-1.07 2.142-2.739 3.727-.614.582-1.22.988h-.822l-.822-6.665q-.075-.498-.822-.507-.199 0-.49.05v-.431l3.014-.474.797 6.392q1.569-1.494 2.258-2.972.29-.622.29-.996 0-.274-.29-.531-.3-.266-.382-.398-.158-.241-.158-.573 0-.623.515-.872.207-.108.464-.108z"/><path d="M114.222 153.294H110.1v-.264q.82 0 1.08-.249.21-.205.226-.771v-4.316q0-.637-.265-.745-.075-.027-.167-.027-.254.005-.906.259v-.286l2.773-1.203h.2v6.296q0 .653.237.853.173.14.685.172l.26.017z"/></g><path d="M260.033 27.573l1.942-4.872q-1.41-.108-2.183-1.013-.772-.905-.514-2.175.066-.34.282-.763h.44q-.208.398-.283.738-.215 1.08.432 1.835.648.747 1.984.98l.091-.233q.83-2.059 2.316-3.27 1.486-1.22 3.171-1.22.789 0 1.204.414.423.415.29 1.08-.232 1.161-1.834 2.207-1.602 1.038-3.628 1.345l-.921 2.324q-.066.158-.423.955l-.407.896q-.208.465-.664 1.196l1.519.53q1.61.574 2.407.574 1.386 0 2.49-1.851l.283.09q-.64 1.28-1.727 2.209-1.087.93-1.95.93-.905 0-2.532-.714l-.648-.283-.847-.332q-1.834 1.329-3.56 1.329-.939 0-1.403-.382-.465-.39-.332-1.063.157-.788.979-1.253.83-.473 2.059-.473.813 0 1.967.265zm3.86-5.329q1.585-.29 2.623-1.07 1.037-.79 1.245-1.852.116-.556-.1-.896-.216-.34-.68-.34-1.428 0-2.79 3.411zm-4.474 6.442q-1.287-.665-2.258-.665-.59 0-1.063.316-.465.315-.556.764-.091.448.233.738.332.283.93.283.73 0 1.493-.407.772-.407 1.22-1.03z" fill="red" fill-opacity=".949"/><path d="M273.16 31.24l-.508 2.331h-4.586v-.253l1.678-1.845q.491-.54.906-1.236.54-.901.54-1.51 0-.94-.599-1.312-.307-.189-.712-.189-.853.006-1.349.998h-.313q.755-2.25 2.466-2.255 1.036 0 1.586.696.426.54.426 1.327-.005 1.198-1.09 2.24l-1.958 1.872h1.543q.842 0 1.122-.113.28-.114.448-.454.06-.124.124-.296z" fill="red" fill-opacity=".949"/><path d="M136.139 171.014l14.437-16.963" fill="none" stroke="#ff4646" stroke-width="2" stroke-linecap="round" marker-end="url(#d)"/><g><path d="M163.817 139.726q-1.544.348-2.664 1.602h-1.038q.548-.814.888-1.196h-6.225l.249-1.22h6.225q-.19-.373-.415-1.187h1.038q.614 1.245 2.025 1.594zM162.082 142.008q.557 0 .847.465.174.266.174.59-.008 1.104-.614 2.315-1.07 2.142-2.74 3.727-.613.582-1.22.988h-.821l-.822-6.665q-.075-.498-.822-.507-.199 0-.49.05v-.431l3.014-.474.797 6.392q1.569-1.494 2.258-2.972.29-.622.29-.996 0-.274-.29-.531-.3-.266-.382-.398-.158-.241-.158-.573 0-.623.515-.872.207-.108.464-.108z"/><path d="M168.427 150.963l-.507 2.331h-4.586v-.254l1.678-1.845q.49-.54.906-1.235.54-.901.54-1.511 0-.939-.6-1.311-.307-.19-.711-.19-.853.006-1.35 1h-.312q.755-2.25 2.466-2.256 1.036 0 1.586.696.426.54.426 1.327-.005 1.198-1.09 2.24l-1.958 1.871h1.543q.841 0 1.122-.113.28-.113.448-.453.06-.124.124-.297z"/></g><path d="M248.109 28.724L76.728 230.097" fill="none" stroke="#000"/><path d="M242.44 120.621q-1.544.349-2.665 1.602h-1.038q.548-.813.889-1.195H233.4l.249-1.22h6.226q-.191-.374-.416-1.187h1.038q.614 1.245 2.025 1.593z" fill="red"/></svg>