<svg xmlns="http://www.w3.org/2000/svg" width="345" height="265"><defs><marker id="d" refX="0" refY="0" orient="auto" overflow="visible"><path d="M2.308 0l-3.46 2v-4z" fill="#ff4646" fill-rule="evenodd" stroke="#ff4646" stroke-width=".4pt"/></marker><marker id="b" refX="0" refY="0" orient="auto" overflow="visible"><path d="M4.616 0l-6.92 4v-8z" fill-rule="evenodd" stroke="#000" stroke-width=".8pt"/></marker><marker orient="auto" refY="0" refX="0" id="a" overflow="visible"><path d="M4.616 0l-6.92 4v-8z" fill-rule="evenodd" stroke="#000" stroke-width=".8pt"/></marker><marker orient="auto" refY="0" refX="0" id="c" overflow="visible"><path d="M2.308 0l-3.46 2v-4z" fill="#75ba75" fill-rule="evenodd" stroke="#75ba75" stroke-width=".4pt"/></marker></defs><path d="M118.49 189.432h107.895" fill="none" stroke="#000" marker-end="url(#a)"/><path d="M132.893 204.473V96.578" fill="none" stroke="#000" marker-end="url(#b)"/><path d="M58.487 62.138L259.859 233.52" fill="none" stroke="#000"/><path d="M128.893 113.603h8m-8 15h8m-8 15h8m-8 15h8m-8 15h8m72 11.83v8m-15-8v8m-15-8v8m-15-8v8m-15-8v8" fill="none" stroke="#000" stroke-linecap="round"/><path d="M132.893 189.432l-16.29-13.864" fill="none" stroke="#75ba75" stroke-width="2" stroke-linecap="round" marker-end="url(#c)"/><path d="M126.832 88.818q1.478-2.806 1.478-3.395 0-.399-.3-.606-.04-.025-.132-.075-.315-.191-.415-.399-.108-.224-.108-.564 0-.498.44-.78.257-.166.54-.166.63 0 .92.523.142.257.142.564-.008 1.287-1.287 3.852-1.394 2.78-2.946 4.598-1.229 1.428-2.258 1.719-.299.083-.59.083-.747 0-1.054-.49-.133-.224-.133-.498 0-.482.366-.797.232-.191.49-.191.431 0 .888.315.365.25.547.283.075.016.142.016.39 0 .871-.506.64-.68.706-1.536.008-.083.008-.158 0-.788-.855-4.79-.3-1.385-.598-1.784-.274-.34-.755-.34v-.457l2.548-.406q.714 1.859 1.12 4.656l.183 1.329zM232.495 192.943l2.805-.406q.474.63.731 1.975.017.083.041.24l.025.125q.092-.116.307-.431.731-1.046 1.204-1.445.548-.464 1.063-.464.63 0 .938.464.166.25.166.548 0 .457-.382.747-.233.175-.49.175-.299 0-.614-.191-.266-.15-.49-.15-.407 0-1.12 1.005-.225.315-.39.597l.539 2.665q.15.772.481.88.067.025.141.025.374 0 .972-.78.024-.034.074-.092.067-.1.1-.133l.357.241q-.68.913-.946 1.195-.822.872-1.636.88-.863 0-1.295-1.228-.157-.473-.34-1.411l-.407.664q-.058.09-.174.298-.531.88-.88 1.212-.506.465-1.096.465-.772 0-1.037-.531-.108-.208-.108-.457 0-.564.398-.846.208-.141.457-.141.357 0 .714.215.257.158.44.158.34 0 .647-.498.025-.025.058-.091l.058-.092.747-1.203-.498-2.59q-.232-1.162-.896-1.17-.382 0-.664.033z"/><path d="M267.63 234.146l1.943-4.872q-1.411-.108-2.183-1.013-.772-.905-.515-2.175.066-.34.282-.763h.44q-.207.398-.282.738-.216 1.08.432 1.835.647.747 1.983.98l.092-.233q.83-2.059 2.316-3.27 1.485-1.22 3.17-1.22.79 0 1.204.414.424.415.29 1.08-.232 1.161-1.834 2.207-1.602 1.038-3.627 1.345l-.922 2.324q-.066.158-.423.955l-.407.896q-.207.465-.664 1.196l1.52.53q1.61.574 2.407.574 1.386 0 2.49-1.851l.282.09q-.64 1.28-1.727 2.209-1.087.93-1.95.93-.905 0-2.532-.714l-.647-.283-.847-.332q-1.835 1.329-3.561 1.329-.938 0-1.403-.382-.465-.39-.332-1.063.158-.788.98-1.253.83-.473 2.058-.473.814 0 1.967.265zm3.86-5.329q1.586-.29 2.623-1.07 1.038-.79 1.245-1.852.117-.556-.1-.896-.215-.34-.68-.34-1.428 0-2.789 3.411zm-4.474 6.442q-1.287-.664-2.258-.664-.59 0-1.062.315-.465.315-.556.764-.092.448.232.738.332.283.93.283.73 0 1.494-.407.772-.407 1.22-1.03z" fill="green" fill-opacity=".871"/><path d="M280.347 240.144h-4.122v-.264q.82 0 1.079-.248.21-.205.226-.772v-4.316q0-.637-.264-.745-.076-.027-.167-.027-.254.005-.907.26v-.287l2.773-1.203h.2v6.297q0 .653.238.852.172.14.685.173l.259.016z" fill="green" fill-opacity=".871"/><path d="M129.694 196.563q0 2.158-1.196 4.175-1.104 1.868-2.839 2.88-1.527.905-3.195.905-1.901 0-3.005-1.104-1.055-1.07-1.055-2.889 0-2.158 1.196-4.175 1.104-1.868 2.839-2.88 1.527-.905 3.195-.905 1.511 0 2.632.888 1.245.996 1.403 2.656.025.225.025.449zm-4.068-3.412q-1.793 0-3.146 2.54-.971 1.835-1.436 4.292-.19 1.02-.19 1.643 0 1.444.763 2.034.373.282.855.282 1.801 0 3.146-2.482.988-1.818 1.436-4.283.19-1.03.19-1.71 0-1.843-1.07-2.225-.249-.091-.548-.091z"/><g><path d="M106.68 158.011q-1.543.349-2.664 1.602h-1.037q.547-.813.888-1.195H97.64l.25-1.22h6.225q-.191-.374-.415-1.187h1.037q.615 1.245 2.026 1.593zM104.946 160.294q.556 0 .847.465.174.265.174.589-.008 1.104-.614 2.316-1.071 2.141-2.74 3.727-.614.581-1.22.988h-.822l-.821-6.666q-.075-.498-.822-.506-.2 0-.49.05v-.432l3.013-.473.797 6.391q1.569-1.494 2.258-2.971.29-.623.29-.996 0-.274-.29-.532-.299-.265-.382-.398-.158-.24-.158-.573 0-.622.515-.871.208-.108.465-.108z"/><path d="M110.88 171.58h-4.122v-.265q.82 0 1.08-.248.21-.205.226-.772v-4.316q0-.637-.264-.745-.076-.027-.168-.027-.253.005-.906.26v-.287l2.773-1.203h.2v6.297q0 .653.237.852.173.14.686.173l.259.016z"/></g><path d="M76.036 25.236l201.372 171.381" fill="none" stroke="#000"/><path d="M142.415 181.432l-16.29-13.864" fill="none" stroke="#ff4646" stroke-width="2" stroke-linecap="round" marker-end="url(#d)"/><path d="M106.172 34.85l1.942-4.873q-1.411-.108-2.183-1.013-.772-.904-.515-2.174.067-.34.282-.764h.44q-.207.398-.282.739-.216 1.079.432 1.834.647.747 1.984.98l.091-.233q.83-2.058 2.316-3.27 1.486-1.22 3.17-1.22.79 0 1.204.415.424.415.29 1.079-.231 1.162-1.834 2.208-1.602 1.037-3.627 1.344l-.921 2.325q-.067.157-.424.954l-.406.897q-.208.465-.665 1.195l1.52.531q1.61.573 2.407.573 1.386 0 2.49-1.851l.282.091q-.639 1.279-1.726 2.208-1.088.93-1.951.93-.905 0-2.532-.714l-.647-.282-.847-.332q-1.834 1.328-3.56 1.328-.939 0-1.404-.382-.465-.39-.332-1.062.158-.789.98-1.254.83-.473 2.058-.473.814 0 1.968.266zm3.86-5.33q1.585-.29 2.622-1.07 1.038-.789 1.246-1.851.116-.556-.1-.897-.216-.34-.68-.34-1.428 0-2.79 3.412zm-4.475 6.442q-1.286-.664-2.258-.664-.589 0-1.062.315-.465.316-.556.764-.091.448.232.739.332.282.93.282.73 0 1.494-.407.772-.406 1.22-1.029z" fill="red" fill-opacity=".98"/><path d="M119.298 38.517l-.507 2.33h-4.586v-.253l1.678-1.845q.49-.54.906-1.236.54-.9.54-1.51 0-.94-.6-1.311-.307-.19-.711-.19-.853.006-1.35.999h-.312q.755-2.25 2.465-2.255 1.036 0 1.587.696.426.54.426 1.327-.005 1.198-1.09 2.24l-1.958 1.871h1.543q.841 0 1.122-.113.28-.113.448-.453.059-.124.124-.297z" fill="red" fill-opacity=".98"/><g><path d="M120.075 147.806q-1.544.349-2.665 1.602h-1.037q.548-.813.888-1.195h-6.226l.25-1.22h6.225q-.191-.374-.415-1.187h1.037q.615 1.245 2.026 1.593zM118.34 150.089q.556 0 .847.465.174.265.174.589-.008 1.104-.614 2.316-1.071 2.141-2.74 3.727-.614.581-1.22.988h-.822l-.821-6.666q-.075-.498-.822-.506-.2 0-.49.05v-.432l3.013-.473.797 6.391q1.57-1.494 2.258-2.971.29-.623.29-.996 0-.274-.29-.532-.299-.265-.382-.398-.157-.24-.157-.573 0-.622.514-.871.208-.108.465-.108z"/><path d="M124.685 159.044l-.507 2.33h-4.587v-.253l1.678-1.845q.491-.54.907-1.236.54-.901.54-1.51 0-.94-.6-1.312-.307-.189-.712-.189-.852.006-1.349.999h-.313q.756-2.25 2.466-2.256 1.036 0 1.586.696.427.54.427 1.328-.006 1.197-1.09 2.239l-1.959 1.872h1.543q.842 0 1.123-.113.28-.114.447-.454.06-.124.125-.296z"/></g><g><path d="M211.332 85.802h-1.494v-12.07h1.494z"/><path d="M218.944 77.592q.556 0 .846.465.175.266.175.59-.008 1.103-.615 2.315-1.07 2.142-2.739 3.727-.614.581-1.22.988h-.822l-.822-6.665q-.074-.498-.821-.507-.2 0-.49.05v-.432l3.013-.473.797 6.392q1.569-1.494 2.258-2.972.29-.622.29-.996 0-.274-.29-.531-.299-.266-.382-.399-.158-.24-.158-.572 0-.623.515-.872.207-.108.465-.108z" fill="green" fill-opacity=".682"/><path d="M224.878 88.878h-4.122v-.264q.82 0 1.08-.249.21-.205.226-.771V83.277q0-.636-.264-.744-.076-.027-.168-.027-.253.005-.906.259v-.286l2.773-1.203h.2v6.296q0 .653.237.853.173.14.685.172l.26.017z" fill="green" fill-opacity=".682"/><path d="M238.655 84.15l-1.054 1.054-2.972-2.988-2.98 2.988-1.054-1.054 2.98-2.972-2.98-2.98 1.054-1.054 2.98 2.997 2.972-2.997 1.054 1.054-2.989 2.98z"/><path d="M250.201 77.592q.556 0 .847.465.174.266.174.59-.008 1.103-.614 2.315-1.07 2.142-2.74 3.727-.614.581-1.22.988h-.821l-.822-6.665q-.075-.498-.822-.507-.2 0-.49.05v-.432l3.014-.473.796 6.392q1.57-1.494 2.258-2.972.29-.622.29-.996 0-.274-.29-.531-.299-.266-.382-.399-.157-.24-.157-.572 0-.623.514-.872.208-.108.465-.108z" fill="red" fill-opacity=".878"/><path d="M256.546 86.547l-.507 2.331h-4.587v-.254l1.678-1.845q.491-.54.907-1.235.54-.901.54-1.511 0-.939-.6-1.311-.307-.19-.712-.19-.852.006-1.348.999h-.313q.755-2.25 2.465-2.255 1.036 0 1.587.696.426.54.426 1.327-.005 1.198-1.09 2.24l-1.959 1.871h1.543q.842 0 1.123-.113.28-.113.448-.453.059-.124.124-.297z" fill="red" fill-opacity=".878"/><path d="M259.403 85.802h-1.494v-12.07h1.494zM273.921 80.19h-8.566v-1.494h8.566zm0 3.47h-8.566v-1.494h8.566zM282.986 73.774q2.042 0 3.071 2.141.739 1.528.78 3.62v.199q0 2.009-.664 3.57-.913 2.15-2.772 2.373-.208.025-.415.025-2.05 0-3.071-2.15-.73-1.535-.772-3.636v-.182q0-2.017.664-3.586.93-2.158 2.805-2.358.191-.016.374-.016zm0 .481q-.764 0-1.004 1.287-.158.83-.158 2.706v2.98q0 2.266.249 3.096.282.888.913.897.772 0 1.02-1.32.15-.83.15-2.673v-2.98q0-2.291-.265-3.13-.283-.854-.905-.863z"/><path d="M220.679 75.352q-1.544.349-2.665 1.602h-1.038q.548-.813.889-1.195h-6.226l.25-1.22h6.225q-.191-.374-.415-1.187h1.037q.614 1.245 2.026 1.594z" fill="green" fill-opacity=".682"/><path d="M251.936 75.352q-1.544.349-2.665 1.602h-1.037q.548-.813.888-1.195h-6.226l.25-1.22h6.225q-.19-.374-.415-1.187h1.038q.614 1.245 2.025 1.594z" fill="red" fill-opacity=".878"/></g></svg>