<svg xmlns="http://www.w3.org/2000/svg" width="345" height="189"><defs><marker id="b" refX="0" refY="0" orient="auto" overflow="visible"><path d="M4.616 0l-6.92 4v-8l6.92 4z" fill-rule="evenodd" stroke="#000" stroke-width=".8pt"/></marker><marker orient="auto" refY="0" refX="0" id="a" overflow="visible"><path d="M4.616 0l-6.92 4v-8l6.92 4z" fill-rule="evenodd" stroke="#000" stroke-width=".8pt"/></marker><marker orient="auto" refY="0" refX="0" id="c" overflow="visible"><path d="M2.308 0l-3.46 2v-4l3.46 2z" fill-rule="evenodd" stroke="#00f" stroke-width=".4pt" fill="#00f"/></marker></defs><path d="M129.051 162.492h107.896" fill="none" stroke="#000" marker-end="url(#a)"/><path d="M143.455 177.533V69.638" fill="none" stroke="#000" marker-end="url(#b)"/><path d="M41.086 63.612l259.355 92.906" fill="none" stroke="#000"/><path d="M139.455 86.663h8m-8 15h8m-8 15h8m-8 15h8m-8 15h8m72 11.83v8m-15-8v8m-15-8v8m-15-8v8m-15-8v8" fill="none" stroke="#000" stroke-linecap="round"/><path d="M143.455 162.492L82.373 139.88" fill="none" stroke="#00f" stroke-width="2" stroke-linecap="round" marker-end="url(#c)"/><path d="M137.393 61.878q1.478-2.806 1.478-3.395 0-.399-.299-.606-.041-.025-.133-.075-.315-.191-.415-.399-.108-.224-.108-.564 0-.498.44-.78.258-.166.54-.166.63 0 .921.523.141.257.141.564-.008 1.287-1.286 3.852-1.395 2.78-2.947 4.598-1.229 1.428-2.258 1.719-.299.083-.59.083-.746 0-1.053-.49-.133-.224-.133-.498 0-.482.365-.797.232-.191.49-.191.431 0 .888.315.365.25.548.283.075.016.14.016.391 0 .873-.506.639-.68.705-1.536.008-.083.008-.157 0-.789-.855-4.79-.299-1.386-.598-1.785-.273-.34-.755-.34v-.457l2.548-.406q.714 1.86 1.121 4.656l.183 1.329zM243.056 166.003l2.806-.406q.473.63.73 1.975.017.083.042.24l.025.125q.091-.116.307-.431.73-1.046 1.203-1.445.548-.464 1.063-.464.63 0 .938.464.166.25.166.548 0 .457-.382.747-.232.175-.49.175-.298 0-.614-.191-.265-.15-.49-.15-.406 0-1.12 1.005-.224.315-.39.597l.54 2.665q.149.772.48.88.067.025.142.025.373 0 .97-.78.026-.034.076-.092.066-.1.1-.133l.356.241q-.68.913-.946 1.195-.822.872-1.635.88-.864 0-1.295-1.228-.158-.473-.34-1.411l-.407.664q-.058.091-.175.299-.53.88-.88 1.211-.506.465-1.095.465-.772 0-1.038-.531-.108-.208-.108-.457 0-.564.399-.846.207-.141.456-.141.357 0 .714.215.257.158.44.158.34 0 .647-.498.025-.025.059-.091.041-.067.058-.091l.747-1.204-.498-2.59q-.233-1.162-.897-1.17-.382 0-.664.033zM294.879 170.224l1.942-4.872q-1.411-.108-2.183-1.013-.772-.905-.515-2.175.067-.34.283-.764h.44q-.208.399-.283.74-.216 1.078.432 1.834.647.747 1.984.98l.091-.233q.83-2.059 2.316-3.27 1.486-1.221 3.171-1.221.789 0 1.204.415.423.415.29 1.08-.232 1.161-1.834 2.207-1.602 1.038-3.628 1.345l-.921 2.324q-.067.158-.424.955l-.406.896q-.208.465-.664 1.196l1.519.53q1.61.574 2.407.574 1.386 0 2.49-1.852l.282.092q-.639 1.278-1.726 2.208-1.088.93-1.95.93-.906 0-2.533-.714l-.647-.283-.847-.332q-1.834 1.328-3.56 1.328-.939 0-1.404-.381-.464-.39-.332-1.063.158-.788.98-1.253.83-.473 2.058-.473.814 0 1.968.265zm3.86-5.329q1.585-.29 2.623-1.07 1.037-.79 1.245-1.852.116-.556-.1-.896-.216-.34-.68-.34-1.428 0-2.79 3.411zm-4.474 6.441q-1.287-.664-2.258-.664-.59 0-1.063.316-.465.315-.556.764-.091.448.232.738.332.283.93.283.73 0 1.494-.407.772-.407 1.22-1.03zM108.65 21.062q1.477-2.805 1.477-3.395 0-.398-.299-.606l-.132-.074q-.316-.191-.415-.399-.108-.224-.108-.564 0-.498.44-.78.257-.166.54-.166.63 0 .92.522.142.258.142.565-.008 1.287-1.287 3.851-1.394 2.781-2.947 4.6-1.228 1.427-2.258 1.717-.298.083-.589.083-.747 0-1.054-.49-.133-.223-.133-.497 0-.482.365-.797.233-.191.49-.191.432 0 .888.315.366.25.548.282.075.017.141.017.39 0 .872-.506.639-.681.705-1.536.008-.083.008-.158 0-.788-.855-4.79-.298-1.385-.597-1.784-.274-.34-.756-.34v-.457l2.549-.406q.714 1.859 1.12 4.656l.183 1.328zM125.467 19.369h-8.566v-1.494h8.566zM134.382 21.062q1.478-2.805 1.478-3.395 0-.398-.3-.606-.04-.024-.132-.074-.315-.191-.415-.399-.108-.224-.108-.564 0-.498.44-.78.257-.166.54-.166.63 0 .921.522.141.258.141.565-.008 1.287-1.287 3.851-1.394 2.781-2.946 4.6-1.229 1.427-2.258 1.717-.299.083-.59.083-.747 0-1.054-.49-.132-.223-.132-.497 0-.482.365-.797.232-.191.49-.191.431 0 .888.315.365.25.548.282.074.017.14.017.39 0 .872-.506.64-.681.706-1.536.008-.083.008-.158 0-.788-.855-4.79-.299-1.385-.598-1.784-.274-.34-.755-.34v-.457l2.548-.406q.714 1.859 1.12 4.656l.183 1.328z"/><path d="M142.69 26.33h-4.121v-.264q.82 0 1.079-.249.21-.205.226-.771V20.73q0-.637-.264-.745-.075-.027-.167-.027-.254.005-.907.259v-.286l2.774-1.203h.2v6.296q0 .653.237.853.172.14.685.172l.259.017z"/><path d="M156.725 17.642h-8.567v-1.494h8.567zm0 3.47h-8.567v-1.494h8.567zM173.459 20.639l.373.216q-.689 1.311-1.402 1.801-.606.423-1.337.423-1.129-.016-1.137-1.12 0-.706.63-2.565l.748-2.208q.116-.357.116-.523 0-.232-.249-.324-.066-.025-.141-.025-.54 0-1.428 1.254-.788 1.129-1.195 2.224-.257.698-.996 3.138h-2.042l1.104-3.52q.764-2.423.764-2.755-.017-.332-.308-.34-.63 0-1.61 1.527-.481.755-.772 1.41-.548 1.27-1.22 3.678h-2.059l1.12-3.943q.615-2.15.615-2.565 0-.365-.556-.406-.066 0-.39-.009v-.456l3.395-.457-1.07 3.379h.016q.78-1.212 1.037-1.553 1.378-1.834 2.673-1.842.963 0 1.112.888.025.15.025.307-.008.59-.44 1.726.74-1.178 1.071-1.602 1.071-1.311 2.291-1.32.988 0 1.237.797.075.233.075.515 0 .63-.39 1.743l-.764 2.183q-.357 1.021-.357 1.304.017.298.266.307.29 0 .689-.565l.157-.232q.233-.349.349-.49zM180.216 11.417v.382q-1.934 1.112-2.383 4.1-.166 1.12-.166 2.98 0 2.466.332 3.827.565 2.29 2.217 3.246v.381q-2.134-.747-3.428-2.722-1.287-1.968-1.353-4.491v-.24q0-2.524 1.236-4.541 1.22-2 3.28-2.823.132-.058.265-.1z"/><path d="M181.129 15.484l2.806-.406q.473.63.73 1.975.017.083.041.24l.025.125q.092-.116.308-.431.73-1.046 1.203-1.445.548-.464 1.063-.464.63 0 .938.464.166.25.166.548 0 .457-.382.747-.233.175-.49.175-.299 0-.614-.191-.266-.15-.49-.15-.407 0-1.12 1.005-.225.315-.39.597l.539 2.665q.15.772.481.88.067.025.141.025.374 0 .972-.78.024-.034.074-.092.067-.1.1-.133l.357.241q-.68.913-.946 1.195-.822.872-1.636.88-.863 0-1.295-1.228-.157-.473-.34-1.411l-.407.664q-.058.09-.174.298-.531.88-.88 1.212-.506.465-1.096.465-.772 0-1.037-.531-.108-.208-.108-.457 0-.564.398-.846.208-.141.457-.141.357 0 .714.215.257.158.44.158.34 0 .647-.498.025-.025.058-.091l.058-.092.747-1.203-.498-2.59q-.232-1.162-.896-1.17-.382 0-.664.033zM202.312 19.369h-8.566v-1.494h8.566zM207.824 15.484l2.806-.406q.473.63.73 1.975.017.083.042.24l.025.125q.091-.116.307-.431.73-1.046 1.203-1.445.548-.464 1.063-.464.63 0 .938.464.166.25.166.548 0 .457-.382.747-.232.175-.49.175-.298 0-.614-.191-.266-.15-.49-.15-.406 0-1.12 1.005-.224.315-.39.597l.54 2.665q.149.772.48.88.067.025.142.025.373 0 .97-.78.026-.034.076-.092.066-.1.1-.133l.356.241q-.68.913-.946 1.195-.822.872-1.635.88-.864 0-1.295-1.228-.158-.473-.34-1.411l-.407.664q-.058.09-.175.298-.531.88-.88 1.212-.506.465-1.095.465-.772 0-1.038-.531-.108-.208-.108-.457 0-.564.399-.846.207-.141.456-.141.357 0 .714.215.257.158.44.158.34 0 .647-.498.025-.025.059-.091.041-.067.058-.092l.747-1.203-.498-2.59q-.233-1.162-.897-1.17-.382 0-.664.033z"/><path d="M220.499 26.33h-4.122v-.264q.82 0 1.079-.249.21-.205.227-.771V20.73q0-.637-.265-.745-.075-.027-.167-.027-.254.005-.907.259v-.286l2.774-1.203h.2v6.296q0 .653.237.853.172.14.685.172l.259.017z"/><path d="M221.368 26.333v-.381q1.934-1.113 2.382-4.101.166-1.12.166-2.98 0-2.465-.332-3.827-.564-2.29-2.216-3.245v-.382q2.133.747 3.428 2.723 1.287 1.967 1.353 4.49v.241q0 2.523-1.237 4.54-1.22 2.001-3.279 2.823-.132.058-.265.1zM215.084 108.295h.506l-.68 3.436-.457-.066q-.124-1.884-1.037-2.499-.523-.34-1.312-.34-.764 0-1.27.606-.39.473-.39 1.046 0 1.037.863 1.776.158.133.897.648l.157.116q1.08.797 1.52 1.361.722.93.722 2.208 0 1.694-1.138 2.69-1.037.904-2.64.904-.937 0-2.232-.406-.598-.191-.764-.191-.315 0-.49.307-.033.058-.14.29h-.515l.614-3.826.49.033q.1 1.602.921 2.49.68.722 1.652.722.988 0 1.635-.672.556-.581.556-1.361 0-1.154-1.129-2.1-.257-.225-.838-.631-1.303-.922-1.793-1.802-.407-.722-.407-1.56 0-1.56 1.13-2.465.97-.78 2.34-.78.905 0 1.718.315.507.199.747.199.548-.008.764-.448zM221.575 108.361v.382q-1.934 1.112-2.382 4.1-.166 1.121-.166 2.98 0 2.466.332 3.827.564 2.291 2.216 3.246v.382q-2.133-.747-3.428-2.723-1.287-1.967-1.353-4.49v-.241q0-2.524 1.237-4.541 1.22-2 3.279-2.822.132-.058.265-.1z"/><path d="M222.488 112.429l2.806-.407q.473.63.73 1.975.017.083.042.241l.025.125q.091-.117.307-.432.73-1.046 1.204-1.444.547-.465 1.062-.465.631 0 .938.465.166.249.166.547 0 .457-.382.748-.232.174-.49.174-.298 0-.614-.191-.265-.15-.49-.15-.406 0-1.12 1.005-.224.315-.39.598l.54 2.664q.149.772.48.88.067.025.142.025.373 0 .971-.78.025-.034.075-.092.066-.1.1-.132l.356.24q-.68.913-.946 1.196-.822.871-1.635.88-.863 0-1.295-1.23-.158-.472-.34-1.41l-.407.664q-.058.091-.175.299-.53.88-.88 1.212-.506.464-1.095.464-.772 0-1.038-.53-.108-.208-.108-.457 0-.565.399-.847.207-.141.456-.141.357 0 .714.216.258.157.44.157.34 0 .648-.498.025-.025.058-.09.041-.067.058-.092l.747-1.204-.498-2.59q-.233-1.162-.897-1.17-.381 0-.664.033z"/><path d="M235.163 123.274h-4.122v-.264q.82 0 1.08-.248.21-.205.226-.772v-4.316q0-.637-.265-.745-.075-.027-.167-.027-.253.005-.906.26v-.287l2.773-1.203h.2v6.297q0 .652.237.852.173.14.685.173l.26.016z"/><path d="M235.02 122.97l-.225-.423q2-1.062 2.009-1.975 0-.349-.34-.548-.059-.025-.166-.083-.407-.208-.54-.432-.15-.249-.15-.614 0-1.046.905-1.254.191-.041.399-.041.83 0 1.179.764.174.381.174.83 0 1.826-2.034 3.137-.556.357-1.212.64zM248.417 118.007q1.477-2.806 1.477-3.395 0-.399-.299-.606-.041-.025-.132-.075-.316-.19-.415-.398-.108-.225-.108-.565 0-.498.44-.78.257-.166.54-.166.63 0 .92.523.142.257.142.564-.008 1.287-1.287 3.852-1.395 2.78-2.947 4.598-1.228 1.428-2.258 1.719-.298.083-.589.083-.747 0-1.054-.49-.133-.224-.133-.498 0-.482.365-.797.233-.19.49-.19.432 0 .888.315.365.249.548.282.075.016.141.016.39 0 .872-.506.639-.68.705-1.536.008-.083.008-.157 0-.789-.855-4.79-.298-1.386-.597-1.785-.274-.34-.756-.34v-.456l2.549-.407q.714 1.86 1.12 4.657l.183 1.328z"/><path d="M256.725 123.274h-4.122v-.264q.82 0 1.08-.248.21-.205.226-.772v-4.316q0-.637-.264-.745-.076-.027-.168-.027-.253.005-.906.26v-.287l2.773-1.203h.2v6.297q0 .652.237.852.173.14.685.173l.26.016z"/><path d="M257.594 123.278v-.382q1.934-1.112 2.382-4.1.166-1.121.166-2.98 0-2.466-.332-3.827-.564-2.291-2.216-3.246v-.382q2.133.747 3.428 2.723 1.287 1.967 1.353 4.49v.241q0 2.524-1.237 4.54-1.22 2.001-3.278 2.823-.133.058-.266.1zM140.255 169.623q0 2.158-1.195 4.175-1.104 1.868-2.84 2.88-1.527.905-3.195.905-1.901 0-3.005-1.104-1.054-1.07-1.054-2.889 0-2.158 1.195-4.175 1.104-1.868 2.839-2.88 1.527-.905 3.196-.905 1.51 0 2.631.888 1.245.996 1.403 2.656.025.225.025.449zm-4.067-3.412q-1.793 0-3.146 2.54-.972 1.835-1.437 4.292-.19 1.02-.19 1.643 0 1.444.763 2.034.374.282.855.282 1.801 0 3.146-2.482.988-1.818 1.436-4.283.191-1.03.191-1.71 0-1.843-1.07-2.225-.25-.09-.548-.09z"/><g><path d="M78.906 117.888q-1.544.349-2.665 1.602h-1.037q.548-.813.888-1.195h-6.226l.25-1.22h6.225q-.191-.374-.415-1.187h1.037q.615 1.245 2.026 1.593zM77.171 120.17q.556 0 .847.466.174.265.174.589-.008 1.104-.614 2.316-1.071 2.142-2.74 3.727-.614.581-1.22.988h-.822l-.821-6.666q-.075-.498-.822-.506-.2 0-.49.05v-.432l3.013-.473.797 6.392q1.57-1.495 2.258-2.972.29-.623.29-.996 0-.274-.29-.531-.299-.266-.382-.399-.158-.24-.158-.573 0-.622.515-.871.208-.108.465-.108zM91.614 122.769h-8.566v-1.494h8.566zm0 3.47h-8.566v-1.494h8.566zM101.89 116.543v.382q-1.933 1.113-2.382 4.1-.166 1.121-.166 2.98 0 2.466.332 3.827.565 2.291 2.217 3.246v.382q-2.134-.747-3.429-2.723-1.286-1.967-1.353-4.49v-.241q0-2.524 1.237-4.54 1.22-2.001 3.28-2.823.132-.058.265-.1z" fill="#00f"/><path d="M110.2 125.641l.373.257q-.655.98-.913 1.279-.871 1.02-1.793 1.029-1.245-.017-1.253-1.087 0-.814.855-3.27.59-1.694.63-1.977.009-.058.009-.09-.017-.35-.34-.358-.581 0-1.511 1.22-.83 1.096-1.295 2.233-.34.83-1.021 3.18h-2.059l2.59-9.555q.166-.589.166-.797 0-.464-.49-.54-.124-.016-.597-.024v-.457l3.553-.514-1.835 7.072q.108-.141.332-.465.872-1.22 1.411-1.735.897-.83 1.752-.838 1.42 0 1.42 1.27 0 .573-.955 3.453-.44 1.353-.54 1.652-.058.19-.058.224 0 .158.207.233.067.016.117.016.265-.016 1.245-1.411z" fill="#007f00"/><path d="M110.773 131.153l-.225-.424q2-1.062 2.01-1.975 0-.349-.341-.548-.058-.025-.166-.083-.407-.208-.54-.432-.15-.249-.15-.614 0-1.046.906-1.253.19-.042.398-.042.83 0 1.179.764.174.382.174.83 0 1.826-2.034 3.138-.556.357-1.211.639z" fill="#00f"/><path d="M126.237 126.986q.481-.017 1.087-1.088l.382.183q-.598 1.237-1.179 1.702-.506.406-1.104.406-.962 0-1.444-1.087-.232-.523-.54-1.942-.107-.49-.174-.756l-.664.457-.847 3.196h-2.075l2.665-9.621q.124-.44.124-.747 0-.415-.249-.498-.116-.042-.755-.05h-.083v-.457l3.553-.514-2.109 7.844q1.594-1.253 2.208-1.851.59-.581.598-.863 0-.307-.299-.382-.158-.042-.556-.067v-.431h3.503v.431q-.839.083-1.66.74-.224.182-.631.547l-1.088.988q.474 2.125.681 2.847.017.042.025.075.224.722.423.871.1.067.208.067z" fill="red"/><path d="M128.785 131.46v-.382q1.934-1.112 2.383-4.1.166-1.121.166-2.98 0-2.466-.332-3.827-.565-2.291-2.217-3.246v-.382q2.134.747 3.428 2.723 1.287 1.967 1.353 4.49v.241q0 2.524-1.236 4.541-1.22 2-3.28 2.822-.132.058-.265.1z" fill="#00f"/></g><path d="M192.284 82.84l.373.216q-.689 1.311-1.402 1.8-.606.424-1.337.424-1.129-.016-1.137-1.12 0-.706.63-2.565l.748-2.208q.116-.357.116-.523 0-.233-.249-.324-.066-.025-.141-.025-.54 0-1.428 1.253-.788 1.13-1.195 2.225-.257.697-.996 3.138h-2.042l1.104-3.52q.764-2.424.764-2.756-.017-.332-.308-.34-.63 0-1.61 1.527-.481.756-.772 1.412-.548 1.27-1.22 3.677h-2.059l1.12-3.943q.615-2.15.615-2.565 0-.365-.556-.407-.066 0-.39-.008v-.457l3.395-.456-1.071 3.378h.017q.78-1.212 1.037-1.552 1.378-1.834 2.673-1.843.963 0 1.112.888.025.15.025.308-.008.589-.44 1.726.74-1.179 1.071-1.602 1.071-1.311 2.291-1.32.988 0 1.237.797.075.233.075.515 0 .63-.39 1.743l-.764 2.183q-.357 1.021-.357 1.303.017.3.266.307.29 0 .689-.564l.157-.233q.233-.348.349-.49zM206.96 79.843h-8.567V78.35h8.567zm0 3.47h-8.567v-1.494h8.567z"/><path d="M217.942 76.872q.481-.017 1.087-1.087l.382.182q-.598 1.237-1.179 1.702-.506.407-1.104.407-.963 0-1.444-1.088-.233-.523-.54-1.942-.108-.49-.174-.756l-.664.457-.847 3.196h-2.075l2.665-9.62q.124-.44.124-.748 0-.415-.249-.498-.116-.041-.755-.05h-.083v-.456l3.552-.515-2.108 7.844q1.594-1.253 2.208-1.85.59-.582.598-.864 0-.307-.3-.382-.157-.041-.555-.066v-.432h3.503v.432q-.839.083-1.66.738-.225.183-.631.548l-1.088.988q.473 2.125.68 2.847.017.042.026.075.224.722.423.872.1.066.208.066z" fill="red"/><path d="M219.967 81.57h-8.566v-1.494h8.566z"/><path d="M219.656 93.04l.373.258q-.655.98-.913 1.279-.871 1.02-1.793 1.029-1.245-.017-1.253-1.088 0-.813.855-3.27.59-1.693.63-1.976.009-.058.009-.09-.017-.35-.34-.358-.582 0-1.511 1.22-.83 1.096-1.295 2.233-.34.83-1.021 3.18h-2.059l2.59-9.555q.166-.59.166-.797 0-.464-.49-.54-.124-.016-.597-.024v-.457l3.552-.514-1.834 7.072q.108-.141.332-.465.872-1.22 1.411-1.735.897-.83 1.752-.838 1.419 0 1.419 1.27 0 .573-.955 3.453-.44 1.353-.54 1.652-.057.19-.057.224 0 .158.207.232.067.017.116.017.266-.017 1.246-1.411z" fill="#007f00"/><circle r="3.5" cy="119.581" cx="197.33" fill="#db3d28" fill-opacity=".996"/><path d="M143.455 162.492H78.343" fill="none" stroke="#007f00" stroke-width="2" stroke-linecap="round"/><path d="M76.794 140.012v20" fill="none" stroke="red" stroke-width="2" stroke-linecap="round"/><path d="M110.87 174.964l.374.257q-.655.98-.913 1.278-.871 1.021-1.793 1.03-1.245-.017-1.253-1.088 0-.813.855-3.27.59-1.694.63-1.976.009-.058.009-.091-.017-.349-.34-.357-.582 0-1.511 1.22-.83 1.096-1.295 2.233-.34.83-1.021 3.18h-2.059l2.59-9.555q.166-.59.166-.797 0-.465-.49-.54-.124-.016-.597-.024v-.457l3.552-.515-1.834 7.073q.108-.141.332-.465.872-1.22 1.411-1.735.897-.83 1.752-.838 1.419 0 1.419 1.27 0 .572-.955 3.453-.44 1.353-.54 1.652-.057.19-.057.224 0 .157.207.232.067.017.116.017.266-.017 1.246-1.411z" fill="#007f00"/><path d="M71.752 154.818q.481-.017 1.087-1.087l.382.182q-.598 1.237-1.179 1.702-.506.407-1.104.407-.963 0-1.444-1.088-.233-.523-.54-1.942-.108-.49-.174-.755l-.664.456-.847 3.196h-2.075l2.665-9.62q.124-.44.124-.748 0-.415-.249-.498-.116-.041-.755-.05h-.083v-.456l3.552-.515-2.108 7.844q1.594-1.253 2.208-1.85.59-.582.598-.864 0-.307-.3-.382-.157-.041-.555-.066v-.432h3.503v.432q-.839.083-1.66.739-.225.182-.631.547l-1.088.988q.473 2.125.68 2.847.017.042.026.075.224.722.423.872.1.066.208.066z" fill="red"/></svg>