<svg xmlns="http://www.w3.org/2000/svg" height="189" width="345"><defs><marker orient="auto" refY="0" refX="0" id="b" overflow="visible"><path d="M4.616 0l-6.92 4v-8l6.92 4z" fill-rule="evenodd" stroke="#000" stroke-width=".8pt"/></marker><marker id="a" refX="0" refY="0" orient="auto" overflow="visible"><path d="M4.616 0l-6.92 4v-8l6.92 4z" fill-rule="evenodd" stroke="#000" stroke-width=".8pt"/></marker><marker id="c" refX="0" refY="0" orient="auto" overflow="visible"><path d="M2.308 0l-3.46 2v-4l3.46 2z" fill-rule="evenodd" stroke="#d21900" stroke-width=".4pt" fill="#d21900"/></marker></defs><path d="M130.661 136.104h107.895" fill="none" stroke="#000" marker-end="url(#a)"/><path d="M145.064 151.145V43.249" fill="none" stroke="#000" marker-end="url(#b)"/><path d="M70.658 8.81L272.03 180.19" fill="none" stroke="#000"/><path d="M204.376 122.613l-59.312 13.49M108.519 41.032l36.545 95.072" fill="none" stroke="#000" stroke-width="2" stroke-linecap="round"/><path d="M141.064 60.274h8m-8 15h8m-8 15h8m-8 15h8m-8 15h8m72 11.83v8m-15-8v8m-15-8v8m-15-8v8m-15-8v8" fill="none" stroke="#000" stroke-linecap="round"/><path d="M171.416 94.562l-26.352 41.542" fill="none" stroke="#000" stroke-width="2" stroke-linecap="round"/><path d="M204.376 122.613l-91.75-78.086" fill="none" stroke="#d21900" stroke-width="2" stroke-linecap="round" marker-end="url(#c)"/><path d="M67.508 42.249v.423q-.789.091-1.113.647-.133.233-.232.581l-1.494 5.247q-.556 1.925-1.08 2.822-.846 1.428-2.373 1.81-.623.149-1.378.149-2.142 0-3.146-.996-.698-.698-.698-1.777 0-.821.631-3.212l.864-3.279q.257-.963.257-1.303 0-.44-.29-.556-.15-.058-.856-.125-.05-.008-.091-.008v-.423h5.288v.423q-.889.033-1.22.423-.208.25-.382.872l-1.777 6.54q-.074.291-.074.748.016 1.71 2.075 1.718 1.818 0 2.747-1.71.407-.747.847-2.349.008-.033.025-.091l.971-3.553q.324-1.154.324-1.627 0-.971-1.345-.971v-.423zM72.604 42.107v.382q-1.934 1.113-2.382 4.1-.166 1.122-.166 2.98 0 2.466.332 3.828.564 2.29 2.216 3.245v.382q-2.133-.747-3.428-2.723-1.287-1.967-1.353-4.49v-.241q0-2.524 1.237-4.54 1.22-2.001 3.279-2.823.132-.058.265-.1z" /><path d="M73.517 46.175l2.806-.407q.473.631.73 1.976.017.083.042.24l.025.125q.091-.116.307-.432.73-1.046 1.204-1.444.547-.465 1.062-.465.631 0 .938.465.166.249.166.548 0 .456-.382.747-.232.174-.49.174-.298 0-.614-.19-.265-.15-.49-.15-.406 0-1.12 1.004-.224.316-.39.598l.54 2.664q.149.772.48.88.067.025.142.025.373 0 .971-.78.025-.033.075-.091.066-.1.1-.133l.356.24q-.68.914-.946 1.196-.822.871-1.635.88-.863 0-1.295-1.229-.158-.473-.34-1.41l-.407.663q-.058.092-.175.299-.53.88-.88 1.212-.506.465-1.095.465-.772 0-1.038-.531-.108-.208-.108-.457 0-.564.399-.847.207-.14.456-.14.357 0 .714.215.258.158.44.158.34 0 .648-.498.025-.025.058-.092.041-.066.058-.09l.747-1.205-.498-2.59q-.233-1.161-.897-1.17-.381 0-.664.033zM80.523 56.717l-.224-.423q2-1.063 2.009-1.976 0-.349-.34-.548-.059-.025-.166-.083-.407-.207-.54-.432-.15-.249-.15-.614 0-1.046.905-1.253.191-.042.399-.042.83 0 1.178.764.175.382.175.83 0 1.826-2.034 3.138-.556.357-1.212.639zM93.92 51.753q1.478-2.806 1.478-3.395 0-.398-.299-.606-.041-.025-.132-.075-.316-.19-.415-.398-.108-.224-.108-.565 0-.498.44-.78.257-.166.54-.166.63 0 .92.523.142.257.142.565-.009 1.286-1.287 3.851-1.395 2.78-2.947 4.599-1.228 1.427-2.258 1.718-.298.083-.589.083-.747 0-1.054-.49-.133-.224-.133-.498 0-.481.365-.797.233-.19.49-.19.432 0 .888.315.365.249.548.282.075.017.141.017.39 0 .872-.507.639-.68.705-1.535.009-.083.009-.158 0-.789-.855-4.79-.3-1.386-.598-1.784-.274-.34-.755-.34v-.457l2.548-.407q.714 1.86 1.12 4.657l.183 1.328zM97.573 57.024v-.382q1.934-1.112 2.382-4.1.166-1.121.166-2.98 0-2.466-.332-3.827-.564-2.291-2.216-3.246v-.382q2.133.748 3.428 2.723 1.287 1.967 1.353 4.49v.242q0 2.523-1.237 4.54-1.22 2-3.278 2.822-.133.059-.266.1zM139.003 35.489q1.478-2.806 1.478-3.395 0-.399-.299-.606-.041-.025-.133-.075-.315-.19-.415-.398-.108-.224-.108-.565 0-.498.44-.78.258-.166.54-.166.63 0 .921.523.141.257.141.564-.008 1.287-1.286 3.852-1.395 2.78-2.947 4.598-1.229 1.428-2.258 1.719-.299.083-.59.083-.746 0-1.054-.49-.132-.224-.132-.498 0-.481.365-.797.232-.19.49-.19.431 0 .888.315.365.249.548.282.074.016.14.016.391 0 .872-.506.64-.68.706-1.536.008-.083.008-.157 0-.789-.855-4.79-.299-1.386-.598-1.784-.274-.34-.755-.34v-.457l2.548-.407q.714 1.86 1.12 4.657l.184 1.328zM244.666 139.615l2.806-.407q.473.63.73 1.975.017.083.042.241l.025.125q.09-.117.307-.432.73-1.046 1.203-1.444.548-.465 1.063-.465.63 0 .938.465.166.249.166.547 0 .457-.382.748-.232.174-.49.174-.299 0-.614-.191-.266-.15-.49-.15-.406 0-1.12 1.005-.224.315-.39.598l.54 2.664q.148.772.48.88.067.025.142.025.373 0 .97-.78.026-.034.076-.092.066-.1.1-.132l.356.24q-.68.913-.946 1.196-.822.871-1.635.88-.864 0-1.295-1.23-.158-.472-.34-1.41l-.407.664q-.059.091-.175.299-.531.88-.88 1.212-.506.464-1.095.464-.772 0-1.038-.53-.108-.208-.108-.457 0-.565.399-.847.207-.141.456-.141.357 0 .714.216.257.157.44.157.34 0 .647-.498.025-.025.058-.091l.059-.091.747-1.204-.498-2.59q-.233-1.162-.897-1.17-.382 0-.664.033zM279.802 177.666l1.942-4.873q-1.411-.108-2.183-1.012-.772-.905-.515-2.175.067-.34.282-.764h.44q-.207.399-.282.739-.216 1.079.432 1.834.647.747 1.984.98l.09-.233q.831-2.058 2.317-3.27 1.486-1.22 3.17-1.22.79 0 1.204.415.424.415.29 1.079-.232 1.162-1.834 2.208-1.602 1.038-3.627 1.345l-.921 2.324q-.067.158-.424.954l-.406.897q-.208.465-.665 1.195l1.52.531q1.61.573 2.407.573 1.386 0 2.49-1.85l.282.09q-.639 1.279-1.726 2.208-1.088.93-1.951.93-.905 0-2.532-.714l-.647-.282-.847-.332q-1.834 1.328-3.561 1.328-.938 0-1.403-.382-.465-.39-.332-1.062.158-.789.98-1.254.83-.473 2.058-.473.814 0 1.968.266zm3.86-5.33q1.585-.29 2.622-1.07 1.038-.789 1.246-1.851.116-.556-.1-.897-.216-.34-.68-.34-1.428 0-2.79 3.412zm-4.475 6.442q-1.286-.664-2.258-.664-.589 0-1.062.316-.465.315-.556.763-.091.448.232.739.332.282.93.282.73 0 1.494-.407.772-.406 1.22-1.029zM184.858 79.88l-.615 3.262-.456-.033q-.017-1.503-.565-2.076-.53-.54-1.776-.556l-2.3 8.31q-.29 1.029-.29 1.261.017.772 1.411.78v.424h-5.628v-.424q.922 0 1.329-.373.315-.29.473-.855l2.523-9.123q-1.917.009-2.972 1.254-.39.465-.738 1.17l-.424-.116.664-2.905zM189.664 79.738v.382q-1.934 1.113-2.382 4.1-.167 1.122-.167 2.98 0 2.466.333 3.828.564 2.29 2.216 3.245v.382q-2.133-.747-3.428-2.723-1.287-1.967-1.353-4.49V87.2q0-2.524 1.236-4.54 1.22-2.001 3.28-2.823.132-.058.265-.1z" /><path d="M190.577 83.806l2.806-.407q.473.631.73 1.976.017.083.042.24l.024.125q.092-.116.308-.432.73-1.046 1.203-1.444.548-.465 1.063-.465.63 0 .938.465.166.249.166.548 0 .456-.382.747-.233.174-.49.174-.299 0-.614-.19-.266-.15-.49-.15-.407 0-1.12 1.004-.225.316-.39.598l.539 2.664q.15.772.481.88.067.025.141.025.374 0 .972-.78.025-.033.074-.091.067-.1.1-.133l.357.24q-.68.914-.946 1.196-.822.871-1.636.88-.863 0-1.295-1.229-.157-.473-.34-1.41l-.407.663q-.058.092-.174.299-.531.88-.88 1.212-.506.465-1.096.465-.772 0-1.037-.531-.108-.208-.108-.457 0-.564.398-.847.208-.14.457-.14.357 0 .714.215.257.158.44.158.34 0 .647-.498.025-.025.058-.092l.058-.09.747-1.205-.498-2.59q-.232-1.162-.896-1.17-.382 0-.664.033z" /><path d="M203.662 92.32l-.507 2.332h-4.587v-.254l1.678-1.845q.491-.54.907-1.236.54-.9.54-1.51 0-.94-.6-1.312-.307-.188-.712-.188-.852.005-1.348.998h-.313q.755-2.25 2.465-2.256 1.036 0 1.587.696.426.54.426 1.328-.005 1.198-1.09 2.239l-1.959 1.872h1.543q.842 0 1.123-.113.28-.114.448-.453.059-.125.124-.297z" /><path d="M203.108 94.348l-.224-.423q2-1.063 2.008-1.976 0-.349-.34-.548-.058-.025-.166-.083-.407-.207-.54-.432-.149-.249-.149-.614 0-1.046.905-1.253.19-.042.398-.042.83 0 1.18.764.173.382.173.83 0 1.826-2.033 3.138-.556.357-1.212.639zM216.505 89.384q1.478-2.806 1.478-3.395 0-.398-.3-.606-.04-.025-.132-.075-.315-.19-.415-.398-.108-.224-.108-.565 0-.498.44-.78.257-.166.54-.166.63 0 .921.523.141.257.141.565-.008 1.286-1.286 3.851-1.395 2.78-2.947 4.599-1.229 1.427-2.258 1.718-.299.083-.59.083-.746 0-1.054-.49-.132-.224-.132-.498 0-.481.365-.797.232-.19.49-.19.431 0 .888.315.365.249.548.282.074.017.14.017.39 0 .872-.507.64-.68.706-1.535.008-.083.008-.158 0-.789-.855-4.79-.299-1.386-.598-1.784-.274-.34-.755-.34v-.457l2.548-.407q.714 1.86 1.12 4.657l.183 1.328z" /><path d="M225.224 92.32l-.507 2.332h-4.586v-.254l1.678-1.845q.49-.54.906-1.236.54-.9.54-1.51 0-.94-.6-1.312-.307-.188-.712-.188-.852.005-1.348.998h-.313q.755-2.25 2.465-2.256 1.036 0 1.587.696.426.54.426 1.328-.005 1.198-1.09 2.239l-1.959 1.872h1.544q.841 0 1.122-.113.28-.114.448-.453.059-.125.124-.297z" /><path d="M225.683 94.655v-.382q1.934-1.112 2.382-4.1.166-1.121.166-2.98 0-2.466-.332-3.827-.565-2.291-2.216-3.246v-.382q2.133.748 3.428 2.723 1.286 1.967 1.353 4.49v.242q0 2.523-1.237 4.54-1.22 2-3.279 2.822-.133.058-.265.1zM216.243 111.672h.506l-.68 3.437-.457-.067q-.124-1.884-1.038-2.498-.522-.34-1.311-.34-.764 0-1.27.605-.39.473-.39 1.046 0 1.038.863 1.777.158.132.897.647l.157.116q1.08.797 1.52 1.362.721.93.721 2.208 0 1.693-1.137 2.689-1.037.905-2.64.905-.937 0-2.232-.407-.598-.19-.764-.19-.315 0-.49.306-.033.058-.14.29h-.515l.614-3.826.49.033q.1 1.602.92 2.49.682.723 1.653.723.988 0 1.635-.673.556-.58.556-1.361 0-1.154-1.129-2.1-.257-.224-.838-.63-1.303-.922-1.793-1.802-.407-.722-.407-1.56 0-1.561 1.13-2.466.97-.78 2.34-.78.905 0 1.718.315.507.2.747.2.548-.009.764-.449zM222.734 111.738v.382q-1.934 1.113-2.382 4.1-.166 1.122-.166 2.98 0 2.466.332 3.828.564 2.29 2.216 3.245v.382q-2.133-.747-3.428-2.723-1.287-1.967-1.353-4.49v-.241q0-2.524 1.237-4.54 1.22-2.001 3.279-2.823.132-.058.265-.1z" /><path d="M223.647 115.806l2.806-.407q.473.631.73 1.976.017.083.042.24l.025.125q.091-.116.307-.432.73-1.046 1.204-1.444.547-.465 1.062-.465.63 0 .938.465.166.249.166.548 0 .456-.382.747-.232.174-.49.174-.298 0-.614-.19-.265-.15-.49-.15-.406 0-1.12 1.004-.224.316-.39.598l.54 2.664q.149.772.48.88.067.025.142.025.373 0 .971-.78.025-.033.075-.091.066-.1.1-.133l.356.24q-.68.914-.946 1.196-.822.871-1.635.88-.864 0-1.295-1.229-.158-.473-.34-1.41l-.407.663q-.058.092-.175.299-.53.88-.88 1.212-.506.465-1.095.465-.772 0-1.038-.531-.108-.208-.108-.457 0-.564.399-.847.207-.14.456-.14.357 0 .714.215.257.158.44.158.34 0 .648-.498.024-.025.058-.092.041-.066.058-.09l.747-1.205-.498-2.59q-.233-1.161-.897-1.17-.382 0-.664.033z" /><path d="M236.322 126.652H232.2v-.265q.82 0 1.08-.248.21-.205.226-.771V121.05q0-.637-.265-.744-.075-.027-.167-.027-.254.005-.906.259v-.286l2.773-1.204h.2v6.297q0 .653.237.852.173.14.685.173l.26.016z" /><path d="M236.178 126.348l-.224-.423q2-1.063 2.009-1.976 0-.349-.34-.548-.059-.025-.167-.083-.406-.207-.54-.432-.149-.249-.149-.614 0-1.046.905-1.253.191-.042.399-.042.83 0 1.178.764.175.382.175.83 0 1.826-2.034 3.138-.556.357-1.212.639zM249.576 121.384q1.477-2.806 1.477-3.395 0-.398-.299-.606-.041-.025-.133-.075-.315-.19-.415-.398-.107-.224-.107-.565 0-.498.44-.78.257-.166.539-.166.63 0 .921.523.141.257.141.565-.008 1.286-1.286 3.851-1.395 2.78-2.947 4.599-1.228 1.427-2.258 1.718-.299.083-.59.083-.746 0-1.053-.49-.133-.224-.133-.498 0-.481.365-.797.233-.19.49-.19.432 0 .888.315.365.249.548.282.075.017.141.017.39 0 .872-.507.639-.68.705-1.535.008-.083.008-.158 0-.789-.855-4.79-.299-1.386-.597-1.784-.274-.34-.756-.34v-.457l2.549-.407q.713 1.86 1.12 4.657l.183 1.328z" /><path d="M257.884 126.652h-4.122v-.265q.82 0 1.08-.248.21-.205.226-.771V121.05q0-.637-.265-.744-.075-.027-.167-.027-.253.005-.906.259v-.286l2.773-1.204h.2v6.297q0 .653.237.852.173.14.685.173l.26.016z" /><path d="M258.753 126.655v-.382q1.934-1.112 2.382-4.1.166-1.121.166-2.98 0-2.466-.332-3.827-.564-2.291-2.216-3.246v-.382q2.133.748 3.428 2.723 1.287 1.967 1.353 4.49v.242q0 2.523-1.237 4.54-1.22 2-3.278 2.822-.133.058-.266.1zM141.865 143.234q0 2.158-1.196 4.175-1.104 1.868-2.838 2.88-1.528.905-3.196.905-1.901 0-3.005-1.104-1.054-1.07-1.054-2.888 0-2.159 1.195-4.176 1.104-1.867 2.839-2.88 1.527-.905 3.196-.905 1.51 0 2.631.888 1.245.996 1.403 2.657.025.224.025.448zm-4.068-3.412q-1.793 0-3.146 2.54-.97 1.835-1.436 4.292-.19 1.02-.19 1.643 0 1.445.763 2.034.374.282.855.282 1.801 0 3.146-2.482.988-1.818 1.436-4.283.191-1.03.191-1.71 0-1.843-1.07-2.224-.25-.092-.549-.092zM123.268 104.363q-1.544.349-2.664 1.602h-1.038q.548-.813.888-1.195h-6.225l.249-1.22h6.225q-.19-.374-.415-1.187h1.038q.614 1.245 2.025 1.594zM116.047 114.681q-1.312-.016-1.32-1.336 0-.59.705-2.988.581-1.951.581-2.267-.016-.415-.98-.481v-.457l3.57-.473-1.585 5.13q-.274.872-.274 1.229 0 .423.448.423.523 0 1.444-1.345.606-.871.988-1.718.473-1.054 1.137-3.503h2l-1.319 4.524q-.432 1.486-.432 1.801.017.3.233.307.432 0 1.212-1.211.008-.025.025-.042l.373.216q-.722 1.228-1.353 1.71-.63.481-1.353.481-1.145-.016-1.154-1.012 0-.499.432-1.876-.116.157-.349.49-.78 1.137-1.261 1.593-.855.805-1.768.805z" /><g fill="#d21900"><path  d="M176.207 59.398q-1.544.348-2.665 1.602h-1.037q.547-.814.888-1.196h-6.226l.25-1.22h6.225q-.191-.373-.415-1.187h1.037q.615 1.245 2.026 1.594zM168.985 69.715q-1.311-.016-1.32-1.336 0-.59.706-2.988.58-1.951.58-2.266-.016-.415-.979-.482v-.456l3.57-.474-1.586 5.13q-.274.872-.274 1.229 0 .423.449.423.523 0 1.444-1.345.606-.871.988-1.718.473-1.054 1.137-3.503h2l-1.32 4.524q-.431 1.486-.431 1.801.017.3.232.308.432 0 1.212-1.212.008-.025.025-.042l.374.216q-.722 1.229-1.353 1.71-.631.481-1.353.481-1.146-.016-1.154-1.012 0-.498.431-1.876-.116.157-.348.49-.78 1.137-1.262 1.593-.855.805-1.768.805zM190.252 66.005h-8.567v-1.494h8.567zM197.482 63.25q.008.505.855 1.485 1.029 1.195 1.311 2.017.158.448.158.855 0 1.17-.996 1.776-.673.407-1.52.407-.555 0-1.211-.24-.266-.1-.382-.1-.357.008-.498.34h-.457l.374-2.822.456.05q.3 2.25 1.586 2.257.606 0 .888-.423.133-.216.133-.465 0-.689-.814-1.643-.116-.141-.307-.349-.78-.863-1.012-1.536-.183-.514-.183-1.153 0-1.245 1.08-1.744.53-.249 1.203-.249.54 0 1.02.225.333.149.565.149.316 0 .498-.34.008-.009.008-.017h.49l-.39 2.615-.457-.033q-.398-2.042-1.394-2.042-.996.016-1.005.98zM215.054 64.278h-8.566v-1.494h8.566zm0 3.47h-8.566v-1.494h8.566zM222.592 65.266h.016q.125-.216.407-.78.697-1.403 1.154-1.967.664-.797 1.344-.806.698 0 .905.665.067.215.067.464 0 .598-.332.972-.233.249-.557.257-.506 0-.763-.34-.166-.216-.2-.241-.074-.058-.174-.058-.54 0-1.51 2.2-.524 1.186-.856 2.249l-.523 1.685h-2.058q1.735-5.902 1.735-6.491 0-.349-.432-.407-.124-.017-.523-.025v-.456l3.403-.474zM231.938 58.053v.382q-1.934 1.112-2.382 4.1-.166 1.12-.166 2.98 0 2.466.332 3.827.564 2.29 2.216 3.245v.382q-2.133-.747-3.428-2.722-1.287-1.968-1.353-4.491v-.24q0-2.524 1.237-4.541 1.22-2 3.279-2.823.132-.058.265-.1zM233.109 69.715q-1.138-.016-1.146-1.104 0-.34.39-1.834.399-1.494.789-2.814l.39-1.32h-.888v-.59q1.46-.464 2.448-1.634.34-.416.681-.955h.598l-.664 2.465h1.22v.714h-1.403l-.971 3.37q-.515 1.868-.515 2.15.008.357.274.365.432-.016 1.295-1.36l.39.256q-.73 1.146-1.261 1.619-.748.672-1.627.672zM250.25 66.005h-8.567v-1.494h8.567zM257.48 63.25q.008.505.855 1.485 1.029 1.195 1.311 2.017.158.448.158.855 0 1.17-.996 1.776-.673.407-1.52.407-.555 0-1.211-.24-.266-.1-.382-.1-.357.008-.498.34h-.457l.374-2.822.457.05q.298 2.25 1.585 2.257.606 0 .888-.423.133-.216.133-.465 0-.689-.814-1.643-.116-.141-.307-.349-.78-.863-1.012-1.536-.183-.514-.183-1.153 0-1.245 1.08-1.744.53-.249 1.203-.249.54 0 1.02.225.333.149.565.149.316 0 .498-.34.008-.009.008-.017h.49l-.39 2.615-.457-.033q-.398-2.042-1.394-2.042-.996.016-1.005.98zM261.887 72.97v-.383q1.934-1.112 2.383-4.1.166-1.12.166-2.98 0-2.465-.332-3.827-.565-2.29-2.217-3.245v-.382q2.134.747 3.429 2.722 1.286 1.968 1.353 4.491v.24q0 2.524-1.237 4.541-1.22 2-3.279 2.823-.133.058-.266.1zM202.213 59.398q-1.544.348-2.665 1.602h-1.037q.548-.814.888-1.196h-6.226l.25-1.22h6.225q-.19-.373-.415-1.187h1.038q.614 1.245 2.025 1.594z"/><path  d="M262.211 59.398q-1.544.348-2.665 1.602h-1.037q.548-.814.888-1.196h-6.226l.25-1.22h6.225q-.19-.373-.415-1.187h1.038q.614 1.245 2.025 1.594zM238.923 55.862q-1.544.349-2.664 1.602h-1.038q.548-.814.888-1.195h-6.225l.249-1.22h6.225q-.19-.374-.415-1.188h1.038q.614 1.246 2.025 1.594z"/></g></svg>