<svg xmlns="http://www.w3.org/2000/svg" width="345" height="189"><defs><marker id="b" refX="0" refY="0" orient="auto" overflow="visible"><path d="M4.616 0l-6.92 4v-8l6.92 4z" fill-rule="evenodd" stroke="#000" stroke-width=".8pt"/></marker><marker orient="auto" refY="0" refX="0" id="a" overflow="visible"><path d="M4.616 0l-6.92 4v-8l6.92 4z" fill-rule="evenodd" stroke="#000" stroke-width=".8pt"/></marker></defs><path d="M243.508 146.935l2.806-.407q.473.63.73 1.975.017.084.042.241l.025.125q.091-.116.307-.432.73-1.046 1.203-1.444.548-.465 1.063-.465.63 0 .938.465.166.249.166.548 0 .456-.382.747-.232.174-.49.174-.298 0-.614-.19-.265-.15-.49-.15-.406 0-1.12 1.004-.224.315-.39.598l.54 2.664q.149.772.48.88.067.025.142.025.373 0 .971-.78.025-.033.075-.092.066-.1.1-.132l.356.24q-.68.913-.946 1.196-.822.871-1.635.88-.864 0-1.295-1.229-.158-.473-.34-1.411l-.407.664q-.058.091-.175.299-.53.88-.88 1.212-.506.465-1.095.465-.772 0-1.038-.532-.108-.207-.108-.456 0-.565.399-.847.207-.141.456-.141.357 0 .714.216.257.158.44.158.34 0 .647-.499.025-.024.059-.09.041-.067.058-.092l.747-1.204-.498-2.59q-.233-1.162-.897-1.17-.382 0-.664.033z"/><path d="M129.503 143.424H237.4" fill="none" stroke="#000" marker-end="url(#a)"/><path d="M143.907 158.465V50.57" fill="none" stroke="#000" marker-end="url(#b)"/><path d="M40.636 42.739l260.904 94.71" fill="none" stroke="#000"/><path d="M139.907 67.594h8m-8 15h8m-8 15h8m-8 15h8m-8 15h8m72 11.83v8m-15-8v8m-15-8v8m-15-8v8m-15-8v8" fill="none" stroke="#000" stroke-linecap="round"/><path d="M61.19 30.486v.381q-1.933 1.113-2.382 4.101-.166 1.12-.166 2.98 0 2.465.332 3.827.565 2.29 2.217 3.245v.382q-2.134-.747-3.428-2.723-1.287-1.967-1.354-4.49v-.241q0-2.523 1.237-4.54 1.22-2.001 3.28-2.823.132-.058.265-.1z"/><path d="M62.104 34.553l2.805-.407q.474.631.731 1.976.017.083.041.24l.025.125q.092-.116.307-.432.731-1.046 1.204-1.444.548-.465 1.063-.465.63 0 .938.465.166.25.166.548 0 .456-.382.747-.233.174-.49.174-.299 0-.614-.19-.266-.15-.49-.15-.407 0-1.12 1.004-.225.316-.39.598l.539 2.665q.15.772.481.88.067.024.141.024.374 0 .972-.78.024-.033.074-.091.067-.1.1-.133l.357.24q-.68.914-.946 1.196-.822.872-1.636.88-.863 0-1.295-1.229-.157-.473-.34-1.41l-.407.663q-.058.092-.174.3-.531.879-.88 1.211-.506.465-1.096.465-.772 0-1.037-.531-.108-.208-.108-.457 0-.564.398-.847.208-.14.457-.14.357 0 .714.215.257.158.44.158.34 0 .647-.498.025-.025.058-.092l.058-.09.747-1.204-.498-2.59q-.232-1.162-.896-1.17-.382 0-.664.032zM69.11 45.095l-.224-.423q2-1.063 2.008-1.976 0-.349-.34-.548-.058-.025-.166-.083-.407-.207-.54-.432-.149-.249-.149-.614 0-1.046.905-1.253.19-.042.398-.042.83 0 1.179.764.174.382.174.83 0 1.826-2.033 3.138-.557.357-1.212.639zM82.507 40.131q1.478-2.806 1.478-3.395 0-.398-.3-.606-.04-.025-.132-.075-.315-.19-.415-.398-.108-.224-.108-.565 0-.498.44-.78.257-.166.54-.166.63 0 .921.523.141.257.141.565-.008 1.286-1.287 3.851-1.394 2.78-2.946 4.599-1.229 1.428-2.258 1.718-.299.083-.59.083-.747 0-1.054-.49-.132-.224-.132-.498 0-.481.365-.797.232-.19.49-.19.431 0 .888.315.365.249.548.282.074.017.14.017.39 0 .872-.507.64-.68.706-1.535.008-.083.008-.158 0-.789-.855-4.79-.299-1.386-.598-1.784-.273-.34-.755-.34v-.457l2.548-.407q.714 1.86 1.121 4.657l.183 1.328zM86.16 45.402v-.382q1.934-1.112 2.382-4.1.166-1.121.166-2.98 0-2.466-.332-3.827-.565-2.291-2.217-3.246v-.381q2.134.747 3.429 2.722 1.286 1.967 1.353 4.49v.242q0 2.523-1.237 4.54-1.22 2-3.279 2.822-.133.059-.266.1zM137.845 42.809q1.478-2.806 1.478-3.395 0-.399-.299-.606-.041-.025-.133-.075-.315-.19-.415-.398-.108-.224-.108-.565 0-.498.44-.78.258-.166.54-.166.63 0 .921.523.141.257.141.564-.008 1.287-1.286 3.852-1.395 2.78-2.947 4.599-1.229 1.427-2.258 1.718-.299.083-.59.083-.746 0-1.053-.49-.133-.224-.133-.498 0-.481.365-.797.232-.19.49-.19.431 0 .888.315.365.249.548.282.075.017.141.017.39 0 .872-.507.639-.68.705-1.535.008-.083.008-.158 0-.789-.855-4.79-.299-1.386-.598-1.784-.273-.34-.755-.34v-.457l2.548-.407q.714 1.86 1.121 4.657l.183 1.328zM295.33 151.156l1.943-4.873q-1.411-.108-2.183-1.013-.772-.905-.515-2.175.067-.34.283-.763h.44q-.208.398-.283.739-.216 1.079.432 1.834.647.747 1.984.98l.091-.233q.83-2.059 2.316-3.27 1.486-1.22 3.171-1.22.789 0 1.204.414.423.415.29 1.08-.232 1.162-1.834 2.208-1.602 1.037-3.628 1.344l-.921 2.324q-.067.158-.424.955l-.406.897q-.208.464-.664 1.195l1.519.531q1.61.573 2.407.573 1.386 0 2.49-1.851l.282.091q-.639 1.278-1.726 2.208-1.088.93-1.95.93-.906 0-2.533-.714l-.647-.282-.847-.332q-1.834 1.328-3.56 1.328-.939 0-1.404-.382-.464-.39-.332-1.063.158-.788.98-1.253.83-.473 2.058-.473.814 0 1.968.266zm3.86-5.33q1.586-.29 2.624-1.07 1.037-.789 1.245-1.851.116-.557-.1-.897-.216-.34-.68-.34-1.428 0-2.79 3.411zm-4.474 6.442q-1.286-.664-2.257-.664-.59 0-1.063.315-.465.316-.556.764-.091.448.232.739.332.282.93.282.73 0 1.494-.407.772-.407 1.22-1.03zM70.047 75.023l-.614 3.262-.457-.033q-.016-1.503-.564-2.076-.531-.54-1.776-.556l-2.3 8.31q-.29 1.029-.29 1.261.016.772 1.411.78v.424h-5.628v-.424q.921 0 1.328-.373.316-.29.473-.855l2.524-9.123q-1.918.009-2.972 1.254-.39.465-.739 1.17l-.423-.116.664-2.905zM74.853 74.882v.381q-1.934 1.113-2.382 4.101-.166 1.12-.166 2.98 0 2.465.332 3.827.565 2.29 2.216 3.245v.382q-2.133-.747-3.428-2.723-1.286-1.967-1.353-4.49v-.241q0-2.523 1.237-4.54 1.22-2.001 3.279-2.823.133-.058.265-.1z"/><path d="M75.767 78.949l2.805-.407q.473.631.73 1.976.017.083.042.24l.025.125q.091-.116.307-.432.73-1.046 1.204-1.444.548-.465 1.062-.465.631 0 .938.465.166.25.166.548 0 .456-.382.747-.232.174-.49.174-.298 0-.614-.19-.265-.15-.49-.15-.406 0-1.12 1.004-.224.316-.39.598l.54 2.665q.149.772.481.88.066.024.141.024.374 0 .971-.78.025-.033.075-.091.066-.1.1-.133l.357.24q-.681.914-.947 1.196-.822.872-1.635.88-.863 0-1.295-1.229-.158-.473-.34-1.41l-.407.663q-.058.092-.174.3-.532.879-.88 1.211-.507.465-1.096.465-.772 0-1.037-.531-.108-.208-.108-.457 0-.564.398-.847.208-.14.457-.14.357 0 .713.215.258.158.44.158.34 0 .648-.498.025-.025.058-.092.041-.066.058-.09l.747-1.204-.498-2.59q-.232-1.162-.896-1.17-.382 0-.664.032z"/><path d="M88.851 87.464l-.507 2.33h-4.586v-.253l1.678-1.845q.491-.54.907-1.236.54-.9.54-1.51 0-.94-.6-1.312-.307-.188-.712-.188-.852.005-1.349.998h-.313q.756-2.25 2.466-2.256 1.036 0 1.586.696.426.54.426 1.328-.005 1.198-1.09 2.239l-1.958 1.872h1.543q.842 0 1.122-.113.28-.113.448-.453.06-.124.124-.297z"/><path d="M88.297 89.49l-.224-.422q2-1.063 2.01-1.976 0-.349-.341-.548-.058-.025-.166-.083-.407-.207-.54-.431-.15-.25-.15-.615 0-1.046.906-1.253.19-.042.398-.042.83 0 1.179.764.174.382.174.83 0 1.826-2.034 3.138-.556.357-1.212.639zM101.695 84.527q1.477-2.806 1.477-3.395 0-.398-.298-.606-.042-.025-.133-.075-.316-.19-.415-.398-.108-.224-.108-.565 0-.498.44-.78.257-.166.54-.166.63 0 .92.523.142.257.142.565-.008 1.286-1.287 3.851-1.394 2.78-2.947 4.599-1.228 1.428-2.257 1.718-.3.083-.59.083-.747 0-1.054-.49-.133-.224-.133-.498 0-.481.365-.797.233-.19.49-.19.432 0 .888.315.366.249.548.282.075.017.141.017.39 0 .872-.507.64-.68.705-1.535.008-.083.008-.158 0-.789-.854-4.79-.3-1.386-.598-1.784-.274-.34-.756-.34v-.457l2.549-.407q.714 1.86 1.12 4.657l.183 1.328z"/><path d="M110.414 87.464l-.508 2.33h-4.586v-.253l1.678-1.845q.491-.54.907-1.236.54-.9.54-1.51 0-.94-.6-1.312-.307-.188-.712-.188-.852.005-1.349.998h-.313q.756-2.25 2.466-2.256 1.036 0 1.586.696.427.54.427 1.328-.005 1.198-1.09 2.239l-1.959 1.872h1.543q.842 0 1.122-.113.281-.113.448-.453.06-.124.124-.297z"/><path d="M110.872 89.798v-.382q1.934-1.112 2.383-4.1.166-1.121.166-2.98 0-2.466-.332-3.827-.565-2.291-2.217-3.246v-.381q2.134.747 3.428 2.722 1.287 1.968 1.353 4.49v.242q0 2.523-1.236 4.54-1.22 2-3.28 2.822-.132.059-.265.1zM215.987 88.775h.506l-.68 3.437-.457-.067q-.124-1.884-1.037-2.498-.523-.34-1.312-.34-.764 0-1.27.605-.39.473-.39 1.046 0 1.038.863 1.777.158.132.897.647l.157.116q1.08.797 1.52 1.362.722.93.722 2.208 0 1.693-1.138 2.689-1.037.905-2.64.905-.937 0-2.232-.407-.598-.19-.764-.19-.315 0-.49.306-.033.058-.14.29h-.515l.614-3.826.49.033q.1 1.602.921 2.49.68.723 1.652.723.988 0 1.635-.673.556-.58.556-1.361 0-1.154-1.129-2.1-.257-.224-.838-.63-1.303-.922-1.793-1.802-.407-.722-.407-1.56 0-1.561 1.13-2.466.97-.78 2.34-.78.905 0 1.718.315.507.2.747.2.548-.009.764-.449zM222.478 88.841v.382q-1.934 1.113-2.382 4.1-.166 1.122-.166 2.98 0 2.466.332 3.828.564 2.29 2.216 3.245v.382q-2.133-.747-3.428-2.723-1.287-1.967-1.353-4.49v-.241q0-2.524 1.237-4.54 1.22-2.001 3.279-2.823.132-.058.265-.1z"/><path d="M223.391 92.909l2.806-.407q.473.631.73 1.976.017.083.042.24l.025.125q.091-.116.307-.432.73-1.046 1.204-1.444.547-.465 1.062-.465.631 0 .938.465.166.249.166.548 0 .456-.382.747-.232.174-.49.174-.298 0-.614-.19-.265-.15-.49-.15-.406 0-1.12 1.004-.224.316-.39.598l.54 2.664q.149.772.48.88.067.025.142.025.373 0 .971-.78.025-.033.075-.091.066-.1.1-.133l.356.24q-.68.914-.946 1.196-.822.871-1.635.88-.863 0-1.295-1.229-.158-.473-.34-1.41l-.407.663q-.058.092-.175.299-.53.88-.88 1.212-.506.465-1.095.465-.772 0-1.038-.531-.108-.208-.108-.457 0-.564.399-.847.207-.14.456-.14.357 0 .714.215.258.158.44.158.34 0 .648-.498.025-.025.058-.092.041-.066.058-.09l.747-1.205-.498-2.59q-.233-1.162-.897-1.17-.381 0-.664.033z"/><path d="M236.066 103.755h-4.122v-.265q.82 0 1.08-.248.21-.205.226-.771V98.154q0-.637-.265-.744-.075-.027-.167-.027-.253.005-.906.259v-.286l2.773-1.204h.2v6.297q0 .653.237.852.173.14.685.173l.26.016z"/><path d="M235.922 103.45l-.224-.422q2-1.063 2.009-1.976 0-.349-.34-.548-.059-.025-.166-.083-.407-.207-.54-.432-.15-.249-.15-.614 0-1.046.905-1.253.191-.042.399-.042.83 0 1.179.764.174.382.174.83 0 1.826-2.034 3.138-.556.357-1.212.639zM249.32 98.487q1.477-2.806 1.477-3.395 0-.398-.299-.606-.041-.025-.132-.075-.316-.19-.415-.398-.108-.224-.108-.565 0-.498.44-.78.257-.166.54-.166.63 0 .92.523.142.257.142.565-.008 1.286-1.287 3.851-1.395 2.78-2.947 4.599-1.228 1.427-2.258 1.718-.298.083-.589.083-.747 0-1.054-.49-.133-.224-.133-.498 0-.481.365-.797.233-.19.49-.19.432 0 .888.315.365.249.548.282.075.017.141.017.39 0 .872-.507.639-.68.705-1.535.008-.083.008-.158 0-.789-.855-4.79-.298-1.386-.597-1.784-.274-.34-.756-.34v-.457l2.549-.407q.714 1.86 1.12 4.657l.183 1.328z"/><path d="M257.628 103.755h-4.122v-.265q.82 0 1.08-.248.21-.205.226-.771V98.154q0-.637-.264-.744-.076-.027-.168-.027-.253.005-.906.259v-.286l2.773-1.204h.2v6.297q0 .653.237.852.173.14.685.173l.26.016z"/><path d="M258.497 103.758v-.382q1.934-1.112 2.382-4.1.166-1.121.166-2.98 0-2.466-.332-3.827-.564-2.291-2.216-3.246v-.382q2.133.748 3.428 2.723 1.287 1.967 1.353 4.49v.242q0 2.523-1.237 4.54-1.22 2-3.278 2.822-.133.058-.266.1zM140.707 150.554q0 2.158-1.195 4.175-1.104 1.868-2.84 2.88-1.527.905-3.195.905-1.901 0-3.005-1.104-1.054-1.07-1.054-2.888 0-2.158 1.195-4.176 1.104-1.867 2.839-2.88 1.527-.905 3.196-.905 1.51 0 2.631.889 1.245.996 1.403 2.656.025.224.025.448zm-4.068-3.412q-1.792 0-3.145 2.54-.972 1.835-1.437 4.292-.19 1.02-.19 1.643 0 1.445.763 2.034.374.282.855.282 1.801 0 3.146-2.482.988-1.817 1.436-4.283.191-1.029.191-1.71 0-1.842-1.07-2.224-.25-.092-.548-.092z"/><circle r="3.5" cy="71.73" cx="120.5" fill="#dc4835"/><circle cx="197.627" cy="99.728" r="3.5" fill="#dc4835"/><circle r="3.5" cy="45.294" cx="47.676" fill="maroon" fill-opacity=".996"/></svg>