<svg xmlns="http://www.w3.org/2000/svg" width="345" height="189"><defs><marker id="b" refX="0" refY="0" orient="auto" overflow="visible"><path d="M4.616 0l-6.92 4v-8l6.92 4z" fill-rule="evenodd" stroke="#000" stroke-width=".8pt"/></marker><marker orient="auto" refY="0" refX="0" id="a" overflow="visible"><path d="M4.616 0l-6.92 4v-8l6.92 4z" fill-rule="evenodd" stroke="#000" stroke-width=".8pt"/></marker><marker orient="auto" refY="0" refX="0" id="c" overflow="visible"><path d="M2.308 0l-3.46 2v-4l3.46 2z" fill-rule="evenodd" stroke="#d21900" stroke-width=".4pt" fill="#d21900"/></marker></defs><path d="M123.492 134.528h107.895" fill="none" stroke="#000" marker-end="url(#a)"/><path d="M137.895 149.569V41.674" fill="none" stroke="#000" marker-end="url(#b)"/><path d="M63.488 7.234l201.373 171.38" fill="none" stroke="#000"/><path d="M133.895 58.698h8m-8 15h8m-8 15h8m-8 15h8m-8 15h8m72 11.83v8m-15-8v8m-15-8v8m-15-8v8m-15-8v8" fill="none" stroke="#000" stroke-linecap="round"/><path d="M167.377 95.65l39.216-46.08" fill="none" stroke="#d21900" stroke-width="2" stroke-linecap="round" marker-end="url(#c)"/><path d="M131.834 33.913q1.477-2.806 1.477-3.395 0-.399-.299-.606-.041-.025-.132-.075-.316-.19-.415-.398-.108-.224-.108-.565 0-.498.44-.78.257-.166.54-.166.63 0 .92.523.142.257.142.564-.008 1.287-1.287 3.852-1.395 2.78-2.947 4.599-1.228 1.427-2.258 1.718-.298.083-.589.083-.747 0-1.054-.49-.133-.224-.133-.498 0-.481.365-.797.233-.19.49-.19.432 0 .888.315.365.249.548.282.075.017.141.017.39 0 .872-.507.639-.68.705-1.535.008-.083.008-.158 0-.789-.855-4.79-.299-1.386-.597-1.784-.274-.34-.756-.34v-.457l2.549-.407q.713 1.86 1.12 4.657l.183 1.328zM237.496 138.039l2.806-.407q.473.63.73 1.976.017.083.042.24l.025.125q.091-.116.307-.432.73-1.046 1.204-1.444.548-.465 1.062-.465.631 0 .938.465.166.249.166.548 0 .456-.382.747-.232.174-.49.174-.298 0-.614-.19-.265-.15-.49-.15-.406 0-1.12 1.004-.224.316-.39.598l.54 2.664q.149.772.48.88.067.025.142.025.373 0 .971-.78.025-.033.075-.091.066-.1.1-.133l.356.24q-.68.914-.946 1.196-.822.871-1.635.88-.863 0-1.295-1.229-.158-.473-.34-1.411l-.407.664q-.058.091-.174.299-.532.88-.88 1.212-.507.465-1.096.465-.772 0-1.038-.532-.108-.207-.108-.456 0-.565.399-.847.207-.141.456-.141.357 0 .714.216.258.158.44.158.34 0 .648-.498.025-.025.058-.092l.058-.091.747-1.204-.498-2.59q-.233-1.162-.897-1.17-.381 0-.664.033zM272.632 179.242l1.942-4.873q-1.41-.108-2.183-1.013-.772-.904-.515-2.174.067-.34.283-.764h.44q-.208.398-.283.739-.215 1.079.432 1.834.648.747 1.984.98l.091-.233q.83-2.058 2.316-3.27 1.486-1.22 3.171-1.22.789 0 1.204.415.423.415.29 1.079-.232 1.162-1.834 2.208-1.602 1.037-3.628 1.344l-.921 2.325q-.066.157-.423.954l-.407.897q-.208.465-.664 1.195l1.519.531q1.61.573 2.407.573 1.386 0 2.49-1.851l.283.091q-.64 1.279-1.727 2.208-1.087.93-1.95.93-.906 0-2.532-.714l-.648-.282-.847-.332q-1.834 1.328-3.56 1.328-.939 0-1.403-.382-.465-.39-.333-1.062.158-.789.98-1.254.83-.473 2.059-.473.813 0 1.967.266zm3.86-5.33q1.585-.29 2.623-1.07 1.037-.789 1.245-1.851.116-.556-.1-.897-.216-.34-.68-.34-1.428 0-2.79 3.412zm-4.474 6.442q-1.287-.664-2.258-.664-.59 0-1.063.315-.465.316-.556.764-.091.448.233.739.332.282.93.282.73 0 1.493-.407.772-.406 1.22-1.029z"/><path d="M186.112 89.048h.506l-.68 3.437-.457-.066q-.124-1.885-1.037-2.499-.523-.34-1.312-.34-.764 0-1.27.606-.39.473-.39 1.046 0 1.037.863 1.776.158.133.897.647l.157.117q1.08.796 1.52 1.36.722.93.722 2.209 0 1.693-1.138 2.69-1.037.904-2.64.904-.937 0-2.232-.407-.598-.19-.764-.19-.315 0-.49.307-.033.058-.14.29h-.515l.614-3.827.49.034q.1 1.602.921 2.49.68.722 1.652.722.988 0 1.635-.672.556-.581.556-1.362 0-1.153-1.129-2.1-.257-.224-.838-.63-1.303-.922-1.793-1.802-.407-.722-.407-1.56 0-1.56 1.13-2.466.97-.78 2.34-.78.905 0 1.718.315.507.2.747.2.548-.009.764-.449zM192.603 89.115v.382q-1.934 1.112-2.382 4.1-.166 1.12-.166 2.98 0 2.466.332 3.827.564 2.29 2.216 3.246v.381q-2.133-.747-3.428-2.722-1.287-1.968-1.353-4.491v-.24q0-2.524 1.237-4.541 1.22-2 3.279-2.823.132-.058.265-.1z" fill="red"/><path d="M193.516 93.182l2.806-.407q.473.631.73 1.976.017.083.042.24l.025.125q.091-.116.307-.431.73-1.046 1.204-1.445.547-.465 1.062-.465.63 0 .938.465.166.25.166.548 0 .457-.382.747-.232.175-.49.175-.298 0-.614-.191-.265-.15-.49-.15-.406 0-1.12 1.005-.224.315-.39.597l.54 2.665q.149.772.48.88.067.025.142.025.373 0 .971-.78.025-.034.075-.092.066-.1.1-.133l.356.24q-.68.914-.946 1.196-.822.872-1.635.88-.864 0-1.295-1.228-.158-.474-.34-1.412l-.407.665q-.058.09-.175.298-.53.88-.88 1.212-.506.465-1.095.465-.772 0-1.038-.531-.108-.208-.108-.457 0-.564.399-.846.207-.141.456-.141.357 0 .714.215.257.158.44.158.34 0 .648-.498.024-.025.058-.091.041-.067.058-.092l.747-1.203-.498-2.59q-.233-1.162-.897-1.17-.382 0-.664.033z" fill="red"/><path d="M206.191 104.028h-4.122v-.264q.82 0 1.08-.249.21-.205.226-.771V98.427q0-.636-.265-.744-.075-.027-.167-.027-.254.005-.906.259v-.286l2.773-1.203h.2v6.296q0 .653.237.853.173.14.685.172l.26.017z" fill="red"/><path d="M206.047 103.724l-.224-.423q2-1.063 2.009-1.976 0-.348-.34-.548-.059-.024-.167-.083-.406-.207-.54-.431-.148-.25-.148-.614 0-1.046.904-1.254.191-.041.399-.041.83 0 1.178.763.175.382.175.83 0 1.827-2.034 3.138-.556.357-1.212.64zM219.445 98.76q1.477-2.805 1.477-3.395 0-.398-.299-.606-.041-.025-.132-.074-.316-.191-.416-.399-.107-.224-.107-.564 0-.498.44-.78.257-.167.539-.167.63 0 .921.523.142.258.142.565-.008 1.286-1.287 3.851-1.395 2.781-2.947 4.6-1.228 1.427-2.258 1.717-.298.083-.589.083-.747 0-1.054-.49-.133-.224-.133-.497 0-.482.365-.797.233-.191.49-.191.432 0 .888.315.365.25.548.282.075.017.141.017.39 0 .872-.506.639-.681.705-1.536.008-.083.008-.158 0-.788-.855-4.79-.299-1.385-.597-1.784-.274-.34-.756-.34v-.457l2.549-.407q.713 1.86 1.12 4.657l.183 1.328z" fill="red"/><path d="M227.753 104.028h-4.122v-.264q.82 0 1.08-.249.21-.205.226-.771V98.427q0-.636-.265-.744-.075-.027-.167-.027-.253.005-.906.259v-.286l2.773-1.203h.2v6.296q0 .653.237.853.173.14.685.172l.26.017z" fill="red"/><path d="M228.622 104.031v-.382q1.934-1.112 2.382-4.1.166-1.12.166-2.98 0-2.465-.332-3.827-.564-2.29-2.216-3.245v-.382q2.133.747 3.428 2.722 1.287 1.968 1.353 4.491v.24q0 2.524-1.237 4.541-1.22 2-3.278 2.823-.133.058-.266.1z" fill="red"/><path d="M134.695 141.658q0 2.158-1.195 4.175-1.104 1.868-2.84 2.88-1.526.905-3.195.905-1.9 0-3.005-1.104-1.054-1.07-1.054-2.888 0-2.158 1.195-4.175 1.104-1.868 2.84-2.88 1.527-.906 3.195-.906 1.51 0 2.631.889 1.245.996 1.403 2.656.025.224.025.448zm-4.067-3.412q-1.793 0-3.146 2.54-.971 1.835-1.436 4.292-.191 1.021-.191 1.644 0 1.444.763 2.033.374.282.855.282 1.802 0 3.146-2.481.988-1.818 1.436-4.284.191-1.029.191-1.71 0-1.842-1.07-2.224-.25-.092-.548-.092z"/><g fill="#7f0000" fill-opacity=".812"><path d="M220.37 44.906q-1.544.349-2.664 1.602h-1.038q.548-.813.888-1.195h-6.225l.249-1.22h6.225q-.19-.374-.415-1.187h1.038q.614 1.245 2.025 1.593zM219.769 52.783l.373.216q-.689 1.22-1.295 1.71-.656.515-1.428.515-1.145-.017-1.153-1.013 0-.813.44-2.125l.938-2.805q.116-.357.116-.482-.017-.349-.424-.357-.572 0-1.568 1.494-.598.905-.955 1.719-.54 1.253-1.112 3.42h-2.059l.963-3.47q.772-2.79.772-3.038-.008-.307-.191-.316-.058 0-.216-.033-.315-.058-.531-.066v-.457l3.387-.456-1.055 3.361h.017q.133-.19.398-.597.822-1.262 1.32-1.777.98-.996 2.05-1.004 1.237.017 1.246 1.311 0 .548-.482 1.968l-.59 1.768q-.406 1.22-.406 1.494.017.29.224.299.407 0 1.13-1.137l.049-.075q.033-.05.042-.067zM234.585 49.787h-8.566v-1.494h8.566zm0 3.47h-8.566v-1.495h8.566zM244.862 43.561v.382q-1.934 1.112-2.383 4.1-.166 1.121-.166 2.98 0 2.466.332 3.827.565 2.291 2.217 3.246v.382q-2.134-.747-3.428-2.723-1.287-1.967-1.353-4.49v-.241q0-2.524 1.236-4.54 1.22-2.001 3.28-2.823.132-.058.265-.1z"/><path d="M246.165 54.02q.017.623 1.087.631v.423h-3.312l-.016-.423q.647-.083 1.195-.888.067-.1.266-.407l6.292-9.894h.423l1.594 9.52q.182 1.08.498 1.379.232.232.847.282.058.008.116.008v.423h-5.147v-.423q1.304-.108 1.312-.838l-.24-2.275h-3.653l-.971 1.636q-.291.506-.291.846zm4.798-3.162l-.631-4.134-2.515 4.134zM255.636 58.17l-.224-.423q2-1.062 2.009-1.975 0-.349-.34-.548-.059-.025-.166-.083-.407-.208-.54-.432-.15-.249-.15-.614 0-1.046.905-1.253.191-.042.399-.042.83 0 1.178.764.175.382.175.83 0 1.826-2.034 3.137-.556.357-1.212.64zM274.653 51.572q0 2.224-2.24 3.063-1.171.44-2.773.44h-5.13v-.424q1.062-.116 1.427-1.411l2.026-7.52q.182-.69.182-.839 0-.63-.655-.73-.15-.017-.548-.025v-.424h4.499q4.092.009 4.1 2.482 0 1.47-1.36 2.2-.524.274-1.777.64-.042.016-.075.024 2.316.64 2.324 2.524zm-4.042-6.31l-.971 3.554q1.984 0 2.755-.822.648-.69.648-2.034-.017-1.71-1.478-1.718-.249 0-.406.058-.158.058-.266.224-.1.158-.15.299-.05.133-.132.44zm-2.308 8.708q.017.548.963.557 1.395 0 2.175-1.196.614-.938.614-2.158 0-1.137-.73-1.536-.573-.307-1.818-.307l-1.088 4.01q-.116.431-.116.63zM276.504 58.478v-.382q1.934-1.112 2.383-4.1.166-1.121.166-2.98 0-2.466-.332-3.827-.565-2.291-2.217-3.246v-.382q2.134.747 3.429 2.723 1.286 1.967 1.353 4.49v.241q0 2.524-1.237 4.54-1.22 2.001-3.279 2.823-.133.058-.266.1z"/></g><circle r="3.5" cy="95.65" cx="167.377" fill="red"/></svg>