<?xml version="1.0" encoding="UTF-8" standalone="no"?>
<!-- Created with Inkscape (http://www.inkscape.org/) -->

<svg
   xmlns:dc="http://purl.org/dc/elements/1.1/"
   xmlns:cc="http://creativecommons.org/ns#"
   xmlns:rdf="http://www.w3.org/1999/02/22-rdf-syntax-ns#"
   xmlns:svg="http://www.w3.org/2000/svg"
   xmlns="http://www.w3.org/2000/svg"
   xmlns:sodipodi="http://sodipodi.sourceforge.net/DTD/sodipodi-0.dtd"
   xmlns:inkscape="http://www.inkscape.org/namespaces/inkscape"
   width="200"
   height="200"
   viewBox="0 0 52.916665 52.916668"
   version="1.1"
   id="svg8"
   inkscape:version="0.92.3 (2405546, 2018-03-11)"
   sodipodi:docname="icono.svg">
  <defs
     id="defs2">
    <marker
       inkscape:stockid="Arrow1Mend"
       orient="auto"
       refY="0.0"
       refX="0.0"
       id="marker8415"
       style="overflow:visible;"
       inkscape:isstock="true">
      <path
         id="path8413"
         d="M 0.0,0.0 L 5.0,-5.0 L -12.5,0.0 L 5.0,5.0 L 0.0,0.0 z "
         style="fill-rule:evenodd;stroke:#c0392b;stroke-width:1pt;stroke-opacity:1;fill:#c0392b;fill-opacity:1"
         transform="scale(0.4) rotate(180) translate(10,0)" />
    </marker>
    <marker
       inkscape:isstock="true"
       style="overflow:visible;"
       id="marker8247"
       refX="0.0"
       refY="0.0"
       orient="auto"
       inkscape:stockid="Arrow1Mend"
       inkscape:collect="always">
      <path
         transform="scale(0.4) rotate(180) translate(10,0)"
         style="fill-rule:evenodd;stroke:#2980b9;stroke-width:1pt;stroke-opacity:1;fill:#2980b9;fill-opacity:1"
         d="M 0.0,0.0 L 5.0,-5.0 L -12.5,0.0 L 5.0,5.0 L 0.0,0.0 z "
         id="path8245" />
    </marker>
    <marker
       inkscape:stockid="Arrow1Mend"
       orient="auto"
       refY="0.0"
       refX="0.0"
       id="Arrow1Mend"
       style="overflow:visible;"
       inkscape:isstock="true"
       inkscape:collect="always">
      <path
         id="path6297"
         d="M 0.0,0.0 L 5.0,-5.0 L -12.5,0.0 L 5.0,5.0 L 0.0,0.0 z "
         style="fill-rule:evenodd;stroke:#8e44ad;stroke-width:1pt;stroke-opacity:1;fill:#8e44ad;fill-opacity:1"
         transform="scale(0.4) rotate(180) translate(10,0)" />
    </marker>
  </defs>
  <sodipodi:namedview
     id="base"
     pagecolor="#ffffff"
     bordercolor="#666666"
     borderopacity="1.0"
     inkscape:pageopacity="0.0"
     inkscape:pageshadow="2"
     inkscape:zoom="1.4"
     inkscape:cx="114.60461"
     inkscape:cy="0.048927199"
     inkscape:document-units="mm"
     inkscape:current-layer="layer1"
     showgrid="true"
     units="px"
     inkscape:window-width="1366"
     inkscape:window-height="745"
     inkscape:window-x="-8"
     inkscape:window-y="-8"
     inkscape:window-maximized="1"
     showguides="false">
    <inkscape:grid
       type="xygrid"
       id="grid4293" />
  </sodipodi:namedview>
  <metadata
     id="metadata5">
    <rdf:RDF>
      <cc:Work
         rdf:about="">
        <dc:format>image/svg+xml</dc:format>
        <dc:type
           rdf:resource="http://purl.org/dc/dcmitype/StillImage" />
        <dc:title></dc:title>
      </cc:Work>
    </rdf:RDF>
  </metadata>
  <g
     inkscape:label="Capa 1"
     inkscape:groupmode="layer"
     id="layer1"
     transform="translate(0,-244.08332)">
    <rect
       style="fill:#ecf0f1;fill-opacity:1;fill-rule:evenodd;stroke:none;stroke-width:2.16031361;stroke-linejoin:miter;stroke-miterlimit:4;stroke-dasharray:none;stroke-dashoffset:0;stroke-opacity:1"
       id="rect815"
       width="52.916668"
       height="52.916668"
       x="2.5687237e-008"
       y="244.08334" />
    <text
       xml:space="preserve"
       style="font-style:normal;font-weight:normal;font-size:10.58333302px;line-height:1.25;font-family:sans-serif;letter-spacing:0px;word-spacing:0px;fill:#34495e;fill-opacity:1;stroke:none;stroke-width:0.26458332"
       x="12.189733"
       y="285.05591"
       id="text8169"><tspan
         sodipodi:role="line"
         id="tspan8167"
         x="12.189733"
         y="285.05591"
         style="fill:#34495e;fill-opacity:1;stroke-width:0.26458332">A</tspan></text>
    <text
       id="text8173"
       y="260.48746"
       x="23.08139"
       style="font-style:normal;font-weight:normal;font-size:10.58333302px;line-height:1.25;font-family:sans-serif;letter-spacing:0px;word-spacing:0px;fill:#34495e;fill-opacity:1;stroke:none;stroke-width:0.26458332"
       xml:space="preserve"><tspan
         style="fill:#34495e;fill-opacity:1;stroke-width:0.26458332"
         y="260.48746"
         x="23.08139"
         id="tspan8171"
         sodipodi:role="line">B</tspan></text>
    <text
       xml:space="preserve"
       style="font-style:normal;font-weight:normal;font-size:10.58333302px;line-height:1.25;font-family:sans-serif;letter-spacing:0px;word-spacing:0px;fill:#34495e;fill-opacity:1;stroke:none;stroke-width:0.26458332"
       x="34.830505"
       y="285.05591"
       id="text8177"><tspan
         sodipodi:role="line"
         id="tspan8175"
         x="34.830505"
         y="285.05591"
         style="fill:#34495e;fill-opacity:1;stroke-width:0.26458332">C</tspan></text>
    <path
       style="fill:none;stroke:#8e44ad;stroke-width:0.5291667;stroke-linecap:butt;stroke-linejoin:miter;stroke-miterlimit:4;stroke-dasharray:none;stroke-opacity:1;marker-end:url(#Arrow1Mend)"
       d="m 16.66875,276.36247 6.614583,-14.55208"
       id="path8179"
       inkscape:connector-curvature="0"
       sodipodi:nodetypes="cc" />
    <path
       sodipodi:nodetypes="cc"
       inkscape:connector-curvature="0"
       id="path8243"
       d="m 29.897916,260.48747 6.614584,15.875"
       style="fill:none;stroke:#2980b9;stroke-width:0.5291667;stroke-linecap:butt;stroke-linejoin:miter;stroke-miterlimit:4;stroke-dasharray:none;stroke-opacity:1;marker-end:url(#marker8247)" />
    <path
       style="fill:none;stroke:#c0392b;stroke-width:0.5291667;stroke-linecap:butt;stroke-linejoin:miter;stroke-miterlimit:4;stroke-dasharray:none;stroke-opacity:1;marker-end:url(#marker8415)"
       d="M 19.314583,280.33122 H 33.866666"
       id="path8411"
       inkscape:connector-curvature="0"
       sodipodi:nodetypes="cc" />
    <g
       aria-label="a"
       style="font-style:normal;font-variant:normal;font-weight:normal;font-stretch:normal;font-size:6.3499999px;line-height:1.25;font-family:Symbol;-inkscape-font-specification:'Symbol, Normal';font-variant-ligatures:normal;font-variant-caps:normal;font-variant-numeric:normal;font-feature-settings:normal;text-align:start;letter-spacing:0px;word-spacing:0px;writing-mode:lr-tb;text-anchor:start;fill:#34495e;fill-opacity:1;stroke:none;stroke-width:0.26458332"
       id="text8863"
       transform="translate(-0.52916667,-2.1166667)">
      <path
         d="m 17.534897,269.8856 h 0.514697 l -0.403076,1.41077 q -0.04031,0.13332 -0.127124,0.41858 0.117823,0.47749 0.176734,0.57051 0.111621,0.17053 0.282153,0.17053 0.124023,0 0.229443,-0.10232 0.10542,-0.10232 0.139527,-0.31936 h 0.124023 q -0.04341,0.44648 -0.189136,0.61701 -0.142627,0.17054 -0.331762,0.17054 -0.176734,0 -0.322461,-0.14883 -0.142627,-0.14883 -0.257349,-0.63872 -0.136426,0.26975 -0.26665,0.40928 -0.182935,0.19223 -0.396875,0.28525 -0.213941,0.0961 -0.486792,0.0961 -0.68523,0 -1.007691,-0.45579 -0.322461,-0.45578 -0.322461,-1.0387 0,-0.68212 0.378272,-1.1038 0.378271,-0.42478 0.886767,-0.42478 0.353467,0 0.623218,0.21704 0.269751,0.21394 0.489893,0.79995 z m -0.375171,1.28054 q -0.167431,-0.63872 -0.430981,-0.88986 -0.26355,-0.25425 -0.536402,-0.25425 -0.303857,0 -0.505395,0.33486 -0.201538,0.33176 -0.201538,1.0604 0,0.43098 0.08682,0.67903 0.08682,0.24495 0.26045,0.38137 0.176733,0.13333 0.37207,0.13333 0.238745,0 0.437182,-0.22014 0.269751,-0.29766 0.517798,-1.22474 z"
         style="font-style:normal;font-variant:normal;font-weight:normal;font-stretch:normal;font-size:6.3499999px;font-family:Symbol;-inkscape-font-specification:'Symbol, Normal';font-variant-ligatures:normal;font-variant-caps:normal;font-variant-numeric:normal;font-feature-settings:normal;text-align:start;writing-mode:lr-tb;text-anchor:start;fill:#34495e;fill-opacity:1;stroke-width:0.26458332"
         id="path10394"
         inkscape:connector-curvature="0" />
    </g>
    <g
       aria-label="b"
       style="font-style:normal;font-variant:normal;font-weight:normal;font-stretch:normal;font-size:6.3499999px;line-height:1.25;font-family:Symbol;-inkscape-font-specification:'Symbol, Normal';font-variant-ligatures:normal;font-variant-caps:normal;font-variant-numeric:normal;font-feature-settings:normal;text-align:start;letter-spacing:0px;word-spacing:0px;writing-mode:lr-tb;text-anchor:start;fill:#34495e;fill-opacity:1;stroke:none;stroke-width:0.26458332"
       id="text8867"
       transform="translate(-0.52916667,-2.1166667)">
      <path
         d="m 38.108852,271.21262 v 0.524 q 0,0.5023 -0.124023,1.08831 H 37.46083 q 0.08372,-0.38448 0.09922,-0.524 0.04031,-0.43408 0.04031,-0.63562 v -3.1688 q 0,-0.55501 0.108521,-0.82166 0.111621,-0.26975 0.396875,-0.44958 0.288354,-0.17984 0.68833,-0.17984 0.555005,0 0.886767,0.29766 0.331763,0.29766 0.331763,0.70693 0,0.26355 -0.136426,0.5023 -0.133325,0.23564 -0.415478,0.40928 0.830957,0.39687 0.830957,1.23403 0,0.37207 -0.173633,0.69453 -0.173633,0.32246 -0.47749,0.49299 -0.303858,0.16744 -0.626319,0.16744 -0.207739,0 -0.412377,-0.0713 -0.201539,-0.0713 -0.492994,-0.26665 z m 0,-0.24494 q 0.300757,0.21084 0.523999,0.30385 0.167432,0.0682 0.334864,0.0682 0.313159,0 0.523999,-0.25735 0.21394,-0.26045 0.21394,-0.82166 0,-0.35346 -0.102319,-0.61701 -0.09922,-0.26665 -0.353467,-0.58291 -0.21394,0.0713 -0.36897,0.0713 -0.186035,0 -0.26355,-0.0558 -0.07441,-0.0558 -0.07441,-0.12092 0,-0.0589 0.05891,-0.10542 0.05891,-0.0465 0.189135,-0.0465 0.151929,0 0.458887,0.0806 0.217041,-0.43098 0.217041,-0.81545 0,-0.39068 -0.192236,-0.60462 -0.192237,-0.21394 -0.477491,-0.21394 -0.359668,0 -0.558105,0.30386 -0.130225,0.20154 -0.130225,0.64802 z"
         style="font-style:normal;font-variant:normal;font-weight:normal;font-stretch:normal;font-size:6.3499999px;font-family:Symbol;-inkscape-font-specification:'Symbol, Normal';font-variant-ligatures:normal;font-variant-caps:normal;font-variant-numeric:normal;font-feature-settings:normal;text-align:start;writing-mode:lr-tb;text-anchor:start;fill:#34495e;fill-opacity:1;stroke-width:0.26458332"
         id="path10397"
         inkscape:connector-curvature="0" />
    </g>
    <g
       aria-label="b  a"
       style="font-style:normal;font-variant:normal;font-weight:normal;font-stretch:normal;font-size:6.3499999px;line-height:1.25;font-family:Symbol;-inkscape-font-specification:'Symbol, Normal';font-variant-ligatures:normal;font-variant-caps:normal;font-variant-numeric:normal;font-feature-settings:normal;text-align:start;letter-spacing:0px;word-spacing:0px;writing-mode:lr-tb;text-anchor:start;fill:#34495e;fill-opacity:1;stroke:none;stroke-width:0.26458332"
       id="text8871"
       transform="translate(-0.52916667,-2.1166667)">
      <path
         d="m 24.030178,288.35419 v 0.524 q 0,0.5023 -0.124023,1.08831 h -0.523999 q 0.08372,-0.38447 0.09922,-0.524 0.04031,-0.43408 0.04031,-0.63562 v -3.1688 q 0,-0.555 0.10852,-0.82166 0.111622,-0.26975 0.396875,-0.44958 0.288355,-0.17983 0.688331,-0.17983 0.555004,0 0.886767,0.29765 0.331763,0.29766 0.331763,0.70694 0,0.26355 -0.136426,0.50229 -0.133325,0.23564 -0.415478,0.40928 0.830957,0.39687 0.830957,1.23403 0,0.37207 -0.173633,0.69453 -0.173633,0.32246 -0.477491,0.493 -0.303857,0.16743 -0.626318,0.16743 -0.207739,0 -0.412378,-0.0713 -0.201538,-0.0713 -0.492993,-0.26665 z m 0,-0.24494 q 0.300757,0.21084 0.523999,0.30385 0.167432,0.0682 0.334863,0.0682 0.31316,0 0.523999,-0.25735 0.213941,-0.26045 0.213941,-0.82166 0,-0.35346 -0.10232,-0.61701 -0.09922,-0.26665 -0.353466,-0.58291 -0.213941,0.0713 -0.36897,0.0713 -0.186035,0 -0.26355,-0.0558 -0.07441,-0.0558 -0.07441,-0.12092 0,-0.0589 0.05891,-0.10542 0.05891,-0.0465 0.189136,-0.0465 0.151929,0 0.458887,0.0806 0.217041,-0.43098 0.217041,-0.81545 0,-0.39067 -0.192237,-0.60462 -0.192236,-0.21394 -0.47749,-0.21394 -0.359668,0 -0.558105,0.30386 -0.130225,0.20154 -0.130225,0.64802 z"
         style="font-style:normal;font-variant:normal;font-weight:normal;font-stretch:normal;font-size:6.3499999px;font-family:Symbol;-inkscape-font-specification:'Symbol, Normal';font-variant-ligatures:normal;font-variant-caps:normal;font-variant-numeric:normal;font-feature-settings:normal;text-align:start;writing-mode:lr-tb;text-anchor:start;fill:#34495e;fill-opacity:1;stroke-width:0.26458332"
         id="path10404"
         inkscape:connector-curvature="0" />
      <path
         d="m 32.572292,285.7559 h 0.514697 l -0.403076,1.41077 q -0.04031,0.13332 -0.127124,0.41858 0.117823,0.47749 0.176734,0.57051 0.111621,0.17053 0.282153,0.17053 0.124023,0 0.229443,-0.10232 0.10542,-0.10232 0.139527,-0.31936 h 0.124023 q -0.04341,0.44648 -0.189136,0.61701 -0.142627,0.17054 -0.331762,0.17054 -0.176734,0 -0.322461,-0.14883 -0.142627,-0.14883 -0.257349,-0.63872 -0.136426,0.26975 -0.26665,0.40928 -0.182935,0.19223 -0.396875,0.28525 -0.213941,0.0961 -0.486792,0.0961 -0.68523,0 -1.007691,-0.45579 -0.322461,-0.45578 -0.322461,-1.03869 0,-0.68213 0.378272,-1.10381 0.378271,-0.42478 0.886767,-0.42478 0.353467,0 0.623218,0.21704 0.269751,0.21394 0.489893,0.79995 z m -0.375171,1.28054 q -0.167431,-0.63872 -0.430981,-0.88986 -0.26355,-0.25425 -0.536402,-0.25425 -0.303857,0 -0.505395,0.33486 -0.201538,0.33176 -0.201538,1.0604 0,0.43098 0.08682,0.67903 0.08682,0.24495 0.26045,0.38137 0.176733,0.13333 0.37207,0.13333 0.238745,0 0.437182,-0.22014 0.269751,-0.29766 0.517798,-1.22474 z"
         style="font-style:normal;font-variant:normal;font-weight:normal;font-stretch:normal;font-size:6.3499999px;font-family:Symbol;-inkscape-font-specification:'Symbol, Normal';font-variant-ligatures:normal;font-variant-caps:normal;font-variant-numeric:normal;font-feature-settings:normal;text-align:start;writing-mode:lr-tb;text-anchor:start;fill:#34495e;fill-opacity:1;stroke-width:0.26458332"
         id="path10406"
         inkscape:connector-curvature="0" />
    </g>
    <text
       xml:space="preserve"
       style="font-style:normal;font-variant:normal;font-weight:normal;font-stretch:normal;font-size:4.93888903px;line-height:1.25;font-family:Arial;-inkscape-font-specification:'Arial, Normal';font-variant-ligatures:normal;font-variant-caps:normal;font-variant-numeric:normal;font-feature-settings:normal;text-align:start;letter-spacing:0px;word-spacing:0px;writing-mode:lr-tb;text-anchor:start;fill:#34495e;fill-opacity:1;stroke:none;stroke-width:0.26458332"
       x="26.187359"
       y="286.16962"
       id="text8875"><tspan
         sodipodi:role="line"
         id="tspan8873"
         x="26.187359"
         y="286.16962"
         style="font-style:normal;font-variant:normal;font-weight:normal;font-stretch:normal;font-size:4.93888903px;font-family:Arial;-inkscape-font-specification:'Arial, Normal';font-variant-ligatures:normal;font-variant-caps:normal;font-variant-numeric:normal;font-feature-settings:normal;text-align:start;writing-mode:lr-tb;text-anchor:start;fill:#34495e;fill-opacity:1;stroke-width:0.26458332">o</tspan></text>
  </g>
</svg>
