<?xml version="1.0" standalone="no"?>
<!DOCTYPE svg PUBLIC "-//W3C//DTD SVG 1.1//EN" "http://www.w3.org/Graphics/SVG/1.1/DTD/svg11.dtd" >
<svg xmlns="http://www.w3.org/2000/svg">
<metadata></metadata>
<defs>
<font id="gg_superscript_sansregular" horiz-adv-x="739" >
<font-face units-per-em="2048" ascent="1536" descent="-512" />
<missing-glyph horiz-adv-x="370" />
<glyph horiz-adv-x="2048" />
<glyph horiz-adv-x="2048" />
<glyph unicode="&#xd;" horiz-adv-x="370" />
<glyph unicode=" "  horiz-adv-x="370" />
<glyph unicode="&#x09;" horiz-adv-x="370" />
<glyph unicode="&#xa0;" horiz-adv-x="370" />
<glyph unicode="!" horiz-adv-x="370" d="M115 1393v211h143v-211l-33 -506h-75zM121 649v133h133v-133h-133z" />
<glyph unicode="&#x22;" horiz-adv-x="473" d="M61 1448v156h134v-156l-29 -182h-72zM276 1448v156h134v-156l-31 -182h-70z" />
<glyph unicode="#" d="M14 911v97h129l47 235h-176v96h197l55 281h99l-58 -281h205l57 281h99l-58 -281h113v-96h-131l-49 -235h180v-97h-201l-55 -276h-98l57 276h-205l-57 -276h-96l55 276h-109zM240 1008h204l50 235h-205z" />
<glyph unicode="$" d="M47 915l119 23q6 -57 22.5 -96t39 -63.5t49 -36t55.5 -13.5v373q-53 8 -100.5 28.5t-84 53.5t-58 79t-21.5 105q0 104 60 177t204 89v58h67v-58q117 -10 179.5 -73.5t76.5 -159.5l-120 -19q-12 68 -44 105t-92 49v-338q147 -35 213 -97.5t66 -178.5q0 -61 -20.5 -113.5 t-57.5 -90.5t-88 -61.5t-113 -25.5v-119h-67v119q-127 10 -198 74.5t-87 209.5zM184 1378q0 -59 34 -100t114 -64v322q-70 -8 -109 -53t-39 -105zM399 729q70 8 114 58.5t44 125.5q0 63 -30.5 102.5t-127.5 69.5v-356z" />
<glyph unicode="%" horiz-adv-x="1183" d="M78 1374q0 104 51 175t150 71q88 0 147 -64.5t59 -189.5q0 -123 -59 -187.5t-147 -64.5q-86 0 -143.5 64.5t-57.5 195.5zM178 1362q0 -92 30 -129t73 -37q45 0 73.5 38t28.5 136q0 94 -29.5 131t-72.5 37t-73 -38t-30 -138zM281 614l522 1006h94l-518 -1006h-98zM694 874 q0 104 51.5 174t149.5 70q88 0 147.5 -63.5t59.5 -188.5q0 -123 -59.5 -187.5t-147.5 -64.5q-86 0 -143.5 64.5t-57.5 195.5zM797 862q0 -92 28.5 -130t71.5 -38q45 0 73.5 38t28.5 138q0 92 -29.5 130t-72.5 38t-71.5 -37.5t-28.5 -138.5z" />
<glyph unicode="&#x26;" horiz-adv-x="888" d="M57 913q0 176 228 283q-66 76 -87.5 122t-21.5 89t17.5 82t49 67.5t75.5 46t96 17.5q49 0 90 -16.5t69.5 -44t45 -64.5t16.5 -80q0 -137 -180 -231l172 -217q14 29 25.5 61.5t19.5 69.5l121 -27q-29 -119 -84 -205q66 -88 147 -145l-78 -92q-69 45 -145 133 q-115 -127 -275 -127q-63 0 -118.5 21.5t-95.5 59.5t-63.5 89t-23.5 108zM182 920q0 -27 11.5 -59t34 -59.5t56 -46t76.5 -18.5q53 0 108.5 33t90.5 84l-215 266q-94 -55 -128 -104t-34 -96zM297 1417q0 -41 45 -98l53 -59q37 23 60.5 41t37 35.5t17.5 36t4 38.5 q0 49 -29.5 81t-76.5 32t-79 -31t-32 -76z" />
<glyph unicode="'" horiz-adv-x="253" d="M57 1444v160h136v-160l-31 -178h-74z" />
<glyph unicode="(" horiz-adv-x="442" d="M82 995q0 170 56.5 320.5t172.5 304.5h84q-49 -84 -76.5 -136t-44 -91t-25.5 -73t-20 -81q-29 -127 -28 -246q0 -311 194 -622h-84q-98 123 -163.5 284.5t-65.5 339.5z" />
<glyph unicode=")" horiz-adv-x="442" d="M82 371q193 309 192 622q0 86 -9 156t-30.5 140.5t-58.5 149.5t-94 181h82q115 -154 173 -305.5t58 -319.5q0 -88 -18.5 -174t-49 -166t-72.5 -151.5t-91 -132.5h-82z" />
<glyph unicode="*" horiz-adv-x="518" d="M43 1427l29 93q51 -16 89 -33t60 -31q-12 119 -12 164h94q-2 -33 -5 -74t-9 -88q63 33 151 62l31 -93q-41 -14 -81 -22t-81 -12q37 -31 113 -123l-80 -56q-39 53 -88 140q-45 -92 -84 -140l-78 56q39 47 65.5 76.5t43.5 46.5q-41 8 -81 16t-77 18z" />
<glyph unicode="+" horiz-adv-x="776" d="M74 1065v111h260v258h110v-258h258v-111h-258v-260h-110v260h-260z" />
<glyph unicode="," horiz-adv-x="370" d="M111 512q37 16 54 48t19 89h-65v133h133v-133q0 -141 -109 -188z" />
<glyph unicode="-" horiz-adv-x="442" d="M43 1585v119h358v-119h-358z" />
<glyph unicode="." horiz-adv-x="370" d="M121 649v133h133v-133h-133z" />
<glyph unicode="/" horiz-adv-x="370" d="M0 635l276 985h95l-277 -985h-94z" />
<glyph unicode="0" d="M55 1120q0 248 77 365t235 123q68 0 125 -26t99 -83t64.5 -150.5t22.5 -228.5q0 -485 -311 -485q-312 0 -312 485zM174 1120q0 -121 15.5 -197.5t42 -119.5t61.5 -58.5t74 -15.5t73.5 17.5t60 61.5t40 120t14.5 192q0 119 -15.5 195t-41 119t-60.5 59t-73 16 q-90 0 -140.5 -87t-50.5 -302z" />
<glyph unicode="1" d="M145 1253v115q98 45 171 110.5t106 129.5h74v-959h-117v748q-20 -20 -49 -41t-60.5 -40.5t-64.5 -34.5t-60 -28z" />
<glyph unicode="2" d="M41 649v15q0 84 61.5 160.5t182.5 176.5q80 66 131 115t80.5 89t41 74t11.5 67q0 68 -50 115.5t-130 47.5q-86 0 -136.5 -49t-50.5 -141l-121 12q14 135 94.5 206t217.5 71q68 0 123 -20.5t94 -56.5t59.5 -85t20.5 -105q0 -45 -11.5 -84.5t-43 -84t-87 -98.5t-141.5 -128 q-55 -47 -87 -73.5t-50.5 -45t-27.5 -33t-19 -32.5h467v-113h-629z" />
<glyph unicode="3" d="M55 901l117 17q20 -100 69.5 -144.5t116.5 -44.5q86 0 141.5 57.5t55.5 143.5q0 80 -52 132t-134 52q-33 0 -82 -12l12 102q8 -2 18 -2q37 0 73 9.5t62.5 30t43 50t16.5 70.5q0 63 -43 106t-113 43q-68 0 -112.5 -43t-59.5 -129l-116 21q20 117 97 182.5t189 65.5 q61 0 112.5 -20.5t88.5 -54.5t57.5 -79t20.5 -94q0 -63 -33 -113.5t-98 -81.5q86 -18 132 -79.5t46 -153.5q0 -61 -23.5 -115.5t-66.5 -95.5t-102.5 -64.5t-129.5 -23.5q-125 0 -208 74.5t-95 193.5z" />
<glyph unicode="4" d="M16 879v106l437 619h94v-619h129v-106h-129v-230h-117v230h-414zM131 985h299v430z" />
<glyph unicode="5" d="M55 899l123 10q14 -92 63.5 -136t118.5 -44q86 0 144.5 63.5t58.5 170.5q0 100 -56 157.5t-149 57.5q-55 0 -100 -26t-72 -67l-110 15l92 489h473v-110h-379l-51 -256q88 59 180 59q61 0 114.5 -22.5t93.5 -63.5t63.5 -98.5t23.5 -124.5q0 -72 -23.5 -134.5t-66.5 -107.5 t-103.5 -70.5t-132.5 -25.5q-129 0 -211 70.5t-94 193.5z" />
<glyph unicode="6" d="M49 1096q0 262 90 387t252 125q113 0 185 -63.5t86 -174.5l-115 -10q-18 86 -62.5 118.5t-99.5 32.5q-45 0 -85 -21.5t-69.5 -66.5t-47 -114.5t-17.5 -167.5q43 66 104.5 96.5t126.5 30.5q57 0 108.5 -22.5t90.5 -63.5t61.5 -98.5t22.5 -125.5q0 -70 -22.5 -129 t-62.5 -102t-95.5 -67.5t-118.5 -24.5q-74 0 -134.5 25.5t-104.5 82t-68.5 143.5t-24.5 210zM184 958q0 -49 15.5 -91t42 -72.5t61.5 -48t76 -17.5q74 0 127 59.5t53 163.5q0 98 -52 155.5t-132 57.5t-135.5 -57.5t-55.5 -149.5z" />
<glyph unicode="7" d="M63 1479v112h617v-92q-66 -70 -127 -166t-111.5 -208.5t-83 -234.5t-41.5 -241h-120q2 102 29.5 217t73.5 225.5t105.5 212t124.5 175.5h-467z" />
<glyph unicode="8" d="M53 926q0 94 47.5 156t135.5 85q-143 51 -144 195q0 51 19.5 96t55.5 78t87 52.5t113 19.5q61 0 112 -19.5t88 -53.5t56.5 -80t19.5 -97q0 -66 -35 -115t-106 -76q180 -59 180 -245q0 -61 -22.5 -113.5t-63.5 -90.5t-99.5 -60.5t-127.5 -22.5q-72 0 -129.5 22.5 t-99.5 61.5t-64.5 92t-22.5 115zM174 926q0 -82 54.5 -139.5t140.5 -57.5t139 53.5t53 139.5t-55 140t-141 54q-82 0 -136.5 -54t-54.5 -136zM213 1366q0 -70 43 -112t113 -42q68 0 110.5 42t42.5 104q0 66 -44 109.5t-111 43.5q-68 0 -111 -43t-43 -102z" />
<glyph unicode="9" d="M55 1284q0 74 22.5 133.5t62.5 101.5t94.5 65.5t119.5 23.5q74 0 134.5 -27t103.5 -83t66.5 -147t23.5 -221q0 -131 -23.5 -223t-68.5 -151.5t-107.5 -88t-140.5 -32.5q-113 0 -184.5 61t-83.5 174l110 11q16 -80 56.5 -116t101.5 -36q55 0 97 26.5t70 72.5t42 109.5 t14 137.5v23q-35 -55 -96 -90t-131 -35q-59 0 -110.5 22.5t-90.5 63.5t-60.5 98t-21.5 127zM174 1280q0 -92 55.5 -148.5t137.5 -56.5q80 0 133 57.5t53 157.5q0 104 -54.5 161.5t-129.5 57.5q-39 0 -75 -16t-62.5 -47t-42 -73t-15.5 -93z" />
<glyph unicode=":" horiz-adv-x="370" d="M121 649v133h133v-133h-133zM121 1206v133h133v-133h-133z" />
<glyph unicode=";" horiz-adv-x="370" d="M111 1161q37 16 54 48t19 91h-65v134h133v-134q0 -74 -25.5 -118.5t-83.5 -71.5zM119 1858v133h133v-133h-133z" />
<glyph unicode="&#x3c;" horiz-adv-x="776" d="M74 1067v109l631 266v-117l-502 -205l502 -207v-116z" />
<glyph unicode="=" horiz-adv-x="776" d="M74 922v108h628v-108h-628zM74 1210v109h628v-109h-628z" />
<glyph unicode="&#x3e;" horiz-adv-x="776" d="M74 797v116l499 207l-499 205v117l631 -266v-109z" />
<glyph unicode="?" d="M57 1343q18 135 98.5 206t211.5 71q70 0 127 -20.5t97 -56.5t61.5 -83t21.5 -100q0 -33 -7.5 -60.5t-23.5 -55t-44 -58.5t-69 -70q-43 -39 -63.5 -60.5t-29.5 -41t-11 -48t-6 -81.5h-113q-2 10 -2 19v16q0 43 6 75.5t22.5 63.5t45.5 63.5t76 73.5q61 53 79.5 86t18.5 70 q0 33 -14.5 64.5t-39 55t-58 38t-72.5 14.5q-74 0 -124 -47t-67 -148zM299 649v133h133v-133h-133z" />
<glyph unicode="@" horiz-adv-x="1351" d="M72 954q0 152 49 275t135 210t204 134t257 47q109 0 209 -34t177 -99.5t123 -159.5t46 -215q0 -86 -33 -169t-88 -149.5t-126 -106.5t-144 -40q-66 0 -93.5 27t-31.5 82q-43 -49 -95.5 -79t-105.5 -30q-43 0 -86 20.5t-76 59.5t-53.5 93t-20.5 120q0 94 34 171t85 131 t110.5 84t108.5 30q119 0 197 -121l23 100h114l-94 -436q-18 -90 -18 -100q0 -18 13 -30.5t32 -12.5q51 0 96 36.5t80 93t55.5 122t20.5 122.5q0 84 -37 156t-102.5 125t-153.5 84t-193 31q-119 0 -215 -47t-164.5 -127t-105.5 -185.5t-37 -220.5t42 -204t113.5 -150.5 t170 -93t213.5 -31.5q180 0 299.5 54t179.5 141h117q-27 -49 -75 -101.5t-117 -94.5t-159 -68.5t-200 -26.5q-160 0 -286 39t-213 113.5t-134 183t-47 247.5zM440 932q0 -88 42 -138.5t98 -50.5q39 0 80.5 25t75.5 69t56.5 104t22.5 130q0 88 -43 137t-106 49 q-43 0 -84 -27.5t-73 -73.5t-50.5 -104.5t-18.5 -119.5z" />
<glyph unicode="A" horiz-adv-x="888" d="M-2 649l367 955h135l391 -955h-146l-110 289h-397l-107 -289h-133zM272 1040h324l-98 265q-23 59 -41.5 109t-28.5 89q-16 -94 -49 -182z" />
<glyph unicode="B" horiz-adv-x="888" d="M96 649v955h359h20q74 0 129 -19.5t91 -53.5t54.5 -78t20.5 -93q0 -61 -32.5 -115.5t-98.5 -87.5q86 -25 132 -85t46 -146q0 -135 -87 -206t-269 -71h-365zM223 762h238q98 0 161.5 33.5t63.5 130.5q0 88 -56.5 126t-185.5 38h-221v-328zM223 1202h207q117 0 167 33 t50 108q0 35 -9 63t-34.5 46t-71 28.5t-118.5 10.5h-191v-289z" />
<glyph unicode="C" horiz-adv-x="960" d="M66 1135q0 113 33.5 201.5t94 152t142.5 97.5t180 34q143 0 240.5 -71.5t136.5 -207.5l-125 -28q-35 111 -100.5 154.5t-169.5 43.5q-78 0 -134.5 -31.5t-93.5 -81.5t-55 -114.5t-18 -132.5v-16v-31q0 -86 23.5 -153.5t64.5 -113.5t97 -71t122 -25q106 0 179.5 61.5 t98.5 180.5l127 -31q-45 -166 -151.5 -241.5t-265.5 -75.5q-109 0 -188 40t-131 107.5t-78.5 158.5t-28.5 194z" />
<glyph unicode="D" horiz-adv-x="960" d="M102 649v955h328q66 0 112 -4.5t81.5 -14.5t62.5 -25.5t53 -37.5q152 -129 152 -389q0 -248 -113.5 -366t-331.5 -118h-344zM229 762h203q98 0 161.5 23.5t100.5 70.5t51.5 116.5t14.5 162.5q0 113 -24.5 182t-68.5 108t-105.5 52.5t-133.5 13.5h-199v-729z" />
<glyph unicode="E" horiz-adv-x="888" d="M104 649v955h691v-113h-564v-293h529v-111h-529v-325h584v-113h-711z" />
<glyph unicode="F" horiz-adv-x="813" d="M109 649v955h643v-113h-516v-297h446v-111h-446v-434h-127z" />
<glyph unicode="G" horiz-adv-x="1034" d="M72 1102q0 123 33.5 220t96 162.5t150.5 100.5t197 35q317 0 389 -285l-115 -30q-25 106 -92 153t-182 53q-113 0 -181.5 -39.5t-105.5 -100t-49 -131.5t-12 -132q0 -92 28.5 -159.5t76.5 -111.5t111.5 -66.5t133.5 -22.5q41 0 82 9t78 22.5t67.5 30.5t50.5 36v178h-280 v113h403v-355q-100 -78 -200.5 -112.5t-210.5 -34.5q-100 0 -186.5 35t-149 97t-98 148t-35.5 187z" />
<glyph unicode="H" horiz-adv-x="960" d="M106 649v955h127v-392h494v392h127v-955h-127v451h-494v-451h-127z" />
<glyph unicode="I" horiz-adv-x="370" d="M125 649v955h125v-955h-125z" />
<glyph unicode="J" horiz-adv-x="665" d="M39 920l113 16q6 -111 41.5 -151t101.5 -40q37 4 64.5 14.5t44 32t24.5 58.5t8 96v658h125v-650q0 -174 -66.5 -246.5t-199.5 -72.5q-256 0 -256 285z" />
<glyph unicode="K" horiz-adv-x="888" d="M96 649v955h127v-474l473 474h172l-399 -387l416 -568h-166l-338 484l-158 -152v-332h-127z" />
<glyph unicode="L" d="M96 649v955h127v-842h469v-113h-596z" />
<glyph unicode="M" horiz-adv-x="1110" d="M98 649v955h191l225 -676q16 -47 26.5 -83t18.5 -59q8 27 21.5 65t29.5 89l228 664h170v-955h-121v799l-277 -799h-114l-277 811v-811h-121z" />
<glyph unicode="N" horiz-adv-x="960" d="M100 649v955h131l500 -750v750h121v-955h-129l-502 750v-750h-121z" />
<glyph unicode="O" horiz-adv-x="1034" d="M63 1114q0 121 35 215t95.5 158.5t144.5 98.5t182 34q106 0 190.5 -38t143.5 -106.5t91 -162.5t32 -205q0 -113 -39 -201t-104.5 -148.5t-150.5 -92t-179 -31.5q-100 0 -182 40t-139.5 107.5t-88.5 153.5t-31 178zM195 1112q0 -86 24.5 -154.5t67.5 -116.5t102.5 -74 t128.5 -26q143 0 235.5 99.5t92.5 285.5q0 86 -22.5 157t-65.5 122t-103.5 78.5t-134.5 27.5q-66 0 -125 -21.5t-103 -69.5t-70.5 -123.5t-26.5 -184.5z" />
<glyph unicode="P" horiz-adv-x="888" d="M102 649v955h361q82 0 150.5 -14.5t115.5 -46.5t73.5 -85t26.5 -131q0 -57 -16 -110.5t-57 -93.5t-109.5 -63.5t-173.5 -23.5h-244v-387h-127zM229 1151h246q123 0 174 45t51 127q0 98 -57 133t-170 35h-244v-340z" />
<glyph unicode="Q" horiz-adv-x="1034" d="M57 1139q0 106 35 195t96.5 152.5t144.5 98.5t179 35q102 0 186 -37t144.5 -102.5t93.5 -156.5t33 -198q-1 -237 -144 -374q45 -29 85 -51.5t77 -36.5l-37 -89q-104 39 -205 117q-55 -31 -115.5 -44t-125.5 -13q-102 0 -184 38t-140.5 105.5t-90.5 159.5t-32 201z M186 1126q0 -186 92.5 -285.5t235.5 -99.5q72 0 127 27q-59 37 -125 53l31 92q111 -31 180 -92q111 100 111 305q0 86 -23.5 158t-65.5 122t-101.5 77.5t-133.5 27.5q-141 0 -234.5 -96t-93.5 -289z" />
<glyph unicode="R" horiz-adv-x="960" d="M104 649v955h422q172 0 256 -62.5t84 -198.5q0 -104 -65.5 -172.5t-202.5 -87.5q66 -35 103.5 -74.5t76.5 -99.5l166 -260h-158l-127 199q-53 84 -88.5 129t-65.5 66.5t-59.5 25.5t-68.5 4h-146v-424h-127zM231 1182h271q125 0 179 43t54 118q0 66 -48 110t-155 44h-301 v-315z" />
<glyph unicode="S" horiz-adv-x="888" d="M59 956l119 11q12 -102 82 -160.5t201 -58.5q113 0 174 47t61 114q0 35 -11 59.5t-42 44t-85 38t-142 39.5q-92 20 -153.5 46.5t-98.5 59.5t-52.5 75t-15.5 95q0 55 25.5 101t71 80t106.5 53.5t133 19.5q162 0 257 -79t102 -208l-121 -8q-10 92 -66.5 137t-167.5 45 q-117 0 -168 -42t-51 -99q0 -25 5 -45.5t27.5 -38.5t67.5 -34.5t127 -35.5q109 -25 180.5 -51t114.5 -61t60.5 -79t17.5 -101q0 -59 -25.5 -111.5t-71.5 -90.5t-110.5 -60.5t-142.5 -22.5q-190 0 -297 84.5t-111 236.5z" />
<glyph unicode="T" horiz-adv-x="813" d="M31 1491v113h755v-113h-315v-842h-127v842h-313z" />
<glyph unicode="U" horiz-adv-x="960" d="M104 1053v551h127v-551q0 -166 53.5 -235.5t186.5 -69.5q70 0 118 14t78.5 49t45 93.5t14.5 148.5v551h127v-551q0 -104 -18.5 -180t-61.5 -127.5t-114.5 -79t-178.5 -31.5q-102 0 -173.5 24.5t-117 74.5t-66 129t-20.5 190z" />
<glyph unicode="V" horiz-adv-x="888" d="M6 1604h135l248 -693q16 -41 28.5 -80.5t22.5 -74.5q10 39 23.5 77.5t28.5 77.5l258 693h127l-373 -955h-129z" />
<glyph unicode="W" horiz-adv-x="1255" d="M16 1604h129l146 -625q10 -49 20.5 -98.5t20.5 -98.5q35 156 43 176l180 646h152l137 -484q51 -182 74 -338q10 47 21 98.5t26 110.5l149 613h127l-260 -955h-123l-201 727q-27 94 -28 113q-8 -35 -15.5 -62.5t-13.5 -50.5l-203 -727h-129z" />
<glyph unicode="X" horiz-adv-x="888" d="M6 649l369 498l-326 457h152l172 -246q27 -39 46 -67.5t30 -49.5q16 27 34.5 53.5t40.5 55.5l193 254h137l-336 -451l361 -504h-156l-240 340q-10 16 -20 32.5t-21 33.5q-16 -27 -27.5 -45.5t-19.5 -28.5l-237 -332h-152z" />
<glyph unicode="Y" horiz-adv-x="888" d="M4 1604h154l186 -287q27 -41 51.5 -82t46.5 -82q23 39 48.5 81t56.5 89l184 281h146l-379 -549v-406h-127v406z" />
<glyph unicode="Z" horiz-adv-x="813" d="M27 649v119l487 608q27 33 52.5 61.5t47.5 53.5h-532v113h682v-113l-592 -729h608v-113h-753z" />
<glyph unicode="[" horiz-adv-x="370" d="M90 385v1219h258v-99h-141v-1024h141v-96h-258z" />
<glyph unicode="\" horiz-adv-x="370" d="M0 1620h94l277 -985h-95z" />
<glyph unicode="]" horiz-adv-x="370" d="M25 385v96h141v1024h-141v99h258v-1219h-258z" />
<glyph unicode="^" horiz-adv-x="624" d="M35 1098l229 522h94l232 -522h-119l-160 389l-155 -389h-121z" />
<glyph unicode="_" d="M-20 385v84h776v-84h-776z" />
<glyph unicode="`" horiz-adv-x="442" d="M57 1608h156l88 -183h-92z" />
<glyph unicode="a" d="M47 831q0 57 23.5 96.5t62.5 64t88 37.5t98 20q145 16 209 38v31q0 82 -46 112t-120 30q-82 0 -121.5 -30t-58.5 -102l-114 15q23 106 97.5 159.5t215.5 53.5q90 0 142 -18.5t80 -52.5t36 -82t8 -107v-158q0 -86 1 -132t4 -73.5t11.5 -43t20.5 -40.5h-123q-20 39 -22 86 q-66 -55 -126.5 -77.5t-127.5 -22.5q-117 0 -177.5 55t-60.5 141zM172 836q0 -47 36 -79t103 -32q102 0 159.5 56.5t57.5 172.5v41q-33 -12 -80 -23t-110 -20q-53 -8 -84 -18t-48.5 -23.5t-23.5 -32t-10 -42.5z" />
<glyph unicode="b" d="M86 649v955h119v-340q74 92 188 92q68 0 121 -25.5t92 -73t59.5 -112t20.5 -139.5q0 -90 -23.5 -159t-64.5 -116t-95 -71.5t-116 -24.5q-123 0 -190 100v-86h-111zM195 999q0 -76 14 -127t39.5 -82.5t59.5 -45t71 -13.5q76 0 131 66.5t55 197.5q0 135 -53 200t-129 65 q-78 0 -133 -66t-55 -195z" />
<glyph unicode="c" horiz-adv-x="665" d="M51 1012q0 80 24.5 144.5t67.5 108.5t100.5 67.5t123.5 23.5q113 0 184.5 -57.5t89.5 -161.5l-113 -17q-35 139 -157 140q-88 0 -143.5 -63.5t-55.5 -201.5q0 -141 53.5 -202.5t139.5 -61.5q70 0 116 42t58 130l114 -14q-18 -123 -96 -188.5t-190 -65.5q-152 0 -234 96 t-82 281z" />
<glyph unicode="d" d="M45 993q0 80 20.5 147.5t59.5 115t92 74t121 26.5q61 0 110.5 -26.5t79.5 -67.5v342h115v-955h-106v88q-68 -102 -195 -102q-61 0 -115.5 26.5t-94.5 73.5t-63.5 112.5t-23.5 145.5zM166 993q0 -131 56.5 -196.5t131.5 -65.5q76 0 130.5 62.5t54.5 191.5q0 141 -55.5 208 t-135.5 67q-78 0 -130 -63t-52 -204z" />
<glyph unicode="e" d="M49 989q0 174 89 270.5t233 96.5q141 0 227 -93.5t86 -267.5v-30h-514q6 -113 64.5 -173.5t144.5 -60.5q63 0 109 33.5t71 107.5l123 -16q-29 -104 -106.5 -162.5t-196.5 -58.5q-154 0 -242 93t-88 261zM176 1061h385q-8 104 -62.5 151.5t-125.5 47.5q-80 0 -135.5 -53.5 t-61.5 -145.5z" />
<glyph unicode="f" horiz-adv-x="370" d="M12 1249v90h105v74q0 96 38 151.5t152 55.5q49 0 109 -12l-19 -103q-35 6 -67 6q-53 0 -76 -22.5t-23 -83.5v-66h136v-90h-136v-600h-114v600h-105z" />
<glyph unicode="g" d="M43 1004q0 76 20.5 140t59.5 111.5t94 74t125 26.5q123 0 201 -99v82h108v-596q0 -203 -71.5 -287.5t-239.5 -84.5q-127 0 -200.5 55t-73.5 168l114 -19q8 -61 51 -84.5t109 -23.5q61 0 98 15.5t58.5 48t28.5 84t7 124.5q-78 -90 -190 -90q-74 0 -130 29t-94 77 t-56.5 112.5t-18.5 136.5zM164 1008q0 -135 53 -197.5t135 -62.5q80 0 135.5 60t55.5 196q0 129 -56.5 192.5t-136.5 63.5q-78 0 -132 -63.5t-54 -188.5z" />
<glyph unicode="h" d="M88 649v955h117v-342q82 94 207 94q113 -8 175 -60.5t62 -189.5v-19v-438h-117v438q0 88 -37.5 128t-107.5 40q-78 -6 -130 -53t-52 -153v-21v-379h-117z" />
<glyph unicode="i" horiz-adv-x="296" d="M88 649v690h117v-690h-117zM88 1468v136h117v-136h-117z" />
<glyph unicode="j" horiz-adv-x="296" d="M-61 383l22 98q31 -8 55 -8q18 0 30.5 4t22 19.5t13.5 43t4 74.5v725h119v-727q0 -70 -10.5 -115.5t-32 -73.5t-54 -40t-77.5 -12q-47 0 -92 12zM86 1466v138h119v-138h-119z" />
<glyph unicode="k" horiz-adv-x="665" d="M88 649v955h117v-545l276 280h154l-264 -256l288 -434h-143l-227 355l-84 -80v-275h-117z" />
<glyph unicode="l" horiz-adv-x="296" d="M86 649v955h117v-955h-117z" />
<glyph unicode="m" horiz-adv-x="1110" d="M88 649v690h105v-96q33 51 87 82t121 31q76 0 126.5 -32t70.5 -89q84 121 213 121q104 0 158.5 -57.5t54.5 -174.5v-475h-117v436v17q0 45 -8 72.5t-23.5 44t-39 23.5t-52.5 11q-74 0 -122 -48t-48 -154v-402h-116v449q0 155 -119 155h-2q-84 0 -128 -55t-44 -190v-359 h-117z" />
<glyph unicode="n" d="M88 649v690h105v-98q78 115 221 115q72 0 118 -21.5t71.5 -60.5t35.5 -90t10 -111v-424h-117v420q0 102 -34.5 140t-110.5 44q-37 0 -69.5 -10t-58.5 -36.5t-40 -69.5t-14 -111v-377h-117z" />
<glyph unicode="o" d="M43 995q0 176 91 268.5t235 92.5q150 0 235.5 -96.5t85.5 -270.5q0 -92 -25.5 -158.5t-68.5 -108.5t-101.5 -63.5t-125.5 -23.5q-147 0 -236.5 91t-89.5 269zM164 995q0 -135 58.5 -199.5t146.5 -64.5q86 0 144 65.5t58 202.5q0 129 -58 195t-144 66q-88 0 -146.5 -65 t-58.5 -200z" />
<glyph unicode="p" d="M88 385v954h107v-88q37 51 85 78t115 27q72 0 126 -28t91 -78t55.5 -118.5t18.5 -150.5q0 -78 -24.5 -141.5t-65.5 -109.5t-95.5 -70.5t-115.5 -24.5q-57 0 -103 24.5t-77 61.5v-336h-117zM195 991q0 -135 53 -197.5t131 -62.5t133 64.5t55 205.5q0 131 -54 197t-130 66 q-74 0 -131 -69t-57 -204z" />
<glyph unicode="q" d="M47 1001q0 164 81 259.5t210 95.5t201 -109v92h106v-954h-117v338q-29 -39 -78 -63.5t-104 -24.5q-61 0 -115.5 25.5t-95.5 72.5t-64.5 116t-23.5 152zM168 997q0 -135 55.5 -200.5t132.5 -65.5q76 0 129.5 62.5t53.5 193.5q0 137 -56.5 207t-134.5 70q-76 0 -128 -65 t-52 -202z" />
<glyph unicode="r" horiz-adv-x="442" d="M86 649v690h107v-102q39 72 72.5 95.5t76.5 23.5q57 0 119 -37l-39 -109q-43 25 -86 25q-39 0 -64.5 -18.5t-41 -50t-21.5 -71.5t-6 -83v-363h-117z" />
<glyph unicode="s" horiz-adv-x="665" d="M41 856l117 18q16 -143 178 -143q80 0 119 33t39 76q0 20 -4.5 33.5t-19.5 23.5t-46 20.5t-84 24.5q-82 20 -136 39.5t-86 43.5t-45.5 55.5t-13.5 76.5q0 80 62.5 139.5t193.5 59.5q129 0 193.5 -49.5t79.5 -145.5l-115 -14q-12 113 -149 113q-82 0 -116 -27t-34 -62 q0 -20 6 -34.5t23.5 -24.5t49.5 -20.5t83 -22.5q76 -20 129 -37.5t86 -40t48 -55.5t15 -82q0 -94 -75.5 -156.5t-202.5 -62.5q-135 0 -206 55t-89 166z" />
<glyph unicode="t" horiz-adv-x="370" d="M23 1249v90h86v172l116 70v-242h117v-90h-117v-403q0 -35 3 -52.5t10.5 -26.5t20.5 -11t34 -6q18 0 49 6l18 -105q-25 -4 -46 -7t-42 -3q-49 0 -80.5 9t-50 33t-25.5 64.5t-7 104.5v397h-86z" />
<glyph unicode="u" d="M86 913v426h117v-383q0 -117 26.5 -169t114.5 -52q39 2 73 14.5t58.5 37t38.5 63.5t14 96v25v368h117v-690h-104v103q-80 -117 -219 -117q-74 0 -119 21.5t-72 59.5t-36 88t-9 109z" />
<glyph unicode="v" horiz-adv-x="665" d="M16 1339h123l150 -411q12 -35 23.5 -70t21.5 -70q8 27 18 60t25 72l153 419h119l-260 -690h-110z" />
<glyph unicode="w" horiz-adv-x="960" d="M4 1339h121l151 -544q2 4 9.5 39.5t25.5 101.5l111 403h119l139 -530l158 530h112l-215 -690h-121l-110 414l-27 119l-139 -533h-123z" />
<glyph unicode="x" horiz-adv-x="665" d="M10 649l252 361l-233 329h145l107 -161q16 -23 27 -41.5t22 -34.5q12 23 26.5 40t26.5 36l115 161h141l-240 -323l256 -367h-143l-178 273l-182 -273h-142z" />
<glyph unicode="y" horiz-adv-x="665" d="M20 1339h127l144 -399q14 -39 27.5 -79t23.5 -81q10 41 21.5 80t25.5 78l148 401h116l-262 -700q-29 -78 -52.5 -130t-49 -83t-57 -43t-74.5 -12q-35 0 -74 12l-14 111q20 -4 35.5 -7.5t29.5 -3.5q33 0 53.5 6.5t36 24.5t27.5 50t31 85z" />
<glyph unicode="z" horiz-adv-x="665" d="M27 649v96l438 504q-37 -2 -70 -3t-61 -1h-283v94h565v-75l-446 -519q80 6 147 7h320v-103h-610z" />
<glyph unicode="{" horiz-adv-x="444" d="M37 942v107q59 0 83.5 22.5t34 70.5t9.5 122.5t10 177.5q10 104 60.5 141t142.5 37h37v-102h-21q-68 0 -90 -25t-22 -109q0 -111 -3.5 -177t-17.5 -106t-40.5 -62.5t-74.5 -45.5q72 -29 104 -90t32 -201q0 -78 1 -124t11 -69.5t32.5 -30.5t67.5 -7h21v-100h-37 q-59 0 -99 10t-64 42t-34 93.5t-10 165.5q0 72 -5 121t-19.5 79.5t-40 44t-68.5 15.5z" />
<glyph unicode="|" horiz-adv-x="346" d="M123 371v1249h100v-1249h-100z" />
<glyph unicode="}" horiz-adv-x="444" d="M31 371v100h20q68 0 89.5 24.5t21.5 110.5q0 106 5 173t19.5 108t41 64.5t71.5 41.5q-39 18 -64.5 41t-42 55.5t-23.5 81t-7 117.5v123t-9.5 68.5t-33 31t-68.5 7.5h-20v102h37q37 0 62.5 -4t41.5 -11.5t29.5 -18.5t25.5 -25q14 -16 23.5 -37t13.5 -49.5t6 -69.5t2 -98 q0 -139 25 -198.5t111 -59.5v-107q-59 -2 -85 -24.5t-35 -70.5t-9 -121t-11 -177q-10 -104 -57 -141t-143 -37h-37z" />
<glyph unicode="~" horiz-adv-x="776" d="M57 1012v133q68 78 181 78q39 0 81.5 -11.5t120.5 -44.5q45 -18 67.5 -24t47.5 -6q41 0 86 25.5t80 62.5v-138q-41 -39 -83 -56t-97 -17q-23 0 -39.5 1t-36 6t-46 15.5t-65.5 28.5q-80 35 -129 35q-41 0 -78 -17.5t-90 -70.5z" />
<glyph unicode="&#xa1;" horiz-adv-x="442" d="M152 387v211l32 506h76l37 -506v-211h-145zM156 1206v133h135v-133h-135z" />
<glyph unicode="&#xa2;" d="M70 1018q0 82 25.5 145.5t68.5 106.5t98 65.5t115 22.5q23 0 63 -6l74 252l72 -23l-74 -250q66 -29 99.5 -76t47.5 -118l-112 -17q-19 74 -64 111l-143 -498q20 -6 39 -6q68 0 117 45t59 131l117 -12q-20 -123 -100 -190.5t-191 -67.5q-37 0 -68 8l-75 -258l-74 23 l76 258q-170 78 -170 354zM190 997q0 -170 80 -231l146 496q-10 2 -19.5 2h-13.5q-86 0 -139.5 -69t-53.5 -198z" />
<glyph unicode="&#xa3;" d="M18 743q61 35 105.5 99.5t44.5 156.5q0 39 -12 80h-127v97h100q-23 74 -28 107.5t-5 64.5q0 59 21.5 109t60.5 86t93.5 56.5t119.5 20.5q117 0 194 -64.5t95 -183.5l-119 -16q-8 78 -56 123t-118 45q-72 0 -120 -47t-48 -113q0 -71 37 -188h207v-97h-184q12 -29 12 -57 q0 -55 -27.5 -118.5t-89.5 -129.5q49 14 94 14q33 0 75 -7t82 -14t71.5 -14.5t44.5 -7.5q47 0 125 37l36 -106q-59 -27 -91.5 -34t-65.5 -7q-16 0 -23.5 -1t-20 0t-34 7t-61.5 21q-39 12 -61.5 18t-36 9t-24 3h-26.5q-45 0 -98.5 -16.5t-98.5 -42.5z" />
<glyph unicode="&#xa4;" d="M47 881l90 88q-45 70 -45 153q0 82 45 154l-90 88l76 76l90 -90q72 47 154 47q84 0 153 -47l92 90l74 -76l-88 -88q45 -72 45 -154q0 -84 -45 -153l88 -88l-74 -78l-92 92q-68 -49 -153 -49q-84 0 -154 49l-90 -92zM199 1122q0 -70 49 -120t119 -50t119 50.5t49 119.5 q0 70 -49.5 119t-118.5 49q-70 0 -119 -49t-49 -119z" />
<glyph unicode="&#xa5;" d="M-2 1604h129l190 -336q16 -29 27.5 -53.5t22.5 -47.5q8 16 20 44t33 63l178 330h137l-262 -463h221v-97h-268v-92h268v-92h-268v-211h-117v211h-268v92h268v92h-268v97h221z" />
<glyph unicode="&#xa6;" horiz-adv-x="346" d="M123 371v514h100v-514h-100zM123 1106v514h100v-514h-100z" />
<glyph unicode="&#xa7;" d="M53 1069q0 61 39 112.5t107 71.5q-45 43 -64.5 80t-19.5 80t17.5 80t48 65.5t74.5 45t97 16.5q123 0 190.5 -57.5t82.5 -167.5l-123 -15q-12 80 -46 112t-94 32q-59 0 -96 -33t-37 -72q0 -23 8.5 -41t33 -39.5t68.5 -51.5t114 -73t113.5 -75.5t69.5 -61t35 -57.5t9 -68 q0 -63 -29.5 -105t-118.5 -81q102 -84 103 -182q0 -45 -19.5 -84t-54.5 -68t-82 -45t-102 -16q-123 0 -197 61t-88 172l119 17q18 -86 57 -119t109 -33q66 0 102.5 34t36.5 79q0 20 -10 40.5t-38 45t-75 57.5t-121 78q-59 37 -101 66.5t-67.5 59t-38 63.5t-12.5 77z M160 1081q0 -20 5 -38.5t21.5 -38t49 -43t88.5 -56.5q43 -27 79.5 -50t69.5 -46q47 25 71.5 57.5t24.5 63.5q0 18 -7 36.5t-26.5 40t-54.5 48t-92 63.5q-88 55 -133 90q-53 -31 -74.5 -60.5t-21.5 -66.5z" />
<glyph unicode="&#xa8;" horiz-adv-x="442" d="M41 1475v135h121v-135h-121zM283 1475v135h120v-135h-120z" />
<glyph unicode="&#xa9;" horiz-adv-x="980" d="M2 1110q0 115 41 209t108.5 160.5t157 103.5t185.5 37q98 0 187 -38t155.5 -106.5t106.5 -161.5t40 -204q0 -92 -39 -177t-104.5 -150.5t-150.5 -104.5t-177 -39h-18h-19q-92 0 -178 39t-151.5 104.5t-104.5 150.5t-39 177zM84 1112q0 -76 33 -146.5t87 -125t124.5 -87 t148.5 -32.5h17h14q76 0 146.5 32.5t126 86t88 124t32.5 146.5v18v19q0 76 -33.5 147.5t-89 125t-126 86t-144.5 32.5h-14h-17q-76 0 -146.5 -32.5t-125.5 -87t-88 -126t-33 -149.5v-15v-16zM236 1126q0 131 72.5 205t191.5 74q86 0 142 -42t79 -112l-78 -18q-41 98 -147 98 q-74 0 -123 -53t-49 -154q0 -98 46 -149t119 -51q57 0 102.5 34t57.5 91l80 -23q-18 -82 -80.5 -130t-154.5 -48q-117 0 -187.5 73.5t-70.5 204.5z" />
<glyph unicode="&#xaa;" horiz-adv-x="493" d="M31 1278q0 61 35.5 92t121.5 45l158 29q0 31 -5 49t-16.5 27.5t-31 13.5t-47.5 8q-96 0 -109 -80l-90 23q8 57 57.5 96t141.5 39q104 0 149 -40t45 -118v-196q0 -86 27 -119h-96q-15 26 -15 57q-78 -70 -166 -69q-74 0 -116.5 39.5t-42.5 103.5zM127 1278 q0 -27 22.5 -46.5t63.5 -19.5q70 0 101.5 42t31.5 114q-23 -6 -60.5 -11t-72.5 -14.5t-60.5 -23.5t-25.5 -41z" />
<glyph unicode="&#xab;" d="M86 993l209 297h96l-170 -297l168 -297h-94zM342 993l203 297h98l-170 -297l170 -297h-98z" />
<glyph unicode="&#xac;" horiz-adv-x="776" d="M74 1210v109h628v-393h-108v284h-520z" />
<glyph unicode="&#xad;" horiz-adv-x="442" d="M43 1585v119h358v-119h-358z" />
<glyph unicode="&#xae;" horiz-adv-x="980" d="M2 1110q0 115 41 209t108.5 160.5t157 103.5t185.5 37q98 0 187 -38t155.5 -106.5t106.5 -161.5t40 -204q0 -92 -39 -177t-104.5 -150.5t-150.5 -104.5t-177 -39h-18h-19q-92 0 -178 39t-151.5 104.5t-104.5 150.5t-39 177zM84 1112q0 -76 33 -146.5t87 -125t124.5 -87 t148.5 -32.5h17h14q76 0 146.5 32.5t126 86t88 124t32.5 146.5v18v19q0 76 -33.5 147.5t-89 125t-126 86t-144.5 32.5h-14h-17q-76 0 -146.5 -32.5t-125.5 -87t-88 -126t-33 -149.5v-15v-16zM279 856v528h180q123 0 174 -34.5t51 -108.5q0 -57 -41 -100t-108 -47 q37 -16 60 -45t60 -88l66 -105h-105l-47 84q-25 43 -42 70.5t-33.5 43t-35 21.5t-44.5 6h-52v-225h-83zM362 1153h105q74 0 100.5 22.5t26.5 59.5q-4 16 -9 30.5t-17.5 26t-38 17.5t-68.5 6h-99v-162z" />
<glyph unicode="&#xaf;" horiz-adv-x="735" d="M-20 1667v84h776v-84h-776z" />
<glyph unicode="&#xb0;" horiz-adv-x="532" d="M84 1440q0 74 52 127t126 53q78 0 130 -53.5t52 -126.5q0 -76 -53 -129.5t-129 -53.5q-74 0 -126 53.5t-52 129.5zM154 1440q0 -45 31.5 -78t78.5 -33q45 0 77 33t32 78t-32 76.5t-77 31.5q-47 0 -78.5 -31.5t-31.5 -76.5z" />
<glyph unicode="&#xb1;" horiz-adv-x="731" d="M51 649v111h629v-111h-629zM51 1081v109h258v260h113v-260h258v-109h-258v-262h-113v262h-258z" />
<glyph unicode="&#xb2;" horiz-adv-x="442" d="M16 1126q4 47 45 93.5t119 103.5q53 39 82 61.5t41 36t13 22.5t1 23q0 31 -23.5 51.5t-66.5 20.5t-64.5 -15.5t-35.5 -58.5l-96 11q18 72 64 106.5t134 34.5q98 0 144.5 -39t46.5 -94q0 -27 -5 -47.5t-22.5 -43t-51.5 -51t-93 -73.5q-29 -20 -48.5 -35.5t-29.5 -28.5h252 v-78h-406z" />
<glyph unicode="&#xb3;" horiz-adv-x="442" d="M20 1253l97 11q14 -45 38.5 -58.5t59.5 -13.5q47 0 74.5 24.5t27.5 61.5q0 33 -22.5 52.5t-79.5 19.5q-12 0 -20 -2h-17l17 69q51 0 75.5 19.5t24.5 48.5q0 25 -19.5 41t-58.5 16q-37 0 -57.5 -14.5t-34.5 -50.5l-92 14q27 70 66.5 97.5t117.5 27.5q94 0 137 -36t43 -87 q0 -78 -90 -104q57 -14 85 -47t28 -76q0 -61 -50.5 -106.5t-148.5 -45.5q-92 0 -139.5 36.5t-61.5 102.5z" />
<glyph unicode="&#xb4;" horiz-adv-x="442" d="M143 1425l88 183h152l-141 -183h-99z" />
<glyph unicode="&#xb5;" horiz-adv-x="768" d="M104 385v954h115v-290q0 -80 3 -132.5t14 -74.5q16 -47 55 -75t88 -28q51 0 92 28t57 75q18 45 19 205v292h115v-690h-105v82q-39 -59 -79 -77.5t-95 -18.5q-49 0 -86 15.5t-78 70.5v-336h-115z" />
<glyph unicode="&#xb6;" horiz-adv-x="714" d="M0 1329q0 125 79 200t228 75h414v-113h-94v-1106h-113v1106h-143v-1106h-109v680q-123 6 -192.5 79t-69.5 185z" />
<glyph unicode="&#xb7;" horiz-adv-x="370" d="M121 1702v133h133v-133h-133z" />
<glyph unicode="&#xb8;" horiz-adv-x="442" d="M70 383l8 78q20 -2 34.5 -2h24.5q55 0 80 12t25 35q0 18 -16.5 29.5t-86.5 15.5l35 115h86l-20 -70q55 -6 82.5 -33.5t27.5 -62.5q0 -49 -47 -86t-139 -37q-55 0 -94 6z" />
<glyph unicode="&#xb9;" horiz-adv-x="442" d="M70 1413v80q41 12 90 47t80 76h69v-490h-94v361q-63 -51 -145 -74z" />
<glyph unicode="&#xba;" horiz-adv-x="485" d="M29 1372q0 117 59.5 182.5t153.5 65.5q98 0 156.5 -64.5t58.5 -181.5q0 -113 -60.5 -178.5t-152.5 -65.5q-94 0 -154.5 62.5t-60.5 179.5zM125 1374q0 -82 32.5 -119.5t84.5 -37.5q53 0 84.5 37.5t31.5 123.5q0 78 -31.5 117t-84.5 39q-51 0 -84 -37t-33 -123z" />
<glyph unicode="&#xbb;" d="M90 696l172 297l-172 297h98l205 -297l-205 -297h-98zM344 696l170 297l-170 297h96l207 -297l-207 -297h-96z" />
<glyph unicode="&#xbc;" horiz-adv-x="1110" d="M70 1413v80q41 12 90 47t80 76h69v-490h-94l51 361q-72 -27 -113.5 -45.5t-82.5 -28.5zM164 612l717 1008h100l-715 -1008h-102zM682 729v82l262 307h80v-317h68v-72h-68v-98h-94v98h-248zM780 801h150v170z" />
<glyph unicode="&#xbd;" horiz-adv-x="1110" d="M70 1413v80q41 12 90 47t80 76h69v-490h-94l35 361q-59 -27 -99 -45.5t-81 -28.5zM147 612l717 1008h103l-717 -1008h-103zM682 631q6 84 164 196q51 37 78.5 58.5t40 36t14.5 24.5t2 25q0 31 -21.5 50t-66.5 19q-43 0 -64.5 -15t-33.5 -58l-101 10q20 74 67.5 107.5 t133.5 33.5q98 0 143 -39t45 -94q0 -25 -4 -45t-21.5 -44t-51 -53.5t-93.5 -72.5q-59 -43 -77 -61h251v-78h-405z" />
<glyph unicode="&#xbe;" horiz-adv-x="1110" d="M20 1253l97 11q14 -45 38.5 -58.5t59.5 -13.5q47 0 74.5 24.5t27.5 61.5q0 33 -22.5 52.5t-77.5 19.5q-16 -2 -25.5 -2h-13.5l17 69q51 0 75.5 19.5t24.5 48.5q0 25 -19.5 41t-58.5 16q-37 0 -57.5 -14.5t-34.5 -50.5l-92 14q27 70 66.5 97.5t117.5 27.5q94 0 137 -36 t43 -87q0 -78 -90 -104q57 -14 85 -47t28 -76q0 -61 -50.5 -106.5t-148.5 -45.5q-92 0 -139.5 36.5t-61.5 102.5zM164 612l715 1008h102l-715 -1008h-102zM682 729v82l260 307h82v-317h68v-72h-68v-98h-94v98h-248zM780 801h150v170z" />
<glyph unicode="&#xbf;" horiz-adv-x="813" d="M102 631q0 63 30 115.5t114 127.5q43 41 63.5 61.5t29.5 39t11 47.5t6 84h113v-35q0 -43 -5 -75.5t-20.5 -63.5t-45 -63.5t-79.5 -75.5q-31 -29 -49 -48.5t-29.5 -37t-14.5 -34t-3 -34.5q0 -35 14.5 -65.5t39 -54t58.5 -38t73 -14.5q74 0 124 47t66 145l119 -14 q-16 -131 -96 -202.5t-211 -71.5q-72 0 -128.5 20.5t-96.5 55t-61.5 81.5t-21.5 103zM342 1206v133h133v-133h-133z" />
<glyph unicode="&#xc0;" horiz-adv-x="888" d="M-2 649l367 955h135l391 -955h-146l-110 289h-397l-107 -289h-133zM272 1040h324l-98 265q-23 59 -41.5 109t-28.5 89q-16 -94 -49 -182zM290 1844h156l88 -183h-92z" />
<glyph unicode="&#xc1;" horiz-adv-x="888" d="M-2 649l367 955h135l391 -955h-146l-110 289h-397l-107 -289h-133zM272 1040h324l-98 265q-23 59 -41.5 109t-28.5 89q-16 -94 -49 -182zM350 1661l88 183h152l-141 -183h-99z" />
<glyph unicode="&#xc2;" horiz-adv-x="888" d="M-2 649l367 955h135l391 -955h-146l-110 289h-397l-107 -289h-133zM225 1661l142 183h123l147 -183h-133l-72 111l-73 -111h-134zM272 1040h324l-98 265q-23 59 -41.5 109t-28.5 89q-16 -94 -49 -182z" />
<glyph unicode="&#xc3;" horiz-adv-x="888" d="M-2 649l367 955h135l391 -955h-146l-110 289h-397l-107 -289h-133zM225 1661q0 66 38 107.5t93 41.5q12 0 35 -8t48.5 -19.5t50 -19.5t38.5 -8q20 0 31.5 11.5t15.5 43.5h84q-2 -74 -36.5 -110.5t-90.5 -36.5q-14 0 -38.5 9t-50 20.5t-48 20.5t-35.5 9q-23 0 -36 -15 t-13 -46h-86zM272 1040h324l-98 265q-23 59 -41.5 109t-28.5 89q-16 -94 -49 -182z" />
<glyph unicode="&#xc4;" horiz-adv-x="888" d="M-2 649l367 955h135l391 -955h-146l-110 289h-397l-107 -289h-133zM248 1661v135h121v-135h-121zM272 1040h324l-98 265q-23 59 -41.5 109t-28.5 89q-16 -94 -49 -182zM490 1661v135h120v-135h-120z" />
<glyph unicode="&#xc5;" horiz-adv-x="888" d="M-2 649l367 955h135l391 -955h-146l-110 289h-397l-107 -289h-133zM272 1040h324l-98 265q-23 59 -41.5 109t-28.5 89q-16 -94 -49 -182zM311 1690q0 47 35 81.5t82 34.5q49 0 84 -34.5t35 -83.5q0 -51 -35 -85t-82 -34q-49 0 -84 35t-35 86zM363 1690q0 -31 20.5 -51.5 t46.5 -20.5q29 0 49.5 20.5t20.5 49.5t-20.5 50t-49.5 21q-27 0 -47 -20t-20 -49z" />
<glyph unicode="&#xc6;" horiz-adv-x="1331" d="M0 649l459 955h782v-113h-479v-295h444v-111h-444v-323h495v-113h-622v277h-369l-129 -277h-137zM319 1036h316v455h-94z" />
<glyph unicode="&#xc7;" horiz-adv-x="960" d="M66 1135q0 113 33.5 201.5t94 152t142.5 97.5t180 34q143 0 240.5 -71.5t136.5 -207.5l-125 -28q-35 111 -100.5 154.5t-169.5 43.5q-78 0 -134.5 -31.5t-93.5 -81.5t-55 -114.5t-18 -132.5v-16v-31q0 -86 23.5 -153.5t64.5 -113.5t97 -71t122 -25q106 0 179.5 61.5 t98.5 180.5l127 -31q-45 -166 -151.5 -241.5t-265.5 -75.5q-109 0 -188 40t-131 107.5t-78.5 158.5t-28.5 194zM332 383l8 78q20 -2 34.5 -2h24.5q55 0 80 12t25 35q0 18 -16.5 29.5t-86.5 15.5l35 115h86l-20 -70q55 -6 82.5 -33.5t27.5 -62.5q0 -49 -47 -86t-139 -37 q-55 0 -94 6z" />
<glyph unicode="&#xc8;" horiz-adv-x="888" d="M104 649v955h691v-113h-564v-293h529v-111h-529v-325h584v-113h-711zM307 1844h156l88 -183h-92z" />
<glyph unicode="&#xc9;" horiz-adv-x="888" d="M104 649v955h691v-113h-564v-293h529v-111h-529v-325h584v-113h-711zM364 1661l88 183h152l-141 -183h-99z" />
<glyph unicode="&#xca;" horiz-adv-x="888" d="M104 649v955h691v-113h-564v-293h529v-111h-529v-325h584v-113h-711zM252 1661l142 183h123l147 -183h-133l-72 111l-73 -111h-134z" />
<glyph unicode="&#xcb;" horiz-adv-x="888" d="M104 649v955h691v-113h-564v-293h529v-111h-529v-325h584v-113h-711zM279 1661v135h121v-135h-121zM521 1661v135h120v-135h-120z" />
<glyph unicode="&#xcc;" horiz-adv-x="370" d="M37 1844h156l88 -183h-92zM125 649v955h125v-955h-125z" />
<glyph unicode="&#xcd;" horiz-adv-x="370" d="M92 1661l88 183h152l-141 -183h-99zM125 649v955h125v-955h-125z" />
<glyph unicode="&#xce;" horiz-adv-x="370" d="M-19 1661l142 183h123l147 -183h-133l-72 111l-73 -111h-134zM125 649v955h125v-955h-125z" />
<glyph unicode="&#xcf;" horiz-adv-x="370" d="M6 1661v135h121v-135h-121zM125 649v955h125v-955h-125zM248 1661v135h120v-135h-120z" />
<glyph unicode="&#xd0;" horiz-adv-x="960" d="M-2 1083v86h104v435h330q63 0 109.5 -4.5t82 -14.5t62.5 -25.5t53 -37.5q152 -129 152 -389q0 -154 -41 -248t-105.5 -146.5t-143.5 -71t-155 -18.5h-344v434h-104zM229 762h203q98 0 161.5 23.5t100.5 70.5t51.5 116.5t14.5 160.5q0 98 -17.5 166.5t-57.5 111.5 t-103.5 61.5t-153.5 18.5h-199v-322h263v-86h-263v-321z" />
<glyph unicode="&#xd1;" horiz-adv-x="960" d="M100 649v955h131l500 -750v750h121v-955h-129l-502 750v-750h-121zM278 1661q0 66 38 107.5t93 41.5q12 0 35 -8t48.5 -19.5t50 -19.5t38.5 -8q20 0 31.5 11.5t15.5 43.5h84q-2 -74 -36.5 -110.5t-90.5 -36.5q-14 0 -38.5 9t-50 20.5t-48 20.5t-35.5 9q-23 0 -36 -15 t-13 -46h-86z" />
<glyph unicode="&#xd2;" horiz-adv-x="1034" d="M63 1114q0 121 35 215t95.5 158.5t144.5 98.5t182 34q106 0 190.5 -38t143.5 -106.5t91 -162.5t32 -205q0 -113 -39 -201t-104.5 -148.5t-150.5 -92t-179 -31.5q-100 0 -182 40t-139.5 107.5t-88.5 153.5t-31 178zM195 1112q0 -86 24.5 -154.5t67.5 -116.5t102.5 -74 t128.5 -26q143 0 235.5 99.5t92.5 285.5q0 86 -22.5 157t-65.5 122t-103.5 78.5t-134.5 27.5q-66 0 -125 -21.5t-103 -69.5t-70.5 -123.5t-26.5 -184.5zM350 1844h156l88 -183h-92z" />
<glyph unicode="&#xd3;" horiz-adv-x="1034" d="M63 1114q0 121 35 215t95.5 158.5t144.5 98.5t182 34q106 0 190.5 -38t143.5 -106.5t91 -162.5t32 -205q0 -113 -39 -201t-104.5 -148.5t-150.5 -92t-179 -31.5q-100 0 -182 40t-139.5 107.5t-88.5 153.5t-31 178zM195 1112q0 -86 24.5 -154.5t67.5 -116.5t102.5 -74 t128.5 -26q143 0 235.5 99.5t92.5 285.5q0 86 -22.5 157t-65.5 122t-103.5 78.5t-134.5 27.5q-66 0 -125 -21.5t-103 -69.5t-70.5 -123.5t-26.5 -184.5zM440 1661l88 183h152l-141 -183h-99z" />
<glyph unicode="&#xd4;" horiz-adv-x="1034" d="M63 1114q0 121 35 215t95.5 158.5t144.5 98.5t182 34q106 0 190.5 -38t143.5 -106.5t91 -162.5t32 -205q0 -113 -39 -201t-104.5 -148.5t-150.5 -92t-179 -31.5q-100 0 -182 40t-139.5 107.5t-88.5 153.5t-31 178zM195 1112q0 -86 24.5 -154.5t67.5 -116.5t102.5 -74 t128.5 -26q143 0 235.5 99.5t92.5 285.5q0 86 -22.5 157t-65.5 122t-103.5 78.5t-134.5 27.5q-66 0 -125 -21.5t-103 -69.5t-70.5 -123.5t-26.5 -184.5zM311 1661l142 183h123l147 -183h-133l-72 111l-73 -111h-134z" />
<glyph unicode="&#xd5;" horiz-adv-x="1034" d="M63 1114q0 121 35 215t95.5 158.5t144.5 98.5t182 34q106 0 190.5 -38t143.5 -106.5t91 -162.5t32 -205q0 -113 -39 -201t-104.5 -148.5t-150.5 -92t-179 -31.5q-100 0 -182 40t-139.5 107.5t-88.5 153.5t-31 178zM195 1112q0 -86 24.5 -154.5t67.5 -116.5t102.5 -74 t128.5 -26q143 0 235.5 99.5t92.5 285.5q0 86 -22.5 157t-65.5 122t-103.5 78.5t-134.5 27.5q-66 0 -125 -21.5t-103 -69.5t-70.5 -123.5t-26.5 -184.5zM303 1661q0 66 38 107.5t93 41.5q12 0 35 -8t48.5 -19.5t50 -19.5t38.5 -8q20 0 31.5 11.5t15.5 43.5h84 q-2 -74 -36.5 -110.5t-90.5 -36.5q-14 0 -38.5 9t-50 20.5t-48 20.5t-35.5 9q-23 0 -36 -15t-13 -46h-86z" />
<glyph unicode="&#xd6;" horiz-adv-x="1034" d="M63 1114q0 121 35 215t95.5 158.5t144.5 98.5t182 34q106 0 190.5 -38t143.5 -106.5t91 -162.5t32 -205q0 -113 -39 -201t-104.5 -148.5t-150.5 -92t-179 -31.5q-100 0 -182 40t-139.5 107.5t-88.5 153.5t-31 178zM195 1112q0 -86 24.5 -154.5t67.5 -116.5t102.5 -74 t128.5 -26q143 0 235.5 99.5t92.5 285.5q0 86 -22.5 157t-65.5 122t-103.5 78.5t-134.5 27.5q-66 0 -125 -21.5t-103 -69.5t-70.5 -123.5t-26.5 -184.5zM338 1661v135h121v-135h-121zM580 1661v135h120v-135h-120z" />
<glyph unicode="&#xd7;" horiz-adv-x="776" d="M104 915l205 205l-205 205l80 80l205 -205l203 203l78 -78l-203 -205l205 -202l-80 -80l-205 204l-205 -204z" />
<glyph unicode="&#xd8;" horiz-adv-x="1034" d="M53 666l115 129q-35 51 -56.5 91t-32.5 79t-14.5 78.5t-3.5 93.5q0 111 36 199.5t97.5 152t144.5 97.5t179 34q88 0 153.5 -23.5t139.5 -80.5l111 122l63 -55l-113 -129q33 -49 52.5 -91t31 -82t14.5 -81t3 -90q0 -111 -37 -199t-99.5 -149.5t-144.5 -94t-172 -32.5 q-43 0 -78.5 4t-69.5 15.5t-69 31t-76 47.5l-108 -121zM193 1126q0 -35 2 -63.5t8 -56t17 -56t30 -65.5l483 542q-59 49 -105 66.5t-108 17.5q-141 0 -234 -96t-93 -289zM305 819q53 -45 102.5 -61.5t108.5 -16.5q70 0 130.5 26t104.5 75t68.5 119.5t24.5 160.5 q-1 136 -56 240z" />
<glyph unicode="&#xd9;" horiz-adv-x="960" d="M104 1053v551h127v-551q0 -166 53.5 -235.5t186.5 -69.5q70 0 118 14t78.5 49t45 93.5t14.5 148.5v551h127v-551q0 -104 -18.5 -180t-61.5 -127.5t-114.5 -79t-178.5 -31.5q-102 0 -173.5 24.5t-117 74.5t-66 129t-20.5 190zM311 1844h156l88 -183h-92z" />
<glyph unicode="&#xda;" horiz-adv-x="960" d="M104 1053v551h127v-551q0 -166 53.5 -235.5t186.5 -69.5q70 0 118 14t78.5 49t45 93.5t14.5 148.5v551h127v-551q0 -104 -18.5 -180t-61.5 -127.5t-114.5 -79t-178.5 -31.5q-102 0 -173.5 24.5t-117 74.5t-66 129t-20.5 190zM399 1661l88 183h152l-141 -183h-99z" />
<glyph unicode="&#xdb;" horiz-adv-x="960" d="M104 1053v551h127v-551q0 -166 53.5 -235.5t186.5 -69.5q70 0 118 14t78.5 49t45 93.5t14.5 148.5v551h127v-551q0 -104 -18.5 -180t-61.5 -127.5t-114.5 -79t-178.5 -31.5q-102 0 -173.5 24.5t-117 74.5t-66 129t-20.5 190zM272 1661l142 183h123l147 -183h-133l-72 111 l-73 -111h-134z" />
<glyph unicode="&#xdc;" horiz-adv-x="960" d="M104 1053v551h127v-551q0 -166 53.5 -235.5t186.5 -69.5q70 0 118 14t78.5 49t45 93.5t14.5 148.5v551h127v-551q0 -104 -18.5 -180t-61.5 -127.5t-114.5 -79t-178.5 -31.5q-102 0 -173.5 24.5t-117 74.5t-66 129t-20.5 190zM297 1661v135h121v-135h-121zM539 1661v135 h120v-135h-120z" />
<glyph unicode="&#xdd;" horiz-adv-x="888" d="M4 1604h154l186 -287q27 -41 51.5 -82t46.5 -82q23 39 48.5 81t56.5 89l184 281h146l-379 -549v-406h-127v406zM358 1661l88 183h152l-141 -183h-99z" />
<glyph unicode="&#xde;" horiz-adv-x="888" d="M102 649v955h127v-195h234q82 0 149.5 -13.5t115.5 -45t74.5 -85t26.5 -132.5q0 -59 -17 -111.5t-58 -91.5t-110 -62.5t-171 -23.5h-244v-195h-127zM229 956h246q123 0 174 45.5t51 126.5q0 98 -57 133t-170 35h-244v-340z" />
<glyph unicode="&#xdf;" horiz-adv-x="813" d="M98 649v649v23q0 160 76 225.5t203 73.5q113 0 177 -56.5t64 -129.5q0 -35 -11 -70t-42 -88q-31 -51 -39 -71.5t-8 -37.5q0 -10 2 -19t11.5 -20.5t29 -27t51.5 -35.5q51 -33 83 -59.5t48.5 -50t22.5 -48t6 -53.5q0 -92 -66.5 -155.5t-170.5 -63.5q-82 0 -143.5 43 t-92.5 113l100 47q33 -61 66 -85t67 -24q49 0 84 35t35 80q0 16 -2 27.5t-11 23.5t-27.5 27.5t-53.5 40.5q-55 37 -87 63.5t-47 48t-19.5 38.5t-4.5 38q0 25 9.5 50.5t42.5 82.5t43 86t10 51q0 39 -35 71t-94 32q-35 0 -63.5 -8.5t-50 -33t-34 -69.5t-12.5 -119v-645h-117z " />
<glyph unicode="&#xe0;" d="M47 831q0 57 23.5 96.5t62.5 64t88 37.5t98 20q145 16 209 38v31q0 82 -46 112t-120 30q-82 0 -121.5 -30t-58.5 -102l-114 15q23 106 97.5 159.5t215.5 53.5q90 0 142 -18.5t80 -52.5t36 -82t8 -107v-158q0 -86 1 -132t4 -73.5t11.5 -43t20.5 -40.5h-123q-20 39 -22 86 q-66 -55 -126.5 -77.5t-127.5 -22.5q-117 0 -177.5 55t-60.5 141zM172 836q0 -47 36 -79t103 -32q102 0 159.5 56.5t57.5 172.5v41q-33 -12 -80 -23t-110 -20q-53 -8 -84 -18t-48.5 -23.5t-23.5 -32t-10 -42.5zM219 1608h156l88 -183h-92z" />
<glyph unicode="&#xe1;" d="M47 831q0 57 23.5 96.5t62.5 64t88 37.5t98 20q145 16 209 38v31q0 82 -46 112t-120 30q-82 0 -121.5 -30t-58.5 -102l-114 15q23 106 97.5 159.5t215.5 53.5q90 0 142 -18.5t80 -52.5t36 -82t8 -107v-158q0 -86 1 -132t4 -73.5t11.5 -43t20.5 -40.5h-123q-20 39 -22 86 q-66 -55 -126.5 -77.5t-127.5 -22.5q-117 0 -177.5 55t-60.5 141zM172 836q0 -47 36 -79t103 -32q102 0 159.5 56.5t57.5 172.5v41q-33 -12 -80 -23t-110 -20q-53 -8 -84 -18t-48.5 -23.5t-23.5 -32t-10 -42.5zM301 1425l88 183h152l-141 -183h-99z" />
<glyph unicode="&#xe2;" d="M47 831q0 57 23.5 96.5t62.5 64t88 37.5t98 20q145 16 209 38v31q0 82 -46 112t-120 30q-82 0 -121.5 -30t-58.5 -102l-114 15q23 106 97.5 159.5t215.5 53.5q90 0 142 -18.5t80 -52.5t36 -82t8 -107v-158q0 -86 1 -132t4 -73.5t11.5 -43t20.5 -40.5h-123q-20 39 -22 86 q-66 -55 -126.5 -77.5t-127.5 -22.5q-117 0 -177.5 55t-60.5 141zM159 1425l142 183h123l147 -183h-133l-72 111l-73 -111h-134zM172 836q0 -47 36 -79t103 -32q102 0 159.5 56.5t57.5 172.5v41q-33 -12 -80 -23t-110 -20q-53 -8 -84 -18t-48.5 -23.5t-23.5 -32t-10 -42.5z " />
<glyph unicode="&#xe3;" d="M47 831q0 57 23.5 96.5t62.5 64t88 37.5t98 20q145 16 209 38v31q0 82 -46 112t-120 30q-82 0 -121.5 -30t-58.5 -102l-114 15q23 106 97.5 159.5t215.5 53.5q90 0 142 -18.5t80 -52.5t36 -82t8 -107v-158q0 -86 1 -132t4 -73.5t11.5 -43t20.5 -40.5h-123q-20 39 -22 86 q-66 -55 -126.5 -77.5t-127.5 -22.5q-117 0 -177.5 55t-60.5 141zM147 1442q0 66 38 107.5t93 41.5q12 0 35 -8t48.5 -19.5t50 -19.5t38.5 -8q20 0 31.5 11.5t15.5 43.5h84q-2 -74 -36.5 -110.5t-90.5 -36.5q-14 0 -38.5 9t-50 20.5t-48 20.5t-35.5 9q-23 0 -36 -15t-13 -46 h-86zM172 836q0 -47 36 -79t103 -32q102 0 159.5 56.5t57.5 172.5v41q-33 -12 -80 -23t-110 -20q-53 -8 -84 -18t-48.5 -23.5t-23.5 -32t-10 -42.5z" />
<glyph unicode="&#xe4;" d="M47 831q0 57 23.5 96.5t62.5 64t88 37.5t98 20q145 16 209 38v31q0 82 -46 112t-120 30q-82 0 -121.5 -30t-58.5 -102l-114 15q23 106 97.5 159.5t215.5 53.5q90 0 142 -18.5t80 -52.5t36 -82t8 -107v-158q0 -86 1 -132t4 -73.5t11.5 -43t20.5 -40.5h-123q-20 39 -22 86 q-66 -55 -126.5 -77.5t-127.5 -22.5q-117 0 -177.5 55t-60.5 141zM172 836q0 -47 36 -79t103 -32q102 0 159.5 56.5t57.5 172.5v41q-33 -12 -80 -23t-110 -20q-53 -8 -84 -18t-48.5 -23.5t-23.5 -32t-10 -42.5zM184 1475v135h121v-135h-121zM426 1475v135h120v-135h-120z " />
<glyph unicode="&#xe5;" d="M47 831q0 57 23.5 96.5t62.5 64t88 37.5t98 20q145 16 209 38v31q0 82 -46 112t-120 30q-82 0 -121.5 -30t-58.5 -102l-114 15q23 106 97.5 159.5t215.5 53.5q90 0 142 -18.5t80 -52.5t36 -82t8 -107v-158q0 -86 1 -132t4 -73.5t11.5 -43t20.5 -40.5h-123q-20 39 -22 86 q-66 -55 -126.5 -77.5t-127.5 -22.5q-117 0 -177.5 55t-60.5 141zM172 836q0 -47 36 -79t103 -32q102 0 159.5 56.5t57.5 172.5v41q-33 -12 -80 -23t-110 -20q-53 -8 -84 -18t-48.5 -23.5t-23.5 -32t-10 -42.5zM247 1520q0 47 35 81.5t82 34.5q49 0 84 -34.5t35 -83.5 q0 -51 -35 -85t-82 -34q-49 0 -84 35t-35 86zM299 1520q0 -31 20.5 -51.5t46.5 -20.5q29 0 49.5 20.5t20.5 49.5t-20.5 50t-49.5 21q-27 0 -47 -20t-20 -49z" />
<glyph unicode="&#xe6;" horiz-adv-x="1183" d="M43 831q0 43 14.5 79t49 63.5t94 47t149.5 32.5q25 2 53.5 6t53 10t41 15.5t16.5 25.5q0 86 -34 118t-120 32q-90 0 -128.5 -29t-55.5 -105l-113 15q27 106 95.5 160.5t203.5 54.5q86 0 145.5 -19.5t92.5 -72.5q47 47 100.5 69.5t135.5 22.5q76 0 132 -33t92 -84 t53 -113.5t17 -119.5v-16.5t-2 -24.5h-497q0 -119 51 -176.5t145 -57.5q68 0 114 38t65 108l120 -17q-31 -106 -108.5 -165.5t-194.5 -59.5q-86 0 -146.5 30.5t-111.5 98.5q-66 -68 -135.5 -98.5t-148.5 -30.5q-113 0 -175.5 57.5t-62.5 138.5zM168 836q0 -45 35 -77 t100 -32q76 0 131 37t72 92q8 30 8 139q-25 -10 -77 -21t-132 -26q-82 -10 -109.5 -40.5t-27.5 -71.5zM631 1061h379q-10 104 -59.5 151.5t-129.5 47.5q-82 0 -133 -52.5t-57 -146.5z" />
<glyph unicode="&#xe7;" horiz-adv-x="665" d="M51 1012q0 80 24.5 144.5t67.5 108.5t100.5 67.5t123.5 23.5q113 0 184.5 -57.5t89.5 -161.5l-113 -17q-35 139 -157 140q-88 0 -143.5 -63.5t-55.5 -201.5q0 -141 53.5 -202.5t139.5 -61.5q70 0 116 42t58 130l114 -14q-18 -123 -96 -188.5t-190 -65.5q-152 0 -234 96 t-82 281zM197 395l8 78q20 -2 34.5 -2h24.5q55 0 80 12t25 35q0 18 -16.5 29.5t-86.5 15.5l35 115h86l-20 -70q55 -6 82.5 -33.5t27.5 -62.5q0 -49 -47 -86t-139 -37q-55 0 -94 6z" />
<glyph unicode="&#xe8;" d="M49 989q0 174 89 270.5t233 96.5q141 0 227 -93.5t86 -267.5v-30h-514q6 -113 64.5 -173.5t144.5 -60.5q63 0 109 33.5t71 107.5l123 -16q-29 -104 -106.5 -162.5t-196.5 -58.5q-154 0 -242 93t-88 261zM176 1061h385q-8 104 -62.5 151.5t-125.5 47.5q-80 0 -135.5 -53.5 t-61.5 -145.5zM200 1608h156l88 -183h-92z" />
<glyph unicode="&#xe9;" d="M49 989q0 174 89 270.5t233 96.5q141 0 227 -93.5t86 -267.5v-30h-514q6 -113 64.5 -173.5t144.5 -60.5q63 0 109 33.5t71 107.5l123 -16q-29 -104 -106.5 -162.5t-196.5 -58.5q-154 0 -242 93t-88 261zM176 1061h385q-8 104 -62.5 151.5t-125.5 47.5q-80 0 -135.5 -53.5 t-61.5 -145.5zM301 1425l88 183h152l-141 -183h-99z" />
<glyph unicode="&#xea;" d="M49 989q0 174 89 270.5t233 96.5q141 0 227 -93.5t86 -267.5v-30h-514q6 -113 64.5 -173.5t144.5 -60.5q63 0 109 33.5t71 107.5l123 -16q-29 -104 -106.5 -162.5t-196.5 -58.5q-154 0 -242 93t-88 261zM161 1425l142 183h123l147 -183h-133l-72 111l-73 -111h-134z M176 1061h385q-8 104 -62.5 151.5t-125.5 47.5q-80 0 -135.5 -53.5t-61.5 -145.5z" />
<glyph unicode="&#xeb;" d="M49 989q0 174 89 270.5t233 96.5q141 0 227 -93.5t86 -267.5v-30h-514q6 -113 64.5 -173.5t144.5 -60.5q63 0 109 33.5t71 107.5l123 -16q-29 -104 -106.5 -162.5t-196.5 -58.5q-154 0 -242 93t-88 261zM176 1061h385q-8 104 -62.5 151.5t-125.5 47.5q-80 0 -135.5 -53.5 t-61.5 -145.5zM186 1475v135h121v-135h-121zM428 1475v135h120v-135h-120z" />
<glyph unicode="&#xec;" horiz-adv-x="370" d="M24 1608h156l88 -183h-92zM129 649v690h117v-690h-117z" />
<glyph unicode="&#xed;" horiz-adv-x="370" d="M125 1425l88 183h152l-141 -183h-99zM129 649v690h117v-690h-117z" />
<glyph unicode="&#xee;" horiz-adv-x="370" d="M-9 1425l142 183h123l147 -183h-133l-72 111l-73 -111h-134zM129 649v690h117v-690h-117z" />
<glyph unicode="&#xef;" horiz-adv-x="370" d="M8 1475v135h121v-135h-121zM129 649v690h117v-690h-117zM250 1475v135h120v-135h-120z" />
<glyph unicode="&#xf0;" d="M47 985q0 86 22.5 151.5t61.5 110.5t93.5 68.5t117.5 23.5q37 0 65.5 -7t71.5 -29q-23 47 -40 73.5t-52 63.5l-178 -82l-31 67l158 70q-33 29 -66.5 56.5t-68.5 52.5h141q45 -35 80 -68l139 68l31 -68l-113 -53q207 -242 207 -494q0 -84 -23.5 -149.5t-66.5 -110.5 t-101.5 -69.5t-127.5 -24.5q-66 0 -124.5 21.5t-101.5 64.5t-68.5 108.5t-25.5 155.5zM168 983q0 -129 56.5 -191.5t142.5 -62.5q82 0 140 67.5t58 196.5q0 125 -58 191.5t-145 66.5q-86 0 -140 -66.5t-54 -201.5z" />
<glyph unicode="&#xf1;" d="M88 649v690h105v-98q78 115 221 115q72 0 118 -21.5t71.5 -60.5t35.5 -90t10 -111v-424h-117v420q0 102 -34.5 140t-110.5 44q-37 0 -69.5 -10t-58.5 -36.5t-40 -69.5t-14 -111v-377h-117zM170 1442q0 66 38 107.5t93 41.5q12 0 35 -8t48.5 -19.5t50 -19.5t38.5 -8 q20 0 31.5 11.5t15.5 43.5h84q-2 -74 -36.5 -110.5t-90.5 -36.5q-14 0 -38.5 9t-50 20.5t-48 20.5t-35.5 9q-23 0 -36 -15t-13 -46h-86z" />
<glyph unicode="&#xf2;" d="M43 995q0 176 91 268.5t235 92.5q150 0 235.5 -96.5t85.5 -270.5q0 -92 -25.5 -158.5t-68.5 -108.5t-101.5 -63.5t-125.5 -23.5q-147 0 -236.5 91t-89.5 269zM164 995q0 -135 58.5 -199.5t146.5 -64.5q86 0 144 65.5t58 202.5q0 129 -58 195t-144 66q-88 0 -146.5 -65 t-58.5 -200zM200 1608h156l88 -183h-92z" />
<glyph unicode="&#xf3;" d="M43 995q0 176 91 268.5t235 92.5q150 0 235.5 -96.5t85.5 -270.5q0 -92 -25.5 -158.5t-68.5 -108.5t-101.5 -63.5t-125.5 -23.5q-147 0 -236.5 91t-89.5 269zM164 995q0 -135 58.5 -199.5t146.5 -64.5q86 0 144 65.5t58 202.5q0 129 -58 195t-144 66q-88 0 -146.5 -65 t-58.5 -200zM303 1425l88 183h152l-141 -183h-99z" />
<glyph unicode="&#xf4;" d="M43 995q0 176 91 268.5t235 92.5q150 0 235.5 -96.5t85.5 -270.5q0 -92 -25.5 -158.5t-68.5 -108.5t-101.5 -63.5t-125.5 -23.5q-147 0 -236.5 91t-89.5 269zM161 1425l142 183h123l147 -183h-133l-72 111l-73 -111h-134zM164 995q0 -135 58.5 -199.5t146.5 -64.5 q86 0 144 65.5t58 202.5q0 129 -58 195t-144 66q-88 0 -146.5 -65t-58.5 -200z" />
<glyph unicode="&#xf5;" d="M43 995q0 176 91 268.5t235 92.5q150 0 235.5 -96.5t85.5 -270.5q0 -92 -25.5 -158.5t-68.5 -108.5t-101.5 -63.5t-125.5 -23.5q-147 0 -236.5 91t-89.5 269zM149 1442q0 66 38 107.5t93 41.5q12 0 35 -8t48.5 -19.5t50 -19.5t38.5 -8q20 0 31.5 11.5t15.5 43.5h84 q-2 -74 -36.5 -110.5t-90.5 -36.5q-14 0 -38.5 9t-50 20.5t-48 20.5t-35.5 9q-23 0 -36 -15t-13 -46h-86zM164 995q0 -135 58.5 -199.5t146.5 -64.5q86 0 144 65.5t58 202.5q0 129 -58 195t-144 66q-88 0 -146.5 -65t-58.5 -200z" />
<glyph unicode="&#xf6;" d="M43 995q0 176 91 268.5t235 92.5q150 0 235.5 -96.5t85.5 -270.5q0 -92 -25.5 -158.5t-68.5 -108.5t-101.5 -63.5t-125.5 -23.5q-147 0 -236.5 91t-89.5 269zM164 995q0 -135 58.5 -199.5t146.5 -64.5q86 0 144 65.5t58 202.5q0 129 -58 195t-144 66q-88 0 -146.5 -65 t-58.5 -200zM186 1475v135h121v-135h-121zM428 1475v135h120v-135h-120z" />
<glyph unicode="&#xf7;" horiz-adv-x="731" d="M51 1065v111h629v-111h-629zM299 856v135h133v-135h-133zM299 1249v133h133v-133h-133z" />
<glyph unicode="&#xf8;" horiz-adv-x="813" d="M84 985q0 100 26.5 171t70.5 115t102.5 64.5t119.5 20.5q53 0 98.5 -13.5t96.5 -44.5l64 84l63 -45l-70 -90q47 -66 61.5 -120t14.5 -134q0 -178 -92 -268t-233 -90q-104 0 -183 51l-67 -88l-62 47l70 90q-47 57 -63.5 115.5t-16.5 134.5zM205 995q0 -100 33 -164 l294 383q-57 45 -124 46q-86 0 -144.5 -67t-58.5 -198zM289 772q53 -41 114 -41q92 0 149.5 64.5t57.5 199.5q0 45 -3.5 77t-26.5 79z" />
<glyph unicode="&#xf9;" d="M86 913v426h117v-383q0 -117 26.5 -169t114.5 -52q39 2 73 14.5t58.5 37t38.5 63.5t14 96v25v368h117v-690h-104v103q-80 -117 -219 -117q-74 0 -119 21.5t-72 59.5t-36 88t-9 109zM227 1608h156l88 -183h-92z" />
<glyph unicode="&#xfa;" d="M86 913v426h117v-383q0 -117 26.5 -169t114.5 -52q39 2 73 14.5t58.5 37t38.5 63.5t14 96v25v368h117v-690h-104v103q-80 -117 -219 -117q-74 0 -119 21.5t-72 59.5t-36 88t-9 109zM293 1425l88 183h152l-141 -183h-99z" />
<glyph unicode="&#xfb;" d="M86 913v426h117v-383q0 -117 26.5 -169t114.5 -52q39 2 73 14.5t58.5 37t38.5 63.5t14 96v25v368h117v-690h-104v103q-80 -117 -219 -117q-74 0 -119 21.5t-72 59.5t-36 88t-9 109zM159 1425l142 183h123l147 -183h-133l-72 111l-73 -111h-134z" />
<glyph unicode="&#xfc;" d="M86 913v426h117v-383q0 -117 26.5 -169t114.5 -52q39 2 73 14.5t58.5 37t38.5 63.5t14 96v25v368h117v-690h-104v103q-80 -117 -219 -117q-74 0 -119 21.5t-72 59.5t-36 88t-9 109zM184 1475v135h121v-135h-121zM426 1475v135h120v-135h-120z" />
<glyph unicode="&#xfd;" horiz-adv-x="665" d="M20 1339h127l144 -399q14 -39 27.5 -79t23.5 -81q10 41 21.5 80t25.5 78l148 401h116l-262 -700q-29 -78 -52.5 -130t-49 -83t-57 -43t-74.5 -12q-35 0 -74 12l-14 111q20 -4 35.5 -7.5t29.5 -3.5q33 0 53.5 6.5t36 24.5t27.5 50t31 85zM272 1425l88 183h152l-141 -183 h-99z" />
<glyph unicode="&#xfe;" d="M88 385v1219h117v-336q47 55 92 71.5t98 16.5q72 0 126 -28t91 -78t55.5 -118.5t18.5 -148.5q0 -78 -24.5 -142.5t-65.5 -110.5t-95.5 -70.5t-113.5 -24.5q-51 0 -90 15.5t-92 70.5v-336h-117zM195 991q0 -135 53 -197.5t131 -62.5t133 64.5t55 205.5q0 131 -54 197 t-130 66q-74 0 -131 -69t-57 -204z" />
<glyph unicode="&#xff;" horiz-adv-x="665" d="M20 1339h127l144 -399q14 -39 27.5 -79t23.5 -81q10 41 21.5 80t25.5 78l148 401h116l-262 -700q-29 -78 -52.5 -130t-49 -83t-57 -43t-74.5 -12q-35 0 -74 12l-14 111q20 -4 35.5 -7.5t29.5 -3.5q33 0 53.5 6.5t36 24.5t27.5 50t31 85zM160 1475v135h121v-135h-121z M402 1475v135h120v-135h-120z" />
<glyph unicode="&#x152;" horiz-adv-x="1331" d="M84 1128q0 102 21.5 191.5t68.5 156t120 105.5t175 39q170 0 260 -145v129h541v-113h-424v-293h391v-111h-391v-325h442v-113h-559v139q-90 -154 -260 -153q-184 0 -284.5 133t-100.5 360zM213 1118q0 -98 20.5 -169.5t55.5 -120t81 -71t99 -22.5q51 0 97 22.5t81 69.5 t54.5 123t19.5 185q0 98 -20.5 170.5t-54.5 120t-80 70t-97 22.5q-53 0 -100 -22.5t-82 -72t-54.5 -125t-19.5 -180.5z" />
<glyph unicode="&#x153;" horiz-adv-x="1255" d="M53 1006q0 164 92.5 257t235.5 93q88 0 154.5 -38t101.5 -93q41 59 106.5 95t145.5 36q145 0 231 -97.5t86 -293.5h-510q2 -111 60.5 -172.5t146.5 -61.5q63 0 110.5 36t67.5 107l117 -16q-29 -106 -104.5 -164.5t-192.5 -58.5q-88 0 -156.5 34t-107.5 95 q-98 -129 -258 -129q-156 0 -241 96t-85 275zM174 995q0 -137 57.5 -200.5t143.5 -63.5t144.5 68.5t58.5 197.5t-58.5 196t-144.5 67q-90 0 -145.5 -73t-55.5 -192zM702 1061h381q-8 98 -59 148.5t-129 50.5t-132.5 -53.5t-60.5 -145.5z" />
<glyph unicode="&#x178;" horiz-adv-x="888" d="M4 1604h154l186 -287q27 -41 51.5 -82t46.5 -82q23 39 48.5 81t56.5 89l184 281h146l-379 -549v-406h-127v406zM258 1661v135h121v-135h-121zM500 1661v135h120v-135h-120z" />
<glyph unicode="&#x2c6;" horiz-adv-x="442" d="M16 1425l142 183h123l147 -183h-133l-72 111l-73 -111h-134z" />
<glyph unicode="&#x2dc;" horiz-adv-x="442" d="M4 1442q0 66 38 107.5t93 41.5q12 0 35 -8t48.5 -19.5t50 -19.5t38.5 -8q20 0 31.5 11.5t15.5 43.5h84q-2 -74 -36.5 -110.5t-90.5 -36.5q-14 0 -38.5 9t-50 20.5t-48 20.5t-35.5 9q-23 0 -36 -15t-13 -46h-86z" />
<glyph unicode="&#x2000;" horiz-adv-x="1134" />
<glyph unicode="&#x2001;" horiz-adv-x="2269" />
<glyph unicode="&#x2002;" horiz-adv-x="1134" />
<glyph unicode="&#x2003;" horiz-adv-x="2269" />
<glyph unicode="&#x2004;" horiz-adv-x="756" />
<glyph unicode="&#x2005;" horiz-adv-x="567" />
<glyph unicode="&#x2006;" horiz-adv-x="378" />
<glyph unicode="&#x2007;" horiz-adv-x="378" />
<glyph unicode="&#x2008;" horiz-adv-x="283" />
<glyph unicode="&#x2009;" horiz-adv-x="453" />
<glyph unicode="&#x200a;" horiz-adv-x="126" />
<glyph unicode="&#x2010;" horiz-adv-x="442" d="M43 1585v119h358v-119h-358z" />
<glyph unicode="&#x2011;" horiz-adv-x="442" d="M43 1585v119h358v-119h-358z" />
<glyph unicode="&#x2012;" horiz-adv-x="442" d="M43 1585v119h358v-119h-358z" />
<glyph unicode="&#x2013;" d="M-2 948v94h739v-94h-739z" />
<glyph unicode="&#x2014;" horiz-adv-x="1331" d="M0 948v94h1331v-94h-1331z" />
<glyph unicode="&#x2018;" horiz-adv-x="296" d="M84 1307v106q0 98 26.5 140t79.5 67l29 -45q-37 -16 -53 -46t-19 -85h62v-137h-125z" />
<glyph unicode="&#x2019;" horiz-adv-x="296" d="M70 1348q70 27 71 129h-59v137h125v-109q0 -51 -7 -85t-21.5 -56.5t-34 -36.5t-46.5 -27z" />
<glyph unicode="&#x201a;" horiz-adv-x="296" d="M70 520q70 27 71 129h-59v137h125v-106q0 -49 -7 -84t-20.5 -57.5t-34 -38t-47.5 -27.5z" />
<glyph unicode="&#x201c;" horiz-adv-x="442" d="M53 1307v106q0 96 28 139t81 68l28 -45q-37 -16 -53 -46t-18 -85h59v-137h-125zM256 1307v106q0 98 26.5 140t79.5 67l29 -45q-35 -16 -52 -46t-20 -85h62v-137h-125z" />
<glyph unicode="&#x201d;" horiz-adv-x="442" d="M45 1348q72 27 74 129h-62v137h125v-109q0 -49 -7 -82.5t-20.5 -57.5t-34 -38t-44.5 -27zM248 1348q70 27 71 129h-61v137h125v-109q0 -49 -7 -82.5t-20.5 -57.5t-34 -38t-45.5 -27z" />
<glyph unicode="&#x201e;" horiz-adv-x="442" d="M45 520q72 27 74 129h-62v137h125v-106q0 -98 -26.5 -140t-79.5 -67zM248 520q70 27 71 129h-61v137h125v-106q0 -98 -26.5 -140t-80.5 -67z" />
<glyph unicode="&#x2022;" horiz-adv-x="466" d="M72 1116q0 70 48 117t116 47t115.5 -47t47.5 -117q0 -68 -48 -116t-115 -48q-68 0 -116 48t-48 116z" />
<glyph unicode="&#x2026;" horiz-adv-x="1331" d="M156 649v133h133v-133h-133zM598 649v133h135v-133h-135zM1042 649v133h134v-133h-134z" />
<glyph unicode="&#x202f;" horiz-adv-x="453" />
<glyph unicode="&#x2039;" horiz-adv-x="442" d="M59 993l205 297h96l-172 -297l172 -297h-96z" />
<glyph unicode="&#x203a;" horiz-adv-x="442" d="M59 696l172 297l-172 297h99l196 -293l-196 -301h-99z" />
<glyph unicode="&#x205f;" horiz-adv-x="567" />
<glyph unicode="&#x20ac;" d="M-18 997l18 88h68q-2 14 -2 28.5v31.5q0 16 2 26h-86l18 86h76q33 170 149.5 266.5t290.5 96.5q121 0 205 -53l-27 -121q-82 65 -182 65q-53 0 -104.5 -16t-93.5 -49t-71.5 -80t-35.5 -109h444l-18 -86h-436v-86h419l-18 -88h-387q23 -127 103.5 -191.5t189.5 -64.5 q121 0 190 64v-133q-84 -37 -180 -37q-184 0 -287.5 90t-144.5 272h-100z" />
<glyph unicode="&#x2122;" horiz-adv-x="1331" d="M145 1524v80h435v-80h-174v-451h-89v451h-172zM639 1073v531h129l133 -424l131 424h127v-531h-82v445l-135 -445h-80l-141 451v-451h-82z" />
<glyph unicode="&#xe000;" horiz-adv-x="1341" d="M0 0v1341h1341v-1341h-1341z" />
<glyph unicode="&#xfb01;" horiz-adv-x="665" d="M14 1901v90h105v65q0 104 43 158.5t141 54.5q70 0 119 -14l-19 -101q-35 6 -61 7q-61 0 -83.5 -23.5t-22.5 -101.5v-45h135v-90h-135v-601h-117v601h-105zM459 1300v691h116v-691h-116zM459 2118v135h116v-135h-116z" />
<glyph unicode="&#xfb02;" horiz-adv-x="665" d="M14 1901v90h105v65q0 104 43 158.5t141 54.5q70 0 119 -14l-19 -101q-35 6 -61 7q-61 0 -83.5 -23.5t-22.5 -101.5v-45h135v-90h-135v-601h-117v601h-105zM457 1300v953h116v-953h-116z" />
</font>
</defs>
</svg>
