<svg xmlns="http://www.w3.org/2000/svg" height="260" width="630"><path fill="#f1c40f" stroke="#2c3e50" paint-order="markers fill stroke" d="M.5 52.5h125v207H.5z"/><path fill="#3498db" stroke="#2c3e50" paint-order="markers fill stroke" d="M126.5 52.5h125v207h-125z"/><path fill="#e74c3c" stroke="#2c3e50" paint-order="markers fill stroke" d="M252.5 52.5h125v207h-125z"/><path fill="#2ecc71" stroke="#2c3e50" paint-order="markers fill stroke" d="M378.5 52.5h125v207h-125z"/><path fill="#ecf0f1" stroke="#2c3e50" paint-order="markers fill stroke" d="M504.5 52.5h125v207h-125z"/><path d="M504.5 52.5h125l-62.5-33zm-504 0h125L63 19.5zm126 0h125l-62.5-33zm126 0h125l-62.5-33zm126 0h125l-62.5-33z" fill="#2c3e50" stroke="#2c3e50" stroke-linejoin="round" paint-order="markers fill stroke"/><path d="M630 103.5H0m630 53H0m630 52H0" fill="none" stroke="#2c3e50"/></svg>