<svg height="200" viewBox="0 0 52.917 52.917" width="200" xmlns="http://www.w3.org/2000/svg"><g fill-rule="evenodd"><path d="M0 0h52.917v52.917H0z" fill="#ecf0f1"/><g fill="#16a085" opacity=".99" stroke-width="2"><path d="M28.22 29.538v10.96l7.42-4.64V26.79z" fill="#353564"/><path d="M35.64 26.79l8.016 1.335v9.988l-8.015-2.254z" fill="#e9e9ff"/><g stroke="#7f8c8d" stroke-width=".132"><path d="M28.22 29.538l8.966 1.993 6.47-3.406-8.015-1.336z" fill="#3498db"/><path d="M37.186 31.53v12.33l6.47-5.747v-9.988z" fill="#3498db"/><path d="M28.22 29.538l8.966 1.993V43.86l-8.966-3.363z" fill="#2980b9"/></g></g><g fill="#f1c40f"><ellipse cx="36.224" cy="29.065" opacity=".99" rx="1.704" ry=".661"/><ellipse cx="31.079" cy="38.03" opacity=".99" rx="1.376" ry="1.628"/><ellipse cx="34.353" cy="34.148" opacity=".99" rx="1.376" ry="1.628"/><ellipse cx="42.07" cy="31.108" opacity=".99" rx="1.096" ry="1.301"/><ellipse cx="40.714" cy="34.85" opacity=".99" rx="1.142" ry="1.488"/><ellipse cx="39.17" cy="38.825" opacity=".99" rx="1.33" ry="1.535"/></g><g fill="#16a085" opacity=".99" stroke-width="2"><path d="M11.406 12.824v10.96l7.422-4.639v-9.07z" fill="#353564"/><path d="M18.828 10.075l8.015 1.336V21.4l-8.015-2.254z" fill="#e9e9ff"/><g stroke="#7f8c8d" stroke-width=".132"><path d="M11.406 12.824l8.967 1.993 6.47-3.406-8.015-1.336zM20.373 14.817v12.329l6.47-5.747v-9.988z" fill="#3498db"/><path d="M11.406 12.824l8.967 1.993v12.329l-8.967-3.363z" fill="#2980b9"/></g></g><ellipse cx="19.411" cy="12.351" fill="#f1c40f" opacity=".99" rx="1.704" ry=".661"/><ellipse cx="14.266" cy="21.316" fill="#f1c40f" opacity=".99" rx="1.376" ry="1.628"/><ellipse cx="17.54" cy="17.434" fill="#f1c40f" opacity=".99" rx="1.376" ry="1.628"/><ellipse cx="25.257" cy="14.394" fill="#f1c40f" opacity=".99" rx="1.096" ry="1.301"/><ellipse cx="23.901" cy="18.136" fill="#f1c40f" opacity=".99" rx="1.142" ry="1.488"/><ellipse cx="22.357" cy="22.111" fill="#f1c40f" opacity=".99" rx="1.33" ry="1.535"/></g></svg>