<svg height="200" viewBox="0 0 200 200" width="200" xmlns="http://www.w3.org/2000/svg"><clipPath id="a"><path d="M0 0h200v200H0z"/></clipPath><g clip-path="url(#a)" stroke-linecap="round"><path d="M0 0h200v200H0z" fill="#ecf0f1"/><g fill="none"><path d="M0 100.5h200M100.5 0v200" stroke="#000" stroke-width="1.2"/><path d="M100.5 96.5v8M96.5 100.5h8M-19.5 98.5v4M100.5 98.5v4M98.5-19.5h4M98.5 100.5h4M4.5 99.5v2M28.5 99.5v2M52.5 99.5v2M76.5 99.5v2M100.5 99.5v2M124.5 99.5v2M148.5 99.5v2M172.5 99.5v2M196.5 99.5v2M99.5 4.5h2M99.5 28.5h2M99.5 52.5h2M99.5 76.5h2M99.5 100.5h2M99.5 124.5h2M99.5 148.5h2M99.5 172.5h2M99.5 196.5h2" stroke="#000"/><g stroke="#e74c3c" stroke-width="4"><path d="M47 5l4 6M51 11l5 7M56 18l4 6M60 24l5 7M65 31l5 6M70 37l5 6M75 43l5 6M80 49l6 6M86 55l6 6M92 61l6 4M98 65l7 3M105 68l7 2M112 70l8-1M120 69l8-1M128 68l7-2M135 66l8-3M143 63l7-3M150 60l7-4M157 56l7-3M164 53l7-4M171 49l8-4M179 45l7-4M186 41l7-4M193 37l7-4M200 33l6-4M206 29l7-4M213 25l7-4M220 21l7-4M227 17l7-4M234 13l7-4M47 5l-5-7M42-2l-4-7M136 65l7-3M143 62l8-3M151 59l7-3M73 42l6 6M82 52l6 6M88 58l6 5M119 149l-6-6M113 143l-6-5M107 138l-7-4M100 134l-7-3M93 131l-7-1M86 130l-8 1M78 131l-8 2M70 133l-7 2M63 135l-8 3M55 138l-7 3M48 141l-7 4M41 145l-7 3M34 148l-7 4M27 152l-7 4M20 156l-7 4M13 160l-7 4M6 164l-7 4M-1 168l-7 4M119 149l5 6M124 155l5 6M129 161l5 7M134 168l4 6M138 174l5 7M143 181l5 6M148 187l4 7M152 194l5 6M157 200l4 7M161 207l5 7M166 214l4 6M170 220l4 7M174 227l5 7M179 234l4 6M183 240l4 7M110 69l8 1M118 70l8-2M97 132l-8-1M89 131l-7-1M82 130l-8 2M21 155l7-3M37 146l-7 4M30 150l-7 4M112 143l-6-5M121 152l-5-6M7 163l-7 4M0 167l-7 4M7 163l7-4M14 159l7-4M65 134l-8 3M137 171l-5-6"/></g></g></g></svg>