<svg xmlns="http://www.w3.org/2000/svg" height="390" width="561"><path d="M1.5 1.5v387h558V1.5H1.5zm208.5 50a143.5 143.5 0 0172.5 19.662A143.5 143.5 0 01355 51.5 143.5 143.5 0 01498.5 195 143.5 143.5 0 01355 338.5a143.5 143.5 0 01-72.5-19.662A143.5 143.5 0 01210 338.5 143.5 143.5 0 0166.5 195 143.5 143.5 0 01210 51.5zm72.5 267.338A143.5 143.5 0 00353.5 195a143.5 143.5 0 00-71-123.838A143.5 143.5 0 00211.5 195a143.5 143.5 0 0071 123.838z" fill="#ff7f27"/><path fill="none" stroke="#000" stroke-width="3" stroke-linecap="round" stroke-linejoin="round" d="M1.5 1.5h558v387H1.5z"/><circle r="143.5" cy="195" cx="210" fill="none" stroke="#000" stroke-width="3" stroke-linecap="round" stroke-linejoin="round"/><circle r="143.5" cy="195" cx="355" fill="none" stroke="#000" stroke-width="3" stroke-linecap="round" stroke-linejoin="round"/></svg>