<svg xmlns="http://www.w3.org/2000/svg" width="466" height="466"><path fill="#b6e622" d="M300.5 47.5a126 126 0 00-126 126 126 126 0 00.604 12.3A126 126 0 00114.5 293.5a126 126 0 00126 126 126 126 0 00126-126 126 126 0 00-.604-12.3A126 126 0 00426.5 173.5a126 126 0 00-126-126z"/><circle r="126" cy="173.5" cx="165.5" fill="none" stroke="#000" stroke-width="3" stroke-linecap="round" stroke-linejoin="round"/><circle cx="300.5" cy="173.5" r="126" fill="none" stroke="#000" stroke-width="3" stroke-linecap="round" stroke-linejoin="round"/><path fill="none" stroke="#000" stroke-width="3" stroke-linecap="round" stroke-linejoin="round" d="M1.5 1.5h463v463H1.5z"/><circle r="126" cy="293.5" cx="240.5" fill="none" stroke="#000" stroke-width="3" stroke-linecap="round" stroke-linejoin="round"/></svg>