<svg xmlns="http://www.w3.org/2000/svg" height="466" width="466"><path d="M1.5 1.5v463h463V1.5H1.5zm164 46a126 126 0 01126 126 126 126 0 01-.09 4.744A126 126 0 01366.5 293.5a126 126 0 01-126 126 126 126 0 01-126-126 126 126 0 01.09-4.744A126 126 0 0139.5 173.5a126 126 0 01126-126z" fill="#b6e622"/><circle stroke-linejoin="round" stroke-linecap="round" stroke-width="3" stroke="#000" fill="none" cx="165.5" cy="173.5" r="126"/><circle stroke-linejoin="round" stroke-linecap="round" stroke-width="3" stroke="#000" fill="none" r="126" cy="173.5" cx="300.5"/><path d="M1.5 1.5h463v463H1.5z" stroke-linejoin="round" stroke-linecap="round" stroke-width="3" stroke="#000" fill="none"/><circle stroke-linejoin="round" stroke-linecap="round" stroke-width="3" stroke="#000" fill="none" cx="240.5" cy="293.5" r="126"/></svg>