<svg xmlns="http://www.w3.org/2000/svg" height="466" width="466"><path d="M232.998 279.893A126 126 0 01165.5 299.5a126 126 0 01-50.91-10.744 126 126 0 00-.09 4.744 126 126 0 00126 126 126 126 0 00126-126 126 126 0 00-.604-12.3 126 126 0 01-65.396 18.3 126 126 0 01-67.502-19.607z" fill="#b6e622"/><circle stroke-linejoin="round" stroke-linecap="round" stroke-width="3" stroke="#000" fill="none" cx="165.5" cy="173.5" r="126"/><circle stroke-linejoin="round" stroke-linecap="round" stroke-width="3" stroke="#000" fill="none" r="126" cy="173.5" cx="300.5"/><path d="M1.5 1.5h463v463H1.5z" stroke-linejoin="round" stroke-linecap="round" stroke-width="3" stroke="#000" fill="none"/><circle stroke-linejoin="round" stroke-linecap="round" stroke-width="3" stroke="#000" fill="none" cx="240.5" cy="293.5" r="126"/></svg>