<svg xmlns="http://www.w3.org/2000/svg" width="466" height="466"><path d="M233 67.105A126 126 0 00174.5 173.5a126 126 0 00.604 12.3 126 126 0 0165.396-18.3 126 126 0 0150.91 10.744 126 126 0 00.09-4.744A126 126 0 00233 67.105zM232.998 279.893A126 126 0 01165.5 299.5a126 126 0 01-50.91-10.744 126 126 0 00-.09 4.744 126 126 0 00126 126 126 126 0 00126-126 126 126 0 00-.604-12.3 126 126 0 01-65.396 18.3 126 126 0 01-67.502-19.607z" fill="#b5e61e"/><circle r="126" cy="173.5" cx="165.5" fill="none" stroke="#000" stroke-width="3" stroke-linecap="round" stroke-linejoin="round"/><circle cx="300.5" cy="173.5" r="126" fill="none" stroke="#000" stroke-width="3" stroke-linecap="round" stroke-linejoin="round"/><path fill="none" stroke="#000" stroke-width="3" stroke-linecap="round" stroke-linejoin="round" d="M1.5 1.5h463v463H1.5z"/><circle r="126" cy="293.5" cx="240.5" fill="none" stroke="#000" stroke-width="3" stroke-linecap="round" stroke-linejoin="round"/></svg>