<svg xmlns="http://www.w3.org/2000/svg" height="466" width="466"><path d="M233 67.105A126 126 0 00174.5 173.5a126 126 0 00.604 12.3 126 126 0 0165.396-18.3 126 126 0 0150.91 10.744 126 126 0 00.09-4.744A126 126 0 00233 67.105zm58.41 111.14A126 126 0 01233 279.892a126 126 0 0067.5 19.607 126 126 0 0065.396-18.3 126 126 0 00-74.486-102.956z" fill="#b6e622"/><circle stroke-linejoin="round" stroke-linecap="round" stroke-width="3" stroke="#000" fill="none" cx="165.5" cy="173.5" r="126"/><circle stroke-linejoin="round" stroke-linecap="round" stroke-width="3" stroke="#000" fill="none" r="126" cy="173.5" cx="300.5"/><path d="M1.5 1.5h463v463H1.5z" stroke-linejoin="round" stroke-linecap="round" stroke-width="3" stroke="#000" fill="none"/><circle stroke-linejoin="round" stroke-linecap="round" stroke-width="3" stroke="#000" fill="none" cx="240.5" cy="293.5" r="126"/></svg>