<svg xmlns="http://www.w3.org/2000/svg" height="466" width="466"><path d="M1.5 1.5v463h463V1.5H1.5zm164 46A126 126 0 01233 67.105 126 126 0 01300.5 47.5a126 126 0 01126 126 126 126 0 01-60.604 107.7 126 126 0 01.604 12.3 126 126 0 01-126 126 126 126 0 01-126-126 126 126 0 01.09-4.744A126 126 0 0139.5 173.5a126 126 0 01126-126zm200.396 233.7a126 126 0 00-74.486-102.956A126 126 0 01233 279.893a126 126 0 0067.5 19.607 126 126 0 0065.396-18.3z" fill="#b6e622"/><circle stroke-linejoin="round" stroke-linecap="round" stroke-width="3" stroke="#000" fill="none" cx="165.5" cy="173.5" r="126"/><circle stroke-linejoin="round" stroke-linecap="round" stroke-width="3" stroke="#000" fill="none" r="126" cy="173.5" cx="300.5"/><path d="M1.5 1.5h463v463H1.5z" stroke-linejoin="round" stroke-linecap="round" stroke-width="3" stroke="#000" fill="none"/><circle stroke-linejoin="round" stroke-linecap="round" stroke-width="3" stroke="#000" fill="none" cx="240.5" cy="293.5" r="126"/></svg>