<svg xmlns="http://www.w3.org/2000/svg" height="466" width="466"><path d="M300.5 47.5A126 126 0 00233 67.105 126 126 0 01291.5 173.5a126 126 0 01-.09 4.744A126 126 0 01365.896 281.2 126 126 0 00426.5 173.5a126 126 0 00-126-126zm-9.09 130.744A126 126 0 00240.5 167.5a126 126 0 00-125.91 121.256A126 126 0 00165.5 299.5a126 126 0 00125.91-121.256z" fill="#b6e622"/><circle stroke-linejoin="round" stroke-linecap="round" stroke-width="3" stroke="#000" fill="none" cx="165.5" cy="173.5" r="126"/><circle stroke-linejoin="round" stroke-linecap="round" stroke-width="3" stroke="#000" fill="none" r="126" cy="173.5" cx="300.5"/><path d="M1.5 1.5h463v463H1.5z" stroke-linejoin="round" stroke-linecap="round" stroke-width="3" stroke="#000" fill="none"/><circle stroke-linejoin="round" stroke-linecap="round" stroke-width="3" stroke="#000" fill="none" cx="240.5" cy="293.5" r="126"/></svg>