<svg xmlns="http://www.w3.org/2000/svg" width="466" height="466"><path fill="#b6e622" d="M1.5 1.5v463h463V1.5H1.5zm164 46A126 126 0 01233 67.105 126 126 0 01300.5 47.5a126 126 0 01126 126 126 126 0 01-60.604 107.7 126 126 0 01.604 12.3 126 126 0 01-126 126 126 126 0 01-126-126 126 126 0 01.09-4.744A126 126 0 0139.5 173.5a126 126 0 01126-126zM233 67.105A126 126 0 00174.5 173.5 126 126 0 00233 279.895 126 126 0 00291.5 173.5 126 126 0 00233 67.105z"/><circle r="126" cy="173.5" cx="165.5" fill="none" stroke="#000" stroke-width="3" stroke-linecap="round" stroke-linejoin="round"/><circle cx="300.5" cy="173.5" r="126" fill="none" stroke="#000" stroke-width="3" stroke-linecap="round" stroke-linejoin="round"/><path fill="none" stroke="#000" stroke-width="3" stroke-linecap="round" stroke-linejoin="round" d="M1.5 1.5h463v463H1.5z"/><circle r="126" cy="293.5" cx="240.5" fill="none" stroke="#000" stroke-width="3" stroke-linecap="round" stroke-linejoin="round"/></svg>