<svg xmlns="http://www.w3.org/2000/svg" height="466" width="466"><path d="M165.5 299.5a126 126 0 01-50.91-10.744c-.06 1.58-.09 3.162-.09 4.744 0 69.588 56.412 126 126 126s126-56.412 126-126a126 126 0 00-.603-12.3c-6.329-64.514-60.574-113.7-125.397-113.7a126 126 0 00-65.396 18.3 126 126 0 0057.894 94.093A126 126 0 01165.5 299.5z" fill="#b6e622"/><circle stroke-linejoin="round" stroke-linecap="round" stroke-width="3" stroke="#000" fill="none" cx="165.5" cy="173.5" r="126"/><circle stroke-linejoin="round" stroke-linecap="round" stroke-width="3" stroke="#000" fill="none" r="126" cy="173.5" cx="300.5"/><path d="M1.5 1.5h463v463H1.5z" stroke-linejoin="round" stroke-linecap="round" stroke-width="3" stroke="#000" fill="none"/><circle stroke-linejoin="round" stroke-linecap="round" stroke-width="3" stroke="#000" fill="none" cx="240.5" cy="293.5" r="126"/></svg>