<svg xmlns="http://www.w3.org/2000/svg" height="466" width="466"><path d="M165.5 47.5a126 126 0 00-126 126 126 126 0 0075.09 115.256A126 126 0 01175.104 185.8a126 126 0 01-.604-12.301A126 126 0 01233 67.105 126 126 0 00165.5 47.5zm-50.91 241.256a126 126 0 00-.09 4.744 126 126 0 00126 126 126 126 0 00126-126 126 126 0 00-75.09-115.256A126 126 0 01165.5 299.5a126 126 0 01-50.91-10.744z" fill="#b6e622"/><circle stroke-linejoin="round" stroke-linecap="round" stroke-width="3" stroke="#000" fill="none" r="126" cy="173.5" cx="300.5"/><path d="M1.5 1.5h463v463H1.5z" stroke-linejoin="round" stroke-linecap="round" stroke-width="3" stroke="#000" fill="none"/><circle stroke-linejoin="round" stroke-linecap="round" stroke-width="3" stroke="#000" fill="none" cx="240.5" cy="293.5" r="126"/><circle stroke-linejoin="round" stroke-linecap="round" stroke-width="3" stroke="#000" fill="none" cx="165.5" cy="173.5" r="126"/></svg>