<svg xmlns="http://www.w3.org/2000/svg" height="316" width="576"><path fill="none" stroke="#ad64f4" stroke-linecap="round" stroke-linejoin="round" d="M6.5 5.5h563v305H6.5z"/><path fill="#ebe3ee" stroke="#ad64f4" stroke-linecap="round" stroke-linejoin="round" d="M11.5 9.5h553v22h-553z"/><path d="M243.275 26.617q.014.55.96.557v.374h-2.923l-.015-.374q.571-.073 1.055-.784l.234-.359 5.552-8.73h.373l1.407 8.4q.16.953.44 1.217.204.205.746.249.052.007.103.007v.374h-4.541v-.374q1.15-.095 1.157-.74l-.212-2.007h-3.223l-.857 1.443q-.256.447-.256.747zm4.233-2.79l-.557-3.648-2.219 3.648zM280.511 24.457q0 1.963-1.978 2.702-1.032.389-2.446.389h-4.526v-.374q.937-.103 1.26-1.245l1.787-6.636q.16-.608.16-.74 0-.556-.578-.644-.132-.015-.483-.022v-.374h3.97q3.61.008 3.618 2.19 0 1.297-1.202 1.941-.46.242-1.567.564-.036.015-.066.022 2.044.564 2.051 2.227zm-3.567-5.567l-.857 3.135q1.75 0 2.432-.725.571-.608.571-1.794-.015-1.51-1.304-1.517-.22 0-.359.052-.139.051-.234.197-.088.14-.132.264-.044.117-.117.388zm-2.036 7.683q.015.484.85.491 1.23 0 1.918-1.055.542-.827.542-1.904 0-1.003-.644-1.355-.505-.27-1.604-.27l-.96 3.537q-.102.38-.102.556zM293.76 22.882h-7.558v-1.318h7.558zm0 3.062h-7.558v-1.319h7.558zM298.411 26.617q.015.55.96.557v.374h-2.923l-.014-.374q.571-.073 1.054-.784.06-.088.235-.359l5.552-8.73h.373l1.406 8.4q.162.953.44 1.217.205.205.747.249.051.007.102.007v.374h-4.54v-.374q1.15-.095 1.157-.74l-.213-2.007h-3.222l-.857 1.443q-.257.447-.257.747zm4.234-2.79l-.557-3.648-2.22 3.648zM312.547 27.548h-.989v-4.549q0-1.911.052-2.417.088-.915.337-1.509.249-.593.79-1.164.55-.571 1.348-.93.806-.36 1.714-.36.872 0 1.655.345.791.337 1.377.923.586.586.835 1.245.257.66.337 1.648.03.38.03 2.22v4.548h-.982v-4.6q0-1.663-.044-2.124-.073-.835-.27-1.326-.191-.498-.601-.93-.403-.432-1.04-.71-.63-.279-1.304-.279t-1.333.293q-.66.293-1.084.777-.418.476-.586 1.047-.169.571-.22 1.333-.022.396-.022 1.919zM333.92 24.457q0 1.963-1.978 2.702-1.033.389-2.447.389h-4.526v-.374q.937-.103 1.26-1.245l1.787-6.636q.161-.608.161-.74 0-.556-.579-.644-.131-.015-.483-.022v-.374h3.97q3.61.008 3.618 2.19 0 1.297-1.201 1.941-.462.242-1.568.564-.036.015-.066.022 2.044.564 2.051 2.227zm-3.568-5.567l-.857 3.135q1.75 0 2.432-.725.571-.608.571-1.794-.014-1.51-1.303-1.517-.22 0-.36.052-.138.051-.234.197-.088.14-.132.264-.043.117-.117.388zm-2.036 7.683q.015.484.85.491 1.23 0 1.919-1.055.542-.827.542-1.904 0-1.003-.645-1.355-.505-.27-1.604-.27l-.96 3.537q-.102.38-.102.556z" style="line-height:1.25;-inkscape-font-specification:TEMPO" font-weight="400" font-size="15" font-family="TEMPO" letter-spacing="0" word-spacing="0"/><path fill="none" stroke="#ad64f4" stroke-linecap="round" stroke-linejoin="round" d="M11.5 35.5h553v270h-553z"/><path d="M11 56.5h554M11 170.5h554M11 190.5h554M195.5 35v271M381.5 35v271" fill="none" stroke="#ad64f4" stroke-dasharray="6,6"/><path d="M97.641 53.07q.015.55.96.556V54h-2.922l-.015-.374q.571-.073 1.055-.783l.234-.36 5.552-8.73h.373l1.407 8.401q.16.952.439 1.216.205.205.747.25.051.006.103.006V54h-4.541v-.374q1.15-.095 1.157-.74l-.213-2.006h-3.222l-.857 1.443q-.257.447-.257.747zm4.234-2.79l-.557-3.648-2.219 3.647zM291.259 50.91q0 1.962-1.978 2.702-1.033.388-2.446.388h-4.527v-.374q.938-.102 1.26-1.245l1.787-6.635q.161-.608.161-.74 0-.557-.578-.645-.132-.014-.484-.022v-.373h3.97q3.611.007 3.618 2.19 0 1.296-1.2 1.94-.462.242-1.568.565-.037.014-.066.022 2.043.564 2.05 2.226zm-3.567-5.567l-.857 3.135q1.75 0 2.431-.726.572-.607.572-1.794-.015-1.509-1.304-1.516-.22 0-.359.051-.139.051-.234.198-.088.14-.132.264-.044.117-.117.388zm-2.036 7.683q.014.483.85.49 1.23 0 1.918-1.054.542-.828.542-1.904 0-1.004-.644-1.355-.506-.271-1.604-.271l-.96 3.537q-.102.381-.102.557zM455.641 53.07q.015.55.96.556V54h-2.922l-.015-.374q.571-.073 1.055-.783l.234-.36 5.552-8.73h.373l1.406 8.401q.162.952.44 1.216.205.205.747.25.051.006.103.006V54h-4.541v-.374q1.15-.095 1.157-.74l-.213-2.006h-3.222l-.857 1.443q-.257.447-.257.747zm4.234-2.79l-.557-3.648-2.219 3.647zM492.878 50.91q0 1.962-1.978 2.702-1.032.388-2.446.388h-4.526v-.374q.937-.102 1.26-1.245l1.786-6.635q.162-.608.162-.74 0-.557-.579-.645-.132-.014-.483-.022v-.373h3.97q3.61.007 3.617 2.19 0 1.296-1.2 1.94-.462.242-1.568.565-.037.014-.066.022 2.043.564 2.05 2.226zm-3.567-5.567l-.857 3.135q1.75 0 2.432-.726.57-.607.57-1.794-.014-1.509-1.303-1.516-.22 0-.359.051-.139.051-.234.198-.088.14-.132.264-.044.117-.117.388zm-2.036 7.683q.014.483.85.49 1.23 0 1.918-1.054.542-.828.542-1.904 0-1.004-.644-1.355-.506-.271-1.604-.271l-.96 3.537q-.102.381-.102.557zM255.641 188.07q.015.55.96.556V189h-2.922l-.015-.374q.571-.073 1.055-.783l.234-.36 5.552-8.73h.373l1.406 8.401q.162.952.44 1.216.205.205.747.25.051.006.103.006V189h-4.541v-.374q1.15-.095 1.157-.74l-.213-2.006h-3.222l-.857 1.443q-.257.447-.257.747zm4.234-2.79l-.557-3.648-2.219 3.647zM269.777 189h-.989v-4.548q0-1.912.052-2.417.088-.916.337-1.51.249-.592.79-1.164.55-.571 1.348-.93.806-.359 1.714-.359.872 0 1.655.345.791.336 1.377.922.586.586.835 1.245.257.66.337 1.648.03.381.03 2.22V189h-.982v-4.6q0-1.662-.044-2.124-.073-.835-.27-1.325-.191-.498-.601-.93-.403-.433-1.04-.71-.63-.28-1.304-.28t-1.333.294q-.66.293-1.084.776-.418.476-.586 1.047-.168.572-.22 1.333-.022.396-.022 1.92zM291.15 185.91q0 1.962-1.978 2.702-1.033.388-2.447.388H282.2v-.374q.938-.102 1.26-1.245l1.787-6.635q.161-.608.161-.74 0-.557-.579-.645-.131-.014-.483-.022v-.373h3.97q3.61.007 3.618 2.19 0 1.296-1.201 1.94-.462.242-1.568.565-.036.014-.065.022 2.043.564 2.05 2.226zm-3.568-5.567l-.857 3.135q1.75 0 2.432-.726.571-.607.571-1.794-.014-1.509-1.303-1.516-.22 0-.36.051-.138.051-.234.198-.088.14-.131.264-.044.117-.118.388zm-2.036 7.683q.015.483.85.49 1.23 0 1.919-1.054.542-.828.542-1.904 0-1.004-.645-1.355-.505-.271-1.604-.271l-.96 3.537q-.102.381-.102.557zM455.641 188.07q.015.55.96.556V189h-2.922l-.015-.374q.571-.073 1.055-.783l.234-.36 5.552-8.73h.373l1.406 8.401q.162.952.44 1.216.205.205.747.25.051.006.103.006V189h-4.541v-.374q1.15-.095 1.157-.74l-.213-2.006h-3.222l-.857 1.443q-.257.447-.257.747zm4.234-2.79l-.557-3.648-2.219 3.647zM469.777 189h-.989v-4.548q0-1.912.052-2.417.088-.916.337-1.51.249-.592.79-1.164.55-.571 1.348-.93.806-.359 1.714-.359.872 0 1.655.345.791.336 1.377.922.586.586.835 1.245.257.66.337 1.648.03.381.03 2.22V189h-.982v-4.6q0-1.662-.044-2.124-.073-.835-.27-1.325-.191-.498-.601-.93-.403-.433-1.04-.71-.63-.28-1.304-.28t-1.333.294q-.66.293-1.084.776-.418.476-.586 1.047-.168.572-.22 1.333-.022.396-.022 1.92zM491.15 185.91q0 1.962-1.978 2.702-1.033.388-2.447.388H482.2v-.374q.938-.102 1.26-1.245l1.787-6.635q.161-.608.161-.74 0-.557-.579-.645-.131-.014-.483-.022v-.373h3.97q3.61.007 3.618 2.19 0 1.296-1.201 1.94-.462.242-1.568.565-.036.014-.065.022 2.043.564 2.05 2.226zm-3.568-5.567l-.857 3.135q1.75 0 2.432-.726.571-.607.571-1.794-.014-1.509-1.303-1.516-.22 0-.36.051-.138.051-.234.198-.088.14-.131.264-.044.117-.118.388zm-2.036 7.683q.015.483.85.49 1.23 0 1.919-1.054.542-.828.542-1.904 0-1.004-.645-1.355-.505-.271-1.604-.271l-.96 3.537q-.102.381-.102.557z" style="line-height:1.25;-inkscape-font-specification:TEMPO" font-weight="400" font-size="15" font-family="TEMPO" letter-spacing="0" word-spacing="0"/><path d="M209.5 59.5v107h157v-107zm98.291 34a29.5 29.5 0 01.209 0 29.5 29.5 0 0129.5 29.5 29.5 29.5 0 01-29.5 29.5 29.5 29.5 0 01-29.5-29.5 29.5 29.5 0 0129.291-29.5z" fill="#00fe81" stroke="#000" stroke-linecap="round" stroke-linejoin="round"/><circle cx="268" cy="103" r="29.5" fill="none" stroke="#000" stroke-linecap="round" stroke-linejoin="round"/><path d="M239.582 80.453q.012.44.768.445v.3h-2.338l-.012-.3q.457-.058.844-.627.047-.07.187-.287L243.473 73h.298l1.125 6.72q.13.762.352.973.164.164.598.2.04.005.082.005v.3h-3.633v-.3q.92-.076.926-.591l-.17-1.606h-2.578l-.686 1.155q-.205.357-.205.597zm3.387-2.232l-.446-2.918-1.775 2.918zM337.373 98.555q0 1.57-1.582 2.162-.826.31-1.957.31h-3.621v-.298q.75-.082 1.008-.997l1.43-5.308q.128-.486.128-.592 0-.445-.463-.516-.105-.011-.386-.017V93h3.175q2.89.006 2.895 1.752 0 1.037-.96 1.553-.37.193-1.255.45-.03.013-.053.018 1.635.452 1.641 1.782zm-2.853-4.453l-.686 2.507q1.4 0 1.945-.58.457-.486.457-1.435-.011-1.207-1.043-1.213-.175 0-.287.04-.111.042-.187.16-.07.11-.106.21-.035.094-.093.31zm-1.63 6.146q.012.387.68.393.985 0 1.535-.844.434-.662.434-1.524 0-.802-.516-1.084-.404-.216-1.283-.216l-.767 2.83q-.082.304-.082.445z" style="line-height:1.25;-inkscape-font-specification:TEMPO" font-weight="400" font-size="12" font-family="TEMPO" letter-spacing="0" word-spacing="0"/><path d="M23.5 59.5v107h157v-107zm58.291 14a29.5 29.5 0 01.209 0 29.5 29.5 0 0129.5 29.5A29.5 29.5 0 0182 132.5 29.5 29.5 0 0152.5 103a29.5 29.5 0 0129.291-29.5z" fill="#01ffff" stroke="#000" stroke-linecap="round" stroke-linejoin="round"/><circle r="29.5" cy="123" cx="122" fill="none" stroke="#000" stroke-linecap="round" stroke-linejoin="round"/><path d="M53.582 80.453q.012.44.768.445v.3h-2.338l-.012-.3q.457-.058.844-.627.047-.07.187-.287L57.473 73h.298l1.125 6.72q.13.762.352.973.164.164.598.2.04.005.082.005v.3h-3.633v-.3q.92-.076.926-.591l-.17-1.606h-2.578l-.686 1.154q-.205.358-.205.598zm3.387-2.232l-.446-2.918-1.775 2.918zM151.373 98.555q0 1.57-1.582 2.162-.826.31-1.957.31h-3.621v-.298q.75-.082 1.008-.997l1.43-5.308q.128-.486.128-.592 0-.445-.463-.516-.105-.011-.386-.017V93h3.175q2.89.006 2.895 1.752 0 1.037-.96 1.553-.37.193-1.255.45-.03.013-.053.018 1.635.452 1.641 1.782zm-2.853-4.453l-.686 2.507q1.4 0 1.945-.58.457-.486.457-1.435-.011-1.207-1.043-1.213-.175 0-.287.04-.111.042-.187.16-.07.11-.106.21-.035.094-.093.31zm-1.63 6.146q.012.387.68.393.985 0 1.535-.844.434-.662.434-1.524 0-.802-.516-1.084-.404-.216-1.283-.216l-.767 2.83q-.082.304-.082.445z" style="line-height:1.25;-inkscape-font-specification:TEMPO" font-weight="400" font-size="12" font-family="TEMPO" letter-spacing="0" word-spacing="0"/><path d="M395.5 59.5v107h157v-107zm87.104 36.291A29.5 29.5 0 01483.5 103a29.5 29.5 0 01-18.104 27.209A29.5 29.5 0 01464.5 123a29.5 29.5 0 0118.104-27.209z" fill="#ffff01"/><path fill="none" stroke="#000" stroke-linecap="round" stroke-linejoin="round" d="M395.5 59.5h157v107h-157z"/><circle cx="454" cy="103" r="29.5" fill="none" stroke="#000" stroke-linecap="round" stroke-linejoin="round"/><circle r="29.5" cy="123" cx="494" fill="none" stroke="#000" stroke-linecap="round" stroke-linejoin="round"/><path d="M425.582 80.453q.012.44.768.445v.3h-2.338l-.012-.3q.457-.058.844-.627.047-.07.187-.287L429.473 73h.298l1.125 6.72q.13.762.352.973.164.164.598.2.04.005.082.005v.3h-3.633v-.3q.92-.076.926-.591l-.17-1.606h-2.578l-.686 1.155q-.205.357-.205.597zm3.387-2.232l-.446-2.918-1.775 2.918zM523.373 98.555q0 1.57-1.582 2.162-.826.31-1.957.31h-3.621v-.298q.75-.082 1.008-.997l1.43-5.308q.128-.486.128-.592 0-.445-.463-.516-.105-.011-.386-.017V93h3.175q2.89.006 2.895 1.752 0 1.037-.96 1.553-.37.193-1.255.45-.03.013-.053.018 1.635.452 1.641 1.782zm-2.853-4.453l-.686 2.507q1.4 0 1.945-.58.457-.486.457-1.435-.011-1.207-1.043-1.213-.175 0-.287.04-.111.042-.187.16-.07.11-.106.21-.035.094-.093.31zm-1.63 6.146q.012.387.68.393.985 0 1.535-.844.434-.662.434-1.524 0-.802-.516-1.084-.404-.216-1.283-.216l-.767 2.83q-.082.304-.082.445z" style="line-height:1.25;-inkscape-font-specification:TEMPO" font-weight="400" font-size="12" font-family="TEMPO" letter-spacing="0" word-spacing="0"/><path d="M395.5 195.5v107h157v-107zm87.104 36.291A29.5 29.5 0 01483.5 239a29.5 29.5 0 01-18.104 27.209A29.5 29.5 0 01464.5 259a29.5 29.5 0 0118.104-27.209z" fill="#ffff01"/><path fill="none" stroke="#000" stroke-linecap="round" stroke-linejoin="round" d="M395.5 195.5h157v107h-157z"/><circle r="29.5" cy="239" cx="454" fill="none" stroke="#000" stroke-linecap="round" stroke-linejoin="round"/><circle cx="494" cy="259" r="29.5" fill="none" stroke="#000" stroke-linecap="round" stroke-linejoin="round"/><path d="M425.582 216.453q.012.44.768.445v.3h-2.338l-.012-.3q.457-.058.844-.627.047-.07.187-.287l4.442-6.984h.298l1.125 6.72q.13.762.352.973.164.164.598.2.04.006.082.006v.298h-3.633v-.298q.92-.077.926-.592l-.17-1.606h-2.578l-.686 1.155q-.205.357-.205.597zm3.387-2.232l-.446-2.918-1.775 2.918zM523.373 234.555q0 1.57-1.582 2.162-.826.31-1.957.31h-3.621v-.298q.75-.082 1.008-.997l1.43-5.308q.128-.487.128-.592 0-.445-.463-.516-.105-.011-.386-.017V229h3.175q2.89.006 2.895 1.752 0 1.037-.96 1.553-.37.193-1.255.45-.03.013-.053.018 1.635.452 1.641 1.782zm-2.853-4.453l-.686 2.507q1.4 0 1.945-.58.457-.486.457-1.435-.011-1.207-1.043-1.213-.175 0-.287.04-.111.042-.187.16-.07.11-.106.21-.035.094-.093.31zm-1.63 6.146q.012.387.68.393.985 0 1.535-.844.434-.662.434-1.524 0-.802-.516-1.084-.404-.216-1.283-.216l-.767 2.83q-.082.304-.082.445z" style="line-height:1.25;-inkscape-font-specification:TEMPO" font-weight="400" font-size="12" font-family="TEMPO" letter-spacing="0" word-spacing="0"/><path d="M296.604 231.791A29.5 29.5 0 00278.5 259a29.5 29.5 0 00.896 7.209A29.5 29.5 0 00297.5 239a29.5 29.5 0 00-.896-7.209z" fill="#ff00fe"/><path fill="none" stroke="#000" stroke-linecap="round" stroke-linejoin="round" d="M209.5 195.5h157v107h-157z"/><circle r="29.5" cy="239" cx="268" fill="none" stroke="#000" stroke-linecap="round" stroke-linejoin="round"/><circle cx="308" cy="259" r="29.5" fill="none" stroke="#000" stroke-linecap="round" stroke-linejoin="round"/><path d="M239.582 216.453q.012.44.768.445v.3h-2.338l-.012-.3q.457-.058.844-.627.047-.07.187-.287l4.442-6.984h.298l1.125 6.72q.13.762.352.973.164.164.598.2.04.006.082.006v.298h-3.633v-.298q.92-.077.926-.592l-.17-1.606h-2.578l-.686 1.155q-.205.357-.205.597zm3.387-2.232l-.446-2.918-1.775 2.918zM337.373 234.555q0 1.57-1.582 2.162-.826.31-1.957.31h-3.621v-.298q.75-.082 1.008-.997l1.43-5.308q.128-.487.128-.592 0-.445-.463-.516-.105-.011-.386-.017V229h3.175q2.89.006 2.895 1.752 0 1.037-.96 1.553-.37.193-1.255.45-.03.013-.053.018 1.635.452 1.641 1.782zm-2.853-4.453l-.686 2.507q1.4 0 1.945-.58.457-.486.457-1.435-.011-1.207-1.043-1.213-.175 0-.287.04-.111.042-.187.16-.07.11-.106.21-.035.094-.093.31zm-1.63 6.146q.012.387.68.393.985 0 1.535-.844.434-.662.434-1.524 0-.802-.516-1.084-.404-.216-1.283-.216l-.767 2.83q-.082.304-.082.445z" style="line-height:1.25;-inkscape-font-specification:TEMPO" font-weight="400" font-size="12" font-family="TEMPO" letter-spacing="0" word-spacing="0"/><path style="line-height:1.25;-inkscape-font-specification:TEMPO" d="M257.978 16.62h-.989v4.548q0 1.912.052 2.417.087.916.336 1.509.25.593.791 1.165.55.57 1.348.93.806.359 1.714.359.872 0 1.655-.345.791-.337 1.377-.923.586-.585.835-1.245.257-.659.337-1.648.03-.38.03-2.219V16.62h-.982v4.6q0 1.662-.044 2.123-.073.835-.271 1.326-.19.498-.6.93-.403.432-1.04.71-.63.28-1.304.28t-1.333-.294q-.66-.293-1.084-.776-.418-.476-.586-1.048-.169-.57-.22-1.333-.022-.395-.022-1.919zM470.345 43.072h-.989v4.549q0 1.911.051 2.417.088.915.337 1.508.25.594.791 1.165.55.571 1.348.93.806.359 1.714.359.871 0 1.655-.344.791-.337 1.377-.923.586-.586.835-1.245.256-.66.337-1.648.03-.381.03-2.22v-4.548h-.982v4.6q0 1.662-.044 2.124-.073.835-.271 1.326-.19.498-.6.93-.404.432-1.04.71-.63.279-1.304.279t-1.333-.293q-.66-.293-1.084-.777-.418-.476-.586-1.047-.169-.571-.22-1.333-.022-.396-.022-1.92z" font-weight="400" font-size="15" font-family="TEMPO" letter-spacing="0" word-spacing="0"/><path d="M244.252 14.801h8M274.428 14.801h8M299.389 14.801h36M457.664 176.253h36M97.664 41.253h8M284.308 41.253h8M456.619 41.253h8M485.928 41.253h8" fill="none" stroke="#000"/></svg>