<svg xmlns="http://www.w3.org/2000/svg" height="337" width="372"><path d="M185.557 3A117.5 117.5 0 0068.869 111.2 117.5 117.5 0 01121 99a117.5 117.5 0 0165 19.617A117.5 117.5 0 01250.557 99a117.5 117.5 0 01.443 0 117.5 117.5 0 0152.13 12.2A117.5 117.5 0 00186 3a117.5 117.5 0 00-.443 0zm50.873 191.549a117.5 117.5 0 01.101.54 117.5 117.5 0 00-.101-.54zm.767 4.502a117.5 117.5 0 01.076.527 117.5 117.5 0 00-.076-.527zm.375 2.71a117.5 117.5 0 01.08.655 117.5 117.5 0 00-.08-.654zm.393 3.546a117.5 117.5 0 01.06.654 117.5 117.5 0 00-.06-.654zm.164 1.859a117.5 117.5 0 01.047.621 117.5 117.5 0 00-.047-.621zm.332 6.309a117.5 117.5 0 01.014.605 117.5 117.5 0 00-.014-.605z" fill="red" fill-opacity=".451"/><path d="M68.87 111.2A117.5 117.5 0 003.5 216.5 117.5 117.5 0 00121 334a117.5 117.5 0 0065-19.617 117.5 117.5 0 01-52.13-88.58A117.5 117.5 0 0168.5 120.5a117.5 117.5 0 01.37-9.3z" fill="#ff0"/><path d="M303.13 111.2a117.5 117.5 0 01.37 9.3 117.5 117.5 0 01-65.37 105.3 117.5 117.5 0 01-52.128 88.583A117.5 117.5 0 00251 334a117.5 117.5 0 00117.5-117.5 117.5 117.5 0 00-65.37-105.3zM186 118.616a117.5 117.5 0 011.51 1.02 117.5 117.5 0 00-1.51-1.02zm1.51 1.02a117.5 117.5 0 012.972 2.111 117.5 117.5 0 00-2.972-2.111zm2.972 2.111a117.5 117.5 0 01.733.541 117.5 117.5 0 00-.733-.54zm.733.541a117.5 117.5 0 01.728.547 117.5 117.5 0 00-.728-.547zm.728.547a117.5 117.5 0 01.725.555 117.5 117.5 0 00-.725-.555zm.725.555a117.5 117.5 0 01.72.558 117.5 117.5 0 00-.72-.558zm.72.558a117.5 117.5 0 011.424 1.131 117.5 117.5 0 00-1.423-1.13zm1.43 1.135a117.5 117.5 0 01.705.574 117.5 117.5 0 00-.705-.574zm.705.574a117.5 117.5 0 01.702.58 117.5 117.5 0 00-.702-.58zm.702.58a117.5 117.5 0 01.699.588 117.5 117.5 0 00-.7-.588zm.699.588a117.5 117.5 0 011.38 1.188 117.5 117.5 0 00-1.38-1.188zm1.38 1.188a117.5 117.5 0 01.686.603 117.5 117.5 0 00-.685-.603zm.686.603a117.5 117.5 0 01.678.608 117.5 117.5 0 00-.678-.608zm.678.608a117.5 117.5 0 01.676.613 117.5 117.5 0 00-.676-.613zm.676.613a117.5 117.5 0 01.67.617 117.5 117.5 0 00-.67-.617zm.67.617a117.5 117.5 0 01.664.623 117.5 117.5 0 00-.664-.623zm.664.623a117.5 117.5 0 01.66.629 117.5 117.5 0 00-.66-.629zm.66.629a117.5 117.5 0 01.656.633 117.5 117.5 0 00-.656-.633zm.656.633a117.5 117.5 0 01.65.639 117.5 117.5 0 00-.65-.64zm.65.639a117.5 117.5 0 011.801 1.82 117.5 117.5 0 00-1.8-1.82zm2.551 2.605a117.5 117.5 0 01.625.662 117.5 117.5 0 00-.625-.662zm.625.662a117.5 117.5 0 01.58.623 117.5 117.5 0 00-.58-.623zm.662.713a117.5 117.5 0 01.563.617 117.5 117.5 0 00-.563-.617zm.582.637a117.5 117.5 0 01.602.67 117.5 117.5 0 00-.602-.67zm.602.67a117.5 117.5 0 01.604.681 117.5 117.5 0 00-.604-.681zm.604.681a117.5 117.5 0 01.587.674 117.5 117.5 0 00-.587-.674zm1.24 1.434a117.5 117.5 0 01.54.642 117.5 117.5 0 00-.54-.642zm.54.642a117.5 117.5 0 011.16 1.407 117.5 117.5 0 00-1.16-1.407zm1.16 1.407a117.5 117.5 0 01.55.68 117.5 117.5 0 00-.55-.68zm.599.74a117.5 117.5 0 01.54.684 117.5 117.5 0 00-.54-.684zm.54.684a117.5 117.5 0 01.561.718 117.5 117.5 0 00-.56-.718zm.561.718a117.5 117.5 0 01.555.723 117.5 117.5 0 00-.555-.723zm.555.723a117.5 117.5 0 01.549.726 117.5 117.5 0 00-.55-.726zm.549.726a117.5 117.5 0 01.545.733 117.5 117.5 0 00-.545-.733zm.545.733a117.5 117.5 0 01.445.605 117.5 117.5 0 00-.445-.605zm1.07 1.475a117.5 117.5 0 01.527.744 117.5 117.5 0 00-.527-.744zm.527.744a117.5 117.5 0 01.522.748 117.5 117.5 0 00-.522-.748zm.522.748a117.5 117.5 0 011.023 1.508 117.5 117.5 0 00-1.023-1.508zm1.023 1.508a117.5 117.5 0 01.504.76 117.5 117.5 0 00-.504-.76zm.504.76a117.5 117.5 0 01.43.657 117.5 117.5 0 00-.43-.658zm.988 1.53a117.5 117.5 0 01.487.772 117.5 117.5 0 00-.487-.771zm.487.772a117.5 117.5 0 01.478.775 117.5 117.5 0 00-.478-.775zm.478.775a117.5 117.5 0 01.475.78 117.5 117.5 0 00-.475-.78zm.475.78a117.5 117.5 0 01.467.78 117.5 117.5 0 00-.467-.78zm.467.78a117.5 117.5 0 01.394.673 117.5 117.5 0 00-.394-.672zm1.386 2.403a117.5 117.5 0 01.86 1.565 117.5 117.5 0 00-.86-1.565zm1.735 3.211a117.5 117.5 0 01.398.774 117.5 117.5 0 00-.398-.774zm.398.774a117.5 117.5 0 01.377.742 117.5 117.5 0 00-.377-.742zm.447.882a117.5 117.5 0 01.37.747 117.5 117.5 0 00-.37-.747zm1.93 4.05a117.5 117.5 0 01.371.824 117.5 117.5 0 00-.37-.825zm.371.824a117.5 117.5 0 01.729 1.671 117.5 117.5 0 00-.729-1.671zm.729 1.671a117.5 117.5 0 01.353.84 117.5 117.5 0 00-.353-.84zm.353.84a117.5 117.5 0 01.348.844 117.5 117.5 0 00-.348-.844zm.348.844a117.5 117.5 0 01.27.664 117.5 117.5 0 00-.27-.664zm.402 1a117.5 117.5 0 01.274.693 117.5 117.5 0 00-.274-.693zm.274.693a117.5 117.5 0 01.28.729 117.5 117.5 0 00-.28-.729zm.373.971a117.5 117.5 0 01.256.684 117.5 117.5 0 00-.256-.684zm.287.766a117.5 117.5 0 01.303.822 117.5 117.5 0 00-.303-.822zm.303.822a117.5 117.5 0 01.298.83 117.5 117.5 0 00-.298-.83zm.318.885a117.5 117.5 0 01.29.834 117.5 117.5 0 00-.29-.834zm.29.834a117.5 117.5 0 01.288.838 117.5 117.5 0 00-.287-.838zm.897 2.693a117.5 117.5 0 01.243.77 117.5 117.5 0 00-.243-.77zm.243.77a117.5 117.5 0 01.267.87 117.5 117.5 0 00-.267-.87zm.806 2.703a117.5 117.5 0 01.223.795 117.5 117.5 0 00-.223-.795zm.223.795a117.5 117.5 0 01.225.818 117.5 117.5 0 00-.225-.818zm.252.916a117.5 117.5 0 01.222.843 117.5 117.5 0 00-.222-.843zm.222.843a117.5 117.5 0 01.227.883 117.5 117.5 0 00-.226-.883zm.227.883a117.5 117.5 0 01.191.766 117.5 117.5 0 00-.19-.766zm.443 1.81a117.5 117.5 0 01.17.733 117.5 117.5 0 00-.17-.732zm.4 1.759a117.5 117.5 0 01.374 1.763 117.5 117.5 0 00-.373-1.763zm.374 1.763a117.5 117.5 0 01.154.77 117.5 117.5 0 00-.154-.77zm.53 2.76a117.5 117.5 0 01.107.607 117.5 117.5 0 00-.108-.607zm.308 1.807a117.5 117.5 0 01.101.636 117.5 117.5 0 00-.101-.636zm.414 2.746a117.5 117.5 0 01.1.736 117.5 117.5 0 00-.1-.736zm.107.797a117.5 117.5 0 01.082.62 117.5 117.5 0 00-.082-.62zm.223 1.787a117.5 117.5 0 01.101.906 117.5 117.5 0 00-.101-.906zm.101.906a117.5 117.5 0 01.073.684 117.5 117.5 0 00-.073-.684zm.413 4.66a117.5 117.5 0 01.05.79 117.5 117.5 0 00-.05-.79zm.05.79a117.5 117.5 0 01.053.91 117.5 117.5 0 00-.053-.91zm.053.91a117.5 117.5 0 01.045.91 117.5 117.5 0 00-.045-.91zm.045.91a117.5 117.5 0 01.04.91 117.5 117.5 0 00-.04-.91zm.04.91a117.5 117.5 0 01.028.867 117.5 117.5 0 00-.029-.867zm.071 2.756a117.5 117.5 0 01.01.888 117.5 117.5 0 00-.01-.888zm.01.888a117.5 117.5 0 01.004.842 117.5 117.5 0 00-.004-.842z" fill="#00b0f0" fill-opacity=".529"/><path d="M120.557 99a117.5 117.5 0 00-51.688 12.2 117.5 117.5 0 00-.369 9.3 117.5 117.5 0 0065.37 105.3 117.5 117.5 0 01-.016-.195 117.5 117.5 0 01-.354-9.105 117.5 117.5 0 01.004-.838 117.5 117.5 0 010-.074 117.5 117.5 0 01.01-.838 117.5 117.5 0 01.011-.656 117.5 117.5 0 01.006-.32 117.5 117.5 0 01.024-.846 117.5 117.5 0 01.002-.074 117.5 117.5 0 01.029-.838 117.5 117.5 0 01.002-.073 117.5 117.5 0 01.021-.484 117.5 117.5 0 01.018-.428 117.5 117.5 0 01.043-.836 117.5 117.5 0 010-.013 117.5 117.5 0 01.053-.897 117.5 117.5 0 01.004-.074 117.5 117.5 0 01.025-.38 117.5 117.5 0 01.035-.528 117.5 117.5 0 01.06-.836 117.5 117.5 0 01.005-.051 117.5 117.5 0 01.07-.857 117.5 117.5 0 01.006-.075 117.5 117.5 0 01.074-.834 117.5 117.5 0 01.06-.634 117.5 117.5 0 01.036-.346 117.5 117.5 0 01.086-.834 117.5 117.5 0 01.004-.031 117.5 117.5 0 01.1-.875 117.5 117.5 0 01.007-.073 117.5 117.5 0 01.043-.357 117.5 117.5 0 01.066-.547 117.5 117.5 0 01.106-.832 117.5 117.5 0 01.008-.062 117.5 117.5 0 01.007-.057 117.5 117.5 0 01.12-.857 117.5 117.5 0 01.119-.829 117.5 117.5 0 01.101-.666 117.5 117.5 0 01.047-.308 117.5 117.5 0 01.254-1.553 117.5 117.5 0 01.03-.174 117.5 117.5 0 01.011-.072 117.5 117.5 0 01.086-.488 117.5 117.5 0 01.07-.403 117.5 117.5 0 01.155-.83 117.5 117.5 0 01.013-.074 117.5 117.5 0 01.158-.822 117.5 117.5 0 01.014-.072 117.5 117.5 0 01.067-.329 117.5 117.5 0 01.113-.564 117.5 117.5 0 01.17-.82 117.5 117.5 0 01.015-.069 117.5 117.5 0 01.014-.066 117.5 117.5 0 01.176-.809 117.5 117.5 0 01.187-.838 117.5 117.5 0 01.016-.072 117.5 117.5 0 01.09-.389 117.5 117.5 0 01.117-.498 117.5 117.5 0 01.195-.814 117.5 117.5 0 01.006-.024 117.5 117.5 0 01.215-.86 117.5 117.5 0 01.018-.073 117.5 117.5 0 01.113-.438 117.5 117.5 0 01.115-.445 117.5 117.5 0 01.215-.809 117.5 117.5 0 01.012-.04 117.5 117.5 0 01.228-.838 117.5 117.5 0 01.02-.073 117.5 117.5 0 01.228-.806 117.5 117.5 0 01.02-.07 117.5 117.5 0 01.234-.805 117.5 117.5 0 01.205-.692 117.5 117.5 0 01.072-.236 117.5 117.5 0 01.25-.816 117.5 117.5 0 01.022-.07 117.5 117.5 0 01.254-.8 117.5 117.5 0 01.568-1.732 117.5 117.5 0 01.024-.07 117.5 117.5 0 01.257-.754 117.5 117.5 0 01.016-.043 117.5 117.5 0 01.139-.397 117.5 117.5 0 01.185-.529 117.5 117.5 0 01.284-.787 117.5 117.5 0 01.003-.012 117.5 117.5 0 01.31-.844 117.5 117.5 0 01.026-.07 117.5 117.5 0 01.12-.316 117.5 117.5 0 01.203-.535 117.5 117.5 0 01.3-.784 117.5 117.5 0 01.028-.068 117.5 117.5 0 01.306-.78 117.5 117.5 0 01.016-.036 117.5 117.5 0 01.326-.807 117.5 117.5 0 01.028-.068 117.5 117.5 0 01.32-.776 117.5 117.5 0 01.287-.683 117.5 117.5 0 01.086-.202 117.5 117.5 0 01.088-.205 117.5 117.5 0 01.283-.654 117.5 117.5 0 01.338-.768 117.5 117.5 0 01.004-.007 117.5 117.5 0 01.369-.825 117.5 117.5 0 01.03-.066 117.5 117.5 0 01.212-.46 117.5 117.5 0 01.168-.368 117.5 117.5 0 01.356-.758 117.5 117.5 0 01.03-.068 117.5 117.5 0 01.362-.756 117.5 117.5 0 01.031-.067 117.5 117.5 0 01.37-.751 117.5 117.5 0 01.37-.75 117.5 117.5 0 01.044-.086 117.5 117.5 0 01.189-.375 117.5 117.5 0 01.24-.473 117.5 117.5 0 01.39-.756 117.5 117.5 0 01.401-.764 117.5 117.5 0 01.03-.054 117.5 117.5 0 01.22-.41 117.5 117.5 0 01.24-.448 117.5 117.5 0 01.4-.734 117.5 117.5 0 000-.002 117.5 117.5 0 01.444-.795 117.5 117.5 0 01.035-.064 117.5 117.5 0 01.313-.551 117.5 117.5 0 01.139-.242 117.5 117.5 0 01.418-.727 117.5 117.5 0 01.037-.062 117.5 117.5 0 01.423-.723 117.5 117.5 0 01.04-.065 117.5 117.5 0 01.43-.718 117.5 117.5 0 01.036-.063 117.5 117.5 0 01.436-.715 117.5 117.5 0 01.039-.064 117.5 117.5 0 01.348-.56 117.5 117.5 0 01.115-.186 117.5 117.5 0 01.062-.098 117.5 117.5 0 01.442-.701 117.5 117.5 0 01.45-.705 117.5 117.5 0 011.51-2.28 117.5 117.5 0 011.038-1.5 117.5 117.5 0 01.51-.72 117.5 117.5 0 01.02-.03 117.5 117.5 0 01.528-.734 117.5 117.5 0 01.043-.06 117.5 117.5 0 01.496-.676 117.5 117.5 0 01.043-.059 117.5 117.5 0 01.5-.672 117.5 117.5 0 01.045-.06 117.5 117.5 0 01.258-.342 117.5 117.5 0 01.281-.371 117.5 117.5 0 01.522-.678 117.5 117.5 0 01.045-.058 117.5 117.5 0 01.285-.366 117.5 117.5 0 01.27-.345 117.5 117.5 0 01.527-.662 117.5 117.5 0 01.572-.711 117.5 117.5 0 01.045-.057 117.5 117.5 0 01.404-.492 117.5 117.5 0 01.155-.19 117.5 117.5 0 01.556-.668 117.5 117.5 0 01.047-.056 117.5 117.5 0 01.541-.639 117.5 117.5 0 01.047-.057 117.5 117.5 0 01.547-.634 117.5 117.5 0 01.598-.688 117.5 117.5 0 01.048-.056 117.5 117.5 0 01.47-.528 117.5 117.5 0 01.109-.123 117.5 117.5 0 01.587-.654 117.5 117.5 0 01.05-.055 117.5 117.5 0 01.566-.617 117.5 117.5 0 01.048-.055 117.5 117.5 0 01.57-.613 117.5 117.5 0 01.052-.055 117.5 117.5 0 01.234-.248 117.5 117.5 0 01.39-.414 117.5 117.5 0 01.58-.605 117.5 117.5 0 01.02-.02 117.5 117.5 0 01.615-.635 117.5 117.5 0 01.051-.052 117.5 117.5 0 01.59-.596 117.5 117.5 0 01.645-.643 117.5 117.5 0 01.052-.052 117.5 117.5 0 01.598-.586 117.5 117.5 0 01.053-.053 117.5 117.5 0 01.58-.559 117.5 117.5 0 01.03-.029 117.5 117.5 0 01.653-.623 117.5 117.5 0 01.053-.05 117.5 117.5 0 01.229-.215 117.5 117.5 0 01.437-.407 117.5 117.5 0 01.615-.568 117.5 117.5 0 01.055-.05 117.5 117.5 0 01.398-.362 117.5 117.5 0 01.278-.25 117.5 117.5 0 01.625-.559 117.5 117.5 0 01.004-.004 117.5 117.5 0 01.242-.213 117.5 117.5 0 01.492-.433 117.5 117.5 0 01.635-.549 117.5 117.5 0 011.39-1.178 117.5 117.5 0 01.704-.582 117.5 117.5 0 01.056-.047 117.5 117.5 0 01.65-.527 117.5 117.5 0 01.057-.047 117.5 117.5 0 01.655-.523 117.5 117.5 0 01.498-.393 117.5 117.5 0 01.275-.217 117.5 117.5 0 01.662-.513 117.5 117.5 0 01.041-.032 117.5 117.5 0 01.684-.521 117.5 117.5 0 01.058-.045 117.5 117.5 0 01.291-.219 117.5 117.5 0 01.438-.328 117.5 117.5 0 01.674-.498 117.5 117.5 0 01.738-.537 117.5 117.5 0 01.059-.043 117.5 117.5 0 01.57-.406 117.5 117.5 0 01.135-.096 117.5 117.5 0 01.722-.51 117.5 117.5 0 01.575-.398 117.5 117.5 0 01.234-.162 117.5 117.5 0 01.031-.022 117.5 117.5 0 011.42-.957 117.5 117.5 0 01.7.467A117.5 117.5 0 00121 99a117.5 117.5 0 00-.443 0zm66.142 20.084a117.5 117.5 0 011.502 1.031 117.5 117.5 0 00-1.502-1.031zm1.504 1.031a117.5 117.5 0 011.484 1.055 117.5 117.5 0 00-1.484-1.055zm2.225 1.59a117.5 117.5 0 013.62 2.764 117.5 117.5 0 00-3.62-2.764zm3.623 2.764a117.5 117.5 0 011.418 1.144 117.5 117.5 0 00-1.418-1.144zm4.203 3.498a117.5 117.5 0 012.037 1.822 117.5 117.5 0 00-2.037-1.822zm4.691 4.324a117.5 117.5 0 011.295 1.281 117.5 117.5 0 00-1.295-1.281zm1.295 1.281a117.5 117.5 0 011.278 1.301 117.5 117.5 0 00-1.278-1.3zm1.278 1.301a117.5 117.5 0 013.101 3.34 117.5 117.5 0 00-3.101-3.34zm3.101 3.34a117.5 117.5 0 012.387 2.756 117.5 117.5 0 00-2.387-2.756zm2.387 2.756a117.5 117.5 0 012.861 3.547 117.5 117.5 0 00-2.861-3.547zm2.861 3.547a117.5 117.5 0 011.106 1.449 117.5 117.5 0 00-1.106-1.45zm1.106 1.449a117.5 117.5 0 015.67 8.265 117.5 117.5 0 00-5.67-8.265zm6.15 9.04a117.5 117.5 0 01.941 1.561 117.5 117.5 0 00-.94-1.56zm.941 1.561a117.5 117.5 0 01.918 1.577 117.5 117.5 0 00-.918-1.577zm.918 1.577a117.5 117.5 0 011.762 3.191 117.5 117.5 0 00-1.762-3.191zm1.762 3.191a117.5 117.5 0 011.256 2.43 117.5 117.5 0 00-1.256-2.43zm1.256 2.43a117.5 117.5 0 012.34 4.941 117.5 117.5 0 00-2.34-4.941zm3.068 6.613a117.5 117.5 0 01.703 1.682 117.5 117.5 0 00-.703-1.682zm.703 1.682a117.5 117.5 0 01.676 1.693 117.5 117.5 0 00-.676-1.693zm1.95 5.109a117.5 117.5 0 01.597 1.723 117.5 117.5 0 00-.597-1.723zm.597 1.723a117.5 117.5 0 011.114 3.47 117.5 117.5 0 00-1.114-3.47zm1.114 3.47a117.5 117.5 0 01.515 1.75 117.5 117.5 0 00-.515-1.75zm.763 2.627a117.5 117.5 0 01.475 1.76 117.5 117.5 0 00-.475-1.76zm.703 2.643a117.5 117.5 0 01.434 1.77 117.5 117.5 0 00-.434-1.77zm2.457 12.515a117.5 117.5 0 01.24 1.807 117.5 117.5 0 00-.24-1.807zm.35 2.711a117.5 117.5 0 01.197 1.813 117.5 117.5 0 00-.197-1.813zm.197 1.813a117.5 117.5 0 01.17 1.816 117.5 117.5 0 00-.17-1.816zm-98.972 23.49a117.5 117.5 0 00.732.317 117.5 117.5 0 01-.732-.317zm11.93 4.463a117.5 117.5 0 00.779.24 117.5 117.5 0 01-.78-.24zm4.333 1.266a117.5 117.5 0 00.828.222 117.5 117.5 0 01-.828-.222zm.828.222a117.5 117.5 0 00.883.229 117.5 117.5 0 01-.883-.229zm2.672.67a117.5 117.5 0 00.868.205 117.5 117.5 0 01-.868-.205zm.868.205a117.5 117.5 0 00.888.202 117.5 117.5 0 01-.888-.202zm.888.202a117.5 117.5 0 00.89.195 117.5 117.5 0 01-.89-.196zm.89.195a117.5 117.5 0 00.893.187 117.5 117.5 0 01-.892-.187zm9.34 1.613a117.5 117.5 0 00.542.07 117.5 117.5 0 01-.541-.07zm1.62.201a117.5 117.5 0 00.732.084 117.5 117.5 0 01-.732-.084zm8 .664a117.5 117.5 0 00.91.041 117.5 117.5 0 01-.91-.04zm.91.041a117.5 117.5 0 00.912.034 117.5 117.5 0 01-.912-.034zm3.715.092a117.5 117.5 0 00.842.006 117.5 117.5 0 01-.842-.006z" fill="#ff8c00"/><path d="M250.557 99a117.5 117.5 0 00-64.559 19.617A117.5 117.5 0 01238.5 216.5a117.5 117.5 0 01-.37 9.303A117.5 117.5 0 00303.5 120.5a117.5 117.5 0 00-.37-9.303A117.5 117.5 0 00251 99a117.5 117.5 0 00-.443 0zm-64.559 19.617a117.5 117.5 0 00-1.353.912 117.5 117.5 0 011.353-.912zm-1.685 1.14a117.5 117.5 0 00-.575.4 117.5 117.5 0 01.575-.4zm-2.061 1.454a117.5 117.5 0 00-.738.537 117.5 117.5 0 01.738-.537zm-3.861 2.91a117.5 117.5 0 00-.498.393 117.5 117.5 0 01.498-.393zm-1.916 1.537a117.5 117.5 0 00-.704.582 117.5 117.5 0 01.704-.582zm-.704.582a117.5 117.5 0 00-1.39 1.178 117.5 117.5 0 011.39-1.178zm-7.42 6.74a117.5 117.5 0 00-.644.643 117.5 117.5 0 01.645-.643zm-5.624 5.97a117.5 117.5 0 00-.598.687 117.5 117.5 0 01.598-.688zm-2.94 3.48a117.5 117.5 0 00-.572.71 117.5 117.5 0 01.572-.71zm-4.435 5.824a117.5 117.5 0 00-.51.72 117.5 117.5 0 01.51-.72zm-.51.72a117.5 117.5 0 00-1.037 1.5 117.5 117.5 0 011.037-1.5zm-1.547 2.256a117.5 117.5 0 00-1 1.524 117.5 117.5 0 011-1.524zm-6.225 10.454a117.5 117.5 0 00-.273.521 117.5 117.5 0 01.273-.521zm-1.193 2.324a117.5 117.5 0 00-.315.637 117.5 117.5 0 01.315-.637zm-6.219 14.951a117.5 117.5 0 00-.568 1.732 117.5 117.5 0 01.568-1.732zm-1.226 3.857a117.5 117.5 0 00-.145.489 117.5 117.5 0 01.145-.489zm-3.567 15.834a117.5 117.5 0 00-.101.666 117.5 117.5 0 01.101-.666zm-.826 6.602a117.5 117.5 0 00-.037.398 117.5 117.5 0 01.037-.398zm-.514 8.842a117.5 117.5 0 00-.011.656 117.5 117.5 0 01.011-.656z" fill="#487dab" fill-opacity=".741"/><path d="M171.037 130.406a117.5 117.5 0 00-.256.239 117.5 117.5 0 01.256-.239zm-19.193 23.053a117.5 117.5 0 00-.442.701 117.5 117.5 0 01.442-.701zm-10.62 21.143a117.5 117.5 0 00-.15.394 117.5 117.5 0 01.15-.394zm-6.058 22.187a117.5 117.5 0 00-.15.899 117.5 117.5 0 01.15-.899zm-.521 3.356a117.5 117.5 0 00-.086.617 117.5 117.5 0 01.086-.617zm103.834 18.54a117.5 117.5 0 01-.016.747 117.5 117.5 0 00.016-.746zm-.088 2.854a117.5 117.5 0 01-.026.592 117.5 117.5 0 00.026-.592zm-.198 3.438a117.5 117.5 0 01-.056.742 117.5 117.5 0 00.056-.742zm-104.324.826a117.5 117.5 0 0052.133 88.58 117.5 117.5 0 0052.129-88.58A117.5 117.5 0 01186 238a117.5 117.5 0 01-52.13-12.197z" fill="#78d57f"/><path d="M185.998 118.617a117.5 117.5 0 00-1.42.957 117.5 117.5 0 00-.031.022 117.5 117.5 0 00-.234.162 117.5 117.5 0 00-.575.398 117.5 117.5 0 00-.722.51 117.5 117.5 0 00-.135.096 117.5 117.5 0 00-.57.406 117.5 117.5 0 00-.06.043 117.5 117.5 0 00-.737.537 117.5 117.5 0 00-.674.498 117.5 117.5 0 00-.438.328 117.5 117.5 0 00-.29.219 117.5 117.5 0 00-.06.045 117.5 117.5 0 00-.683.521 117.5 117.5 0 00-.04.032 117.5 117.5 0 00-.663.513 117.5 117.5 0 00-.275.217 117.5 117.5 0 00-.498.393 117.5 117.5 0 00-.655.523 117.5 117.5 0 00-.056.047 117.5 117.5 0 00-.65.527 117.5 117.5 0 00-.057.047 117.5 117.5 0 00-.704.582 117.5 117.5 0 00-1.39 1.178 117.5 117.5 0 00-.635.549 117.5 117.5 0 00-.492.433 117.5 117.5 0 00-.242.213 117.5 117.5 0 00-.004.004 117.5 117.5 0 00-.625.559 117.5 117.5 0 00-.278.25 117.5 117.5 0 00-.398.361 117.5 117.5 0 00-.055.05 117.5 117.5 0 00-.615.57 117.5 117.5 0 00-.437.405 117.5 117.5 0 00-.229.215 117.5 117.5 0 00-.053.051 117.5 117.5 0 00-.654.623 117.5 117.5 0 00-.03.03 117.5 117.5 0 00-.58.558 117.5 117.5 0 00-.052.053 117.5 117.5 0 00-.598.586 117.5 117.5 0 00-.052.052 117.5 117.5 0 00-.645.643 117.5 117.5 0 00-.59.596 117.5 117.5 0 00-.05.052 117.5 117.5 0 00-.616.635 117.5 117.5 0 00-.02.02 117.5 117.5 0 00-.58.605 117.5 117.5 0 00-.39.414 117.5 117.5 0 00-.234.248 117.5 117.5 0 00-.051.055 117.5 117.5 0 00-.57.613 117.5 117.5 0 00-.05.055 117.5 117.5 0 00-.566.617 117.5 117.5 0 00-.049.055 117.5 117.5 0 00-.587.654 117.5 117.5 0 00-.11.123 117.5 117.5 0 00-.469.528 117.5 117.5 0 00-.048.056 117.5 117.5 0 00-.598.688 117.5 117.5 0 00-.547.634 117.5 117.5 0 00-.047.057 117.5 117.5 0 00-.54.639 117.5 117.5 0 00-.048.056 117.5 117.5 0 00-.556.668 117.5 117.5 0 00-.155.19 117.5 117.5 0 00-.404.492 117.5 117.5 0 00-.045.057 117.5 117.5 0 00-.572.71 117.5 117.5 0 00-.528.663 117.5 117.5 0 00-.269.345 117.5 117.5 0 00-.285.366 117.5 117.5 0 00-.045.058 117.5 117.5 0 00-.522.678 117.5 117.5 0 00-.28.371 117.5 117.5 0 00-.259.342 117.5 117.5 0 00-.045.06 117.5 117.5 0 00-.5.672 117.5 117.5 0 00-.043.059 117.5 117.5 0 00-.496.676 117.5 117.5 0 00-.043.06 117.5 117.5 0 00-.529.735 117.5 117.5 0 00-.02.029 117.5 117.5 0 00-.51.72 117.5 117.5 0 00-1.036 1.5 117.5 117.5 0 00-1.51 2.28 117.5 117.5 0 00-.451.705 117.5 117.5 0 00-.442.701 117.5 117.5 0 00-.062.098 117.5 117.5 0 00-.115.185 117.5 117.5 0 00-.348.56 117.5 117.5 0 00-.04.065 117.5 117.5 0 00-.435.715 117.5 117.5 0 00-.037.063 117.5 117.5 0 00-.43.718 117.5 117.5 0 00-.039.065 117.5 117.5 0 00-.423.723 117.5 117.5 0 00-.037.062 117.5 117.5 0 00-.418.727 117.5 117.5 0 00-.14.242 117.5 117.5 0 00-.312.55 117.5 117.5 0 00-.035.065 117.5 117.5 0 00-.443.795 117.5 117.5 0 000 .002 117.5 117.5 0 00-.4.734 117.5 117.5 0 00-.24.448 117.5 117.5 0 00-.221.41 117.5 117.5 0 00-.03.054 117.5 117.5 0 00-.4.764 117.5 117.5 0 00-.39.756 117.5 117.5 0 00-.241.473 117.5 117.5 0 00-.19.375 117.5 117.5 0 00-.042.086 117.5 117.5 0 00-.371.75 117.5 117.5 0 00-.37.751 117.5 117.5 0 00-.03.067 117.5 117.5 0 00-.362.756 117.5 117.5 0 00-.031.068 117.5 117.5 0 00-.356.758 117.5 117.5 0 00-.168.367 117.5 117.5 0 00-.213.461 117.5 117.5 0 00-.03.066 117.5 117.5 0 00-.368.825 117.5 117.5 0 00-.004.007 117.5 117.5 0 00-.338.768 117.5 117.5 0 00-.283.654 117.5 117.5 0 00-.088.205 117.5 117.5 0 00-.086.202 117.5 117.5 0 00-.287.683 117.5 117.5 0 00-.32.776 117.5 117.5 0 00-.028.068 117.5 117.5 0 00-.326.807 117.5 117.5 0 00-.016.037 117.5 117.5 0 00-.306.779 117.5 117.5 0 00-.028.068 117.5 117.5 0 00-.3.784 117.5 117.5 0 00-.204.535 117.5 117.5 0 00-.119.316 117.5 117.5 0 00-.025.07 117.5 117.5 0 00-.31.844 117.5 117.5 0 00-.005.012 117.5 117.5 0 00-.283.787 117.5 117.5 0 00-.185.53 117.5 117.5 0 00-.139.396 117.5 117.5 0 00-.016.043 117.5 117.5 0 00-.257.754 117.5 117.5 0 00-.024.07 117.5 117.5 0 00-.568 1.732 117.5 117.5 0 00-.254.8 117.5 117.5 0 00-.022.07 117.5 117.5 0 00-.25.816 117.5 117.5 0 00-.072.236 117.5 117.5 0 00-.205.692 117.5 117.5 0 00-.234.804 117.5 117.5 0 00-.02.07 117.5 117.5 0 00-.228.807 117.5 117.5 0 00-.02.073 117.5 117.5 0 00-.228.837 117.5 117.5 0 00-.012.042 117.5 117.5 0 00-.215.808 117.5 117.5 0 00-.115.445 117.5 117.5 0 00-.113.438 117.5 117.5 0 00-.018.072 117.5 117.5 0 00-.215.862 117.5 117.5 0 00-.006.023 117.5 117.5 0 00-.195.814 117.5 117.5 0 00-.117.498 117.5 117.5 0 00-.09.39 117.5 117.5 0 00-.016.071 117.5 117.5 0 00-.187.838 117.5 117.5 0 00-.176.809 117.5 117.5 0 00-.014.066 117.5 117.5 0 00-.015.069 117.5 117.5 0 00-.17.82 117.5 117.5 0 00-.113.564 117.5 117.5 0 00-.067.329 117.5 117.5 0 00-.014.072 117.5 117.5 0 00-.158.822 117.5 117.5 0 00-.013.074 117.5 117.5 0 00-.155.83 117.5 117.5 0 00-.07.403 117.5 117.5 0 00-.086.488 117.5 117.5 0 00-.012.072 117.5 117.5 0 00-.029.174 117.5 117.5 0 00-.254 1.553 117.5 117.5 0 00-.047.308 117.5 117.5 0 00-.101.666 117.5 117.5 0 00-.12.829 117.5 117.5 0 00-.119.857 117.5 117.5 0 00-.007.057 117.5 117.5 0 00-.008.062 117.5 117.5 0 00-.106.832 117.5 117.5 0 00-.066.547 117.5 117.5 0 00-.043.357 117.5 117.5 0 00-.008.073 117.5 117.5 0 00-.1.875 117.5 117.5 0 00-.003.03 117.5 117.5 0 00-.086.835 117.5 117.5 0 00-.036.346 117.5 117.5 0 00-.06.634 117.5 117.5 0 00-.074.834 117.5 117.5 0 00-.006.075 117.5 117.5 0 00-.07.857 117.5 117.5 0 00-.004.05 117.5 117.5 0 00-.06.837 117.5 117.5 0 00-.036.527 117.5 117.5 0 00-.025.38 117.5 117.5 0 00-.004.075 117.5 117.5 0 00-.053.897 117.5 117.5 0 000 .013 117.5 117.5 0 00-.043.836 117.5 117.5 0 00-.018.428 117.5 117.5 0 00-.021.484 117.5 117.5 0 00-.002.073 117.5 117.5 0 00-.03.838 117.5 117.5 0 00-.001.074 117.5 117.5 0 00-.024.845 117.5 117.5 0 00-.006.32 117.5 117.5 0 00-.011.657 117.5 117.5 0 00-.01.838 117.5 117.5 0 000 .074 117.5 117.5 0 00-.004.838 117.5 117.5 0 00.354 9.105 117.5 117.5 0 00.015.198A117.5 117.5 0 00186 238a117.5 117.5 0 0052.13-12.197 117.5 117.5 0 00.37-9.303 117.5 117.5 0 00-52.502-97.883z" fill="#789f7f"/></svg>