<svg xmlns="http://www.w3.org/2000/svg" xmlns:xlink="http://www.w3.org/1999/xlink" height="341" width="440"><defs><marker orient="auto" refY="0" refX="0" id="j" overflow="visible"><path d="M2.308 0l-3.46 2v-4l3.46 2z" fill-rule="evenodd" stroke="#000" stroke-width=".4pt"/></marker><marker id="i" refX="0" refY="0" orient="auto" overflow="visible"><path d="M-2.308 0l3.46-2v4l-3.46-2z" fill-rule="evenodd" stroke="#000" stroke-width=".4pt"/></marker><marker id="h" refX="0" refY="0" orient="auto" overflow="visible"><path d="M2.308 0l-3.46 2v-4l3.46 2z" fill-rule="evenodd" stroke="#000" stroke-width=".4pt"/></marker><marker orient="auto" refY="0" refX="0" id="g" overflow="visible"><path d="M-2.308 0l3.46-2v4l-3.46-2z" fill-rule="evenodd" stroke="#000" stroke-width=".4pt"/></marker><marker id="f" refX="0" refY="0" orient="auto" overflow="visible"><path d="M-2.308 0l3.46-2v4l-3.46-2z" fill-rule="evenodd" stroke="#000" stroke-width=".4pt"/></marker><marker orient="auto" refY="0" refX="0" id="e" overflow="visible"><path d="M2.308 0l-3.46 2v-4l3.46 2z" fill-rule="evenodd" stroke="#000" stroke-width=".4pt"/></marker><marker id="d" refX="0" refY="0" orient="auto" overflow="visible"><path d="M2.308 0l-3.46 2v-4l3.46 2z" fill-rule="evenodd" stroke="#000" stroke-width=".4pt"/></marker></defs><path id="a" d="M-11.207 33.349l230.98 144.874L454.304 31.708" fill="none" stroke="#000" stroke-width="2" stroke-linecap="butt" stroke-linejoin="miter" stroke-opacity="1" stroke-miterlimit="4" stroke-dasharray="none"/><use height="100%" width="100%" transform="translate(0 70)" xlink:href="#a"/><path d="M182.176 224.642l36.43-47.15 37.25 48.189" fill="none" stroke="#000"/><path d="M188.351 217.169l6.915 4.943-4.943 6.915M248.115 230.415l-4.853-6.979 6.979-4.853M219.772 248.223l-1.167-70.732" fill="none" stroke="#000"/><circle r="6" cy="177.643" cx="63.017"/><circle cx="376.528" cy="178.803" r="6"/><circle r="6" cy="177.643" cx="141.394"/><circle cx="298.15" cy="177.643" r="6"/><circle r="6" cy="178.417" cx="219.772"/><circle cx="63.017" cy="247.643" r="6"/><circle r="6" cy="248.803" cx="376.528"/><circle cx="141.394" cy="247.643" r="6"/><circle r="6" cy="247.643" cx="298.15"/><circle cx="219.772" cy="248.417" r="6"/><circle r="6" cy="315.643" cx="63.017"/><circle cx="376.528" cy="316.803" r="6"/><circle r="6" cy="315.643" cx="141.394"/><circle cx="298.15" cy="315.643" r="6"/><circle r="6" cy="316.416" cx="219.772"/><path id="b" d="M-64.191.116s1.576 25.012 11.635 32.079 39.635.079 39.635.079 29.576-6.988 39.636.079C36.774 39.42 38.35 64.432 38.35 64.432s1.576 25.012 11.635 32.079c10.06 7.066 39.635.079 39.635.079s29.577-6.988 39.636.078c10.059 7.067 11.635 32.08 11.635 32.08v0s.426 6.754 2.246 14.234" fill="none" stroke="#000" stroke-width="2" stroke-linecap="butt" stroke-linejoin="miter" stroke-miterlimit="4" stroke-dasharray="none" stroke-opacity="1"/><use height="100%" width="100%" transform="translate(-34 46)" id="c" xlink:href="#b" y="0" x="0"/><use height="100%" width="100%" transform="matrix(-1 0 0 1 440.92 0)" xlink:href="#b"/><use height="100%" width="100%" transform="matrix(-1 0 0 1 444.92 0)" xlink:href="#c"/><path d="M78.336 159.512l36.425-47.154M26.396 126.934L62.82 79.78M-24.75 94.855L11.677 47.7M360.37 160.391l-36.713-47.065M412.019 128.125L375.306 81.06M463.255 96.118l-36.713-47.066M141.394 177.643H298.15" fill="none" stroke="#000"/><path d="M137.974 265.607l52.591-26.87" fill="none" stroke="#000" marker-end="url(#d)"/><path d="M197.283 215.226c4.278 2.676 9.442 4.387 15.821 4.773" fill="none" stroke="#000" marker-end="url(#e)" marker-start="url(#f)"/><path d="M170.142 155.468c-2.913 4.121-4.912 9.18-5.656 15.528" fill="none" stroke="#000" marker-start="url(#g)" marker-end="url(#h)"/><path d="M269.083 155.468c2.913 4.121 4.911 9.18 5.656 15.528" fill="none" stroke="#000" marker-start="url(#i)" marker-end="url(#j)"/><path d="M131.23 263.888q1.075 0 1.725.754.65.754.65 2.014 0 1.54-.81 3.713-.811 2.174-2.159 3.522-1.34 1.347-2.719 1.347-1.107 0-1.74-.77-.634-.778-.634-1.989 0-1.331.626-3.192.625-1.861 1.467-3.064.85-1.212 1.79-1.773.946-.562 1.804-.562zm-.136 5.278l.529-1.973q.28-1.035.28-1.676 0-1.171-.874-1.171-.697 0-1.307 1.01-.602 1.003-1.444 3.81zm-2.952.45q-.939 3.072-.939 4.082 0 .482.265.778.265.297.65.297.77 0 1.428-1.267.657-1.268 1.427-3.89z" style="line-height:1.25;-inkscape-font-specification:'Times New Roman, Bold Italic'" font-style="italic" font-weight="700" font-size="16.427" font-family="Times New Roman" letter-spacing="0" word-spacing="0"/><path d="M92.378 274.035q.265 0 .866-.858l.2-.305.362.257q-1.316 2.07-2.375 2.077-1.066-.016-1.074-1.002 0-.37.176-1.123-.866 1.564-1.869 1.98-.409.177-.858.177-1.42 0-1.685-1.484-.056-.312-.056-.665 0-1.107.69-2.535.786-1.612 1.925-2.463.89-.657 1.805-.657.77.008 1.235.537l.289-1.05q.481-1.693.481-2.006 0-.457-.674-.457h-.345v-.441l3.434-.482-1.926 6.923q-.834 3.008-.834 3.288.016.281.233.29zm-1.332-3.264q.425-1.324.425-1.781 0-.53-.304-.762-.145-.104-.313-.104-.674 0-1.46 1.17-.77 1.14-1.123 2.535-.168.666-.168 1.163 0 .658.328.93.153.13.353.13 1.196-.017 2.262-3.281zM101.065 268.918q.008.489.826 1.435.995 1.155 1.267 1.95.153.433.153.826 0 1.13-.963 1.716-.65.393-1.468.393-.537 0-1.17-.232-.257-.097-.37-.097-.345.008-.481.33h-.441l.36-2.728.442.048q.289 2.174 1.532 2.182.586 0 .858-.41.129-.208.129-.448 0-.666-.786-1.589-.113-.136-.297-.336-.754-.835-.979-1.484-.176-.498-.176-1.115 0-1.203 1.042-1.685.514-.24 1.164-.24.52 0 .986.216.321.145.546.145.304 0 .48-.33.009-.007.009-.015h.473l-.377 2.526-.441-.032q-.385-1.973-1.348-1.973-.962.016-.97.947zM110.321 272.672l.482.28q-.779 1.428-1.757 1.933-.666.353-1.524.353-1.476 0-2.046-1.09-.28-.53-.28-1.228 0-1.548.866-3.008.85-1.436 2.142-2.077.818-.401 1.676-.401.947 0 1.452.53.32.352.32.833 0 1.107-1.042 1.998-.57.489-1.291.77-.658.256-1.885.465-.105.521-.105.81 0 1.348 1.06 1.348.681 0 1.259-.634.192-.217.673-.882zm-.176-4.06q-.016-.633-.514-.64-1.163.015-2.085 3.536 1.283-.336 2.005-1.235.594-.746.594-1.66zM120.155 272.808l.361.208q-.666 1.18-1.251 1.653-.634.497-1.38.497-1.107-.016-1.115-.978 0-.787.425-2.054l.907-2.711q.112-.345.112-.465-.016-.337-.409-.345-.553 0-1.516 1.444-.577.874-.922 1.66-.522 1.211-1.075 3.305h-1.99l.931-3.353q.746-2.695.746-2.936-.008-.297-.185-.305-.056 0-.208-.032-.305-.056-.513-.064v-.441l3.272-.441-1.018 3.248h.016q.128-.184.385-.577.794-1.22 1.275-1.717.946-.962 1.981-.97 1.195.016 1.203 1.267 0 .53-.465 1.901l-.57 1.709q-.392 1.179-.392 1.443.016.281.216.29.393 0 1.091-1.1l.048-.072q.032-.048.04-.064z" style="line-height:1.25;-inkscape-font-specification:TEMPO" font-weight="400" font-size="16.427" font-family="TEMPO" letter-spacing="0" word-spacing="0"/><path d="M212.194 200.602q1.075 0 1.724.754.65.754.65 2.014 0 1.54-.81 3.713-.81 2.174-2.158 3.522-1.34 1.347-2.72 1.347-1.106 0-1.74-.77-.633-.778-.633-1.989 0-1.332.625-3.192.626-1.861 1.468-3.065.85-1.21 1.789-1.772.946-.562 1.805-.562zm-.137 5.278l.53-1.973q.28-1.035.28-1.676 0-1.172-.874-1.172-.698 0-1.307 1.011-.602 1.003-1.444 3.81zm-2.951.45q-.939 3.072-.939 4.082 0 .481.265.778.264.297.65.297.77 0 1.427-1.267.658-1.268 1.428-3.89zM286.086 156.408q1.075 0 1.725.754.65.754.65 2.013 0 1.54-.81 3.714t-2.158 3.522q-1.34 1.347-2.72 1.347-1.106 0-1.74-.77-.634-.778-.634-1.99 0-1.33.626-3.192.626-1.86 1.468-3.064.85-1.21 1.789-1.772.946-.562 1.804-.562zm-.136 5.278l.53-1.973q.28-1.035.28-1.677 0-1.17-.874-1.17-.698 0-1.308 1.01-.601 1.003-1.443 3.81zm-2.952.45q-.938 3.071-.938 4.082 0 .481.264.778.265.297.65.297.77 0 1.428-1.267.658-1.268 1.428-3.89zM156.086 156.408q1.075 0 1.725.754.65.754.65 2.013 0 1.54-.81 3.714t-2.158 3.522q-1.34 1.347-2.72 1.347-1.106 0-1.74-.77-.634-.778-.634-1.99 0-1.33.626-3.192.626-1.86 1.468-3.064.85-1.21 1.789-1.772.946-.562 1.804-.562zm-.136 5.278l.53-1.973q.28-1.035.28-1.677 0-1.17-.874-1.17-.698 0-1.308 1.01-.601 1.003-1.443 3.81zm-2.952.45q-.938 3.071-.938 4.082 0 .481.264.778.265.297.65.297.77 0 1.428-1.267.658-1.268 1.428-3.89z" style="line-height:1.25;-inkscape-font-specification:'Times New Roman, Bold Italic'" font-style="italic" font-weight="700" font-size="16.427" font-family="Times New Roman" letter-spacing="0" word-spacing="0"/><path d="M230.378 228.035q.265 0 .866-.858l.2-.305.362.257q-1.316 2.07-2.375 2.077-1.066-.016-1.074-1.002 0-.37.176-1.123-.866 1.564-1.869 1.98-.409.177-.858.177-1.42 0-1.685-1.484-.056-.312-.056-.665 0-1.107.69-2.535.786-1.612 1.925-2.463.89-.657 1.805-.657.77.008 1.235.537l.289-1.05q.481-1.693.481-2.006 0-.457-.674-.457h-.345v-.441l3.433-.482-1.925 6.923q-.834 3.008-.834 3.288.016.281.233.29zm-1.332-3.264q.425-1.324.425-1.781 0-.53-.304-.762-.145-.104-.313-.104-.674 0-1.46 1.17-.77 1.14-1.123 2.535-.168.666-.168 1.163 0 .658.328.93.153.13.353.13 1.196-.017 2.262-3.281zM95.39 67.81q3.722.009 3.73 2.35 0 1.413-1.283 2.287-.81.545-1.87.722l1.396 4.17q.233.69.61.875.168.088.77.169.032.008.048.008v.409h-3.32l-1.757-5.439h-.49l-.858 2.992q-.297 1.035-.297 1.356 0 .489.602.617.2.04.586.065v.409h-4.83v-.41q.723-.096 1.02-.545.168-.265.328-.834l1.966-7.18q.168-.609.168-.962 0-.393-.249-.505-.16-.072-.922-.136-.032-.008-.048-.008v-.41zm-1.083 1.412l-.938 3.618q3.064 0 3.256-2.543.016-.184.016-.369-.016-1.588-1.347-1.596-.586 0-.818.433-.096.177-.169.457zM105.513 71.42l1.82-.112-1.235 4.123q-.489 1.652-.489 2.19.016.232.2.24.354 0 1.108-1.027.016-.024.048-.064t.04-.056l.345.249q-1.284 2.061-2.567 2.07-.698 0-.947-.53-.088-.209-.088-.441 0-.433.233-1.22-.706 1.188-1.308 1.669-.65.505-1.411.505-1.035 0-1.492-.914-.257-.514-.257-1.18 0-1.259.794-2.783.802-1.524 1.917-2.326.834-.601 1.645-.601.914 0 1.21.673.089.209.145.506zm-1.027 3.177q.353-1.18.353-1.717-.008-.97-.61-.979-.625 0-1.387 1.188-.754 1.179-1.131 2.614-.177.698-.177 1.204.016.93.706.938.907 0 1.733-1.86.289-.643.513-1.388z" style="line-height:1.25;-inkscape-font-specification:TEMPO" font-weight="400" font-size="16.427" font-family="TEMPO" letter-spacing="0" word-spacing="0"/><path d="M112.034 76.995q1.428-2.711 1.428-3.28 0-.386-.289-.586-.04-.024-.128-.073-.305-.184-.401-.385-.105-.216-.105-.545 0-.481.426-.754.248-.16.521-.16.61 0 .89.505.137.249.137.545-.008 1.244-1.244 3.722-1.347 2.687-2.847 4.444-1.187 1.38-2.182 1.66-.289.08-.57.08-.721 0-1.018-.473-.128-.216-.128-.481 0-.465.353-.77.224-.185.473-.185.417 0 .858.305.353.24.53.273.072.016.136.016.377 0 .842-.49.618-.657.682-1.483.008-.08.008-.153 0-.762-.826-4.628-.29-1.34-.578-1.724-.265-.33-.73-.33v-.44l2.463-.393q.69 1.796 1.083 4.5l.176 1.283zM122.598 73.682q0 1.644-.89 3.08-.875 1.42-2.238 1.965-.714.29-1.468.29-1.62 0-2.31-1.052-.385-.585-.385-1.395 0-1.773.946-3.225.93-1.428 2.399-1.917.65-.216 1.34-.216 1.531 0 2.205 1.018.401.61.401 1.452zm-2.815-1.997q-.859 0-1.58 1.572-.642 1.404-.867 3.208-.072.57-.072 1.02.016 1.042.802 1.05.818 0 1.556-1.5.674-1.38.93-3.16.097-.634.097-1.14-.008-1.042-.866-1.05zM135.528 75.334l-.754 3.466h-6.818v-.377l2.495-2.744q.73-.802 1.347-1.836.802-1.34.802-2.246 0-1.396-.89-1.95-.457-.28-1.059-.28-1.267.008-2.005 1.484h-.465q1.123-3.345 3.665-3.353 1.54 0 2.359 1.035.633.802.633 1.973-.008 1.78-1.62 3.329l-2.912 2.783h2.294q1.252 0 1.669-.169.417-.168.666-.673.088-.185.184-.442zM14.073 154.785q3.722.008 3.73 2.35 0 1.412-1.284 2.286-.81.545-1.869.722l1.396 4.17q.233.69.61.875.168.088.77.169.032.008.048.008v.409h-3.32l-1.758-5.439h-.489l-.858 2.992q-.297 1.035-.297 1.356 0 .49.602.617.2.04.585.065v.409H7.11v-.41q.722-.096 1.02-.545.168-.264.328-.834l1.965-7.179q.169-.61.169-.962 0-.394-.249-.506-.16-.072-.922-.136-.032-.008-.049-.008v-.41zm-1.083 1.411l-.938 3.618q3.064 0 3.256-2.543.016-.184.016-.369-.016-1.588-1.347-1.596-.586 0-.819.433-.096.177-.168.457zM24.196 158.394l1.82-.112-1.235 4.123q-.49 1.652-.49 2.19.017.232.201.24.353 0 1.107-1.026.016-.025.048-.065.033-.04.04-.056l.345.249q-1.283 2.061-2.566 2.07-.698 0-.947-.53-.088-.209-.088-.441 0-.433.233-1.22-.706 1.188-1.308 1.669-.65.505-1.412.505-1.034 0-1.492-.914-.256-.514-.256-1.18 0-1.259.794-2.783.802-1.524 1.917-2.326.834-.601 1.644-.601.915 0 1.212.673.088.209.144.506zm-1.027 3.177q.353-1.18.353-1.717-.008-.97-.61-.978-.625 0-1.387 1.187-.754 1.179-1.131 2.615-.177.697-.177 1.203.016.93.706.938.906 0 1.733-1.86.288-.642.513-1.388z" style="line-height:1.25;-inkscape-font-specification:TEMPO" font-weight="400" font-size="16.427" font-family="TEMPO" letter-spacing="0" word-spacing="0"/><path d="M30.717 163.969q1.428-2.711 1.428-3.28 0-.386-.29-.586-.04-.024-.127-.072-.305-.185-.402-.385-.104-.217-.104-.546 0-.481.425-.754.249-.16.522-.16.61 0 .89.505.136.249.136.545-.008 1.244-1.243 3.722-1.347 2.687-2.847 4.444-1.188 1.38-2.182 1.66-.289.08-.57.08-.722 0-1.018-.473-.129-.216-.129-.48 0-.466.353-.77.225-.185.473-.185.418 0 .859.304.353.241.53.273.071.016.136.016.377 0 .842-.49.617-.657.682-1.483.008-.08.008-.152 0-.763-.827-4.629-.288-1.34-.577-1.724-.265-.33-.73-.33v-.44l2.462-.393q.69 1.796 1.083 4.5l.177 1.283zM41.28 160.656q0 1.645-.89 3.08-.874 1.42-2.237 1.966-.714.288-1.468.288-1.62 0-2.31-1.05-.385-.586-.385-1.396 0-1.773.946-3.225.93-1.427 2.398-1.917.65-.216 1.34-.216 1.532 0 2.206 1.018.4.61.4 1.452zm-2.815-1.997q-.858 0-1.58 1.572-.642 1.404-.866 3.209-.072.57-.072 1.018.016 1.043.802 1.051.818 0 1.556-1.5.674-1.38.93-3.16.097-.634.097-1.14-.008-1.042-.867-1.05zM53.601 165.774h-6.128v-.393q1.22 0 1.604-.37.313-.304.337-1.146v-6.417q0-.947-.393-1.107-.112-.04-.248-.04-.377.008-1.348.385v-.425l4.123-1.79h.297v9.362q0 .97.353 1.267.256.209 1.018.257l.385.024z" style="line-height:1.25;-inkscape-font-specification:TEMPO" font-weight="400" font-size="16.427" font-family="TEMPO" letter-spacing="0" word-spacing="0"/></svg>