<svg xmlns="http://www.w3.org/2000/svg" width="700" height="564"><defs><marker id="k" refX="0" refY="0" orient="auto" overflow="visible"><path d="M2.308 0l-3.46 2v-4l3.46 2z" fill-rule="evenodd" stroke="#000" stroke-width=".4pt"/></marker><marker orient="auto" refY="0" refX="0" id="j" overflow="visible"><path d="M2.308 0l-3.46 2v-4l3.46 2z" fill-rule="evenodd" stroke="#000" stroke-width=".4pt"/></marker><marker orient="auto" refY="0" refX="0" id="i" overflow="visible"><path d="M-5.231-2.42L1.324-.01-5.23 2.401c1.047-1.423 1.041-3.37 0-4.821z" fill-rule="evenodd" stroke-width=".375" stroke-linejoin="round" stroke="#c96965" fill="#c96965"/></marker><marker id="h" refX="0" refY="0" orient="auto" overflow="visible"><path d="M-5.231-2.42L1.324-.01-5.23 2.401c1.047-1.423 1.041-3.37 0-4.821z" fill-rule="evenodd" stroke-width=".375" stroke-linejoin="round" stroke="#c96965" fill="#c96965"/></marker><marker orient="auto" refY="0" refX="0" id="g" overflow="visible"><path d="M-5.231-2.42L1.324-.01-5.23 2.401c1.047-1.423 1.041-3.37 0-4.821z" fill-rule="evenodd" stroke-width=".375" stroke-linejoin="round" stroke="#c96965" fill="#c96965"/></marker><marker id="f" refX="0" refY="0" orient="auto" overflow="visible"><path d="M-5.231-2.42L1.324-.01-5.23 2.401c1.047-1.423 1.041-3.37 0-4.821z" fill-rule="evenodd" stroke-width=".375" stroke-linejoin="round" stroke="#c96965" fill="#c96965"/></marker><marker orient="auto" refY="0" refX="0" id="e" overflow="visible"><path d="M-5.231-2.42L1.324-.01-5.23 2.401c1.047-1.423 1.041-3.37 0-4.821z" fill-rule="evenodd" stroke-width=".375" stroke-linejoin="round" stroke="#c96965" fill="#c96965"/></marker><marker id="d" refX="0" refY="0" orient="auto" overflow="visible"><path d="M-5.231-2.42L1.324-.01-5.23 2.401c1.047-1.423 1.041-3.37 0-4.821z" fill-rule="evenodd" stroke-width=".375" stroke-linejoin="round" stroke="#549356" fill="#549356"/></marker><marker orient="auto" refY="0" refX="0" id="c" overflow="visible"><path d="M-5.231-2.42L1.324-.01-5.23 2.401c1.047-1.423 1.041-3.37 0-4.821z" fill-rule="evenodd" stroke-width=".375" stroke-linejoin="round" stroke="#549356" fill="#549356"/></marker><marker id="b" refX="0" refY="0" orient="auto" overflow="visible"><path d="M-5.231-2.42L1.324-.01-5.23 2.401c1.047-1.423 1.041-3.37 0-4.821z" fill-rule="evenodd" stroke-width=".375" stroke-linejoin="round" stroke="#549356" fill="#549356"/></marker><marker orient="auto" refY="0" refX="0" id="a" overflow="visible"><path d="M-5.231-2.42L1.324-.01-5.23 2.401c1.047-1.423 1.041-3.37 0-4.821z" fill-rule="evenodd" stroke-width=".375" stroke-linejoin="round" stroke="#549356" fill="#549356"/></marker></defs><path d="M343.688 161.561a126.009 142.395 0 00-123.49 114.07H47.073v71.131h176.435a126.009 142.395 0 00120.18 99.59 126.009 142.395 0 00120.18-99.59h175.949v-71.13H467.18a126.009 142.395 0 00-123.492-114.07z" fill="#d7d6d7"/><path d="M177.258 502.3h134M417.258 502.3h134" fill="none" stroke="#000" stroke-width="4" stroke-linecap="round"/><path d="M337.903 555.196H326.71v-.718q2.227 0 2.93-.674.571-.556.615-2.095v-11.718q0-1.729-.717-2.022-.206-.073-.455-.073-.688.015-2.46.703v-.776l7.529-3.267h.542v17.095q0 1.772.644 2.314.469.381 1.86.47l.704.043zM347.175 534.541q3.604 0 5.42 3.78 1.304 2.695 1.377 6.386v.352q0 3.545-1.172 6.299-1.611 3.794-4.892 4.19-.367.043-.733.043-3.618 0-5.42-3.794-1.289-2.71-1.362-6.416v-.322q0-3.56 1.172-6.328 1.64-3.809 4.951-4.16.337-.03.66-.03zm0 .85q-1.347 0-1.772 2.27-.279 1.465-.279 4.776v5.259q0 3.999.44 5.464.498 1.567 1.611 1.582 1.363 0 1.802-2.33.264-1.464.264-4.716v-5.26q0-4.042-.47-5.522-.497-1.508-1.596-1.523zM577.142 490.82v.777q-6.182 1.113-7.984 7.749 1.187-.513 2.52-.513 3.28 0 4.716 2.46.894 1.524.894 3.722 0 3.252-2.021 5.156-1.817 1.684-4.585 1.684-3.794 0-5.567-3.178-1.245-2.212-1.245-5.435 0-5.332 3.823-8.716 2.871-2.548 7.105-3.398 1.186-.234 2.344-.308zm-7.09 9.36q-.777.015-1.114.294-.38 1.084-.38 3.56 0 4.203.585 5.654.542 1.333 1.758 1.347 1.187 0 1.568-1.318.263-.923.263-3.706v-.235q0-3.193-.761-4.467-.674-1.114-1.92-1.128zM499.686 316.888h-1.919v4.321h-4.35v-4.32h-7.442v-3.385l9.39-12.934h2.402v12.993h1.92zm-6.24-3.325v-8.818l-6.24 8.818zM447.056 258.476l-.63-.367q2.388-4.54 6.87-4.555 2.14 0 3.56 1.186 1.348 1.158 1.362 2.93 0 2.021-1.582 3.252-.44.337-.937.557 2.578.996 3.354 3.486.293.937.293 2.007 0 3.017-2.3 5.17-1.977 1.846-4.834 2.33-.82.146-1.626.146-2.636 0-3.925-.996-.85-.674-.865-1.714 0-1.025.85-1.523.469-.278 1.025-.278 1.216 0 2.271 1.01.176.176.527.542.835.894 1.363 1.172.542.278 1.157.278 1.67 0 2.475-1.61.47-.938.47-2.052 0-2.827-2.418-4.365-1.055-.674-3.457-1.494l-.015-.015h-.014l-.015-.014H449.986l-.015-.015H449.942l-.015-.015H449.898l-.03-.014v-.513q2.637-.82 3.472-2.197.469-.791.469-1.817 0-1.875-1.318-2.636-.674-.367-1.524-.367-2.05 0-3.369 1.7-.264.337-.542.79zM355.183 215.287l-1.363 3.808h-8.276l-.66 2.432q4.82 0 7.398 1.992 2.315 1.817 2.33 5.025 0 3.545-2.637 5.522-2.344 1.714-5.83 1.729-1.744 0-3.062-.674-1.333-.703-1.348-1.817 0-1.172.85-1.714.44-.263.981-.263 1.26 0 2.55.967.175.131.527.41 1.069.879 1.713 1.098.47.162.953.162 1.508 0 2.373-1.26.586-.894.586-1.948 0-3.443-4.996-4.6-2.021-.469-4.672-.527l2.915-10.342zM305.85 264.95l-1.377 6.328h-12.451v-.689l4.555-5.01q1.333-1.464 2.461-3.354 1.465-2.446 1.465-4.102 0-2.548-1.626-3.56-.835-.512-1.933-.512-2.315.015-3.663 2.71h-.85q2.052-6.108 6.695-6.123 2.813 0 4.307 1.89 1.157 1.465 1.157 3.603-.015 3.252-2.959 6.08l-5.317 5.082h4.19q2.284 0 3.046-.307.762-.308 1.216-1.23.16-.338.337-.806zM217.113 253.238h-11.191v-.718q2.226 0 2.93-.674.57-.557.615-2.095v-11.718q0-1.729-.718-2.022-.205-.073-.454-.073-.689.014-2.461.703v-.776l7.53-3.267h.541v17.095q0 1.772.645 2.314.469.381 1.86.469.22.015.703.044zM244.27 8.409l-7.045 20.273h-2.857l6.006-16.172h-5.976q-1.626 0-2.285.762-.396.483-.865 1.787h-.776l1.348-6.65zM507.723 28.57q0 3.06-2.285 4.701-1.817 1.304-4.497 1.304-3.223 0-5.025-1.538-1.523-1.304-1.523-3.37.03-4.145 4.468-5.243-2.505-1.45-3.428-3.003-.703-1.201-.703-2.637 0-2.769 2.387-4.204 1.758-1.04 4.146-1.04 2.93 0 4.585 1.318 1.435 1.143 1.45 3.032-.03 2.974-4.087 4.205 2.417 1.582 3.413 3.002 1.099 1.568 1.099 3.472zm-4-10.753q0-1.567-.82-2.563-.703-.835-1.728-.85-1.362 0-2.11 1.07-.468.688-.468 1.523 0 2.388 3.486 4.307.205.117.41.22 1.1-1.334 1.202-2.945.029-.322.029-.762zm-4.16 7.178q-1.537 2.27-1.537 4.321 0 2.842 1.318 3.838.6.454 1.42.454 2.125 0 2.638-2.065.146-.572.146-1.23 0-1.876-1.157-3.092-.483-.512-1.948-1.567-.542-.395-.88-.66zM411.04 85.603v-.777q6.181-1.113 7.983-7.749-1.187.513-2.52.513-3.28 0-4.716-2.461-.894-1.523-.894-3.72 0-3.253 2.022-5.157 1.816-1.684 4.584-1.684 3.794 0 5.567 3.178 1.245 2.212 1.245 5.435 0 5.332-3.823 8.716-2.871 2.548-7.105 3.398-1.186.234-2.343.308zm7.09-9.36q.776-.015 1.113-.294.38-1.084.38-3.56 0-4.203-.585-5.654-.542-1.333-1.758-1.347-1.187 0-1.568 1.318-.263.923-.263 3.706v.235q0 3.193.761 4.467.674 1.114 1.92 1.128z" style="line-height:1.25;-inkscape-font-specification:TEMPO" font-weight="400" font-size="30" font-family="TEMPO" letter-spacing="0" word-spacing="0"/><path d="M404.171 289.235l38.998 45.559 242.005.364v-45.923z" fill="none" stroke="#000" stroke-width="2"/><path d="M436.74 322.948l-21.694-25.345" fill="none" stroke="#000" stroke-width="5" stroke-linecap="round"/><circle cx="425.177" cy="297.574" r="3"/><path d="M425.177 297.574l20.065-18.978" fill="none" stroke="#000" stroke-linecap="round"/><path d="M278.613 300.352h120.989" fill="none" stroke="#549356" stroke-dasharray="3,3" marker-end="url(#a)"/><path d="M290.613 308.352h120.989" fill="none" stroke="#549356" stroke-dasharray="3,3" marker-end="url(#b)"/><path d="M274.613 316.352h120.989" fill="none" stroke="#549356" stroke-dasharray="3,3" marker-end="url(#c)"/><path d="M298.613 324.352h120.989" fill="none" stroke="#549356" stroke-dasharray="3,3" marker-end="url(#d)"/><path d="M419.997 308.373l-92.4 211.327" fill="none" stroke="#c96965" stroke-dasharray="3,3" marker-end="url(#e)"/><path d="M424.894 314.043L311.36 515.577" fill="none" stroke="#c96965" stroke-dasharray="3,3" marker-end="url(#f)"/><path d="M423.574 310.275L379.656 527.69" fill="none" stroke="#c96965" stroke-dasharray="3,3" marker-end="url(#g)"/><path d="M419.193 305.379l-69.174 215.094" fill="none" stroke="#c96965" stroke-dasharray="3,3" marker-end="url(#h)"/><path d="M430.532 316.203l-37.217 221.022" fill="none" stroke="#c96965" stroke-dasharray="3,3" marker-end="url(#i)"/><rect width="21" height="58" x="256.337" y="281.302" rx="10.5" ry="10.5" fill="none" stroke="#7f80ea" stroke-width="2" stroke-linejoin="round"/><path d="M13.826 297.538h242.51v29.637H13.827" fill="none" stroke="#000" stroke-width="2"/><path d="M134.337 297.538v29.637" fill="none" stroke="#000"/><path d="M256.563 298.827h9.825s4 .64 4 3.39-4 3.39-4 3.39 4 .641 4 3.391-4 3.39-4 3.39 4 .641 4 3.391-4 3.391-4 3.391 4 .64 4 3.39-4 3.391-4 3.391h-9.825" fill="none" stroke="#000" stroke-linejoin="round"/><path d="M257.839 334.43H34.422M256.1 289.527H34.681" fill="none" stroke="#7f80ea" stroke-width="2" stroke-linecap="round"/><path d="M34.149 297.538V49.616h631.698v239.62M34.149 103.905h631.698" fill="none" stroke="#000" stroke-width="2"/><g transform="translate(3.26 -42.7)" stroke="#000" stroke-width="2"><circle r="20" cy="146.606" cx="388.337" fill="#fff" stroke-linecap="round" stroke-linejoin="round"/><path d="M380.786 153.109l11.48-10.023" fill="none" marker-end="url(#j)"/></g><g transform="translate(66.313 -96.99)" stroke="#000" stroke-width="2"><circle cx="388.337" cy="146.606" r="20" fill="#fff" stroke-linecap="round" stroke-linejoin="round"/><path d="M380.786 153.109l11.48-10.023" fill="none" marker-end="url(#k)"/></g><path fill="#fff" stroke="#000" stroke-width="2" stroke-linecap="round" stroke-linejoin="round" d="M197.52 35.616h73v28h-73z"/><circle r="3" cy="293.018" cx="270.644"/><path d="M270.644 293.018l20.065-18.978" fill="none" stroke="#000" stroke-linecap="round"/><circle cx="197.204" cy="289.527" r="3"/><path d="M197.204 289.527l15.145-32.646" fill="none" stroke="#000" stroke-linecap="round"/></svg>