<?xml version="1.0" encoding="UTF-8" standalone="no"?>
<!-- Created with Inkscape (http://www.inkscape.org/) -->

<svg
   xmlns:dc="http://purl.org/dc/elements/1.1/"
   xmlns:cc="http://creativecommons.org/ns#"
   xmlns:rdf="http://www.w3.org/1999/02/22-rdf-syntax-ns#"
   xmlns:svg="http://www.w3.org/2000/svg"
   xmlns="http://www.w3.org/2000/svg"
   xmlns:sodipodi="http://sodipodi.sourceforge.net/DTD/sodipodi-0.dtd"
   xmlns:inkscape="http://www.inkscape.org/namespaces/inkscape"
   width="320"
   height="468"
   id="svg2"
   version="1.1"
   inkscape:version="0.48.0 r9654"
   inkscape:export-filename="C:\Users\mandus\Documents\mandus\lab_roja\UNADM\Descartes\UNIDADES\_Un_091_Encargo_EcuacionDeOnda1D\_Un_091_EcuacionDeOnda1D\escenas\explicacion\muro_antes\Explicacion_E1_Muro_Antes.png"
   inkscape:export-xdpi="90"
   inkscape:export-ydpi="90"
   sodipodi:docname="template_320x468.svg">
  <defs
     id="defs4">
    <marker
       inkscape:stockid="DotM"
       orient="auto"
       refY="0.0"
       refX="0.0"
       id="DotM"
       style="overflow:visible">
      <path
         id="path3887"
         d="M -2.5,-1.0 C -2.5,1.7600000 -4.7400000,4.0 -7.5,4.0 C -10.260000,4.0 -12.5,1.7600000 -12.5,-1.0 C -12.5,-3.7600000 -10.260000,-6.0 -7.5,-6.0 C -4.7400000,-6.0 -2.5,-3.7600000 -2.5,-1.0 z "
         style="fill-rule:evenodd;stroke:#000000;stroke-width:1.0pt;marker-start:none;marker-end:none"
         transform="scale(0.4) translate(7.4, 1)" />
    </marker>
    <marker
       inkscape:stockid="DotL"
       orient="auto"
       refY="0.0"
       refX="0.0"
       id="DotL"
       style="overflow:visible">
      <path
         id="path3884"
         d="M -2.5,-1.0 C -2.5,1.7600000 -4.7400000,4.0 -7.5,4.0 C -10.260000,4.0 -12.5,1.7600000 -12.5,-1.0 C -12.5,-3.7600000 -10.260000,-6.0 -7.5,-6.0 C -4.7400000,-6.0 -2.5,-3.7600000 -2.5,-1.0 z "
         style="fill-rule:evenodd;stroke:#000000;stroke-width:1.0pt;marker-start:none;marker-end:none"
         transform="scale(0.8) translate(7.4, 1)" />
    </marker>
    <marker
       inkscape:stockid="Arrow2Mend"
       orient="auto"
       refY="0.0"
       refX="0.0"
       id="Arrow2Mend"
       style="overflow:visible;">
      <path
         id="path3849"
         style="font-size:12.0;fill-rule:evenodd;stroke-width:0.62500000;stroke-linejoin:round;"
         d="M 8.7185878,4.0337352 L -2.2072895,0.016013256 L 8.7185884,-4.0017078 C 6.9730900,-1.6296469 6.9831476,1.6157441 8.7185878,4.0337352 z "
         transform="scale(0.6) rotate(180) translate(0,0)" />
    </marker>
    <marker
       inkscape:stockid="Arrow2Sstart"
       orient="auto"
       refY="0.0"
       refX="0.0"
       id="Arrow2Sstart"
       style="overflow:visible">
      <path
         id="path3852"
         style="font-size:12.0;fill-rule:evenodd;stroke-width:0.62500000;stroke-linejoin:round"
         d="M 8.7185878,4.0337352 L -2.2072895,0.016013256 L 8.7185884,-4.0017078 C 6.9730900,-1.6296469 6.9831476,1.6157441 8.7185878,4.0337352 z "
         transform="scale(0.3) translate(-2.3,0)" />
    </marker>
    <marker
       inkscape:stockid="Arrow1Mend"
       orient="auto"
       refY="0.0"
       refX="0.0"
       id="Arrow1Mend"
       style="overflow:visible;">
      <path
         id="path3831"
         d="M 0.0,0.0 L 5.0,-5.0 L -12.5,0.0 L 5.0,5.0 L 0.0,0.0 z "
         style="fill-rule:evenodd;stroke:#000000;stroke-width:1.0pt;marker-start:none;"
         transform="scale(0.4) rotate(180) translate(10,0)" />
    </marker>
    <marker
       inkscape:stockid="Arrow2Mstart"
       orient="auto"
       refY="0.0"
       refX="0.0"
       id="Arrow2Mstart"
       style="overflow:visible">
      <path
         id="path3846"
         style="font-size:12.0;fill-rule:evenodd;stroke-width:0.62500000;stroke-linejoin:round"
         d="M 8.7185878,4.0337352 L -2.2072895,0.016013256 L 8.7185884,-4.0017078 C 6.9730900,-1.6296469 6.9831476,1.6157441 8.7185878,4.0337352 z "
         transform="scale(0.6) translate(0,0)" />
    </marker>
    <marker
       inkscape:stockid="Arrow2Lstart"
       orient="auto"
       refY="0.0"
       refX="0.0"
       id="Arrow2Lstart"
       style="overflow:visible">
      <path
         id="path3840"
         style="font-size:12.0;fill-rule:evenodd;stroke-width:0.62500000;stroke-linejoin:round"
         d="M 8.7185878,4.0337352 L -2.2072895,0.016013256 L 8.7185884,-4.0017078 C 6.9730900,-1.6296469 6.9831476,1.6157441 8.7185878,4.0337352 z "
         transform="scale(1.1) translate(1,0)" />
    </marker>
    <marker
       inkscape:stockid="Arrow1Lend"
       orient="auto"
       refY="0.0"
       refX="0.0"
       id="Arrow1Lend"
       style="overflow:visible;">
      <path
         id="path3825"
         d="M 0.0,0.0 L 5.0,-5.0 L -12.5,0.0 L 5.0,5.0 L 0.0,0.0 z "
         style="fill-rule:evenodd;stroke:#000000;stroke-width:1.0pt;marker-start:none;"
         transform="scale(0.8) rotate(180) translate(12.5,0)" />
    </marker>
    <marker
       inkscape:stockid="Arrow1Lstart"
       orient="auto"
       refY="0.0"
       refX="0.0"
       id="Arrow1Lstart"
       style="overflow:visible">
      <path
         id="path3822"
         d="M 0.0,0.0 L 5.0,-5.0 L -12.5,0.0 L 5.0,5.0 L 0.0,0.0 z "
         style="fill-rule:evenodd;stroke:#000000;stroke-width:1.0pt;marker-start:none"
         transform="scale(0.8) translate(12.5,0)" />
    </marker>
    <inkscape:perspective
       sodipodi:type="inkscape:persp3d"
       inkscape:vp_x="-16.127409 : 385.35764 : 1"
       inkscape:vp_y="0 : 532.40399 : 0"
       inkscape:vp_z="154.24186 : 385.35764 : 1"
       inkscape:persp3d-origin="69.057229 : 343.83013 : 1"
       id="perspective3033" />
  </defs>
  <sodipodi:namedview
     id="base"
     pagecolor="#ffffff"
     bordercolor="#666666"
     borderopacity="1.0"
     inkscape:pageopacity="0.0"
     inkscape:pageshadow="2"
     inkscape:zoom="1.3420631"
     inkscape:cx="48.438309"
     inkscape:cy="199.18344"
     inkscape:document-units="px"
     inkscape:current-layer="layer2"
     showgrid="false"
     inkscape:snap-bbox="true"
     inkscape:bbox-paths="true"
     inkscape:bbox-nodes="true"
     inkscape:snap-bbox-edge-midpoints="true"
     inkscape:snap-bbox-midpoints="true"
     inkscape:object-paths="true"
     inkscape:snap-intersection-paths="true"
     inkscape:object-nodes="true"
     inkscape:snap-smooth-nodes="true"
     inkscape:snap-midpoints="true"
     inkscape:snap-object-midpoints="true"
     inkscape:snap-center="true"
     inkscape:snap-page="true"
     inkscape:snap-global="false"
     inkscape:window-width="1366"
     inkscape:window-height="705"
     inkscape:window-x="-8"
     inkscape:window-y="-8"
     inkscape:window-maximized="1"
     borderlayer="true" />
  <metadata
     id="metadata7">
    <rdf:RDF>
      <cc:Work
         rdf:about="">
        <dc:format>image/svg+xml</dc:format>
        <dc:type
           rdf:resource="http://purl.org/dc/dcmitype/StillImage" />
        <dc:title></dc:title>
      </cc:Work>
    </rdf:RDF>
  </metadata>
  <g
     inkscape:label="Capa 1"
     inkscape:groupmode="layer"
     id="layer1"
     transform="translate(0,-584.36212)"
     style="display:inline" />
  <g
     inkscape:groupmode="layer"
     id="layer2"
     inkscape:label="Capa"
     transform="translate(0,-584.35999)">
    <path
       inkscape:connector-curvature="0"
       id="rect3054"
       d="m 0.57822463,584.93821 319.42177537,0 0,467.42179 -319.42177537,0 z"
       style="fill:#0088aa;fill-opacity:1;stroke:#000000;stroke-width:0.68769199;stroke-opacity:1;display:inline" />
    <path
       inkscape:connector-curvature="0"
       id="rect3065"
       d="m 15.004938,641.45114 293.955772,0 0,396.70286 -293.955772,0 z"
       style="fill:#c8b7b7;fill-opacity:1;stroke:#000000;stroke-width:1.2165271;stroke-opacity:1" />
    <flowRoot
       xml:space="preserve"
       id="flowRoot3009"
       style="font-size:40px;font-style:normal;font-weight:normal;line-height:125%;letter-spacing:0px;word-spacing:0px;fill:#ffffff;fill-opacity:1;stroke:none;font-family:Sans"
       transform="matrix(0.69393417,0,0,0.69393417,-228.10645,579.1342)"><flowRegion
         id="flowRegion3011"><rect
           id="rect3013"
           width="946.42859"
           height="87.14286"
           x="349.28571"
           y="33.714287"
           style="fill:#ffffff" /></flowRegion><flowPara
         id="flowPara3015">Antes de llegar al muro</flowPara></flowRoot>    <g
       sodipodi:type="inkscape:box3d"
       style="fill:#ffffff;fill-opacity:1;stroke:#000000;stroke-width:1.79999995;stroke-miterlimit:4;stroke-opacity:1;stroke-dasharray:none"
       id="g3035"
       inkscape:perspectiveID="#perspective3033"
       inkscape:corner0="-0.64926231 : 0.081968572 : 0 : 1"
       inkscape:corner7="-0.68200753 : 0.032137481 : 0.25 : 1">
      <path
         sodipodi:type="inkscape:box3dside"
         id="path3045"
         style="fill:#afafde;fill-rule:evenodd;stroke:#000000;stroke-width:0.95832717;stroke-miterlimit:4;stroke-opacity:1;stroke-dasharray:none"
         inkscape:box3dsidetype="13"
         d="m 226.74537,736.61958 25.00978,7.16882 -42.92015,-33.79712 -12.26233,-2.34326 z" />
      <path
         sodipodi:type="inkscape:box3dside"
         id="path3043"
         style="fill:#d7d7ff;fill-rule:evenodd;stroke:#000000;stroke-width:0.95832717;stroke-miterlimit:4;stroke-opacity:1;stroke-dasharray:none"
         inkscape:box3dsidetype="14"
         d="m 251.75515,660.3579 0,83.4305 -42.92015,-33.79712 0,-46.70885 z" />
      <path
         sodipodi:type="inkscape:box3dside"
         id="path3047"
         style="fill:#e9e9ff;fill-rule:evenodd;stroke:#000000;stroke-width:0.95832717;stroke-miterlimit:4;stroke-opacity:1;stroke-dasharray:none"
         inkscape:box3dsidetype="11"
         d="m 196.57267,663.4852 12.26233,-0.20277 0,46.70885 -12.26233,-2.34326 z" />
      <path
         sodipodi:type="inkscape:box3dside"
         id="path3039"
         style="fill:#4d4d9f;fill-rule:evenodd;stroke:#000000;stroke-width:0.95832717;stroke-miterlimit:4;stroke-opacity:1;stroke-dasharray:none"
         inkscape:box3dsidetype="5"
         d="m 226.74537,660.97823 25.00978,-0.62033 -42.92015,2.92453 -12.26233,0.20277 z" />
      <path
         sodipodi:type="inkscape:box3dside"
         id="path3037"
         style="fill:#353564;fill-rule:evenodd;stroke:#000000;stroke-width:0.95832717;stroke-miterlimit:4;stroke-opacity:1;stroke-dasharray:none"
         inkscape:box3dsidetype="6"
         d="m 226.74537,660.97823 0,75.64135 -30.1727,-28.97156 0,-44.16282 z" />
      <path
         sodipodi:type="inkscape:box3dside"
         id="path3041"
         style="fill:#8686bf;fill-rule:evenodd;stroke:#000000;stroke-width:0.95832717;stroke-miterlimit:4;stroke-opacity:1;stroke-dasharray:none"
         inkscape:box3dsidetype="3"
         d="m 226.74537,660.97823 25.00978,-0.62033 0,83.4305 -25.00978,-7.16882 z" />
    </g>
    <g
       id="g6563">
      <path
         style="font-size:medium;font-style:normal;font-variant:normal;font-weight:normal;font-stretch:normal;text-indent:0;text-align:start;text-decoration:none;line-height:normal;letter-spacing:normal;word-spacing:normal;text-transform:none;direction:ltr;block-progression:tb;writing-mode:lr-tb;text-anchor:start;baseline-shift:baseline;color:#000000;fill:#fb0404;fill-opacity:1;fill-rule:nonzero;stroke:none;stroke-width:3.29999995;marker:none;visibility:visible;display:inline;overflow:visible;enable-background:accumulate;font-family:Sans;-inkscape-font-specification:Sans"
         d="m 44.875,693.85999 9.90625,0 0,-3.28125 -9.90625,0 z m 13.21875,0 9.90625,0 0,-3.28125 -9.90625,0 z m 13.1875,0 9.90625,0 0,-3.28125 -9.90625,0 z m 13.21875,0 9.875,0 0,-3.28125 -9.875,0 z m 13.1875,0 9.90625,0 0,-3.28125 -9.90625,0 z m 13.1875,0 9.90625,0 0,-3.28125 -9.90625,0 z m 13.21875,0 9.90625,0 0,-3.28125 -9.90625,0 z m 13.1875,0 9.90625,0 0,-3.28125 -9.90625,0 z m 13.21875,0 9.875,0 0,-3.28125 -9.875,0 z m 13.1875,0 9.90625,0 0,-3.28125 -9.90625,0 z m 13.1875,0 9.90625,0 0,-3.28125 -9.90625,0 z m 13.21875,0 9.90625,0 0,-3.28125 -9.90625,0 z m 13.1875,0 3.40625,0 0,-3.28125 -3.40625,0 z"
         id="path3817"
         inkscape:connector-curvature="0" />
      <path
         style="fill-rule:evenodd;stroke:#ffffff;stroke-width:0.65;marker-start:none;marker-end:none;fill:#800000;stroke-opacity:1;stroke-miterlimit:4;stroke-dasharray:none"
         d="m 51.355412,692.2168 c 0,3.6432 -2.9568,6.6 -6.6,6.6 -3.6432,0 -6.6,-2.9568 -6.6,-6.6 0,-3.6432 2.9568,-6.6 6.6,-6.6 3.6432,0 6.6,2.9568 6.6,6.6 z"
         id="path6569"
         inkscape:connector-curvature="0" />
      <path
         d="m 189.42808,684.23 21.63323,7.95509 -21.63323,7.95509 c 3.45608,-4.69668 3.43617,-11.12255 0,-15.91018 z"
         style="font-size:12px;fill-rule:evenodd;stroke-width:0.62500000000000000;stroke-linejoin:round;fill:#800000;stroke:#ffebeb;stroke-opacity:1"
         id="path6571"
         inkscape:connector-curvature="0" />
    </g>
    <flowRoot
       xml:space="preserve"
       id="flowRoot6573"
       style="font-size:40px;font-style:normal;font-weight:normal;line-height:125%;letter-spacing:0px;word-spacing:0px;fill:#000000;fill-opacity:1;stroke:none;font-family:Sans"
       transform="matrix(2.1308633,0,0,2.1308633,369.0877,343.07134)"><flowRegion
         id="flowRegion6575"><rect
           id="rect6577"
           width="119.05392"
           height="149.20396"
           x="-156.16167"
           y="210.56517" /></flowRegion><flowPara
         id="flowPara6579"
         style="font-size:12px">   Antes de llegar al muro no hay diferencia observable entre la teoría cuántica  y la clásica</flowPara></flowRoot>  </g>
</svg>
