<svg xmlns="http://www.w3.org/2000/svg" xmlns:xlink="http://www.w3.org/1999/xlink" width="515" height="386"><path fill="#90e6f0" d="M0 0h515v386H0z"/><path d="M62.428 184.163l2.9 7.257m3.932-10.18l4.845 12.126m1.986-15.05l6.792 16.995m.04-19.916l8.737 21.861m-1.905-24.785l10.682 26.73m-3.85-29.652l12.628 31.598m-5.796-34.521l14.573 36.467m-7.74-39.39l16.518 41.334m-9.687-44.257l18.465 46.205m-11.632-49.127l20.41 51.072m-13.579-53.996l22.356 55.942m-15.524-58.864l24.3 60.809m-17.468-63.733l26.246 65.678m-19.414-68.6l28.192 70.545m-21.36-73.469l30.137 75.415m-23.305-78.337l32.083 80.282m-25.251-83.205l34.028 85.15m-27.196-88.072l35.973 90.018m-29.14-92.94l37.918 94.885m-31.087-97.809l39.864 99.754m-33.032-102.676l41.81 104.621m-34.978-107.544l43.755 109.49M212.73 119.862l45.7 114.357m-38.868-117.281l47.646 119.228m-40.814-122.15l49.592 124.095m-42.76-127.019l51.537 128.965M240.06 108.17l53.483 133.832M246.89 105.247l55.428 138.7m-48.596-141.622l57.374 143.568M260.555 99.401l59.319 148.437M267.387 96.48l61.264 153.305" fill="none" stroke="#2240c5" stroke-width="2"/><path d="M280.385 91.225l64.846 162.265M287.244 88.37l66.81 167.184M293.987 85.221l68.676 171.85M300.86 82.404l70.657 176.808M307.563 79.159l72.685 181.882M314.476 76.44l74.83 187.248M321.334 73.583l76.53 191.506M328.218 70.785l78.48 196.386M334.975 67.676l80.377 201.13M341.88 64.936l82.412 206.224M348.649 61.856l84.32 210.998m-77.45-213.825l86.212 215.732M362.436 56.319l88.139 220.553m-81.37-223.633l90.089 225.433M376.01 50.247l92.081 230.42M382.845 47.333l93.973 235.154" fill="none" stroke="#e12" stroke-width="2"/><path d="M274.2 93.564l63.265 158.313" fill="none" stroke="#000" stroke-width="2"/><path d="M52.243 188.519l337.35-144.32 96.063 240.383z" fill="none" stroke="#000" stroke-width="2" stroke-linejoin="round"/><circle id="a" cx="53.306" cy="188.429" r="5" fill="#f0f800" fill-opacity="1" stroke="#000" stroke-width="2" stroke-linecap="round" stroke-linejoin="round" stroke-miterlimit="4" stroke-dasharray="none" stroke-opacity="1"/><use xlink:href="#a" transform="translate(220.893 -94.865)" width="100%" height="100%"/><use xlink:href="#a" transform="translate(284.16 63.308)" width="100%" height="100%"/><use xlink:href="#a" transform="translate(336.286 -144.231)" width="100%" height="100%"/><use xlink:href="#a" transform="translate(432.35 96.153)" width="100%" height="100%"/><g font-weight="400" font-family="TEMPO" letter-spacing="0" word-spacing="0"><path style="line-height:1.25;-inkscape-font-specification:TEMPO" d="M27.3 174.814q.029 1.099 1.918 1.113v.747h-5.844l-.03-.747q1.143-.146 2.11-1.567.117-.176.468-.718l11.104-17.46h.747l2.813 16.8q.322 1.905.878 2.432.41.41 1.495.499.102.014.205.014v.747h-9.082v-.747q2.3-.19 2.314-1.48l-.425-4.013h-6.445l-1.714 2.886q-.513.893-.513 1.494zm8.466-5.581l-1.113-7.295-4.439 7.295zM27.3 220.814q.029 1.099 1.918 1.113v.747h-5.844l-.03-.747q1.143-.146 2.11-1.567.117-.176.468-.718l11.104-17.46h.747l2.813 16.8q.322 1.905.878 2.432.41.41 1.495.499.102.014.205.014v.747h-9.082v-.747q2.3-.19 2.314-1.48l-.425-4.013h-6.445l-1.714 2.886q-.513.893-.513 1.494zm8.466-5.581l-1.113-7.295-4.439 7.295zM49.257 210.736l.484-6.446q.102-1.23 1.04-1.83.527-.338 1.142-.338.953 0 1.363.718.175.308.175.674-.014.498-.454 1.524l-2.49 5.698zM271.831 67.05l-1.523 7.045-.952-.175q.102-.557.102-1.187 0-2.212-1.216-3.5-1.069-1.129-2.739-1.129-3.003 0-5.317 3.267-1.905 2.695-2.696 6.548-.38 1.816-.38 3.413 0 2.768 1.655 4.175 1.23 1.04 3.105 1.04 2.388 0 4.35-1.787.645-.586 1.656-1.773l.938.66q-2.066 3.178-5.655 4.145-1.347.351-2.798.351-3.72 0-5.859-2.168-2.007-2.036-2.007-5.317 0-4.556 2.373-8.13 2.124-3.223 5.508-4.629 2.08-.85 4.35-.85 2.08 0 3.795.587.879.293 1.26.293.57 0 1.01-.66.044-.073.147-.22zM275.405 75.663l.484-6.445q.102-1.23 1.04-1.831.527-.337 1.142-.337.953 0 1.363.717.175.308.175.674-.014.498-.454 1.524l-2.49 5.698zM389.994 13.831l-1.524 7.046-.952-.176q.103-.556.103-1.186 0-2.212-1.216-3.501-1.07-1.128-2.74-1.128-3.002 0-5.317 3.267-1.904 2.695-2.695 6.547-.381 1.817-.381 3.414 0 2.768 1.655 4.174 1.23 1.04 3.106 1.04 2.387 0 4.35-1.787.645-.586 1.656-1.772l.937.659q-2.065 3.179-5.654 4.146-1.348.351-2.798.351-3.72 0-5.86-2.168-2.006-2.036-2.006-5.317 0-4.556 2.373-8.13 2.124-3.223 5.508-4.629 2.08-.85 4.35-.85 2.08 0 3.794.586.88.293 1.26.293.571 0 1.01-.659.045-.073.147-.22zM473.437 302.862q0 3.926-3.955 5.405-2.066.776-4.893.776h-9.053v-.747q1.875-.205 2.52-2.49l3.574-13.271q.322-1.216.322-1.48 0-1.113-1.157-1.289-.264-.03-.967-.044v-.747h7.94q7.221.015 7.236 4.38 0 2.593-2.402 3.882-.923.483-3.135 1.128-.073.029-.132.044 4.087 1.128 4.102 4.453zm-7.134-11.133l-1.714 6.27q3.501 0 4.863-1.45 1.143-1.217 1.143-3.59-.03-3.017-2.608-3.032-.439 0-.717.103-.279.102-.47.395-.175.279-.263.528-.088.234-.234.776zm-4.072 15.366q.029.967 1.699.982 2.46 0 3.838-2.11 1.084-1.655 1.084-3.808 0-2.007-1.29-2.71-1.01-.542-3.207-.542l-1.92 7.075q-.204.762-.204 1.113zM330.469 273.998q0 3.925-3.955 5.405-2.065.776-4.893.776h-9.052v-.747q1.875-.205 2.52-2.49l3.573-13.272q.323-1.215.323-1.48 0-1.112-1.158-1.288-.263-.03-.966-.044v-.747h7.94q7.22.015 7.235 4.38 0 2.593-2.402 3.882-.923.483-3.135 1.128-.073.029-.132.043 4.087 1.128 4.102 4.454zm-7.134-11.133l-1.714 6.27q3.501 0 4.864-1.45 1.142-1.217 1.142-3.59-.03-3.017-2.607-3.032-.44 0-.718.103-.278.102-.469.395-.176.278-.263.527-.088.235-.235.777zm-4.072 15.366q.03.967 1.7.981 2.46 0 3.837-2.109 1.084-1.655 1.084-3.809 0-2.006-1.289-2.71-1.01-.541-3.208-.541l-1.919 7.075q-.205.761-.205 1.113zM337.193 268.24l.483-6.445q.103-1.23 1.04-1.83.527-.338 1.143-.338.952 0 1.362.718.176.308.176.674-.015.498-.454 1.524l-2.49 5.698z" font-size="30"/><path style="line-height:1.25;-inkscape-font-specification:TEMPO" d="M145.502 343.534q.021.805 1.407.816v.548h-4.286l-.021-.548q.837-.107 1.546-1.15.086-.128.344-.526l8.143-12.804h.548l2.062 12.321q.236 1.396.645 1.783.3.301 1.095.365.076.011.15.011v.548h-6.66v-.548q1.687-.14 1.698-1.085l-.312-2.943h-4.726l-1.257 2.116q-.376.655-.376 1.096zm6.209-4.093l-.816-5.35-3.255 5.35zM171.37 340.365q0 2.879-2.901 3.964-1.515.569-3.588.569h-6.639v-.548q1.375-.15 1.848-1.826l2.62-9.732q.237-.892.237-1.085 0-.817-.848-.946-.194-.021-.71-.032v-.548h5.823q5.296.011 5.307 3.212 0 1.902-1.762 2.847-.677.354-2.299.827-.054.022-.097.032 2.997.827 3.008 3.266zm-5.232-8.164l-1.257 4.597q2.567 0 3.566-1.063.838-.892.838-2.632-.021-2.213-1.912-2.224-.322 0-.526.076-.204.075-.344.29-.129.204-.193.386-.065.172-.172.57zm-2.987 11.268q.022.71 1.246.72 1.805 0 2.815-1.547.795-1.214.795-2.793 0-1.471-.945-1.987-.742-.398-2.353-.398l-1.407 5.189q-.15.559-.15.816zM190.802 338.055h-11.086v-1.933h11.086zm0 4.49h-11.086v-1.933h11.086zM207.377 330.03l-1 2.794h-6.068l-.484 1.783q3.534 0 5.425 1.461 1.697 1.332 1.708 3.685 0 2.6-1.934 4.05-1.718 1.256-4.275 1.267-1.278 0-2.245-.494-.978-.516-.988-1.332 0-.86.623-1.257.322-.193.72-.193.923 0 1.869.709.128.096.386.3.784.645 1.257.806.344.118.698.118 1.107 0 1.74-.924.43-.655.43-1.428 0-2.525-3.663-3.373-1.482-.344-3.427-.387l2.138-7.584zM217.732 344.898h-8.207v-.526q1.633 0 2.149-.494.419-.409.451-1.537v-8.593q0-1.268-.526-1.483-.15-.053-.333-.053-.505.01-1.805.515v-.57l5.521-2.395h.398v12.536q0 1.3.473 1.698.343.279 1.364.343l.515.033z" font-size="22"/><path style="line-height:1.25;-inkscape-font-specification:TEMPO" d="M220.44 343.534q.02.805 1.407.816v.548h-4.286l-.022-.548q.838-.107 1.547-1.15.086-.128.344-.526l8.142-12.804h.548l2.063 12.321q.236 1.396.644 1.783.3.301 1.096.365.075.011.15.011v.548h-6.66v-.548q1.687-.14 1.697-1.085l-.311-2.943h-4.727l-1.257 2.116q-.376.655-.376 1.096zm6.208-4.093l-.816-5.35-3.255 5.35zM248.992 330.181v.548q-.934.118-1.976 1.139-.086.096-.194.204l-4.383 4.512 1.655 5.21q.483 1.525.988 2.008.43.42 1.397.527.075.01.14.021v.548h-6.758v-.548q1.085-.043 1.332-.365.15-.193.15-.58-.01-.559-.816-2.997l-.44-1.321-2.858 3.168q-.698.774-.708 1.214.021.763 1.385.881v.548h-4.705v-.548q.87-.172 1.923-1.192.365-.365 1.354-1.44l3.297-3.62-1.826-5.919q-.268-.86-.677-1.128-.354-.225-1.364-.322v-.548h6.703v.548q-1.052.097-1.3.215-.322.172-.322.612.011.301.774 2.868l.365 1.214 2.073-2.18q1.526-1.612 1.536-2.138 0-.355-.3-.462-.194-.064-.881-.129v-.548zM271.014 343.534q.021.805 1.407.816v.548h-4.286l-.022-.548q.838-.107 1.547-1.15.086-.128.344-.526l8.142-12.804h.548l2.063 12.321q.236 1.396.644 1.783.301.301 1.096.365.075.011.15.011v.548h-6.66v-.548q1.687-.14 1.698-1.085l-.312-2.943h-4.727l-1.256 2.116q-.376.655-.376 1.096zm6.209-4.093l-.817-5.35-3.255 5.35zM287.116 336.143l.355-4.726q.075-.903.762-1.343.387-.247.838-.247.699 0 1 .526.128.226.128.494-.01.365-.333 1.117l-1.826 4.18zM302.982 340.365q0 2.879-2.9 3.964-1.515.569-3.588.569h-6.639v-.548q1.375-.15 1.848-1.826l2.621-9.732q.237-.892.237-1.085 0-.817-.85-.946-.192-.021-.708-.032v-.548h5.822q5.296.011 5.307 3.212 0 1.902-1.762 2.847-.677.354-2.299.827-.053.022-.096.032 2.997.827 3.007 3.266zm-5.231-8.164l-1.257 4.597q2.568 0 3.567-1.063.837-.892.837-2.632-.021-2.213-1.912-2.224-.322 0-.526.076-.204.075-.344.29-.129.204-.193.386-.065.172-.172.57zm-2.986 11.268q.021.71 1.246.72 1.804 0 2.814-1.547.795-1.214.795-2.793 0-1.471-.945-1.987-.741-.398-2.353-.398l-1.407 5.189q-.15.559-.15.816zM307.913 336.143l.355-4.726q.075-.903.762-1.343.387-.247.838-.247.698 0 1 .526.128.226.128.494-.01.365-.333 1.117l-1.826 4.18zM332.072 333.039q-.215 2.084-1.192 3.147-.978 1.064-2.675 1.064-.827 0-1.579-.398-.752-.408-1.354-.891-.698-.559-1.256-.85-.559-.3-1.032-.3-.805 0-1.256.516-.452.515-.752 1.847h-1.665q.247-1.955 1.203-3.007.966-1.053 2.674-1.053.774 0 1.537.397.762.398 1.396.892.655.516 1.225.838.58.311 1.063.311.817 0 1.29-.58.483-.59.687-1.933zm.011 5.543q-.269 1.976-1.203 3.029-.935 1.042-2.686 1.042-.773 0-1.547-.398-.773-.408-1.385-.891-.42-.333-1.107-.741-.687-.409-1.181-.409-.838 0-1.3.591-.462.591-.677 1.923h-1.686q.204-2.062 1.181-3.137.988-1.074 2.686-1.074.827 0 1.568.398.741.397 1.364.891.376.301 1.042.73.666.42 1.246.42.806 0 1.257-.527.451-.537.741-1.847zM343.717 333.372l-.462-.269q1.75-3.33 5.038-3.34 1.568 0 2.61.87.989.848 1 2.148 0 1.482-1.16 2.385-.323.247-.688.408 1.89.73 2.46 2.556.214.688.214 1.472 0 2.213-1.686 3.792-1.45 1.354-3.545 1.708-.602.108-1.192.108-1.934 0-2.88-.73-.622-.495-.633-1.258 0-.752.623-1.117.344-.204.752-.204.892 0 1.665.741.129.13.387.398.612.655.999.859.397.204.848.204 1.225 0 1.816-1.182.344-.687.344-1.503 0-2.074-1.773-3.202-.773-.494-2.535-1.095l-.01-.011h-.011l-.011-.01h-.022l-.01-.011H345.834l-.011-.011H345.802l-.022-.01v-.377q1.933-.601 2.545-1.611.344-.58.344-1.332 0-1.375-.967-1.934-.494-.268-1.117-.268-1.504 0-2.47 1.246-.194.247-.398.58zM354.717 333.372l-.462-.269q1.75-3.33 5.038-3.34 1.568 0 2.61.87.989.848 1 2.148 0 1.482-1.16 2.385-.323.247-.688.408 1.89.73 2.46 2.556.214.688.214 1.472 0 2.213-1.686 3.792-1.45 1.354-3.545 1.708-.602.108-1.192.108-1.934 0-2.88-.73-.622-.495-.633-1.258 0-.752.623-1.117.344-.204.752-.204.892 0 1.665.741.129.13.387.398.612.655.999.859.397.204.848.204 1.225 0 1.816-1.182.344-.687.344-1.503 0-2.074-1.773-3.202-.773-.494-2.535-1.095l-.01-.011h-.011l-.011-.01h-.022l-.01-.011H356.834l-.011-.011H356.802l-.022-.01v-.377q1.933-.601 2.545-1.611.344-.58.344-1.332 0-1.375-.967-1.934-.494-.268-1.117-.268-1.504 0-2.47 1.246-.194.247-.398.58zM365.846 343.534q.021.805 1.407.816v.548h-4.286l-.022-.548q.838-.107 1.547-1.15.086-.128.344-.526l8.143-12.804h.547l2.063 12.321q.236 1.396.644 1.783.301.301 1.096.365.075.011.15.011v.548h-6.66v-.548q1.687-.14 1.698-1.085l-.312-2.943h-4.726l-1.257 2.116q-.376.655-.376 1.096zm6.209-4.093l-.817-5.35-3.255 5.35zM394.398 330.181v.548q-.934.118-1.976 1.139-.086.096-.193.204l-4.383 4.512 1.654 5.21q.483 1.525.988 2.008.43.42 1.397.527.075.01.14.021v.548h-6.757v-.548q1.085-.043 1.332-.365.15-.193.15-.58-.01-.559-.816-2.997l-.44-1.321-2.858 3.168q-.699.774-.71 1.214.022.763 1.387.881v.548h-4.706v-.548q.87-.172 1.923-1.192.366-.365 1.354-1.44l3.298-3.62-1.827-5.919q-.268-.86-.676-1.128-.355-.225-1.365-.322v-.548h6.704v.548q-1.053.097-1.3.215-.322.172-.322.612.01.301.773 2.868l.365 1.214 2.073-2.18q1.526-1.612 1.537-2.138 0-.355-.301-.462-.194-.064-.881-.129v-.548zM145.502 371.672q.021.805 1.407.816v.548h-4.286l-.021-.548q.837-.107 1.546-1.15.086-.128.344-.526l8.143-12.804h.548l2.062 12.32q.236 1.397.645 1.784.3.3 1.095.365.076.011.15.011v.548h-6.66v-.548q1.687-.14 1.698-1.085l-.312-2.943h-4.726l-1.257 2.116q-.376.655-.376 1.096zm6.209-4.093l-.816-5.35-3.255 5.35zM173.679 357.965l-1.117 5.167-.699-.13q.075-.408.075-.87 0-1.622-.891-2.567-.784-.827-2.009-.827-2.202 0-3.9 2.396-1.396 1.976-1.976 4.801-.28 1.332-.28 2.503 0 2.03 1.215 3.062.902.762 2.277.762 1.751 0 3.19-1.31.473-.43 1.214-1.3l.688.483q-1.515 2.332-4.147 3.04-.988.258-2.051.258-2.729 0-4.297-1.59-1.472-1.493-1.472-3.899 0-3.34 1.74-5.962 1.558-2.363 4.04-3.394 1.525-.623 3.19-.623 1.525 0 2.782.43.645.214.924.214.419 0 .741-.483.032-.054.107-.161zM190.802 366.193h-11.086v-1.933h11.086zm0 4.49h-11.086v-1.933h11.086zM207.377 358.169l-1 2.793h-6.068l-.484 1.783q3.534 0 5.425 1.46 1.697 1.333 1.708 3.685 0 2.6-1.934 4.05-1.718 1.257-4.275 1.268-1.278 0-2.245-.494-.978-.516-.988-1.332 0-.86.623-1.257.322-.194.72-.194.923 0 1.869.71.128.096.386.3.784.645 1.257.806.344.118.698.118 1.107 0 1.74-.924.43-.655.43-1.429 0-2.524-3.663-3.373-1.482-.343-3.427-.386l2.138-7.584zM217.732 373.036h-8.207v-.526q1.633 0 2.149-.495.419-.408.451-1.536v-8.594q0-1.267-.526-1.482-.15-.054-.333-.054-.505.011-1.805.516v-.57l5.521-2.395h.398v12.536q0 1.3.473 1.698.343.279 1.364.343.16.011.515.032z" font-size="22"/><path style="line-height:1.25;-inkscape-font-specification:TEMPO" d="M220.44 371.672q.02.805 1.407.816v.548h-4.286l-.022-.548q.838-.107 1.547-1.15.086-.128.344-.526l8.142-12.804h.548l2.063 12.32q.236 1.397.644 1.784.3.3 1.096.365.075.011.15.011v.548h-6.66v-.548q1.687-.14 1.697-1.085l-.311-2.943h-4.727l-1.257 2.116q-.376.655-.376 1.096zm6.208-4.093l-.816-5.35-3.255 5.35zM247.026 358.32v.547q-.88.129-1.632 1.063-.162.205-.398.527l-4.157 5.8-1.139 4.2q-.225.85-.225 1.129 0 .773 1.085.88.247.022.655.022v.548h-7.111v-.548q1.278-.097 1.74-.57.322-.332.548-1.149l1.256-4.576-1.912-5.94q-.193-.817-.676-1.075-.215-.118-.978-.311v-.548h6.273v.548q-1.074.01-1.353.333-.161.183-.161.494.01.516.634 2.45l1.01 3.147 2.825-4.029q.612-.87.612-1.428 0-.677-.494-.849-.258-.086-.956-.118v-.548zM267.748 371.672q.022.805 1.407.816v.548h-4.286l-.021-.548q.838-.107 1.547-1.15.085-.128.343-.526l8.143-12.804h.548l2.062 12.32q.237 1.397.645 1.784.3.3 1.095.365.076.011.15.011v.548h-6.66v-.548q1.687-.14 1.698-1.085l-.312-2.943h-4.726l-1.257 2.116q-.376.655-.376 1.096zm6.209-4.093l-.816-5.35-3.255 5.35zM283.85 364.281l.355-4.727q.075-.902.763-1.342.386-.247.838-.247.698 0 .999.526.129.226.129.494-.011.365-.333 1.117l-1.827 4.179zM302.026 357.965l-1.117 5.167-.698-.13q.075-.408.075-.87 0-1.622-.891-2.567-.785-.827-2.01-.827-2.201 0-3.899 2.396-1.396 1.976-1.976 4.801-.28 1.332-.28 2.503 0 2.03 1.214 3.062.903.762 2.278.762 1.75 0 3.19-1.31.473-.43 1.214-1.3l.687.483q-1.514 2.332-4.146 3.04-.988.258-2.052.258-2.728 0-4.297-1.59-1.471-1.493-1.471-3.899 0-3.34 1.74-5.962 1.558-2.363 4.039-3.394 1.525-.623 3.19-.623 1.526 0 2.783.43.644.214.923.214.42 0 .742-.483.032-.054.107-.161zM304.647 364.281l.355-4.727q.075-.902.763-1.342.386-.247.838-.247.698 0 .999.526.128.226.128.494-.01.365-.333 1.117l-1.826 4.179zM328.807 361.176q-.215 2.084-1.193 3.148-.977 1.063-2.675 1.063-.827 0-1.579-.397-.752-.408-1.353-.892-.698-.558-1.257-.848-.559-.301-1.031-.301-.806 0-1.257.516-.451.515-.752 1.847h-1.665q.247-1.955 1.203-3.008.967-1.052 2.675-1.052.773 0 1.536.397.763.398 1.396.892.656.515 1.225.838.58.311 1.064.311.816 0 1.289-.58.483-.59.687-1.934zm.01 5.543q-.268 1.977-1.203 3.03-.934 1.042-2.685 1.042-.774 0-1.547-.398-.774-.408-1.386-.891-.419-.333-1.106-.742-.688-.408-1.182-.408-.838 0-1.3.591-.462.59-.677 1.923h-1.686q.204-2.063 1.182-3.137.988-1.074 2.685-1.074.827 0 1.568.397.742.398 1.365.892.376.3 1.042.73.666.42 1.246.42.805 0 1.257-.527.45-.537.74-1.848zM340.451 361.51l-.462-.27q1.751-3.33 5.038-3.34 1.569 0 2.61.87.989.849 1 2.149 0 1.482-1.16 2.384-.323.248-.688.409 1.89.73 2.46 2.556.215.688.215 1.472 0 2.213-1.687 3.792-1.45 1.353-3.545 1.708-.601.107-1.192.107-1.934 0-2.879-.73-.623-.494-.634-1.257 0-.752.623-1.117.344-.204.752-.204.892 0 1.665.741.13.129.387.397.612.656 1 .86.397.204.848.204 1.224 0 1.815-1.182.344-.687.344-1.504 0-2.073-1.773-3.2-.773-.495-2.535-1.096l-.01-.011h-.011l-.01-.01h-.022l-.011-.012H342.568l-.011-.01H342.536l-.022-.011v-.376q1.934-.602 2.546-1.611.344-.58.344-1.332 0-1.375-.967-1.934-.494-.269-1.117-.269-1.504 0-2.471 1.247-.193.247-.397.58zM351.451 361.51l-.462-.27q1.751-3.33 5.038-3.34 1.569 0 2.61.87.989.849 1 2.149 0 1.482-1.16 2.384-.323.248-.688.409 1.89.73 2.46 2.556.215.688.215 1.472 0 2.213-1.687 3.792-1.45 1.353-3.545 1.708-.601.107-1.192.107-1.934 0-2.879-.73-.623-.494-.634-1.257 0-.752.623-1.117.344-.204.752-.204.892 0 1.665.741.13.129.387.397.612.656 1 .86.397.204.848.204 1.224 0 1.815-1.182.344-.687.344-1.504 0-2.073-1.773-3.2-.773-.495-2.535-1.096l-.01-.011h-.011l-.01-.01h-.022l-.011-.012H353.568l-.011-.01H353.536l-.022-.011v-.376q1.934-.602 2.546-1.611.344-.58.344-1.332 0-1.375-.967-1.934-.494-.269-1.117-.269-1.504 0-2.471 1.247-.193.247-.397.58zM362.58 371.672q.022.805 1.407.816v.548h-4.286l-.021-.548q.838-.107 1.547-1.15.085-.128.343-.526l8.143-12.804h.548l2.062 12.32q.237 1.397.645 1.784.3.3 1.095.365.076.011.15.011v.548h-6.66v-.548q1.687-.14 1.698-1.085l-.312-2.943h-4.726l-1.257 2.116q-.376.655-.376 1.096zm6.21-4.093l-.817-5.35-3.255 5.35zM389.167 358.32v.547q-.88.129-1.633 1.063-.16.205-.397.527l-4.158 5.8-1.138 4.2q-.226.85-.226 1.129 0 .773 1.085.88.247.022.655.022v.548h-7.11v-.548q1.277-.097 1.74-.57.322-.332.547-1.149l1.257-4.576-1.912-5.94q-.193-.817-.677-1.075-.215-.118-.977-.311v-.548h6.273v.548q-1.074.01-1.353.333-.162.183-.162.494.011.516.634 2.45l1.01 3.147 2.825-4.029q.612-.87.612-1.428 0-.677-.494-.849-.257-.086-.956-.118v-.548z" font-size="22"/></g></svg>