<?xml version="1.0" encoding="UTF-8" standalone="no"?>
<!-- Created with Inkscape (http://www.inkscape.org/) -->

<svg
   xmlns:dc="http://purl.org/dc/elements/1.1/"
   xmlns:cc="http://creativecommons.org/ns#"
   xmlns:rdf="http://www.w3.org/1999/02/22-rdf-syntax-ns#"
   xmlns:svg="http://www.w3.org/2000/svg"
   xmlns="http://www.w3.org/2000/svg"
   xmlns:sodipodi="http://sodipodi.sourceforge.net/DTD/sodipodi-0.dtd"
   xmlns:inkscape="http://www.inkscape.org/namespaces/inkscape"
   width="200"
   height="200"
   viewBox="0 0 52.916665 52.916668"
   version="1.1"
   id="svg8"
   inkscape:version="0.92.3 (2405546, 2018-03-11)"
   sodipodi:docname="icono.svg">
  <defs
     id="defs2" />
  <sodipodi:namedview
     id="base"
     pagecolor="#ffffff"
     bordercolor="#666666"
     borderopacity="1.0"
     inkscape:pageopacity="0.0"
     inkscape:pageshadow="2"
     inkscape:zoom="2.8"
     inkscape:cx="96.572372"
     inkscape:cy="85.266885"
     inkscape:document-units="mm"
     inkscape:current-layer="layer1"
     showgrid="false"
     units="px"
     inkscape:window-width="1366"
     inkscape:window-height="745"
     inkscape:window-x="-8"
     inkscape:window-y="-8"
     inkscape:window-maximized="1"
     showguides="false">
    <inkscape:grid
       type="xygrid"
       id="grid4293" />
  </sodipodi:namedview>
  <metadata
     id="metadata5">
    <rdf:RDF>
      <cc:Work
         rdf:about="">
        <dc:format>image/svg+xml</dc:format>
        <dc:type
           rdf:resource="http://purl.org/dc/dcmitype/StillImage" />
        <dc:title></dc:title>
      </cc:Work>
    </rdf:RDF>
  </metadata>
  <g
     inkscape:label="Capa 1"
     inkscape:groupmode="layer"
     id="layer1"
     transform="translate(0,-244.08332)">
    <rect
       style="fill:#ecf0f1;fill-opacity:1;fill-rule:evenodd;stroke:none;stroke-width:2.16031361;stroke-linejoin:miter;stroke-miterlimit:4;stroke-dasharray:none;stroke-dashoffset:0;stroke-opacity:1"
       id="rect815"
       width="52.916668"
       height="52.916668"
       x="2.5687237e-008"
       y="244.08334" />
    <path
       style="opacity:0.98999999;vector-effect:none;fill:#8e44ad;fill-opacity:1;fill-rule:evenodd;stroke:none;stroke-width:0.39687499;stroke-linecap:butt;stroke-linejoin:miter;stroke-miterlimit:4;stroke-dasharray:0.396875, 0.39687499999999998;stroke-dashoffset:0;stroke-opacity:1"
       d="M 41.671875,270.54175 A 15.213541,15.213541 0 0 1 26.458334,285.75529 15.213541,15.213541 0 0 1 11.244793,270.54175 15.213541,15.213541 0 0 1 26.458334,255.32821 15.213541,15.213541 0 0 1 41.671875,270.54175 Z"
       id="path20699" />
    <path
       style="fill:none;stroke:#f39c12;stroke-width:0.52916667;stroke-linecap:butt;stroke-linejoin:miter;stroke-opacity:1;stroke-miterlimit:4;stroke-dasharray:none"
       d="m 26.458333,255.23362 v 30.61607"
       id="path20702"
       inkscape:connector-curvature="0" />
    <g
       id="g20719">
      <path
         sodipodi:nodetypes="czc"
         style="fill:none;stroke:#f39c12;stroke-width:0.5291667;stroke-linecap:butt;stroke-linejoin:miter;stroke-miterlimit:4;stroke-dasharray:none;stroke-opacity:1"
         d="m 26.458333,255.23362 c 0,0 2.645834,7.37053 2.645834,15.30803 0,7.9375 -2.645834,15.30804 -2.645834,15.30804"
         id="path20704"
         inkscape:connector-curvature="0" />
      <path
         inkscape:connector-curvature="0"
         id="path20706"
         d="m 26.458333,255.23362 c 0,0 5.291667,4.7247 5.291667,15.30803 0,10.58333 -5.291667,15.30804 -5.291667,15.30804"
         style="fill:none;stroke:#f39c12;stroke-width:0.5291667;stroke-linecap:butt;stroke-linejoin:miter;stroke-miterlimit:4;stroke-dasharray:none;stroke-opacity:1"
         sodipodi:nodetypes="czc" />
      <path
         sodipodi:nodetypes="czc"
         style="fill:none;stroke:#f39c12;stroke-width:0.5291667;stroke-linecap:butt;stroke-linejoin:miter;stroke-miterlimit:4;stroke-dasharray:none;stroke-opacity:1"
         d="m 26.458333,255.23362 c 0,0 7.9375,2.07887 7.9375,15.30803 0,13.22916 -7.9375,15.30804 -7.9375,15.30804"
         id="path20708"
         inkscape:connector-curvature="0" />
      <path
         inkscape:connector-curvature="0"
         id="path20710"
         d="m 26.458333,255.23362 c 0,0 10.583334,1.49094 10.583334,15.30803 0,13.81709 -10.583334,15.30804 -10.583334,15.30804"
         style="fill:none;stroke:#f39c12;stroke-width:0.5291667;stroke-linecap:butt;stroke-linejoin:miter;stroke-miterlimit:4;stroke-dasharray:none;stroke-opacity:1"
         sodipodi:nodetypes="czc" />
      <path
         sodipodi:nodetypes="czc"
         style="fill:none;stroke:#f39c12;stroke-width:0.52916667;stroke-linecap:butt;stroke-linejoin:miter;stroke-miterlimit:4;stroke-dasharray:none;stroke-opacity:1"
         d="m 26.458333,255.23362 c 0,0 12.855125,0.5555 12.855125,15.30803 0,14.75253 -12.855125,15.30804 -12.855125,15.30804"
         id="path20712"
         inkscape:connector-curvature="0" />
    </g>
    <g
       id="g20731"
       transform="matrix(-1,0,0,1,52.916666,0)">
      <path
         inkscape:connector-curvature="0"
         id="path20721"
         d="m 26.458333,255.23362 c 0,0 2.645834,7.37053 2.645834,15.30803 0,7.9375 -2.645834,15.30804 -2.645834,15.30804"
         style="fill:none;stroke:#f39c12;stroke-width:0.5291667;stroke-linecap:butt;stroke-linejoin:miter;stroke-miterlimit:4;stroke-dasharray:none;stroke-opacity:1"
         sodipodi:nodetypes="czc" />
      <path
         sodipodi:nodetypes="czc"
         style="fill:none;stroke:#f39c12;stroke-width:0.5291667;stroke-linecap:butt;stroke-linejoin:miter;stroke-miterlimit:4;stroke-dasharray:none;stroke-opacity:1"
         d="m 26.458333,255.23362 c 0,0 5.291667,4.7247 5.291667,15.30803 0,10.58333 -5.291667,15.30804 -5.291667,15.30804"
         id="path20723"
         inkscape:connector-curvature="0" />
      <path
         inkscape:connector-curvature="0"
         id="path20725"
         d="m 26.458333,255.23362 c 0,0 7.9375,2.07887 7.9375,15.30803 0,13.22916 -7.9375,15.30804 -7.9375,15.30804"
         style="fill:none;stroke:#f39c12;stroke-width:0.5291667;stroke-linecap:butt;stroke-linejoin:miter;stroke-miterlimit:4;stroke-dasharray:none;stroke-opacity:1"
         sodipodi:nodetypes="czc" />
      <path
         sodipodi:nodetypes="czc"
         style="fill:none;stroke:#f39c12;stroke-width:0.5291667;stroke-linecap:butt;stroke-linejoin:miter;stroke-miterlimit:4;stroke-dasharray:none;stroke-opacity:1"
         d="m 26.458333,255.23362 c 0,0 10.583334,1.49094 10.583334,15.30803 0,13.81709 -10.583334,15.30804 -10.583334,15.30804"
         id="path20727"
         inkscape:connector-curvature="0" />
      <path
         inkscape:connector-curvature="0"
         id="path20729"
         d="m 26.458333,255.23362 c 0,0 12.855125,0.5555 12.855125,15.30803 0,14.75253 -12.855125,15.30804 -12.855125,15.30804"
         style="fill:none;stroke:#f39c12;stroke-width:0.5291667;stroke-linecap:butt;stroke-linejoin:miter;stroke-miterlimit:4;stroke-dasharray:none;stroke-opacity:1"
         sodipodi:nodetypes="czc" />
    </g>
    <g
       transform="matrix(-2.4718599e-4,0.99999997,0.99999997,2.4718599e-4,-244.17127,244.01276)"
       id="g20743">
      <path
         sodipodi:nodetypes="czc"
         style="fill:none;stroke:#f39c12;stroke-width:0.5291667;stroke-linecap:butt;stroke-linejoin:miter;stroke-miterlimit:4;stroke-dasharray:none;stroke-opacity:1"
         d="m 26.458333,255.23362 c 0,0 2.645834,7.37053 2.645834,15.30803 0,7.9375 -2.645834,15.30804 -2.645834,15.30804"
         id="path20733"
         inkscape:connector-curvature="0" />
      <path
         inkscape:connector-curvature="0"
         id="path20735"
         d="m 26.458333,255.23362 c 0,0 5.291667,4.7247 5.291667,15.30803 0,10.58333 -5.291667,15.30804 -5.291667,15.30804"
         style="fill:none;stroke:#f39c12;stroke-width:0.5291667;stroke-linecap:butt;stroke-linejoin:miter;stroke-miterlimit:4;stroke-dasharray:none;stroke-opacity:1"
         sodipodi:nodetypes="czc" />
      <path
         sodipodi:nodetypes="czc"
         style="fill:none;stroke:#f39c12;stroke-width:0.5291667;stroke-linecap:butt;stroke-linejoin:miter;stroke-miterlimit:4;stroke-dasharray:none;stroke-opacity:1"
         d="m 26.458333,255.23362 c 0,0 7.9375,2.07887 7.9375,15.30803 0,13.22916 -7.9375,15.30804 -7.9375,15.30804"
         id="path20737"
         inkscape:connector-curvature="0" />
      <path
         inkscape:connector-curvature="0"
         id="path20739"
         d="m 26.458333,255.23362 c 0,0 10.583334,1.49094 10.583334,15.30803 0,13.81709 -10.583334,15.30804 -10.583334,15.30804"
         style="fill:none;stroke:#f39c12;stroke-width:0.5291667;stroke-linecap:butt;stroke-linejoin:miter;stroke-miterlimit:4;stroke-dasharray:none;stroke-opacity:1"
         sodipodi:nodetypes="czc" />
      <path
         sodipodi:nodetypes="czc"
         style="fill:none;stroke:#f39c12;stroke-width:0.5291667;stroke-linecap:butt;stroke-linejoin:miter;stroke-miterlimit:4;stroke-dasharray:none;stroke-opacity:1"
         d="m 26.458333,255.23362 c 0,0 12.855125,0.5555 12.855125,15.30803 0,14.75253 -12.855125,15.30804 -12.855125,15.30804"
         id="path20741"
         inkscape:connector-curvature="0" />
    </g>
    <g
       id="g20755"
       transform="rotate(-90.014163,26.294627,270.47241)">
      <path
         inkscape:connector-curvature="0"
         id="path20745"
         d="m 26.458333,255.23362 c 0,0 2.645834,7.37053 2.645834,15.30803 0,7.9375 -2.645834,15.30804 -2.645834,15.30804"
         style="fill:none;stroke:#f39c12;stroke-width:0.5291667;stroke-linecap:butt;stroke-linejoin:miter;stroke-miterlimit:4;stroke-dasharray:none;stroke-opacity:1"
         sodipodi:nodetypes="czc" />
      <path
         sodipodi:nodetypes="czc"
         style="fill:none;stroke:#f39c12;stroke-width:0.5291667;stroke-linecap:butt;stroke-linejoin:miter;stroke-miterlimit:4;stroke-dasharray:none;stroke-opacity:1"
         d="m 26.458333,255.23362 c 0,0 5.291667,4.7247 5.291667,15.30803 0,10.58333 -5.291667,15.30804 -5.291667,15.30804"
         id="path20747"
         inkscape:connector-curvature="0" />
      <path
         inkscape:connector-curvature="0"
         id="path20749"
         d="m 26.458333,255.23362 c 0,0 7.9375,2.07887 7.9375,15.30803 0,13.22916 -7.9375,15.30804 -7.9375,15.30804"
         style="fill:none;stroke:#f39c12;stroke-width:0.5291667;stroke-linecap:butt;stroke-linejoin:miter;stroke-miterlimit:4;stroke-dasharray:none;stroke-opacity:1"
         sodipodi:nodetypes="czc" />
      <path
         sodipodi:nodetypes="czc"
         style="fill:none;stroke:#f39c12;stroke-width:0.5291667;stroke-linecap:butt;stroke-linejoin:miter;stroke-miterlimit:4;stroke-dasharray:none;stroke-opacity:1"
         d="m 26.458333,255.23362 c 0,0 10.583334,1.49094 10.583334,15.30803 0,13.81709 -10.583334,15.30804 -10.583334,15.30804"
         id="path20751"
         inkscape:connector-curvature="0" />
      <path
         inkscape:connector-curvature="0"
         id="path20753"
         d="m 26.458333,255.23362 c 0,0 12.855125,0.5555 12.855125,15.30803 0,14.75253 -12.855125,15.30804 -12.855125,15.30804"
         style="fill:none;stroke:#f39c12;stroke-width:0.5291667;stroke-linecap:butt;stroke-linejoin:miter;stroke-miterlimit:4;stroke-dasharray:none;stroke-opacity:1"
         sodipodi:nodetypes="czc" />
    </g>
  </g>
</svg>
