<svg xmlns="http://www.w3.org/2000/svg" width="276" height="340"><path style="line-height:normal;font-variant-ligatures:normal;font-variant-position:normal;font-variant-caps:normal;font-variant-numeric:normal;font-variant-alternates:normal;font-variant-east-asian:normal;font-feature-settings:normal;font-variation-settings:normal;text-indent:0;text-align:start;text-decoration-line:none;text-decoration-style:solid;text-decoration-color:#000;text-transform:none;text-orientation:mixed;white-space:normal;shape-padding:0;shape-margin:0;inline-size:0;isolation:auto;mix-blend-mode:normal;solid-color:#000;solid-opacity:1" d="M108.07 71.306l21.215-36.742-36.742-21.213 3.697 13.803c-26.733 3.072-50.971 17.638-66.199 40.07-4.653 6.855-2.868 16.183 3.986 20.836 6.855 4.653 16.183 2.869 20.836-3.986 11.125-16.388 29.29-26.556 49.171-27.474zM108.07 268.694l21.215 36.742-36.742 21.213 3.697-13.803c-26.733-3.072-50.971-17.638-66.199-40.07-4.653-6.855-2.868-16.183 3.986-20.836 6.855-4.653 16.183-2.869 20.836 3.986 11.125 16.388 29.29 26.556 49.171 27.474z" color="#000" font-weight="400" font-family="sans-serif" overflow="visible" fill="#ecf0f1" stroke="#bdc3c7" stroke-linecap="round" stroke-linejoin="round"/></svg>