<svg xmlns="http://www.w3.org/2000/svg" width="307" height="293"><path d="M154.933 29.81l-.965 4.463-.603-.111q.065-.353.065-.752 0-1.4-.77-2.217-.677-.715-1.735-.715-1.901 0-3.367 2.07-1.206 1.706-1.707 4.146-.241 1.15-.241 2.162 0 1.753 1.048 2.644.78.659 1.967.659 1.512 0 2.755-1.132.408-.371 1.048-1.123l.594.418q-1.308 2.013-3.58 2.625-.854.223-1.773.223-2.356 0-3.71-1.373-1.272-1.29-1.272-3.368 0-2.885 1.503-5.149 1.345-2.04 3.488-2.931 1.318-.538 2.756-.538 1.317 0 2.403.37.556.186.797.186.362 0 .64-.417.028-.047.093-.14z" style="line-height:1.25;-inkscape-font-specification:TEMPO" font-weight="400" font-size="19" font-family="TEMPO" letter-spacing="0" word-spacing="0"/><path d="M100.686 102.178v-61h-60v61z" fill="none" stroke="#000" stroke-width="2"/><path d="M70.686 41.178v61M101.186 71.678h-61M40.686 41.178l-18.9-18.9" fill="none" stroke="#000"/><path d="M34.094 25.031q.019.696 1.216.705v.474h-3.702l-.018-.474q.723-.092 1.336-.992l.296-.455 7.033-11.058h.473l1.781 10.64q.204 1.207.557 1.54.26.26.946.316.065.01.13.01v.473H38.39v-.474q1.456-.12 1.466-.937l-.27-2.542h-4.081l-1.086 1.828q-.325.566-.325.946zm5.363-3.534l-.705-4.62-2.811 4.62zM24.651 36.79q0 2.487-2.505 3.424-1.308.491-3.098.491h-5.734v-.473q1.188-.13 1.596-1.577l2.264-8.405q.204-.77.204-.937 0-.705-.733-.817-.167-.018-.613-.028v-.473h5.029q4.573.01 4.583 2.774 0 1.642-1.522 2.459-.584.306-1.985.714-.047.019-.084.028 2.589.714 2.598 2.82zm-4.518-7.05l-1.085 3.97q2.217 0 3.08-.918.723-.77.723-2.273-.018-1.911-1.651-1.92-.278 0-.455.064-.176.065-.297.25-.11.177-.167.335-.055.148-.148.491zm-2.58 9.731q.02.613 1.077.622 1.559 0 2.43-1.336.687-1.048.687-2.412 0-1.271-.816-1.716-.64-.344-2.032-.344l-1.215 4.481q-.13.483-.13.705z" style="line-height:1.25;-inkscape-font-specification:TEMPO" font-weight="400" font-size="19" font-family="TEMPO" letter-spacing="0" word-spacing="0"/><path d="M55.431 22.847q2.282 0 3.433 2.393.826 1.707.872 4.045v.223q0 2.245-.742 3.99-1.02 2.402-3.099 2.653-.232.027-.464.027-2.291 0-3.432-2.402-.817-1.717-.863-4.064v-.204q0-2.254.742-4.008 1.04-2.412 3.136-2.635.213-.018.417-.018zm0 .538q-.853 0-1.122 1.438-.177.928-.177 3.024v3.33q0 2.534.279 3.461.315.993 1.02 1.002.863 0 1.141-1.475.167-.928.167-2.987v-3.33q0-2.561-.297-3.498-.315-.956-1.01-.965zM89.508 35.928H82.42v-.455q1.41 0 1.855-.426.362-.353.39-1.327v-7.422q0-1.095-.455-1.28-.13-.047-.287-.047-.436.01-1.559.446v-.492l4.769-2.069h.343v10.827q0 1.122.408 1.466.297.24 1.178.296.14.01.446.028z" style="line-height:1.25;-inkscape-font-specification:TEMPO;text-align:center" font-weight="400" font-size="19" font-family="TEMPO" letter-spacing="0" word-spacing="0" text-anchor="middle"/><path d="M31.381 49.763q2.282 0 3.433 2.393.825 1.707.872 4.045v.223q0 2.245-.742 3.989-1.02 2.403-3.099 2.653-.232.028-.464.028-2.291 0-3.432-2.403-.817-1.716-.863-4.063v-.204q0-2.255.742-4.008 1.039-2.412 3.136-2.635.213-.018.417-.018zm0 .538q-.853 0-1.122 1.438-.177.927-.177 3.024v3.33q0 2.533.279 3.461.315.993 1.02 1.002.863 0 1.141-1.475.167-.928.167-2.987v-3.33q0-2.561-.297-3.498-.315-.956-1.01-.965zM35.009 93.464H27.92v-.454q1.41 0 1.855-.427.362-.353.39-1.327V83.834q0-1.094-.455-1.28-.13-.046-.287-.046-.436.009-1.559.445v-.492l4.769-2.069h.343V91.22q0 1.123.408 1.466.297.241 1.178.297.14.01.446.028z" style="line-height:1.25;-inkscape-font-specification:TEMPO;text-align:end" font-weight="400" font-size="19" font-family="TEMPO" letter-spacing="0" word-spacing="0" text-anchor="end"/><path d="M292.686 105.714v-61h-120v61z" fill="none" stroke="#000" stroke-width="2"/><path d="M202.686 44.714v61M292.686 75.214h-120.5M172.686 44.714l-28.9-28.9" fill="none" stroke="#000"/><path d="M156.725 23.087q.019.696 1.216.705v.473h-3.702l-.019-.473q.724-.093 1.336-.993.075-.111.297-.454l7.032-11.059h.474l1.78 10.641q.205 1.206.558 1.54.26.26.946.316.065.009.13.009v.473h-5.752v-.473q1.456-.12 1.466-.937l-.27-2.542h-4.082l-1.085 1.828q-.325.566-.325.946zm5.363-3.535l-.705-4.62-2.811 4.62zM179.065 20.35q0 2.486-2.505 3.423-1.308.492-3.098.492h-5.734v-.473q1.188-.13 1.596-1.577l2.264-8.405q.204-.77.204-.938 0-.705-.733-.816-.167-.018-.612-.028v-.473h5.028q4.574.01 4.583 2.774 0 1.642-1.522 2.459-.584.306-1.985.714-.046.018-.084.028 2.589.714 2.598 2.82zm-4.518-7.05l-1.085 3.97q2.217 0 3.08-.918.723-.77.723-2.273-.018-1.912-1.651-1.92-.278 0-.455.064-.176.065-.296.25-.112.177-.167.335-.056.148-.149.491zm-2.579 9.731q.019.612 1.076.622 1.559 0 2.43-1.336.687-1.049.687-2.412 0-1.271-.816-1.717-.64-.343-2.032-.343l-1.215 4.481q-.13.483-.13.705z" style="line-height:1.25;-inkscape-font-specification:TEMPO" font-weight="400" font-size="19" font-family="TEMPO" letter-spacing="0" word-spacing="0"/><path d="M182.681 26.382q2.282 0 3.433 2.394.826 1.707.872 4.045v.223q0 2.245-.742 3.989-1.02 2.403-3.099 2.653-.232.028-.464.028-2.291 0-3.432-2.403-.817-1.716-.863-4.063v-.204q0-2.255.742-4.008 1.04-2.412 3.136-2.635.213-.019.417-.019zm0 .538q-.853 0-1.122 1.438-.177.928-.177 3.025v3.33q0 2.533.279 3.46.315.994 1.02 1.003.863 0 1.141-1.475.167-.928.167-2.988v-3.33q0-2.56-.297-3.498-.315-.955-1.01-.965zM192.181 26.382q2.282 0 3.433 2.394.826 1.707.872 4.045v.223q0 2.245-.742 3.989-1.02 2.403-3.099 2.653-.232.028-.464.028-2.291 0-3.432-2.403-.817-1.716-.863-4.063v-.204q0-2.255.742-4.008 1.04-2.412 3.136-2.635.213-.019.417-.019zm0 .538q-.853 0-1.122 1.438-.177.928-.177 3.025v3.33q0 2.533.279 3.46.315.994 1.02 1.003.863 0 1.141-1.475.167-.928.167-2.988v-3.33q0-2.56-.297-3.498-.315-.955-1.01-.965zM213.13 26.382q2.282 0 3.433 2.394.826 1.707.872 4.045v.223q0 2.245-.742 3.989-1.02 2.403-3.099 2.653-.232.028-.464.028-2.291 0-3.432-2.403-.817-1.716-.863-4.063v-.204q0-2.255.742-4.008 1.04-2.412 3.136-2.635.213-.019.417-.019zm0 .538q-.853 0-1.122 1.438-.177.928-.177 3.025v3.33q0 2.533.279 3.46.315.994 1.02 1.003.863 0 1.141-1.475.167-.928.167-2.988v-3.33q0-2.56-.297-3.498-.315-.955-1.01-.965zM226.258 39.463h-7.088v-.454q1.41 0 1.855-.427.362-.352.39-1.327v-7.421q0-1.095-.455-1.28-.13-.047-.287-.047-.436.01-1.559.445v-.491l4.769-2.07h.343v10.827q0 1.123.408 1.466.297.241 1.178.297.14.01.446.028z" style="line-height:1.25;-inkscape-font-specification:TEMPO;text-align:center" font-weight="400" font-size="19" font-family="TEMPO" letter-spacing="0" word-spacing="0" text-anchor="middle"/><path d="M163.381 53.298q2.282 0 3.433 2.394.825 1.707.872 4.045v.222q0 2.245-.742 3.99-1.02 2.402-3.099 2.653-.232.028-.464.028-2.291 0-3.432-2.403-.817-1.716-.863-4.064v-.204q0-2.254.742-4.008 1.039-2.412 3.136-2.634.213-.019.417-.019zm0 .538q-.853 0-1.122 1.438-.177.928-.177 3.025v3.33q0 2.533.279 3.46.315.993 1.02 1.003.863 0 1.141-1.475.167-.928.167-2.988V58.3q0-2.56-.297-3.498-.315-.955-1.01-.965zM167.009 97h-7.088v-.455q1.41 0 1.855-.427.362-.352.39-1.326V87.37q0-1.095-.455-1.28-.13-.047-.287-.047-.436.01-1.559.446v-.492l4.769-2.069h.343v10.827q0 1.122.408 1.466.297.24 1.178.296.14.01.446.028z" style="line-height:1.25;-inkscape-font-specification:TEMPO;text-align:end" font-weight="400" font-size="19" font-family="TEMPO" letter-spacing="0" word-spacing="0" text-anchor="end"/><path d="M262.686 44.714v61M232.686 44.714v61" fill="none" stroke="#000"/><path d="M246.84 39.463h-7.088v-.454q1.41 0 1.855-.427.362-.352.39-1.327v-7.421q0-1.095-.455-1.28-.13-.047-.287-.047-.436.01-1.559.445v-.491l4.769-2.07h.343v10.827q0 1.123.408 1.466.297.241 1.178.297.14.01.446.028zM255.3 39.463h-7.087v-.454q1.41 0 1.855-.427.362-.352.39-1.327v-7.421q0-1.095-.455-1.28-.13-.047-.287-.047-.436.01-1.559.445v-.491l4.769-2.07h.343v10.827q0 1.123.408 1.466.297.241 1.178.297.14.01.446.028zM276.107 39.463h-7.088v-.454q1.41 0 1.855-.427.362-.352.39-1.327v-7.421q0-1.095-.455-1.28-.13-.047-.287-.047-.436.01-1.559.445v-.491l4.769-2.07h.343v10.827q0 1.123.408 1.466.297.241 1.178.297.14.01.446.028zM281.98 26.382q2.281 0 3.432 2.394.825 1.707.872 4.045v.223q0 2.245-.742 3.989-1.02 2.403-3.099 2.653-.232.028-.464.028-2.291 0-3.433-2.403-.816-1.716-.862-4.063v-.204q0-2.255.742-4.008 1.039-2.412 3.136-2.635.213-.019.417-.019zm0 .538q-.854 0-1.123 1.438-.177.928-.177 3.025v3.33q0 2.533.279 3.46.315.994 1.02 1.003.863 0 1.141-1.475.167-.928.167-2.988v-3.33q0-2.56-.297-3.498-.315-.955-1.01-.965z" style="line-height:1.25;-inkscape-font-specification:TEMPO;text-align:center" font-weight="400" font-size="19" font-family="TEMPO" letter-spacing="0" word-spacing="0" text-anchor="middle"/><path d="M229.625 280.714v-120h-120v120z" fill="none" stroke="#000" stroke-width="2"/><path d="M139.625 160.714v120.5M229.625 191.214h-120.5M109.625 160.714l-36.9-36.9" fill="none" stroke="#000"/><path d="M88.665 131.587q.018.696 1.215.705v.473h-3.702l-.018-.473q.723-.093 1.336-.993.074-.111.297-.454l7.032-11.059h.473l1.781 10.641q.204 1.206.557 1.54.26.26.946.316.065.009.13.009v.473H92.96v-.473q1.457-.12 1.466-.937l-.27-2.542h-4.081l-1.086 1.827q-.324.566-.324.947zm5.362-3.535l-.705-4.62-2.811 4.62zM111.004 128.85q0 2.486-2.504 3.423-1.308.492-3.099.492h-5.733v-.473q1.187-.13 1.595-1.577l2.264-8.405q.204-.77.204-.937 0-.706-.733-.817-.167-.018-.612-.028v-.473h5.028q4.574.01 4.583 2.774 0 1.642-1.521 2.459-.585.306-1.986.714-.046.019-.083.028 2.588.714 2.598 2.82zm-4.518-7.05l-1.085 3.97q2.217 0 3.08-.918.724-.77.724-2.273-.019-1.912-1.652-1.92-.278 0-.454.064-.177.065-.297.25-.111.177-.167.335-.056.148-.149.491zm-2.579 9.731q.019.613 1.077.622 1.558 0 2.43-1.336.687-1.048.687-2.412 0-1.271-.817-1.717-.64-.343-2.031-.343l-1.216 4.481q-.13.483-.13.705zM73.873 139.81l-.965 4.463-.603-.111q.065-.353.065-.752 0-1.4-.77-2.217-.678-.715-1.735-.715-1.902 0-3.368 2.07-1.206 1.706-1.707 4.146-.241 1.15-.241 2.162 0 1.753 1.048 2.644.78.659 1.967.659 1.512 0 2.755-1.132.409-.371 1.049-1.123l.594.418q-1.309 2.013-3.582 2.625-.853.223-1.771.223-2.357 0-3.711-1.373-1.271-1.29-1.271-3.368 0-2.885 1.503-5.149 1.345-2.04 3.488-2.931 1.317-.538 2.755-.538 1.318 0 2.403.37.557.186.798.186.362 0 .64-.417.028-.047.093-.14zM75.496 140.117h5.502q3.033 0 4.546 1.66 1.178 1.3 1.178 3.359 0 3.117-1.94 5.176-1.734 1.837-4.554 2.348-.937.167-1.92.167h-5.474v-.474q.844-.102 1.196-.64.204-.315.38-.955l2.18-8.016q.289-1.03.289-1.345 0-.473-.334-.612-.158-.065-.947-.177l-.102-.018zm8.433 4.026q-.018-3.433-3.135-3.442-.826 0-1.04.677 0 .028-.009.047l-2.393 8.841q-.288 1.03-.288 1.271.019.631 1.104.64 2.802 0 4.36-2.486 1.179-1.902 1.373-4.685.028-.436.028-.863z" style="line-height:1.25;-inkscape-font-specification:TEMPO" font-weight="400" font-size="19" font-family="TEMPO" letter-spacing="0" word-spacing="0"/><path d="M119.62 142.382q2.283 0 3.433 2.394.826 1.707.872 4.045v.223q0 2.245-.742 3.989-1.02 2.403-3.099 2.653-.232.028-.463.028-2.292 0-3.433-2.403-.816-1.716-.863-4.063v-.205q0-2.254.742-4.007 1.04-2.412 3.136-2.635.213-.019.418-.019zm0 .538q-.853 0-1.122 1.438-.176.928-.176 3.025v3.33q0 2.533.278 3.46.315.994 1.02 1.003.863 0 1.142-1.475.167-.928.167-2.988v-3.33q0-2.56-.297-3.498-.316-.955-1.011-.965zM129.12 142.382q2.283 0 3.433 2.394.826 1.707.872 4.045v.223q0 2.245-.742 3.989-1.02 2.403-3.099 2.653-.232.028-.463.028-2.292 0-3.433-2.403-.816-1.716-.863-4.063v-.205q0-2.254.742-4.007 1.04-2.412 3.136-2.635.213-.019.418-.019zm0 .538q-.853 0-1.122 1.438-.176.928-.176 3.025v3.33q0 2.533.278 3.46.315.994 1.02 1.003.863 0 1.142-1.475.167-.928.167-2.988v-3.33q0-2.56-.297-3.498-.316-.955-1.011-.965zM150.07 142.382q2.282 0 3.432 2.394.826 1.707.872 4.045v.223q0 2.245-.742 3.989-1.02 2.403-3.099 2.653-.231.028-.463.028-2.292 0-3.433-2.403-.816-1.716-.863-4.063v-.205q0-2.254.742-4.007 1.04-2.412 3.136-2.635.213-.019.418-.019zm0 .538q-.854 0-1.123 1.438-.176.928-.176 3.025v3.33q0 2.533.278 3.46.315.994 1.02 1.003.863 0 1.142-1.475.167-.928.167-2.988v-3.33q0-2.56-.297-3.498-.316-.955-1.011-.965zM163.197 155.463h-7.088v-.454q1.41 0 1.856-.427.361-.352.39-1.327v-7.421q0-1.095-.455-1.28-.13-.047-.288-.047-.436.009-1.559.445v-.492l4.769-2.068h.343v10.826q0 1.123.408 1.466.297.241 1.179.297l.445.028z" style="line-height:1.25;-inkscape-font-specification:TEMPO;text-align:center" font-weight="400" font-size="19" font-family="TEMPO" letter-spacing="0" word-spacing="0" text-anchor="middle"/><path d="M90.82 169.298q2.283 0 3.433 2.394.826 1.707.872 4.045v.222q0 2.245-.742 3.99-1.02 2.402-3.099 2.653-.232.028-.463.028-2.292 0-3.433-2.403-.816-1.716-.863-4.064v-.204q0-2.254.742-4.008 1.04-2.412 3.136-2.634.213-.019.418-.019zm0 .538q-.853 0-1.122 1.438-.176.928-.176 3.025v3.33q0 2.533.278 3.46.315.993 1.02 1.003.863 0 1.142-1.475.167-.928.167-2.988v-3.33q0-2.56-.297-3.498-.316-.955-1.011-.965zM100.32 169.298q2.283 0 3.433 2.394.826 1.707.872 4.045v.222q0 2.245-.742 3.99-1.02 2.402-3.099 2.653-.232.028-.463.028-2.292 0-3.433-2.403-.816-1.716-.863-4.064v-.204q0-2.254.742-4.008 1.04-2.412 3.136-2.634.213-.019.418-.019zm0 .538q-.853 0-1.122 1.438-.176.928-.176 3.025v3.33q0 2.533.278 3.46.315.993 1.02 1.003.863 0 1.142-1.475.167-.928.167-2.988v-3.33q0-2.56-.297-3.498-.316-.955-1.011-.965zM90.82 199.919q2.283 0 3.433 2.393.826 1.707.872 4.045v.223q0 2.245-.742 3.99-1.02 2.402-3.099 2.652-.232.028-.463.028-2.292 0-3.433-2.403-.816-1.716-.863-4.063v-.204q0-2.255.742-4.008 1.04-2.412 3.136-2.635.213-.018.418-.018zm0 .538q-.853 0-1.122 1.438-.176.928-.176 3.024v3.33q0 2.534.278 3.461.315.993 1.02 1.002.863 0 1.142-1.475.167-.928.167-2.987v-3.33q0-2.561-.297-3.498-.316-.956-1.011-.965zM103.948 213H96.86v-.455q1.41 0 1.856-.427.361-.352.39-1.326v-7.422q0-1.095-.455-1.28-.13-.047-.288-.047-.436.01-1.559.446v-.492l4.769-2.069h.343v10.827q0 1.122.408 1.466.297.24 1.179.296.139.01.445.028z" style="line-height:1.25;-inkscape-font-specification:TEMPO;text-align:end" font-weight="400" font-size="19" font-family="TEMPO" letter-spacing="0" word-spacing="0" text-anchor="end"/><path d="M199.625 160.714v120.5M169.625 160.714v120.5" fill="none" stroke="#000"/><path d="M183.779 155.463h-7.088v-.454q1.41 0 1.856-.427.361-.352.39-1.327v-7.421q0-1.095-.455-1.28-.13-.047-.288-.047-.436.009-1.559.445v-.492l4.769-2.068h.343v10.826q0 1.123.409 1.466.296.241 1.178.297l.445.028zM192.24 155.463h-7.088v-.454q1.41 0 1.856-.427.361-.352.39-1.327v-7.421q0-1.095-.455-1.28-.13-.047-.288-.047-.436.009-1.559.445v-.492l4.769-2.068h.343v10.826q0 1.123.408 1.466.297.241 1.179.297l.445.028zM213.046 155.463h-7.088v-.454q1.41 0 1.855-.427.362-.352.39-1.327v-7.421q0-1.095-.454-1.28-.13-.047-.288-.047-.436.009-1.559.445v-.492l4.769-2.068h.343v10.826q0 1.123.408 1.466.297.241 1.179.297l.445.028zM218.918 142.382q2.283 0 3.433 2.394.826 1.707.872 4.045v.223q0 2.245-.742 3.989-1.02 2.403-3.099 2.653-.232.028-.464.028-2.291 0-3.432-2.403-.817-1.716-.863-4.063v-.205q0-2.254.742-4.007 1.04-2.412 3.136-2.635.213-.019.417-.019zm0 .538q-.853 0-1.122 1.438-.176.928-.176 3.025v3.33q0 2.533.278 3.46.315.994 1.02 1.003.863 0 1.142-1.475.167-.928.167-2.988v-3.33q0-2.56-.297-3.498-.316-.955-1.012-.965z" style="line-height:1.25;-inkscape-font-specification:TEMPO;text-align:center" font-weight="400" font-size="19" font-family="TEMPO" letter-spacing="0" word-spacing="0" text-anchor="middle"/><path d="M229.625 251.214h-120.5M229.625 221.214h-120.5" fill="none" stroke="#000"/><path d="M95.487 242.562h-7.088v-.454q1.41 0 1.856-.427.361-.353.39-1.327V232.932q0-1.094-.455-1.28-.13-.046-.288-.046-.436.009-1.559.445v-.492l4.769-2.069h.343v10.827q0 1.123.408 1.466.297.241 1.179.297l.445.028zM103.948 242.562H96.86v-.454q1.41 0 1.856-.427.361-.353.39-1.327V232.932q0-1.094-.455-1.28-.13-.046-.288-.046-.436.009-1.559.445v-.492l4.769-2.069h.343v10.827q0 1.123.408 1.466.297.241 1.179.297l.445.028zM94.448 272.567H87.36v-.455q1.41 0 1.856-.427.361-.352.39-1.326v-7.422q0-1.095-.455-1.28-.13-.047-.288-.047-.436.01-1.559.445v-.491l4.769-2.07h.343v10.828q0 1.122.408 1.465.297.242 1.179.297.139.01.445.028zM100.32 259.486q2.283 0 3.433 2.393.826 1.707.872 4.045v.223q0 2.245-.742 3.989-1.02 2.403-3.099 2.653-.232.028-.463.028-2.292 0-3.433-2.403-.816-1.716-.863-4.063v-.204q0-2.255.742-4.008 1.04-2.412 3.136-2.635.213-.018.418-.018zm0 .538q-.853 0-1.122 1.438-.176.927-.176 3.024v3.33q0 2.533.278 3.461.315.993 1.02 1.002.863 0 1.142-1.475.167-.928.167-2.987v-3.33q0-2.561-.297-3.498-.316-.956-1.011-.965z" style="line-height:1.25;-inkscape-font-specification:TEMPO;text-align:end" font-weight="400" font-size="19" font-family="TEMPO" letter-spacing="0" word-spacing="0" text-anchor="end"/></svg>