<svg xmlns="http://www.w3.org/2000/svg" width="578" height="554"><path stroke-linejoin="round" stroke-linecap="square" stroke-width="4" stroke="#000" fill="none" d="M135 112h436v436H135z"/><path stroke-width="2" stroke="#000" fill="none" d="M353 112v436M244 112v436m218-436v436m109-218H135m436-109H135m436 218H135"/><path d="M92.846 51.16q.04 1.464 2.559 1.483v.997h-7.793l-.04-.997q1.524-.195 2.813-2.09.156-.234.625-.956l14.805-23.282h.996l3.75 22.403q.43 2.539 1.172 3.242.547.547 1.992.664.137.02.273.02v.996H101.89v-.997q3.066-.253 3.086-1.972l-.566-5.352h-8.594l-2.285 3.848q-.684 1.191-.684 1.992zm11.29-7.442l-1.485-9.727-5.918 9.727zM139.877 45.397q0 5.235-5.273 7.207-2.754 1.036-6.524 1.036h-12.07v-.997q2.5-.273 3.36-3.32l4.765-17.695q.43-1.621.43-1.973 0-1.484-1.543-1.719-.352-.039-1.29-.058v-.996h10.587q9.629.02 9.648 5.84 0 3.457-3.203 5.175-1.23.645-4.18 1.504-.097.04-.175.059 5.449 1.504 5.468 5.937zm-9.511-14.843l-2.286 8.359q4.668 0 6.485-1.934 1.523-1.62 1.523-4.785-.039-4.023-3.476-4.043-.586 0-.957.137t-.625.527q-.235.371-.352.703-.117.313-.312 1.036zm-5.43 20.488q.039 1.289 2.266 1.308 3.28 0 5.117-2.812 1.445-2.207 1.445-5.078 0-2.676-1.719-3.613-1.347-.723-4.277-.723l-2.559 9.433q-.273 1.016-.273 1.485z" style="line-height:1.25;-inkscape-font-specification:TEMPO" font-weight="400" font-size="40" font-family="TEMPO" letter-spacing="0" word-spacing="0"/><path d="M135 112L62.132 39.132" fill="none" stroke="#000" stroke-width="2"/><path d="M55.02 72.57l-2.032 9.394-1.27-.234q.138-.742.138-1.582 0-2.95-1.622-4.668-1.425-1.504-3.652-1.504-4.004 0-7.09 4.355-2.539 3.594-3.593 8.73-.508 2.423-.508 4.552 0 3.691 2.207 5.566 1.64 1.387 4.14 1.387 3.184 0 5.801-2.383.86-.781 2.207-2.363l1.25.879q-2.754 4.238-7.539 5.527-1.797.469-3.73.469-4.961 0-7.813-2.891-2.676-2.715-2.676-7.09 0-6.074 3.164-10.84 2.832-4.297 7.344-6.172 2.774-1.132 5.8-1.132 2.774 0 5.06.78 1.171.391 1.68.391.76 0 1.347-.878.058-.098.195-.293zM58.438 73.214H70.02q6.386 0 9.57 3.496 2.48 2.735 2.48 7.07 0 6.563-4.082 10.899-3.652 3.867-9.59 4.941-1.972.352-4.042.352H52.832v-.996q1.777-.215 2.52-1.348.43-.664.8-2.012l4.59-16.875q.606-2.167.606-2.832 0-.996-.703-1.289-.332-.136-1.993-.37-.117-.02-.214-.04zm17.753 8.477q-.039-7.227-6.601-7.246-1.738 0-2.188 1.425 0 .059-.02.098l-5.038 18.613q-.606 2.168-.606 2.676.04 1.328 2.325 1.348 5.898 0 9.18-5.235 2.48-4.004 2.89-9.863.058-.918.058-1.816zM179.49 74.434q4.805 0 7.227 5.039 1.738 3.593 1.836 8.515v.469q0 4.727-1.563 8.398-2.148 5.06-6.523 5.586-.489.059-.977.059-4.824 0-7.226-5.059-1.72-3.613-1.817-8.554v-.43q0-4.746 1.563-8.437 2.187-5.079 6.601-5.547.45-.04.88-.04zm0 1.132q-1.797 0-2.363 3.028-.371 1.953-.371 6.367v7.012q0 5.332.586 7.285.664 2.09 2.148 2.11 1.817 0 2.402-3.106.352-1.953.352-6.29v-7.011q0-5.39-.625-7.363-.664-2.012-2.129-2.032zM199.49 74.434q4.805 0 7.227 5.039 1.738 3.593 1.836 8.515v.469q0 4.727-1.563 8.398-2.148 5.06-6.523 5.586-.489.059-.977.059-4.824 0-7.226-5.059-1.72-3.613-1.817-8.554v-.43q0-4.746 1.563-8.437 2.187-5.079 6.601-5.547.45-.04.88-.04zm0 1.132q-1.797 0-2.363 3.028-.371 1.953-.371 6.367v7.012q0 5.332.586 7.285.664 2.09 2.148 2.11 1.817 0 2.402-3.106.352-1.953.352-6.29v-7.011q0-5.39-.625-7.363-.664-2.012-2.129-2.032zM289.203 74.434q4.805 0 7.227 5.039 1.738 3.593 1.836 8.515v.469q0 4.727-1.563 8.398-2.148 5.06-6.523 5.586-.489.059-.977.059-4.824 0-7.227-5.059-1.718-3.613-1.816-8.554v-.43q0-4.746 1.563-8.437 2.187-5.079 6.601-5.547.45-.04.879-.04zm0 1.132q-1.797 0-2.363 3.028-.371 1.953-.371 6.367v7.012q0 5.332.586 7.285.664 2.09 2.148 2.11 1.816 0 2.402-3.106.352-1.953.352-6.29v-7.011q0-5.39-.625-7.363-.664-2.012-2.129-2.032zM316.84 101.973h-14.922v-.957q2.969 0 3.906-.899.762-.742.82-2.793V81.7q0-2.304-.957-2.695-.273-.098-.605-.098-.918.02-3.281.938v-1.035l10.039-4.356h.722v22.793q0 2.363.86 3.086.625.508 2.48.625.293.02.938.059zM406.113 101.973h-14.922v-.957q2.97 0 3.907-.899.761-.742.82-2.793V81.7q0-2.304-.957-2.695-.274-.098-.606-.098-.918.02-3.28.938v-1.035l10.038-4.356h.723v22.793q0 2.363.86 3.086.624.508 2.48.625.293.02.937.059zM423.926 101.973h-14.922v-.957q2.969 0 3.906-.899.762-.742.82-2.793V81.7q0-2.304-.957-2.695-.273-.098-.605-.098-.918.02-3.281.938v-1.035l10.039-4.356h.722v22.793q0 2.363.86 3.086.625.508 2.48.625.293.02.938.059zM513.307 101.973h-14.922v-.957q2.968 0 3.906-.899.762-.742.82-2.793V81.7q0-2.304-.957-2.695-.273-.098-.605-.098-.918.02-3.282.938v-1.035l10.04-4.356h.722v22.793q0 2.363.86 3.086.625.508 2.48.625.293.02.938.059zM525.67 74.434q4.805 0 7.226 5.039 1.739 3.593 1.836 8.515v.469q0 4.727-1.562 8.398-2.149 5.06-6.524 5.586-.488.059-.976.059-4.824 0-7.227-5.059-1.718-3.613-1.816-8.554v-.43q0-4.746 1.562-8.437 2.188-5.079 6.602-5.547.45-.04.879-.04zm0 1.132q-1.797 0-2.363 3.028-.372 1.953-.372 6.367v7.012q0 5.332.586 7.285.664 2.09 2.149 2.11 1.816 0 2.402-3.106.352-1.953.352-6.29v-7.011q0-5.39-.625-7.363-.664-2.012-2.13-2.032zM95.937 152.467q4.805 0 7.227 5.039 1.738 3.594 1.836 8.515v.47q0 4.726-1.563 8.398-2.148 5.058-6.523 5.586-.488.058-.977.058-4.824 0-7.226-5.058-1.719-3.614-1.817-8.555v-.43q0-4.746 1.563-8.437 2.187-5.078 6.602-5.547.449-.04.878-.04zm0 1.133q-1.796 0-2.363 3.027-.37 1.953-.37 6.367v7.012q0 5.332.585 7.285.664 2.09 2.148 2.11 1.817 0 2.403-3.106.351-1.953.351-6.29v-7.01q0-5.391-.625-7.364-.664-2.012-2.129-2.031zM115.937 152.467q4.805 0 7.227 5.039 1.738 3.594 1.836 8.515v.47q0 4.726-1.563 8.398-2.148 5.058-6.523 5.586-.488.058-.977.058-4.824 0-7.226-5.058-1.719-3.614-1.817-8.555v-.43q0-4.746 1.563-8.437 2.187-5.078 6.602-5.547.449-.04.878-.04zm0 1.133q-1.796 0-2.363 3.027-.37 1.953-.37 6.367v7.012q0 5.332.585 7.285.664 2.09 2.148 2.11 1.817 0 2.403-3.106.351-1.953.351-6.29v-7.01q0-5.391-.625-7.364-.664-2.012-2.129-2.031zM95.937 261.467q4.805 0 7.227 5.039 1.738 3.594 1.836 8.515v.47q0 4.726-1.563 8.398-2.148 5.058-6.523 5.586-.488.058-.977.058-4.824 0-7.226-5.058-1.719-3.614-1.817-8.555v-.43q0-4.746 1.563-8.437 2.187-5.078 6.602-5.547.449-.04.878-.04zm0 1.133q-1.796 0-2.363 3.027-.37 1.953-.37 6.367v7.012q0 5.332.585 7.285.664 2.09 2.148 2.11 1.817 0 2.403-3.106.351-1.953.351-6.29v-7.01q0-5.391-.625-7.364-.664-2.012-2.129-2.031zM123.574 289.006h-14.922v-.957q2.969 0 3.907-.899.761-.742.82-2.793v-15.625q0-2.304-.957-2.695-.274-.098-.606-.098-.918.02-3.28.938v-1.035l10.038-4.356h.723v22.793q0 2.364.86 3.086.624.508 2.48.625.293.02.937.059zM101.934 398.26H87.012v-.957q2.968 0 3.906-.899.762-.742.82-2.793v-15.625q0-2.304-.957-2.695-.273-.098-.605-.098-.918.02-3.282.938v-1.035l10.04-4.356h.722v22.793q0 2.363.86 3.086.625.508 2.48.625.293.02.938.059zM119.746 398.26h-14.922v-.957q2.969 0 3.906-.899.762-.742.82-2.793v-15.625q0-2.304-.956-2.695-.274-.098-.606-.098-.918.02-3.281.938v-1.035l10.039-4.356h.723v22.793q0 2.363.86 3.086.624.508 2.48.625.292.02.937.059zM101.934 507.006H87.012v-.957q2.968 0 3.906-.899.762-.742.82-2.793v-15.625q0-2.304-.957-2.695-.273-.098-.605-.098-.918.02-3.282.938v-1.035l10.04-4.356h.722v22.793q0 2.364.86 3.086.625.508 2.48.625.293.02.938.059zM114.297 479.467q4.804 0 7.226 5.039 1.739 3.594 1.836 8.515v.47q0 4.726-1.562 8.398-2.149 5.058-6.524 5.586-.488.058-.976.058-4.824 0-7.227-5.058-1.719-3.614-1.816-8.555v-.43q0-4.746 1.562-8.437 2.188-5.078 6.602-5.547.45-.04.879-.04zm0 1.133q-1.797 0-2.363 3.027-.372 1.953-.372 6.367v7.012q0 5.332.586 7.285.664 2.09 2.149 2.11 1.816 0 2.402-3.106.352-1.953.352-6.29v-7.01q0-5.391-.625-7.364-.664-2.012-2.13-2.031z" style="line-height:1.25;-inkscape-font-specification:TEMPO" font-weight="400" font-size="40" font-family="TEMPO" letter-spacing="0" word-spacing="0"/></svg>