<svg xmlns="http://www.w3.org/2000/svg" height="523" width="508"><path d="M45 57h400v400H45z" fill="none" stroke="#000" stroke-width="4" stroke-linecap="square" stroke-linejoin="round"/><path d="M245 57v400M145 57v400M345 57v400M445 257H45M445 157H45M445 357H45" fill="none" stroke="#000" stroke-width="2"/><path d="M87.56 42.52q.04 1.464 2.56 1.484V45h-7.794l-.039-.996q1.524-.195 2.813-2.09.156-.234.625-.957l14.804-23.281h.996l3.75 22.402q.43 2.54 1.172 3.242.547.547 1.992.664.137.02.274.02V45h-12.11v-.996q3.067-.254 3.086-1.973l-.566-5.351h-8.594l-2.285 3.847q-.683 1.192-.683 1.993zm11.29-7.442l-1.485-9.726-5.918 9.726zM187.56 42.52q.04 1.464 2.56 1.484V45h-7.794l-.039-.996q1.524-.195 2.813-2.09.156-.234.625-.957l14.804-23.281h.996l3.75 22.402q.43 2.54 1.172 3.242.547.547 1.992.664.137.02.274.02V45h-12.11v-.996q3.067-.254 3.086-1.973l-.566-5.351h-8.594l-2.285 3.847q-.683 1.192-.683 1.993zm11.29-7.442l-1.485-9.726-5.918 9.726zM286.56 42.52q.04 1.464 2.56 1.484V45h-7.794l-.039-.996q1.524-.195 2.813-2.09.156-.234.625-.957l14.804-23.281h.996l3.75 22.402q.43 2.54 1.172 3.242.547.547 1.992.664.137.02.274.02V45h-12.11v-.996q3.067-.254 3.086-1.973l-.566-5.351h-8.594l-2.285 3.847q-.683 1.192-.683 1.993zm11.29-7.442l-1.485-9.726-5.918 9.726zM386.56 42.52q.04 1.464 2.56 1.484V45h-7.794l-.039-.996q1.524-.195 2.813-2.09.156-.234.625-.957l14.804-23.281h.996l3.75 22.402q.43 2.54 1.172 3.242.547.547 1.992.664.137.02.274.02V45h-12.11v-.996q3.067-.254 3.086-1.973l-.566-5.351h-8.594l-2.285 3.847q-.683 1.192-.683 1.993zm11.29-7.442l-1.485-9.726-5.918 9.726z" style="line-height:1.25;-inkscape-font-specification:TEMPO" font-weight="400" font-size="40" font-family="TEMPO" letter-spacing="0" word-spacing="0"/><path d="M284.5 10.676h20M384.5 10.676h20" fill="none" stroke="#000" stroke-width="3"/><path d="M112.072 475l-2.031 9.395-1.27-.235q.137-.742.137-1.582 0-2.95-1.62-4.668-1.427-1.504-3.653-1.504-4.004 0-7.09 4.356-2.54 3.593-3.594 8.73-.508 2.422-.508 4.551 0 3.691 2.207 5.566 1.641 1.387 4.141 1.387 3.184 0 5.8-2.383.86-.781 2.208-2.363l1.25.879q-2.754 4.238-7.54 5.527-1.796.469-3.73.469-4.96 0-7.812-2.89-2.676-2.715-2.676-7.09 0-6.075 3.164-10.84 2.832-4.297 7.344-6.172 2.773-1.133 5.8-1.133 2.774 0 5.06.781 1.171.39 1.679.39.762 0 1.348-.878.058-.098.195-.293zM208.39 475l-2.03 9.395-1.27-.235q.137-.742.137-1.582 0-2.95-1.622-4.668-1.425-1.504-3.652-1.504-4.004 0-7.09 4.356-2.539 3.593-3.593 8.73-.508 2.422-.508 4.551 0 3.691 2.207 5.566 1.64 1.387 4.14 1.387 3.184 0 5.801-2.383.86-.781 2.207-2.363l1.25.879q-2.754 4.238-7.539 5.527-1.797.469-3.73.469-4.961 0-7.813-2.89-2.676-2.715-2.676-7.09 0-6.075 3.164-10.84 2.832-4.297 7.344-6.172 2.774-1.133 5.801-1.133 2.773 0 5.059.781 1.171.39 1.68.39.761 0 1.347-.878.059-.098.195-.293zM307.39 475l-2.03 9.395-1.27-.235q.137-.742.137-1.582 0-2.95-1.622-4.668-1.425-1.504-3.652-1.504-4.004 0-7.09 4.356-2.539 3.593-3.593 8.73-.508 2.422-.508 4.551 0 3.691 2.207 5.566 1.64 1.387 4.14 1.387 3.184 0 5.801-2.383.86-.781 2.207-2.363l1.25.879q-2.754 4.238-7.539 5.527-1.797.469-3.73.469-4.961 0-7.813-2.89-2.676-2.715-2.676-7.09 0-6.075 3.164-10.84 2.832-4.297 7.344-6.172 2.774-1.133 5.801-1.133 2.773 0 5.059.781 1.171.39 1.68.39.761 0 1.347-.878.059-.098.195-.293zM407.39 475l-2.03 9.395-1.27-.235q.137-.742.137-1.582 0-2.95-1.622-4.668-1.425-1.504-3.652-1.504-4.004 0-7.09 4.356-2.539 3.593-3.593 8.73-.508 2.422-.508 4.551 0 3.691 2.207 5.566 1.64 1.387 4.14 1.387 3.184 0 5.801-2.383.86-.781 2.207-2.363l1.25.879q-2.754 4.238-7.539 5.527-1.797.469-3.73.469-4.961 0-7.813-2.89-2.676-2.715-2.676-7.09 0-6.075 3.164-10.84 2.832-4.297 7.344-6.172 2.774-1.133 5.801-1.133 2.773 0 5.059.781 1.171.39 1.68.39.761 0 1.347-.878.059-.098.195-.293z" style="line-height:1.25;-inkscape-font-specification:TEMPO" font-weight="400" font-size="40" font-family="TEMPO" letter-spacing="0" word-spacing="0"/><path d="M185.5 469.5h20M384.5 469.5h20" fill="none" stroke="#000" stroke-width="3"/><path d="M30.91 111.637q0 5.234-5.273 7.207-2.754 1.035-6.524 1.035H7.043v-.996q2.5-.274 3.36-3.32l4.765-17.696q.43-1.62.43-1.972 0-1.485-1.543-1.72-.352-.038-1.29-.058v-.996h10.587q9.628.02 9.648 5.84 0 3.457-3.203 5.176-1.23.644-4.18 1.504-.097.039-.176.058 5.45 1.504 5.47 5.938zm-9.512-14.844l-2.285 8.36q4.668 0 6.485-1.934 1.523-1.621 1.523-4.785-.039-4.024-3.476-4.043-.586 0-.958.136-.37.137-.625.528-.234.37-.351.703-.117.312-.313 1.035zm-5.43 20.488q.04 1.29 2.266 1.309 3.282 0 5.118-2.813 1.445-2.207 1.445-5.078 0-2.676-1.719-3.613-1.348-.723-4.277-.723l-2.559 9.434q-.273 1.015-.273 1.484zM461.605 93.121h11.583q6.386 0 9.57 3.496 2.48 2.735 2.48 7.07 0 6.563-4.082 10.899-3.652 3.867-9.59 4.941-1.972.352-4.043.352H456v-.996q1.777-.215 2.52-1.348.43-.664.8-2.012l4.59-16.875q.606-2.168.606-2.832 0-.996-.704-1.289-.332-.136-1.992-.37-.117-.02-.215-.04zm17.754 8.477q-.039-7.227-6.601-7.246-1.738 0-2.188 1.425 0 .059-.02.098l-5.038 18.613q-.606 2.168-.606 2.676.04 1.328 2.324 1.348 5.899 0 9.18-5.235 2.48-4.004 2.89-9.863.06-.918.06-1.816zM30.91 211.637q0 5.234-5.273 7.207-2.754 1.035-6.524 1.035H7.043v-.996q2.5-.274 3.36-3.32l4.765-17.696q.43-1.62.43-1.972 0-1.485-1.543-1.72-.352-.038-1.29-.058v-.996h10.587q9.628.02 9.648 5.84 0 3.457-3.203 5.176-1.23.644-4.18 1.504-.097.039-.176.058 5.45 1.504 5.47 5.938zm-9.512-14.844l-2.285 8.36q4.668 0 6.485-1.934 1.523-1.621 1.523-4.785-.039-4.024-3.476-4.043-.586 0-.958.136-.37.137-.625.528-.234.37-.351.703-.117.312-.313 1.035zm-5.43 20.488q.04 1.29 2.266 1.309 3.282 0 5.118-2.813 1.445-2.207 1.445-5.078 0-2.676-1.719-3.613-1.348-.723-4.277-.723l-2.559 9.434q-.273 1.016-.273 1.484zM461.605 193.121h11.583q6.386 0 9.57 3.496 2.48 2.735 2.48 7.07 0 6.563-4.082 10.899-3.652 3.867-9.59 4.941-1.972.352-4.043.352H456v-.996q1.777-.215 2.52-1.348.43-.664.8-2.012l4.59-16.875q.606-2.168.606-2.832 0-.996-.704-1.289-.332-.136-1.992-.37-.117-.02-.215-.04zm17.754 8.477q-.039-7.227-6.601-7.246-1.738 0-2.188 1.425 0 .059-.02.098l-5.038 18.613q-.606 2.168-.606 2.676.04 1.328 2.324 1.348 5.899 0 9.18-5.235 2.48-4.004 2.89-9.863.06-.918.06-1.816zM30.91 311.637q0 5.234-5.273 7.207-2.754 1.035-6.524 1.035H7.043v-.996q2.5-.274 3.36-3.32l4.765-17.696q.43-1.62.43-1.972 0-1.485-1.543-1.72-.352-.038-1.29-.058v-.996h10.587q9.628.02 9.648 5.84 0 3.457-3.203 5.176-1.23.644-4.18 1.504-.097.039-.176.058 5.45 1.504 5.47 5.938zm-9.512-14.844l-2.285 8.36q4.668 0 6.485-1.934 1.523-1.621 1.523-4.785-.039-4.024-3.476-4.043-.586 0-.958.136-.37.137-.625.528-.234.37-.351.703-.117.312-.313 1.035zm-5.43 20.488q.04 1.29 2.266 1.309 3.282 0 5.118-2.813 1.445-2.207 1.445-5.078 0-2.676-1.719-3.613-1.348-.723-4.277-.723l-2.559 9.434q-.273 1.015-.273 1.484zM461.605 293.121h11.583q6.386 0 9.57 3.496 2.48 2.735 2.48 7.07 0 6.563-4.082 10.899-3.652 3.867-9.59 4.941-1.972.352-4.043.352H456v-.996q1.777-.215 2.52-1.348.43-.664.8-2.012l4.59-16.875q.606-2.168.606-2.832 0-.996-.704-1.289-.332-.136-1.992-.37-.117-.02-.215-.04zm17.754 8.477q-.039-7.227-6.601-7.246-1.738 0-2.188 1.425 0 .059-.02.098l-5.038 18.613q-.606 2.168-.606 2.676.04 1.328 2.324 1.348 5.899 0 9.18-5.235 2.48-4.004 2.89-9.863.06-.918.06-1.816zM30.91 411.637q0 5.234-5.273 7.207-2.754 1.035-6.524 1.035H7.043v-.996q2.5-.274 3.36-3.32l4.765-17.696q.43-1.62.43-1.972 0-1.485-1.543-1.72-.352-.038-1.29-.058v-.996h10.587q9.628.02 9.648 5.84 0 3.457-3.203 5.176-1.23.644-4.18 1.504-.097.039-.176.058 5.45 1.504 5.47 5.938zm-9.512-14.844l-2.285 8.36q4.668 0 6.485-1.934 1.523-1.621 1.523-4.785-.039-4.024-3.476-4.043-.586 0-.958.136-.37.137-.625.528-.234.37-.351.703-.117.312-.313 1.035zm-5.43 20.488q.04 1.29 2.266 1.309 3.282 0 5.118-2.813 1.445-2.207 1.445-5.078 0-2.676-1.719-3.613-1.348-.723-4.277-.723l-2.559 9.434q-.273 1.015-.273 1.484zM461.605 393.121h11.583q6.386 0 9.57 3.496 2.48 2.735 2.48 7.07 0 6.563-4.082 10.899-3.652 3.867-9.59 4.941-1.972.352-4.043.352H456v-.996q1.777-.215 2.52-1.348.43-.664.8-2.012l4.59-16.875q.606-2.168.606-2.832 0-.996-.704-1.289-.332-.136-1.992-.37-.117-.02-.215-.04zm17.754 8.477q-.039-7.227-6.601-7.246-1.738 0-2.188 1.425 0 .059-.02.098l-5.038 18.613q-.606 2.168-.606 2.676.04 1.328 2.324 1.348 5.899 0 9.18-5.235 2.48-4.004 2.89-9.863.06-.918.06-1.816z" style="line-height:1.25;-inkscape-font-specification:TEMPO" font-weight="400" font-size="40" font-family="TEMPO" letter-spacing="0" word-spacing="0"/><path d="M460.62 187.621h20M460.62 387.621h20M10.021 387.621h20M10.021 287.621h20" fill="none" stroke="#000" stroke-width="3"/></svg>