<svg xmlns="http://www.w3.org/2000/svg" height="212" width="482"><path d="M388.905 67.71l3.301-.478q.557.742.86 2.324.019.097.048.283l.03.146q.107-.136.36-.507.86-1.23 1.417-1.7.644-.546 1.25-.546.742 0 1.103.546.196.293.196.645 0 .537-.45.879-.273.205-.576.205-.351 0-.722-.225-.313-.175-.577-.175-.478 0-1.318 1.181-.264.371-.459.703l.635 3.135q.176.908.566 1.035.078.03.166.03.44 0 1.143-.918.03-.04.088-.108.078-.117.117-.156l.42.283q-.8 1.074-1.113 1.406-.967 1.026-1.924 1.036-1.016 0-1.524-1.446-.185-.556-.4-1.66l-.479.781q-.068.108-.205.352-.625 1.035-1.035 1.426-.595.547-1.289.547-.908 0-1.22-.625-.127-.245-.127-.538 0-.664.468-.996.244-.166.537-.166.42 0 .84.254.303.186.518.186.4 0 .762-.586.029-.03.068-.108l.068-.107.88-1.416-.587-3.047q-.273-1.367-1.054-1.377-.45 0-.782.04zM402.91 74.273q1.737-3.301 1.737-3.995 0-.468-.351-.712-.049-.03-.156-.088-.371-.225-.489-.47-.127-.263-.127-.663 0-.586.518-.918.303-.195.635-.195.742 0 1.084.615.166.303.166.664-.01 1.514-1.514 4.531-1.64 3.272-3.467 5.41-1.445 1.68-2.656 2.022-.352.097-.693.097-.88 0-1.24-.576-.157-.263-.157-.586 0-.566.43-.937.273-.225.576-.225.508 0 1.045.371.43.293.645.332.087.02.166.02.459 0 1.025-.596.752-.8.83-1.806.01-.098.01-.186 0-.928-1.006-5.635-.351-1.63-.703-2.1-.322-.4-.889-.4v-.537l2.998-.478q.84 2.187 1.319 5.478l.215 1.563zM409.51 68.51l.323-4.296q.068-.82.693-1.22.352-.225.762-.225.635 0 .908.478.117.205.117.45-.01.331-.302 1.015l-1.66 3.799zM402.108 98.86l.44.254q-.81 1.543-1.65 2.12-.713.497-1.573.497-1.328-.02-1.338-1.318 0-.83.742-3.018l.88-2.597q.136-.42.136-.616 0-.273-.293-.38-.078-.03-.166-.03-.635 0-1.68 1.475-.927 1.328-1.406 2.617-.303.82-1.172 3.692h-2.402l1.299-4.141q.898-2.852.898-3.242-.02-.39-.361-.4-.742 0-1.895 1.796-.566.889-.908 1.66-.644 1.494-1.435 4.327h-2.422l1.318-4.64q.723-2.528.723-3.017 0-.43-.655-.478-.078 0-.459-.01v-.537l3.995-.537-1.26 3.974h.02q.917-1.425 1.22-1.826 1.621-2.158 3.145-2.168 1.132 0 1.308 1.045.03.176.03.361-.01.694-.518 2.032.87-1.387 1.26-1.885 1.26-1.543 2.695-1.553 1.162 0 1.455.938.088.273.088.605 0 .742-.459 2.051l-.898 2.568q-.42 1.202-.42 1.534.02.351.312.36.342 0 .81-.663l.186-.274q.274-.41.41-.576z" style="line-height:1.25;-inkscape-font-specification:TEMPO" font-weight="400" font-size="20" font-family="TEMPO" letter-spacing="0" word-spacing="0"/><path d="M106 10v190M11 105h190" fill="none" stroke="#000" stroke-width="2"/><path d="M11 11h190v190H11z" fill="none" stroke="#000" stroke-width="3" stroke-linecap="square" stroke-linejoin="round"/><path d="M50.349 51.809l3.3-.479q.557.742.86 2.324.02.098.049.284l.029.146q.107-.137.361-.508.86-1.23 1.416-1.699.645-.547 1.25-.547.742 0 1.104.547.195.293.195.644 0 .538-.45.88-.273.204-.575.204-.352 0-.723-.224-.312-.176-.576-.176-.479 0-1.318 1.182-.264.37-.46.703l.635 3.135q.176.908.567 1.035.078.03.166.03.44 0 1.142-.919.03-.039.088-.107.078-.118.117-.157l.42.284q-.8 1.074-1.113 1.406-.967 1.025-1.924 1.035-1.015 0-1.523-1.445-.186-.557-.4-1.66l-.48.78q-.068.108-.204.352-.625 1.036-1.035 1.426-.596.547-1.29.547-.908 0-1.22-.625-.127-.244-.127-.537 0-.664.469-.996.244-.166.537-.166.42 0 .84.254.302.185.517.185.4 0 .762-.586.03-.029.068-.107l.069-.108.879-1.416-.586-3.046q-.274-1.368-1.055-1.377-.45 0-.781.039zM64.353 58.371q1.738-3.3 1.738-3.994 0-.469-.352-.713-.049-.03-.156-.088-.371-.224-.488-.469-.127-.263-.127-.664 0-.586.517-.918.303-.195.635-.195.742 0 1.084.615.166.303.166.664-.01 1.514-1.514 4.532-1.64 3.271-3.466 5.41-1.446 1.68-2.657 2.021-.351.098-.693.098-.879 0-1.24-.576-.156-.264-.156-.586 0-.567.43-.938.273-.224.575-.224.508 0 1.045.37.43.294.645.333.088.02.166.02.459 0 1.025-.596.752-.801.83-1.807.01-.098.01-.186 0-.927-1.006-5.634-.351-1.631-.703-2.1-.322-.4-.889-.4v-.537l2.999-.479q.84 2.188 1.318 5.479l.215 1.562zM47.575 147.809l3.301-.479q.557.742.86 2.324.019.098.048.284l.03.146q.107-.137.36-.508.86-1.23 1.417-1.7.644-.546 1.25-.546.742 0 1.103.547.196.293.196.644 0 .538-.45.88-.273.204-.576.204-.351 0-.722-.224-.313-.176-.577-.176-.478 0-1.318 1.182-.264.37-.459.703l.635 3.135q.176.908.566 1.035.078.03.166.03.44 0 1.143-.919.03-.039.088-.107.078-.118.117-.157l.42.284q-.8 1.074-1.113 1.406-.967 1.025-1.924 1.035-1.016 0-1.524-1.445-.185-.557-.4-1.66l-.479.78q-.068.108-.205.352-.625 1.036-1.035 1.426-.596.547-1.289.547-.908 0-1.22-.625-.128-.244-.128-.537 0-.664.47-.996.243-.166.536-.166.42 0 .84.254.303.185.518.185.4 0 .761-.586.03-.029.069-.107l.068-.108.88-1.416-.587-3.046q-.273-1.368-1.055-1.377-.449 0-.78.039zM59.313 148.61l.323-4.298q.068-.82.693-1.22.352-.225.762-.225.635 0 .908.479.117.205.117.449-.01.332-.303 1.016l-1.66 3.798zM67.126 154.371q1.738-3.3 1.738-3.994 0-.469-.351-.713-.05-.03-.157-.088-.37-.224-.488-.469-.127-.263-.127-.664 0-.586.518-.918.303-.195.635-.195.742 0 1.084.615.166.303.166.664-.01 1.514-1.514 4.532-1.64 3.271-3.467 5.41-1.445 1.68-2.656 2.021-.352.098-.694.098-.878 0-1.24-.576-.156-.264-.156-.586 0-.567.43-.938.273-.224.576-.224.508 0 1.045.37.43.294.644.333.088.02.166.02.46 0 1.026-.596.752-.801.83-1.807.01-.098.01-.186 0-.927-1.006-5.634-.352-1.631-.703-2.1-.323-.4-.89-.4v-.537l2.999-.479q.84 2.187 1.318 5.479l.215 1.562zM140.382 147.809l3.3-.479q.557.742.86 2.324.02.098.049.284l.03.146q.107-.137.36-.508.86-1.23 1.416-1.7.645-.546 1.25-.546.743 0 1.104.547.195.293.195.644 0 .538-.449.88-.273.204-.576.204-.352 0-.723-.224-.312-.176-.576-.176-.478 0-1.318 1.182-.264.37-.46.703l.635 3.135q.176.908.567 1.035.078.03.166.03.44 0 1.142-.919.03-.039.088-.107.078-.118.118-.157l.42.284q-.801 1.074-1.114 1.406-.967 1.025-1.924 1.035-1.015 0-1.523-1.445-.186-.557-.4-1.66l-.479.78q-.068.108-.205.352-.625 1.036-1.035 1.426-.596.547-1.29.547-.907 0-1.22-.625-.127-.244-.127-.537 0-.664.469-.996.244-.166.537-.166.42 0 .84.254.303.185.517.185.4 0 .762-.586.03-.029.068-.107l.069-.108.879-1.416-.586-3.046q-.274-1.368-1.055-1.377-.45 0-.781.039zM152.12 148.61l.322-4.298q.069-.82.694-1.22.351-.225.761-.225.635 0 .909.479.117.205.117.449-.01.332-.303 1.016l-1.66 3.798zM159.933 154.371q1.738-3.3 1.738-3.994 0-.469-.352-.713-.048-.03-.156-.088-.371-.224-.488-.469-.127-.263-.127-.664 0-.586.517-.918.303-.195.635-.195.742 0 1.084.615.166.303.166.664-.01 1.514-1.513 4.532-1.641 3.271-3.467 5.41-1.446 1.68-2.657 2.021-.351.098-.693.098-.879 0-1.24-.576-.156-.264-.156-.586 0-.567.43-.938.273-.224.575-.224.508 0 1.045.37.43.294.645.333.088.02.166.02.459 0 1.025-.596.752-.801.83-1.807.01-.098.01-.186 0-.927-1.005-5.634-.352-1.631-.704-2.1-.322-.4-.888-.4v-.537l2.998-.479q.84 2.187 1.318 5.479l.215 1.562zM166.534 148.61l.322-4.298q.069-.82.694-1.22.351-.225.762-.225.634 0 .908.479.117.205.117.449-.01.332-.303 1.016l-1.66 3.798zM143.155 51.809l3.301-.479q.557.742.86 2.324.019.098.048.284l.03.146q.107-.137.36-.508.86-1.23 1.417-1.699.644-.547 1.25-.547.742 0 1.103.547.196.293.196.644 0 .538-.45.88-.273.204-.576.204-.351 0-.722-.224-.313-.176-.577-.176-.478 0-1.318 1.182-.264.37-.459.703l.635 3.135q.176.908.566 1.035.078.03.166.03.44 0 1.143-.919.03-.039.088-.107.078-.118.117-.157l.42.284q-.8 1.074-1.113 1.406-.967 1.025-1.924 1.035-1.016 0-1.524-1.445-.185-.557-.4-1.66l-.479.78q-.068.108-.205.352-.625 1.036-1.035 1.426-.595.547-1.289.547-.908 0-1.22-.625-.127-.244-.127-.537 0-.664.468-.996.244-.166.537-.166.42 0 .84.254.303.185.518.185.4 0 .762-.586.029-.029.068-.107l.068-.108.88-1.416-.587-3.046q-.273-1.368-1.054-1.377-.45 0-.782.039zM157.16 58.371q1.737-3.3 1.737-3.994 0-.469-.351-.713-.049-.03-.156-.088-.371-.224-.489-.469-.127-.263-.127-.664 0-.586.518-.918.303-.195.635-.195.742 0 1.084.615.166.303.166.664-.01 1.514-1.514 4.532-1.64 3.271-3.467 5.41-1.445 1.68-2.656 2.021-.352.098-.693.098-.88 0-1.24-.576-.157-.264-.157-.586 0-.567.43-.938.273-.224.576-.224.508 0 1.045.37.43.294.645.333.087.02.166.02.459 0 1.025-.596.752-.801.83-1.807.01-.098.01-.186 0-.927-1.006-5.634-.351-1.631-.703-2.1-.322-.4-.889-.4v-.537l2.998-.479q.84 2.188 1.319 5.479l.215 1.562zM163.76 52.61l.323-4.297q.068-.82.693-1.221.352-.225.762-.225.635 0 .908.479.117.205.117.449-.01.332-.302 1.016l-1.66 3.798z" style="line-height:1.25;-inkscape-font-specification:TEMPO" font-weight="400" font-size="20" font-family="TEMPO" letter-spacing="0" word-spacing="0"/><path d="M376 10v190M281 105h190" fill="none" stroke="#000" stroke-width="2"/><path d="M281 11h190v190H281z" fill="none" stroke="#000" stroke-width="3" stroke-linecap="square" stroke-linejoin="round"/><path d="M289.719 22.941l3.3-.478q.557.742.86 2.324.02.098.049.283l.029.147q.107-.137.361-.508.86-1.23 1.416-1.7.645-.546 1.25-.546.743 0 1.104.547.195.293.195.644 0 .537-.449.88-.273.204-.576.204-.352 0-.723-.224-.312-.176-.576-.176-.479 0-1.318 1.182-.264.37-.46.703l.635 3.134q.176.909.567 1.036.078.029.166.029.44 0 1.142-.918.03-.04.088-.108.078-.117.117-.156l.42.283q-.8 1.075-1.113 1.407-.967 1.025-1.924 1.035-1.015 0-1.523-1.445-.186-.557-.4-1.66l-.48.78q-.067.108-.204.352-.625 1.035-1.035 1.426-.596.547-1.29.547-.908 0-1.22-.625-.127-.244-.127-.537 0-.664.469-.996.244-.166.537-.166.42 0 .84.254.302.185.517.185.4 0 .762-.586.03-.03.068-.107l.069-.108.879-1.416-.586-3.047q-.274-1.367-1.055-1.377-.45 0-.781.04zM303.723 29.504q1.738-3.3 1.738-3.994 0-.469-.352-.713-.048-.03-.156-.088-.371-.225-.488-.469-.127-.263-.127-.664 0-.586.517-.918.303-.195.635-.195.742 0 1.084.615.166.303.166.664-.01 1.514-1.513 4.531-1.641 3.272-3.467 5.41-1.446 1.68-2.656 2.022-.352.098-.694.098-.879 0-1.24-.576-.156-.264-.156-.586 0-.567.43-.938.273-.224.576-.224.507 0 1.044.37.43.294.645.333.088.02.166.02.459 0 1.025-.597.752-.8.83-1.806.01-.098.01-.186 0-.927-1.005-5.634-.352-1.631-.704-2.1-.322-.4-.888-.4v-.538l2.998-.478q.84 2.187 1.318 5.478l.215 1.563zM302.922 54.092l.44.253q-.811 1.543-1.651 2.12-.713.498-1.572.498-1.328-.02-1.338-1.319 0-.83.742-3.017l.879-2.598q.137-.42.137-.615 0-.274-.293-.381-.078-.03-.166-.03-.635 0-1.68 1.475-.928 1.328-1.406 2.617-.303.82-1.172 3.692h-2.403l1.3-4.14q.898-2.852.898-3.243-.02-.39-.362-.4-.742 0-1.894 1.797-.567.888-.908 1.66-.645 1.494-1.436 4.326h-2.422l1.319-4.639q.722-2.53.722-3.017 0-.43-.654-.479-.078 0-.459-.01v-.537l3.994-.537-1.26 3.975h.02q.918-1.426 1.22-1.827 1.622-2.158 3.145-2.167 1.133 0 1.309 1.044.029.176.029.362-.01.693-.518 2.031.87-1.387 1.26-1.885 1.26-1.543 2.695-1.552 1.163 0 1.456.937.087.273.087.605 0 .743-.459 2.051l-.898 2.569q-.42 1.2-.42 1.533.02.351.313.361.341 0 .81-.664l.186-.273q.273-.41.41-.577zM307.004 48.828l.322-4.297q.069-.82.694-1.22.351-.225.761-.225.635 0 .908.478.118.205.118.45-.01.331-.303 1.015l-1.66 3.799zM289.719 159.979l3.3-.479q.557.742.86 2.325.02.097.049.283l.029.146q.107-.137.361-.508.86-1.23 1.416-1.699.645-.547 1.25-.547.743 0 1.104.547.195.293.195.645 0 .537-.449.879-.273.205-.576.205-.352 0-.723-.225-.312-.176-.576-.176-.479 0-1.318 1.182-.264.371-.46.703l.635 3.135q.176.908.567 1.035.078.03.166.03.44 0 1.142-.919.03-.039.088-.107.078-.117.117-.156l.42.283q-.8 1.074-1.113 1.406-.967 1.025-1.924 1.035-1.015 0-1.523-1.445-.186-.557-.4-1.66l-.48.781q-.067.107-.204.352-.625 1.035-1.035 1.425-.596.547-1.29.547-.908 0-1.22-.625-.127-.244-.127-.537 0-.664.469-.996.244-.166.537-.166.42 0 .84.254.302.185.517.185.4 0 .762-.585.03-.03.068-.108l.069-.107.879-1.416-.586-3.047q-.274-1.367-1.055-1.377-.45 0-.781.039zM301.457 160.78l.322-4.297q.069-.82.694-1.221.351-.225.761-.225.635 0 .909.479.117.205.117.45-.01.331-.303 1.015l-1.66 3.799zM309.27 166.541q1.738-3.3 1.738-3.994 0-.469-.352-.713-.049-.029-.156-.088-.371-.224-.488-.468-.127-.264-.127-.664 0-.586.517-.918.303-.196.635-.196.742 0 1.084.616.166.302.166.664-.01 1.513-1.514 4.53-1.64 3.272-3.466 5.411-1.446 1.68-2.657 2.021-.351.098-.693.098-.879 0-1.24-.576-.156-.264-.156-.586 0-.566.43-.938.273-.224.575-.224.508 0 1.045.371.43.293.645.332.088.02.166.02.459 0 1.025-.596.752-.801.83-1.807.01-.098.01-.185 0-.928-1.006-5.635-.351-1.631-.703-2.1-.322-.4-.888-.4v-.537l2.998-.479q.84 2.188 1.318 5.479l.215 1.562zM302.922 191.129l.44.254q-.811 1.543-1.651 2.119-.713.498-1.572.498-1.328-.02-1.338-1.318 0-.83.742-3.018l.879-2.598q.137-.42.137-.615 0-.273-.293-.38-.078-.03-.166-.03-.635 0-1.68 1.475-.928 1.328-1.406 2.617-.303.82-1.172 3.691h-2.403l1.3-4.14q.898-2.852.898-3.243-.02-.39-.362-.4-.742 0-1.894 1.797-.567.889-.908 1.66-.645 1.494-1.436 4.326h-2.422l1.319-4.638q.722-2.53.722-3.018 0-.43-.654-.479-.078 0-.459-.01v-.537l3.994-.537-1.26 3.975h.02q.918-1.426 1.22-1.826 1.622-2.159 3.145-2.168 1.133 0 1.309 1.045.029.175.029.36-.01.694-.518 2.032.87-1.387 1.26-1.885 1.26-1.543 2.695-1.552 1.163 0 1.456.937.087.274.087.606 0 .742-.459 2.05l-.898 2.569q-.42 1.201-.42 1.533.02.352.313.361.341 0 .81-.664l.186-.273q.273-.41.41-.576zM307.004 185.865l.322-4.297q.069-.82.694-1.22.351-.225.761-.225.635 0 .908.479.118.205.118.449-.01.332-.303 1.015l-1.66 3.8zM435.045 159.979l3.3-.479q.557.742.86 2.325.02.097.049.283l.03.146q.107-.137.36-.508.86-1.23 1.417-1.699.644-.547 1.25-.547.742 0 1.103.547.195.293.195.645 0 .537-.449.879-.273.205-.576.205-.352 0-.723-.225-.312-.176-.576-.176-.478 0-1.318 1.182-.264.371-.46.703l.636 3.135q.175.908.566 1.035.078.03.166.03.44 0 1.143-.919.029-.039.087-.107.079-.117.118-.156l.42.283q-.801 1.074-1.114 1.406-.967 1.025-1.924 1.035-1.015 0-1.523-1.445-.186-.557-.4-1.66l-.479.781q-.068.107-.205.352-.625 1.035-1.035 1.425-.596.547-1.29.547-.907 0-1.22-.625-.127-.244-.127-.537 0-.664.469-.996.244-.166.537-.166.42 0 .84.254.303.185.517.185.4 0 .762-.585.03-.03.069-.108.048-.078.068-.107l.879-1.416-.586-3.047q-.274-1.367-1.055-1.377-.449 0-.781.039zM446.783 160.78l.322-4.297q.069-.82.694-1.221.351-.225.762-.225.634 0 .908.479.117.205.117.45-.01.331-.303 1.015l-1.66 3.799zM454.596 166.541q1.738-3.3 1.738-3.994 0-.469-.352-.713-.048-.029-.156-.088-.37-.224-.488-.468-.127-.264-.127-.664 0-.586.518-.918.302-.196.634-.196.742 0 1.084.616.166.302.166.664-.01 1.513-1.513 4.53-1.641 3.272-3.467 5.411-1.445 1.68-2.656 2.021-.352.098-.694.098-.879 0-1.24-.576-.156-.264-.156-.586 0-.566.43-.938.273-.224.576-.224.507 0 1.045.371.43.293.644.332.088.02.166.02.459 0 1.025-.596.752-.801.83-1.807.01-.098.01-.185 0-.928-1.005-5.635-.352-1.631-.703-2.1-.323-.4-.89-.4v-.537l2.999-.479q.84 2.188 1.318 5.479l.215 1.562zM461.197 160.78l.323-4.297q.068-.82.693-1.221.351-.225.762-.225.634 0 .908.479.117.205.117.45-.01.331-.303 1.015l-1.66 3.799zM448.248 191.129l.44.254q-.811 1.543-1.65 2.119-.714.498-1.573.498-1.328-.02-1.338-1.318 0-.83.742-3.018l.879-2.598q.137-.42.137-.615 0-.273-.293-.38-.078-.03-.166-.03-.635 0-1.68 1.475-.928 1.328-1.406 2.617-.303.82-1.172 3.691h-2.402l1.298-4.14q.899-2.852.899-3.243-.02-.39-.361-.4-.743 0-1.895 1.797-.566.889-.908 1.66-.645 1.494-1.436 4.326h-2.422l1.319-4.638q.722-2.53.722-3.018 0-.43-.654-.479-.078 0-.459-.01v-.537l3.994-.537-1.26 3.975h.02q.918-1.426 1.22-1.826 1.622-2.159 3.145-2.168 1.133 0 1.309 1.045.03.175.03.36-.01.694-.518 2.032.869-1.387 1.26-1.885 1.26-1.543 2.695-1.552 1.162 0 1.455.937.088.274.088.606 0 .742-.46 2.05l-.898 2.569q-.42 1.201-.42 1.533.02.352.313.361.342 0 .81-.664l.186-.273q.273-.41.41-.576zM452.33 185.865l.322-4.297q.069-.82.694-1.22.351-.225.761-.225.635 0 .909.479.117.205.117.449-.01.332-.303 1.015l-1.66 3.8zM440.592 22.941l3.3-.478q.557.742.86 2.324.02.098.049.283l.03.147q.106-.137.36-.508.86-1.23 1.416-1.7.645-.546 1.25-.546.743 0 1.104.547.195.293.195.644 0 .537-.449.88-.273.204-.576.204-.352 0-.723-.224-.312-.176-.576-.176-.479 0-1.318 1.182-.264.37-.46.703l.635 3.134q.176.909.567 1.036.078.029.166.029.44 0 1.142-.918.03-.04.088-.108.078-.117.118-.156l.42.283q-.801 1.075-1.114 1.407-.967 1.025-1.924 1.035-1.015 0-1.523-1.445-.186-.557-.4-1.66l-.479.78q-.068.108-.205.352-.625 1.035-1.035 1.426-.596.547-1.29.547-.908 0-1.22-.625-.127-.244-.127-.537 0-.664.469-.996.244-.166.537-.166.42 0 .84.254.302.185.517.185.4 0 .762-.586.03-.03.068-.107l.069-.108.879-1.416-.586-3.047q-.274-1.367-1.055-1.377-.45 0-.781.04zM454.596 29.504q1.738-3.3 1.738-3.994 0-.469-.352-.713-.048-.03-.156-.088-.37-.225-.488-.469-.127-.263-.127-.664 0-.586.518-.918.302-.195.634-.195.742 0 1.084.615.166.303.166.664-.01 1.514-1.513 4.531-1.641 3.272-3.467 5.41-1.445 1.68-2.656 2.022-.352.098-.694.098-.879 0-1.24-.576-.156-.264-.156-.586 0-.567.43-.938.273-.224.576-.224.507 0 1.045.37.43.294.644.333.088.02.166.02.459 0 1.025-.597.752-.8.83-1.806.01-.098.01-.186 0-.927-1.005-5.634-.352-1.631-.703-2.1-.323-.4-.89-.4v-.538l2.999-.478q.84 2.187 1.318 5.478l.215 1.563zM461.197 23.742l.323-4.297q.068-.82.693-1.22.351-.225.762-.225.634 0 .908.479.117.205.117.449-.01.332-.303 1.015l-1.66 3.8zM453.795 54.092l.44.253q-.811 1.543-1.651 2.12-.713.498-1.572.498-1.328-.02-1.338-1.319 0-.83.742-3.017l.879-2.598q.137-.42.137-.615 0-.274-.293-.381-.078-.03-.166-.03-.635 0-1.68 1.475-.928 1.328-1.406 2.617-.303.82-1.172 3.692h-2.403l1.3-4.14q.898-2.852.898-3.243-.02-.39-.362-.4-.742 0-1.894 1.797-.567.888-.908 1.66-.645 1.494-1.436 4.326h-2.422l1.319-4.639q.722-2.53.722-3.017 0-.43-.654-.479-.078 0-.459-.01v-.537l3.994-.537-1.26 3.975h.02q.918-1.426 1.22-1.827 1.622-2.158 3.145-2.167 1.133 0 1.309 1.044.029.176.029.362-.01.693-.518 2.031.87-1.387 1.26-1.885 1.26-1.543 2.696-1.552 1.162 0 1.455.937.087.273.087.605 0 .743-.459 2.051l-.898 2.569q-.42 1.2-.42 1.533.02.351.313.361.341 0 .81-.664l.186-.273q.273-.41.41-.577zM457.877 48.828l.322-4.297q.069-.82.694-1.22.351-.225.761-.225.635 0 .909.478.117.205.117.45-.01.331-.303 1.015l-1.66 3.799z" style="line-height:1.25;-inkscape-font-specification:TEMPO" font-weight="400" font-size="20" font-family="TEMPO" letter-spacing="0" word-spacing="0"/><path d="M329 59h94v94h-94z" fill="none" stroke="#000" stroke-width="2" stroke-linecap="square" stroke-linejoin="round"/><path d="M344.599 65.479l3.3-.479q.557.742.86 2.324.02.098.049.284l.029.146q.107-.137.361-.508.86-1.23 1.416-1.699.645-.547 1.25-.547.742 0 1.104.547.195.293.195.645 0 .537-.45.878-.273.206-.575.206-.352 0-.723-.225-.312-.176-.576-.176-.479 0-1.319 1.182-.263.37-.458.703l.634 3.135q.176.908.567 1.035.078.03.166.03.44 0 1.142-.919.03-.039.088-.107.078-.117.117-.157l.42.284q-.8 1.074-1.113 1.406-.967 1.025-1.924 1.035-1.015 0-1.523-1.445-.186-.557-.4-1.66l-.48.78q-.068.108-.204.352-.625 1.036-1.035 1.426-.596.547-1.29.547-.908 0-1.22-.625-.127-.244-.127-.537 0-.664.469-.996.244-.166.537-.166.42 0 .84.254.302.185.517.185.4 0 .762-.586.03-.029.068-.107l.069-.107.879-1.416-.586-3.047q-.274-1.368-1.055-1.377-.45 0-.781.039zM358.603 72.041q1.738-3.3 1.738-3.994 0-.469-.352-.713-.049-.03-.156-.088-.371-.224-.488-.469-.127-.263-.127-.664 0-.586.517-.918.303-.195.635-.195.742 0 1.084.615.166.303.166.664-.01 1.514-1.514 4.532-1.64 3.271-3.466 5.41-1.446 1.68-2.657 2.021-.351.098-.693.098-.879 0-1.24-.576-.156-.264-.156-.586 0-.567.43-.938.273-.224.575-.224.508 0 1.045.37.43.294.645.333.088.02.166.02.459 0 1.025-.596.752-.801.83-1.807.01-.098.01-.185 0-.928-1.006-5.635-.351-1.631-.703-2.1-.322-.4-.888-.4v-.537L357.02 65q.84 2.188 1.318 5.479l.215 1.562zM357.802 96.629l.44.254q-.811 1.543-1.651 2.119-.713.498-1.572.498-1.329-.02-1.338-1.318 0-.83.742-3.018l.879-2.598q.136-.42.136-.615 0-.273-.292-.38-.079-.03-.167-.03-.634 0-1.68 1.474-.927 1.329-1.405 2.618-.303.82-1.172 3.691h-2.403l1.3-4.14q.898-2.852.898-3.243-.02-.39-.362-.4-.742 0-1.894 1.797-.567.888-.908 1.66-.645 1.494-1.436 4.326h-2.422l1.318-4.639q.723-2.529.723-3.017 0-.43-.654-.479-.078 0-.46-.01v-.537l3.995-.537-1.26 3.975h.02q.918-1.426 1.22-1.826 1.622-2.158 3.145-2.168 1.133 0 1.309 1.045.029.175.029.361-.01.693-.518 2.031.87-1.386 1.26-1.884 1.26-1.543 2.695-1.553 1.162 0 1.455.937.088.274.088.606 0 .742-.459 2.05l-.898 2.569q-.42 1.201-.42 1.533.02.352.312.361.342 0 .811-.664l.186-.273q.273-.41.41-.576zM341.825 115.21l3.301-.478q.557.742.86 2.324.019.098.048.283l.03.146q.107-.136.36-.507.86-1.23 1.417-1.7.644-.546 1.25-.546.742 0 1.103.546.196.293.196.645 0 .537-.45.879-.273.205-.576.205-.351 0-.722-.225-.313-.175-.577-.175-.478 0-1.318 1.181-.264.371-.459.703l.635 3.135q.176.908.566 1.035.078.03.166.03.44 0 1.143-.918.03-.04.088-.108.078-.117.117-.156l.42.283q-.8 1.074-1.113 1.406-.967 1.026-1.924 1.036-1.016 0-1.524-1.446-.185-.556-.4-1.66l-.479.781q-.068.108-.205.352-.625 1.035-1.035 1.426-.596.547-1.289.547-.908 0-1.22-.625-.128-.245-.128-.538 0-.664.47-.996.243-.166.536-.166.42 0 .84.254.303.186.518.186.4 0 .761-.586.03-.03.069-.108l.068-.107.88-1.416-.587-3.047q-.273-1.367-1.054-1.377-.45 0-.782.04zM353.563 116.01l.323-4.296q.068-.82.693-1.22.352-.225.762-.225.635 0 .908.478.117.205.117.45-.01.331-.303 1.015l-1.66 3.799zM361.376 121.773q1.738-3.301 1.738-3.995 0-.468-.351-.712-.05-.03-.157-.088-.37-.225-.488-.47-.127-.263-.127-.663 0-.586.518-.918.303-.195.635-.195.742 0 1.084.615.166.303.166.664-.01 1.514-1.514 4.531-1.64 3.272-3.467 5.41-1.445 1.68-2.656 2.022-.352.097-.694.097-.878 0-1.24-.576-.156-.263-.156-.586 0-.566.43-.937.273-.225.576-.225.508 0 1.045.371.43.293.644.332.088.02.166.02.46 0 1.026-.596.752-.8.83-1.807.01-.097.01-.185 0-.928-1.006-5.635-.352-1.63-.703-2.1-.322-.4-.889-.4v-.537l2.998-.479q.84 2.188 1.319 5.479l.214 1.563zM355.028 146.36l.44.254q-.81 1.543-1.65 2.12-.714.497-1.573.497-1.328-.02-1.338-1.318 0-.83.742-3.018l.88-2.597q.136-.42.136-.616 0-.273-.293-.38-.078-.03-.166-.03-.635 0-1.68 1.475-.927 1.328-1.406 2.617-.303.82-1.172 3.692h-2.402l1.299-4.141q.898-2.852.898-3.242-.02-.39-.361-.4-.742 0-1.895 1.796-.566.889-.908 1.66-.644 1.494-1.435 4.327h-2.422l1.318-4.64q.723-2.528.723-3.017 0-.43-.655-.478-.078 0-.459-.01v-.537l3.995-.537-1.26 3.974h.02q.917-1.426 1.22-1.826 1.621-2.158 3.145-2.168 1.132 0 1.308 1.045.03.176.03.361-.01.694-.518 2.031.869-1.386 1.26-1.884 1.26-1.543 2.695-1.553 1.162 0 1.455.937.088.274.088.606 0 .742-.46 2.05l-.898 2.57q-.42 1.2-.42 1.532.02.352.313.362.342 0 .81-.664l.186-.274q.274-.41.41-.576zM386.132 115.21l3.3-.478q.557.742.86 2.324.02.098.049.283l.03.146q.107-.136.36-.507.86-1.23 1.416-1.7.645-.546 1.25-.546.743 0 1.104.546.195.293.195.645 0 .537-.449.879-.273.205-.576.205-.352 0-.723-.225-.312-.175-.576-.175-.478 0-1.318 1.181-.264.371-.46.703l.635 3.135q.176.908.567 1.035.078.03.166.03.44 0 1.142-.918.03-.04.088-.108.078-.117.118-.156l.42.283q-.801 1.074-1.114 1.406-.967 1.026-1.924 1.036-1.015 0-1.523-1.446-.186-.556-.4-1.66l-.479.781q-.068.108-.205.352-.625 1.035-1.035 1.426-.596.547-1.29.547-.907 0-1.22-.625-.127-.245-.127-.538 0-.664.469-.996.244-.166.537-.166.42 0 .84.254.302.186.517.186.4 0 .762-.586.03-.03.068-.108l.069-.107.879-1.416-.586-3.047q-.274-1.367-1.055-1.377-.45 0-.781.04zM397.87 116.01l.322-4.296q.069-.82.694-1.22.351-.225.761-.225.635 0 .909.478.117.205.117.45-.01.331-.303 1.015l-1.66 3.799zM405.683 121.773q1.738-3.301 1.738-3.995 0-.468-.352-.712-.048-.03-.156-.088-.371-.225-.488-.47-.127-.263-.127-.663 0-.586.517-.918.303-.195.635-.195.742 0 1.084.615.166.303.166.664-.01 1.514-1.513 4.531-1.641 3.272-3.467 5.41-1.446 1.68-2.657 2.022-.351.097-.693.097-.879 0-1.24-.576-.156-.263-.156-.586 0-.566.43-.937.273-.225.575-.225.508 0 1.045.371.43.293.645.332.088.02.166.02.459 0 1.025-.596.752-.8.83-1.807.01-.097.01-.185 0-.928-1.005-5.635-.352-1.63-.704-2.1-.322-.4-.888-.4v-.537l2.998-.479q.84 2.188 1.318 5.479l.215 1.563zM412.284 116.01l.322-4.296q.069-.82.694-1.22.351-.225.762-.225.634 0 .908.478.117.205.117.45-.01.331-.303 1.015l-1.66 3.799zM399.335 146.36l.44.254q-.811 1.543-1.651 2.12-.713.497-1.572.497-1.328-.02-1.338-1.318 0-.83.742-3.018l.879-2.597q.137-.42.137-.616 0-.273-.293-.38-.078-.03-.166-.03-.635 0-1.68 1.475-.928 1.328-1.406 2.617-.303.82-1.172 3.692h-2.402l1.298-4.141q.899-2.852.899-3.242-.02-.39-.362-.4-.742 0-1.894 1.796-.566.889-.908 1.66-.645 1.494-1.436 4.327h-2.422l1.319-4.64q.722-2.528.722-3.017 0-.43-.654-.478-.078 0-.459-.01v-.537l3.994-.537-1.26 3.974h.02q.918-1.426 1.22-1.826 1.622-2.158 3.145-2.168 1.133 0 1.309 1.045.03.176.03.361-.01.694-.519 2.031.87-1.386 1.26-1.884 1.26-1.543 2.696-1.553 1.162 0 1.455.937.088.274.088.606 0 .742-.46 2.05l-.898 2.57q-.42 1.2-.42 1.532.02.352.313.362.341 0 .81-.664l.186-.274q.273-.41.41-.576z" style="line-height:1.25;-inkscape-font-specification:TEMPO" font-weight="400" font-size="20" font-family="TEMPO" letter-spacing="0" word-spacing="0"/></svg>