<?xml version="1.0" encoding="UTF-8" standalone="no"?>
<!-- Created with Inkscape (http://www.inkscape.org/) -->

<svg
   xmlns:dc="http://purl.org/dc/elements/1.1/"
   xmlns:cc="http://creativecommons.org/ns#"
   xmlns:rdf="http://www.w3.org/1999/02/22-rdf-syntax-ns#"
   xmlns:svg="http://www.w3.org/2000/svg"
   xmlns="http://www.w3.org/2000/svg"
   xmlns:sodipodi="http://sodipodi.sourceforge.net/DTD/sodipodi-0.dtd"
   xmlns:inkscape="http://www.inkscape.org/namespaces/inkscape"
   width="320"
   height="468"
   id="svg2"
   version="1.1"
   inkscape:version="0.48.0 r9654"
   inkscape:export-filename="C:\Users\mandus\Documents\mandus\lab_roja\UNADM\Descartes\UNIDADES\_Un_091_Encargo_EcuacionDeOnda1D\_Un_091_EcuacionDeOnda1D\escenas\explicacion\Explicacion_A_4.png"
   inkscape:export-xdpi="90"
   inkscape:export-ydpi="90"
   sodipodi:docname="template_320x468.svg">
  <defs
     id="defs4" />
  <sodipodi:namedview
     id="base"
     pagecolor="#ffffff"
     bordercolor="#666666"
     borderopacity="1.0"
     inkscape:pageopacity="0.0"
     inkscape:pageshadow="2"
     inkscape:zoom="1.4"
     inkscape:cx="232.2053"
     inkscape:cy="331.92205"
     inkscape:document-units="px"
     inkscape:current-layer="layer2"
     showgrid="false"
     inkscape:snap-bbox="true"
     inkscape:bbox-paths="true"
     inkscape:bbox-nodes="true"
     inkscape:snap-bbox-edge-midpoints="true"
     inkscape:snap-bbox-midpoints="true"
     inkscape:object-paths="true"
     inkscape:snap-intersection-paths="true"
     inkscape:object-nodes="true"
     inkscape:snap-smooth-nodes="true"
     inkscape:snap-midpoints="true"
     inkscape:snap-object-midpoints="true"
     inkscape:snap-center="true"
     inkscape:snap-page="true"
     inkscape:snap-global="true"
     inkscape:window-width="1366"
     inkscape:window-height="705"
     inkscape:window-x="-8"
     inkscape:window-y="-8"
     inkscape:window-maximized="1"
     borderlayer="true" />
  <metadata
     id="metadata7">
    <rdf:RDF>
      <cc:Work
         rdf:about="">
        <dc:format>image/svg+xml</dc:format>
        <dc:type
           rdf:resource="http://purl.org/dc/dcmitype/StillImage" />
        <dc:title></dc:title>
      </cc:Work>
    </rdf:RDF>
  </metadata>
  <g
     inkscape:label="Capa 1"
     inkscape:groupmode="layer"
     id="layer1"
     transform="translate(0,-584.36212)"
     style="display:inline" />
  <g
     inkscape:groupmode="layer"
     id="layer2"
     inkscape:label="Capa"
     transform="translate(0,-584.35999)">
    <path
       inkscape:connector-curvature="0"
       id="rect3054"
       d="m 0.57822463,584.93821 319.42177537,0 0,467.42179 -319.42177537,0 z"
       style="fill:#0088aa;fill-opacity:1;stroke:#000000;stroke-width:0.68769199;stroke-opacity:1;display:inline" />
    <g
       id="flowRoot3057"
       style="font-size:40px;font-style:normal;font-weight:normal;line-height:125%;letter-spacing:0px;word-spacing:0px;fill:#000000;fill-opacity:1;stroke:none;font-family:Sans"
       transform="matrix(1.2832413,0,0,1.2832413,-11.400815,573.35722)">
      <path
         inkscape:connector-curvature="0"
         id="path3525"
         style="font-size:22px"
         d="m 53.177734,56.445116 0,-15.748046 11.386719,0 0,1.858398 -9.302734,0 0,4.823242 8.711914,0 0,1.847656 -8.711914,0 0,5.360352 9.667968,0 0,1.858398 z" />
      <path
         inkscape:connector-curvature="0"
         id="path3527"
         style="font-size:22px"
         d="m 66.293945,56.445116 4.167969,-5.929687 -3.856445,-5.478516 2.416992,0 1.750976,2.674805 c 0.329423,0.508472 0.594396,0.934578 0.794922,1.27832 0.315099,-0.472648 0.605138,-0.891593 0.870118,-1.256836 l 1.922851,-2.696289 2.30957,0 -3.942382,5.371094 4.243164,6.037109 -2.374024,0 -2.341797,-3.544921 -0.623047,-0.956055 -2.99707,4.500976 z" />
      <path
         inkscape:connector-curvature="0"
         id="path3529"
         style="font-size:22px"
         d="m 78.583008,60.817187 0,-15.780274 1.761719,0 0,1.482422 c 0.415361,-0.580067 0.884436,-1.015126 1.407226,-1.305176 0.522781,-0.290027 1.15657,-0.435046 1.901367,-0.435058 0.973951,1.2e-5 1.833325,0.250662 2.578125,0.751953 0.744782,0.501312 1.306956,1.208506 1.686524,2.121582 0.379546,0.913094 0.569324,1.913907 0.569336,3.002441 -1.2e-5,1.167323 -0.209484,2.218266 -0.628418,3.152832 -0.418956,0.934572 -1.027679,1.650718 -1.826172,2.148438 -0.798511,0.497721 -1.638191,0.746582 -2.519043,0.746582 -0.644537,0 -1.222824,-0.136068 -1.734863,-0.408203 -0.512049,-0.272135 -0.932784,-0.615885 -1.262207,-1.03125 l 0,5.553711 z m 1.750976,-10.011719 c -3e-6,1.468103 0.297197,2.553063 0.891602,3.254883 0.594396,0.701824 1.314122,1.052736 2.15918,1.052734 0.859368,2e-6 1.595207,-0.363442 2.207519,-1.090332 0.612296,-0.726885 0.918448,-1.853023 0.918457,-3.378418 -9e-6,-1.453769 -0.299,-2.542309 -0.896972,-3.265625 -0.59799,-0.723297 -1.312345,-1.084951 -2.143067,-1.084961 -0.823573,1e-5 -1.552251,0.384938 -2.186035,1.154785 -0.633793,0.769865 -0.950687,1.888842 -0.950684,3.356934 z" />
      <path
         inkscape:connector-curvature="0"
         id="path3531"
         style="font-size:22px"
         d="m 90.786133,56.445116 0,-15.748046 1.933594,0 0,15.748046 z" />
      <path
         inkscape:connector-curvature="0"
         id="path3533"
         style="font-size:22px"
         d="m 95.738281,42.920702 0,-2.223632 1.933594,0 0,2.223632 z m 0,13.524414 0,-11.408203 1.933594,0 0,11.408203 z" />
      <path
         inkscape:connector-curvature="0"
         id="path3535"
         style="font-size:22px"
         d="m 108.07031,52.266406 1.90137,0.24707 c -0.20769,1.310549 -0.73943,2.336427 -1.59522,3.077637 -0.8558,0.741211 -1.90674,1.111816 -3.15283,1.111816 -1.5612,0 -2.81624,-0.510254 -3.76513,-1.530762 -0.9489,-1.020505 -1.42334,-2.483232 -1.42334,-4.388183 0,-1.231764 0.2041,-2.309563 0.6123,-3.233399 0.4082,-0.923818 1.02946,-1.616688 1.86377,-2.078613 0.83431,-0.461903 1.74202,-0.692859 2.72315,-0.692871 1.23892,1.2e-5 2.25227,0.313325 3.04003,0.939941 0.78775,0.626638 1.29264,1.516448 1.51465,2.669434 l -1.87988,0.290039 c -0.17905,-0.766268 -0.49594,-1.342764 -0.95068,-1.729492 -0.45476,-0.386709 -1.00441,-0.580068 -1.64893,-0.580078 -0.97396,1e-5 -1.7653,0.34913 -2.37402,1.047363 -0.60873,0.69825 -0.91309,1.802904 -0.91309,3.313965 0,1.532556 0.29362,2.646162 0.88086,3.34082 0.58724,0.694663 1.35351,1.041994 2.29883,1.041992 0.75911,2e-6 1.39289,-0.232746 1.90137,-0.698242 0.50845,-0.465492 0.83072,-1.181637 0.96679,-2.148437 z" />
      <path
         inkscape:connector-curvature="0"
         id="path3537"
         style="font-size:22px"
         d="m 119.07031,55.03789 c -0.71615,0.608725 -1.40544,1.038412 -2.06787,1.289062 -0.66244,0.250651 -1.37321,0.375977 -2.13232,0.375977 -1.25326,0 -2.21648,-0.306152 -2.88965,-0.918457 -0.67318,-0.612303 -1.00977,-1.394692 -1.00977,-2.347168 0,-0.55859 0.12712,-1.068844 0.38135,-1.530762 0.25423,-0.461909 0.58724,-0.832514 0.99902,-1.111816 0.41179,-0.279291 0.87549,-0.490554 1.39112,-0.633789 0.37955,-0.100254 0.95247,-0.196934 1.71875,-0.290039 1.56119,-0.186191 2.7106,-0.408196 3.44824,-0.666016 0.007,-0.264966 0.0107,-0.43326 0.0107,-0.504883 -1e-5,-0.787752 -0.18262,-1.342764 -0.54785,-1.665039 -0.49415,-0.436839 -1.2282,-0.655263 -2.20215,-0.655273 -0.90951,1e-5 -1.58089,0.159352 -2.01416,0.478027 -0.43327,0.318694 -0.75374,0.882659 -0.96142,1.691895 l -1.89063,-0.257813 c 0.17187,-0.809236 0.45475,-1.462718 0.84863,-1.960449 0.39388,-0.497711 0.96322,-0.880848 1.70801,-1.149414 0.74479,-0.268543 1.60774,-0.40282 2.58887,-0.402832 0.97395,1.2e-5 1.76529,0.114595 2.37402,0.34375 0.60872,0.229178 1.05631,0.517426 1.34278,0.864746 0.28644,0.347341 0.48696,0.78598 0.60156,1.315918 0.0644,0.329436 0.0967,0.923836 0.0967,1.783203 l 0,2.578125 c -10e-6,1.797529 0.0412,2.934409 0.12353,3.410645 0.0823,0.476237 0.24527,0.93278 0.48877,1.369628 l -2.01953,0 C 119.2565,56.044075 119.1276,55.575 119.07031,55.03789 z m -0.16113,-4.318359 c -0.70183,0.286463 -1.75456,0.529953 -3.1582,0.730468 -0.79493,0.114589 -1.3571,0.243495 -1.68653,0.386719 -0.32943,0.143234 -0.58366,0.352706 -0.76269,0.628418 -0.17904,0.27572 -0.26856,0.581872 -0.26856,0.918457 0,0.515628 0.19515,0.945315 0.58545,1.289063 0.3903,0.343751 0.96142,0.515626 1.71338,0.515625 0.74479,10e-7 1.40722,-0.162922 1.98731,-0.48877 0.58007,-0.325844 1.00617,-0.771645 1.27832,-1.337402 0.20767,-0.436846 0.31151,-1.081376 0.31152,-1.933594 z" />
      <path
         inkscape:connector-curvature="0"
         id="path3539"
         style="font-size:22px"
         d="m 131.31641,52.266406 1.90136,0.24707 c -0.20769,1.310549 -0.73943,2.336427 -1.59521,3.077637 -0.8558,0.741211 -1.90675,1.111816 -3.15283,1.111816 -1.56121,0 -2.81625,-0.510254 -3.76514,-1.530762 -0.94889,-1.020505 -1.42334,-2.483232 -1.42334,-4.388183 0,-1.231764 0.2041,-2.309563 0.6123,-3.233399 0.40821,-0.923818 1.02946,-1.616688 1.86377,-2.078613 0.83431,-0.461903 1.74202,-0.692859 2.72315,-0.692871 1.23892,1.2e-5 2.25227,0.313325 3.04004,0.939941 0.78775,0.626638 1.29263,1.516448 1.51465,2.669434 l -1.87989,0.290039 c -0.17904,-0.766268 -0.49594,-1.342764 -0.95068,-1.729492 -0.45476,-0.386709 -1.0044,-0.580068 -1.64893,-0.580078 -0.97396,1e-5 -1.7653,0.34913 -2.37402,1.047363 -0.60873,0.69825 -0.91309,1.802904 -0.91309,3.313965 0,1.532556 0.29362,2.646162 0.88086,3.34082 0.58724,0.694663 1.35351,1.041994 2.29883,1.041992 0.75911,2e-6 1.3929,-0.232746 1.90137,-0.698242 0.50845,-0.465492 0.83072,-1.181637 0.9668,-2.148437 z" />
      <path
         inkscape:connector-curvature="0"
         id="path3541"
         style="font-size:22px"
         d="m 134.88281,42.920702 0,-2.223632 1.9336,0 0,2.223632 z m 0,13.524414 0,-11.408203 1.9336,0 0,11.408203 z" />
      <path
         inkscape:connector-curvature="0"
         id="path3543"
         style="font-size:22px"
         d="m 139.05078,50.741015 c 0,-2.112622 0.58724,-3.6774 1.76172,-4.694336 0.98112,-0.845041 2.17708,-1.267566 3.58789,-1.267578 1.56835,1.2e-5 2.85025,0.513846 3.8457,1.541504 0.99544,1.027678 1.49316,2.447436 1.49317,4.259277 -1e-5,1.468103 -0.22023,2.622887 -0.66065,3.464356 -0.44044,0.841472 -1.08139,1.494955 -1.92285,1.960449 -0.84148,0.465495 -1.75993,0.698242 -2.75537,0.698242 -1.59701,0 -2.88786,-0.512044 -3.87256,-1.536133 -0.9847,-1.024086 -1.47705,-2.499345 -1.47705,-4.425781 z m 1.98731,0 c -1e-5,1.460942 0.31868,2.554853 0.95605,3.281738 0.63737,0.72689 1.43945,1.090334 2.40625,1.090332 0.95963,2e-6 1.75813,-0.365232 2.39551,-1.095703 0.63736,-0.730465 0.95604,-1.844071 0.95605,-3.34082 -1e-5,-1.4108 -0.32048,-2.479647 -0.96142,-3.206543 -0.64096,-0.726878 -1.43767,-1.090322 -2.39014,-1.090332 -0.9668,1e-5 -1.76888,0.361663 -2.40625,1.084961 -0.63737,0.723315 -0.95606,1.815437 -0.95605,3.276367 z m 2.28808,-7.12207 1.42871,-3.007813 2.53516,0 -2.36328,3.007813 z" />
      <path
         inkscape:connector-curvature="0"
         id="path3545"
         style="font-size:22px"
         d="m 152.0166,56.445116 0,-11.408203 1.74024,0 0,1.622071 c 0.83788,-1.253244 2.04817,-1.879871 3.63086,-1.879883 0.68749,1.2e-5 1.31949,0.123547 1.89599,0.370605 0.57649,0.247082 1.00797,0.571137 1.29443,0.972168 0.28645,0.401052 0.48697,0.877288 0.60157,1.428711 0.0716,0.358082 0.10741,0.984709 0.10742,1.879883 l 0,7.014648 -1.93359,0 0,-6.939453 c -1e-5,-0.787752 -0.0752,-1.376782 -0.22559,-1.767089 -0.1504,-0.390291 -0.41716,-0.701814 -0.80029,-0.934571 -0.38315,-0.232737 -0.83253,-0.349111 -1.34815,-0.349121 -0.82357,1e-5 -1.53435,0.261403 -2.13232,0.78418 -0.59799,0.522795 -0.89698,1.514656 -0.89697,2.975586 l 0,6.230468 z" />
      <path
         inkscape:connector-curvature="0"
         id="path3547"
         style="font-size:22px"
         d="m 168.88184,56.445116 6.04785,-15.748046 2.24511,0 6.44532,15.748046 -2.37403,0 -1.83691,-4.769531 -6.58496,0 -1.72949,4.769531 z m 4.54394,-6.466796 5.33887,0 -1.64356,-4.361329 c -0.50131,-1.324857 -0.8737,-2.413398 -1.11718,-3.265625 -0.20053,1.009779 -0.48341,2.012382 -0.84864,3.007813 z" />
      <path
         inkscape:connector-curvature="0"
         id="path3549"
         style="font-size:22px"
         d="m 184.30762,51.718554 0,-1.944336 5.94043,0 0,1.944336 z" />
      <path
         inkscape:connector-curvature="0"
         id="path3551"
         style="font-size:22px"
         d="m 191.88086,52.28789 1.93359,-0.257813 c 0.22201,1.095707 0.59977,1.885257 1.1333,2.368653 0.53353,0.4834 1.18343,0.725099 1.94971,0.725097 0.9095,2e-6 1.67756,-0.315102 2.3042,-0.945312 0.62662,-0.630206 0.93993,-1.410804 0.93994,-2.341797 -1e-5,-0.888015 -0.29005,-1.620274 -0.87012,-2.196777 -0.58008,-0.57649 -1.31771,-0.864739 -2.21289,-0.864746 -0.36524,7e-6 -0.81999,0.07162 -1.36425,0.214843 l 0.21484,-1.697265 c 0.1289,0.01433 0.23274,0.02149 0.31152,0.02148 0.82356,9e-6 1.56477,-0.214834 2.22364,-0.644531 0.65884,-0.429677 0.98827,-1.092112 0.98828,-1.987305 -10e-6,-0.708972 -0.23992,-1.296211 -0.71973,-1.761719 -0.47982,-0.46548 -1.09929,-0.698228 -1.8584,-0.698242 -0.75196,1.4e-5 -1.37858,0.236342 -1.87988,0.708985 -0.50131,0.472669 -0.82357,1.181653 -0.9668,2.126953 l -1.93359,-0.34375 c 0.23633,-1.296211 0.77343,-2.300605 1.61133,-3.013184 0.83788,-0.71255 1.87988,-1.068832 3.12597,-1.068848 0.85937,1.6e-5 1.65071,0.184424 2.37403,0.553223 0.7233,0.36883 1.27652,0.871922 1.65966,1.509277 0.38313,0.637383 0.5747,1.314141 0.57471,2.030274 -1e-5,0.68035 -0.18263,1.299815 -0.54785,1.858398 -0.36524,0.558603 -0.90593,1.002613 -1.62207,1.332032 0.93098,0.214852 1.65429,0.660652 2.16992,1.337402 0.51562,0.676764 0.77343,1.523606 0.77344,2.540527 -1e-5,1.375004 -0.50131,2.54053 -1.50391,3.496582 -1.00261,0.956055 -2.27019,1.434082 -3.80273,1.434082 -1.38217,0 -2.52979,-0.411783 -3.44287,-1.235351 -0.91309,-0.823566 -1.43409,-1.890622 -1.56299,-3.201172 z" />
    </g>
    <path
       inkscape:connector-curvature="0"
       id="rect3065"
       d="m 32.64286,675.79136 235.71428,0 0,334.28574 -235.71428,0 z"
       style="fill:#c8b7b7;fill-opacity:1;stroke:#000000;stroke-opacity:1" />
    <g
       id="flowRoot3057-5"
       style="font-size:15.58553314px;font-style:normal;font-weight:normal;line-height:125%;letter-spacing:0px;word-spacing:0px;fill:#000000;fill-opacity:1;stroke:none;font-family:Sans"
       transform="matrix(1.2832413,0,0,1.2832413,33.770621,676.14148)">
      <path
         inkscape:connector-curvature="0"
         id="path3555"
         d="m 52.091971,48.14024 1.369822,-0.182643 c 0.157274,0.776235 0.424896,1.335579 0.802868,1.678033 0.377966,0.342456 0.838378,0.513684 1.381237,0.513683 0.644319,10e-7 1.188443,-0.223229 1.632372,-0.669691 0.443917,-0.446458 0.665879,-0.99946 0.665886,-1.659007 -7e-6,-0.6291 -0.20548,-1.147856 -0.61642,-1.55627 -0.410952,-0.408405 -0.933514,-0.61261 -1.567686,-0.612615 -0.258748,5e-6 -0.58091,0.05074 -0.966485,0.152202 l 0.152202,-1.202399 c 0.09132,0.01015 0.164882,0.01523 0.220694,0.01522 0.583438,7e-6 1.108536,-0.152196 1.575295,-0.456607 0.466749,-0.304398 0.700126,-0.773689 0.700132,-1.407873 -6e-6,-0.50226 -0.169966,-0.918279 -0.509879,-1.248061 -0.339924,-0.329762 -0.778774,-0.494647 -1.316551,-0.494658 -0.532712,1.1e-5 -0.976636,0.167433 -1.331772,0.502269 -0.355141,0.334854 -0.583445,0.837122 -0.684911,1.506804 l -1.369822,-0.243524 c 0.167422,-0.918279 0.547927,-1.629825 1.141518,-2.13464 0.593588,-0.504793 1.331769,-0.757196 2.214546,-0.757207 0.608805,1.1e-5 1.169417,0.130652 1.681838,0.391922 0.512408,0.261291 0.904329,0.617698 1.175764,1.069222 0.27142,0.451543 0.407134,0.93098 0.407141,1.438313 -7e-6,0.481983 -0.129379,0.920833 -0.388116,1.316552 -0.258751,0.395733 -0.641793,0.710284 -1.149129,0.943655 0.659538,0.152208 1.171952,0.468028 1.537245,0.94746 0.365279,0.479443 0.547921,1.079374 0.547929,1.799795 -8e-6,0.974098 -0.355146,1.799795 -1.065417,2.477095 -0.710284,0.677301 -1.608278,1.015951 -2.693984,1.015951 -0.979172,0 -1.792186,-0.291721 -2.439044,-0.875164 -0.646862,-0.583441 -1.015953,-1.33938 -1.107273,-2.267817 z" />
      <path
         inkscape:connector-curvature="0"
         id="path3557"
         d="m 67.959078,49.768807 0,1.316551 -7.374209,0 c -0.01015,-0.329772 0.04312,-0.64686 0.159812,-0.951265 0.187716,-0.502267 0.488315,-0.996925 0.9018,-1.483974 0.413481,-0.487045 1.010875,-1.050194 1.792184,-1.689448 1.212542,-0.994384 2.031898,-1.782031 2.45807,-2.362943 0.426161,-0.580899 0.639244,-1.130096 0.63925,-1.647592 -6e-6,-0.542847 -0.194064,-1.000722 -0.582174,-1.373627 -0.388122,-0.372887 -0.894195,-0.559334 -1.51822,-0.559344 -0.659548,1e-5 -1.187182,0.197873 -1.582906,0.593589 -0.395728,0.395736 -0.596128,0.943664 -0.601199,1.643787 l -1.407873,-0.144592 c 0.09639,-1.050188 0.459143,-1.850519 1.088247,-2.400994 0.629102,-0.550455 1.473824,-0.825688 2.534172,-0.825699 1.070485,1.1e-5 1.917745,0.296806 2.541781,0.890385 0.624023,0.593599 0.936037,1.329244 0.936045,2.206935 -8e-6,0.446469 -0.09133,0.885319 -0.273964,1.316552 -0.182651,0.431247 -0.485787,0.885317 -0.90941,1.362212 -0.423637,0.476906 -1.127572,1.131376 -2.111809,1.963412 -0.821897,0.689987 -1.349532,1.158009 -1.582906,1.404068 -0.23338,0.246062 -0.42617,0.493391 -0.57837,0.741987 z" />
      <path
         inkscape:connector-curvature="0"
         id="path3559"
         d="m 69.435442,45.583239 c 0,-1.319082 0.135713,-2.380693 0.407142,-3.184837 0.271426,-0.804127 0.674763,-1.424351 1.21001,-1.860675 0.535242,-0.436303 1.208737,-0.65446 2.020487,-0.654471 0.598659,1.1e-5 1.123757,0.120505 1.575296,0.361481 0.451528,0.240998 0.824423,0.588527 1.118688,1.042587 0.294251,0.45408 0.525091,1.007082 0.692521,1.659007 0.167415,0.651941 0.251127,1.53091 0.251135,2.636908 -8e-6,1.308945 -0.134454,2.365483 -0.403337,3.169616 -0.268898,0.804138 -0.670966,1.425631 -1.206205,1.864481 -0.535251,0.43885 -1.211283,0.658275 -2.028098,0.658275 -1.075567,0 -1.92029,-0.385579 -2.534171,-1.156739 -0.735646,-0.928433 -1.103468,-2.440309 -1.103468,-4.535633 z m 1.407873,0 c -2e-6,1.831506 0.21435,3.050393 0.643056,3.656664 0.4287,0.606275 0.957603,0.909411 1.58671,0.90941 0.629099,10e-7 1.158002,-0.304404 1.586711,-0.913215 0.428698,-0.608807 0.643049,-1.826426 0.643056,-3.652859 -7e-6,-1.836569 -0.214358,-3.056725 -0.643056,-3.66047 -0.428709,-0.603726 -0.962685,-0.905594 -1.601931,-0.905604 -0.629107,1e-5 -1.131375,0.266364 -1.506804,0.799063 -0.47183,0.679846 -0.707744,1.935515 -0.707742,3.767011 z" />
      <path
         inkscape:connector-curvature="0"
         id="path3561"
         d="m 81.900824,51.085358 2.952728,-4.200788 -2.732034,-3.881163 1.712278,0 1.24045,1.894921 c 0.233374,0.360218 0.42109,0.662086 0.563149,0.905604 0.223226,-0.334839 0.428699,-0.631634 0.61642,-0.890384 l 1.362212,-1.910141 1.636177,0 -2.792916,3.805062 3.005999,4.276889 -1.681837,0 -1.659007,-2.511341 -0.441387,-0.677301 -2.123225,3.188642 z" />
      <path
         inkscape:connector-curvature="0"
         id="path3563"
         d="m 98.939891,51.085358 0,-2.671153 -4.840039,0 0,-1.255671 5.091173,-7.229617 1.118685,0 0,7.229617 1.50681,0 0,1.255671 -1.50681,0 0,2.671153 z m 0,-3.926824 0,-5.030291 -3.493047,5.030291 z" />
      <path
         inkscape:connector-curvature="0"
         id="path3565"
         d="m 110.33225,42.660951 -1.36222,0.106542 c -0.12176,-0.537773 -0.29426,-0.928426 -0.51748,-1.171959 -0.37037,-0.390643 -0.82698,-0.585969 -1.36983,-0.58598 -0.43631,1.1e-5 -0.81936,0.121772 -1.14913,0.365286 -0.43124,0.314562 -0.77116,0.773705 -1.01975,1.377433 -0.2486,0.603744 -0.37797,1.463687 -0.38812,2.579832 0.32977,-0.502262 0.73311,-0.875158 1.21001,-1.118689 0.4769,-0.243516 0.97663,-0.365278 1.4992,-0.365285 0.9132,7e-6 1.6907,0.33612 2.3325,1.008341 0.64178,0.672233 0.96267,1.541055 0.96268,2.606467 -10e-6,0.700135 -0.15094,1.350799 -0.4528,1.951997 -0.30188,0.601201 -0.71663,1.061613 -1.24426,1.381237 -0.52764,0.319626 -1.1263,0.479438 -1.79599,0.479438 -1.14152,0 -2.07249,-0.419825 -2.79291,-1.259475 -0.72043,-0.839649 -1.08064,-2.223421 -1.08064,-4.151323 0,-2.156194 0.39826,-3.723878 1.19479,-4.703056 0.69505,-0.852323 1.6311,-1.27849 2.80813,-1.278501 0.8777,1.1e-5 1.59686,0.246072 2.15747,0.738182 0.56061,0.492131 0.89672,1.171968 1.00835,2.039513 z m -5.59344,4.809598 c -1e-5,0.471831 0.10019,0.923365 0.30059,1.354602 0.2004,0.431243 0.48071,0.759746 0.84092,0.985511 0.36021,0.225768 0.73818,0.338652 1.13391,0.338651 0.57837,10e-7 1.07556,-0.233376 1.49159,-0.700131 0.41601,-0.466753 0.62402,-1.100929 0.62403,-1.902531 -1e-5,-0.771155 -0.20548,-1.378696 -0.61642,-1.822625 -0.41096,-0.443918 -0.92844,-0.66588 -1.55247,-0.665886 -0.61896,6e-6 -1.14406,0.221968 -1.57529,0.665886 -0.43125,0.443929 -0.64687,1.026103 -0.64686,1.746523 z" />
      <path
         inkscape:connector-curvature="0"
         id="path3567"
         d="m 114.00794,45.03531 c -0.56823,-0.208004 -0.98932,-0.504798 -1.26328,-0.890385 -0.27397,-0.385572 -0.41095,-0.847252 -0.41095,-1.385042 0,-0.811737 0.29172,-1.494111 0.87516,-2.047123 0.58344,-0.552992 1.35967,-0.829493 2.3287,-0.829504 0.97409,1.1e-5 1.75793,0.282854 2.35153,0.848529 0.59358,0.565696 0.89038,1.254411 0.89038,2.066149 0,0.517496 -0.13572,0.967761 -0.40714,1.350796 -0.27143,0.38305 -0.68365,0.678576 -1.23664,0.88658 0.6849,0.223236 1.20619,0.583448 1.56388,1.080637 0.35766,0.4972 0.5365,1.090789 0.53651,1.780769 -1e-5,0.953805 -0.33739,1.755404 -1.01215,2.404799 -0.67477,0.649398 -1.56261,0.974096 -2.66354,0.974096 -1.10093,0 -1.98878,-0.325967 -2.66354,-0.977901 -0.67477,-0.651932 -1.01215,-1.464946 -1.01215,-2.439044 0,-0.725495 0.18391,-1.333036 0.55174,-1.822625 0.36782,-0.489579 0.89165,-0.823156 1.57149,-1.000731 z m -0.27397,-2.321088 c 0,0.527643 0.16996,0.958883 0.50988,1.293721 0.33991,0.334852 0.7813,0.502275 1.32416,0.502268 0.52763,7e-6 0.96014,-0.166147 1.29753,-0.498463 0.33737,-0.332301 0.50606,-0.739442 0.50607,-1.221425 -1e-5,-0.502259 -0.17377,-0.92462 -0.52129,-1.267085 -0.34754,-0.342446 -0.78005,-0.513673 -1.29753,-0.513684 -0.52256,1.1e-5 -0.95634,0.167433 -1.30133,0.502269 -0.345,0.334854 -0.51749,0.735654 -0.51749,1.202399 z m -0.44139,5.152054 c 0,0.390656 0.0926,0.768625 0.27777,1.133908 0.18518,0.365288 0.46041,0.648131 0.8257,0.848529 0.36528,0.200401 0.75847,0.300601 1.17957,0.3006 0.65447,10e-7 1.19478,-0.210546 1.62096,-0.63164 0.42616,-0.421092 0.63924,-0.956337 0.63925,-1.605736 -1e-5,-0.659541 -0.21943,-1.204932 -0.65828,-1.636177 -0.43885,-0.431235 -0.98805,-0.646855 -1.64759,-0.646861 -0.64433,6e-6 -1.1783,0.213089 -1.60193,0.639251 -0.42363,0.426171 -0.63545,0.958879 -0.63545,1.598126 z" />
    </g>
    <path
       style="fill:#87deaa;fill-opacity:1;stroke:#000000;stroke-opacity:1"
       d="m -765.71429,584.35999 320,0 0,468.00001 -320,0 z"
       id="rect3495"
       inkscape:connector-curvature="0" />
  </g>
</svg>
