<svg xmlns="http://www.w3.org/2000/svg" xmlns:xlink="http://www.w3.org/1999/xlink" version="1.0" height="213" width="210"><path d="M127.844 6c-1.799 0-3.726 1.241-5.953 3.854-2.056 2.398-2.828 4.583-4.926 13.834-.428 2.012-.898 4.024-1.37 6.08-.042.214-.256 1.113-.642 2.441-2.055-4.111-2.613-5.781-7.152-22.74l-1.457 1.328c-1.028-.086-1.585-.129-2.356-.129-2.57 0-4.11.47-5.652 1.67-2.74 2.141-4.625 5.225-4.625 7.58 0 1.07.3 2.185 1.07 3.77l2.955-2.014c-1.07-2.27-1.37-3.254-1.37-4.324 0-1.285.728-2.442 1.927-3.084 1.028-.557 2.055-.729 3.982-.729.9 0 1.672 0 3.3.086-2.014 8.608-3.642 14.005-5.055 16.531-.9 1.585-1.842 2.055-4.112 2.055-.813 0-1.455-.043-2.654-.172l-2.057 2.955c1.157.086 1.756.13 2.356.13 1.841 0 2.998-.257 4.111-.942 2.099-1.242 4.241-4.327 5.611-7.924.686-1.842.942-2.783 2.784-10.192 1.07 4.583 1.112 4.667 1.584 6.637 1.242 5.31 2.27 8.438 3.726 11.35 2.612 5.31 6.38 7.922 11.434 7.922 2.184 0 3.727-.385 5.654-1.498l-1.03-3.813c-.599 1.413-.898 2.014-1.454 2.656-.771.943-1.842 1.498-2.912 1.498-2.698 0-5.184-2.097-7.368-6.252.728-3.683 1.115-5.352 2.186-9.85 1.841-7.45 2.784-10.534 4.154-13.36.9-1.8 1.927-2.485 3.897-2.485.3 0 .556 0 1.156.086l1.584-2.87c-.514-.042-.984-.085-1.326-.085zm-15.975 37.412l-6.957 29.16a36.033 36.033 0 00-15.914 6.801L72.766 68.551l10.68 16.017a36.033 36.033 0 00-7.821 15.33l-29.646 7.073 29.16 6.955a36.033 36.033 0 006.8 15.914l-10.822 16.232 16.018-10.68a36.033 36.033 0 0015.33 7.82l7.072 29.647 6.957-29.158a36.033 36.033 0 0015.91-6.803l16.235 10.823-10.678-16.02a36.033 36.033 0 007.82-15.328l29.645-7.072-29.158-6.955a36.033 36.033 0 00-6.801-15.914l10.822-16.233-16.02 10.68a36.033 36.033 0 00-15.33-7.822zM43.516 90.645c-1.2.556-1.715.856-2.743 1.755 1.157 1.2 1.586 2.313 1.586 4.069 0 1.884-.729 4.239-2.056 6.851-1.67 3.212-4.025 6.425-9.207 12.463.128-1.97.215-3.296.215-3.767l.255-6.04c.086-2.055.216-4.582.387-7.537.086-1.113.17-2.226.213-3.34l-2.484.985c-1.97 3.34-9.421 14.39-12.633 18.758.47-3.469 2.142-12.89 3.17-18.03.9-.3 1.413-.6 2.226-1.37-8.308.085-8.821.085-10.363.6C8.399 97.24 6 100.194 6 103.577c0 1.413.342 2.612 1.07 3.854l3.213-2.012c-.985-1.499-1.414-2.741-1.414-4.197 0-1.756.857-3.084 2.442-3.64 1.027-.386 2.055-.472 5.267-.515-.47 3.64-1.457 9.722-3.77 23.297l2.786-.855c6.295-9.08 8.008-11.564 12.847-18.887-.085 5.14-.558 15.845-.943 19.742l2.74-.898c1.456-2.227 1.97-2.955 4.711-6.338 8.094-9.936 10.922-14.819 10.922-19.016 0-1.156-.171-1.84-.642-2.783-.6-.342-.728-.386-1.713-.685zm150.377 3.896l-2.998.9c-4.112.043-6.724.857-9.165 2.784-2.14 1.713-3.084 3.425-3.084 5.652 0 1.113.172 1.972.772 3.47l3.084-2.056c-.385-1.37-.557-2.484-.557-3.555 0-3.34 2.399-4.711 8.223-4.882l-2.398 9.636c-.729.728-.942.986-1.67 1.842h1.199c-.171.642-.302 1.2-.473 1.713-1.627 6.595-2.098 7.323-5.61 8.18l-1.626 1.412c1.199.043 2.099.043 2.398.043l3.854.043c1.285 0 2.44.043 3.426.086 5.181.171 5.224.172 7.066.172 2.227 0 2.827-.258 4.754-2.014 1.97-1.756 2.697-2.783 2.697-3.768 0-.214-.041-.558-.17-.986l-3.256 1.2c.129.899.172 1.243.172 1.628 0 1.627-.557 1.84-4.668 1.84H184.73c4.154-3.812 4.196-3.897 5.738-9.764 2.184-.128 2.44-.127 3.469-.213.942-.042 1.584-.086 1.841-.086.172-.042.643-.043 1.157-.085.77-.557.856-.643 1.627-1.243h-7.666l2.44-9.72h1.33c1.798-.086 3.125-.13 3.382-.13 1.67 0 1.97.301 3.127 3.128L204 96.94c-.128-.943-.471-1.413-1.2-1.67l-9.163.172zm-80.477 83.598c-4.411 0-9.42 4.883-9.42 9.123 0 1.927.899 3.34 3.383 5.267 2.912 2.313 3.682 3.468 3.682 5.438 0 3.34-3.212 6.297-6.938 6.297-1.841 0-3.725-.815-4.88-2.1-.9-.985-1.244-1.883-1.587-3.767l-.683.47-1.885 4.453c1.499 2.013 3.511 2.955 6.295 2.955 6.552 0 12.976-5.352 12.976-10.79 0-1.756-.686-2.655-3.855-5.14-3.126-2.44-3.639-3.17-3.639-5.011 0-2.784 2.099-5.182 4.625-5.182 1.799 0 2.441.771 2.912 3.512l2.827-2.014c-.257-2.355-1.543-3.511-3.813-3.511z" fill="#fb0000" fill-rule="evenodd" stroke="#fff" stroke-width="8" stroke-linecap="round" stroke-linejoin="round"/><g transform="matrix(1.52948 0 0 1.52948 -189.512 -932.026)" stroke-width=".654"><path d="M153.968 679.314l22.55 5.38v-10.76z" fill="#fb0000" fill-rule="evenodd" stroke="#000" id="a" stroke-width=".654"/><use xlink:href="#a" transform="rotate(90 196.286 680.076)" width="744.094" height="1052.362"/><use xlink:href="#a" transform="rotate(180 196.286 680.077)" width="744.094" height="1052.362"/><use xlink:href="#a" transform="rotate(-90 196.286 680.076)" width="744.094" height="1052.362"/></g><g transform="translate(-121.83 -607.299)"><circle r="36.033" cy="715.434" cx="232.532" style="marker:none" color="#000" overflow="visible" fill="#fff" fill-rule="evenodd"/><g transform="matrix(1.52948 0 0 1.52948 -67.682 -324.727)" stroke-width=".654"><path d="M174.349 689.163l43.874-18.173" id="b" fill="none" fill-opacity=".75" fill-rule="evenodd" stroke="#5ab206" stroke-width=".654" stroke-linecap="butt" stroke-linejoin="miter" stroke-opacity="1"/><use x="0" y="0" xlink:href="#b" id="c" transform="rotate(-45 196.286 680.077)" width="744.094" height="1052.362" stroke-width=".654"/><use x="0" y="0" xlink:href="#c" id="d" transform="rotate(-45 196.286 680.077)" width="744.094" height="1052.362" stroke-width=".654"/><use xlink:href="#d" transform="rotate(-45 196.286 680.077)" width="744.094" height="1052.362"/></g><g transform="scale(1.52948) rotate(-33.75 -175.79 646.86)" id="h" stroke-width=".654"><path id="e" d="M174.349 689.163l43.874-18.173" fill="none" fill-opacity=".75" fill-rule="evenodd" stroke="#fce94f" stroke-width=".654" stroke-linecap="butt" stroke-linejoin="miter" stroke-opacity="1"/><use height="1052.362" width="744.094" transform="rotate(-45 196.286 680.077)" id="f" xlink:href="#e" y="0" x="0" stroke-width=".654"/><use height="1052.362" width="744.094" transform="rotate(-45 196.286 680.077)" id="g" xlink:href="#f" y="0" x="0" stroke-width=".654"/><use height="1052.362" width="744.094" transform="rotate(-45 196.286 680.077)" xlink:href="#g"/></g><use height="1052.362" width="744.094" transform="rotate(-22.5 232.532 715.434)" xlink:href="#h" stroke-width=".654"/><circle r="36.033" cy="715.434" cx="232.532" style="marker:none" color="#000" overflow="visible" fill="none" stroke="#000" stroke-linecap="round"/><circle r="22.414" cy="715.434" cx="232.532" style="marker:none" color="#000" overflow="visible" fill="none" stroke="#000" stroke-linecap="round"/></g><g transform="matrix(1.52948 0 0 1.52948 -189.512 -932.026)" stroke-width=".654"><g id="i" stroke-width=".654" fill-rule="evenodd" stroke="#000"><path d="M180.281 662.994l16.79 11.543-5.247 5.247z" fill="#fb0000"/><path d="M180.543 663.256l17.577 17.577" fill="none" fill-opacity=".75"/><path d="M171.482 654.195l8.162 12.243 3.525-.557.556-3.524zM193.295 675.274c5.194-2.968 5.194 11.049 0 8.08-5.194-2.967-37.472-4.08-37.472-4.04 0 .04 32.278-1.072 37.472-4.04z" fill="#0000a9"/></g><use xlink:href="#i" transform="rotate(90 196.286 680.076)" width="744.094" height="1052.362"/><use xlink:href="#i" transform="rotate(180 196.286 680.076)" width="744.094" height="1052.362"/><use xlink:href="#i" transform="rotate(-90 196.286 680.076)" width="744.094" height="1052.362"/></g><g color="#000" fill="#edd400" fill-rule="evenodd" stroke="#2e3436" stroke-width=".5" stroke-linecap="round"><path d="M116.251 117.745l-2.466-1.581-.775 2.825-1.857-2.266-1.61 2.448-1.066-2.729-2.288 1.83-.17-2.924-2.741 1.034.741-2.835-2.926.136 1.581-2.466-2.825-.775 2.266-1.857-2.448-1.61 2.729-1.066-1.83-2.287 2.924-.17-1.034-2.742 2.835.742-.137-2.927 2.467 1.581.775-2.825 1.857 2.266 1.61-2.448 1.066 2.73 2.287-1.831.17 2.925 2.742-1.034-.742 2.834 2.927-.136-1.582 2.466 2.826.775-2.266 1.857 2.448 1.61-2.73 1.066 1.831 2.288-2.925.17 1.034 2.741-2.834-.742z" style="marker:none" overflow="visible"/><path style="marker:none" d="M113.398 112.804l-1.198-.768-.376 1.372-.903-1.1-.782 1.189-.518-1.326-1.111.889-.083-1.421-1.332.502.36-1.377-1.421.067.768-1.199-1.372-.376 1.1-.902-1.189-.782 1.326-.518-.89-1.112 1.422-.082-.503-1.332 1.377.36-.066-1.422 1.198.769.377-1.373.902 1.1.782-1.188.518 1.325 1.111-.889.083 1.421 1.332-.502-.36 1.377 1.421-.066-.768 1.198 1.373.376-1.101.902 1.19.783-1.327.517.89 1.112-1.421.083.502 1.331-1.377-.36z" overflow="visible"/><path style="marker:none" overflow="visible" d="M109 106.433h3.406v3.405H109z"/></g><g font-weight="700" font-size="28" font-family="URW Chancery L" text-anchor="middle"><path d="M91.698 34.992c1.156.086 1.756.129 2.356.129 1.841 0 2.997-.257 4.11-.943 2.1-1.242 4.24-4.325 5.61-7.922.686-1.842.943-2.784 2.785-10.193 1.07 4.583 1.113 4.668 1.584 6.638 1.242 5.31 2.27 8.437 3.726 11.349 2.612 5.31 6.38 7.923 11.434 7.923 2.184 0 3.726-.386 5.653-1.5l-1.028-3.81c-.6 1.412-.899 2.012-1.456 2.654-.77.943-1.841 1.5-2.912 1.5-2.698 0-5.182-2.1-7.366-6.253.728-3.683 1.114-5.353 2.184-9.85 1.842-7.452 2.784-10.535 4.154-13.362.9-1.798 1.928-2.483 3.897-2.483.3 0 .557 0 1.157.085l1.584-2.87c-.514-.042-.985-.085-1.327-.085-1.799 0-3.726 1.242-5.953 3.855-2.056 2.398-2.826 4.582-4.925 13.832-.428 2.013-.9 4.026-1.37 6.081-.043.214-.257 1.114-.643 2.441-2.055-4.11-2.612-5.781-7.152-22.74l-1.456 1.328c-1.027-.086-1.584-.129-2.355-.129-2.57 0-4.111.471-5.653 1.67-2.74 2.142-4.625 5.225-4.625 7.58 0 1.071.3 2.185 1.07 3.77l2.955-2.014c-1.07-2.27-1.37-3.254-1.37-4.325 0-1.285.728-2.441 1.927-3.083 1.028-.557 2.056-.728 3.983-.728.9 0 1.67 0 3.298.085-2.013 8.608-3.64 14.004-5.054 16.53-.9 1.585-1.841 2.056-4.111 2.056-.814 0-1.456-.042-2.655-.17l-2.056 2.954M96.972 198.866l-1.885 4.454c1.5 2.013 3.512 2.955 6.296 2.955 6.552 0 12.976-5.353 12.976-10.792 0-1.756-.685-2.655-3.855-5.139-3.126-2.441-3.64-3.169-3.64-5.01 0-2.784 2.099-5.182 4.625-5.182 1.8 0 2.442.77 2.913 3.511l2.826-2.013c-.257-2.355-1.542-3.511-3.811-3.511-4.411 0-9.422 4.882-9.422 9.122 0 1.927.9 3.34 3.383 5.267 2.912 2.313 3.683 3.469 3.683 5.439 0 3.34-3.212 6.295-6.938 6.295-1.841 0-3.725-.813-4.882-2.098-.899-.985-1.242-1.884-1.584-3.769l-.685.471M15.593 119.508c6.295-9.079 8.008-11.562 12.847-18.886-.085 5.14-.556 15.846-.942 19.743l2.741-.9c1.456-2.226 1.97-2.954 4.71-6.338 8.095-9.935 10.921-14.817 10.921-19.014 0-1.156-.171-1.842-.642-2.784-.6-.342-.728-.385-1.713-.685-1.2.557-1.713.857-2.74 1.756 1.155 1.2 1.584 2.313 1.584 4.068 0 1.885-.728 4.24-2.056 6.852-1.67 3.212-4.026 6.424-9.207 12.463.128-1.97.214-3.298.214-3.769l.257-6.038c.085-2.056.214-4.583.385-7.538.086-1.113.171-2.227.214-3.34l-2.484.985c-1.97 3.34-9.421 14.39-12.633 18.757.47-3.468 2.141-12.89 3.169-18.029.9-.3 1.413-.6 2.227-1.37-8.308.085-8.822.085-10.364.6C8.398 97.238 6 100.193 6 103.576c0 1.414.343 2.613 1.07 3.855l3.212-2.013c-.985-1.499-1.413-2.741-1.413-4.197 0-1.756.857-3.083 2.441-3.64 1.028-.386 2.056-.471 5.268-.514-.471 3.64-1.456 9.721-3.769 23.297l2.784-.857M190.895 106.49l2.441-9.722h1.328c1.799-.085 3.126-.128 3.383-.128 1.67 0 1.97.3 3.126 3.126L204 96.939c-.129-.942-.471-1.413-1.2-1.67l-9.164.172.257-.9-2.998.9c-4.11.042-6.723.856-9.164 2.783-2.142 1.713-3.084 3.426-3.084 5.653 0 1.114.172 1.97.771 3.469l3.084-2.056c-.386-1.37-.557-2.483-.557-3.554 0-3.34 2.398-4.71 8.222-4.882l-2.398 9.635c-.728.729-.942.985-1.67 1.842h1.199c-.171.642-.3 1.2-.471 1.713-1.627 6.595-2.099 7.323-5.61 8.18l-1.628 1.413c1.2.043 2.099.043 2.399.043l3.854.042c1.285 0 2.441.043 3.426.086 5.182.171 5.225.171 7.066.171 2.227 0 2.827-.257 4.754-2.012 1.97-1.756 2.698-2.784 2.698-3.769a3.61 3.61 0 00-.172-.985l-3.254 1.2c.128.898.171 1.241.171 1.626 0 1.628-.557 1.842-4.668 1.842H184.73c4.154-3.812 4.196-3.897 5.738-9.764 2.184-.129 2.441-.129 3.469-.214.942-.043 1.584-.086 1.841-.086.172-.043.643-.043 1.157-.086.77-.556.856-.642 1.627-1.242h-7.666" style="line-height:100%;text-align:center"/></g></svg>