<svg height="200" viewBox="0 0 52.916665 52.916668" width="200" xmlns="http://www.w3.org/2000/svg" xmlns:xlink="http://www.w3.org/1999/xlink"><marker id="a" orient="auto" overflow="visible" refX="0.0" refY="0.0"><path d="m0 0 5-5-17.5 5 17.5 5z" fill="#2c3e50" fill-rule="evenodd" stroke="#2c3e50" stroke-width="1pt" transform="matrix(-.4 0 0 -.4 -4 0)"/></marker><marker id="b" orient="auto" overflow="visible" refX="0.0" refY="0.0"><path d="m0 0 5-5-17.5 5 17.5 5z" fill="#2c3e50" fill-rule="evenodd" stroke="#2c3e50" stroke-width="1pt" transform="matrix(-.4 0 0 -.4 -4 0)"/></marker><g transform="translate(0 -244.08332)"><path d="m0 244.08334h52.916668v52.916668h-52.916668z" fill="#ecf0f1" fill-rule="evenodd"/><path d="m48.947916 268.42499h-46.0374994" fill="none" stroke="#e74c3c" stroke-width=".529167"/><path d="m10.583333 293.03124v-37.04167" fill="none" marker-end="url(#b)" stroke="#2c3e50" stroke-width=".529167"/><path d="m5.2916667 285.09374h37.0416663" fill="none" marker-end="url(#a)" stroke="#2c3e50" stroke-width=".529167"/><path d="m7.9374999 283.77082c3.5826731-15.31428 20.4327281-13.95011 35.7187491-14.55208" fill="none" stroke="#2980b9" stroke-width=".529167"/><g fill="#16a085" fill-rule="evenodd"><circle cx="13.229166" cy="274.51041" opacity=".99" r="1.924273"/><circle cx="18.474331" cy="271.90454" opacity=".99" r="1.924273"/><circle cx="23.719496" cy="270.40115" opacity=".99" r="1.924273"/><circle cx="29.064886" cy="269.73294" opacity=".99" r="1.924273"/><circle cx="34.376869" cy="269.29861" opacity=".99" r="1.924273"/><circle cx="39.655441" cy="269.2652" opacity=".99" r="1.924273"/></g></g></svg>