<svg height="200" viewBox="0 0 52.917 52.917" width="200" xmlns="http://www.w3.org/2000/svg"><path d="M0 0h52.917v52.917H0z" fill="#ecf0f1" fill-rule="evenodd"/><path d="M13.501 5.67h25.914v41.779H13.501z" fill="#bdc3c7" fill-rule="evenodd"/><g fill="none"><g stroke="#2c3e50" stroke-width=".247"><path d="M32.011 15.541h1.234v1.234h-1.234zM32.011 16.775h1.234v1.234h-1.234zM29.543 18.01h3.702v3.701h-3.702z"/><path d="M33.245 15.541h6.17v6.17h-6.17zM29.543 5.67h9.872v9.871h-9.872zM13.501 5.67h16.042V21.71H13.501zM13.501 21.711h25.914v25.914H13.501z"/></g><path d="M32.011 18.01s1.234-.653 1.234-1.235c0-.582-.652-1.234-1.234-1.234-1.163 0-2.468 1.305-2.468 2.468 0 1.745 1.957 3.702 3.702 3.702 2.909 0 6.17-3.261 6.17-6.17 0-4.653-3.702-9.872-9.872-9.872-9.872 0-16.042 8.48-16.042 16.042 0 20.978 25.914 25.914 25.914 25.914" stroke="#27ae60" stroke-width=".617"/></g></svg>