<?xml version="1.0" encoding="UTF-8" standalone="no"?>
<!-- Created with Inkscape (http://www.inkscape.org/) -->

<svg
   xmlns:dc="http://purl.org/dc/elements/1.1/"
   xmlns:cc="http://creativecommons.org/ns#"
   xmlns:rdf="http://www.w3.org/1999/02/22-rdf-syntax-ns#"
   xmlns:svg="http://www.w3.org/2000/svg"
   xmlns="http://www.w3.org/2000/svg"
   xmlns:sodipodi="http://sodipodi.sourceforge.net/DTD/sodipodi-0.dtd"
   xmlns:inkscape="http://www.inkscape.org/namespaces/inkscape"
   width="320"
   height="468"
   id="svg2"
   version="1.1"
   inkscape:version="0.48.0 r9654"
   inkscape:export-filename="C:\Users\mandus\Documents\mandus\lab_roja\UNADM\Descartes\UNIDADES\_Un_091_Encargo_EcuacionDeOnda1D\_Un_091_EcuacionDeOnda1D\escenas\explicacion\muro_durante\Explicacion_E2.2_Muro_Durante.png"
   inkscape:export-xdpi="90"
   inkscape:export-ydpi="90"
   sodipodi:docname="template_320x468_no_alta.svg">
  <defs
     id="defs4">
    <marker
       inkscape:stockid="DotM"
       orient="auto"
       refY="0.0"
       refX="0.0"
       id="DotM"
       style="overflow:visible">
      <path
         id="path3887"
         d="M -2.5,-1.0 C -2.5,1.7600000 -4.7400000,4.0 -7.5,4.0 C -10.260000,4.0 -12.5,1.7600000 -12.5,-1.0 C -12.5,-3.7600000 -10.260000,-6.0 -7.5,-6.0 C -4.7400000,-6.0 -2.5,-3.7600000 -2.5,-1.0 z "
         style="fill-rule:evenodd;stroke:#000000;stroke-width:1.0pt;marker-start:none;marker-end:none"
         transform="scale(0.4) translate(7.4, 1)" />
    </marker>
    <marker
       inkscape:stockid="DotL"
       orient="auto"
       refY="0.0"
       refX="0.0"
       id="DotL"
       style="overflow:visible">
      <path
         id="path3884"
         d="M -2.5,-1.0 C -2.5,1.7600000 -4.7400000,4.0 -7.5,4.0 C -10.260000,4.0 -12.5,1.7600000 -12.5,-1.0 C -12.5,-3.7600000 -10.260000,-6.0 -7.5,-6.0 C -4.7400000,-6.0 -2.5,-3.7600000 -2.5,-1.0 z "
         style="fill-rule:evenodd;stroke:#000000;stroke-width:1.0pt;marker-start:none;marker-end:none"
         transform="scale(0.8) translate(7.4, 1)" />
    </marker>
    <marker
       inkscape:stockid="Arrow2Mend"
       orient="auto"
       refY="0.0"
       refX="0.0"
       id="Arrow2Mend"
       style="overflow:visible;">
      <path
         id="path3849"
         style="font-size:12.0;fill-rule:evenodd;stroke-width:0.62500000;stroke-linejoin:round;"
         d="M 8.7185878,4.0337352 L -2.2072895,0.016013256 L 8.7185884,-4.0017078 C 6.9730900,-1.6296469 6.9831476,1.6157441 8.7185878,4.0337352 z "
         transform="scale(0.6) rotate(180) translate(0,0)" />
    </marker>
    <marker
       inkscape:stockid="Arrow2Sstart"
       orient="auto"
       refY="0.0"
       refX="0.0"
       id="Arrow2Sstart"
       style="overflow:visible">
      <path
         id="path3852"
         style="font-size:12.0;fill-rule:evenodd;stroke-width:0.62500000;stroke-linejoin:round"
         d="M 8.7185878,4.0337352 L -2.2072895,0.016013256 L 8.7185884,-4.0017078 C 6.9730900,-1.6296469 6.9831476,1.6157441 8.7185878,4.0337352 z "
         transform="scale(0.3) translate(-2.3,0)" />
    </marker>
    <marker
       inkscape:stockid="Arrow1Mend"
       orient="auto"
       refY="0.0"
       refX="0.0"
       id="Arrow1Mend"
       style="overflow:visible;">
      <path
         id="path3831"
         d="M 0.0,0.0 L 5.0,-5.0 L -12.5,0.0 L 5.0,5.0 L 0.0,0.0 z "
         style="fill-rule:evenodd;stroke:#000000;stroke-width:1.0pt;marker-start:none;"
         transform="scale(0.4) rotate(180) translate(10,0)" />
    </marker>
    <marker
       inkscape:stockid="Arrow2Mstart"
       orient="auto"
       refY="0.0"
       refX="0.0"
       id="Arrow2Mstart"
       style="overflow:visible">
      <path
         id="path3846"
         style="font-size:12.0;fill-rule:evenodd;stroke-width:0.62500000;stroke-linejoin:round"
         d="M 8.7185878,4.0337352 L -2.2072895,0.016013256 L 8.7185884,-4.0017078 C 6.9730900,-1.6296469 6.9831476,1.6157441 8.7185878,4.0337352 z "
         transform="scale(0.6) translate(0,0)" />
    </marker>
    <marker
       inkscape:stockid="Arrow2Lstart"
       orient="auto"
       refY="0.0"
       refX="0.0"
       id="Arrow2Lstart"
       style="overflow:visible">
      <path
         id="path3840"
         style="font-size:12.0;fill-rule:evenodd;stroke-width:0.62500000;stroke-linejoin:round"
         d="M 8.7185878,4.0337352 L -2.2072895,0.016013256 L 8.7185884,-4.0017078 C 6.9730900,-1.6296469 6.9831476,1.6157441 8.7185878,4.0337352 z "
         transform="scale(1.1) translate(1,0)" />
    </marker>
    <marker
       inkscape:stockid="Arrow1Lend"
       orient="auto"
       refY="0.0"
       refX="0.0"
       id="Arrow1Lend"
       style="overflow:visible;">
      <path
         id="path3825"
         d="M 0.0,0.0 L 5.0,-5.0 L -12.5,0.0 L 5.0,5.0 L 0.0,0.0 z "
         style="fill-rule:evenodd;stroke:#000000;stroke-width:1.0pt;marker-start:none;"
         transform="scale(0.8) rotate(180) translate(12.5,0)" />
    </marker>
    <marker
       inkscape:stockid="Arrow1Lstart"
       orient="auto"
       refY="0.0"
       refX="0.0"
       id="Arrow1Lstart"
       style="overflow:visible">
      <path
         id="path3822"
         d="M 0.0,0.0 L 5.0,-5.0 L -12.5,0.0 L 5.0,5.0 L 0.0,0.0 z "
         style="fill-rule:evenodd;stroke:#000000;stroke-width:1.0pt;marker-start:none"
         transform="scale(0.8) translate(12.5,0)" />
    </marker>
    <inkscape:perspective
       sodipodi:type="inkscape:persp3d"
       inkscape:vp_x="-91.889012 : 351.34223 : 1"
       inkscape:vp_y="0 : 532.40399 : 0"
       inkscape:vp_z="103.99182 : 328.92298 : 1"
       inkscape:persp3d-origin="-18.300533 : 309.81472 : 1"
       id="perspective3033" />
  </defs>
  <sodipodi:namedview
     id="base"
     pagecolor="#ffffff"
     bordercolor="#666666"
     borderopacity="1.0"
     inkscape:pageopacity="0.0"
     inkscape:pageshadow="2"
     inkscape:zoom="0.91693723"
     inkscape:cx="51.477676"
     inkscape:cy="265.9658"
     inkscape:document-units="px"
     inkscape:current-layer="layer3"
     showgrid="false"
     inkscape:snap-bbox="true"
     inkscape:bbox-paths="true"
     inkscape:bbox-nodes="true"
     inkscape:snap-bbox-edge-midpoints="true"
     inkscape:snap-bbox-midpoints="true"
     inkscape:object-paths="true"
     inkscape:snap-intersection-paths="true"
     inkscape:object-nodes="true"
     inkscape:snap-smooth-nodes="true"
     inkscape:snap-midpoints="true"
     inkscape:snap-object-midpoints="true"
     inkscape:snap-center="true"
     inkscape:snap-page="true"
     inkscape:snap-global="false"
     inkscape:window-width="1366"
     inkscape:window-height="705"
     inkscape:window-x="-8"
     inkscape:window-y="-8"
     inkscape:window-maximized="1"
     borderlayer="true"
     showguides="true"
     inkscape:guide-bbox="true" />
  <metadata
     id="metadata7">
    <rdf:RDF>
      <cc:Work
         rdf:about="">
        <dc:format>image/svg+xml</dc:format>
        <dc:type
           rdf:resource="http://purl.org/dc/dcmitype/StillImage" />
        <dc:title></dc:title>
      </cc:Work>
    </rdf:RDF>
  </metadata>
  <g
     inkscape:label="Capa 1"
     inkscape:groupmode="layer"
     id="layer1"
     transform="translate(0,-584.36212)"
     style="display:inline" />
  <g
     inkscape:groupmode="layer"
     id="layer2"
     inkscape:label="Capa"
     transform="translate(0,-584.35999)">
    <path
       inkscape:connector-curvature="0"
       id="rect3054"
       d="m 0.57822463,584.93821 319.42177537,0 0,467.42179 -319.42177537,0 z"
       style="fill:#0088aa;fill-opacity:1;stroke:#000000;stroke-width:0.68769199;stroke-opacity:1;display:inline" />
    <flowRoot
       xml:space="preserve"
       id="flowRoot3009"
       style="font-size:40px;font-style:normal;font-weight:normal;line-height:125%;letter-spacing:0px;word-spacing:0px;fill:#ffffff;fill-opacity:1;stroke:none;font-family:Sans"
       transform="matrix(0.69393417,0,0,0.69393417,-228.10645,579.1342)"><flowRegion
         id="flowRegion3011"><rect
           id="rect3013"
           width="946.42859"
           height="87.14286"
           x="349.28571"
           y="33.714287"
           style="fill:#ffffff" /></flowRegion><flowPara
         id="flowPara3015">Pasando por el muro</flowPara></flowRoot>  </g>
  <g
     inkscape:groupmode="layer"
     id="layer3"
     inkscape:label="linea">
    <g
       id="g4304">
      <path
         style="fill:#c8b7b7;fill-opacity:1;stroke:#000000;stroke-width:1.21652710000000000;stroke-opacity:1"
         d="m 15.004938,641.45114 293.955772,0 0,396.70286 -293.955772,0 z"
         id="rect3065"
         inkscape:connector-curvature="0"
         transform="translate(0,-584.35999)" />
      <g
         inkscape:corner7="-0.7070238 : 0.030089759 : 0.25 : 1"
         inkscape:corner0="-0.64926231 : 0.079758084 : 0 : 1"
         inkscape:perspectiveID="#perspective3033"
         id="g3035"
         style="fill:#ffffff;fill-opacity:1;stroke:#000000;stroke-width:1.79999994999999990;stroke-miterlimit:4;stroke-opacity:1;stroke-dasharray:none"
         sodipodi:type="inkscape:box3d"
         transform="translate(0,-584.35999)">
        <path
           d="m 117.92157,773.74334 41.36504,14.33816 -25.45912,-29.76396 -21.70286,-5.50943 z"
           inkscape:box3dsidetype="13"
           style="fill:#afafde;fill-rule:evenodd;stroke:#000000;stroke-width:0.95832717;stroke-miterlimit:4;stroke-opacity:1;stroke-dasharray:none"
           id="path3045"
           sodipodi:type="inkscape:box3dside" />
        <path
           d="m 159.28661,697.82292 0,90.25858 -25.45912,-29.76396 0,-48.70124 z"
           inkscape:box3dsidetype="14"
           style="fill:#d7d7ff;fill-rule:evenodd;stroke:#000000;stroke-width:0.95832717;stroke-miterlimit:4;stroke-opacity:1;stroke-dasharray:none"
           id="path3043"
           sodipodi:type="inkscape:box3dside" />
        <path
           d="m 112.12463,708.78954 21.70286,0.82676 0,48.70124 -21.70286,-5.50943 z"
           inkscape:box3dsidetype="11"
           style="fill:#e9e9ff;fill-rule:evenodd;stroke:#000000;stroke-width:0.95832717;stroke-miterlimit:4;stroke-opacity:1;stroke-dasharray:none"
           id="path3047"
           sodipodi:type="inkscape:box3dside" />
        <path
           d="m 117.92157,698.34906 41.36504,-0.52614 -25.45912,11.79338 -21.70286,-0.82676 z"
           inkscape:box3dsidetype="5"
           style="fill:#4d4d9f;fill-rule:evenodd;stroke:#000000;stroke-width:0.95832717;stroke-miterlimit:4;stroke-opacity:1;stroke-dasharray:none"
           id="path3039"
           sodipodi:type="inkscape:box3dside" />
        <path
           d="m 117.92157,698.34906 0,75.39428 -5.79694,-20.93523 0,-44.01857 z"
           inkscape:box3dsidetype="6"
           style="fill:#353564;fill-rule:evenodd;stroke:#000000;stroke-width:0.95832717;stroke-miterlimit:4;stroke-opacity:1;stroke-dasharray:none"
           id="path3037"
           sodipodi:type="inkscape:box3dside" />
        <path
           d="m 117.92157,698.34906 41.36504,-0.52614 0,90.25858 -41.36504,-14.33816 z"
           inkscape:box3dsidetype="3"
           style="fill:#8686bf;fill-rule:evenodd;stroke:#000000;stroke-width:0.95832717;stroke-miterlimit:4;stroke-opacity:1;stroke-dasharray:none"
           id="path3041"
           sodipodi:type="inkscape:box3dside" />
      </g>
      <flowRoot
         transform="matrix(2.1308633,0,0,2.1308633,381.12299,-192.95882)"
         style="font-size:40px;font-style:normal;font-weight:normal;line-height:125%;letter-spacing:0px;word-spacing:0px;fill:#000000;fill-opacity:1;stroke:none;font-family:Sans"
         id="flowRoot6573"
         xml:space="preserve"><flowRegion
           id="flowRegion6575"><rect
             y="210.56517"
             x="-156.16167"
             height="149.20396"
             width="119.05392"
             id="rect6577" /></flowRegion><flowPara
           style="font-size:12px"
           id="flowPara6579">Se presenta un decaimento energético.</flowPara></flowRoot>      <g
         style="stroke-width:0.20000000000000001;stroke-miterlimit:4;stroke-dasharray:none"
         transform="translate(-1.2241979,-583.26626)"
         id="g5250">
        <path
           inkscape:connector-curvature="0"
           id="path3040"
           d="m 125.91507,671.8016 1.21547,0 0,-3.86424 -1.21547,0 z m 1.84281,0 1.21547,0 0,-3.86424 -1.21547,0 z m 1.82321,0 1.21547,0 0,-3.86424 -1.21547,0 z m 1.82321,0 1.23508,0 0,-3.86424 -1.23508,0 z m 1.84281,0 1.21547,0 0,-3.86424 -1.21547,0 z m 1.82321,0 1.21547,0 0,-3.86424 -1.21547,0 z m 1.82321,0 1.23507,0 0,-3.86424 -1.23507,0 z m 1.84281,0 1.21547,0 0,-3.86424 -1.21547,0 z m 1.82321,0 1.21547,0 0,-3.86424 -1.21547,0 z m 1.82321,0 1.23507,0 0,-3.86424 -1.23507,0 z m 1.84281,0 1.21547,0 0,-3.86424 -1.21547,0 z m 1.82321,0 1.21547,0 0,-3.86424 -1.21547,0 z m 1.8232,0 1.23508,0 0,-3.86424 -1.23508,0 z m 1.84282,0 0.56852,0 0,-3.86424 -0.56852,0 z"
           style="font-size:medium;font-style:normal;font-variant:normal;font-weight:normal;font-stretch:normal;text-indent:0;text-align:start;text-decoration:none;line-height:normal;letter-spacing:normal;word-spacing:normal;text-transform:none;direction:ltr;block-progression:tb;writing-mode:lr-tb;text-anchor:start;baseline-shift:baseline;color:#000000;fill:#ff0000;fill-opacity:1;fill-rule:nonzero;stroke:none;stroke-width:66.5;marker:none;visibility:visible;display:inline;overflow:visible;enable-background:accumulate;font-family:Sans;-inkscape-font-specification:Sans" />
        <path
           inkscape:connector-curvature="0"
           id="path5258"
           style="font-size:12px;fill:#ff0000;fill-rule:evenodd;stroke:#f3dcdc;stroke-width:1.10000002;stroke-linejoin:round;stroke-miterlimit:4;stroke-opacity:1;stroke-dasharray:none"
           d="m 145.90357,664.86376 12.69286,4.6675 -12.69286,4.66748 c 2.02778,-2.75568 2.01609,-6.52593 0,-9.33498 z" />
        <path
           inkscape:connector-curvature="0"
           id="path5258-5"
           style="font-size:12px;fill:#ff0000;fill-rule:evenodd;stroke:#f3dcdc;stroke-width:1.10000002;stroke-linejoin:round;stroke-miterlimit:4;stroke-opacity:1;stroke-dasharray:none"
           d="m 130.40893,665.34813 -12.69286,4.6675 12.69286,4.66748 c -2.02778,-2.75568 -2.01609,-6.52593 0,-9.33498 z" />
      </g>
      <g
         id="flowRoot3849"
         style="font-size:40px;font-style:normal;font-weight:normal;line-height:125%;letter-spacing:0px;word-spacing:0px;fill:#000000;fill-opacity:1;stroke:none;font-family:Sans"
         transform="matrix(0.48181673,0,0,0.48181673,148.11855,36.24437)">
        <path
           id="path4256"
           style=""
           d="m 63.398437,177.86825 3.632813,0.44922 c -0.572937,2.1224 -1.634133,3.76953 -3.183594,4.94141 -1.549495,1.17187 -3.528659,1.75781 -5.9375,1.75781 -3.033862,0 -5.439459,-0.93425 -7.216797,-2.80274 -1.777346,-1.86848 -2.666017,-4.48892 -2.666015,-7.86132 -2e-6,-3.48957 0.898435,-6.1979 2.695312,-8.125 1.796869,-1.92707 4.127596,-2.89061 6.992188,-2.89063 2.773423,2e-5 5.039046,0.94403 6.796875,2.83203 1.757793,1.88804 2.636698,4.54429 2.636718,7.96875 -2e-5,0.20835 -0.0065,0.52085 -0.01953,0.9375 l -15.46875,0 c 0.130203,2.27866 0.774734,4.02345 1.933594,5.23438 1.158846,1.21094 2.604157,1.81641 4.335937,1.8164 1.28905,1e-5 2.38931,-0.33853 3.300782,-1.01562 0.911443,-0.67708 1.634098,-1.75781 2.167968,-3.24219 z m -11.542968,-5.68359 11.582031,0 c -0.156267,-1.74478 -0.598975,-3.05337 -1.328125,-3.92578 -1.119806,-1.35415 -2.571628,-2.03124 -4.355469,-2.03125 -1.614593,1e-5 -2.972013,0.54038 -4.072265,1.62109 -1.100267,1.08075 -1.70899,2.52606 -1.826172,4.33594 z" />
        <g
           transform="matrix(0.54387738,0,0,0.54387738,30.805644,72.796721)"
           id="g4264">
          <path
             d="m 68.26587,164.99937 0,-3.53516 10.800781,0 0,3.53516 z"
             id="path4260"
             inkscape:connector-curvature="0" />
          <path
             d="m 79.320827,173.42714 7.57812,-10.78125 -7.01171,-9.96094 4.39453,0 3.18359,4.86328 c 0.59895,0.9245 1.08072,1.69924 1.44531,2.32422 0.57291,-0.85936 1.10025,-1.62108 1.58203,-2.28515 l 3.4961,-4.90235 4.19922,0 -7.16797,9.76563 7.71484,10.97656 -4.3164,0 -4.25782,-6.44531 -1.13281,-1.73828 -5.44922,8.18359 z"
             id="path4262"
             inkscape:connector-curvature="0" />
        </g>
      </g>
      <path
         sodipodi:nodetypes="cc"
         inkscape:connector-curvature="0"
         id="path3857"
         d="m 136.93368,742.13706 c 82.65607,-13.20086 46.19971,-26.6168 45.99888,-26.69071"
         style="fill:none;stroke:#0015ac;stroke-width:1;stroke-linecap:butt;stroke-linejoin:miter;stroke-opacity:1;marker-start:url(#Arrow2Mstart);stroke-miterlimit:4;stroke-dasharray:1, 3;stroke-dashoffset:0"
         transform="translate(0,-584.35999)" />
      <path
         sodipodi:nodetypes="cc"
         inkscape:connector-curvature="0"
         id="path3025"
         d="m 119.33337,143.07113 c 7.94226,17.85864 18.08179,22.69537 39.25594,24.42661"
         style="fill:none;stroke:#ff0000;stroke-width:2.68300009;stroke-linecap:round;stroke-linejoin:miter;stroke-miterlimit:4;stroke-opacity:1;stroke-dasharray:none" />
    </g>
  </g>
</svg>
