<svg xmlns="http://www.w3.org/2000/svg" height="534" width="696"><defs><marker id="c" refX="0" refY="0" orient="auto" overflow="visible"><path d="M2.308 0l-3.46 2v-4l3.46 2z" fill-rule="evenodd" stroke="#000" stroke-width=".4pt"/></marker><marker orient="auto" refY="0" refX="0" id="b" overflow="visible"><path d="M2.308 0l-3.46 2v-4l3.46 2z" fill-rule="evenodd" stroke="#000" stroke-width=".4pt"/></marker><marker id="a" refX="0" refY="0" orient="auto" overflow="visible"><path d="M2.308 0l-3.46 2v-4l3.46 2z" fill-rule="evenodd" stroke="#000" stroke-width=".4pt"/></marker></defs><path d="M87.752 510.277H665.91" fill="none" stroke="#000" stroke-width="4" stroke-linecap="square" marker-end="url(#a)"/><path d="M87.752 510.277V76.11" fill="none" stroke="#000" stroke-width="4" stroke-linecap="square" marker-end="url(#b)"/><path d="M65.315 69.054q3.477-6.601 3.477-7.988 0-.937-.704-1.426-.097-.058-.312-.175-.742-.45-.977-.938-.254-.527-.254-1.328 0-1.172 1.036-1.836.605-.39 1.27-.39 1.484 0 2.167 1.23.332.605.332 1.328-.02 3.027-3.027 9.062-3.281 6.543-6.934 10.82-2.89 3.36-5.312 4.044-.703.195-1.387.195-1.758 0-2.48-1.152-.313-.528-.313-1.172 0-1.133.86-1.875.546-.45 1.152-.45 1.015 0 2.09.743.859.586 1.289.664.175.039.332.039.918 0 2.05-1.192 1.504-1.601 1.66-3.613.02-.195.02-.37 0-1.856-2.012-11.27-.703-3.262-1.406-4.2-.644-.8-1.777-.8v-1.075l5.996-.957q1.68 4.375 2.637 10.957l.43 3.125zM658.815 468.79l6.602-.957q1.113 1.484 1.718 4.648.04.195.098.566l.059.293q.214-.273.722-1.015 1.719-2.461 2.832-3.399 1.29-1.093 2.5-1.093 1.485 0 2.207 1.093.39.586.39 1.29 0 1.074-.898 1.757-.546.41-1.152.41-.703 0-1.445-.449-.625-.351-1.153-.351-.957 0-2.636 2.363-.528.742-.918 1.406l1.27 6.27q.35 1.816 1.132 2.07.156.058.332.058.88 0 2.285-1.835.059-.079.176-.215.156-.235.234-.313l.84.567q-1.601 2.148-2.226 2.812-1.934 2.05-3.848 2.07-2.031 0-3.047-2.89-.37-1.113-.8-3.32l-.958 1.562q-.136.215-.41.703-1.25 2.07-2.07 2.852-1.191 1.093-2.578 1.093-1.817 0-2.442-1.25-.253-.488-.253-1.074 0-1.328.937-1.992.488-.332 1.074-.332.84 0 1.68.508.605.37 1.035.37.8 0 1.524-1.171.058-.059.136-.215.098-.156.137-.215l1.758-2.832-1.172-6.093q-.547-2.735-2.11-2.754-.898 0-1.562.078z" style="line-height:1.25;-inkscape-font-specification:TEMPO" font-weight="400" font-size="40" font-family="TEMPO" letter-spacing="0" word-spacing="0"/><path d="M436.206 510.277V236.11" fill="none" stroke="#000" stroke-width="4" stroke-linecap="square" marker-end="url(#c)"/><path d="M487.453 290.174q3.476-6.601 3.476-7.988 0-.938-.703-1.426-.097-.058-.312-.176-.742-.449-.977-.937-.254-.527-.254-1.328 0-1.172 1.036-1.836.605-.39 1.269-.39 1.484 0 2.168 1.23.332.605.332 1.328-.02 3.027-3.027 9.062-3.282 6.543-6.934 10.82-2.89 3.36-5.312 4.044-.704.195-1.387.195-1.758 0-2.48-1.152-.313-.528-.313-1.172 0-1.133.86-1.875.546-.45 1.152-.45 1.015 0 2.09.743.859.586 1.289.664.175.039.332.039.918 0 2.05-1.192 1.504-1.601 1.66-3.613.02-.195.02-.371 0-1.855-2.012-11.27-.703-3.261-1.406-4.199-.644-.8-1.777-.8v-1.075l5.996-.957q1.68 4.375 2.637 10.957l.43 3.125zM492.336 132.166q.644 0 2.11-2.09.273-.41.487-.742l.88.625q-3.204 5.04-5.782 5.059-2.598-.04-2.617-2.441 0-.899.43-2.735-2.11 3.809-4.551 4.824-.996.43-2.09.43-3.457 0-4.102-3.613-.136-.762-.136-1.621 0-2.696 1.68-6.172 1.913-3.926 4.687-5.996 2.168-1.602 4.394-1.602 1.875.02 3.008 1.309l.703-2.559q1.172-4.12 1.172-4.883 0-1.113-1.64-1.113h-.84v-1.074l8.359-1.172-4.687 16.855q-2.032 7.325-2.032 8.008.04.684.567.703zm-3.242-7.949q1.035-3.222 1.035-4.336 0-1.289-.743-1.855-.351-.254-.761-.254-1.64 0-3.555 2.851-1.875 2.774-2.734 6.172-.41 1.621-.41 2.832 0 1.602.8 2.266.371.312.86.312 2.91-.039 5.508-7.988zM500.363 132.088q.04 1.465 2.559 1.485v.996h-7.793l-.04-.996q1.524-.196 2.813-2.09.156-.235.625-.957l14.805-23.281h.996l3.75 22.402q.43 2.539 1.172 3.242.547.547 1.992.664.137.02.273.02v.996h-12.109v-.996q3.066-.254 3.086-1.973l-.567-5.352h-8.593l-2.285 3.848q-.684 1.191-.684 1.992zm11.29-7.441l-1.485-9.727-5.918 9.727z" style="line-height:1.25;-inkscape-font-specification:TEMPO" font-weight="400" font-size="40" font-family="TEMPO" letter-spacing="0" word-spacing="0"/><path fill="none" stroke="#000" stroke-width="4" stroke-linecap="square" stroke-opacity=".993" d="M435.732 167.55h51v51h-51z"/><path d="M465.732 218.55l21-21m-35 21l35-35m-51 3l19-19m-19 35l35-35m-35 51l51-51" fill="none" stroke="#000" stroke-width="2"/></svg>