<svg height="100" viewBox="0 0 52 100" width="52" xmlns="http://www.w3.org/2000/svg"><g><path d="m0 0v100h52v-100zm22.007812 23h8v7.958984l10 31.041016h-28l10-31.041016z" fill="#fff"/><path d="m26 0c-4.41828 0-8 3.58172-8 8s3.58172 8 8 8 8-3.58172 8-8-3.58172-8-8-8zm-7.476562 17.898438c-2.84849 0-5.324646 1.140356-7.197266 2.623046-1.8726202 1.48269-3.2428734 3.254347-3.8457032 5.373047l-6.59570318 23.183594a3 3 0 0 0 2.06445318 3.707031 3 3 0 0 0 3.7050781-2.064453l6.1796871-21.714844h5.363282l-12.197266 37.408203h10v30.085938a3.5 3.5 0 0 0 3.5 3.5 3.5 3.5 0 0 0 3.5-3.5v-30.085938h6v30.085938a3.5 3.5 0 0 0 3.5 3.5 3.5 3.5 0 0 0 3.5-3.5v-30.085938h10l-12.197266-37.408203h5.363282l6.177734 21.714844a3 3 0 0 0 3.707031 2.064453 3 3 0 0 0 2.064453-3.707031l-6.595703-23.183594c-.60284-2.11869-1.975036-3.890357-3.847656-5.373047s-4.346822-2.623046-7.195313-2.623046h-3.248046zm3.484374 5.101562h8v7.958984l10 31.041016h-28l10-31.041016z" stroke-linecap="round" stroke-linejoin="round" stroke-width="3"/></g></svg>