<svg height="100" viewBox="0 0 52 100" width="52" xmlns="http://www.w3.org/2000/svg"><g stroke-linecap="round" stroke-linejoin="round"><path d="m0 0v100h52v-100zm19 24h14v27h-14z" fill="#fff" stroke-width="6.99999"/><path d="m26 0c-4.41828 0-8 3.58172-8 8s3.58172 8 8 8 8-3.58172 8-8-3.58172-8-8-8zm-8.171875 17.644531c-2.80618 0-5.371839.760531-7.710937 1.957031-2.339101 1.196501-5.051188 3.395756-5.054688 6.734376l-.0292969 27.964843c0 1.65685 1.34315 3 3 3s2.9999999-1.34315 2.9999999-3v-25.603515h3.966797v66.802734c0 2.48528 2.01472 4.5 4.5 4.5s4.5-2.01472 4.5-4.5v-38.5h4v38.5c0 2.48528 2.01472 4.5 4.5 4.5s4.5-2.01472 4.5-4.5v-66.802734h3.966797v25.603515c0 1.65685 1.34315 3 3 3s3.00179-1.34315 3-3l-.03125-27.964843c-.004-3.3388-2.715578-5.537875-5.054688-6.734376-2.3391-1.1965-4.902804-1.957031-7.708984-1.957031zm1.171875 6.355469h14v27h-14z" stroke-width="3"/></g></svg>