<svg xmlns="http://www.w3.org/2000/svg" viewBox="0 0 35 35" height="35" width="35"><g paint-order="stroke markers fill"><path fill="#fa983a" d="M0 0h35v35H0z"/><path d="M7.655 3.502a1.398 1.393 0 011.318 1.031l2.326 8.645.975-.26a3.285 3.285 0 013.937 2.047L5.24 17.893a3.268 3.268 0 012.383-3.733l.976-.262-2.326-8.644a1.398 1.393 0 01.988-1.705 1.398 1.393 0 01.395-.047zm20.408 6.512a.713.71 0 01.602.316.713.71 0 01-.198.986.713.71 0 01-.99-.197.713.71 0 01.2-.986.713.71 0 01.386-.12zm-3.36 2.322a1.5 1.506 90 011.22.668 1.5 1.506 90 01-.419 2.08 1.5 1.506 90 01-2.09-.416 1.5 1.506 90 01.419-2.08 1.5 1.506 90 01.87-.252zm-8.333 3.627a1.5 1.5 0 011.326.812c2.62 5.09 6.547 5.867 9.728 6.704a1.5 1.5 0 01.584 2.597c-4.506 3.794-9.58 4.958-17.675 5.422a1.5 1.5 0 01-1.454-.879c-1.695-3.75-3.099-6.944-3.43-10.36a1.5 1.5 0 011.348-1.638 1.5 1.5 0 011.64 1.35c.24 2.498 1.332 5.207 2.77 8.441 1.578-.107 3.082-.23 4.376-.406-1.592-1.714-3.162-3.57-5.012-6.817a1.5 1.5 0 01.56-2.046 1.5 1.5 0 012.045.56c2.21 3.88 3.789 5.515 5.834 7.623 1.719-.442 3.234-1.063 4.614-1.873-2.896-1.023-6.322-2.892-8.594-7.305a1.5 1.5 0 01.646-2.02 1.5 1.5 0 01.694-.165zm11.312.297a2.14 2.132 0 011.77.949 2.14 2.132 0 01-.594 2.957 2.14 2.132 0 01-2.969-.592 2.14 2.132 0 01.596-2.957 2.14 2.132 0 011.197-.357z" fill="#fff"/></g></svg>