<svg xmlns="http://www.w3.org/2000/svg" xmlns:xlink="http://www.w3.org/1999/xlink" width="69" height="127"><defs><marker id="b" refX="0" refY="0" orient="auto" overflow="visible"><path d="M1.154 0l-1.73 1v-2l1.73 1z" fill-rule="evenodd" stroke="#000" stroke-width=".2pt"/></marker><marker id="a" refX="0" refY="0" orient="auto" overflow="visible"><path d="M1.154 0l-1.73 1v-2l1.73 1z" fill-rule="evenodd" stroke="#000" stroke-width=".2pt"/></marker><marker id="d" refX="0" refY="0" orient="auto" overflow="visible"><path d="M1.154 0l-1.73 1v-2l1.73 1z" fill-rule="evenodd" stroke="#000" stroke-width=".2pt"/></marker><marker orient="auto" refY="0" refX="0" id="c" overflow="visible"><path d="M1.154 0l-1.73 1v-2l1.73 1z" fill-rule="evenodd" stroke="#000" stroke-width=".2pt"/></marker></defs><path fill="#f9f9f9" d="M0 0h69v127H0z"/><g id="j"><circle cx="12" cy="20" r="7.5" fill="#81f80a" stroke="#000" stroke-linecap="round" stroke-linejoin="round"/><path d="M20 20l11-9" fill="none" stroke="#000" marker-end="url(#a)"/><path d="M20 20l11 9" fill="none" stroke="#000" marker-end="url(#b)"/><circle r="5.5" cy="10" cx="38" id="e" fill="#fe5908" fill-opacity="1" stroke="#000" stroke-width="1" stroke-linecap="round" stroke-linejoin="round" stroke-miterlimit="4" stroke-dasharray="none" stroke-opacity="1"/><path id="g" d="M44 10l13-5" fill="none" stroke="#000" stroke-width="1" stroke-linecap="butt" stroke-linejoin="miter" stroke-opacity="1" marker-end="url(#c)"/><path d="M44 10l13 5" id="h" fill="none" stroke="#000" stroke-width="1" stroke-linecap="butt" stroke-linejoin="miter" stroke-opacity="1" marker-end="url(#d)"/><circle id="f" cx="62" cy="5" r="3.5" fill="#088efe" fill-opacity="1" stroke="#000" stroke-width="1" stroke-linecap="round" stroke-linejoin="round" stroke-miterlimit="4" stroke-dasharray="none" stroke-opacity="1"/><use xlink:href="#e" transform="translate(0 20)" width="100%" height="100%"/><use x="0" y="0" xlink:href="#f" id="i" transform="translate(0 10)" width="100%" height="100%"/><use xlink:href="#g" transform="translate(0 20)" width="100%" height="100%"/><use xlink:href="#h" transform="translate(0 20)" width="100%" height="100%"/><use xlink:href="#f" transform="translate(0 20)" width="100%" height="100%"/><use xlink:href="#i" transform="translate(0 20)" width="100%" height="100%"/></g><use height="100%" width="100%" transform="translate(0 43.5)" xlink:href="#j"/><use height="100%" width="100%" transform="translate(0 86)" xlink:href="#j"/></svg>