<svg xmlns="http://www.w3.org/2000/svg" width="40" height="40"><path stroke-width="5" stroke="#fff" fill="none" d="M15.982 3.482a12.5 12.5 0 00-12.5 12.5 12.5 12.5 0 0012.5 12.5 12.5 12.5 0 006.45-1.809l8.807 8.81 4.243-4.243-8.809-8.809a12.5 12.5 0 001.81-6.449 12.5 12.5 0 00-12.5-12.5z"/><path d="M15.982 3.482a12.5 12.5 0 00-12.5 12.5 12.5 12.5 0 0012.5 12.5 12.5 12.5 0 006.45-1.809l8.807 8.81 4.243-4.243-8.809-8.809a12.5 12.5 0 001.81-6.449 12.5 12.5 0 00-12.5-12.5z" fill="#3498db"/><path fill="#fff" d="M14.107 8.482v5.625H8.482v3.75h5.625v5.625h3.75v-5.625h5.625v-3.75h-5.625V8.482z"/></svg>