<svg height="206" viewBox="0 0 214 206.00001" width="214" xmlns="http://www.w3.org/2000/svg"><g transform="translate(-56.142857 -162.5)"><path d="m57.142857 277h155.000003" fill="none" stroke="#0000b9" stroke-width="3"/><g fill="#0000b9"><path d="m225.43885 269.82v1.712h-5.128v3.208h4.04v1.656h-4.04v3.272h5.128v1.72h-7.296v-11.568z"/><path d="m229.2911 273.18v8.488q0 .536-.144 1.008-.136.472-.448.824-.304.36-.808.56-.496.208-1.216.208-.28 0-.52-.04-.24-.032-.488-.112l.064-1.064q.024-.16.128-.208.104-.04.4-.04.296 0 .496-.064.208-.056.328-.192.128-.128.176-.344.056-.216.056-.536v-8.488zm.296-2.392q0 .256-.104.48-.104.224-.28.392-.168.168-.4.272-.232.096-.496.096-.256 0-.488-.096-.224-.104-.392-.272-.168-.168-.272-.392-.096-.224-.096-.48 0-.264.096-.496.104-.232.272-.4.168-.168.392-.264.232-.104.488-.104.264 0 .496.104.232.096.4.264.176.168.28.4.104.232.104.496z"/><path d="m234.8916 273.052q.776 0 1.424.248.656.248 1.128.728.472.472.736 1.168.264.688.264 1.576 0 .224-.024.376-.016.144-.072.232-.048.08-.136.12-.088.032-.224.032h-5.072q.088 1.264.68 1.856.592.592 1.568.592.48 0 .824-.112.352-.112.608-.248.264-.136.456-.248.2-.112.384-.112.12 0 .208.048.088.048.152.136l.576.72q-.328.384-.736.648-.408.256-.856.416-.44.152-.904.216-.456.064-.888.064-.856 0-1.592-.28-.736-.288-1.28-.84-.544-.56-.856-1.376-.312-.824-.312-1.904 0-.84.272-1.576.272-.744.776-1.288.512-.552 1.24-.872.736-.32 1.656-.32zm.04 1.416q-.864 0-1.352.488-.488.488-.624 1.384h3.712q0-.384-.104-.72-.104-.344-.32-.6-.216-.256-.544-.4-.328-.152-.768-.152z"/><path d="m243.15585 281.388v-8.208h1.16q.304 0 .424.112.12.112.16.384l.12.992q.44-.76 1.032-1.2.592-.44 1.328-.44.608 0 1.008.28l-.256 1.48q-.024.144-.104.208-.08.056-.216.056-.12 0-.328-.056-.208-.056-.552-.056-.616 0-1.056.344-.44.336-.744.992v5.112z"/><path d="m253.0791 273.052q.776 0 1.424.248.656.248 1.128.728.472.472.736 1.168.264.688.264 1.576 0 .224-.024.376-.016.144-.072.232-.048.08-.136.12-.088.032-.224.032h-5.072q.088 1.264.68 1.856.592.592 1.568.592.48 0 .824-.112.352-.112.608-.248.264-.136.456-.248.2-.112.384-.112.12 0 .208.048.088.048.152.136l.576.72q-.328.384-.736.648-.408.256-.856.416-.44.152-.904.216-.456.064-.888.064-.856 0-1.592-.28-.736-.288-1.28-.84-.544-.56-.856-1.376-.312-.824-.312-1.904 0-.84.272-1.576.272-.744.776-1.288.512-.552 1.24-.872.736-.32 1.656-.32zm.04 1.416q-.864 0-1.352.488-.488.488-.624 1.384h3.712q0-.384-.104-.72-.104-.344-.32-.6-.216-.256-.544-.4-.328-.152-.768-.152z"/><path d="m264.6816 281.388h-.888q-.28 0-.44-.08-.16-.088-.24-.344l-.176-.584q-.312.28-.616.496-.296.208-.616.352-.32.144-.68.216-.36.072-.8.072-.52 0-.96-.136-.44-.144-.76-.424-.312-.28-.488-.696-.176-.416-.176-.968 0-.464.24-.912.248-.456.816-.816.568-.368 1.512-.608.944-.24 2.344-.272v-.48q0-.824-.352-1.216-.344-.4-1.008-.4-.48 0-.8.112-.32.112-.56.256-.232.136-.432.248-.2.112-.44.112-.2 0-.344-.104-.144-.104-.232-.256l-.36-.632q1.416-1.296 3.416-1.296.72 0 1.28.24.568.232.96.656.392.416.592 1 .208.584.208 1.28zm-3.84-1.232q.304 0 .56-.056.256-.056.48-.168.232-.112.44-.272.216-.168.432-.392v-1.384q-.864.04-1.448.152-.576.104-.928.272-.352.168-.504.392-.144.224-.144.488 0 .52.304.744.312.224.808.224z"/><path d="m268.7286 269.5v11.888h-1.976v-11.888z"/><path d="m143.58171 282.57266q.75781 0 1.29688.44531.53906.4375.77343 1.17188.24219.73437.24219 1.45312 0 1.24219-.32812 2.5625-.32032 1.32032-.89844 2.42969-.57813 1.10938-1.28125 1.85938-.44531.46875-1.08594.78906-.63281.32031-1.29687.32031-.61719 0-1.125-.375-.5-.375-.78907-1.09375-.28906-.71875-.28906-1.53906 0-1.79688.64844-3.60156.53906-1.5 1.33594-2.58594.80468-1.09375 1.46093-1.46094.66407-.375 1.33594-.375zm.0547.53125q-.23438 0-.40625.0937-.17188.0859-.375.35938-.19531.27343-.49219 1.16406-.55469 1.625-1.22656 3.96875-.51563 1.80469-.61719 2.3125-.14844.72656-.14844 1.27344 0 .38281.20313.60156.21094.21875.51562.21875.32032 0 .52344-.17188.41406-.35156.6875-1.1875.64063-1.96093 1.61719-5.39843.42969-1.51563.42969-2.38282 0-.39843-.21094-.625-.20313-.22656-.5-.22656z"/></g><path d="m127.64286 163.5v204" fill="none" stroke="#ff9600" stroke-width="3"/><g fill="#ff9600"><path d="m143.43885 165.796v1.712h-5.128v3.208h4.04v1.656h-4.04v3.272h5.128v1.72h-7.296v-11.568z"/><path d="m147.2911 169.156v8.488q0 .536-.144 1.008-.136.472-.448.824-.304.36-.808.56-.496.208-1.216.208-.28 0-.52-.04-.24-.032-.488-.112l.064-1.064q.024-.16.128-.208.104-.04.4-.04.296 0 .496-.064.208-.056.328-.192.128-.128.176-.344.056-.216.056-.536v-8.488zm.296-2.392q0 .256-.104.48-.104.224-.28.392-.168.168-.4.272-.232.096-.496.096-.256 0-.488-.096-.224-.104-.392-.272-.168-.168-.272-.392-.096-.224-.096-.48 0-.264.096-.496.104-.232.272-.4.168-.168.392-.264.232-.104.488-.104.264 0 .496.104.232.096.4.264.176.168.28.4.104.232.104.496z"/><path d="m152.8916 169.028q.776 0 1.424.248.656.248 1.128.728.472.472.736 1.168.264.688.264 1.576 0 .224-.024.376-.016.144-.072.232-.048.08-.136.12-.088.032-.224.032h-5.072q.088 1.264.68 1.856.592.592 1.568.592.48 0 .824-.112.352-.112.608-.248.264-.136.456-.248.2-.112.384-.112.12 0 .208.048.088.048.152.136l.576.72q-.328.384-.736.648-.408.256-.856.416-.44.152-.904.216-.456.064-.888.064-.856 0-1.592-.28-.736-.288-1.28-.84-.544-.56-.856-1.376-.312-.824-.312-1.904 0-.84.272-1.576.272-.744.776-1.288.512-.552 1.24-.872.736-.32 1.656-.32zm.04 1.416q-.864 0-1.352.488-.488.488-.624 1.384h3.712q0-.384-.104-.72-.104-.344-.32-.6-.216-.256-.544-.4-.328-.152-.768-.152z"/><path d="m163.25985 169.156v8.208h-1.976v-8.208zm.296-2.392q0 .256-.104.48-.104.224-.28.392-.168.168-.4.272-.232.096-.496.096-.256 0-.488-.096-.224-.104-.392-.272-.168-.168-.272-.392-.096-.224-.096-.48 0-.264.096-.496.104-.232.272-.4.168-.168.392-.264.232-.104.488-.104.264 0 .496.104.232.096.4.264.176.168.28.4.104.232.104.496z"/><path d="m165.4996 177.364v-8.208h1.208q.384 0 .504.36l.128.608q.216-.24.448-.44.24-.2.504-.344.272-.144.576-.224.312-.088.68-.088.776 0 1.272.424.504.416.752 1.112.192-.408.48-.696.288-.296.632-.48.344-.184.728-.272.392-.088.784-.088.68 0 1.208.208.528.208.888.608.36.4.544.976.192.576.192 1.32v5.224h-1.976v-5.224q0-.784-.344-1.176-.344-.4-1.008-.4-.304 0-.568.104-.256.104-.456.304-.192.192-.304.488-.112.296-.112.68v5.224h-1.984v-5.224q0-.824-.336-1.2-.328-.376-.976-.376-.424 0-.8.216-.368.208-.688.576v6.008z"/><path d="m185.40035 177.364h-.888q-.28 0-.44-.08-.16-.088-.24-.344l-.176-.584q-.312.28-.616.496-.296.208-.616.352-.32.144-.68.216-.36.072-.8.072-.52 0-.96-.136-.44-.144-.76-.424-.312-.28-.488-.696-.176-.416-.176-.968 0-.464.24-.912.248-.456.816-.816.568-.368 1.512-.608.944-.24 2.344-.272v-.48q0-.824-.352-1.216-.344-.4-1.008-.4-.48 0-.8.112-.32.112-.56.256-.232.136-.432.248-.2.112-.44.112-.2 0-.344-.104-.144-.104-.232-.256l-.36-.632q1.416-1.296 3.416-1.296.72 0 1.28.24.568.232.96.656.392.416.592 1 .208.584.208 1.28zm-3.84-1.232q.304 0 .56-.056.256-.056.48-.168.232-.112.44-.272.216-.168.432-.392v-1.384q-.864.04-1.448.152-.576.104-.928.272-.352.168-.504.392-.144.224-.144.488 0 .52.304.744.312.224.808.224z"/><path d="m190.18335 169.012q.528 0 .992.112.464.104.848.312h2.36v.736q0 .184-.096.288-.096.104-.328.144l-.736.136q.08.208.12.44.048.232.048.488 0 .608-.248 1.104-.24.488-.672.832-.424.344-1.016.536-.584.184-1.272.184-.464 0-.904-.088-.384.232-.384.52 0 .248.224.368.232.112.6.16.376.048.848.064.472.008.968.048.496.04.968.144.472.096.84.312.376.216.6.592.232.368.232.952 0 .544-.272 1.056-.264.512-.776.912-.504.4-1.24.64-.736.248-1.68.248-.936 0-1.624-.184-.688-.176-1.144-.48-.448-.296-.672-.688-.224-.392-.224-.816 0-.576.352-.968.352-.392.976-.624-.304-.168-.488-.448-.184-.28-.184-.728 0-.184.064-.376.064-.2.192-.392.136-.192.336-.36.2-.176.472-.312-.624-.336-.984-.896-.352-.56-.352-1.312 0-.608.24-1.096.248-.496.68-.84.44-.352 1.032-.536.6-.184 1.304-.184zm2.168 8.72q0-.24-.144-.392-.144-.152-.392-.232-.248-.088-.584-.128-.328-.04-.704-.056-.368-.024-.768-.04-.392-.024-.76-.072-.336.184-.544.44-.2.248-.2.576 0 .216.104.4.112.192.344.328.24.136.616.208.376.08.92.08.552 0 .952-.088.4-.08.656-.232.264-.144.384-.352.12-.2.12-.44zm-2.168-4.672q.368 0 .64-.096.272-.104.448-.28.184-.176.272-.424.096-.248.096-.544 0-.608-.368-.96-.36-.36-1.088-.36-.728 0-1.096.36-.36.352-.36.96 0 .288.088.536.096.248.272.432.184.176.456.28.28.096.64.096z"/><path d="m197.7286 169.156v8.208h-1.976v-8.208zm.296-2.392q0 .256-.104.48-.104.224-.28.392-.168.168-.4.272-.232.096-.496.096-.256 0-.488-.096-.224-.104-.392-.272-.168-.168-.272-.392-.096-.224-.096-.48 0-.264.096-.496.104-.232.272-.4.168-.168.392-.264.232-.104.488-.104.264 0 .496.104.232.096.4.264.176.168.28.4.104.232.104.496z"/><path d="m199.96835 177.364v-8.208h1.208q.384 0 .504.36l.136.648q.248-.256.52-.464.28-.208.584-.36.312-.152.664-.232.352-.08.768-.08.672 0 1.192.232.52.224.864.64.352.408.528.984.184.568.184 1.256v5.224h-1.976v-5.224q0-.752-.352-1.16-.344-.416-1.04-.416-.512 0-.96.232-.448.232-.848.632v5.936z"/><path d="m215.4941 177.364h-.888q-.28 0-.44-.08-.16-.088-.24-.344l-.176-.584q-.312.28-.616.496-.296.208-.616.352-.32.144-.68.216-.36.072-.8.072-.52 0-.96-.136-.44-.144-.76-.424-.312-.28-.488-.696-.176-.416-.176-.968 0-.464.24-.912.248-.456.816-.816.568-.368 1.512-.608.944-.24 2.344-.272v-.48q0-.824-.352-1.216-.344-.4-1.008-.4-.48 0-.8.112-.32.112-.56.256-.232.136-.432.248-.2.112-.44.112-.2 0-.344-.104-.144-.104-.232-.256l-.36-.632q1.416-1.296 3.416-1.296.72 0 1.28.24.568.232.96.656.392.416.592 1 .208.584.208 1.28zm-3.84-1.232q.304 0 .56-.056.256-.056.48-.168.232-.112.44-.272.216-.168.432-.392v-1.384q-.864.04-1.448.152-.576.104-.928.272-.352.168-.504.392-.144.224-.144.488 0 .52.304.744.312.224.808.224z"/><path d="m217.4371 177.364v-8.208h1.16q.304 0 .424.112.12.112.16.384l.12.992q.44-.76 1.032-1.2.592-.44 1.328-.44.608 0 1.008.28l-.256 1.48q-.024.144-.104.208-.08.056-.216.056-.12 0-.328-.056-.208-.056-.552-.056-.616 0-1.056.344-.44.336-.744.992v5.112z"/><path d="m226.07235 169.156v8.208h-1.976v-8.208zm.296-2.392q0 .256-.104.48-.104.224-.28.392-.168.168-.4.272-.232.096-.496.096-.256 0-.488-.096-.224-.104-.392-.272-.168-.168-.272-.392-.096-.224-.096-.48 0-.264.096-.496.104-.232.272-.4.168-.168.392-.264.232-.104.488-.104.264 0 .496.104.232.096.4.264.176.168.28.4.104.232.104.496z"/><path d="m231.8161 169.028q.92 0 1.664.296.752.296 1.28.84.528.544.816 1.328.288.784.288 1.752 0 .976-.288 1.76-.288.784-.816 1.336-.528.552-1.28.848-.744.296-1.664.296-.92 0-1.672-.296-.752-.296-1.288-.848-.528-.552-.824-1.336-.288-.784-.288-1.76 0-.968.288-1.752.296-.784.824-1.328.536-.544 1.288-.84.752-.296 1.672-.296zm0 6.936q1.024 0 1.512-.688.496-.688.496-2.016 0-1.328-.496-2.024-.488-.696-1.512-.696-1.04 0-1.536.704-.496.696-.496 2.016 0 1.32.496 2.016.496.688 1.536.688z"/></g><path d="m141.5114 240.54922q.48437 0 .8125.33594.33594.33594.33594.8125 0 .47656-.33594.8125-.33594.33594-.8125.33594-.46875 0-.80469-.33594-.33594-.33594-.33594-.8125 0-.47656.32813-.8125.33594-.33594.8125-.33594zm.48437 3.59375-1.60156 5.55469q-.13281.47656-.13281.625 0 .0859.0703.16406.0703.0703.14844.0703.13281 0 .26562-.11719.35157-.28906.84375-1.04688l.26563.15625q-1.17969 2.05469-2.50781 2.05469-.50782 0-.8125-.28125-.29688-.28906-.29688-.72656 0-.28906.13281-.73438l1.08594-3.73437q.15625-.53906.15625-.8125 0-.17188-.14844-.30469-.14843-.13281-.40625-.13281-.11718 0-.28125.008l.10157-.3125 2.64843-.42969z" fill="#ff9600"/><g fill="#ff9600"><path d="m144.54265 215.38516h-6.23438v-.17187q2.86719-3.41407 3.47657-4.59375.61718-1.17969.61718-2.30469 0-.82031-.50781-1.35938-.50781-.54687-1.24219-.54687-1.20312 0-1.86718 1.20312l-.28907-.10156q.42188-1.5 1.28125-2.21875.85938-.71875 1.98438-.71875.80469 0 1.46875.375.66406.375 1.03906 1.03125.375.64844.375 1.21875 0 1.03906-.57812 2.10938-.78907 1.44531-3.44532 4.03125h2.28907q.84375 0 1.09375-.0703.25781-.0703.42187-.23437.16406-.17188.42969-.71094h.28125z"/><path d="m149.5114 204.54922q.48437 0 .8125.33594.33594.33594.33594.8125 0 .47656-.33594.8125-.33594.33594-.8125.33594-.46875 0-.80469-.33594-.33594-.33594-.33594-.8125 0-.47656.32813-.8125.33594-.33594.8125-.33594zm.48437 3.59375-1.60156 5.55469q-.13281.47656-.13281.625 0 .0859.0703.16406.0703.0703.14844.0703.13281 0 .26562-.11719.35157-.28906.84375-1.04688l.26563.15625q-1.17969 2.05469-2.50781 2.05469-.50782 0-.8125-.28125-.29688-.28906-.29688-.72656 0-.28906.13281-.73438l1.08594-3.73437q.15625-.53906.15625-.8125 0-.17188-.14844-.30469-.14843-.13281-.40625-.13281-.11718 0-.28125.008l.10157-.3125 2.64843-.42969z" fill="#ff9600"/></g><g fill="#ff9600"><path d="m138.48015 311.57266h8.53906v1.03125h-8.53906z"/><path d="m151.1989 306.54922q.48437 0 .8125.33594.33594.33594.33594.8125 0 .47656-.33594.8125-.33594.33594-.8125.33594-.46875 0-.80469-.33594-.33594-.33594-.33594-.8125 0-.47656.32813-.8125.33594-.33594.8125-.33594zm.48437 3.59375-1.60156 5.55469q-.13281.47656-.13281.625 0 .0859.0703.16406.0703.0703.14844.0703.13281 0 .26562-.11719.35157-.28906.84375-1.04688l.26563.15625q-1.17969 2.05469-2.50781 2.05469-.50782 0-.8125-.28125-.29688-.28906-.29688-.72656 0-.28906.13281-.73438l1.08594-3.73437q.15625-.53906.15625-.8125 0-.17188-.14844-.30469-.14843-.13281-.40625-.13281-.11718 0-.28125.008l.10157-.3125 2.64843-.42969z"/></g><g fill="#ff9600"><path d="m138.48015 347.57266h8.53906v1.03125h-8.53906z" fill="#ff9600"/><path d="m154.23015 353.38516h-6.23438v-.17187q2.86719-3.41407 3.47657-4.59375.61718-1.17969.61718-2.30469 0-.82031-.50781-1.35938-.50781-.54687-1.24219-.54687-1.20312 0-1.86718 1.20312l-.28907-.10156q.42188-1.5 1.28125-2.21875.85938-.71875 1.98438-.71875.80469 0 1.46875.375.66406.375 1.03906 1.03125.375.64844.375 1.21875 0 1.03906-.57812 2.10938-.78907 1.44531-3.44532 4.03125h2.28907q.84375 0 1.09375-.0703.25781-.0703.42187-.23437.16406-.17188.42969-.71094h.28125z"/><path d="m159.1989 342.54922q.48437 0 .8125.33594.33594.33594.33594.8125 0 .47656-.33594.8125-.33594.33594-.8125.33594-.46875 0-.80469-.33594-.33594-.33594-.33594-.8125 0-.47656.32813-.8125.33594-.33594.8125-.33594zm.48437 3.59375-1.60156 5.55469q-.13281.47656-.13281.625 0 .0859.0703.16406.0703.0703.14844.0703.13281 0 .26562-.11719.35157-.28906.84375-1.04688l.26563.15625q-1.17969 2.05469-2.50781 2.05469-.50782 0-.8125-.28125-.29688-.28906-.29688-.72656 0-.28906.13281-.73438l1.08594-3.73437q.15625-.53906.15625-.8125 0-.17188-.14844-.30469-.14843-.13281-.40625-.13281-.11718 0-.28125.008l.10157-.3125 2.64843-.42969z" fill="#ff9600"/></g><circle cx="127.64286" cy="277" fill="#ccc" r="4.5" stroke="#e6e6e6" stroke-linecap="round" stroke-linejoin="round" stroke-width="2"/><circle cx="127.64286" cy="243" fill="#ccc" r="4.5" stroke="#e6e6e6" stroke-linecap="round" stroke-linejoin="round" stroke-width="2"/><circle cx="127.64286" cy="209" fill="#ccc" r="4.5" stroke="#e6e6e6" stroke-linecap="round" stroke-linejoin="round" stroke-width="2"/><circle cx="127.64286" cy="345" fill="#ccc" r="4.5" stroke="#e6e6e6" stroke-linecap="round" stroke-linejoin="round" stroke-width="2"/><circle cx="127.64286" cy="311" fill="#ccc" r="4.5" stroke="#e6e6e6" stroke-linecap="round" stroke-linejoin="round" stroke-width="2"/></g></svg>